<svg id="Icons-Home" xmlns="http://www.w3.org/2000/svg" xmlns:xlink="http://www.w3.org/1999/xlink" viewBox="0 0 512 512"><defs><style>.cls-1{fill:#f15a24;opacity:0.14;}.cls-2{fill:#ff8f45;}.cls-3{fill:url(#linear-gradient);}.cls-4,.cls-7{fill:#cd4927;}.cls-4{opacity:0.6;}.cls-5{fill:#ffc85e;}.cls-6{fill:url(#linear-gradient-2);}.cls-7{opacity:0.3;}.cls-8{fill:#fff;}.cls-9{fill:#ffb654;}.cls-10{fill:none;}.cls-11{fill:#f97e48;opacity:0.4;}</style><linearGradient id="linear-gradient" x1="256" y1="105.987" x2="256" y2="374.104" gradientUnits="userSpaceOnUse"><stop offset="0" stop-color="#ffaf41"/><stop offset="0.466" stop-color="#ffa736"/><stop offset="1" stop-color="#ff8f45"/></linearGradient><linearGradient id="linear-gradient-2" x1="253.1" y1="267.257" x2="252.41" y2="408.027" gradientUnits="userSpaceOnUse"><stop offset="0" stop-color="#ffa736"/><stop offset="0.487" stop-color="#ff8f45"/><stop offset="0.984" stop-color="#ff8f45"/></linearGradient></defs><title>Bus-Company</title><g id="Bus-Company"><circle id="Background-Orange" class="cls-1" cx="256" cy="256" r="256"/><g id="Bus-Company-2" data-name="Bus-Company"><path class="cls-2" d="M407.064,378.19H104.936V220.457A151.064,151.064,0,0,1,255.664,69.393h0a151.064,151.064,0,0,1,151.4,151.064Z"/><path class="cls-3" d="M393.119,378.077H118.881V221.449A137.119,137.119,0,0,1,255.7,84.33h0A137.119,137.119,0,0,1,393.119,221.449Z"/><rect class="cls-4" x="129.107" y="199.198" width="253.786" height="179.784"/><path class="cls-5" d="M382.893,193.062v12.084H129.107V193.062a12.117,12.117,0,0,1,12.086-12.086H370.807a12.117,12.117,0,0,1,12.086,12.086Zm0,0"/><path class="cls-2" d="M105.173,376.753H406.827c6.17,0,11.173,4.575,11.173,10.22v10.218c0,5.644-5,10.22-11.173,10.22H105.173C99,407.412,94,402.835,94,397.192V386.973c0-5.645,5-10.22,11.173-10.22Zm0,0"/><path class="cls-6" d="M345.842,257.649c-2.126-.007-4.253,0-6.4,0-.218-.728-1.247,1.75-2.28,2.748a12.373,12.373,0,0,1-2.665,2.132,12.121,12.121,0,0,1-3.6.973c-.055,0-.109-.007-.163-.008,0,.048,0,.079.007.106-5.315,1.588-7.98-.008-12.238-2.137-2.567-1.284-4.264,1.6-8.527,1.6a10.306,10.306,0,0,1-8.527-4.264c-2.354-2.943-1.066-11.192-1.066-11.192-5.863,1.066-9.593-5.863-9.593-5.863h0a7.2,7.2,0,0,1-1.066-2.665,8.275,8.275,0,0,1,1.086-5.85c-32.973-.035-56.353-.039-89.326.007a28.327,28.327,0,0,0-27.422,22.021c-.165.713-.318,1.429-.531,2.393-2.055,0-4.168,0-6.281,0-6.747.009-10.788,3-12.831,9.476a1.874,1.874,0,0,1-.333.467v43.17a30.349,30.349,0,0,0,1.417,3.689,11.931,11.931,0,0,0,11.048,6.6c2.179.036,4.358.006,6.756.006v2.539c0,20.1.165,40.2-.053,60.3-.167,15.41,9.98,25.891,20.792,28.7.2.053.614.151.614.151H199.8v14.538a4.2,4.2,0,0,0,4.184,4.184h20.832A4.2,4.2,0,0,0,229,427.278V412.74h54.841v14.538a4.2,4.2,0,0,0,4.184,4.184h20.832a4.2,4.2,0,0,0,4.184-4.184V412.74H318.4l.21-.063c11.021-3.324,17.809-10.68,20.316-21.923a31.494,31.494,0,0,0,.574-6.747q.063-30.178.024-60.357v-2.6c2.221,0,4.264.016,6.306,0C354.017,320.974,354.1,257.675,345.842,257.649ZM251.475,344.58H192.53l21.412-20.912a4.63,4.63,0,0,0-6.47-6.624l-25.285,24.694V279.255h69.288Zm79.158.038H285.045l22.909-22.374a4.63,4.63,0,0,0-6.47-6.624L273,343.443a4.624,4.624,0,0,0-.87,1.175H260.459v-65.4h70.174Z"/><path class="cls-7" d="M173.253,383.886c-.167,15.41,9.98,25.891,20.792,28.7.2.053.614.151.614.151H199.8v14.538a4.2,4.2,0,0,0,4.184,4.184h20.832A4.2,4.2,0,0,0,229,427.278V412.74h54.841v14.538a4.2,4.2,0,0,0,4.184,4.184h20.832a4.2,4.2,0,0,0,4.184-4.184V412.74H318.4l.21-.063c11.021-3.324,17.809-10.68,20.316-21.923a31.494,31.494,0,0,0,.574-6.747Z"/><rect class="cls-8" x="181.749" y="279.048" width="72.332" height="65.524"/><rect class="cls-8" x="257.558" y="279.048" width="72.332" height="65.524"/><path class="cls-9" d="M345.373,257.649c-2.126-.007-6.4,0-6.4,0h0a24.341,24.341,0,0,0-24.333-24.428c-33.108-.008-90.733-.018-113.621.014a28.327,28.327,0,0,0-27.422,22.021c-.165.713-.318,1.429-.531,2.393-2.055,0-4.168,0-6.281,0-6.747.009-12.809,2.882-13.165,9.943v43.17c.356,8.884,7.527,10.2,12.465,10.284,2.179.036,4.358.006,6.756.006v2.539c0,20.1-.053,60.3-.053,60.3h57.721c-.014-.145-.022-.292-.022-.44V376.8a4.617,4.617,0,0,1,4.617-4.617h41.742a4.617,4.617,0,0,1,4.617,4.617v6.647c0,.149-.009.3-.022.44h57.591s.024-40.116.024-60.235v-2.6c2.221,0,4.264.016,6.306,0,8.19-.076,13.021-4.255,12.873-14.11,0-.188.143-36.906.148-37.151C358.552,261.068,353.632,257.675,345.373,257.649Zm-91.292,86.923h-3.075v.009H192.061l.009-.009h-3.215l26.913-25.717a2.852,2.852,0,0,0-.31-4.378,2.943,2.943,0,0,0-3.727.355L181.749,343.48v-1.772l-.031.03V279.255h.031v-.207h72.332Zm76.083.046H284.576l.047-.046h-3.181l26.913-25.717a2.849,2.849,0,1,0-3.937-4.119L273.2,344.572h-1.509c-.008.016-.02.03-.029.046H259.99v-.046h-2.431V279.048H329.89v.174h.273Z"/><path class="cls-2" d="M345.373,257.649c-2.126-.007-6.4,0-6.4,0h0c.046-13.476.083,63.405.083,63.405s4.264.016,6.306,0c8.19-.076,13.021-4.255,12.873-14.11,0-.188.143-36.906.148-37.151C358.552,261.068,353.632,257.675,345.373,257.649Z"/><path class="cls-2" d="M173.062,257.648s-4.168,0-6.281,0c-6.747.009-12.809,2.882-13.165,9.943v43.17c.356,8.884,7.527,10.2,12.465,10.284,2.179.036,6.756.006,6.756.006Z"/><path class="cls-8" d="M220.361,368.762a7.7,7.7,0,1,1-7.582-8.2A8,8,0,0,1,220.361,368.762Z"/><path class="cls-8" d="M291.529,368.622a7.688,7.688,0,1,1,15.354.069c.009,4.532-3.558,8.264-7.8,8.167A8.01,8.01,0,0,1,291.529,368.622Z"/><path class="cls-10" d="M330.164,279.222H259.99v65.4h70.174Z"/><path class="cls-10" d="M251.006,279.255H181.718V344.58h69.288Z"/><rect class="cls-11" x="175.425" y="420.669" width="161.542" height="21.938" rx="10.36" ry="10.36"/><path class="cls-8" d="M252.782,138.949V116.755H238.366a7.777,7.777,0,0,0-7.777,7.777v14.417Z"/><path class="cls-8" d="M259.218,138.949h22.194V124.533a7.777,7.777,0,0,0-7.777-7.777H259.218Z"/><path class="cls-8" d="M252.782,145.386H230.588V159.8a7.777,7.777,0,0,0,7.777,7.777h14.416Z"/><path class="cls-8" d="M259.218,145.386v22.193h14.416a7.777,7.777,0,0,0,7.777-7.777V145.386Z"/></g></g></svg>