<svg id="Layer_1" data-name="Layer 1" xmlns="http://www.w3.org/2000/svg" xmlns:xlink="http://www.w3.org/1999/xlink" viewBox="0 0 512 512"><defs><style>.cls-1,.cls-10,.cls-5,.cls-7{fill:#f15a24;}.cls-1{opacity:0.14;}.cls-2{fill:#f97e48;}.cls-10,.cls-2{opacity:0.2;}.cls-3{fill:url(#linear-gradient);}.cls-4{fill:url(#linear-gradient-2);}.cls-5{opacity:0.3;}.cls-6{fill:#ff8f45;}.cls-7{opacity:0.42;}.cls-8{fill:url(#linear-gradient-3);}.cls-9{fill:#ffc85e;}.cls-11,.cls-12,.cls-13{opacity:0.67;}.cls-11{fill:url(#radial-gradient);}.cls-12{fill:url(#radial-gradient-2);}.cls-13{fill:url(#radial-gradient-3);}</style><linearGradient id="linear-gradient" x1="152.242" y1="157.073" x2="369.949" y2="285.423" gradientTransform="translate(171.182 -97.724) rotate(33.143)" gradientUnits="userSpaceOnUse"><stop offset="0" stop-color="#ffa736"/><stop offset="0.487" stop-color="#ff8f45"/><stop offset="0.984" stop-color="#ff8f45"/></linearGradient><linearGradient id="linear-gradient-2" x1="141.405" y1="176.603" x2="378.685" y2="316.492" gradientTransform="translate(71.331 -53) rotate(14.751)" xlink:href="#linear-gradient"/><linearGradient id="linear-gradient-3" x1="122.765" y1="197.308" x2="360.045" y2="337.197" gradientTransform="matrix(1, 0, 0, 1, 0, 0)" xlink:href="#linear-gradient"/><radialGradient id="radial-gradient" cx="2127.565" cy="-126.269" r="8.921" gradientTransform="translate(-2078.329 339.486)" gradientUnits="userSpaceOnUse"><stop offset="0" stop-color="#f7931e"/><stop offset="1" stop-color="#f15a24"/></radialGradient><radialGradient id="radial-gradient-2" cx="-1006.516" cy="1851.243" r="12.476" gradientTransform="translate(2200.523 1085.188) rotate(90)" xlink:href="#radial-gradient"/><radialGradient id="radial-gradient-3" cx="-794.045" cy="2159.172" r="8.921" gradientTransform="translate(2440.803 1240.177) rotate(90)" xlink:href="#radial-gradient"/></defs><title>Cash</title><circle class="cls-1" cx="256" cy="256" r="256"/><path class="cls-2" d="M360.929,328.226q-1.6,0-3.187.035a15.824,15.824,0,0,0-13.526-7.686H100.9a15.855,15.855,0,0,0-15.809,15.809h0A15.855,15.855,0,0,0,100.9,352.193H295.771a13.056,13.056,0,0,0-.862,4.6c0,15.775,29.559,28.562,66.021,28.562s66.021-12.788,66.021-28.562S397.392,328.226,360.929,328.226Z"/><path class="cls-3" d="M289.9,334.03,118.233,221.937,193.936,106l236.2,154.231-48.637,73.7Z"/><path class="cls-4" d="M378.136,353.829,105.338,282l35.256-133.9,272.8,71.828Z"/><path class="cls-5" d="M298.295,313.251l39.662,10.443,34.15-19.349.139-.529,11.391-43.261-17.6-33.54-42.119-11.09L226.6,190.3l-45.822-12.065-34.15,19.349-.139.529-11.391,43.261,17.6,33.54,48.28,12.712Z"/><circle class="cls-6" cx="256.285" cy="250.153" r="52.499" transform="translate(-50.879 434.296) rotate(-75.249)"/><path class="cls-7" d="M378.136,353.829,105.338,282l35.256-133.9,272.8,71.828Z"/><path class="cls-8" d="M381.64,336.005H99.544V197.541h282.1Z"/><path class="cls-5" d="M294.1,317.094h41.014l28.1-27.406V244.405l-25.557-27.953H146.072l-28.1,27.406v45.283l25.557,27.953H294.1Z"/><circle class="cls-6" cx="237.407" cy="266.773" r="52.499"/><path class="cls-9" d="M230.96,284.18c-1.289-1.289-1.934-3.224-2.579-5.8l-10.96,1.289c.645,5.158,2.579,9.671,5.8,12.25,3.224,3.224,7.092,4.513,11.6,5.158v5.158h5.8v-5.8c5.158-.645,9.671-2.579,12.25-6.447,3.224-3.224,4.513-7.737,4.513-12.25s-1.289-8.381-3.868-10.96-7.092-5.158-13.539-7.092V244.853a8.862,8.862,0,0,1,5.158,6.447l10.315-1.289a17.739,17.739,0,0,0-5.158-9.671c-2.579-2.579-5.8-3.868-10.315-4.513v-4.513h-5.8v3.868c-4.513.645-8.381,1.934-11.6,5.158a18.536,18.536,0,0,0-4.513,11.6,18,18,0,0,0,3.868,11.6c2.579,3.224,6.447,5.158,11.6,7.092v17.407A9.914,9.914,0,0,1,230.96,284.18Zm9.671-11.6c2.579.645,4.513,1.934,5.158,3.224s1.934,3.224,1.934,4.513a7.321,7.321,0,0,1-1.934,5.158,7.959,7.959,0,0,1-5.158,2.579Zm-9.671-16.763a9.163,9.163,0,0,1-1.289-3.868,11.953,11.953,0,0,1,1.289-4.513c.645-1.289,1.934-1.934,3.868-2.579v14.184A6.6,6.6,0,0,1,230.96,255.813Z"/><path class="cls-9" d="M315.283,337.756v19.361c0,8.02,21.67,14.521,48.4,14.521s48.4-6.5,48.4-14.521V337.756"/><path class="cls-9" d="M315.283,318.4v19.361c0,8.02,21.67,14.521,48.4,14.521s48.4-6.5,48.4-14.521V318.4"/><path class="cls-10" d="M315.283,318.4v19.361c0,8.02,21.67,14.521,48.4,14.521s48.4-6.5,48.4-14.521V318.4"/><path class="cls-9" d="M315.283,299.035V318.4c0,8.02,21.67,14.521,48.4,14.521s48.4-6.5,48.4-14.521V299.035"/><path class="cls-9" d="M315.283,279.674v19.361c0,8.02,21.67,14.521,48.4,14.521s48.4-6.5,48.4-14.521V279.674"/><path class="cls-10" d="M315.283,279.674v19.361c0,8.02,21.67,14.521,48.4,14.521s48.4-6.5,48.4-14.521V279.674"/><path class="cls-9" d="M315.283,260.313v19.361c0,8.02,21.67,14.521,48.4,14.521s48.4-6.5,48.4-14.521V260.313"/><path class="cls-9" d="M315.283,240.953v19.361c0,8.02,21.67,14.521,48.4,14.521s48.4-6.5,48.4-14.521V240.953"/><path class="cls-10" d="M315.283,240.953v19.361c0,8.02,21.67,14.521,48.4,14.521s48.4-6.5,48.4-14.521V240.953"/><ellipse class="cls-9" cx="363.685" cy="240.953" rx="48.402" ry="14.521"/><circle class="cls-11" cx="49.04" cy="214.978" r="3.915" transform="translate(-137.649 97.643) rotate(-45)"/><circle class="cls-12" cx="346.817" cy="78.398" r="5.476" transform="translate(46.144 268.199) rotate(-45)"/><circle class="cls-13" cx="279.868" cy="445.936" r="3.915" transform="translate(-233.353 328.508) rotate(-45)"/></svg>