<svg id="Icons-Home" xmlns="http://www.w3.org/2000/svg" xmlns:xlink="http://www.w3.org/1999/xlink" viewBox="0 0 512 512"><defs><style>.cls-1,.cls-10{fill:#fff;}.cls-2{fill:#f97e48;opacity:0.47;}.cls-3{fill:url(#linear-gradient);}.cls-4{fill:#f15a24;opacity:0.1;}.cls-5{fill:#ff8f45;}.cls-6{fill:#cd4927;opacity:0.3;}.cls-7{fill:#ce471d;opacity:0.6;}.cls-8{fill:#ffb654;}.cls-9{fill:#ff7b34;}.cls-10{font-size:42px;font-family:AvenirNextLTPro-Bold, Avenir Next LT Pro;font-weight:700;letter-spacing:-0.01em;}.cls-11{letter-spacing:0.05em;}</style><linearGradient id="linear-gradient" x1="98.631" y1="252.354" x2="413.369" y2="252.354" gradientUnits="userSpaceOnUse"><stop offset="0" stop-color="#ffa736"/><stop offset="0.487" stop-color="#ff8f45"/><stop offset="0.984" stop-color="#ff8f45"/></linearGradient></defs><title>Colectivos_White</title><g id="Colectivos_White"><circle id="Background-Orange" class="cls-1" cx="256" cy="256" r="256"/><g id="Colectivos_Orange"><rect class="cls-2" x="91.998" y="385.231" width="328" height="18" rx="9" ry="9"/><path class="cls-3" d="M397.045,248.532,381.6,237.841l-14.168-61.766a32.615,32.615,0,0,0-31.793-25.324H176.365a32.622,32.622,0,0,0-31.793,25.324L130.4,237.841l-15.449,10.691a37.89,37.89,0,0,0-16.324,31.149v55.586a18.693,18.693,0,0,0,18.7,18.691H394.674a18.693,18.693,0,0,0,18.7-18.691V279.681a37.88,37.88,0,0,0-16.324-31.149Zm0,0"/><path class="cls-1" d="M367,234.955H145.006L158.7,175.27a15.43,15.43,0,0,1,15.108-12.039H338.2a15.436,15.436,0,0,1,15.111,12.039Zm0,0"/><path class="cls-4" d="M367,234.955H145.006L158.7,175.27a15.43,15.43,0,0,1,15.108-12.039H338.2a15.436,15.436,0,0,1,15.111,12.039Zm0,0"/><path class="cls-1" d="M123.752,284.154a24.65,24.65,0,1,0,49.3,0Zm0,0"/><path class="cls-1" d="M338.947,284.154a24.651,24.651,0,1,0,49.3,0Zm0,0"/><path class="cls-5" d="M406.658,327.271H105.342a13.344,13.344,0,1,0,0,26.687H406.658a13.344,13.344,0,1,0,0-26.687Zm0,0"/><path class="cls-6" d="M406.658,327.271H105.342a13.344,13.344,0,1,0,0,26.687H406.658a13.344,13.344,0,1,0,0-26.687Zm0,0"/><path class="cls-5" d="M116.221,353.958V382.37a11.916,11.916,0,0,0,11.916,11.916h21.394a11.92,11.92,0,0,0,11.92-11.92V353.958"/><path class="cls-7" d="M116.221,353.958V382.37a11.916,11.916,0,0,0,11.916,11.916h21.394a11.92,11.92,0,0,0,11.92-11.92V353.958"/><path class="cls-5" d="M350.221,353.958V382.37a11.916,11.916,0,0,0,11.916,11.916h21.394a11.92,11.92,0,0,0,11.92-11.92V353.958"/><path class="cls-7" d="M350.221,353.958V382.37a11.916,11.916,0,0,0,11.916,11.916h21.394a11.92,11.92,0,0,0,11.92-11.92V353.958"/><path class="cls-1" d="M367,234.955h-76.43L218.843,163.23H338.2a15.436,15.436,0,0,1,15.111,12.039Zm0,0"/><rect class="cls-6" x="198.803" y="287.154" width="120.801" height="7.85" rx="3.925" ry="3.925"/><rect class="cls-6" x="198.803" y="302.381" width="120.801" height="7.85" rx="3.925" ry="3.925"/><path class="cls-8" d="M323,155.313H189l4.016-34.036a14.2,14.2,0,0,1,14.1-12.507h97.774a14.2,14.2,0,0,1,14.1,12.507Z"/><path class="cls-9" d="M412.639,219.859a10.614,10.614,0,0,0-10.467-8.032h-8.887a10.307,10.307,0,0,0-10.307,10.307v6.334h-4.71l2.7,6.419h10.361a37.321,37.321,0,0,0,15.541-3.386A10.3,10.3,0,0,0,412.639,219.859Z"/><path class="cls-9" d="M129.01,228.468v-6.334a10.3,10.3,0,0,0-10.3-10.307h-8.887a10.614,10.614,0,0,0-10.467,8.032,10.3,10.3,0,0,0,5.768,11.632,37.358,37.358,0,0,0,15.541,3.386h10.361l2.7-6.419H129.01Z"/><text class="cls-10" transform="translate(204.11 147.283)">T<tspan class="cls-11" x="23.982" y="0">AXI</tspan></text></g></g></svg>