<svg id="Icons-Home" xmlns="http://www.w3.org/2000/svg" viewBox="0 0 512 512"><defs><style>.cls-1,.cls-3{fill:#b3b3b3;}.cls-1{opacity:0.14;}.cls-2{fill:#9d9d9d;opacity:0.47;}.cls-4,.cls-8{fill:#fff;}.cls-5{fill:#878787;}.cls-6,.cls-7{fill:#666;}.cls-7{opacity:0.6;}.cls-8{font-size:34.857px;font-family:Roboto-Black, Roboto;}</style></defs><title>Colectivos_Grey</title><g id="Colectivos_Grey"><circle class="cls-1" cx="256" cy="256" r="256"/><rect class="cls-2" x="91.998" y="379.484" width="328" height="18" rx="9" ry="9"/><path class="cls-3" d="M397.045,242.786,381.6,232.095l-14.168-61.766A32.615,32.615,0,0,0,335.635,145H176.365a32.622,32.622,0,0,0-31.793,25.324L130.4,232.095l-15.449,10.691a37.89,37.89,0,0,0-16.324,31.149v55.586a18.693,18.693,0,0,0,18.7,18.691H394.674a18.693,18.693,0,0,0,18.7-18.691V273.935a37.88,37.88,0,0,0-16.324-31.149Zm0,0"/><path class="cls-4" d="M367,229.209H145.006L158.7,169.524a15.43,15.43,0,0,1,15.108-12.039H338.2a15.436,15.436,0,0,1,15.111,12.039Zm0,0"/><path class="cls-1" d="M367,229.209H145.006L158.7,169.524a15.43,15.43,0,0,1,15.108-12.039H338.2a15.436,15.436,0,0,1,15.111,12.039Zm0,0"/><path class="cls-4" d="M123.752,278.408a24.65,24.65,0,1,0,49.3,0Zm0,0"/><path class="cls-4" d="M338.947,278.408a24.651,24.651,0,1,0,49.3,0Zm0,0"/><path class="cls-5" d="M406.658,321.525H105.342a13.344,13.344,0,1,0,0,26.687H406.658a13.344,13.344,0,1,0,0-26.687Zm0,0"/><path class="cls-6" d="M116.221,348.212v28.412a11.916,11.916,0,0,0,11.916,11.916h21.394a11.92,11.92,0,0,0,11.92-11.92V348.212"/><path class="cls-7" d="M116.221,348.212v28.412a11.916,11.916,0,0,0,11.916,11.916h21.394a11.92,11.92,0,0,0,11.92-11.92V348.212"/><path class="cls-6" d="M350.221,348.212v28.412a11.916,11.916,0,0,0,11.916,11.916h21.394a11.92,11.92,0,0,0,11.92-11.92V348.212"/><path class="cls-7" d="M350.221,348.212v28.412a11.916,11.916,0,0,0,11.916,11.916h21.394a11.92,11.92,0,0,0,11.92-11.92V348.212"/><path class="cls-4" d="M367,229.209h-76.43l-71.724-71.724H338.2a15.436,15.436,0,0,1,15.111,12.039Zm0,0"/><rect class="cls-6" x="198.803" y="281.408" width="120.801" height="7.85" rx="3.925" ry="3.925"/><rect class="cls-6" x="198.803" y="296.635" width="120.801" height="7.85" rx="3.925" ry="3.925"/><path class="cls-5" d="M312,150.074H200l3.356-25.1a11.868,11.868,0,0,1,11.783-10.454h81.721a11.868,11.868,0,0,1,11.783,10.454Z"/><path class="cls-5" d="M412.639,214.113a10.614,10.614,0,0,0-10.467-8.032h-8.887a10.307,10.307,0,0,0-10.307,10.307v6.334h-4.71l2.7,6.419h10.361a37.321,37.321,0,0,0,15.541-3.386A10.3,10.3,0,0,0,412.639,214.113Z"/><path class="cls-5" d="M129.01,222.722v-6.334a10.3,10.3,0,0,0-10.3-10.307h-8.887a10.614,10.614,0,0,0-10.467,8.032,10.3,10.3,0,0,0,5.768,11.632,37.358,37.358,0,0,0,15.541,3.386h10.361l2.7-6.419H129.01Z"/><text class="cls-8" transform="translate(225.721 145.537)">104</text></g></svg>