<svg id="Layer_1" data-name="Layer 1" xmlns="http://www.w3.org/2000/svg" xmlns:xlink="http://www.w3.org/1999/xlink" viewBox="0 0 512 512"><defs><style>.cls-1{fill:none;}.cls-2,.cls-8{fill:#f15a24;}.cls-2{opacity:0.14;}.cls-3{fill:#ff7b34;}.cls-10,.cls-4,.cls-5{fill:#cd4927;}.cls-4,.cls-8,.cls-9{opacity:0.3;}.cls-5{opacity:0.4;}.cls-6{fill:url(#radial-gradient);}.cls-7{fill:#fff;}.cls-11{clip-path:url(#clip-path);}</style><radialGradient id="radial-gradient" cx="168.28" cy="159.472" r="359.104" gradientUnits="userSpaceOnUse"><stop offset="0" stop-color="#ffa736"/><stop offset="0.487" stop-color="#ff8f45"/><stop offset="0.984" stop-color="#ff8f45"/></radialGradient><clipPath id="clip-path"><path class="cls-1" d="M359.642,244.144H156.792a7.657,7.657,0,0,1-7.555-8.9l11.939-72.463a7.657,7.657,0,0,1,7.555-6.412H347.7a7.657,7.657,0,0,1,7.555,6.412L367.2,235.242A7.657,7.657,0,0,1,359.642,244.144Z"/></clipPath></defs><title>KuposGo</title><circle class="cls-2" cx="256" cy="256" r="256"/><rect class="cls-2" x="124" y="408" width="269" height="36" rx="18" ry="18"/><rect class="cls-3" x="375.258" y="205.611" width="35.365" height="10.983" transform="translate(-53.086 205.933) rotate(-27.582)"/><rect class="cls-3" x="106.354" y="205.611" width="35.365" height="10.983" transform="translate(136.231 455.644) rotate(-152.418)"/><rect class="cls-4" x="375.258" y="205.611" width="35.365" height="10.983" transform="translate(-53.086 205.933) rotate(-27.582)"/><rect class="cls-4" x="106.354" y="205.611" width="35.365" height="10.983" transform="translate(136.231 455.644) rotate(-152.418)"/><rect class="cls-3" x="134.578" y="332.404" width="47.512" height="99.691" rx="13.841" ry="13.841"/><rect class="cls-3" x="334.322" y="332.404" width="47.512" height="99.691" rx="13.841" ry="13.841"/><rect class="cls-5" x="134.578" y="332.404" width="47.512" height="99.691" rx="13.841" ry="13.841"/><rect class="cls-5" x="334.322" y="332.404" width="47.512" height="99.691" rx="13.841" ry="13.841"/><path class="cls-6" d="M360.992,391.95H155.442a13.027,13.027,0,0,1-12.053-8.084L129.5,349.994V255.54L151,98.73A12.372,12.372,0,0,1,163.266,88h189.9a12.372,12.372,0,0,1,12.262,10.73l21.5,156.81v94.454l-13.89,33.872A13.027,13.027,0,0,1,360.992,391.95Z"/><path class="cls-4" d="M348.784,383.574c-14.163-24.505-30.45-23.739-30.45-23.739H198.091s-16.279-.766-30.45,23.739H143.16s3.345,8.376,11.759,8.376h206.6c8.572,0,11.759-8.376,11.759-8.376H348.784Z"/><path class="cls-7" d="M156.792,247.967a11.482,11.482,0,0,1-11.328-13.346L157.4,162.158a11.445,11.445,0,0,1,11.328-9.614H347.7a11.445,11.445,0,0,1,11.328,9.612l11.938,72.465a11.481,11.481,0,0,1-11.328,13.346Z"/><path class="cls-3" d="M347.7,156.367a7.657,7.657,0,0,1,7.555,6.412L367.2,235.242a7.657,7.657,0,0,1-7.555,8.9H156.792a7.657,7.657,0,0,1-7.555-8.9l11.939-72.463a7.657,7.657,0,0,1,7.555-6.412H347.7m0-7.647H168.731a15.25,15.25,0,0,0-15.1,12.815L141.692,234a15.3,15.3,0,0,0,15.1,17.792h202.85A15.3,15.3,0,0,0,374.742,234L362.8,161.536a15.25,15.25,0,0,0-15.1-12.815Z"/><path class="cls-7" d="M359.642,244.144H156.792a7.657,7.657,0,0,1-7.555-8.9l11.939-72.463a7.657,7.657,0,0,1,7.555-6.412H347.7a7.657,7.657,0,0,1,7.555,6.412L367.2,235.242A7.657,7.657,0,0,1,359.642,244.144Z"/><path class="cls-8" d="M359.642,244.144H156.792a7.657,7.657,0,0,1-7.555-8.9l11.939-72.463a7.657,7.657,0,0,1,7.555-6.412H347.7a7.657,7.657,0,0,1,7.555,6.412L367.2,235.242A7.657,7.657,0,0,1,359.642,244.144Z"/><rect class="cls-3" x="86.959" y="180.58" width="32.976" height="60.351" rx="4.535" ry="4.535"/><rect class="cls-3" x="395.815" y="180.58" width="32.976" height="60.351" rx="4.535" ry="4.535"/><path class="cls-7" d="M191.621,340.336l-33.453-3.617a21.954,21.954,0,0,1-19.595-21.827v-17.48a10.774,10.774,0,0,1,15.978-9.433l25.6,14.124s-1.894,6.431,1.781,18.682C186.176,334.929,191.621,340.336,191.621,340.336Z"/><path class="cls-7" d="M325.914,340.336l33.453-3.617a21.954,21.954,0,0,0,19.595-21.827v-17.48a10.774,10.774,0,0,0-15.978-9.433l-25.6,14.124s1.894,6.431-1.781,18.682C331.359,334.929,325.914,340.336,325.914,340.336Z"/><path class="cls-4" d="M188.2,302.283H328.231a0,0,0,0,1,0,0v0a48.687,48.687,0,0,1-48.687,48.687H236.89A48.687,48.687,0,0,1,188.2,302.283v0A0,0,0,0,1,188.2,302.283Z"/><g class="cls-9"><path class="cls-10" d="M309.377,312.151H207.069a4.572,4.572,0,1,0,0,9.144h102.3a4.572,4.572,0,0,0,.013-9.144Z"/><path class="cls-10" d="M297.908,330.4H220.45a4.572,4.572,0,0,0,0,9.144H297.9a4.572,4.572,0,0,0,.013-9.144Z"/></g><g class="cls-11"><path class="cls-7" d="M301.833,209.544h0a32.717,32.717,0,0,1,32.717,32.717v1.589a4.962,4.962,0,0,1-4.962,4.962H273.962A4.962,4.962,0,0,1,269,243.849v-1.472a32.833,32.833,0,0,1,32.833-32.833Z"/><circle class="cls-7" cx="301.775" cy="190.861" r="19.046"/></g></svg>