<svg id="Icons-Home" xmlns="http://www.w3.org/2000/svg" xmlns:xlink="http://www.w3.org/1999/xlink" viewBox="0 0 512 512"><defs><style>.cls-1{fill:#fff;}.cls-2,.cls-5,.cls-6{fill:#cd4927;}.cls-2{opacity:0.2;}.cls-3{fill:url(#linear-gradient);}.cls-4{fill:#ff7b34;}.cls-5{opacity:0.6;}.cls-11,.cls-6{opacity:0.3;}.cls-7{fill:#ffc369;}.cls-8{fill:#ffca6c;}.cls-9{fill:url(#radial-gradient);}.cls-10{fill:url(#linear-gradient-2);}.cls-11,.cls-12{fill:#ce471d;}.cls-12{opacity:0.44;}</style><linearGradient id="linear-gradient" x1="-2606.995" y1="284.005" x2="-2199.96" y2="284.005" gradientTransform="matrix(-1, 0, 0, 1, -2146, 0)" gradientUnits="userSpaceOnUse"><stop offset="0.169" stop-color="#ffa736"/><stop offset="0.721" stop-color="#ff8f45"/><stop offset="1" stop-color="#ff8f45"/></linearGradient><radialGradient id="radial-gradient" cx="309.942" cy="120.512" r="107.005" gradientTransform="translate(-53.2 -18.021) rotate(-1.213)" gradientUnits="userSpaceOnUse"><stop offset="0" stop-color="#ffa736"/><stop offset="0.487" stop-color="#ff8f45"/><stop offset="0.984" stop-color="#ff8f45"/></radialGradient><linearGradient id="linear-gradient-2" x1="250.131" y1="124.949" x2="377.562" y2="124.949" gradientTransform="translate(-53.2 -18.021) rotate(-1.213)" gradientUnits="userSpaceOnUse"><stop offset="0.016" stop-color="#ff8f45"/><stop offset="0.338" stop-color="#ff8f45"/><stop offset="0.819" stop-color="#ffa736"/><stop offset="0.968" stop-color="#ffaf41"/></linearGradient></defs><title>Van+Plane_White</title><g id="Van_Plane_White" data-name="Van+Plane_White"><path id="Background-White" class="cls-1" d="M512,256c0,141.385-114.615,256-256,256S0,397.385,0,256,114.615,0,256,0,512,114.615,512,256"/><g id="Van_Plane" data-name="Van+Plane"><rect class="cls-2" x="56.335" y="376.504" width="399.329" height="28.748" rx="14.374" ry="14.374"/><path class="cls-3" d="M460.995,332.136V345.48a19.563,19.563,0,0,1-19.558,19.558H93.89a39.914,39.914,0,0,1-39.829-42.783l7.029-98.707a22.145,22.145,0,0,1,22.1-20.577H293.019s35.143-.407,103.9,75.89l23.735,4.482C444.085,287.825,459.619,308.69,460.995,332.136Z"/><path class="cls-4" d="M391.625,344.054H58.645a42.266,42.266,0,0,1-4.176-11.714H460.995V345.48a19.563,19.563,0,0,1-19.558,19.558h-49.71V344.054Z"/><path class="cls-4" d="M347.212,364.02a36.57,36.57,0,0,1,73.139,0,3.14,3.14,0,0,1-.1,1.019H347.313C347.313,364.733,347.212,364.326,347.212,364.02Z"/><path class="cls-4" d="M95.011,364.02a36.57,36.57,0,0,1,73.139,0,3.14,3.14,0,0,1-.1,1.019H95.113A3.466,3.466,0,0,1,95.011,364.02Z"/><path class="cls-5" d="M347.212,364.02a36.57,36.57,0,0,1,73.139,0,3.14,3.14,0,0,1-.1,1.019H347.313C347.313,364.733,347.212,364.326,347.212,364.02Z"/><path class="cls-5" d="M95.011,364.02a36.57,36.57,0,0,1,73.139,0,3.14,3.14,0,0,1-.1,1.019H95.113A3.466,3.466,0,0,1,95.011,364.02Z"/><circle class="cls-4" cx="383.781" cy="363.103" r="26.281"/><circle class="cls-4" cx="131.58" cy="363.103" r="26.281"/><circle class="cls-6" cx="383.781" cy="363.103" r="26.281"/><circle class="cls-6" cx="131.58" cy="363.103" r="26.281"/><circle class="cls-7" cx="383.781" cy="363.103" r="17.011"/><circle class="cls-7" cx="131.58" cy="363.103" r="17.011"/><path class="cls-1" d="M332.543,228.539h11.205c14.669,11.205,32.393,27.2,53.275,50.321H383.781Z"/><path class="cls-4" d="M52.329,330.2H64.044a1.348,1.348,0,0,0,1.324-1.324V288.64a1.348,1.348,0,0,0-1.324-1.324H52.329a1.348,1.348,0,0,0-1.324,1.324v40.135A1.373,1.373,0,0,0,52.329,330.2Z"/><path class="cls-5" d="M52.329,330.2H64.044a1.348,1.348,0,0,0,1.324-1.324V288.64a1.348,1.348,0,0,0-1.324-1.324H52.329a1.348,1.348,0,0,0-1.324,1.324v40.135A1.373,1.373,0,0,0,52.329,330.2Z"/><path class="cls-8" d="M432.964,294.089s13.169,21.64,9.594,38.25h18.436S460.054,295.156,432.964,294.089Z"/><rect class="cls-1" x="71.734" y="228.539" width="199.238" height="58.407" rx="9.244" ry="9.244" transform="translate(342.706 515.486) rotate(-180)"/><path class="cls-1" d="M311.916,228.908h-20.44a7.014,7.014,0,0,0-7.014,7.014v21.862a21.366,21.366,0,0,0,21.366,21.366h64.164L327.2,235.344A21.366,21.366,0,0,0,311.916,228.908Z"/><path class="cls-4" d="M212.8,130.327l22.522,21.481c1.226,1.175,3.777,18.49,2.6,19.716l-4.276,4.461a3.1,3.1,0,0,1-4.367.092l-2.342-2.245-17.839-17.1c-7.248-6.947-14.605-13.892-18.063-17.314l-2.23-2.137a3.1,3.1,0,0,1-.092-4.367l4.275-4.461c1.175-1.226,18.585.7,19.811,1.875Zm0,0"/><path class="cls-4" d="M219.3,50.555a6.007,6.007,0,1,0,6.132,5.879,6.061,6.061,0,0,0-6.132-5.879ZM238,56.714a6.007,6.007,0,1,0,6.132,5.878A6.06,6.06,0,0,0,238,56.714Zm69.664,65.707a6.007,6.007,0,1,0-5.878,6.132,5.989,5.989,0,0,0,5.878-6.132Zm.811,12.544a6.007,6.007,0,1,0,6.133,5.879,6.061,6.061,0,0,0-6.133-5.879Zm0,0"/><path class="cls-9" d="M268.279,72.9l22.076,21.161c2.454,2.352,27.665,68.345,25.313,70.8l-8.443,8.808a6.064,6.064,0,0,1-8.626.183l-49-59.59L188.1,68.038a6.064,6.064,0,0,1-.183-8.626l8.443-8.808c2.352-2.454,69.46,19.94,71.914,22.292Zm0,0"/><path class="cls-10" d="M323.03,37.873c6.132,5.878,1.1,20.949-5.846,28.307l-76.42,79.613c-7.053,7.36-32.48,24.064-38.612,18.186s9.482-31.989,16.536-39.347L295,44.911c7.053-7.359,21.9-12.916,28.034-7.038Zm0,0"/><path class="cls-11" d="M224.149,129.759l76.31-79.611c5.985-6.244,17.568-11.186,24.606-9.041a9.54,9.54,0,0,0-2.037-3.344c-6.133-5.878-20.979-.211-28.033,7.148l-76.311,79.611c-7.053,7.358-22.558,33.467-16.536,39.347a5.622,5.622,0,0,0,4.069,1.225c-.089-9.392,11.947-29.092,17.932-35.335Zm0,0"/><path class="cls-12" d="M225.178,95.874l12.542,9.347L268.609,73l-.335-.321c-.669-.641-6.837-3.023-15.2-6.014L225.178,95.874Zm0,0"/><path class="cls-12" d="M259.468,126.281l39.021,47.566a6.155,6.155,0,0,0,8.089.266l-43.049-52.069Zm-18.016-25.4L187.285,60.3a6.113,6.113,0,0,0,.819,7.739l49.284,36.971Zm0,0"/><path class="cls-12" d="M237.388,105.009l4.063-4.128-12.21-9.136-4.063,4.129Zm0,0"/></g></g></svg>