<svg id="Layer_1" data-name="Layer 1" xmlns="http://www.w3.org/2000/svg" viewBox="0 0 512 512"><defs><style>.cls-1{fill:none;stroke:#464648;stroke-linecap:round;stroke-linejoin:round;stroke-width:20px;}.cls-2{fill:#464648;}</style></defs><title>Add-card</title><path class="cls-1" d="M256.028,382.161H40.9A31.968,31.968,0,0,1,9.028,350.286v-271A31.968,31.968,0,0,1,40.9,47.412H470.154a31.968,31.968,0,0,1,31.874,31.874v271a31.968,31.968,0,0,1-31.874,31.874H446.028"/><line class="cls-1" x1="9.028" y1="120.161" x2="502.028" y2="120.161"/><line class="cls-1" x1="9.837" y1="186.161" x2="502.837" y2="186.161"/><line class="cls-1" x1="74.347" y1="271.412" x2="204.028" y2="271.412"/><line class="cls-1" x1="74.347" y1="314.079" x2="204.028" y2="314.079"/><path class="cls-2" d="M356.427,257.351A116.453,116.453,0,1,0,472.88,373.8,116.453,116.453,0,0,0,356.427,257.351ZM414,363.843a10,10,0,0,1,0,20H366.664v47.338a10,10,0,0,1-20,0V383.844H299.326a10,10,0,0,1,0-20h47.338V316.505a10,10,0,1,1,20,0v47.338Z"/></svg>