<svg id="Isolation_Mode" data-name="Isolation Mode" xmlns="http://www.w3.org/2000/svg" viewBox="0 0 512 512"><defs><style>.cls-1{fill:#fff;}</style></defs><title>Add-return-trip</title><path class="cls-1" d="M499.257,160.67a14,14,0,0,0-26.014,10.357,231.363,231.363,0,0,1,16.4,85.961c0,128.207-104.3,232.511-232.511,232.511A231.928,231.928,0,0,1,121.6,445.931l36.233-41.823a7,7,0,0,0-5.291-11.583H51.383a7,7,0,0,0-6.9,8.157l16.4,97.845a7,7,0,0,0,12.194,3.427l30.14-34.791A260.593,260.593,0,0,0,499.257,160.67Z"/><path class="cls-1" d="M24.624,256.988c0-128.207,104.3-232.511,232.511-232.511A232.335,232.335,0,0,1,387.8,64.667L348.6,101.653a7,7,0,0,0,4,12.046l102.078,11.753a7,7,0,0,0,7.781-7.478L454.881,17.068A7,7,0,0,0,443.1,12.5L408.6,45.041A260.6,260.6,0,0,0,11.453,343.828a14,14,0,0,0,26.4-9.332A231.949,231.949,0,0,1,24.624,256.988Z"/></svg>