<svg id="Isolation_Mode" data-name="Isolation Mode" xmlns="http://www.w3.org/2000/svg" viewBox="0 0 553 512"><defs><style>.cls-1{fill:#fc8332;}</style></defs><title>Arrow_Train-left-direction</title><path class="cls-1" d="M129,280H79a24,24,0,0,1,0-48h50a24,24,0,0,1,0,48Z"/><path class="cls-1" d="M355.05,280H242.024a24,24,0,0,1,0-48H355.05a24,24,0,0,1,0,48Z"/><path class="cls-1" d="M518.076,280h-50a24,24,0,0,1,0-48h50a24,24,0,0,1,0,48Z"/><path class="cls-1" d="M202.7,446.488a23.921,23.921,0,0,1-16.936-7L18.6,273a24,24,0,0,1-.035-33.976L185.051,72.541a24,24,0,0,1,33.941,33.941L69.509,255.965,219.634,405.483a24,24,0,0,1-16.937,41Z"/></svg>