<svg id="Layer_1" data-name="Layer 1" xmlns="http://www.w3.org/2000/svg" xmlns:xlink="http://www.w3.org/1999/xlink" viewBox="0 0 512 520.061"><defs><style>.cls-1,.cls-6{fill:#f15a24;}.cls-1{opacity:0.14;}.cls-2{fill:#f97e48;opacity:0.47;}.cls-3{fill:#ff5c60;}.cls-4{fill:url(#linear-gradient);}.cls-5{fill:#fff;}.cls-6{opacity:0.42;}.cls-7{fill:#ffc85e;}.cls-8{fill:#ff9f4a;}.cls-10,.cls-11,.cls-9{opacity:0.67;}.cls-9{fill:url(#radial-gradient);}.cls-10{fill:url(#radial-gradient-2);}.cls-11{fill:url(#radial-gradient-3);}</style><linearGradient id="linear-gradient" x1="111.988" y1="302.995" x2="396.958" y2="302.995" gradientUnits="userSpaceOnUse"><stop offset="0" stop-color="#ffa736"/><stop offset="0.487" stop-color="#ff8f45"/><stop offset="0.984" stop-color="#ff8f45"/></linearGradient><radialGradient id="radial-gradient" cx="-3003.884" cy="1878.271" r="8.817" gradientTransform="translate(3399.252 -1729.382)" gradientUnits="userSpaceOnUse"><stop offset="0" stop-color="#f7931e"/><stop offset="1" stop-color="#f15a24"/></radialGradient><radialGradient id="radial-gradient-2" cx="1576.086" cy="-2852.158" r="8.817" gradientTransform="translate(-2772.752 -1192.313) rotate(90)" xlink:href="#radial-gradient"/><radialGradient id="radial-gradient-3" cx="1422.952" cy="-3064.564" r="12.33" gradientTransform="translate(-2943.097 -1297.142) rotate(90)" xlink:href="#radial-gradient"/></defs><title>Best-price</title><circle class="cls-1" cx="256" cy="272.122" r="256"/><rect class="cls-2" x="148.807" y="419.662" width="211.6" height="34.96" rx="17.48" ry="17.48"/><path class="cls-3" d="M408.493,284.675v6.785a6.41,6.41,0,0,1-6.785,6.785H377.282v10.177H405.1a13.61,13.61,0,0,0,13.57-13.57V284.675a5.352,5.352,0,0,0-5.428-5.428h0C410.528,279.247,408.493,281.283,408.493,284.675Z"/><path class="cls-3" d="M227.333,410.876a27.258,27.258,0,0,1-27.14,24.426h-.679a27.22,27.22,0,0,1-27.14-27.14V392.557C188.659,401.377,207.657,407.484,227.333,410.876Z"/><path class="cls-3" d="M139.807,239.216c16.962-9.5,35.282-15.605,52.245-17.641l-37.317-37.317a56.462,56.462,0,0,0-16.962,40.71C138.45,229.038,139.128,234.466,139.807,239.216Z"/><path class="cls-3" d="M100.454,275.176c-9.5,9.5-9.5,46.138,0,55.637,4.749,4.75,27.14,0,27.14,0V275.176C126.915,275.176,105.2,270.427,100.454,275.176Z"/><path class="cls-3" d="M336.572,392.557v15.605a27.22,27.22,0,0,1-27.14,27.14h-.678a27.258,27.258,0,0,1-27.14-24.426Q312.146,405.788,336.572,392.557Z"/><ellipse class="cls-4" cx="254.473" cy="302.995" rx="142.485" ry="109.917"/><circle class="cls-5" cx="155.412" cy="272.462" r="8.142"/><path class="cls-6" d="M299.254,220.9H210.371a5.352,5.352,0,0,0-5.428,5.428h0a5.352,5.352,0,0,0,5.428,5.428h88.884c2.714,0,4.75-2.035,4.75-5.428h0C304,223.61,301.968,220.9,299.254,220.9Z"/><circle class="cls-7" cx="254.473" cy="167.973" r="58.351"/><circle class="cls-8" cx="254.473" cy="167.973" r="44.102"/><path class="cls-7" d="M247.688,185.614c-1.357-1.357-2.035-3.392-2.714-6.106l-11.534,1.357c.679,5.428,2.714,10.177,6.106,12.891,3.392,3.392,7.464,4.749,12.213,5.428v5.428h6.106v-6.106c5.428-.679,10.177-2.714,12.891-6.785,3.392-3.392,4.75-8.142,4.75-12.891s-1.357-8.821-4.071-11.535-7.464-5.428-14.249-7.463V144.226a9.327,9.327,0,0,1,5.428,6.785l10.856-1.357a18.668,18.668,0,0,0-5.428-10.177c-2.714-2.714-6.106-4.071-10.856-4.749v-4.75h-6.106v4.071c-4.75.678-8.82,2.036-12.213,5.428a19.507,19.507,0,0,0-4.75,12.213,18.943,18.943,0,0,0,4.071,12.213c2.714,3.392,6.785,5.428,12.213,7.464v18.319A10.433,10.433,0,0,1,247.688,185.614ZM257.866,173.4c2.714.679,4.75,2.036,5.428,3.392s2.035,3.392,2.035,4.749a7.7,7.7,0,0,1-2.035,5.428c-1.357,1.357-3.392,2.714-5.428,2.714ZM247.688,155.76a9.644,9.644,0,0,1-1.357-4.071,12.579,12.579,0,0,1,1.357-4.749c.679-1.357,2.035-2.036,4.071-2.714v14.927A6.949,6.949,0,0,1,247.688,155.76Z"/><circle class="cls-7" cx="306.5" cy="51" r="51"/><circle class="cls-8" cx="306.5" cy="51" r="38.547"/><path class="cls-7" d="M300.57,66.419c-1.186-1.186-1.779-2.965-2.372-5.337l-10.081,1.186c.593,4.744,2.372,8.9,5.337,11.267,2.965,2.965,6.523,4.151,10.674,4.744v4.744h5.337V77.686c4.744-.593,8.9-2.372,11.267-5.93,2.965-2.965,4.151-7.116,4.151-11.267s-1.186-7.709-3.558-10.081-6.523-4.744-12.453-6.523V30.244a8.152,8.152,0,0,1,4.744,5.93l9.488-1.186a16.316,16.316,0,0,0-4.744-8.9c-2.372-2.372-5.337-3.558-9.488-4.151V17.791h-5.337v3.558c-4.151.593-7.709,1.779-10.674,4.744a17.049,17.049,0,0,0-4.151,10.674,16.557,16.557,0,0,0,3.558,10.674c2.372,2.965,5.93,4.744,10.674,6.523V69.977A9.119,9.119,0,0,1,300.57,66.419Zm8.9-10.674c2.372.593,4.151,1.779,4.744,2.965s1.779,2.965,1.779,4.151a6.734,6.734,0,0,1-1.779,4.744,7.321,7.321,0,0,1-4.744,2.372Zm-8.9-15.419a8.429,8.429,0,0,1-1.186-3.558,10.994,10.994,0,0,1,1.186-4.151c.593-1.186,1.779-1.779,3.558-2.372V43.291A6.074,6.074,0,0,1,300.57,40.326Z"/><circle class="cls-9" cx="395.175" cy="150.63" r="3.87" transform="translate(9.232 323.549) rotate(-45)"/><circle class="cls-10" cx="77.665" cy="383.579" r="3.87" transform="translate(-248.484 167.265) rotate(-45)"/><circle class="cls-11" cx="119.032" cy="125.54" r="5.412" transform="translate(-53.906 120.938) rotate(-45)"/></svg>