<svg id="Layer_1" data-name="Layer 1" xmlns="http://www.w3.org/2000/svg" xmlns:xlink="http://www.w3.org/1999/xlink" viewBox="0 0 512 512"><defs><style>.cls-1{fill:#ffb654;}.cls-2{fill:#ff7b34;}.cls-3{fill:#ce471d;opacity:0.4;}.cls-4{fill:url(#linear-gradient);}.cls-5{fill:url(#linear-gradient-2);}</style><linearGradient id="linear-gradient" x1="422.43" y1="63.625" x2="146.799" y2="466.192" gradientUnits="userSpaceOnUse"><stop offset="0" stop-color="#ffa736"/><stop offset="0.487" stop-color="#ff8f45"/><stop offset="0.984" stop-color="#ff8f45"/><stop offset="1" stop-color="#ff8f45"/></linearGradient><linearGradient id="linear-gradient-2" x1="6.32" y1="401.115" x2="505.68" y2="401.115" gradientUnits="userSpaceOnUse"><stop offset="0" stop-color="#ff8f45"/><stop offset="0.016" stop-color="#ff8f45"/><stop offset="1" stop-color="#ffa736"/></linearGradient></defs><title>Bell</title><path class="cls-1" d="M325.41,429.579A69.411,69.411,0,1,1,256,360.167a69.408,69.408,0,0,1,69.41,69.412"/><path class="cls-2" d="M256,360.167A69.4,69.4,0,0,0,223.337,490.8c26.911-30.143,72.259-34.034,96.428-33.749A69.455,69.455,0,0,0,256,360.167"/><path class="cls-3" d="M256,360.167A69.4,69.4,0,0,0,223.337,490.8c26.911-30.143,72.259-34.034,96.428-33.749A69.455,69.455,0,0,0,256,360.167"/><path class="cls-4" d="M409.422,206.751S410.975,13.01,256,13.01s-153.422,193.74-153.422,193.74,1.2,118.394-59.8,191.346H469.216c-60.992-72.952-59.795-191.346-59.795-191.346"/><path class="cls-2" d="M182.54,398.1c25-69.138,32.649-139.55,34.741-183.834a161.522,161.522,0,0,1,20.71-71.415c26.258-46.747,7.544-101.925-4.514-128.377-132.3,17.813-130.9,192.279-130.9,192.279s1.2,118.393-59.8,191.347Z"/><path class="cls-3" d="M182.54,398.1c25-69.138,32.649-139.55,34.741-183.834a161.522,161.522,0,0,1,20.71-71.415c26.258-46.747,7.544-101.925-4.514-128.377-132.3,17.813-130.9,192.279-130.9,192.279s1.2,118.393-59.8,191.347Z"/><path class="cls-5" d="M464.733,442.064H47.267a40.948,40.948,0,0,1,0-81.9H464.733a40.948,40.948,0,0,1,0,81.9"/><path class="cls-2" d="M125.267,401.116a41.069,41.069,0,0,1,40.947-40.949H47.267a40.948,40.948,0,0,0,0,81.9H166.214a41.065,41.065,0,0,1-40.947-40.947"/></svg>