<svg id="Layer_1" data-name="Layer 1" xmlns="http://www.w3.org/2000/svg" viewBox="0 0 512 512"><defs><style>.cls-1{fill:#b3b3b3;opacity:0.14;}.cls-2{fill:#9d9d9d;opacity:0.47;}.cls-3{fill:#666;}.cls-4{fill:#fff;}</style></defs><title>Bip-Grey</title><circle class="cls-1" cx="256" cy="256" r="256"/><path class="cls-2" d="M352.845,355.217h-191.8a19.7,19.7,0,0,1-19.672-19.672V224.89a19.7,19.7,0,0,1,19.672-19.672h191.8a19.7,19.7,0,0,1,19.672,19.672V335.545A19.7,19.7,0,0,1,352.845,355.217Z"/><path class="cls-3" d="M366.885,330.217H145.115a22.772,22.772,0,0,1-22.746-22.746V179.528a22.772,22.772,0,0,1,22.746-22.746H366.885a22.772,22.772,0,0,1,22.746,22.746V307.472A22.772,22.772,0,0,1,366.885,330.217Z"/><path class="cls-4" d="M246.714,224.311h15.435l2.114,4.663c6.776-8.229,18.581-8.065,24.967,1.7a27.568,27.568,0,0,1,4.879,15.975c-.114,4.4,0,8.95-1.061,13.161-2.228,8.816-7.122,16.942-17.585,18.129-2.554.29-5.323-1.163-7.968-1.9a18.847,18.847,0,0,1-2.792-1.386v25.712H246.714Zm17.97,27.934.22.017c0,1.862.109,3.732-.026,5.584-.194,2.676,1.353,3.677,3.6,4.234,2.13.528,3.9-.1,4.655-2.065a32.471,32.471,0,0,0,2.368-8.539,28.187,28.187,0,0,0-.942-8.48c-.569-2.511-3.155-4.458-5.013-4.371-2.24.1-3.551,1.4-4.1,4.775C264.968,246.312,264.92,249.294,264.684,252.246Z"/><path class="cls-4" d="M188.32,200.115V227.7a44.012,44.012,0,0,1,5.273-3.285c7.733-3.417,14.094-.859,18.767,5.7,5.05,7.086,5.963,15.15,5.166,23.383-.807,8.344-3.533,16.093-10.808,21.2-6.58,4.619-12.427,4.188-18.7-.921a15.082,15.082,0,0,0-1.572-1c-.191.079-.4.1-.473.206-3.665,5.666-9.387,3.206-14.37,3.565-.386.028-.95-.858-1.227-1.42a3.566,3.566,0,0,1-.042-1.444c0-23.553.029-47.106-.047-70.659-.007-2.254.76-2.969,2.9-2.932C178.137,200.173,183.084,200.115,188.32,200.115Zm-.339,52.418.394.053c0,1.944-.033,3.889.02,5.831.017.6.064,1.437.443,1.764,3.252,2.8,6.221,2.558,8.034-1.077a20.9,20.9,0,0,0,.849-16.852c-.745-2.136-2.07-3.531-4.245-3.564-2.278-.034-3.7,1.542-4.09,3.686C188.78,245.736,188.436,249.145,187.981,252.534Z"/><path class="cls-4" d="M326.461,260.431c-1.412-.644-2.614-1.228-3.844-1.748-4.3-1.817-8.57-3.711-12.932-5.365-1.692-.641-1.516-1.435-1.028-2.744,2.272-6.091,4.446-12.219,6.72-18.309,2.3-6.152,4.666-12.277,7.011-18.411,2.4-6.282,4.75-12.587,7.244-18.832,2.093-5.241,2.164-5.193,7.3-3.029q8.774,3.7,17.574,7.328c1.562.645,2.579,1.281,1.564,3.308-5,9.986-9.873,20.039-14.834,30.046-3.463,6.986-6.992,13.94-10.5,20.9-.96,1.9-1.93,3.8-2.967,5.664C327.526,259.679,327,259.958,326.461,260.431Z"/><path class="cls-4" d="M240.643,224v52.5H222.091c-.03-.557-.078-1.023-.078-1.489,0-13.3-.034-26.6.018-39.905.012-3.138.36-6.274.443-9.413.039-1.478.813-1.715,2.034-1.708C229.749,224.017,234.991,224,240.643,224Z"/><path class="cls-4" d="M308.687,289.805c-6.405.481-13.708-5.4-13.652-13.369a14.187,14.187,0,0,1,14.43-14.029c6.615.1,13.709,6.323,13.541,13.407C322.816,283.789,316.828,290.307,308.687,289.805Z"/><path class="cls-4" d="M231.781,218.151c-6.037,0-9.611-3.531-9.817-9.22-.22-6.095,4.335-9.739,9.82-9.753a9.749,9.749,0,0,1,9.835,9.541C241.594,213.344,237.583,218.788,231.781,218.151Z"/></svg>