<svg id="Layer_1" data-name="Layer 1" xmlns="http://www.w3.org/2000/svg" xmlns:xlink="http://www.w3.org/1999/xlink" viewBox="0 0 512 512"><defs><style>.cls-1{fill:#f97e48;opacity:0.47;}.cls-2{fill:#ff7600;}.cls-3{fill:url(#linear-gradient);}.cls-4{fill:#fff;}.cls-5,.cls-6,.cls-7{opacity:0.67;}.cls-5{fill:url(#radial-gradient);}.cls-6{fill:url(#radial-gradient-2);}.cls-7{fill:url(#radial-gradient-3);}</style><linearGradient id="linear-gradient" x1="168.137" y1="122.289" x2="343.119" y2="434.494" gradientUnits="userSpaceOnUse"><stop offset="0" stop-color="#ffa736"/><stop offset="0.487" stop-color="#ff8f45"/><stop offset="0.984" stop-color="#ff8f45"/></linearGradient><radialGradient id="radial-gradient" cx="-981.285" cy="1014.912" r="26.111" gradientTransform="translate(1138.147 -974.409)" gradientUnits="userSpaceOnUse"><stop offset="0" stop-color="#f7931e"/><stop offset="1" stop-color="#f15a24"/></radialGradient><radialGradient id="radial-gradient-2" cx="740.237" cy="-1281.334" r="34.644" gradientTransform="translate(-785.697 -449.785) rotate(90)" xlink:href="#radial-gradient"/><radialGradient id="radial-gradient-3" cx="1304.862" cy="-1130.832" r="20.381" gradientTransform="translate(-1105.862 -830.491) rotate(90)" xlink:href="#radial-gradient"/></defs><title>Bip!+dots</title><path class="cls-1" d="M366.531,394.478H109.681a26.374,26.374,0,0,1-26.344-26.344V219.951a26.374,26.374,0,0,1,26.344-26.344H366.531a26.374,26.374,0,0,1,26.344,26.344V368.134A26.374,26.374,0,0,1,366.531,394.478Z"/><path class="cls-2" d="M386.671,361H89.692A30.494,30.494,0,0,1,59.232,330.54V159.206a30.494,30.494,0,0,1,30.459-30.459H386.671a30.494,30.494,0,0,1,30.459,30.459V330.54A30.494,30.494,0,0,1,386.671,361Z"/><path class="cls-3" d="M385.332,361H88.353A30.494,30.494,0,0,1,57.893,330.54V159.206a30.494,30.494,0,0,1,30.459-30.459H385.332a30.494,30.494,0,0,1,30.459,30.459V330.54A30.494,30.494,0,0,1,385.332,361Z"/><path class="cls-4" d="M224.407,219.177h20.669l2.831,6.244c9.073-11.019,24.883-10.8,33.435,2.281,4.231,6.472,6.736,13.6,6.533,21.392-.153,5.9,0,11.986-1.42,17.624-2.984,11.806-9.537,22.688-23.549,24.278-3.421.388-7.128-1.557-10.67-2.55a25.238,25.238,0,0,1-3.739-1.856v34.432H224.407Zm24.064,37.408.295.023c0,2.493.146,5-.035,7.478-.26,3.583,1.812,4.924,4.822,5.67,2.852.707,5.227-.132,6.233-2.765,1.411-3.693,2.833-7.553,3.171-11.435A37.746,37.746,0,0,0,261.7,244.2c-.761-3.363-4.224-5.969-6.712-5.853-3,.14-4.755,1.869-5.494,6.394C248.852,248.638,248.788,252.632,248.471,256.585Z"/><path class="cls-4" d="M146.209,186.775v36.936c2.532-1.6,4.65-3.333,7.062-4.4,10.355-4.575,18.874-1.151,25.131,7.629,6.762,9.489,7.985,20.288,6.918,31.312-1.081,11.174-4.731,21.55-14.473,28.389-8.811,6.186-16.641,5.608-25.036-1.234a20.2,20.2,0,0,0-2.1-1.337c-.255.106-.539.129-.633.276-4.908,7.588-12.57,4.294-19.243,4.774-.517.037-1.272-1.149-1.643-1.9a4.775,4.775,0,0,1-.056-1.933c0-31.541.039-63.081-.063-94.622-.01-3.019,1.017-3.976,3.884-3.927C132.573,186.853,139.2,186.775,146.209,186.775Zm-.453,70.195.527.071c0,2.6-.045,5.207.026,7.809.022.808.085,1.925.593,2.363,4.355,3.756,8.33,3.426,10.759-1.442,3.648-7.313,3.827-14.852,1.137-22.568-1-2.861-2.772-4.729-5.685-4.773-3.051-.046-4.96,2.064-5.477,4.936C146.826,247.867,146.365,252.432,145.756,256.97Z"/><path class="cls-4" d="M331.2,267.546c-1.891-.863-3.5-1.645-5.148-2.341-5.757-2.433-11.477-4.97-17.318-7.184-2.266-.859-2.03-1.922-1.376-3.674,3.042-8.157,5.953-16.362,9-24.518,3.076-8.238,6.248-16.441,9.389-24.655,3.217-8.413,6.361-16.855,9.7-25.219,2.8-7.019,2.9-6.954,9.78-4.056q11.75,4.948,23.534,9.813c2.091.864,3.454,1.716,2.094,4.43-6.7,13.373-13.222,26.834-19.865,40.235-4.638,9.355-9.364,18.667-14.066,27.99-1.285,2.548-2.585,5.091-3.973,7.584C332.625,266.539,331.916,266.912,331.2,267.546Z"/><path class="cls-4" d="M216.277,218.761v70.311H191.433c-.041-.745-.1-1.37-.1-1.995-.006-17.813-.046-35.626.024-53.439.017-4.2.482-8.4.593-12.606.052-1.979,1.088-2.3,2.724-2.288C201.689,218.783,208.708,218.761,216.277,218.761Z"/><path class="cls-4" d="M307.4,306.882c-8.577.644-18.357-7.229-18.282-17.9a19,19,0,0,1,19.323-18.787c8.858.133,18.359,8.468,18.133,17.954C326.318,298.825,318.3,307.553,307.4,306.882Z"/><path class="cls-4" d="M204.41,210.927c-8.084,0-12.871-4.728-13.146-12.347-.3-8.162,5.8-13.042,13.15-13.06A13.055,13.055,0,0,1,217.585,198.3C217.551,204.49,212.18,211.781,204.41,210.927Z"/><circle class="cls-5" cx="156.289" cy="45.66" r="11.46" transform="translate(13.489 123.887) rotate(-45)"/><circle class="cls-6" cx="488.795" cy="289.691" r="15.205" transform="translate(-61.678 430.479) rotate(-45)"/><circle class="cls-7" cx="20.945" cy="473.924" r="8.945"/></svg>