<svg id="Layer_1" data-name="Layer 1" xmlns="http://www.w3.org/2000/svg" viewBox="0 0 512 512"><defs><style>.cls-1{fill:none;stroke:#fff;stroke-linecap:round;stroke-linejoin:round;stroke-width:20px;}.cls-2{fill:#fff;}.cls-3{fill:#464648;}</style></defs><title>Cancel-Ticket</title><g id="Cancel-Ticket"><line class="cls-1" x1="155.021" y1="245.559" x2="263.516" y2="245.559"/><line class="cls-1" x1="155.021" y1="195.638" x2="365.987" y2="195.638"/><path class="cls-1" d="M447.467,359h26.758a27.907,27.907,0,0,0,27.825-27.825v-70.2a38.94,38.94,0,0,1,0-77.872v-70.2a27.907,27.907,0,0,0-27.825-27.825H38.292a27.907,27.907,0,0,0-27.825,27.825V183.09a38.951,38.951,0,1,1,0,77.9v70.181A27.907,27.907,0,0,0,38.292,359h219.22"/><path class="cls-1" d="M296.967,305.964H116.4a12.035,12.035,0,0,1-12-12V150.117a12.035,12.035,0,0,1,12-12H398.628a12.035,12.035,0,0,1,12,12V293.964a12.035,12.035,0,0,1-12,12"/><path class="cls-2" d="M354.686,278.153A116.453,116.453,0,1,0,471.14,394.606,116.453,116.453,0,0,0,354.686,278.153Zm47.852,149.966A10,10,0,0,1,388.4,442.262l-33.473-33.473L321.45,442.262a10,10,0,0,1-14.143-14.143l33.473-33.473-33.473-33.473A10,10,0,0,1,321.45,347.03L354.923,380.5,388.4,347.03a10,10,0,1,1,14.143,14.143l-33.473,33.473Z"/></g><g id="Cancel-Ticket-2" data-name="Cancel-Ticket"><path class="cls-3" d="M263.515,255.56H155.021a10,10,0,0,1,0-20H263.515a10,10,0,0,1,0,20Z"/><path class="cls-3" d="M365.987,205.638H155.021a10,10,0,0,1,0-20H365.987a10,10,0,0,1,0,20Z"/><path class="cls-3" d="M502.2,193.1a10,10,0,0,0,9.853-10v-70.2a37.868,37.868,0,0,0-37.825-37.825H38.292A37.868,37.868,0,0,0,.467,112.909V183.09a10,10,0,0,0,10,10,28.951,28.951,0,1,1,0,57.9,10,10,0,0,0-10,10v70.181A37.868,37.868,0,0,0,38.292,369H241.065a116.453,116.453,0,1,0,227.243,0h5.918a37.868,37.868,0,0,0,37.825-37.825v-70.2a10,10,0,0,0-9.853-10,28.94,28.94,0,0,1,0-57.874ZM116.4,295.964a2.027,2.027,0,0,1-2-2V150.117a2.027,2.027,0,0,1,2-2H398.628a2.027,2.027,0,0,1,2,2V287.573a116.6,116.6,0,0,0-107.851,8.391ZM402.538,428.119A10,10,0,0,1,388.4,442.262l-33.473-33.473L321.45,442.262a10,10,0,0,1-14.143-14.143l33.473-33.473-33.473-33.473A10,10,0,0,1,321.45,347.03L354.923,380.5,388.4,347.03a10,10,0,1,1,14.143,14.143l-33.473,33.473Zm89.512-158.3v61.354A17.845,17.845,0,0,1,474.225,349h-12.36a116.881,116.881,0,0,0-41.671-50.68,22.018,22.018,0,0,0,.434-4.354V150.117a22.025,22.025,0,0,0-22-22H116.4a22.025,22.025,0,0,0-22,22V293.964a22.025,22.025,0,0,0,22,22H268.8A116.551,116.551,0,0,0,247.507,349H38.292a17.845,17.845,0,0,1-17.825-17.825V269.965a48.958,48.958,0,0,0,0-95.849V112.909A17.845,17.845,0,0,1,38.292,95.084H474.225a17.845,17.845,0,0,1,17.825,17.825v61.354a48.931,48.931,0,0,0,0,95.556Z"/></g></svg>