<svg id="Layer_1" data-name="Layer 1" xmlns="http://www.w3.org/2000/svg" viewBox="0 0 512 512"><defs><style>.cls-1{fill:#fff;}</style></defs><title>Cancel-ticket_white</title><path class="cls-1" d="M263.515,243.564H155.021a10,10,0,0,0,0,20H263.515a10,10,0,0,0,0-20Z"/><path class="cls-1" d="M375.987,203.644a10,10,0,0,0-10-10H155.021a10,10,0,0,0,0,20H365.987A10,10,0,0,0,375.987,203.644Z"/><path class="cls-1" d="M502.2,201.108a10,10,0,0,0,9.853-10V123.916a37.868,37.868,0,0,0-37.825-37.825H38.292A37.868,37.868,0,0,0,.467,123.916v67.179a10,10,0,0,0,10,10,28.951,28.951,0,1,1,0,57.9,10,10,0,0,0-10,10v67.179A37.868,37.868,0,0,0,38.292,374H240.051a116.453,116.453,0,1,0,229.271,0h4.9a37.868,37.868,0,0,0,37.825-37.825V268.981a10,10,0,0,0-9.853-10,28.94,28.94,0,0,1,0-57.874ZM116.4,303.969a2.027,2.027,0,0,1-2-2V158.122a2.027,2.027,0,0,1,2-2H398.628a2.027,2.027,0,0,1,2,2V287.573a116.547,116.547,0,0,0-119.052,16.4Zm286.142,124.15A10,10,0,0,1,388.4,442.262l-33.473-33.473L321.45,442.262a10,10,0,0,1-14.143-14.143l33.473-33.473-33.473-33.473A10,10,0,0,1,321.45,347.03L354.923,380.5,388.4,347.03a10,10,0,1,1,14.143,14.143l-33.473,33.473Zm89.512-150.3v58.352A17.845,17.845,0,0,1,474.225,354H463.858a116.794,116.794,0,0,0-43.229-55.381v-140.5a22.025,22.025,0,0,0-22-22H116.4a22.025,22.025,0,0,0-22,22V301.969a22.025,22.025,0,0,0,22,22H262.106A116.223,116.223,0,0,0,245.515,354H38.292a17.845,17.845,0,0,1-17.825-17.825V277.97a48.958,48.958,0,0,0,0-95.849V123.916a17.845,17.845,0,0,1,17.825-17.825H474.225a17.845,17.845,0,0,1,17.825,17.825v58.352a48.931,48.931,0,0,0,0,95.556Z"/></svg>