<svg id="Layer_1" data-name="Layer 1" xmlns="http://www.w3.org/2000/svg" viewBox="0 0 512 512"><defs><style>.cls-1{fill:#fff;}</style></defs><title>Contact-us_white</title><path class="cls-1" d="M428.139,198.371V174.462a170.837,170.837,0,0,0-341.673,0v23.876H85.129a65.461,65.461,0,0,0-65.387,65.387v32.865a65.461,65.461,0,0,0,65.387,65.387h42.592a10,10,0,0,0,10-10V208.338a10,10,0,0,0-10-10H106.466V174.462c0-83.171,67.665-150.836,150.836-150.836S408.139,91.291,408.139,174.462v23.876h-23.86a10,10,0,0,0-10,10V351.978a10,10,0,0,0,10,10h23.282a80.64,80.64,0,0,1,.578,9.584,79.711,79.711,0,0,1-77,79.564,43.18,43.18,0,0,0-40.721-28.978H259.045a43.113,43.113,0,1,0,0,86.227h31.371a43.171,43.171,0,0,0,42.709-37.292,99.751,99.751,0,0,0,95.014-99.52c0-3.21-.162-6.416-.468-9.6a65.452,65.452,0,0,0,64.587-65.366V263.726A65.451,65.451,0,0,0,428.139,198.371ZM117.721,341.978H85.129a45.438,45.438,0,0,1-45.387-45.387V263.726a45.439,45.439,0,0,1,45.387-45.387h32.592Zm172.695,146.4H259.045a23.113,23.113,0,1,1,0-46.227h31.371a23.113,23.113,0,0,1,0,46.227ZM472.258,296.591a45.438,45.438,0,0,1-45.387,45.387H394.279V218.338h32.592a45.439,45.439,0,0,1,45.387,45.387Z"/></svg>