<svg id="Layer_1" data-name="Layer 1" xmlns="http://www.w3.org/2000/svg" xmlns:xlink="http://www.w3.org/1999/xlink" viewBox="0 0 512 512"><defs><style>.cls-1{fill:none;}.cls-2{fill:#f15a24;opacity:0.14;}.cls-3,.cls-4,.cls-5{opacity:0.67;}.cls-3{fill:url(#radial-gradient);}.cls-4{fill:url(#radial-gradient-2);}.cls-5{fill:url(#radial-gradient-3);}.cls-6{fill:url(#linear-gradient);}.cls-7{fill:#fff;}.cls-8{fill:#ffb654;}.cls-9{clip-path:url(#clip-path);}.cls-10{fill:#ff8f45;}.cls-11{clip-path:url(#clip-path-2);}</style><radialGradient id="radial-gradient" cx="-1117.613" cy="-1011.63" r="8.817" gradientTransform="translate(1263.815 1100.896)" gradientUnits="userSpaceOnUse"><stop offset="0" stop-color="#f7931e"/><stop offset="1" stop-color="#f15a24"/></radialGradient><radialGradient id="radial-gradient-2" cx="2186.251" cy="99.312" r="12.33" gradientTransform="translate(543.613 -1955.062) rotate(90)" xlink:href="#radial-gradient"/><radialGradient id="radial-gradient-3" cx="1958.96" cy="446.069" r="8.817" gradientTransform="translate(484.308 -1643.81) rotate(90)" xlink:href="#radial-gradient"/><linearGradient id="linear-gradient" x1="256" y1="143.265" x2="256" y2="393.613" gradientUnits="userSpaceOnUse"><stop offset="0" stop-color="#ffa736"/><stop offset="0.582" stop-color="#ff8f45"/><stop offset="0.984" stop-color="#ff8f45"/></linearGradient><clipPath id="clip-path"><path class="cls-1" d="M186.834,393.248l-.353-.2L145.854,347.9a16.29,16.29,0,0,0-23.008-1.176l-.089.081V262.381a18.04,18.04,0,0,0-16.447-18.364,17.379,17.379,0,0,0-18.287,16.422q-.026.478-.025.958V371.043a46.281,46.281,0,0,0,5.834,22.506l52.1,93.779V510.5h81.1V462.562A79.87,79.87,0,0,0,186.834,393.248Z"/></clipPath><clipPath id="clip-path-2"><path class="cls-1" d="M284.963,462.562V510.5h81.1V487.328l52.1-93.779A46.281,46.281,0,0,0,424,371.043V262.381a18.04,18.04,0,0,0-16.447-18.364,17.379,17.379,0,0,0-18.287,16.422q-.026.478-.025.958V346.81a16.29,16.29,0,0,0-23.016,1.006l-.081.089-40.627,45.14-.353.2a79.87,79.87,0,0,0-40.2,69.314Z"/></clipPath></defs><title>Customized-journey</title><circle class="cls-2" cx="256" cy="256" r="256"/><circle class="cls-3" cx="146.008" cy="91.008" r="3.87" transform="translate(-21.587 129.899) rotate(-45)"/><circle class="cls-4" cx="441.866" cy="230.918" r="5.412" transform="translate(-33.864 380.08) rotate(-45)"/><circle class="cls-5" cx="36.498" cy="314.957" r="3.87" transform="translate(-212.018 118.057) rotate(-45)"/><circle class="cls-6" cx="256" cy="256" r="132.392"/><path class="cls-7" d="M256,393.892c-76.033,0-137.892-61.858-137.892-137.892S179.967,118.108,256,118.108,393.892,179.967,393.892,256,332.033,393.892,256,393.892Zm0-264.783A126.892,126.892,0,1,0,382.892,256,127.035,127.035,0,0,0,256,129.108Z"/><circle class="cls-7" cx="258.184" cy="243.664" r="38.934"/><path class="cls-7" d="M318.724,345.75c0,27.745-28.874,39.642-61.475,39.642s-63.973-8.169-63.973-35.914S224.648,285.5,257.249,285.5,318.724,318,318.724,345.75Z"/><path class="cls-8" d="M186.834,393.248l-.353-.2L145.854,347.9a16.29,16.29,0,0,0-23.008-1.176l-.089.081V262.381a18.04,18.04,0,0,0-16.447-18.364,17.379,17.379,0,0,0-18.287,16.422q-.026.478-.025.958V371.043a46.281,46.281,0,0,0,5.834,22.506l52.1,93.779V510.5h81.1V462.562A79.87,79.87,0,0,0,186.834,393.248Z"/><g class="cls-9"><path class="cls-10" d="M168.673,427.8a5.793,5.793,0,0,1-4.287-1.894L116.923,373.7a22.1,22.1,0,0,1,.724-30.518,5.793,5.793,0,0,1,8.191,8.191,10.526,10.526,0,0,0-.342,14.535l47.457,52.2a5.793,5.793,0,0,1-4.281,9.692Z"/></g><path class="cls-8" d="M284.963,462.562V510.5h81.1V487.328l52.1-93.779A46.281,46.281,0,0,0,424,371.043V262.381a18.04,18.04,0,0,0-16.447-18.364,17.379,17.379,0,0,0-18.287,16.422q-.026.478-.025.958V346.81a16.29,16.29,0,0,0-23.016,1.006l-.081.089-40.627,45.14-.353.2a79.87,79.87,0,0,0-40.2,69.314Z"/><g class="cls-11"><path class="cls-10" d="M343.323,427.8a5.793,5.793,0,0,0,4.287-1.894L395.073,373.7a22.1,22.1,0,0,0-.724-30.518,5.793,5.793,0,0,0-8.191,8.191,10.526,10.526,0,0,1,.342,14.535l-47.457,52.2a5.793,5.793,0,0,0,4.281,9.692Z"/></g></svg>