<svg id="Layer_1" data-name="Layer 1" xmlns="http://www.w3.org/2000/svg" viewBox="0 0 512 512"><defs><style>.cls-1{fill:none;stroke:#464648;stroke-linecap:round;stroke-linejoin:round;stroke-width:20px;}</style></defs><title>Delete-card</title><path class="cls-1" d="M371.42,499.188h-226.7A24.053,24.053,0,0,1,120.745,477.1L92.539,133.535h332L395.388,477.168A24.053,24.053,0,0,1,371.42,499.188Z"/><path class="cls-1" d="M420.943,70.959H90.885a13.555,13.555,0,0,0-12.808,9.116L65.188,117.263A12.258,12.258,0,0,0,76.77,133.535H435.23a12.258,12.258,0,0,0,11.565-16.32L433.732,80.022A13.555,13.555,0,0,0,420.943,70.959Z"/><path class="cls-1" d="M197.339,66.286V27.14a14.328,14.328,0,0,1,14.328-14.328h88.757A14.328,14.328,0,0,1,314.752,27.14V68.287"/><line class="cls-1" x1="167.872" y1="175.619" x2="182.539" y2="450.286"/><line class="cls-1" x1="344.025" y1="175.619" x2="329.359" y2="450.286"/><line class="cls-1" x1="255.848" y1="175.619" x2="255.848" y2="450.286"/></svg>