<?xml version="1.0" encoding="utf-8"?>
<!-- Generator: Adobe Illustrator 25.2.0, SVG Export Plug-In . SVG Version: 6.00 Build 0)  -->
<svg version="1.1" id="Capa_1" xmlns="http://www.w3.org/2000/svg" xmlns:xlink="http://www.w3.org/1999/xlink" x="0px" y="0px"
	 width="805.48px" height="200px" viewBox="0 0 805.48 200" style="enable-background:new 0 0 805.48 200;" xml:space="preserve">
<style type="text/css">
	.st0{fill:#FF5C60;}
	.st1{opacity:0.14;fill:#F15A24;enable-background:new    ;}
	.st2{opacity:0.67;fill:url(#SVGID_1_);enable-background:new    ;}
	.st3{opacity:0.67;fill:url(#SVGID_2_);enable-background:new    ;}
	.st4{opacity:0.67;fill:url(#SVGID_3_);enable-background:new    ;}
	.st5{opacity:0.93;enable-background:new    ;}
	.st6{clip-path:url(#SVGID_5_);fill:#FF8F45;}
	.st7{clip-path:url(#SVGID_5_);fill:#FF9044;}
	.st8{clip-path:url(#SVGID_5_);fill:#FF9144;}
	.st9{clip-path:url(#SVGID_5_);fill:#FF9243;}
	.st10{clip-path:url(#SVGID_5_);fill:#FF9342;}
	.st11{clip-path:url(#SVGID_5_);fill:#FF9442;}
	.st12{clip-path:url(#SVGID_5_);fill:#FF9541;}
	.st13{clip-path:url(#SVGID_5_);fill:#FF9640;}
	.st14{clip-path:url(#SVGID_5_);fill:#FF9740;}
	.st15{clip-path:url(#SVGID_5_);fill:#FF983F;}
	.st16{clip-path:url(#SVGID_5_);fill:#FF993E;}
	.st17{clip-path:url(#SVGID_5_);fill:#FF9A3E;}
	.st18{clip-path:url(#SVGID_5_);fill:#FF9C3D;}
	.st19{clip-path:url(#SVGID_5_);fill:#FF9D3D;}
	.st20{clip-path:url(#SVGID_5_);fill:#FF9E3C;}
	.st21{clip-path:url(#SVGID_5_);fill:#FF9F3B;}
	.st22{clip-path:url(#SVGID_5_);fill:#FFA03B;}
	.st23{clip-path:url(#SVGID_5_);fill:#FFA13A;}
	.st24{clip-path:url(#SVGID_5_);fill:#FFA239;}
	.st25{clip-path:url(#SVGID_5_);fill:#FFA339;}
	.st26{clip-path:url(#SVGID_5_);fill:#FFA438;}
	.st27{clip-path:url(#SVGID_5_);fill:#FFA537;}
	.st28{clip-path:url(#SVGID_5_);fill:#FFA637;}
	.st29{clip-path:url(#SVGID_5_);fill:#FFA736;}
	.st30{fill:#FFFFFF;}
	.st31{opacity:0.67;fill:url(#SVGID_10_);enable-background:new    ;}
	.st32{opacity:0.67;fill:url(#SVGID_11_);enable-background:new    ;}
	.st33{opacity:0.67;fill:url(#SVGID_12_);enable-background:new    ;}
	.st34{clip-path:url(#SVGID_14_);fill:#FF8F45;}
	.st35{clip-path:url(#SVGID_14_);fill:#FF9044;}
	.st36{clip-path:url(#SVGID_14_);fill:#FF9144;}
	.st37{clip-path:url(#SVGID_14_);fill:#FF9243;}
	.st38{clip-path:url(#SVGID_14_);fill:#FF9342;}
	.st39{clip-path:url(#SVGID_14_);fill:#FF9442;}
	.st40{clip-path:url(#SVGID_14_);fill:#FF9541;}
	.st41{clip-path:url(#SVGID_14_);fill:#FF9640;}
	.st42{clip-path:url(#SVGID_14_);fill:#FF9740;}
	.st43{clip-path:url(#SVGID_14_);fill:#FF983F;}
	.st44{clip-path:url(#SVGID_14_);fill:#FF993E;}
	.st45{clip-path:url(#SVGID_14_);fill:#FF9A3E;}
	.st46{clip-path:url(#SVGID_14_);fill:#FF9C3D;}
	.st47{clip-path:url(#SVGID_14_);fill:#FF9D3D;}
	.st48{clip-path:url(#SVGID_14_);fill:#FF9E3C;}
	.st49{clip-path:url(#SVGID_14_);fill:#FF9F3B;}
	.st50{clip-path:url(#SVGID_14_);fill:#FFA03B;}
	.st51{clip-path:url(#SVGID_14_);fill:#FFA13A;}
	.st52{clip-path:url(#SVGID_14_);fill:#FFA239;}
	.st53{clip-path:url(#SVGID_14_);fill:#FFA339;}
	.st54{clip-path:url(#SVGID_14_);fill:#FFA438;}
	.st55{clip-path:url(#SVGID_14_);fill:#FFA537;}
	.st56{clip-path:url(#SVGID_14_);fill:#FFA637;}
	.st57{clip-path:url(#SVGID_14_);fill:#FFA736;}
	.st58{fill:#FF8F45;}
	.st59{opacity:0.14;fill:#F15A24;}
	.st60{fill:#FBFEFB;}
	.st61{fill:#E0E0E0;}
	.st62{fill:url(#SVGID_15_);}
	.st63{opacity:0.3;fill:#FFFFFF;}
	.st64{opacity:0.42;fill:#F15A24;}
	.st65{fill:#FFB654;}
	.st66{fill:url(#SVGID_16_);}
	.st67{fill:url(#SVGID_17_);}
	.st68{opacity:0.67;fill:url(#SVGID_18_);}
	.st69{opacity:0.67;fill:url(#SVGID_19_);}
	.st70{opacity:0.67;fill:url(#SVGID_20_);}
	.st71{fill:url(#SVGID_21_);}
	.st72{clip-path:url(#SVGID_23_);fill:#FF8F45;}
	.st73{opacity:0.3;clip-path:url(#SVGID_23_);fill:#CE471D;}
	.st74{fill:url(#SVGID_24_);}
	.st75{clip-path:url(#SVGID_26_);fill:#FF8F45;}
	.st76{opacity:0.3;clip-path:url(#SVGID_26_);fill:#CE471D;}
	.st77{opacity:0.4;clip-path:url(#SVGID_28_);}
	.st78{fill:#E96F33;}
	.st79{fill:url(#SVGID_29_);}
	.st80{fill:url(#SVGID_30_);}
	.st81{fill:url(#SVGID_31_);}
	.st82{fill:url(#SVGID_32_);}
	.st83{opacity:0.47;fill:#F97E48;enable-background:new    ;}
	.st84{fill:url(#SVGID_33_);}
	.st85{opacity:0.42;fill:#F15A24;enable-background:new    ;}
	.st86{fill:#FFC85E;}
	.st87{fill:#FF9F4A;}
	.st88{opacity:0.67;fill:url(#SVGID_34_);enable-background:new    ;}
	.st89{opacity:0.67;fill:url(#SVGID_35_);enable-background:new    ;}
	.st90{opacity:0.67;fill:url(#SVGID_36_);enable-background:new    ;}
	.st91{enable-background:new    ;}
	.st92{fill:#444444;}
</style>
<g>
	<g>
		<g>
			<path class="st92" d="M113.13,93.56l20.94-19.75L40.95,22.6c-1.31-0.71-2.77-1.1-4.26-1.15L113.13,93.56z"/>
			<path class="st92" d="M27.54,26.5c-0.82,1.45-1.25,3.09-1.25,4.76v138.27c0,1.67,0.43,3.31,1.25,4.77l78.34-73.9L27.54,26.5z"/>
			<path class="st92" d="M166.69,91.73l-23.45-12.89l-22.85,21.57l22.86,21.56l23.45-12.9c4.79-2.63,6.53-8.65,3.9-13.44
				C169.69,93.99,168.33,92.63,166.69,91.73z"/>
			<path class="st92" d="M113.13,107.24l-76.44,72.11c1.49-0.05,2.95-0.45,4.26-1.15l93.13-51.2L113.13,107.24z"/>
		</g>
		<g>
			<g class="st91">
				<path class="st92" d="M249.88,129.44v-12.5h32.28v29.55c-3.14,3.04-7.68,5.71-13.64,8.02s-11.98,3.46-18.09,3.46
					c-7.76,0-14.52-1.63-20.29-4.88c-5.77-3.25-10.1-7.91-13-13.97c-2.9-6.05-4.35-12.64-4.35-19.76c0-7.72,1.62-14.59,4.86-20.6
					c3.24-6,7.98-10.61,14.22-13.81c4.76-2.46,10.68-3.69,17.76-3.69c9.21,0,16.4,1.93,21.58,5.79c5.18,3.86,8.51,9.2,9.99,16.02
					l-14.88,2.78c-1.05-3.64-3.01-6.52-5.89-8.63c-2.88-2.11-6.49-3.16-10.8-3.16c-6.55,0-11.75,2.07-15.61,6.22
					c-3.86,4.15-5.79,10.31-5.79,18.47c0,8.8,1.96,15.41,5.87,19.81c3.91,4.4,9.04,6.61,15.38,6.61c3.14,0,6.28-0.62,9.44-1.85
					c3.15-1.23,5.86-2.72,8.12-4.48v-9.41H249.88z"/>
				<path class="st92" d="M290,129.08c0-4.72,1.16-9.29,3.49-13.71c2.33-4.42,5.63-7.79,9.89-10.12c4.27-2.33,9.03-3.49,14.29-3.49
					c8.13,0,14.79,2.64,19.99,7.92s7.79,11.95,7.79,20.01c0,8.13-2.62,14.87-7.87,20.22c-5.25,5.35-11.85,8.02-19.81,8.02
					c-4.93,0-9.62-1.11-14.09-3.34c-4.47-2.23-7.87-5.49-10.2-9.79C291.16,140.49,290,135.25,290,129.08z M304.57,129.84
					c0,5.33,1.26,9.41,3.79,12.25s5.65,4.25,9.36,4.25s6.82-1.42,9.34-4.25c2.51-2.83,3.77-6.95,3.77-12.35
					c0-5.26-1.26-9.31-3.77-12.14c-2.51-2.83-5.63-4.25-9.34-4.25s-6.83,1.42-9.36,4.25S304.57,124.51,304.57,129.84z"/>
				<path class="st92" d="M350.71,129.08c0-4.72,1.16-9.29,3.49-13.71c2.33-4.42,5.63-7.79,9.89-10.12
					c4.27-2.33,9.03-3.49,14.29-3.49c8.13,0,14.79,2.64,19.99,7.92s7.79,11.95,7.79,20.01c0,8.13-2.62,14.87-7.87,20.22
					c-5.25,5.35-11.85,8.02-19.81,8.02c-4.93,0-9.62-1.11-14.09-3.34c-4.47-2.23-7.87-5.49-10.2-9.79
					C351.88,140.49,350.71,135.25,350.71,129.08z M365.29,129.84c0,5.33,1.26,9.41,3.79,12.25s5.65,4.25,9.36,4.25
					s6.82-1.42,9.34-4.25c2.51-2.83,3.77-6.95,3.77-12.35c0-5.26-1.26-9.31-3.77-12.14c-2.51-2.83-5.63-4.25-9.34-4.25
					s-6.83,1.42-9.36,4.25S365.29,124.51,365.29,129.84z"/>
				<path class="st92" d="M413.4,160.25l16.24,1.97c0.27,1.89,0.89,3.19,1.87,3.9c1.35,1.01,3.47,1.52,6.38,1.52
					c3.71,0,6.49-0.56,8.35-1.67c1.25-0.74,2.19-1.94,2.83-3.59c0.44-1.18,0.66-3.36,0.66-6.53v-7.84
					c-4.25,5.8-9.62,8.71-16.09,8.71c-7.22,0-12.94-3.05-17.15-9.16c-3.31-4.82-4.96-10.83-4.96-18.01c0-9.01,2.17-15.89,6.5-20.65
					c4.33-4.76,9.72-7.13,16.17-7.13c6.65,0,12.13,2.92,16.45,8.75v-7.54h13.31v48.22c0,6.34-0.52,11.08-1.57,14.22
					c-1.05,3.14-2.51,5.6-4.4,7.39c-1.89,1.79-4.41,3.19-7.57,4.2s-7.14,1.52-11.97,1.52c-9.11,0-15.57-1.56-19.38-4.68
					c-3.81-3.12-5.72-7.08-5.72-11.87C413.35,161.5,413.37,160.93,413.4,160.25z M426.1,128.73c0,5.7,1.1,9.88,3.31,12.53
					c2.21,2.65,4.93,3.97,8.17,3.97c3.47,0,6.41-1.36,8.81-4.07c2.39-2.71,3.59-6.74,3.59-12.07c0-5.57-1.15-9.7-3.44-12.4
					s-5.2-4.05-8.7-4.05c-3.41,0-6.22,1.32-8.43,3.97C427.21,119.26,426.1,123.3,426.1,128.73z"/>
				<path class="st92" d="M475.43,156.71V82.53h14.22v74.18H475.43z"/>
				<path class="st92" d="M532.75,139.61l14.17,2.38c-1.82,5.2-4.7,9.15-8.63,11.87c-3.93,2.71-8.85,4.07-14.75,4.07
					c-9.34,0-16.26-3.05-20.75-9.16c-3.54-4.89-5.31-11.06-5.31-18.52c0-8.9,2.33-15.88,6.98-20.92c4.66-5.04,10.54-7.56,17.66-7.56
					c8,0,14.3,2.64,18.92,7.92s6.83,13.37,6.63,24.26h-35.62c0.1,4.22,1.25,7.5,3.44,9.84c2.19,2.35,4.93,3.52,8.2,3.52
					c2.23,0,4.1-0.61,5.62-1.82C530.83,144.26,531.97,142.31,532.75,139.61z M533.56,125.24c-0.1-4.12-1.16-7.24-3.19-9.39
					c-2.02-2.14-4.49-3.21-7.39-3.21c-3.1,0-5.67,1.13-7.69,3.39c-2.02,2.26-3.02,5.33-2.99,9.21H533.56z"/>
				<path class="st92" d="M582.98,156.71V82.53h24.04c9.11,0,15.05,0.37,17.81,1.11c4.25,1.11,7.81,3.53,10.68,7.26
					c2.87,3.73,4.3,8.54,4.3,14.45c0,4.55-0.83,8.38-2.48,11.49c-1.65,3.1-3.75,5.54-6.3,7.31c-2.55,1.77-5.14,2.95-7.77,3.52
					c-3.58,0.71-8.75,1.06-15.54,1.06h-9.77v27.98H582.98z M597.96,95.08v21.05h8.2c5.9,0,9.85-0.39,11.84-1.16
					c1.99-0.78,3.55-1.99,4.68-3.64s1.7-3.58,1.7-5.77c0-2.7-0.79-4.93-2.38-6.68c-1.59-1.75-3.59-2.85-6.02-3.29
					c-1.79-0.34-5.38-0.51-10.78-0.51H597.96z"/>
				<path class="st92" d="M649.41,156.71V82.53h14.22v74.18H649.41z"/>
				<path class="st92" d="M686.24,119.37l-12.9-2.33c1.45-5.19,3.95-9.04,7.49-11.54c3.54-2.5,8.8-3.74,15.79-3.74
					c6.34,0,11.06,0.75,14.17,2.25c3.1,1.5,5.29,3.41,6.55,5.72c1.26,2.31,1.9,6.55,1.9,12.73l-0.15,16.6
					c0,4.72,0.23,8.21,0.68,10.45c0.46,2.24,1.31,4.65,2.56,7.21h-14.07c-0.37-0.95-0.83-2.35-1.37-4.2
					c-0.24-0.84-0.41-1.4-0.51-1.67c-2.43,2.36-5.03,4.13-7.79,5.31c-2.77,1.18-5.72,1.77-8.86,1.77c-5.53,0-9.89-1.5-13.08-4.5
					c-3.19-3-4.78-6.8-4.78-11.39c0-3.04,0.72-5.74,2.18-8.12c1.45-2.38,3.48-4.2,6.1-5.46c2.61-1.27,6.38-2.37,11.31-3.31
					c6.65-1.25,11.25-2.41,13.81-3.49v-1.42c0-2.73-0.67-4.68-2.02-5.85c-1.35-1.16-3.9-1.75-7.64-1.75c-2.53,0-4.5,0.5-5.92,1.49
					C688.26,115.12,687.12,116.87,686.24,119.37z M705.27,130.9c-1.82,0.61-4.71,1.33-8.65,2.18c-3.95,0.84-6.53,1.67-7.74,2.48
					c-1.86,1.32-2.78,2.99-2.78,5.01c0,1.99,0.74,3.71,2.23,5.16c1.48,1.45,3.37,2.18,5.67,2.18c2.56,0,5.01-0.84,7.34-2.53
					c1.72-1.28,2.85-2.85,3.39-4.71c0.37-1.21,0.56-3.53,0.56-6.93V130.9z"/>
				<path class="st92" d="M723.93,102.97h15.13l12.85,38.15l12.55-38.15h14.72l-18.98,51.71l-3.39,9.36
					c-1.25,3.14-2.44,5.53-3.57,7.19c-1.13,1.65-2.43,2.99-3.9,4.02s-3.27,1.83-5.41,2.4c-2.14,0.57-4.56,0.86-7.26,0.86
					c-2.73,0-5.42-0.29-8.05-0.86l-1.27-11.13c2.23,0.44,4.23,0.66,6.02,0.66c3.31,0,5.75-0.97,7.34-2.91
					c1.58-1.94,2.8-4.41,3.64-7.41L723.93,102.97z"/>
			</g>
			<g>
				<g>
					<path class="st92" d="M212.68,58.15V13.88h15.25c3.44,0,6.07,0.21,7.88,0.63c2.54,0.58,4.7,1.64,6.49,3.17
						c2.33,1.97,4.08,4.5,5.24,7.56c1.16,3.07,1.74,6.58,1.74,10.52c0,3.36-0.39,6.34-1.18,8.94s-1.79,4.75-3.02,6.45
						c-1.23,1.7-2.57,3.04-4.03,4.02c-1.46,0.98-3.22,1.72-5.28,2.22c-2.06,0.5-4.43,0.75-7.11,0.75H212.68z M218.54,52.92h9.45
						c2.92,0,5.21-0.27,6.87-0.82c1.66-0.54,2.98-1.31,3.97-2.29c1.39-1.39,2.47-3.26,3.25-5.6c0.78-2.35,1.16-5.19,1.16-8.53
						c0-4.63-0.76-8.19-2.28-10.67s-3.37-4.15-5.54-5c-1.57-0.6-4.1-0.91-7.58-0.91h-9.3V52.92z"/>
					<path class="st92" d="M258.65,20.13v-6.25h5.43v6.25H258.65z M258.65,58.15V26.08h5.43v32.07H258.65z"/>
					<path class="st92" d="M272.17,48.57l5.38-0.85c0.3,2.15,1.14,3.8,2.52,4.95s3.31,1.72,5.78,1.72c2.5,0,4.35-0.51,5.56-1.53
						c1.21-1.02,1.81-2.21,1.81-3.58c0-1.23-0.53-2.19-1.6-2.9c-0.75-0.48-2.6-1.1-5.56-1.84c-3.99-1.01-6.75-1.88-8.29-2.61
						c-1.54-0.74-2.71-1.75-3.5-3.05c-0.79-1.3-1.19-2.73-1.19-4.3c0-1.43,0.33-2.75,0.98-3.97c0.65-1.22,1.54-2.23,2.67-3.04
						c0.85-0.62,2-1.15,3.46-1.58c1.46-0.43,3.02-0.65,4.7-0.65c2.52,0,4.72,0.36,6.63,1.09c1.9,0.73,3.31,1.71,4.21,2.94
						s1.53,2.89,1.87,4.97l-5.31,0.72c-0.24-1.65-0.94-2.94-2.1-3.87s-2.79-1.39-4.91-1.39c-2.5,0-4.28,0.41-5.35,1.24
						c-1.07,0.83-1.6,1.79-1.6,2.9c0,0.71,0.22,1.34,0.66,1.9c0.44,0.58,1.14,1.07,2.08,1.45c0.54,0.2,2.14,0.66,4.8,1.39
						c3.84,1.03,6.53,1.87,8.05,2.52c1.52,0.66,2.71,1.61,3.58,2.85c0.87,1.25,1.3,2.8,1.3,4.65c0,1.81-0.53,3.52-1.58,5.12
						c-1.06,1.6-2.58,2.84-4.58,3.71c-1.99,0.88-4.25,1.31-6.76,1.31c-4.17,0-7.34-0.87-9.53-2.6
						C274.17,54.54,272.77,51.98,272.17,48.57z"/>
					<path class="st92" d="M307.24,70.44V26.08h4.95v4.17c1.17-1.63,2.49-2.85,3.96-3.67c1.47-0.82,3.25-1.22,5.34-1.22
						c2.74,0,5.15,0.71,7.25,2.11s3.67,3.4,4.74,5.96c1.07,2.57,1.6,5.38,1.6,8.44c0,3.28-0.59,6.24-1.77,8.86s-2.89,4.64-5.13,6.04
						c-2.25,1.4-4.61,2.1-7.08,2.1c-1.81,0-3.44-0.38-4.88-1.15c-1.44-0.76-2.62-1.73-3.55-2.9v15.61H307.24z M312.16,42.29
						c0,4.13,0.84,7.18,2.51,9.15c1.67,1.97,3.69,2.96,6.07,2.96c2.42,0,4.48-1.02,6.21-3.07c1.72-2.04,2.58-5.21,2.58-9.5
						c0-4.09-0.84-7.15-2.52-9.18c-1.68-2.03-3.69-3.05-6.02-3.05c-2.32,0-4.36,1.08-6.15,3.25
						C313.05,35.02,312.16,38.17,312.16,42.29z"/>
					<path class="st92" d="M341.59,42.11c0-5.94,1.65-10.34,4.95-13.2c2.76-2.38,6.12-3.56,10.08-3.56c4.41,0,8.01,1.45,10.81,4.33
						c2.8,2.89,4.2,6.88,4.2,11.97c0,4.13-0.62,7.37-1.86,9.74c-1.24,2.37-3.04,4.2-5.41,5.51s-4.95,1.96-7.75,1.96
						c-4.49,0-8.12-1.44-10.89-4.32C342.98,51.67,341.59,47.53,341.59,42.11z M347.18,42.11c0,4.11,0.9,7.18,2.69,9.22
						c1.79,2.04,4.05,3.07,6.76,3.07c2.7,0,4.94-1.03,6.73-3.08c1.79-2.05,2.69-5.18,2.69-9.39c0-3.97-0.9-6.97-2.7-9.01
						c-1.8-2.04-4.04-3.06-6.72-3.06c-2.72,0-4.97,1.02-6.76,3.05C348.07,34.94,347.18,38,347.18,42.11z"/>
					<path class="st92" d="M379.99,58.15V26.08h4.89v4.56c2.36-3.52,5.76-5.29,10.21-5.29c1.93,0,3.71,0.35,5.33,1.04
						c1.62,0.69,2.83,1.61,3.64,2.73c0.8,1.13,1.37,2.47,1.69,4.02c0.2,1.01,0.3,2.77,0.3,5.28v19.72h-5.44V38.64
						c0-2.21-0.21-3.87-0.63-4.97c-0.42-1.1-1.17-1.97-2.25-2.63s-2.34-0.98-3.79-0.98c-2.31,0-4.31,0.74-5.99,2.2
						c-1.68,1.47-2.52,4.26-2.52,8.37v17.51H379.99z"/>
					<path class="st92" d="M416.39,20.13v-6.25h5.43v6.25H416.39z M416.39,58.15V26.08h5.43v32.07H416.39z"/>
					<path class="st92" d="M437.09,58.15h-5.04V13.88h5.44v15.79c2.29-2.88,5.22-4.32,8.79-4.32c1.97,0,3.84,0.4,5.6,1.19
						c1.76,0.79,3.21,1.91,4.35,3.35c1.14,1.44,2.03,3.18,2.67,5.21s0.97,4.21,0.97,6.52c0,5.5-1.36,9.74-4.08,12.74
						c-2.72,3-5.98,4.5-9.79,4.5c-3.78,0-6.75-1.58-8.91-4.74V58.15z M437.03,41.87c0,3.85,0.52,6.62,1.57,8.33
						c1.71,2.8,4.03,4.2,6.95,4.2c2.38,0,4.43-1.03,6.16-3.1c1.73-2.06,2.6-5.14,2.6-9.22c0-4.19-0.83-7.28-2.49-9.27
						s-3.67-2.99-6.02-2.99c-2.38,0-4.43,1.03-6.16,3.09S437.03,37.96,437.03,41.87z"/>
					<path class="st92" d="M468.33,58.15V13.88h5.44v44.27H468.33z"/>
					<path class="st92" d="M506.13,47.82l5.62,0.69c-0.89,3.28-2.53,5.83-4.92,7.64s-5.46,2.72-9.18,2.72
						c-4.69,0-8.41-1.44-11.16-4.33s-4.12-6.94-4.12-12.15c0-5.39,1.39-9.58,4.17-12.56c2.78-2.98,6.38-4.47,10.81-4.47
						c4.29,0,7.79,1.46,10.51,4.38c2.72,2.92,4.08,7.03,4.08,12.32c0,0.32-0.01,0.81-0.03,1.45h-23.92c0.2,3.52,1.2,6.22,2.99,8.09
						s4.03,2.81,6.7,2.81c1.99,0,3.69-0.52,5.1-1.57C504.18,51.78,505.3,50.11,506.13,47.82z M488.28,39.03h17.91
						c-0.24-2.7-0.93-4.72-2.05-6.07c-1.73-2.09-3.98-3.14-6.73-3.14c-2.5,0-4.6,0.83-6.3,2.51S488.46,36.23,488.28,39.03z"/>
					<path class="st92" d="M561.66,47.82l5.62,0.69c-0.89,3.28-2.53,5.83-4.92,7.64c-2.4,1.81-5.46,2.72-9.18,2.72
						c-4.69,0-8.41-1.44-11.16-4.33s-4.12-6.94-4.12-12.15c0-5.39,1.39-9.58,4.17-12.56s6.38-4.47,10.81-4.47
						c4.29,0,7.79,1.46,10.51,4.38c2.72,2.92,4.08,7.03,4.08,12.32c0,0.32-0.01,0.81-0.03,1.45h-23.92c0.2,3.52,1.2,6.22,2.99,8.09
						s4.03,2.81,6.7,2.81c1.99,0,3.69-0.52,5.1-1.57C559.72,51.78,560.83,50.11,561.66,47.82z M543.81,39.03h17.91
						c-0.24-2.7-0.93-4.72-2.05-6.07c-1.73-2.09-3.98-3.14-6.73-3.14c-2.5,0-4.59,0.83-6.29,2.51
						C544.93,34,543.99,36.23,543.81,39.03z"/>
					<path class="st92" d="M576.08,58.15V26.08h4.89v4.56c2.36-3.52,5.76-5.29,10.21-5.29c1.93,0,3.71,0.35,5.33,1.04
						c1.62,0.69,2.83,1.61,3.64,2.73c0.8,1.13,1.37,2.47,1.69,4.02c0.2,1.01,0.3,2.77,0.3,5.28v19.72h-5.44V38.64
						c0-2.21-0.21-3.87-0.63-4.97c-0.42-1.1-1.17-1.97-2.25-2.63c-1.08-0.65-2.34-0.98-3.79-0.98c-2.31,0-4.31,0.74-5.99,2.2
						c-1.68,1.47-2.52,4.26-2.52,8.37v17.51H576.08z"/>
				</g>
			</g>
		</g>
	</g>
</g>
</svg>
