<?xml version="1.0" encoding="utf-8"?>
<!-- Generator: Adobe Illustrator 25.2.0, SVG Export Plug-In . SVG Version: 6.00 Build 0)  -->
<svg version="1.1" id="Capa_1" xmlns="http://www.w3.org/2000/svg" xmlns:xlink="http://www.w3.org/1999/xlink" x="0px" y="0px"
	 width="752.89px" height="181.14px" viewBox="0 0 752.89 181.14" style="enable-background:new 0 0 752.89 181.14;"
	 xml:space="preserve">
<style type="text/css">
	.st0{fill:#FF5C60;}
	.st1{opacity:0.14;fill:#F15A24;enable-background:new    ;}
	.st2{opacity:0.67;fill:url(#SVGID_1_);enable-background:new    ;}
	.st3{opacity:0.67;fill:url(#SVGID_2_);enable-background:new    ;}
	.st4{opacity:0.67;fill:url(#SVGID_3_);enable-background:new    ;}
	.st5{opacity:0.93;enable-background:new    ;}
	.st6{clip-path:url(#SVGID_5_);fill:#FF8F45;}
	.st7{clip-path:url(#SVGID_5_);fill:#FF9044;}
	.st8{clip-path:url(#SVGID_5_);fill:#FF9144;}
	.st9{clip-path:url(#SVGID_5_);fill:#FF9243;}
	.st10{clip-path:url(#SVGID_5_);fill:#FF9342;}
	.st11{clip-path:url(#SVGID_5_);fill:#FF9442;}
	.st12{clip-path:url(#SVGID_5_);fill:#FF9541;}
	.st13{clip-path:url(#SVGID_5_);fill:#FF9640;}
	.st14{clip-path:url(#SVGID_5_);fill:#FF9740;}
	.st15{clip-path:url(#SVGID_5_);fill:#FF983F;}
	.st16{clip-path:url(#SVGID_5_);fill:#FF993E;}
	.st17{clip-path:url(#SVGID_5_);fill:#FF9A3E;}
	.st18{clip-path:url(#SVGID_5_);fill:#FF9C3D;}
	.st19{clip-path:url(#SVGID_5_);fill:#FF9D3D;}
	.st20{clip-path:url(#SVGID_5_);fill:#FF9E3C;}
	.st21{clip-path:url(#SVGID_5_);fill:#FF9F3B;}
	.st22{clip-path:url(#SVGID_5_);fill:#FFA03B;}
	.st23{clip-path:url(#SVGID_5_);fill:#FFA13A;}
	.st24{clip-path:url(#SVGID_5_);fill:#FFA239;}
	.st25{clip-path:url(#SVGID_5_);fill:#FFA339;}
	.st26{clip-path:url(#SVGID_5_);fill:#FFA438;}
	.st27{clip-path:url(#SVGID_5_);fill:#FFA537;}
	.st28{clip-path:url(#SVGID_5_);fill:#FFA637;}
	.st29{clip-path:url(#SVGID_5_);fill:#FFA736;}
	.st30{fill:#FFFFFF;}
	.st31{opacity:0.67;fill:url(#SVGID_10_);enable-background:new    ;}
	.st32{opacity:0.67;fill:url(#SVGID_11_);enable-background:new    ;}
	.st33{opacity:0.67;fill:url(#SVGID_12_);enable-background:new    ;}
	.st34{clip-path:url(#SVGID_14_);fill:#FF8F45;}
	.st35{clip-path:url(#SVGID_14_);fill:#FF9044;}
	.st36{clip-path:url(#SVGID_14_);fill:#FF9144;}
	.st37{clip-path:url(#SVGID_14_);fill:#FF9243;}
	.st38{clip-path:url(#SVGID_14_);fill:#FF9342;}
	.st39{clip-path:url(#SVGID_14_);fill:#FF9442;}
	.st40{clip-path:url(#SVGID_14_);fill:#FF9541;}
	.st41{clip-path:url(#SVGID_14_);fill:#FF9640;}
	.st42{clip-path:url(#SVGID_14_);fill:#FF9740;}
	.st43{clip-path:url(#SVGID_14_);fill:#FF983F;}
	.st44{clip-path:url(#SVGID_14_);fill:#FF993E;}
	.st45{clip-path:url(#SVGID_14_);fill:#FF9A3E;}
	.st46{clip-path:url(#SVGID_14_);fill:#FF9C3D;}
	.st47{clip-path:url(#SVGID_14_);fill:#FF9D3D;}
	.st48{clip-path:url(#SVGID_14_);fill:#FF9E3C;}
	.st49{clip-path:url(#SVGID_14_);fill:#FF9F3B;}
	.st50{clip-path:url(#SVGID_14_);fill:#FFA03B;}
	.st51{clip-path:url(#SVGID_14_);fill:#FFA13A;}
	.st52{clip-path:url(#SVGID_14_);fill:#FFA239;}
	.st53{clip-path:url(#SVGID_14_);fill:#FFA339;}
	.st54{clip-path:url(#SVGID_14_);fill:#FFA438;}
	.st55{clip-path:url(#SVGID_14_);fill:#FFA537;}
	.st56{clip-path:url(#SVGID_14_);fill:#FFA637;}
	.st57{clip-path:url(#SVGID_14_);fill:#FFA736;}
	.st58{fill:#FF8F45;}
	.st59{opacity:0.14;fill:#F15A24;}
	.st60{fill:#FBFEFB;}
	.st61{fill:#E0E0E0;}
	.st62{fill:url(#SVGID_15_);}
	.st63{opacity:0.3;fill:#FFFFFF;}
	.st64{opacity:0.42;fill:#F15A24;}
	.st65{fill:#FFB654;}
	.st66{fill:url(#SVGID_16_);}
	.st67{fill:url(#SVGID_17_);}
	.st68{opacity:0.67;fill:url(#SVGID_18_);}
	.st69{opacity:0.67;fill:url(#SVGID_19_);}
	.st70{opacity:0.67;fill:url(#SVGID_20_);}
	.st71{fill:url(#SVGID_21_);}
	.st72{clip-path:url(#SVGID_23_);fill:#FF8F45;}
	.st73{opacity:0.3;clip-path:url(#SVGID_23_);fill:#CE471D;}
	.st74{fill:url(#SVGID_24_);}
	.st75{clip-path:url(#SVGID_26_);fill:#FF8F45;}
	.st76{opacity:0.3;clip-path:url(#SVGID_26_);fill:#CE471D;}
	.st77{opacity:0.4;clip-path:url(#SVGID_28_);}
	.st78{fill:#E96F33;}
	.st79{fill:url(#SVGID_29_);}
	.st80{fill:url(#SVGID_30_);}
	.st81{fill:url(#SVGID_31_);}
	.st82{fill:url(#SVGID_32_);}
	.st83{opacity:0.47;fill:#F97E48;enable-background:new    ;}
	.st84{fill:url(#SVGID_33_);}
	.st85{opacity:0.42;fill:#F15A24;enable-background:new    ;}
	.st86{fill:#FFC85E;}
	.st87{fill:#FF9F4A;}
	.st88{opacity:0.67;fill:url(#SVGID_34_);enable-background:new    ;}
	.st89{opacity:0.67;fill:url(#SVGID_35_);enable-background:new    ;}
	.st90{opacity:0.67;fill:url(#SVGID_36_);enable-background:new    ;}
	.st91{enable-background:new    ;}
	.st92{fill:#444444;}
</style>
<g>
	<g>
		<g>
			<path class="st92" d="M86.84,83.72l20.94-19.75l-93.13-51.2c-1.31-0.71-2.77-1.1-4.26-1.15L86.84,83.72z"/>
			<path class="st92" d="M1.25,16.67C0.43,18.12,0,19.76,0,21.43V159.7c0,1.67,0.43,3.31,1.25,4.77l78.34-73.9L1.25,16.67z"/>
			<path class="st92" d="M140.4,81.9L116.95,69L94.09,90.57l22.86,21.56l23.45-12.9c4.79-2.63,6.53-8.65,3.9-13.44
				C143.4,84.15,142.04,82.8,140.4,81.9z"/>
			<path class="st92" d="M86.84,97.41L10.4,169.52c1.49-0.05,2.95-0.45,4.26-1.15l93.13-51.2L86.84,97.41z"/>
		</g>
		<g>
			<g class="st91">
				<path class="st92" d="M223.59,108.94v-12.5h32.28V126c-3.14,3.04-7.68,5.71-13.64,8.02c-5.96,2.31-11.98,3.47-18.09,3.47
					c-7.76,0-14.52-1.63-20.29-4.88c-5.77-3.25-10.1-7.91-13-13.97c-2.9-6.05-4.35-12.64-4.35-19.76c0-7.73,1.62-14.59,4.86-20.6
					s7.98-10.61,14.22-13.81c4.76-2.46,10.68-3.69,17.76-3.69c9.21,0,16.4,1.93,21.58,5.79c5.18,3.86,8.51,9.2,9.99,16.02
					l-14.88,2.78c-1.05-3.64-3.01-6.52-5.89-8.63c-2.88-2.11-6.49-3.16-10.8-3.16c-6.54,0-11.75,2.07-15.61,6.22
					c-3.86,4.15-5.79,10.31-5.79,18.47c0,8.8,1.96,15.41,5.87,19.81c3.91,4.4,9.04,6.6,15.38,6.6c3.14,0,6.28-0.62,9.44-1.85
					c3.15-1.23,5.86-2.72,8.12-4.48v-9.41H223.59z"/>
				<path class="st92" d="M263.71,108.59c0-4.72,1.16-9.29,3.49-13.71c2.33-4.42,5.63-7.79,9.89-10.12
					c4.27-2.33,9.03-3.49,14.29-3.49c8.13,0,14.79,2.64,19.99,7.92s7.79,11.95,7.79,20.01c0,8.13-2.62,14.87-7.87,20.22
					s-11.85,8.02-19.81,8.02c-4.93,0-9.62-1.11-14.09-3.34c-4.47-2.23-7.87-5.49-10.2-9.79C264.87,120,263.71,114.76,263.71,108.59z
					 M278.28,109.35c0,5.33,1.26,9.41,3.79,12.25c2.53,2.83,5.65,4.25,9.36,4.25s6.82-1.42,9.34-4.25s3.77-6.95,3.77-12.35
					c0-5.26-1.26-9.31-3.77-12.14s-5.63-4.25-9.34-4.25s-6.83,1.42-9.36,4.25C279.55,99.94,278.28,104.02,278.28,109.35z"/>
				<path class="st92" d="M324.42,108.59c0-4.72,1.16-9.29,3.49-13.71c2.33-4.42,5.63-7.79,9.89-10.12
					c4.27-2.33,9.03-3.49,14.29-3.49c8.13,0,14.79,2.64,19.99,7.92c5.19,5.28,7.79,11.95,7.79,20.01c0,8.13-2.62,14.87-7.87,20.22
					c-5.25,5.35-11.85,8.02-19.81,8.02c-4.93,0-9.62-1.11-14.09-3.34c-4.47-2.23-7.87-5.49-10.2-9.79
					C325.58,120,324.42,114.76,324.42,108.59z M338.99,109.35c0,5.33,1.27,9.41,3.8,12.25s5.65,4.25,9.36,4.25
					c3.71,0,6.82-1.42,9.34-4.25c2.51-2.83,3.77-6.95,3.77-12.35c0-5.26-1.26-9.31-3.77-12.14c-2.51-2.83-5.63-4.25-9.34-4.25
					c-3.71,0-6.83,1.42-9.36,4.25S338.99,104.02,338.99,109.35z"/>
				<path class="st92" d="M387.11,139.76l16.24,1.97c0.27,1.89,0.89,3.19,1.87,3.9c1.35,1.01,3.47,1.52,6.38,1.52
					c3.71,0,6.49-0.56,8.35-1.67c1.25-0.74,2.19-1.94,2.83-3.59c0.44-1.18,0.66-3.36,0.66-6.53v-7.84c-4.25,5.8-9.62,8.7-16.09,8.7
					c-7.22,0-12.94-3.05-17.15-9.16c-3.31-4.82-4.96-10.83-4.96-18.01c0-9.01,2.17-15.89,6.5-20.65c4.33-4.76,9.72-7.13,16.17-7.13
					c6.64,0,12.13,2.92,16.45,8.75v-7.54h13.31v48.22c0,6.34-0.52,11.08-1.57,14.22c-1.05,3.14-2.51,5.6-4.4,7.39
					c-1.89,1.79-4.41,3.19-7.57,4.2c-3.16,1.01-7.14,1.52-11.97,1.52c-9.11,0-15.57-1.56-19.38-4.68s-5.72-7.08-5.72-11.87
					C387.06,141.01,387.07,140.44,387.11,139.76z M399.81,108.24c0,5.7,1.11,9.88,3.31,12.52c2.21,2.65,4.93,3.97,8.17,3.97
					c3.47,0,6.41-1.36,8.81-4.07c2.39-2.71,3.59-6.74,3.59-12.07c0-5.57-1.15-9.7-3.44-12.4c-2.29-2.7-5.2-4.05-8.7-4.05
					c-3.41,0-6.22,1.32-8.43,3.97C400.91,98.76,399.81,102.8,399.81,108.24z"/>
				<path class="st92" d="M449.14,136.22V62.04h14.22v74.18H449.14z"/>
				<path class="st92" d="M506.46,119.12l14.17,2.38c-1.82,5.2-4.7,9.15-8.63,11.87c-3.93,2.72-8.85,4.07-14.75,4.07
					c-9.34,0-16.26-3.05-20.75-9.16c-3.54-4.89-5.31-11.07-5.31-18.52c0-8.91,2.33-15.88,6.98-20.92
					c4.66-5.04,10.54-7.57,17.66-7.57c7.99,0,14.3,2.64,18.92,7.92s6.83,13.37,6.63,24.26h-35.62c0.1,4.22,1.25,7.5,3.44,9.84
					c2.19,2.34,4.92,3.52,8.2,3.52c2.23,0,4.1-0.61,5.62-1.82C504.54,123.77,505.68,121.81,506.46,119.12z M507.27,104.74
					c-0.1-4.12-1.16-7.24-3.19-9.39c-2.02-2.14-4.49-3.21-7.39-3.21c-3.1,0-5.67,1.13-7.69,3.39c-2.02,2.26-3.02,5.33-2.99,9.21
					H507.27z"/>
				<path class="st92" d="M556.69,136.22V62.04h24.04c9.11,0,15.05,0.37,17.81,1.11c4.25,1.11,7.81,3.53,10.68,7.26
					c2.87,3.73,4.3,8.54,4.3,14.45c0,4.55-0.83,8.38-2.48,11.49c-1.65,3.1-3.75,5.54-6.3,7.31c-2.55,1.77-5.14,2.94-7.77,3.52
					c-3.58,0.71-8.75,1.06-15.54,1.06h-9.77v27.98H556.69z M571.67,74.58v21.05h8.2c5.9,0,9.85-0.39,11.84-1.16
					c1.99-0.78,3.55-1.99,4.68-3.64c1.13-1.65,1.7-3.58,1.7-5.77c0-2.7-0.79-4.93-2.38-6.68s-3.59-2.85-6.02-3.29
					c-1.79-0.34-5.38-0.51-10.78-0.51H571.67z"/>
				<path class="st92" d="M623.12,136.22V62.04h14.22v74.18H623.12z"/>
				<path class="st92" d="M659.95,98.87l-12.9-2.33c1.45-5.19,3.95-9.04,7.49-11.54c3.54-2.5,8.8-3.75,15.79-3.75
					c6.34,0,11.06,0.75,14.17,2.25c3.1,1.5,5.29,3.41,6.55,5.72c1.26,2.31,1.9,6.55,1.9,12.73l-0.15,16.6
					c0,4.72,0.23,8.21,0.68,10.45c0.46,2.24,1.31,4.65,2.56,7.21h-14.07c-0.37-0.94-0.83-2.34-1.37-4.2
					c-0.24-0.84-0.41-1.4-0.51-1.67c-2.43,2.36-5.03,4.13-7.79,5.31c-2.77,1.18-5.72,1.77-8.86,1.77c-5.53,0-9.89-1.5-13.08-4.5
					c-3.19-3-4.78-6.8-4.78-11.39c0-3.04,0.72-5.74,2.18-8.12c1.45-2.38,3.48-4.2,6.1-5.46c2.61-1.27,6.38-2.37,11.31-3.31
					c6.65-1.25,11.25-2.41,13.81-3.49v-1.42c0-2.73-0.67-4.68-2.02-5.84c-1.35-1.16-3.9-1.75-7.64-1.75c-2.53,0-4.5,0.5-5.92,1.49
					C661.97,94.63,660.83,96.38,659.95,98.87z M678.98,110.41c-1.82,0.61-4.71,1.33-8.65,2.18c-3.95,0.84-6.53,1.67-7.74,2.48
					c-1.86,1.32-2.78,2.99-2.78,5.01c0,1.99,0.74,3.71,2.23,5.16s3.37,2.18,5.67,2.18c2.56,0,5.01-0.84,7.34-2.53
					c1.72-1.28,2.85-2.85,3.39-4.71c0.37-1.21,0.56-3.53,0.56-6.93V110.41z"/>
				<path class="st92" d="M697.64,82.48h15.13l12.85,38.15l12.55-38.15h14.72l-18.98,51.72l-3.39,9.36
					c-1.25,3.14-2.44,5.53-3.57,7.19c-1.13,1.65-2.43,2.99-3.9,4.02c-1.47,1.03-3.27,1.83-5.41,2.4c-2.14,0.57-4.56,0.86-7.26,0.86
					c-2.73,0-5.42-0.29-8.05-0.86l-1.26-11.13c2.23,0.44,4.23,0.66,6.02,0.66c3.3,0,5.75-0.97,7.34-2.91
					c1.58-1.94,2.8-4.41,3.64-7.41L697.64,82.48z"/>
			</g>
			<g class="st91">
				<path class="st92" d="M181.56,37.65l10.17-26.49h3.78l10.84,26.49h-3.99l-3.09-8.02h-11.08l-2.91,8.02H181.56z M189.2,26.78
					h8.98l-2.76-7.33c-0.84-2.23-1.47-4.06-1.88-5.49c-0.34,1.7-0.81,3.38-1.43,5.06L189.2,26.78z"/>
				<path class="st92" d="M205.45,37.65V11.17h3.6l13.91,20.79V11.17h3.36v26.49h-3.6l-13.91-20.81v20.81H205.45z"/>
				<path class="st92" d="M228.54,37.65V11.17h9.12c2.06,0,3.63,0.13,4.72,0.38c1.52,0.35,2.81,0.98,3.88,1.9
					c1.4,1.18,2.44,2.69,3.13,4.53c0.69,1.84,1.04,3.94,1.04,6.3c0,2.01-0.24,3.79-0.71,5.35c-0.47,1.55-1.07,2.84-1.81,3.86
					c-0.73,1.02-1.54,1.82-2.41,2.4c-0.87,0.58-1.93,1.03-3.16,1.33c-1.23,0.3-2.65,0.45-4.25,0.45H228.54z M232.05,34.53h5.65
					c1.75,0,3.12-0.16,4.11-0.49c0.99-0.33,1.79-0.78,2.38-1.37c0.83-0.83,1.48-1.95,1.94-3.35c0.46-1.4,0.7-3.1,0.7-5.1
					c0-2.77-0.46-4.9-1.36-6.39c-0.91-1.49-2.01-2.48-3.32-2.99c-0.94-0.36-2.45-0.54-4.53-0.54h-5.56V34.53z"/>
				<path class="st92" d="M251.65,37.65V11.17h11.74c2.36,0,4.16,0.24,5.38,0.71s2.21,1.32,2.95,2.52c0.73,1.21,1.1,2.54,1.1,3.99
					c0,1.88-0.61,3.46-1.82,4.75c-1.22,1.29-3.1,2.11-5.64,2.46c0.93,0.45,1.63,0.89,2.11,1.32c1.02,0.94,1.99,2.11,2.91,3.52
					l4.61,7.21h-4.41l-3.5-5.51c-1.02-1.59-1.87-2.81-2.53-3.65c-0.66-0.84-1.25-1.43-1.78-1.77c-0.52-0.34-1.06-0.57-1.6-0.71
					c-0.4-0.08-1.05-0.13-1.95-0.13h-4.07v11.76H251.65z M255.16,22.86h7.53c1.6,0,2.85-0.17,3.76-0.5s1.59-0.86,2.06-1.59
					s0.7-1.52,0.7-2.38c0-1.25-0.45-2.28-1.36-3.09c-0.91-0.81-2.35-1.21-4.31-1.21h-8.38V22.86z"/>
				<path class="st92" d="M273.59,24.75c0-4.4,1.18-7.84,3.54-10.33c2.36-2.49,5.41-3.73,9.14-3.73c2.44,0,4.65,0.58,6.61,1.75
					c1.96,1.17,3.46,2.8,4.49,4.89c1.03,2.09,1.54,4.46,1.54,7.11c0,2.69-0.54,5.09-1.63,7.21s-2.62,3.72-4.61,4.81
					c-1.99,1.09-4.13,1.63-6.43,1.63c-2.49,0-4.72-0.6-6.68-1.81c-1.96-1.2-3.45-2.85-4.46-4.93S273.59,27.08,273.59,24.75z
					 M277.21,24.81c0,3.19,0.86,5.71,2.57,7.54c1.72,1.84,3.87,2.76,6.46,2.76c2.64,0,4.81-0.93,6.51-2.78
					c1.7-1.85,2.56-4.49,2.56-7.89c0-2.16-0.36-4.04-1.09-5.65c-0.73-1.61-1.79-2.85-3.2-3.74c-1.4-0.88-2.98-1.33-4.72-1.33
					c-2.48,0-4.62,0.85-6.4,2.56C278.1,17.98,277.21,20.82,277.21,24.81z"/>
				<path class="st92" d="M300.37,37.65V11.17h3.5v26.49H300.37z"/>
				<path class="st92" d="M306.39,37.65V11.17h9.12c2.06,0,3.63,0.13,4.71,0.38c1.52,0.35,2.81,0.98,3.88,1.9
					c1.4,1.18,2.44,2.69,3.13,4.53c0.69,1.84,1.04,3.94,1.04,6.3c0,2.01-0.23,3.79-0.7,5.35c-0.47,1.55-1.07,2.84-1.81,3.86
					c-0.74,1.02-1.54,1.82-2.41,2.4s-1.93,1.03-3.16,1.33c-1.23,0.3-2.65,0.45-4.25,0.45H306.39z M309.9,34.53h5.66
					c1.75,0,3.12-0.16,4.11-0.49c0.99-0.33,1.79-0.78,2.38-1.37c0.83-0.83,1.48-1.95,1.94-3.35c0.46-1.4,0.7-3.1,0.7-5.1
					c0-2.77-0.45-4.9-1.36-6.39c-0.91-1.49-2.01-2.48-3.31-2.99c-0.94-0.36-2.45-0.54-4.54-0.54h-5.56V34.53z"/>
				<path class="st92" d="M337.73,37.65l10.17-26.49h3.78l10.84,26.49h-3.99l-3.09-8.02h-11.07l-2.91,8.02H337.73z M345.37,26.78
					h8.98l-2.76-7.33c-0.84-2.23-1.47-4.06-1.88-5.49c-0.34,1.7-0.81,3.38-1.43,5.06L345.37,26.78z"/>
				<path class="st92" d="M361.66,37.65V11.17h9.99c1.76,0,3.1,0.08,4.03,0.25c1.3,0.22,2.39,0.63,3.27,1.24
					c0.88,0.61,1.59,1.46,2.12,2.56s0.8,2.3,0.8,3.61c0,2.25-0.72,4.16-2.15,5.72c-1.43,1.56-4.02,2.34-7.77,2.34h-6.79v10.77
					H361.66z M365.16,23.76h6.85c2.26,0,3.87-0.42,4.82-1.27c0.95-0.84,1.43-2.03,1.43-3.56c0-1.11-0.28-2.06-0.84-2.85
					c-0.56-0.79-1.3-1.31-2.21-1.56c-0.59-0.16-1.68-0.23-3.27-0.23h-6.77V23.76z"/>
				<path class="st92" d="M382.67,37.65V11.17h9.99c1.76,0,3.1,0.08,4.03,0.25c1.3,0.22,2.39,0.63,3.27,1.24
					c0.88,0.61,1.59,1.46,2.12,2.56s0.8,2.3,0.8,3.61c0,2.25-0.72,4.16-2.15,5.72c-1.43,1.56-4.02,2.34-7.77,2.34h-6.79v10.77
					H382.67z M386.18,23.76h6.85c2.26,0,3.87-0.42,4.82-1.27c0.95-0.84,1.43-2.03,1.43-3.56c0-1.11-0.28-2.06-0.84-2.85
					c-0.56-0.79-1.3-1.31-2.21-1.56c-0.59-0.16-1.68-0.23-3.27-0.23h-6.77V23.76z"/>
				<path class="st92" d="M415.19,24.75c0-4.4,1.18-7.84,3.54-10.33c2.36-2.49,5.41-3.73,9.14-3.73c2.44,0,4.65,0.58,6.61,1.75
					c1.96,1.17,3.46,2.8,4.49,4.89c1.03,2.09,1.54,4.46,1.54,7.11c0,2.69-0.54,5.09-1.63,7.21s-2.62,3.72-4.61,4.81
					c-1.99,1.09-4.13,1.63-6.43,1.63c-2.49,0-4.72-0.6-6.68-1.81c-1.96-1.2-3.45-2.85-4.46-4.93S415.19,27.08,415.19,24.75z
					 M418.8,24.81c0,3.19,0.86,5.71,2.57,7.54c1.72,1.84,3.87,2.76,6.46,2.76c2.64,0,4.81-0.93,6.51-2.78
					c1.7-1.85,2.56-4.49,2.56-7.89c0-2.16-0.36-4.04-1.09-5.65c-0.73-1.61-1.79-2.85-3.2-3.74c-1.4-0.88-2.98-1.33-4.72-1.33
					c-2.48,0-4.62,0.85-6.4,2.56C419.69,17.98,418.8,20.82,418.8,24.81z"/>
				<path class="st92" d="M444.07,37.65V11.17h3.59l13.91,20.79V11.17h3.36v26.49h-3.59l-13.91-20.81v20.81H444.07z"/>
			</g>
		</g>
	</g>
</g>
</svg>
