<?xml version="1.0" encoding="utf-8"?>
<!-- Generator: Adobe Illustrator 25.2.0, SVG Export Plug-In . SVG Version: 6.00 Build 0)  -->
<svg version="1.1" id="Capa_1" xmlns="http://www.w3.org/2000/svg" xmlns:xlink="http://www.w3.org/1999/xlink" x="0px" y="0px"
	 width="677.48px" height="200px" viewBox="0 0 677.48 200" style="enable-background:new 0 0 677.48 200;" xml:space="preserve">
<style type="text/css">
	.st0{fill:#FF5C60;}
	.st1{opacity:0.14;fill:#F15A24;enable-background:new    ;}
	.st2{opacity:0.67;fill:url(#SVGID_1_);enable-background:new    ;}
	.st3{opacity:0.67;fill:url(#SVGID_2_);enable-background:new    ;}
	.st4{opacity:0.67;fill:url(#SVGID_3_);enable-background:new    ;}
	.st5{opacity:0.93;enable-background:new    ;}
	.st6{clip-path:url(#SVGID_5_);fill:#FF8F45;}
	.st7{clip-path:url(#SVGID_5_);fill:#FF9044;}
	.st8{clip-path:url(#SVGID_5_);fill:#FF9144;}
	.st9{clip-path:url(#SVGID_5_);fill:#FF9243;}
	.st10{clip-path:url(#SVGID_5_);fill:#FF9342;}
	.st11{clip-path:url(#SVGID_5_);fill:#FF9442;}
	.st12{clip-path:url(#SVGID_5_);fill:#FF9541;}
	.st13{clip-path:url(#SVGID_5_);fill:#FF9640;}
	.st14{clip-path:url(#SVGID_5_);fill:#FF9740;}
	.st15{clip-path:url(#SVGID_5_);fill:#FF983F;}
	.st16{clip-path:url(#SVGID_5_);fill:#FF993E;}
	.st17{clip-path:url(#SVGID_5_);fill:#FF9A3E;}
	.st18{clip-path:url(#SVGID_5_);fill:#FF9C3D;}
	.st19{clip-path:url(#SVGID_5_);fill:#FF9D3D;}
	.st20{clip-path:url(#SVGID_5_);fill:#FF9E3C;}
	.st21{clip-path:url(#SVGID_5_);fill:#FF9F3B;}
	.st22{clip-path:url(#SVGID_5_);fill:#FFA03B;}
	.st23{clip-path:url(#SVGID_5_);fill:#FFA13A;}
	.st24{clip-path:url(#SVGID_5_);fill:#FFA239;}
	.st25{clip-path:url(#SVGID_5_);fill:#FFA339;}
	.st26{clip-path:url(#SVGID_5_);fill:#FFA438;}
	.st27{clip-path:url(#SVGID_5_);fill:#FFA537;}
	.st28{clip-path:url(#SVGID_5_);fill:#FFA637;}
	.st29{clip-path:url(#SVGID_5_);fill:#FFA736;}
	.st30{fill:#FFFFFF;}
	.st31{opacity:0.67;fill:url(#SVGID_10_);enable-background:new    ;}
	.st32{opacity:0.67;fill:url(#SVGID_11_);enable-background:new    ;}
	.st33{opacity:0.67;fill:url(#SVGID_12_);enable-background:new    ;}
	.st34{clip-path:url(#SVGID_14_);fill:#FF8F45;}
	.st35{clip-path:url(#SVGID_14_);fill:#FF9044;}
	.st36{clip-path:url(#SVGID_14_);fill:#FF9144;}
	.st37{clip-path:url(#SVGID_14_);fill:#FF9243;}
	.st38{clip-path:url(#SVGID_14_);fill:#FF9342;}
	.st39{clip-path:url(#SVGID_14_);fill:#FF9442;}
	.st40{clip-path:url(#SVGID_14_);fill:#FF9541;}
	.st41{clip-path:url(#SVGID_14_);fill:#FF9640;}
	.st42{clip-path:url(#SVGID_14_);fill:#FF9740;}
	.st43{clip-path:url(#SVGID_14_);fill:#FF983F;}
	.st44{clip-path:url(#SVGID_14_);fill:#FF993E;}
	.st45{clip-path:url(#SVGID_14_);fill:#FF9A3E;}
	.st46{clip-path:url(#SVGID_14_);fill:#FF9C3D;}
	.st47{clip-path:url(#SVGID_14_);fill:#FF9D3D;}
	.st48{clip-path:url(#SVGID_14_);fill:#FF9E3C;}
	.st49{clip-path:url(#SVGID_14_);fill:#FF9F3B;}
	.st50{clip-path:url(#SVGID_14_);fill:#FFA03B;}
	.st51{clip-path:url(#SVGID_14_);fill:#FFA13A;}
	.st52{clip-path:url(#SVGID_14_);fill:#FFA239;}
	.st53{clip-path:url(#SVGID_14_);fill:#FFA339;}
	.st54{clip-path:url(#SVGID_14_);fill:#FFA438;}
	.st55{clip-path:url(#SVGID_14_);fill:#FFA537;}
	.st56{clip-path:url(#SVGID_14_);fill:#FFA637;}
	.st57{clip-path:url(#SVGID_14_);fill:#FFA736;}
	.st58{fill:#FF8F45;}
	.st59{opacity:0.14;fill:#F15A24;}
	.st60{fill:#FBFEFB;}
	.st61{fill:#E0E0E0;}
	.st62{fill:url(#SVGID_15_);}
	.st63{opacity:0.3;fill:#FFFFFF;}
	.st64{opacity:0.42;fill:#F15A24;}
	.st65{fill:#FFB654;}
	.st66{fill:url(#SVGID_16_);}
	.st67{fill:url(#SVGID_17_);}
	.st68{opacity:0.67;fill:url(#SVGID_18_);}
	.st69{opacity:0.67;fill:url(#SVGID_19_);}
	.st70{opacity:0.67;fill:url(#SVGID_20_);}
	.st71{fill:url(#SVGID_21_);}
	.st72{clip-path:url(#SVGID_23_);fill:#FF8F45;}
	.st73{opacity:0.3;clip-path:url(#SVGID_23_);fill:#CE471D;}
	.st74{fill:url(#SVGID_24_);}
	.st75{clip-path:url(#SVGID_26_);fill:#FF8F45;}
	.st76{opacity:0.3;clip-path:url(#SVGID_26_);fill:#CE471D;}
	.st77{opacity:0.4;clip-path:url(#SVGID_28_);}
	.st78{fill:#E96F33;}
	.st79{fill:url(#SVGID_29_);}
	.st80{fill:url(#SVGID_30_);}
	.st81{fill:url(#SVGID_31_);}
	.st82{fill:url(#SVGID_32_);}
	.st83{opacity:0.47;fill:#F97E48;enable-background:new    ;}
	.st84{fill:url(#SVGID_33_);}
	.st85{opacity:0.42;fill:#F15A24;enable-background:new    ;}
	.st86{fill:#FFC85E;}
	.st87{fill:#FF9F4A;}
	.st88{opacity:0.67;fill:url(#SVGID_34_);enable-background:new    ;}
	.st89{opacity:0.67;fill:url(#SVGID_35_);enable-background:new    ;}
	.st90{opacity:0.67;fill:url(#SVGID_36_);enable-background:new    ;}
	.st91{enable-background:new    ;}
	.st92{fill:#444444;}
</style>
<g>
	<g>
		<g>
			<g class="st91">
				<path class="st92" d="M235.23,149.51h-16.29l-6.48-16.85h-29.65l-6.12,16.85h-15.89l28.89-74.18h15.84L235.23,149.51z
					 M207.65,120.16l-10.22-27.53l-10.02,27.53H207.65z"/>
				<path class="st92" d="M242.67,95.77h13.26v7.89c1.72-2.7,4.05-4.89,6.98-6.58c2.93-1.69,6.19-2.53,9.77-2.53
					c6.24,0,11.54,2.45,15.89,7.34c4.35,4.89,6.53,11.71,6.53,20.44c0,8.97-2.19,15.95-6.58,20.92c-4.39,4.98-9.7,7.46-15.94,7.46
					c-2.97,0-5.66-0.59-8.07-1.77s-4.95-3.2-7.62-6.07v27.07h-14.22V95.77z M256.74,121.73c0,6.04,1.2,10.5,3.59,13.38
					s5.31,4.33,8.75,4.33c3.31,0,6.05-1.32,8.25-3.97c2.19-2.65,3.29-6.99,3.29-13.03c0-5.63-1.13-9.82-3.39-12.55
					c-2.26-2.73-5.06-4.1-8.4-4.1c-3.48,0-6.36,1.34-8.65,4.02C257.88,112.49,256.74,116.47,256.74,121.73z"/>
				<path class="st92" d="M305.98,95.77h13.26v7.89c1.72-2.7,4.05-4.89,6.98-6.58c2.93-1.69,6.19-2.53,9.77-2.53
					c6.24,0,11.54,2.45,15.89,7.34c4.35,4.89,6.53,11.71,6.53,20.44c0,8.97-2.19,15.95-6.58,20.92c-4.39,4.98-9.7,7.46-15.94,7.46
					c-2.97,0-5.66-0.59-8.07-1.77s-4.95-3.2-7.62-6.07v27.07h-14.22V95.77z M320.04,121.73c0,6.04,1.2,10.5,3.59,13.38
					s5.31,4.33,8.75,4.33c3.31,0,6.05-1.32,8.25-3.97c2.19-2.65,3.29-6.99,3.29-13.03c0-5.63-1.13-9.82-3.39-12.55
					c-2.26-2.73-5.06-4.1-8.4-4.1c-3.48,0-6.36,1.34-8.65,4.02C321.19,112.49,320.04,116.47,320.04,121.73z"/>
				<path class="st92" d="M394.78,125.37l14.57-1.42c0.88,4.89,2.66,8.48,5.34,10.78c2.68,2.29,6.3,3.44,10.85,3.44
					c4.82,0,8.46-1.02,10.91-3.06c2.45-2.04,3.67-4.43,3.67-7.16c0-1.75-0.51-3.25-1.54-4.48s-2.83-2.3-5.39-3.21
					c-1.75-0.61-5.75-1.69-11.99-3.24c-8.03-1.99-13.66-4.44-16.9-7.34c-4.55-4.08-6.83-9.06-6.83-14.93c0-3.78,1.07-7.31,3.21-10.6
					c2.14-3.29,5.23-5.79,9.26-7.51c4.03-1.72,8.9-2.58,14.6-2.58c9.31,0,16.32,2.04,21.03,6.12c4.71,4.08,7.18,9.53,7.41,16.34
					L438,97.19c-0.64-3.81-2.02-6.55-4.12-8.22s-5.27-2.5-9.49-2.5c-4.35,0-7.76,0.89-10.22,2.68c-1.59,1.15-2.38,2.68-2.38,4.6
					c0,1.75,0.74,3.26,2.23,4.5c1.89,1.59,6.48,3.24,13.76,4.96c7.29,1.72,12.68,3.5,16.17,5.34s6.22,4.35,8.2,7.54
					c1.97,3.19,2.96,7.13,2.96,11.82c0,4.25-1.18,8.23-3.54,11.94s-5.7,6.47-10.02,8.27c-4.32,1.8-9.7,2.71-16.14,2.71
					c-9.38,0-16.58-2.17-21.61-6.5C398.76,139.99,395.76,133.67,394.78,125.37z"/>
				<path class="st92" d="M492.24,95.77v11.33h-9.72v21.66c0,4.39,0.09,6.94,0.28,7.67c0.19,0.73,0.61,1.32,1.27,1.8
					c0.66,0.47,1.46,0.71,2.4,0.71c1.32,0,3.22-0.46,5.72-1.37l1.21,11.03c-3.31,1.42-7.05,2.13-11.23,2.13
					c-2.56,0-4.88-0.43-6.93-1.29s-3.57-1.97-4.53-3.34c-0.96-1.37-1.63-3.21-2-5.54c-0.3-1.65-0.46-4.99-0.46-10.02V107.1h-6.53
					V95.77h6.53V85.09l14.27-8.3v18.98H492.24z"/>
				<path class="st92" d="M498.82,121.88c0-4.72,1.16-9.29,3.49-13.71c2.33-4.42,5.63-7.79,9.89-10.12
					c4.27-2.33,9.03-3.49,14.29-3.49c8.13,0,14.79,2.64,19.99,7.92s7.79,11.95,7.79,20.01c0,8.13-2.62,14.87-7.87,20.22
					c-5.25,5.35-11.85,8.02-19.81,8.02c-4.93,0-9.62-1.11-14.09-3.34c-4.47-2.23-7.87-5.49-10.2-9.79
					C499.99,133.29,498.82,128.05,498.82,121.88z M513.4,122.64c0,5.33,1.26,9.41,3.79,12.25s5.65,4.25,9.36,4.25
					s6.82-1.42,9.34-4.25c2.51-2.83,3.77-6.95,3.77-12.35c0-5.26-1.26-9.31-3.77-12.14c-2.51-2.83-5.63-4.25-9.34-4.25
					s-6.83,1.42-9.36,4.25S513.4,117.31,513.4,122.64z"/>
				<path class="st92" d="M579.03,149.51h-14.22V95.77h13.21v7.64c2.26-3.61,4.29-5.99,6.1-7.13c1.8-1.15,3.85-1.72,6.15-1.72
					c3.24,0,6.36,0.89,9.36,2.68l-4.4,12.4c-2.4-1.55-4.62-2.33-6.68-2.33c-1.99,0-3.68,0.55-5.06,1.64
					c-1.38,1.1-2.47,3.08-3.26,5.95c-0.79,2.87-1.19,8.87-1.19,18.01V149.51z"/>
				<path class="st92" d="M636.87,132.41l14.17,2.38c-1.82,5.2-4.7,9.15-8.63,11.87c-3.93,2.72-8.85,4.07-14.75,4.07
					c-9.34,0-16.26-3.05-20.75-9.16c-3.54-4.89-5.31-11.07-5.31-18.52c0-8.91,2.33-15.88,6.98-20.92
					c4.66-5.04,10.54-7.57,17.66-7.57c8,0,14.3,2.64,18.92,7.92s6.83,13.37,6.63,24.26h-35.62c0.1,4.22,1.25,7.5,3.44,9.84
					s4.93,3.52,8.2,3.52c2.23,0,4.1-0.61,5.62-1.82C634.94,137.06,636.09,135.11,636.87,132.41z M637.68,118.04
					c-0.1-4.12-1.16-7.24-3.19-9.39c-2.02-2.14-4.49-3.21-7.39-3.21c-3.1,0-5.67,1.13-7.69,3.39c-2.02,2.26-3.02,5.33-2.99,9.21
					H637.68z"/>
			</g>
			<g>
				<g class="st91">
					<path class="st92" d="M165.58,57.35V13.08h15.25c3.44,0,6.07,0.21,7.88,0.63c2.54,0.58,4.7,1.64,6.49,3.17
						c2.33,1.97,4.08,4.5,5.24,7.56c1.16,3.07,1.74,6.58,1.74,10.52c0,3.36-0.39,6.34-1.18,8.94s-1.79,4.75-3.02,6.45
						c-1.23,1.7-2.57,3.04-4.03,4.02c-1.46,0.98-3.22,1.72-5.29,2.22s-4.43,0.75-7.11,0.75H165.58z M171.44,52.12h9.45
						c2.92,0,5.21-0.27,6.87-0.82c1.66-0.54,2.98-1.31,3.97-2.29c1.39-1.39,2.47-3.26,3.25-5.6c0.77-2.35,1.16-5.19,1.16-8.53
						c0-4.63-0.76-8.19-2.28-10.67c-1.52-2.49-3.37-4.15-5.54-5c-1.57-0.6-4.1-0.91-7.58-0.91h-9.3V52.12z"/>
					<path class="st92" d="M211.56,19.33v-6.25h5.44v6.25H211.56z M211.56,57.35V25.28h5.44v32.07H211.56z"/>
					<path class="st92" d="M225.07,47.77l5.38-0.85c0.3,2.15,1.14,3.8,2.52,4.95s3.31,1.72,5.78,1.72c2.5,0,4.35-0.51,5.56-1.53
						s1.81-2.21,1.81-3.58c0-1.23-0.53-2.19-1.6-2.9c-0.75-0.48-2.6-1.1-5.56-1.84c-3.99-1.01-6.75-1.88-8.29-2.61
						c-1.54-0.74-2.71-1.75-3.5-3.05c-0.79-1.3-1.19-2.73-1.19-4.3c0-1.43,0.33-2.75,0.98-3.97c0.65-1.22,1.54-2.23,2.67-3.04
						c0.85-0.62,2-1.15,3.46-1.58c1.46-0.43,3.02-0.65,4.7-0.65c2.52,0,4.73,0.36,6.63,1.09c1.9,0.73,3.31,1.71,4.21,2.94
						s1.53,2.89,1.87,4.97l-5.31,0.72c-0.24-1.65-0.94-2.94-2.1-3.87c-1.16-0.93-2.79-1.39-4.91-1.39c-2.5,0-4.28,0.41-5.34,1.24
						c-1.07,0.83-1.6,1.79-1.6,2.9c0,0.71,0.22,1.34,0.67,1.9c0.44,0.58,1.14,1.07,2.08,1.45c0.54,0.2,2.14,0.66,4.8,1.39
						c3.84,1.03,6.53,1.87,8.05,2.52c1.52,0.66,2.71,1.61,3.58,2.85c0.87,1.25,1.3,2.8,1.3,4.65c0,1.81-0.53,3.52-1.58,5.12
						c-1.06,1.6-2.58,2.84-4.58,3.71s-4.25,1.31-6.76,1.31c-4.17,0-7.34-0.87-9.53-2.6C227.07,53.74,225.68,51.18,225.07,47.77z"/>
					<path class="st92" d="M260.15,69.64V25.28h4.95v4.17c1.17-1.63,2.49-2.85,3.96-3.67c1.47-0.82,3.25-1.22,5.35-1.22
						c2.74,0,5.15,0.71,7.25,2.11c2.09,1.41,3.67,3.4,4.74,5.96c1.07,2.57,1.6,5.38,1.6,8.44c0,3.28-0.59,6.24-1.77,8.86
						s-2.89,4.64-5.13,6.04c-2.25,1.4-4.61,2.1-7.08,2.1c-1.81,0-3.44-0.38-4.88-1.15c-1.44-0.76-2.62-1.73-3.55-2.9v15.61H260.15z
						 M265.07,41.49c0,4.13,0.83,7.18,2.51,9.15c1.67,1.97,3.69,2.96,6.07,2.96c2.42,0,4.48-1.02,6.21-3.07
						c1.72-2.04,2.58-5.21,2.58-9.5c0-4.09-0.84-7.15-2.52-9.18c-1.68-2.03-3.69-3.05-6.02-3.05c-2.32,0-4.36,1.08-6.15,3.25
						C265.96,34.22,265.07,37.37,265.07,41.49z"/>
					<path class="st92" d="M294.5,41.31c0-5.94,1.65-10.34,4.95-13.2c2.76-2.38,6.12-3.56,10.09-3.56c4.41,0,8.01,1.45,10.81,4.33
						c2.8,2.89,4.2,6.88,4.2,11.97c0,4.13-0.62,7.37-1.86,9.74c-1.24,2.37-3.04,4.2-5.41,5.51s-4.95,1.96-7.75,1.96
						c-4.49,0-8.12-1.44-10.89-4.32C295.88,50.87,294.5,46.73,294.5,41.31z M300.08,41.31c0,4.11,0.9,7.18,2.69,9.22
						c1.79,2.04,4.05,3.07,6.76,3.07c2.7,0,4.94-1.03,6.73-3.08c1.79-2.05,2.69-5.18,2.69-9.39c0-3.97-0.9-6.97-2.7-9.01
						c-1.8-2.04-4.04-3.06-6.72-3.06c-2.72,0-4.97,1.02-6.76,3.05S300.08,37.2,300.08,41.31z"/>
					<path class="st92" d="M332.89,57.35V25.28h4.89v4.56c2.36-3.52,5.76-5.29,10.21-5.29c1.93,0,3.71,0.35,5.33,1.04
						c1.62,0.69,2.83,1.61,3.64,2.73c0.8,1.13,1.37,2.47,1.69,4.02c0.2,1.01,0.3,2.77,0.3,5.28v19.72h-5.43V37.84
						c0-2.21-0.21-3.87-0.63-4.97c-0.42-1.1-1.17-1.97-2.25-2.63c-1.08-0.65-2.34-0.98-3.79-0.98c-2.32,0-4.31,0.74-5.99,2.2
						c-1.68,1.47-2.52,4.26-2.52,8.37v17.51H332.89z"/>
					<path class="st92" d="M369.3,19.33v-6.25h5.44v6.25H369.3z M369.3,57.35V25.28h5.44v32.07H369.3z"/>
					<path class="st92" d="M390,57.35h-5.04V13.08h5.44v15.79c2.29-2.88,5.22-4.32,8.79-4.32c1.97,0,3.84,0.4,5.6,1.19
						c1.76,0.79,3.21,1.91,4.35,3.35c1.14,1.44,2.03,3.18,2.67,5.21c0.64,2.03,0.97,4.21,0.97,6.52c0,5.5-1.36,9.74-4.08,12.74
						s-5.98,4.5-9.78,4.5c-3.78,0-6.75-1.58-8.91-4.74V57.35z M389.94,41.07c0,3.85,0.52,6.62,1.57,8.33c1.71,2.8,4.03,4.2,6.95,4.2
						c2.38,0,4.43-1.03,6.16-3.1c1.73-2.06,2.6-5.14,2.6-9.22c0-4.19-0.83-7.28-2.49-9.27s-3.67-2.99-6.02-2.99
						c-2.38,0-4.43,1.03-6.16,3.09S389.94,37.16,389.94,41.07z"/>
					<path class="st92" d="M421.24,57.35V13.08h5.44v44.27H421.24z"/>
					<path class="st92" d="M459.03,47.02l5.62,0.69c-0.89,3.28-2.53,5.83-4.92,7.64c-2.4,1.81-5.46,2.72-9.18,2.72
						c-4.69,0-8.41-1.44-11.16-4.33s-4.12-6.94-4.12-12.15c0-5.39,1.39-9.58,4.17-12.56c2.78-2.98,6.38-4.47,10.81-4.47
						c4.29,0,7.79,1.46,10.51,4.38s4.08,7.03,4.08,12.32c0,0.32-0.01,0.81-0.03,1.45h-23.92c0.2,3.52,1.2,6.22,2.99,8.09
						s4.03,2.81,6.7,2.81c1.99,0,3.69-0.52,5.1-1.57S458.2,49.31,459.03,47.02z M441.18,38.23h17.91c-0.24-2.7-0.93-4.72-2.05-6.07
						c-1.73-2.09-3.98-3.14-6.73-3.14c-2.5,0-4.59,0.83-6.3,2.51S441.37,35.43,441.18,38.23z"/>
					<path class="st92" d="M514.56,47.02l5.62,0.69c-0.89,3.28-2.53,5.83-4.92,7.64c-2.4,1.81-5.46,2.72-9.18,2.72
						c-4.69,0-8.41-1.44-11.16-4.33s-4.12-6.94-4.12-12.15c0-5.39,1.39-9.58,4.17-12.56c2.78-2.98,6.38-4.47,10.81-4.47
						c4.29,0,7.79,1.46,10.51,4.38s4.08,7.03,4.08,12.32c0,0.32-0.01,0.81-0.03,1.45h-23.92c0.2,3.52,1.2,6.22,2.99,8.09
						s4.03,2.81,6.7,2.81c1.99,0,3.69-0.52,5.1-1.57S513.74,49.31,514.56,47.02z M496.72,38.23h17.91c-0.24-2.7-0.93-4.72-2.05-6.07
						c-1.73-2.09-3.98-3.14-6.73-3.14c-2.5,0-4.59,0.83-6.3,2.51S496.9,35.43,496.72,38.23z"/>
					<path class="st92" d="M528.98,57.35V25.28h4.89v4.56c2.36-3.52,5.76-5.29,10.21-5.29c1.93,0,3.71,0.35,5.33,1.04
						c1.62,0.69,2.83,1.61,3.64,2.73c0.8,1.13,1.37,2.47,1.69,4.02c0.2,1.01,0.3,2.77,0.3,5.28v19.72h-5.44V37.84
						c0-2.21-0.21-3.87-0.63-4.97c-0.42-1.1-1.17-1.97-2.25-2.63s-2.34-0.98-3.79-0.98c-2.31,0-4.31,0.74-5.99,2.2
						c-1.68,1.47-2.52,4.26-2.52,8.37v17.51H528.98z"/>
				</g>
			</g>
		</g>
		<path class="st92" d="M93.95,5.07h-59.5c-7.13,0-12.91,5.78-12.92,12.91c0,0,0,0,0,0v131.83c0,7.13,5.78,12.92,12.91,12.92h59.5
			c7.13,0,12.92-5.78,12.92-12.92V17.99C106.86,10.85,101.08,5.07,93.95,5.07z M64.19,153.25c-4.75,0-8.6-3.85-8.6-8.6
			c0-4.75,3.85-8.6,8.6-8.6s8.6,3.85,8.6,8.6S68.94,153.25,64.19,153.25L64.19,153.25z M96.72,131.86H31.67V34.62h65.05
			L96.72,131.86z"/>
	</g>
</g>
</svg>
