<svg id="Capa_1" data-name="Capa 1" xmlns="http://www.w3.org/2000/svg" viewBox="0 0 800 250"><defs><style>.cls-1,.cls-2,.cls-3{fill:#fff;}.cls-2{font-size:105.99px;font-family:Arial-BoldMT, Arial;font-weight:700;letter-spacing:-0.025em;}.cls-3{font-size:51.909px;font-family:ArialMT, Arial;letter-spacing:-0.025em;}</style></defs><title>Mesa de trabajo 1</title><path class="cls-1" d="M107.814,114.24l21.421-20.207L33.991,41.668a9.937,9.937,0,0,0-4.357-1.177Z"/><path class="cls-1" d="M20.276,45.658A9.989,9.989,0,0,0,19,50.533v141.41a9.989,9.989,0,0,0,1.276,4.875l80.12-75.579Z"/><path class="cls-1" d="M162.592,112.372,138.609,99.186l-23.376,22.052,23.376,22.051L162.592,130.1A10.117,10.117,0,0,0,162.592,112.372Z"/><path class="cls-1" d="M107.814,128.236l-78.18,73.749a9.931,9.931,0,0,0,4.357-1.177l95.244-52.365Z"/><text class="cls-2" transform="translate(204.664 173.963)">Google Play</text><text class="cls-3" transform="translate(204.665 73.158)">DISPONIBLE EN</text></svg>