<svg id="Capa_1" data-name="Capa 1" xmlns="http://www.w3.org/2000/svg" viewBox="0 0 800 250"><defs><style>.cls-1,.cls-2,.cls-3{fill:#fff;}.cls-2{font-size:103.635px;font-family:Arial-BoldMT, Arial;font-weight:700;letter-spacing:-0.025em;}.cls-3{font-size:50.755px;font-family:ArialMT, Arial;letter-spacing:-0.099em;}.cls-4{letter-spacing:-0.025em;}</style></defs><title>GooglePlay_English</title><path class="cls-1" d="M105.841,116.454,126.785,96.7l-93.128-51.2a9.716,9.716,0,0,0-4.26-1.151Z"/><path class="cls-1" d="M20.248,49.4A9.767,9.767,0,0,0,19,54.162V192.43a9.767,9.767,0,0,0,1.248,4.766l78.339-73.9Z"/><path class="cls-1" d="M159.4,114.628l-23.451-12.893L113.094,123.3l22.856,21.561L159.4,131.964A9.893,9.893,0,0,0,159.4,114.628Z"/><path class="cls-1" d="M105.841,130.139,29.4,202.249a9.711,9.711,0,0,0,4.26-1.151l93.128-51.2Z"/><text class="cls-2" transform="translate(200.538 174.849)">Google Play</text><text class="cls-3" transform="translate(200.539 76.284)">AV<tspan class="cls-4" x="57.635" y="0">AILABLE ON</tspan></text></svg>