<?xml version="1.0" encoding="utf-8"?>
<!-- Generator: Adobe Illustrator 25.2.0, SVG Export Plug-In . SVG Version: 6.00 Build 0)  -->
<svg version="1.1" id="Layer_1" xmlns="http://www.w3.org/2000/svg" xmlns:xlink="http://www.w3.org/1999/xlink" x="0px" y="0px"
	 width="512px" height="512px" viewBox="0 0 512 512" style="enable-background:new 0 0 512 512;" xml:space="preserve">
<style type="text/css">
	.st0{fill:#464647;}
</style>
<g>
	<path class="st0" d="M301.9,163.2h-91.8c-43.4,0.1-72.7,30.5-72.7,75.8v82.2c0,23.3,15.7,42.2,35.1,42.2c7.2,0,14.1-2.6,20-7.5
		l0.6-0.5v107.9c0,23.2,15.8,42.2,35.1,42.2c10.8,0,20.8-5.9,27.5-16.1l0.3-0.4l0.3,0.4c6.7,10.2,16.7,16.1,27.5,16.1
		c17.6,0,32.6-15.9,34.8-37c0.1-0.5,0.1-1,0-1.5l0-0.1l0-0.1c0.2-0.7,0.2-1.4,0.2-2.1V355.5l0.6,0.5c5.9,4.9,12.8,7.5,19.9,7.5
		c19.3,0,35.1-19,35.1-42.2v-82.2C374.5,193.8,345.3,163.3,301.9,163.2z M318.8,266c-0.7-4-3.7-6.9-7.1-6.9c-4,0-7.3,3.8-7.3,8.6
		l0,197c0,0.1,0,0.2,0,0.3l0,0.4l0,0.1c-0.1,0.3-0.1,0.7-0.2,1.1c-0.6,5.5-2.7,10.7-6,14.7c-3.8,4.6-9.1,7.2-14.4,7.2
		c-11.3,0-20.6-11.3-20.5-25.1V361.7c0-4.7-3.3-8.6-7.3-8.6s-7.3,3.8-7.3,8.6v101.6c0,13.8-9.2,25-20.5,25c-5.5,0-10.6-2.6-14.5-7.2
		c-3.9-4.7-6.1-11-6.1-17.8V267.7c0-4.7-3.3-8.6-7.3-8.6c-4,0-7.3,3.8-7.3,8.6v53.6c0,13.8-9.2,25-20.6,25
		c-11.3,0-20.6-11.2-20.6-25v-82.2c0.1-35.6,22.9-58.6,58.2-58.7h91.8c35.3,0.1,58.1,23.1,58.2,58.7v82.2c0,13.8-9.2,25-20.5,25
		c-11.2,0-20.4-11.1-20.6-24.6v-53.9C318.9,267.2,318.9,266.6,318.8,266z"/>
	<path class="st0" d="M256,138.1L256,138.1c36.2,0,65.7-29.6,65.8-65.8c0-36.3-29.5-65.8-65.8-65.8c-36.3,0-65.8,29.5-65.8,65.8
		S219.7,138.1,256,138.1z M256,21.7c27.9,0,50.6,22.7,50.6,50.6c0,27.9-22.7,50.6-50.6,50.6s-50.6-22.7-50.6-50.6
		C205.4,44.4,228.1,21.7,256,21.7z"/>
</g>
</svg>
