<?xml version="1.0" encoding="utf-8"?>
<!-- Generator: Adobe Illustrator 25.2.0, SVG Export Plug-In . SVG Version: 6.00 Build 0)  -->
<svg version="1.1" id="Layer_1" xmlns="http://www.w3.org/2000/svg" xmlns:xlink="http://www.w3.org/1999/xlink" x="0px" y="0px"
	 width="512px" height="512px" viewBox="0 0 512 512" style="enable-background:new 0 0 512 512;" xml:space="preserve">
<style type="text/css">
	.st0{fill:#464647;}
</style>
<g>
	<path class="st0" d="M256,78.2c-60.4,0-109.6,49.2-109.6,109.6v136.4c0,60.4,49.2,109.6,109.6,109.6c18.1,0,36-4.5,51.8-13
		c3.2-1.7,4.4-5.7,2.7-8.9c-1.7-3.2-5.7-4.4-8.9-2.7c-13.9,7.5-29.6,11.4-45.5,11.4c-3.3,0-6.7-0.2-10-0.5l-0.3,0l0-0.3
		c0.7-43.7,18.2-84.8,49.1-115.8l57.5-57.5v77.8c0,15.3-3.5,30-10.4,43.5c-0.8,1.6-0.9,3.4-0.4,5c0.5,1.7,1.7,3,3.3,3.8
		c1.6,0.8,3.4,0.9,5,0.4c1.7-0.5,3-1.7,3.8-3.3c7.8-15.4,11.8-32.1,11.8-49.5V187.8C365.6,127.4,316.4,78.2,256,78.2z M255.6,333.2
		l0.4,0.1l-0.2,0.4c-3.6,6.3-6.8,12.9-9.5,19.6c-2.9,6.9-5.3,14-7.3,21.1l-0.1,0.4l-0.4-0.2c-23.4-10.7-43.2-27.9-57.3-49.8
		c-14.2-22-21.6-47.2-21.6-73v-2.4l0.7,1.5c5.2,11.2,11.6,21.7,19.3,31.3C198.9,306.5,225.9,324.6,255.6,333.2z M235.6,387.8
		l0.3,0.1l-0.1,0.3c-1.8,9.5-2.9,19.3-3.2,29l0,0.5l-0.4-0.1c-42.7-10.9-72.5-49.3-72.5-93.4v-11l0.7,1.5c3.6,7.6,7.8,15,12.7,21.9
		C188.8,359.2,210.4,376.9,235.6,387.8z M256,250.8c-34.7,0-63-28.3-63-63s28.3-63,63-63c4.9,0,8.8,4,8.8,8.8c0,4.9-4,8.8-8.8,8.8
		c-3.6,0-6.6,3-6.6,6.6c0,3.6,3,6.6,6.6,6.6c12.1,0,22-9.9,22-22c0-1.5-0.2-3-0.4-4.4l-0.1-0.6l0.6,0.2c24.5,9.2,40.9,32.9,40.9,59
		C319,222.5,290.7,250.8,256,250.8z M263.4,321.4l-0.1,0.2l-0.3-0.1c-31.7-8.2-59.4-27.3-78.2-53.9l-0.2-0.2l0.2-0.2
		c6.2-8.2,13.6-15.2,22.1-20.9l0.2-0.1l0.2,0.2C221,257.7,238.3,264,256,264c17.7,0,35-6.2,48.6-17.6l0.2-0.2l0.2,0.2
		c5.6,3.7,10.7,8,15.3,12.9l0.2,0.3l-35.1,35.1C277.3,302.8,269.9,311.8,263.4,321.4z M314.6,236.5L314.6,236.5
		c11.4-13.6,17.6-30.9,17.6-48.7c0-42-34.2-76.2-76.2-76.2s-76.2,34.2-76.2,76.2c0,17.7,6.3,35,17.6,48.7l0.3,0.3l-0.3,0.2
		c-7.3,5.2-14,11.3-19.8,18.2l-0.3,0.4l-0.3-0.5c-11.4-20.5-17.4-43.7-17.4-67.4c0-53.2,43.2-96.4,96.4-96.4s96.4,43.2,96.4,96.4v40
		l-0.1,0.1c-0.2,0.1-0.3,0.3-0.4,0.4l-21.9,21.9l-0.3-0.3c-4.6-4.8-9.6-9.1-15-12.9l-0.3-0.2L314.6,236.5z"/>
	<path class="st0" d="M329.7,389.6c-1.7,0-3.4,0.7-4.7,1.9c-1.2,1.2-1.9,2.9-1.9,4.7c0,1.7,0.7,3.4,1.9,4.7c1.2,1.2,2.9,1.9,4.7,1.9
		c1.7,0,3.4-0.7,4.7-1.9c1.2-1.2,1.9-2.9,1.9-4.7c0-1.7-0.7-3.4-1.9-4.7C333.1,390.3,331.4,389.6,329.7,389.6z"/>
</g>
</svg>
