<?xml version="1.0" encoding="utf-8"?>
<!-- Generator: Adobe Illustrator 25.2.0, SVG Export Plug-In . SVG Version: 6.00 Build 0)  -->
<svg version="1.1" id="Layer_1" xmlns="http://www.w3.org/2000/svg" xmlns:xlink="http://www.w3.org/1999/xlink" x="0px" y="0px"
	 width="512px" height="512px" viewBox="0 0 512 512" style="enable-background:new 0 0 512 512;" xml:space="preserve">
<style type="text/css">
	.st0{fill:#464647;}
	.st1{fill:#464648;}
	.st2{opacity:0.14;fill:#F15A24;}
	.st3{opacity:0.2;fill:#CD4927;}
	.st4{fill:#FF7B34;}
	.st5{opacity:0.6;fill:#CD4927;}
	.st6{opacity:0.4;fill:#CD4927;}
	.st7{fill:url(#SVGID_1_);}
	.st8{opacity:0.3;fill:#CD4927;}
	.st9{fill:url(#SVGID_2_);}
	.st10{fill:#FFFFFF;}
	.st11{fill:#FFC369;}
	.st12{opacity:0.5;}
	.st13{fill:#CD4927;}
	.st14{opacity:0.47;fill:#F97E48;}
	.st15{fill:url(#SVGID_3_);}
	.st16{opacity:0.1;fill:#F15A24;}
	.st17{fill:#FF8F45;}
	.st18{opacity:0.6;fill:#CE471D;}
	.st19{fill:#FFB654;}
	.st20{opacity:0.14;fill:#F15A24;enable-background:new    ;}
	.st21{opacity:0.47;fill:#F97E48;enable-background:new    ;}
	.st22{fill:url(#SVGID_4_);}
	.st23{fill:url(#SVGID_5_);}
	.st24{fill:none;}
</style>
<g>
	<path class="st1" d="M369.7,65.9h-36.3V25.9h3.8c6.9,0,12.5-5.6,12.5-12.4C349.6,6.6,344,1,337.2,1H174.8
		c-6.9,0-12.5,5.6-12.5,12.4c0,6.8,5.6,12.4,12.5,12.4h3.8v40.1h-36.3c-33.7,0-61.1,27.4-61.1,61.1v292.3
		c0,33.7,27.4,61.1,61.1,61.1h12v20c0,6.9,5.6,12.5,12.4,12.5s12.4-5.6,12.4-12.5v-20h153.8v20c0,6.9,5.6,12.5,12.4,12.5
		c6.9,0,12.5-5.6,12.5-12.5v-20h11.9c33.7,0,61.1-27.4,61.1-61.1V127.1C430.8,93.4,403.4,65.9,369.7,65.9z M308.5,25.9v40.1h-105
		V25.9H308.5z M405.9,127.1v292.3c0,20-16.3,36.3-36.3,36.3H142.3c-20,0-36.3-16.3-36.3-36.3V127.1c0-20,16.3-36.3,36.3-36.3h227.3
		C389.7,90.8,405.9,107.1,405.9,127.1z"/>
	<path class="st1" d="M256,139c-6.9,0-12.4,5.6-12.4,12.4V395c0,6.9,5.6,12.5,12.4,12.5s12.4-5.6,12.4-12.5V151.5
		C268.4,144.6,262.9,139,256,139z"/>
	<path class="st1" d="M337.2,139c-6.9,0-12.4,5.6-12.4,12.4V395c0,6.9,5.6,12.5,12.4,12.5c6.9,0,12.5-5.6,12.5-12.5V151.5
		C349.6,144.6,344,139,337.2,139z"/>
	<path class="st1" d="M174.8,139c-6.9,0-12.5,5.6-12.5,12.4V395c0,6.9,5.6,12.5,12.5,12.5c6.9,0,12.4-5.6,12.4-12.5V151.5
		C187.2,144.6,181.7,139,174.8,139z"/>
</g>
</svg>
