<?xml version="1.0" encoding="utf-8"?>
<!-- Generator: Adobe Illustrator 25.2.0, SVG Export Plug-In . SVG Version: 6.00 Build 0)  -->
<svg version="1.1" id="Layer_1" xmlns="http://www.w3.org/2000/svg" xmlns:xlink="http://www.w3.org/1999/xlink" x="0px" y="0px"
	 width="512px" height="512px" viewBox="0 0 512 512" style="enable-background:new 0 0 512 512;" xml:space="preserve">
<style type="text/css">
	.st0{fill:#464647;}
	.st1{fill:#464648;}
	.st2{opacity:0.14;fill:#F15A24;}
	.st3{opacity:0.2;fill:#CD4927;}
	.st4{fill:#FF7B34;}
	.st5{opacity:0.6;fill:#CD4927;}
	.st6{opacity:0.4;fill:#CD4927;}
	.st7{fill:url(#SVGID_1_);}
	.st8{opacity:0.3;fill:#CD4927;}
	.st9{fill:url(#SVGID_2_);}
	.st10{fill:#FFFFFF;}
	.st11{fill:#FFC369;}
	.st12{opacity:0.5;}
	.st13{fill:#CD4927;}
	.st14{opacity:0.47;fill:#F97E48;}
	.st15{fill:url(#SVGID_3_);}
	.st16{opacity:0.1;fill:#F15A24;}
	.st17{fill:#FF8F45;}
	.st18{opacity:0.6;fill:#CE471D;}
	.st19{fill:#FFB654;}
	.st20{opacity:0.14;fill:#F15A24;enable-background:new    ;}
	.st21{opacity:0.47;fill:#F97E48;enable-background:new    ;}
	.st22{fill:url(#SVGID_4_);}
	.st23{fill:url(#SVGID_5_);}
	.st24{fill:none;}
</style>
<path class="st1" d="M420.4,201.4h-95.3c-1.9-22.3-20.7-39.9-43.5-39.9h-51.1c-22.8,0-41.6,17.6-43.5,39.9H91.6
	c-24.1,0-43.7,19.6-43.7,43.7v191.5c-0.1,12.3,4.9,23.6,14,31.9c8.5,7.9,19.9,11.9,31.6,11.9c6.3,21.8,25.3,31.6,42,31.6
	c16.7,0,35.8-9.8,42-31.7h157c6.2,21.9,25.3,31.7,42,31.7c16.7,0,35.7-9.8,42-31.6c0.3,0,0.5,0,0.8,0c11.4,0,22.5-4.2,30.8-11.9
	c9-8.3,14-19.7,14-31.9V245.1C464.1,221,444.5,201.4,420.4,201.4z M210.6,201.4c1.8-9.3,10-16.4,19.8-16.4h51.1
	c9.8,0,18.1,7.1,19.8,16.4H210.6z M440.6,245.1v191.5c0,11.1-9,20.2-20.2,20.2h-12.2V248.6c5.1-5.2,8-12.2,8-19.4v-4.2h4.2
	C431.5,224.9,440.6,234,440.6,245.1z M392.7,229.1c0,2.3-1.9,4.2-4.2,4.2h-24c-2.3,0-4.2-1.9-4.2-4.2v-4.2h32.4V229.1z M384.7,256.8
	v199.9h-16.4V256.8H384.7z M392.9,480.3c-3.7,5.2-9.8,8.4-16.4,8.4c-6.6,0-12.6-3.2-16.4-8.4H392.9z M344.8,248.6v208.2H167.2V248.6
	c5.1-5.2,8-12.2,8-19.4v-4.2h161.6v4.2C336.8,236.4,339.7,243.4,344.8,248.6z M143.7,256.8v199.9h-16.4V256.8H143.7z M151.7,229.1
	c0,2.3-1.9,4.2-4.2,4.2h-23.9c-2.3,0-4.2-1.9-4.2-4.2v-4.2h32.3V229.1z M151.8,480.3c-3.7,5.2-9.8,8.4-16.3,8.4
	c-6.6,0-12.6-3.2-16.4-8.4H151.8z M103.8,248.6v208.2H91.6c-11.1,0-20.2-9-20.2-20.2V245.1c0-11.1,9-20.2,20.2-20.2h4.2v4.2
	C95.8,236.4,98.7,243.4,103.8,248.6z"/>
</svg>
