<?xml version="1.0" encoding="utf-8"?>
<!-- Generator: Adobe Illustrator 25.2.0, SVG Export Plug-In . SVG Version: 6.00 Build 0)  -->
<svg version="1.1" id="Layer_1" xmlns="http://www.w3.org/2000/svg" xmlns:xlink="http://www.w3.org/1999/xlink" x="0px" y="0px"
	 width="512px" height="512px" viewBox="0 0 512 512" style="enable-background:new 0 0 512 512;" xml:space="preserve">
<style type="text/css">
	.st0{fill:#464647;}
</style>
<g>
	<path class="st0" d="M307.3,479.8c-3.9,0-7.1-3.2-7.1-7.1V228.4c0-3.9,3.2-7.1,7.1-7.1c3.9,0,7.1,3.2,7.1,7.1v244.4
		C314.4,476.7,311.2,479.8,307.3,479.8z"/>
	<path class="st0" d="M281.6,504.5c-18.1,0-32.7-14.7-32.7-32.7V350.1c0-3.9,3.2-7.1,7.1-7.1s7.1,3.2,7.1,7.1v121.7
		c0,10.2,8.3,18.5,18.5,18.5c4.9,0,9.6-1.9,13.1-5.4c2.9-2.9,4.8-6.7,5.3-10.8c0.5-3.9,4-6.7,7.9-6.2c3.9,0.5,6.7,4,6.2,7.9
		C312,492.2,298.1,504.4,281.6,504.5z"/>
	<path class="st0" d="M332.9,351.9c-18.1,0-32.7-14.7-32.7-32.7v-90.9c0-3.9,3.2-7.1,7.1-7.1c3.9,0,7.1,3.2,7.1,7.1v90.9
		c0,10.2,8.3,18.5,18.5,18.5c10.2,0,18.5-8.3,18.5-18.5V206.5c-0.1-29.3-23.8-53.1-53.1-53.1h-84.5c-29.3,0.1-53.1,23.8-53.1,53.1
		v112.7c0,10.2,8.3,18.5,18.5,18.5s18.5-8.3,18.5-18.5v-90.9c0-3.9,3.2-7.1,7.1-7.1s7.1,3.2,7.1,7.1v90.9
		c0,18.1-14.7,32.7-32.7,32.7c-18.1,0-32.7-14.6-32.7-32.7V206.5c0.1-37.2,30.2-67.3,67.3-67.3h84.5c37.2,0.1,67.3,30.2,67.3,67.3
		v112.7C365.6,337.3,350.9,351.9,332.9,351.9L332.9,351.9z"/>
	<path class="st0" d="M230.4,504.5c-18.1,0-32.7-14.7-32.7-32.7V228.3c0-3.9,3.2-7.1,7.1-7.1s7.1,3.2,7.1,7.1v243.4
		c0,10.2,8.3,18.5,18.5,18.5c10.2,0,18.5-8.3,18.5-18.5V350c0-3.9,3.2-7.1,7.1-7.1c3.9,0,7.1,3.2,7.1,7.1v121.7
		C263.1,489.8,248.5,504.4,230.4,504.5L230.4,504.5z"/>
	<path class="st0" d="M256,122c-31.6,0-57.2-25.6-57.2-57.2S224.4,7.5,256,7.5s57.2,25.6,57.2,57.2C313.2,96.4,287.6,122,256,122z
		 M256,21.7c-23.8,0-43,19.3-43,43s19.3,43,43,43s43-19.3,43-43l0,0C299,41,279.8,21.8,256,21.7z"/>
</g>
</svg>
