<?xml version="1.0" encoding="utf-8"?>
<!-- Generator: Adobe Illustrator 25.2.0, SVG Export Plug-In . SVG Version: 6.00 Build 0)  -->
<svg version="1.1" id="Capa_1" xmlns="http://www.w3.org/2000/svg" xmlns:xlink="http://www.w3.org/1999/xlink" x="0px" y="0px"
	 width="720px" height="150px" viewBox="0 0 720 150" style="enable-background:new 0 0 720 150;" xml:space="preserve">
<style type="text/css">
	.st0{fill:#FF5C60;}
	.st1{opacity:0.14;fill:#F15A24;enable-background:new    ;}
	.st2{opacity:0.67;fill:url(#SVGID_1_);enable-background:new    ;}
	.st3{opacity:0.67;fill:url(#SVGID_2_);enable-background:new    ;}
	.st4{opacity:0.67;fill:url(#SVGID_3_);enable-background:new    ;}
	.st5{opacity:0.93;enable-background:new    ;}
	.st6{clip-path:url(#SVGID_5_);fill:#FF8F45;}
	.st7{clip-path:url(#SVGID_5_);fill:#FF9044;}
	.st8{clip-path:url(#SVGID_5_);fill:#FF9144;}
	.st9{clip-path:url(#SVGID_5_);fill:#FF9243;}
	.st10{clip-path:url(#SVGID_5_);fill:#FF9342;}
	.st11{clip-path:url(#SVGID_5_);fill:#FF9442;}
	.st12{clip-path:url(#SVGID_5_);fill:#FF9541;}
	.st13{clip-path:url(#SVGID_5_);fill:#FF9640;}
	.st14{clip-path:url(#SVGID_5_);fill:#FF9740;}
	.st15{clip-path:url(#SVGID_5_);fill:#FF983F;}
	.st16{clip-path:url(#SVGID_5_);fill:#FF993E;}
	.st17{clip-path:url(#SVGID_5_);fill:#FF9A3E;}
	.st18{clip-path:url(#SVGID_5_);fill:#FF9C3D;}
	.st19{clip-path:url(#SVGID_5_);fill:#FF9D3D;}
	.st20{clip-path:url(#SVGID_5_);fill:#FF9E3C;}
	.st21{clip-path:url(#SVGID_5_);fill:#FF9F3B;}
	.st22{clip-path:url(#SVGID_5_);fill:#FFA03B;}
	.st23{clip-path:url(#SVGID_5_);fill:#FFA13A;}
	.st24{clip-path:url(#SVGID_5_);fill:#FFA239;}
	.st25{clip-path:url(#SVGID_5_);fill:#FFA339;}
	.st26{clip-path:url(#SVGID_5_);fill:#FFA438;}
	.st27{clip-path:url(#SVGID_5_);fill:#FFA537;}
	.st28{clip-path:url(#SVGID_5_);fill:#FFA637;}
	.st29{clip-path:url(#SVGID_5_);fill:#FFA736;}
	.st30{fill:#FFFFFF;}
	.st31{opacity:0.67;fill:url(#SVGID_10_);enable-background:new    ;}
	.st32{opacity:0.67;fill:url(#SVGID_11_);enable-background:new    ;}
	.st33{opacity:0.67;fill:url(#SVGID_12_);enable-background:new    ;}
	.st34{clip-path:url(#SVGID_14_);fill:#FF8F45;}
	.st35{clip-path:url(#SVGID_14_);fill:#FF9044;}
	.st36{clip-path:url(#SVGID_14_);fill:#FF9144;}
	.st37{clip-path:url(#SVGID_14_);fill:#FF9243;}
	.st38{clip-path:url(#SVGID_14_);fill:#FF9342;}
	.st39{clip-path:url(#SVGID_14_);fill:#FF9442;}
	.st40{clip-path:url(#SVGID_14_);fill:#FF9541;}
	.st41{clip-path:url(#SVGID_14_);fill:#FF9640;}
	.st42{clip-path:url(#SVGID_14_);fill:#FF9740;}
	.st43{clip-path:url(#SVGID_14_);fill:#FF983F;}
	.st44{clip-path:url(#SVGID_14_);fill:#FF993E;}
	.st45{clip-path:url(#SVGID_14_);fill:#FF9A3E;}
	.st46{clip-path:url(#SVGID_14_);fill:#FF9C3D;}
	.st47{clip-path:url(#SVGID_14_);fill:#FF9D3D;}
	.st48{clip-path:url(#SVGID_14_);fill:#FF9E3C;}
	.st49{clip-path:url(#SVGID_14_);fill:#FF9F3B;}
	.st50{clip-path:url(#SVGID_14_);fill:#FFA03B;}
	.st51{clip-path:url(#SVGID_14_);fill:#FFA13A;}
	.st52{clip-path:url(#SVGID_14_);fill:#FFA239;}
	.st53{clip-path:url(#SVGID_14_);fill:#FFA339;}
	.st54{clip-path:url(#SVGID_14_);fill:#FFA438;}
	.st55{clip-path:url(#SVGID_14_);fill:#FFA537;}
	.st56{clip-path:url(#SVGID_14_);fill:#FFA637;}
	.st57{clip-path:url(#SVGID_14_);fill:#FFA736;}
	.st58{fill:#FF8F45;}
	.st59{opacity:0.14;fill:#F15A24;}
	.st60{fill:#FBFEFB;}
	.st61{fill:#E0E0E0;}
	.st62{fill:url(#SVGID_15_);}
	.st63{opacity:0.3;fill:#FFFFFF;}
	.st64{opacity:0.42;fill:#F15A24;}
	.st65{fill:#FFB654;}
	.st66{fill:url(#SVGID_16_);}
	.st67{fill:url(#SVGID_17_);}
	.st68{opacity:0.67;fill:url(#SVGID_18_);}
	.st69{opacity:0.67;fill:url(#SVGID_19_);}
	.st70{opacity:0.67;fill:url(#SVGID_20_);}
	.st71{fill:url(#SVGID_21_);}
	.st72{clip-path:url(#SVGID_23_);fill:#FF8F45;}
	.st73{opacity:0.3;clip-path:url(#SVGID_23_);fill:#CE471D;}
	.st74{fill:url(#SVGID_24_);}
	.st75{clip-path:url(#SVGID_26_);fill:#FF8F45;}
	.st76{opacity:0.3;clip-path:url(#SVGID_26_);fill:#CE471D;}
	.st77{opacity:0.4;clip-path:url(#SVGID_28_);}
	.st78{fill:#E96F33;}
	.st79{fill:url(#SVGID_29_);}
	.st80{fill:url(#SVGID_30_);}
	.st81{fill:url(#SVGID_31_);}
	.st82{fill:url(#SVGID_32_);}
	.st83{opacity:0.47;fill:#F97E48;enable-background:new    ;}
	.st84{fill:url(#SVGID_33_);}
	.st85{opacity:0.42;fill:#F15A24;enable-background:new    ;}
	.st86{fill:#FFC85E;}
	.st87{fill:#FF9F4A;}
	.st88{opacity:0.67;fill:url(#SVGID_34_);enable-background:new    ;}
	.st89{opacity:0.67;fill:url(#SVGID_35_);enable-background:new    ;}
	.st90{opacity:0.67;fill:url(#SVGID_36_);enable-background:new    ;}
	.st91{enable-background:new    ;}
	.st92{fill:#444444;}
</style>
<g>
	<path class="st0" d="M523.01,52.89c-2.08-5.38-5.18-10.31-9.12-14.52c-3.94-4.16-8.68-7.47-13.94-9.74
		c-5.58-2.39-11.59-3.6-17.65-3.54c-3.24-0.07-6.48,0.42-9.55,1.47c-2.44,0.87-4.72,2.12-6.78,3.69c-1.83,1.43-3.48,3.08-4.89,4.93
		c-0.37,0.49-0.75,0.98-1.12,1.47l-1.37-3.95c-0.24-0.75-0.49-1.46-0.75-2.1c-0.3-0.76-0.71-1.47-1.19-2.12
		c-0.58-0.76-1.34-1.37-2.2-1.78c-0.97-0.44-2.02-0.65-3.08-0.63h-10c-0.76,0-1.53,0.09-2.27,0.25c-0.91,0.21-1.77,0.62-2.5,1.19
		c0.53,0.42,1.05,0.84,1.52,1.25c1.29,1.1,2.46,2.33,3.49,3.68c0.01,0.01,0.02,0.03,0.03,0.04c0.21,0.21,0.42,0.41,0.62,0.62
		c0.12,0.12,0.23,0.24,0.34,0.37c0.02,0.02,0.04,0.04,0.06,0.07c2.02,2.27,3.21,5.17,3.35,8.21c0.07,2.52-0.68,6.26-4.68,9.73
		c-0.07,0.06-0.14,0.12-0.21,0.18c-1.62,1.33-3.2,2.67-4.7,3.97c-0.73,0.64-1.48,1.32-2.25,2.05c1.66,1.09,3.23,2.31,4.71,3.63
		c3.39,3.06,6.1,6.8,7.93,10.98c1.96,4.71,2.92,9.77,2.81,14.87c0.07,5.51-1.17,10.96-3.62,15.9c-2.33,4.63-5.68,8.68-9.8,11.83
		c-0.27,0.21-0.55,0.4-0.83,0.6c-0.52,0.46-1.07,0.9-1.62,1.33v17.09c-0.01,1.12,0.28,2.23,0.85,3.2c0.49,0.84,1.15,1.58,1.93,2.16
		c0.71,0.53,1.5,0.95,2.33,1.25c0.8,0.3,1.65,0.45,2.5,0.47h15.17c2.37,0,4.22-0.74,5.46-2.2c1.16-1.36,1.78-3.1,1.75-4.88v-24.94
		c1.31,1.34,2.75,2.55,4.3,3.6c1.89,1.27,3.95,2.27,6.11,2.97c2.64,0.81,5.38,1.19,8.14,1.14c6.07,0.06,12.09-1.16,17.66-3.57
		c5.25-2.29,9.99-5.61,13.93-9.77c3.95-4.22,7.04-9.16,9.12-14.56C527.37,77.22,527.37,64.46,523.01,52.89z M496.09,78.28
		c-0.76,2.17-1.94,4.18-3.46,5.9c-1.48,1.65-3.28,2.98-5.29,3.92c-2.12,0.97-4.43,1.46-6.76,1.44c-2.49,0.01-4.95-0.49-7.23-1.47
		c-2.23-0.94-4.26-2.3-5.98-3.99c-1.71-1.7-3.07-3.71-4.01-5.93c-0.98-2.31-1.48-4.79-1.47-7.3v-0.94c0.11-2.36,0.7-4.67,1.72-6.8
		c1.01-2.12,2.39-4.03,4.08-5.66c1.7-1.61,3.68-2.89,5.85-3.78c2.23-0.92,4.62-1.39,7.03-1.38c2.33-0.03,4.65,0.46,6.77,1.44
		c2.01,0.94,3.81,2.28,5.28,3.95c1.52,1.74,2.69,3.75,3.47,5.92c0.84,2.33,1.26,4.78,1.25,7.26
		C497.37,73.39,496.94,75.9,496.09,78.28L496.09,78.28z"/>
	<path class="st0" d="M620.3,27.79c-0.77-0.75-1.75-1.25-2.8-1.46c-0.72-0.15-1.45-0.23-2.18-0.24h-9.87
		c-0.86-0.02-1.72,0.06-2.56,0.22c-0.89,0.19-1.71,0.64-2.35,1.28c-0.62,0.66-1.1,1.43-1.43,2.27c-0.29,0.69-0.66,1.6-1.11,2.72
		c-0.02,0.05-0.04,0.1-0.06,0.16l-0.62,1.94c-0.54-0.58-1.11-1.15-1.7-1.7c-1.75-1.63-3.7-3.02-5.81-4.15
		c-2.22-1.18-4.57-2.09-7-2.72c-2.69-0.68-5.46-1.02-8.24-1c-12.08-0.07-23.7,4.69-32.24,13.23c-8.57,8.65-13.35,20.36-13.26,32.53
		c-0.01,4.15,0.53,8.29,1.6,12.3c2.06,7.64,6.08,14.62,11.65,20.23c5.55,5.59,12.47,9.63,20.07,11.7c3.97,1.08,8.06,1.62,12.17,1.61
		c2.4,0.01,4.79-0.3,7.11-0.9c4.24-1.11,8.23-3.03,11.74-5.66c0.52-0.39,1.02-0.79,1.51-1.19c0.22,0.61,0.43,1.19,0.63,1.72
		c0.3,0.81,0.72,1.57,1.25,2.25c0.61,0.75,1.4,1.34,2.29,1.71c1,0.39,2.08,0.58,3.15,0.55h13.05c0.73-0.01,1.46-0.09,2.17-0.24
		c2.1-0.56,3.84-2.02,4.75-3.98c0.37-0.95,0.56-1.96,0.55-2.98V33.29c0.01-1.04-0.19-2.07-0.58-3.03
		C621.79,29.3,621.13,28.44,620.3,27.79z M567.52,53.5c2.15-0.99,4.49-1.5,6.86-1.46c2.51-0.02,5,0.49,7.31,1.49
		c2.21,0.97,4.22,2.36,5.9,4.1c1.68,1.75,3.01,3.79,3.93,6.03c1.88,4.65,1.88,9.84,0,14.49c-0.9,2.19-2.22,4.17-3.9,5.84
		c-1.7,1.67-3.71,3-5.9,3.92c-2.32,0.97-4.82,1.46-7.34,1.44c-2.37,0.03-4.72-0.45-6.89-1.41c-2.01-0.91-3.82-2.22-5.31-3.85
		c-1.51-1.69-2.67-3.67-3.41-5.82c-1.63-4.77-1.63-9.95,0-14.72c0.76-2.2,1.93-4.24,3.44-6.02
		C563.68,55.83,565.49,54.45,567.52,53.5z"/>
	<path class="st0" d="M718.69,29.42c-0.57-1.05-1.47-1.88-2.56-2.35c-1.23-0.52-2.56-0.77-3.89-0.72h-17.02
		c-1.53-0.06-3.05,0.32-4.37,1.1c-1.36,0.99-2.34,2.41-2.78,4.04l-16.19,47.04l-16.54-47.06c-0.44-1.3-1.18-2.48-2.16-3.44
		c-1.16-1.11-2.72-1.71-4.33-1.68h-16.36c-3.24,0-5.45,1.04-6.57,3.09c-1.02,1.88-1.05,4.07-0.08,6.5l31.26,76.61l-9.96,25.88
		c-0.14,0.22-0.27,0.45-0.39,0.69c-0.34,0.74-0.51,1.55-0.48,2.36c-0.1,1.83,0.52,3.62,1.72,5c1.2,1.27,3.08,1.89,5.75,1.89h15.3
		c1.65,0.02,3.25-0.59,4.48-1.7c1.12-1.05,1.92-2.39,2.3-3.87c0.05-0.16,0.08-0.32,0.1-0.48c0.58-1.56,1.36-3.61,2.37-6.23
		c1.24-3.22,2.66-6.84,4.2-10.75c1.61-4.08,3.39-8.57,5.33-13.44c1.94-4.88,3.96-9.97,6.06-15.27c2.16-5.45,4.33-10.9,6.46-16.18
		c2.21-5.5,4.38-10.91,6.53-16.23c2.14-5.32,4.21-10.44,6.19-15.37c1.99-4.92,3.82-9.46,5.5-13.61c0.34-0.83,0.56-1.7,0.68-2.59
		C719.39,31.53,719.2,30.41,718.69,29.42z"/>
	<path class="st58" d="M88.12,106.05c-0.07-0.15-0.16-0.3-0.26-0.43L54.82,63.2l25.86-27.31c0.03-0.03,0.06-0.06,0.09-0.09
		c0.49-0.54,0.91-1.14,1.27-1.78c0.33-0.7,0.49-1.46,0.48-2.23c0-1.21-0.43-5.16-5.95-5.16H56.22c-2.24,0-4.37,0.99-5.83,2.7
		L30.57,51.34v-43c-0.01-0.64-0.08-1.28-0.22-1.91c-0.19-0.84-0.55-1.63-1.07-2.32C28.72,3.36,28,2.76,27.18,2.34
		c-0.98-0.48-2.06-0.72-3.16-0.69H8.19C6.93,1.61,5.67,1.78,4.46,2.14C3.41,2.47,2.49,3.11,1.81,3.97C1.2,4.79,0.84,5.76,0.79,6.78
		C0.74,7.45,0.72,8.2,0.72,9v99.7c0.03,0.54,0.15,1.06,0.35,1.56c0.24,0.7,0.56,1.36,0.96,1.98c0.51,0.81,1.18,1.51,1.96,2.07
		c0.99,0.72,2.19,1.1,3.42,1.07h16.62c1.26,0.04,2.51-0.31,3.57-1.01c0.82-0.56,1.51-1.29,2.03-2.14c0.46-0.75,0.78-1.58,0.95-2.44
		c0.13-0.6,0.2-1.21,0.21-1.83V87.5l4.77-4.94l20.05,28.39c0.73,1.1,1.59,2.11,2.56,3c0.99,0.91,2.29,1.42,3.63,1.43h22.39
		c1.33,0.07,2.65-0.27,3.78-0.96c0.84-0.57,1.84-1.73,1.84-4c-0.02-0.86-0.2-1.7-0.53-2.49C88.98,107.24,88.59,106.61,88.12,106.05z
		"/>
	<path class="st58" d="M167.78,26.63h-14.97c-0.79-0.01-1.57,0.08-2.34,0.27c-0.79,0.22-1.55,0.56-2.25,1
		c-0.04,0.02-0.07,0.04-0.11,0.07c-0.98,0.69-1.73,1.67-2.13,2.8c-0.38,0.98-0.58,2.03-0.58,3.08v43.11
		c0.06,1.81-0.38,3.6-1.26,5.18c-0.84,1.43-1.98,2.68-3.33,3.65c-1.36,0.97-2.87,1.69-4.47,2.15c-1.47,0.44-3,0.68-4.53,0.71
		c-1.49,0.01-2.96-0.3-4.31-0.92c-1.36-0.61-2.59-1.49-3.62-2.57c-1.05-1.12-1.9-2.41-2.5-3.83c-0.6-1.42-0.91-2.95-0.91-4.5V33.64
		c0-2.56-0.59-4.34-1.82-5.46c-1.16-1.05-2.95-1.56-5.46-1.56H97.89c-2.29,0-4.06,0.71-5.24,2.11c-1.16,1.51-1.74,3.4-1.64,5.3
		v43.39c-0.03,5.08,0.7,10.15,2.15,15.02c1.35,4.54,3.54,8.79,6.47,12.52c2.87,3.6,6.49,6.53,10.61,8.57
		c4.49,2.16,9.43,3.24,14.41,3.16c3.48,0.03,6.94-0.42,10.3-1.34c2.91-0.8,5.71-1.93,8.35-3.38c2.26-1.24,4.35-2.77,6.22-4.56
		c0.17-0.17,0.34-0.34,0.5-0.51l0.32,1.49c0.01,0.04,0.02,0.07,0.03,0.11c0.2,0.76,0.46,1.51,0.77,2.23
		c0.34,0.79,0.79,1.54,1.33,2.21c0.6,0.74,1.36,1.33,2.21,1.76c0.96,0.46,2.02,0.69,3.09,0.67h10c0.77,0,1.54-0.09,2.29-0.25
		c1.05-0.23,2.03-0.72,2.85-1.43c0.13-0.11,0.25-0.23,0.35-0.37c0.55-0.51,1.01-1.11,1.36-1.77c0.55-1.05,0.84-2.22,0.83-3.4V34.04
		c0.07-1.92-0.59-3.81-1.85-5.26C172.3,27.35,170.35,26.63,167.78,26.63z"/>
	<path class="st58" d="M263.56,38.58c-3.94-4.16-8.68-7.47-13.94-9.74c-5.58-2.39-11.59-3.6-17.65-3.54
		c-3.24-0.07-6.48,0.42-9.55,1.47c-2.44,0.87-4.72,2.12-6.78,3.69c-1.83,1.43-3.48,3.08-4.89,4.93c-0.37,0.49-0.75,0.98-1.12,1.47
		l-1.37-3.95c-0.24-0.75-0.49-1.46-0.75-2.1c-0.3-0.76-0.71-1.47-1.19-2.12c-0.58-0.76-1.34-1.37-2.2-1.78
		c-0.97-0.44-2.02-0.65-3.08-0.62h-10c-0.76,0-1.52,0.09-2.27,0.25c-1.04,0.24-2,0.72-2.8,1.42c-0.05,0.04-0.1,0.09-0.14,0.13
		c-0.62,0.62-1.15,1.31-1.59,2.07c-0.56,1.02-0.84,2.17-0.81,3.34v100.63c-0.01,1.12,0.28,2.23,0.85,3.2
		c0.49,0.84,1.15,1.57,1.93,2.16c0.71,0.53,1.5,0.95,2.33,1.25c0.8,0.3,1.65,0.45,2.5,0.46h15.17c2.38,0,4.22-0.74,5.46-2.2
		c1.16-1.36,1.78-3.1,1.75-4.88v-24.94c1.31,1.34,2.75,2.55,4.3,3.6c1.89,1.27,3.95,2.27,6.11,2.97c2.64,0.81,5.38,1.19,8.14,1.14
		c6.07,0.06,12.09-1.16,17.66-3.57c5.25-2.29,9.99-5.61,13.93-9.77c3.95-4.22,7.04-9.16,9.12-14.56c4.36-11.57,4.36-24.33,0-35.9
		C270.59,47.72,267.5,42.79,263.56,38.58z M242.3,84.4c-1.48,1.65-3.28,2.98-5.29,3.92c-2.12,0.97-4.43,1.46-6.77,1.44
		c-2.49,0.01-4.95-0.49-7.23-1.47c-2.23-0.94-4.25-2.3-5.98-3.99c-1.71-1.7-3.07-3.71-4.01-5.93c-0.98-2.31-1.48-4.79-1.47-7.3
		v-0.94c0.11-2.36,0.7-4.68,1.72-6.81c1.01-2.12,2.39-4.03,4.08-5.66c1.7-1.61,3.69-2.89,5.85-3.78c2.23-0.92,4.62-1.39,7.03-1.38
		c2.33-0.03,4.65,0.46,6.77,1.44c2.01,0.94,3.81,2.28,5.28,3.95c1.52,1.74,2.69,3.75,3.47,5.92c0.84,2.33,1.26,4.78,1.25,7.26
		c0.02,2.53-0.41,5.04-1.25,7.43C244.99,80.67,243.82,82.67,242.3,84.4z"/>
	<path class="st58" d="M356.91,38.53c-8.59-8.54-20.23-13.3-32.34-13.23c-8.16-0.03-16.19,2.08-23.28,6.14
		c-3.38,1.95-6.5,4.33-9.26,7.09c-5.61,5.59-9.65,12.56-11.72,20.2c-3.3,12.01-1.64,24.85,4.6,35.63
		c6,10.32,15.83,17.85,27.36,20.94c4.01,1.08,8.15,1.62,12.3,1.6c8.11,0.03,16.08-2.1,23.09-6.18c6.78-3.94,12.42-9.59,16.37-16.37
		c2-3.45,3.54-7.14,4.6-10.98c1.1-4.01,1.65-8.15,1.64-12.31c0.05-6.2-1.18-12.34-3.6-18.04C364.37,47.62,361.06,42.7,356.91,38.53z
		 M324.37,52.25c4.59-0.1,8.98,1.91,11.9,5.46c1.46,1.78,2.58,3.82,3.3,6.02c1.56,4.8,1.56,9.98,0,14.78
		c-0.7,2.13-1.81,4.11-3.27,5.82c-1.42,1.62-3.17,2.93-5.13,3.83c-2.14,0.96-4.46,1.44-6.81,1.41c-2.41,0.04-4.81-0.44-7.02-1.41
		c-2-0.9-3.8-2.21-5.27-3.84c-1.5-1.7-2.65-3.68-3.39-5.83c-1.63-4.77-1.63-9.95,0-14.72c0.76-2.2,1.92-4.25,3.42-6.03
		c1.45-1.7,3.25-3.07,5.27-4.02C319.58,52.7,321.97,52.2,324.37,52.25z"/>
	<path class="st58" d="M438.3,76.81c-1.6-3.19-3.87-6-6.66-8.23c-2.97-2.35-6.25-4.28-9.74-5.75c-3.6-1.55-7.59-3.05-11.84-4.45
		c-2.18-0.71-4.08-1.37-5.67-1.97c-1.3-0.46-2.55-1.06-3.74-1.77c-0.72-0.41-1.34-0.96-1.84-1.62c-0.57-0.98-0.59-2.19-0.05-3.19
		c0.33-0.48,0.77-0.88,1.29-1.15c0.75-0.39,1.55-0.66,2.38-0.81c1.08-0.2,2.18-0.29,3.27-0.29c1.05,0,2.09,0.16,3.1,0.47
		c1.08,0.33,2.13,0.76,3.14,1.28c0.99,0.51,1.93,1.1,2.83,1.75c0.9,0.66,1.75,1.33,2.53,1.99l0.5,0.44
		c0.55,0.48,1.13,0.94,1.73,1.36c0.82,0.58,1.81,0.89,2.81,0.88c1.39-0.04,2.7-0.65,3.63-1.68c0.02-0.02,0.03-0.04,0.05-0.05
		l9.13-9.72c0.55-0.58,1.04-1.21,1.46-1.89c0.46-0.78,0.71-1.68,0.7-2.59c-0.06-1.18-0.5-2.31-1.26-3.21
		c-0.74-0.96-1.58-1.83-2.5-2.62c-0.98-0.84-2.11-1.73-3.37-2.62c-1.25-0.88-2.59-1.75-4-2.58c-0.02-0.01-0.04-0.03-0.07-0.04
		c-2.15-1.18-4.38-2.18-6.7-2.99c-1.64-0.57-3.31-1.04-5.01-1.41v-6.14c0.01-1.49-0.7-2.88-1.92-3.74
		c-0.92-0.72-2.05-1.12-3.21-1.15h-11.21c-1.41-0.06-2.77,0.52-3.7,1.58c-0.78,0.93-1.21,2.1-1.19,3.31v6.47
		c-2.81,0.66-5.53,1.64-8.1,2.94c-2.85,1.42-5.43,3.32-7.63,5.62c-2.09,2.22-3.74,4.8-4.87,7.63c-1.16,2.97-1.74,6.13-1.71,9.31
		c-0.16,7.13,2.68,14,7.83,18.93c2.81,2.71,6,5.01,9.47,6.83c4.13,2.18,8.43,4.03,12.85,5.54c1.11,0.37,2.37,0.81,3.79,1.33
		c1.35,0.49,2.65,1.09,3.91,1.79c1.07,0.58,2.05,1.32,2.9,2.18c0.49,0.45,0.77,1.08,0.77,1.74c0.01,0.83-0.13,1.65-0.39,2.43
		c-0.22,0.65-0.61,1.24-1.12,1.71c-0.7,0.6-1.52,1.05-2.4,1.31c-1.42,0.42-2.9,0.61-4.39,0.57c-1.86,0.01-3.71-0.33-5.46-0.98
		c-1.96-0.77-3.83-1.75-5.57-2.93c-1.18-0.79-2.3-1.65-3.36-2.58c-1.1-0.97-1.97-1.72-2.66-2.29c-0.53-0.47-1.1-0.89-1.71-1.27
		c-0.69-0.43-1.48-0.67-2.3-0.68c-1.23,0.07-2.4,0.53-3.35,1.31c-0.09,0.06-0.17,0.13-0.25,0.21l-10.32,9.84
		c-1.38,1.26-2.07,2.55-2.07,3.9c0,1.21,0.63,2.46,1.97,3.92c0.06,0.06,0.13,0.13,0.19,0.18c0.03,0.04,0.07,0.08,0.1,0.11
		c0.05,0.05,0.09,0.09,0.14,0.14c0.04,0.04,0.07,0.08,0.11,0.12l0.15,0.15c0.64,0.69,1.49,1.57,2.6,2.7
		c1.33,1.33,2.78,2.55,4.31,3.65c2.74,1.99,5.66,3.72,8.72,5.16c2.51,1.19,5.13,2.14,7.83,2.84V125c0,3.02,1.87,4.89,4.89,4.89
		h11.21c3.16,0,5.13-1.87,5.13-4.89v-6.67c3.22-0.7,6.33-1.8,9.28-3.27c3.32-1.65,6.34-3.85,8.93-6.5c2.53-2.61,4.54-5.67,5.95-9.02
		c1.46-3.54,2.19-7.34,2.15-11.17C440.82,84.38,439.99,80.42,438.3,76.81z"/>
</g>
</svg>
