<svg id="Capa_1" data-name="Capa 1" xmlns="http://www.w3.org/2000/svg" viewBox="0 0 1366 324"><defs><style>.cls-1{fill:#ff5c60;}.cls-2{fill:#ff8f45;}</style></defs><title>Logo-KuposPool</title><path class="cls-1" d="M942.877,140.337a77.66,77.66,0,0,0-15.707-25.026,72.891,72.891,0,0,0-23.993-16.762,75.441,75.441,0,0,0-30.407-6.091,47.131,47.131,0,0,0-16.237,2.485,42.673,42.673,0,0,0-11.5,6.254,46.128,46.128,0,0,0-8.308,8.374q-1.9,2.5-3.78,4.939l-3.374-9.718c-.41-1.308-.845-2.53-1.293-3.631a14.665,14.665,0,0,0-1.9-3.36,8.969,8.969,0,0,0-3.285-2.654,10.937,10.937,0,0,0-4.738-.941H800.767a17.563,17.563,0,0,0-3.663.4,9.7,9.7,0,0,0-4.223,2.16c-.052.045-.1.092-.152.141-.031.031-.055.067-.086.1,2.442,2.14,4.866,4.441,7.246,6.922l.15.158c.146.157.292.319.433.481l.12.139a24.209,24.209,0,0,1,6.143,15.068c.132,4.658-1.245,11.545-8.556,17.9q-.158.138-.321.271c-2.933,2.409-5.737,4.78-8.335,7.049-.18.157-.364.323-.545.483v4c1.691,1.266,3.336,2.571,4.877,3.957a57.611,57.611,0,0,1,14.209,19.667c3.337,7.552,5.029,16.489,5.029,26.563a62.321,62.321,0,0,1-6.469,28.435,61.511,61.511,0,0,1-17.53,21.158c-.038.029-.078.056-.116.084v32.928a9.286,9.286,0,0,0,1.277,4.81,11.4,11.4,0,0,0,2.974,3.34,14.006,14.006,0,0,0,3.679,1.981,11.566,11.566,0,0,0,3.86.726h26.681c3.692,0,6.519-1.113,8.4-3.31a11.26,11.26,0,0,0,2.692-7.548V234.36q1.064,1.152,2.132,2.3a47.612,47.612,0,0,0,7.926,6.761,40.946,40.946,0,0,0,10.351,5.026,44.457,44.457,0,0,0,13.821,1.929,74.794,74.794,0,0,0,30.416-6.151,73.61,73.61,0,0,0,23.986-16.82,77.472,77.472,0,0,0,15.707-25.085,87.856,87.856,0,0,0,0-61.983Zm-44.35,44.629a33.192,33.192,0,0,1-6.392,10.9,30.6,30.6,0,0,1-9.815,7.277,29.278,29.278,0,0,1-12.58,2.676,33.521,33.521,0,0,1-13.353-2.711,35.594,35.594,0,0,1-11.01-7.353,34.384,34.384,0,0,1-7.39-10.93,33.817,33.817,0,0,1-2.712-13.47l0-1.628a32.683,32.683,0,0,1,3.2-12.68,35.7,35.7,0,0,1,7.519-10.412,35.039,35.039,0,0,1,10.777-6.963,33.609,33.609,0,0,1,12.975-2.549,29.263,29.263,0,0,1,12.578,2.677,30.185,30.185,0,0,1,9.8,7.324,34.005,34.005,0,0,1,6.406,10.92,38.7,38.7,0,0,1,2.3,13.309A39.844,39.844,0,0,1,898.527,184.966Z"/><path class="cls-1" d="M1091.4,115.261a78.474,78.474,0,0,0-55.749-22.8A80.223,80.223,0,0,0,995.5,103.041a76.6,76.6,0,0,0-15.954,12.219,78.053,78.053,0,0,0-20.207,34.817,80.124,80.124,0,0,0,7.937,61.438,77.85,77.85,0,0,0,47.157,36.093,80.81,80.81,0,0,0,21.213,2.766,78.621,78.621,0,0,0,39.808-10.645,78.021,78.021,0,0,0,28.211-28.213,80.476,80.476,0,0,0,7.935-18.932,79.226,79.226,0,0,0,2.829-21.226,78.111,78.111,0,0,0-6.2-31.1A79.826,79.826,0,0,0,1091.4,115.261Zm-56.1,21.4a28.009,28.009,0,0,1,22.157,10.174,34.5,34.5,0,0,1,6.086,11.094,43.658,43.658,0,0,1,0,27.024,31.86,31.86,0,0,1-6.049,10.766,28.522,28.522,0,0,1-9.549,7.13,29.679,29.679,0,0,1-12.646,2.623,31.043,31.043,0,0,1-13.011-2.63,29.446,29.446,0,0,1-9.788-7.147,32.349,32.349,0,0,1-6.274-10.778,41.555,41.555,0,0,1,0-26.95,35.025,35.025,0,0,1,6.308-11.1,29.367,29.367,0,0,1,9.786-7.47A29.945,29.945,0,0,1,1035.3,136.662Z"/><path class="cls-1" d="M1257.188,115.261a78.468,78.468,0,0,0-55.748-22.8,80.214,80.214,0,0,0-40.146,10.583,76.463,76.463,0,0,0-15.953,12.219,78.01,78.01,0,0,0-20.208,34.817,80.139,80.139,0,0,0,7.936,61.438,77.858,77.858,0,0,0,47.157,36.093,80.813,80.813,0,0,0,21.214,2.766,78.6,78.6,0,0,0,39.806-10.645,78.019,78.019,0,0,0,28.214-28.214,80.5,80.5,0,0,0,7.935-18.932,79.285,79.285,0,0,0,2.828-21.225,78.094,78.094,0,0,0-6.2-31.1A79.826,79.826,0,0,0,1257.188,115.261Zm-56.1,21.4a28.013,28.013,0,0,1,22.157,10.174,34.5,34.5,0,0,1,6.086,11.094,43.681,43.681,0,0,1,0,27.024,31.86,31.86,0,0,1-6.049,10.766,28.527,28.527,0,0,1-9.551,7.13,29.677,29.677,0,0,1-12.645,2.623,31.045,31.045,0,0,1-13.013-2.63,29.43,29.43,0,0,1-9.788-7.147,32.333,32.333,0,0,1-6.273-10.778,41.538,41.538,0,0,1,0-26.951,35.05,35.05,0,0,1,6.307-11.1,29.36,29.36,0,0,1,9.787-7.47A29.938,29.938,0,0,1,1201.091,136.662Z"/><path class="cls-1" d="M1340.867,57.538a12.831,12.831,0,0,0-2.315-3.458,11.17,11.17,0,0,0-3.076-2.315,7.974,7.974,0,0,0-3.546-.9h-28.544c-3.852,0-6.679,1.2-8.4,3.579a12.862,12.862,0,0,0-2.337,7.745V236.254c0,3.527.816,6.309,2.424,8.265,1.727,2.108,4.526,3.176,8.318,3.176h27.03a11.692,11.692,0,0,0,8.126-2.912c2.2-2,3.314-4.866,3.314-8.529V62.19A10.967,10.967,0,0,0,1340.867,57.538Z"/><path class="cls-2" d="M174.9,233.729a2.456,2.456,0,0,0-.353-.622l-58.932-75.689,46.426-49.024c.031-.034.063-.068.093-.1a15.329,15.329,0,0,0,2.011-2.819,7.119,7.119,0,0,0,.67-3.2c0-2.249-.865-7.479-8.878-7.479H120.172a11.8,11.8,0,0,0-9.06,4.2l-37.638,41.82V61.024a14.425,14.425,0,0,0-.348-3.029,8.912,8.912,0,0,0-1.6-3.463A9.24,9.24,0,0,0,68.356,51.9a10.383,10.383,0,0,0-4.808-1.035H35.7a18.963,18.963,0,0,0-6.047.775A7.986,7.986,0,0,0,25.746,54.3a7.594,7.594,0,0,0-1.478,4.1c-.082,1.136-.123,2.411-.123,3.789V237.536a6.959,6.959,0,0,0,.535,2.237,14.922,14.922,0,0,0,1.529,3.15,11.539,11.539,0,0,0,3.023,3.188A8.383,8.383,0,0,0,34.3,247.7H63.548a9.236,9.236,0,0,0,5.366-1.488,10.585,10.585,0,0,0,3.1-3.264,11.574,11.574,0,0,0,1.472-3.778,15.838,15.838,0,0,0,.336-2.911V199.62l10.167-10.533,36.364,51.486a26.583,26.583,0,0,0,4.257,5,8.024,8.024,0,0,0,5.347,2.119h39.38a10.035,10.035,0,0,0,5.758-1.418c1.158-.787,2.537-2.418,2.537-5.712a10.181,10.181,0,0,0-.825-3.789A11.291,11.291,0,0,0,174.9,233.729Z"/><path class="cls-2" d="M316.373,94.79h-26.33a14.733,14.733,0,0,0-3.71.429,13.159,13.159,0,0,0-3.526,1.566c-.039.024-.077.049-.115.076a8.736,8.736,0,0,0-3.169,4.177,13.516,13.516,0,0,0-.921,4.85V181.7a19.054,19.054,0,0,1-2.446,9.928,22.574,22.574,0,0,1-6.3,6.9,27.423,27.423,0,0,1-8.339,4.014c-6.457,1.846-11.8,1.741-16.652-.457a21.83,21.83,0,0,1-6.859-4.874A24.328,24.328,0,0,1,233.3,190a21.57,21.57,0,0,1-1.723-8.535V105.54c0-4.03-.874-6.783-2.676-8.421-1.73-1.568-4.521-2.33-8.532-2.33H193.456c-3.544,0-6.237,1.059-8,3.146-1.664,1.967-2.508,4.757-2.508,8.294v76.314a88.726,88.726,0,0,0,3.72,25.946,64.44,64.44,0,0,0,11.09,21.5,53.6,53.6,0,0,0,18.129,14.653,54.612,54.612,0,0,0,24.64,5.387,65.192,65.192,0,0,0,17.682-2.3,66.1,66.1,0,0,0,14.344-5.8,50.064,50.064,0,0,0,10.6-7.772,42.5,42.5,0,0,0,2.907-3.145l1.247,5.8a26.765,26.765,0,0,0,1.282,3.708,14.523,14.523,0,0,0,2.109,3.5,10.266,10.266,0,0,0,3.364,2.676,10.446,10.446,0,0,0,4.719,1.019h17.593a18.414,18.414,0,0,0,3.707-.4,9.686,9.686,0,0,0,4.3-2.165,2.456,2.456,0,0,0,.45-.5A9.957,9.957,0,0,0,327,241.852a11.052,11.052,0,0,0,1.278-5.237V106.23a11.783,11.783,0,0,0-2.852-8.182C323.471,95.886,320.424,94.79,316.373,94.79Z"/><path class="cls-2" d="M483.668,115.311a72.894,72.894,0,0,0-23.992-16.762,75.449,75.449,0,0,0-30.407-6.091,47.134,47.134,0,0,0-16.238,2.485,42.673,42.673,0,0,0-11.5,6.254,46.128,46.128,0,0,0-8.308,8.374q-1.9,2.5-3.78,4.939l-3.374-9.718c-.409-1.3-.843-2.524-1.293-3.632a14.715,14.715,0,0,0-1.9-3.358,8.969,8.969,0,0,0-3.285-2.654,10.937,10.937,0,0,0-4.738-.941H357.266a17.565,17.565,0,0,0-3.665.4,9.7,9.7,0,0,0-4.223,2.16c-.052.045-.1.092-.152.141a16.007,16.007,0,0,0-2.547,3.308,10.059,10.059,0,0,0-1.2,5.078V282.277a9.286,9.286,0,0,0,1.277,4.81,11.365,11.365,0,0,0,2.974,3.339,13.944,13.944,0,0,0,3.68,1.982,11.545,11.545,0,0,0,3.86.726h26.68c3.692,0,6.519-1.113,8.4-3.31a11.26,11.26,0,0,0,2.692-7.548V234.36q1.064,1.152,2.133,2.3a47.618,47.618,0,0,0,7.925,6.761,40.985,40.985,0,0,0,10.351,5.026,44.471,44.471,0,0,0,13.822,1.929,74.806,74.806,0,0,0,30.416-6.151,73.6,73.6,0,0,0,23.985-16.82,77.49,77.49,0,0,0,15.708-25.085,87.874,87.874,0,0,0,0-61.983A77.678,77.678,0,0,0,483.668,115.311Zm-26.344,56.048a39.811,39.811,0,0,1-2.3,13.607,33.158,33.158,0,0,1-6.394,10.9,30.564,30.564,0,0,1-9.813,7.277,29.277,29.277,0,0,1-12.578,2.676,33.522,33.522,0,0,1-13.354-2.711,35.573,35.573,0,0,1-11.01-7.353,34.384,34.384,0,0,1-7.39-10.93,33.8,33.8,0,0,1-2.711-13.47l0-1.628a32.666,32.666,0,0,1,3.194-12.68,35.683,35.683,0,0,1,7.519-10.41,35.046,35.046,0,0,1,10.778-6.964,33.6,33.6,0,0,1,12.975-2.549,29.262,29.262,0,0,1,12.577,2.677,30.193,30.193,0,0,1,9.8,7.324,33.99,33.99,0,0,1,6.406,10.922A38.655,38.655,0,0,1,457.324,171.359Z"/><path class="cls-2" d="M647.9,115.261a78.468,78.468,0,0,0-55.749-22.8A80.214,80.214,0,0,0,552,103.041a76.463,76.463,0,0,0-15.953,12.219,78.01,78.01,0,0,0-20.208,34.817,80.139,80.139,0,0,0,7.936,61.438,77.858,77.858,0,0,0,47.157,36.093,80.81,80.81,0,0,0,21.213,2.766,78.6,78.6,0,0,0,39.807-10.645,78,78,0,0,0,28.213-28.214,80.515,80.515,0,0,0,7.935-18.931,79.226,79.226,0,0,0,2.829-21.226,78.094,78.094,0,0,0-6.2-31.1A79.826,79.826,0,0,0,647.9,115.261Zm-56.1,21.4a28.014,28.014,0,0,1,22.158,10.174,34.525,34.525,0,0,1,6.085,11.094,43.658,43.658,0,0,1,0,27.024,31.878,31.878,0,0,1-6.047,10.766,28.519,28.519,0,0,1-9.551,7.13,29.679,29.679,0,0,1-12.646,2.623,31.039,31.039,0,0,1-13.011-2.63A29.43,29.43,0,0,1,569,195.7a32.338,32.338,0,0,1-6.273-10.778,41.538,41.538,0,0,1,0-26.951,35,35,0,0,1,6.307-11.1,29.36,29.36,0,0,1,9.787-7.47A29.936,29.936,0,0,1,591.8,136.662Z"/><path class="cls-2" d="M794.509,179.1a42.885,42.885,0,0,0-10.568-14.642,61.378,61.378,0,0,0-15.779-10.143,185.315,185.315,0,0,0-19.554-7.463c-1.949-.566-4.081-1.073-6.338-1.509a41.67,41.67,0,0,1-5.937-1.593,13.82,13.82,0,0,1-4.258-2.313,3.985,3.985,0,0,1-1.381-2.958,3.647,3.647,0,0,1,1.928-3.785,15.668,15.668,0,0,1,7.839-1.641,31.875,31.875,0,0,1,9.078,1.469,17.911,17.911,0,0,1,8.148,5.352,12.511,12.511,0,0,0,2.561,2.4,10.325,10.325,0,0,0,3.215,1.525,8.1,8.1,0,0,0,3.83.093,8.9,8.9,0,0,0,3.877-1.976,1.959,1.959,0,0,0,.165-.151c2.9-2.9,5.735-5.563,8.441-7.925s5.613-4.822,8.676-7.338c2.362-2.055,3.53-4.175,3.469-6.3a9.691,9.691,0,0,0-2.625-5.9c-.033-.037-.066-.075-.1-.111a93.355,93.355,0,0,0-11.315-10.115,63.231,63.231,0,0,0-11.824-7.03,57.453,57.453,0,0,0-12.783-4.019,81.694,81.694,0,0,0-36.966,1.933,54.456,54.456,0,0,0-17.813,9.162,41.5,41.5,0,0,0-11.638,14.428,42.419,42.419,0,0,0-4.092,18.672,60.565,60.565,0,0,0,2.19,16.4,40.743,40.743,0,0,0,7.865,14.819,54.439,54.439,0,0,0,15.065,12.283,98.378,98.378,0,0,0,23.559,9.188q4.451,1.405,8.026,2.46a28.4,28.4,0,0,1,5.512,2.186,7.923,7.923,0,0,1,2.859,2.465,6.932,6.932,0,0,1,.868,3.815,4.465,4.465,0,0,1-1.427,3.732,11.143,11.143,0,0,1-4.455,2.336,28.018,28.018,0,0,1-6.046.962c-2.255.113-4.114.171-5.527.171a16.678,16.678,0,0,1-2.947-.521,38.935,38.935,0,0,1-5.581-1.81,48.988,48.988,0,0,1-6.707-3.329,31.633,31.633,0,0,1-6.32-4.918l-.031-.031c-2.553-2.462-4.675-3.946-6.488-4.533-2.286-.744-4.742-.042-7.293,2.081q-.087.072-.166.152l-14.915,14.914a8.721,8.721,0,0,0-2.669,3.374,11.075,11.075,0,0,0-.906,4.113,12.057,12.057,0,0,0,.722,4.459,14.469,14.469,0,0,0,2.288,4.114,54.723,54.723,0,0,0,11.714,11.4,68.114,68.114,0,0,0,13.782,7.616,71.81,71.81,0,0,0,14.963,4.283,89.506,89.506,0,0,0,15.1,1.318,86.019,86.019,0,0,0,24.412-3.363,60.63,60.63,0,0,0,19.851-9.847A46.816,46.816,0,0,0,793.4,221.409a47.662,47.662,0,0,0,4.869-21.738C798.274,191.673,797.008,184.752,794.509,179.1Z"/></svg>