<svg id="Layer_1" data-name="Layer 1" xmlns="http://www.w3.org/2000/svg" xmlns:xlink="http://www.w3.org/1999/xlink" viewBox="0 0 512 512"><defs><style>.cls-1{fill:#f15a24;opacity:0.14;}.cls-10,.cls-2,.cls-5{fill:#cd4927;}.cls-2,.cls-9{opacity:0.3;}.cls-3{fill:url(#radial-gradient);}.cls-4{fill:url(#radial-gradient-2);}.cls-5{opacity:0.2;}.cls-6{fill:url(#radial-gradient-3);}.cls-7{fill:url(#radial-gradient-4);}.cls-8{fill:url(#radial-gradient-5);}.cls-11{fill:url(#radial-gradient-6);}.cls-12{fill:url(#radial-gradient-7);}.cls-13{fill:url(#radial-gradient-8);}.cls-14{fill:url(#radial-gradient-9);}.cls-15{fill:url(#radial-gradient-10);}.cls-16{fill:#ffc462;}</style><radialGradient id="radial-gradient" cx="316.385" cy="323.553" r="72.291" gradientUnits="userSpaceOnUse"><stop offset="0" stop-color="#ffc85e"/><stop offset="1" stop-color="#ffb654"/></radialGradient><radialGradient id="radial-gradient-2" cx="304.951" cy="281.589" r="72.291" xlink:href="#radial-gradient"/><radialGradient id="radial-gradient-3" cx="327.831" cy="239.637" r="72.281" xlink:href="#radial-gradient"/><radialGradient id="radial-gradient-4" cx="304.951" cy="170.974" r="71.684" xlink:href="#radial-gradient"/><radialGradient id="radial-gradient-5" cx="304.951" cy="193.854" r="72.289" xlink:href="#radial-gradient"/><radialGradient id="radial-gradient-6" cx="316.385" cy="305.189" r="71.09" xlink:href="#radial-gradient"/><radialGradient id="radial-gradient-7" cx="304.951" cy="261.976" r="71.24" xlink:href="#radial-gradient"/><radialGradient id="radial-gradient-8" cx="327.831" cy="219.697" r="71.271" xlink:href="#radial-gradient"/><radialGradient id="radial-gradient-9" cx="171.327" cy="222.502" r="161.622" xlink:href="#radial-gradient"/><radialGradient id="radial-gradient-10" cx="144.833" cy="214.554" r="190.268" gradientUnits="userSpaceOnUse"><stop offset="0" stop-color="#ffa736"/><stop offset="0.487" stop-color="#ff8f45"/><stop offset="0.984" stop-color="#ff8f45"/></radialGradient></defs><title>Money-coins</title><circle class="cls-1" cx="256" cy="256" r="256"/><path class="cls-2" d="M413.408,323.837c-11.677,10.288-53.693,19.048-103.744,19.048-39.146,0-73.343-5.365-92.01-12.618a7.193,7.193,0,0,0-2.622,4.452c-9.183-.587-19.132-.91-29.532-.91-46.116,0-83.5,6.313-83.5,14.1s37.384,14.1,83.5,14.1c31.975,0,59.74-3.036,73.768-7.493A383.827,383.827,0,0,0,322,359.341c59.1,0,107-11.656,107-24.151C429,330.869,423.3,327.032,413.408,323.837Z"/><path class="cls-3" d="M316.385,321.643c-54.776,0-99.181-11.305-99.181-22.892v26.692c.038,11.586,44.424,22.911,99.181,22.911s99.143-11.324,99.181-22.911V298.752c0,11.587-44.4,22.892-99.181,22.892"/><path class="cls-2" d="M316.385,321.643c-54.776,0-99.181-11.305-99.181-22.892v26.692c.038,11.586,44.424,22.911,99.181,22.911s99.143-11.324,99.181-22.911V298.752c0,11.587-44.4,22.892-99.181,22.892"/><path class="cls-4" d="M304.951,279.68c-54.78,0-99.181-11.286-99.181-22.892V283.48c.038,11.587,44.419,22.911,99.181,22.911s99.143-11.324,99.181-22.911V256.788c0,11.605-44.405,22.892-99.181,22.892"/><path class="cls-5" d="M304.951,279.68c-54.78,0-99.181-11.286-99.181-22.892V283.48c.038,11.587,44.419,22.911,99.181,22.911s99.143-11.324,99.181-22.911V256.788c0,11.605-44.405,22.892-99.181,22.892"/><path class="cls-6" d="M327.843,237.716c-54.781,0-99.181-11.286-99.181-22.868v26.668c.019,11.586,44.419,22.911,99.181,22.911S426.986,253.1,427,241.516V214.848c0,11.582-44.4,22.868-99.157,22.868"/><path class="cls-2" d="M327.843,237.716c-54.781,0-99.181-11.286-99.181-22.868v26.668c.019,11.586,44.419,22.911,99.181,22.911S426.986,253.1,427,241.516V214.848c0,11.582-44.4,22.868-99.157,22.868"/><path class="cls-7" d="M404.132,169.565c0,11.586-44.405,22.391-99.181,22.391s-99.181-10.8-99.181-22.391,44.4-19.573,99.181-19.573,99.181,7.972,99.181,19.573"/><path class="cls-8" d="M304.951,191.956c-54.78,0-99.181-11.305-99.181-22.892v26.692c.038,11.582,44.419,22.887,99.181,22.887s99.143-11.305,99.181-22.887V169.065c0,11.586-44.405,22.892-99.181,22.892"/><path class="cls-5" d="M304.951,191.956c-54.78,0-99.181-11.305-99.181-22.892v26.692c.038,11.582,44.419,22.887,99.181,22.887s99.143-11.305,99.181-22.887V169.065c0,11.586-44.405,22.892-99.181,22.892"/><g class="cls-9"><path class="cls-10" d="M221.023,180.8v26.673c2.332.854,4.863,1.674,7.638,2.455V183.259c-2.775-.8-5.307-1.621-7.638-2.46"/><path class="cls-10" d="M381.241,183.259v26.668c2.756-.782,5.307-1.6,7.615-2.455V180.8c-2.308.839-4.859,1.659-7.615,2.46"/><path class="cls-10" d="M240.1,186.015V212.7c2.441.525,4.992.987,7.638,1.454V187.465c-2.646-.462-5.2-.93-7.638-1.449"/><path class="cls-10" d="M362.168,187.465v26.692c2.642-.467,5.178-.93,7.615-1.454V186.015c-2.436.52-4.973.987-7.615,1.449"/><path class="cls-10" d="M259.168,189.162v26.692c2.5.315,5.03.61,7.639.892V190.054c-2.608-.277-5.14-.577-7.639-.892"/><path class="cls-10" d="M343.1,190.054v26.692c2.608-.281,5.14-.577,7.615-.892V189.162c-2.475.315-5.006.615-7.615.892"/><path class="cls-10" d="M278.24,191.022v26.711c2.517.167,5.049.334,7.638.448V191.489c-2.589-.129-5.121-.277-7.638-.467"/><path class="cls-10" d="M324.024,191.489v26.692c2.57-.115,5.121-.281,7.615-.448V191.022c-2.494.191-5.045.338-7.615.467"/><path class="cls-10" d="M304.951,191.956c-1.287,0-2.551-.019-3.819-.019v26.692c1.268.014,2.532.014,3.819.014,1.264,0,2.551,0,3.819-.014V191.937c-1.268,0-2.556.019-3.819.019"/></g><g class="cls-9"><path class="cls-10" d="M243.915,226.563V253.25c2.327.858,4.863,1.678,7.638,2.46V229.018c-2.775-.782-5.312-1.6-7.638-2.455"/><path class="cls-10" d="M404.132,229.018V255.71c2.756-.782,5.307-1.6,7.615-2.46V226.563c-2.308.853-4.859,1.674-7.615,2.455"/><path class="cls-10" d="M262.987,231.794v26.692c2.441.5,4.992.987,7.638,1.435V233.229q-3.969-.672-7.638-1.435"/><path class="cls-10" d="M385.06,233.229V259.94q3.962-.7,7.615-1.454V231.794q-3.655.758-7.615,1.435"/><path class="cls-10" d="M282.059,234.941v26.692c2.494.315,5.03.615,7.639.9V235.818c-2.608-.262-5.145-.558-7.639-.877"/><path class="cls-10" d="M365.988,235.818v26.711c2.589-.281,5.14-.582,7.615-.9V234.941c-2.475.319-5.026.615-7.615.877"/><path class="cls-10" d="M301.132,236.8V263.5c2.513.186,5.049.334,7.638.462V237.253c-2.589-.115-5.126-.281-7.638-.448"/><path class="cls-10" d="M346.915,237.253v26.706c2.57-.129,5.121-.276,7.615-.462V236.8c-2.494.167-5.045.334-7.615.448"/><path class="cls-10" d="M327.843,237.716c-1.287,0-2.556,0-3.819-.014v26.706c1.263,0,2.532.019,3.819.019,1.264,0,2.532-.019,3.8-.019V237.7c-1.264.014-2.532.014-3.8.014"/></g><g class="cls-9"><path class="cls-10" d="M221.023,268.522v26.692c2.332.839,4.863,1.659,7.638,2.46V270.983c-2.775-.782-5.307-1.6-7.638-2.46"/><path class="cls-10" d="M381.241,270.983v26.692c2.756-.782,5.307-1.621,7.615-2.46V268.522c-2.308.858-4.859,1.678-7.615,2.46"/><path class="cls-10" d="M240.1,273.757v26.692c2.441.5,4.992.987,7.638,1.431V275.193q-3.969-.672-7.638-1.435"/><path class="cls-10" d="M362.168,275.193V301.88c2.642-.444,5.178-.93,7.615-1.431V273.757q-3.655.758-7.615,1.435"/><path class="cls-10" d="M259.168,276.9V303.6c2.5.315,5.03.615,7.639.872V277.782c-2.608-.262-5.14-.558-7.639-.877"/><path class="cls-10" d="M343.1,277.782v26.687c2.608-.257,5.14-.558,7.615-.872V276.9c-2.475.32-5.006.615-7.615.877"/><path class="cls-10" d="M278.24,278.769v26.687c2.517.191,5.049.338,7.638.467V279.217c-2.589-.134-5.121-.281-7.638-.448"/><path class="cls-10" d="M324.024,279.217v26.706c2.57-.129,5.121-.277,7.615-.467V278.769c-2.494.167-5.045.315-7.615.448"/><path class="cls-10" d="M304.951,279.68c-1.287,0-2.551,0-3.819-.019v26.711c1.268,0,2.532.019,3.819.019,1.264,0,2.551-.019,3.819-.019V279.66c-1.268.019-2.556.019-3.819.019"/></g><g class="cls-9"><path class="cls-10" d="M232.481,310.486v26.673c2.308.858,4.859,1.674,7.615,2.475V312.947c-2.756-.782-5.307-1.621-7.615-2.46"/><path class="cls-10" d="M392.674,312.947v26.687c2.775-.8,5.307-1.616,7.639-2.475V310.486c-2.332.858-4.864,1.678-7.639,2.46"/><path class="cls-10" d="M251.553,315.722v26.687c2.436.506,4.973.992,7.615,1.435V317.157c-2.641-.448-5.178-.934-7.615-1.435"/><path class="cls-10" d="M373.6,317.157v26.687c2.646-.443,5.2-.93,7.639-1.435V315.722c-2.441.5-4.992.987-7.639,1.435"/><path class="cls-10" d="M270.626,318.849V345.56c2.475.315,5.007.615,7.615.873V319.746c-2.608-.281-5.14-.582-7.615-.9"/><path class="cls-10" d="M354.53,319.746v26.687c2.608-.258,5.14-.558,7.638-.873V318.849c-2.5.334-5.03.634-7.638.9"/><path class="cls-10" d="M289.7,320.733V347.42c2.494.167,5.045.339,7.615.467V321.176c-2.57-.129-5.121-.276-7.615-.443"/><path class="cls-10" d="M335.457,321.176v26.711c2.589-.129,5.121-.3,7.639-.467V320.733c-2.517.167-5.049.315-7.639.443"/><path class="cls-10" d="M316.385,321.643c-1.263,0-2.551-.019-3.819-.019v26.692c1.268.019,2.556.038,3.819.038,1.287,0,2.551-.019,3.819-.038V321.624c-1.268,0-2.532.019-3.819.019"/></g><path class="cls-11" d="M401.114,288.734c-10.823,9.536-49.769,17.656-96.163,17.656-36.285,0-67.983-4.973-85.287-11.7a6.341,6.341,0,0,0-2.46,4.563c0,11.582,44.405,22.386,99.181,22.386s99.181-10.8,99.181-22.386c0-4.005-5.288-7.562-14.452-10.523"/><path class="cls-12" d="M327.843,264.426c-50.4,0-91.991-9.593-98.328-20.155-14.786,3.357-23.745,7.824-23.745,13.022,0,11.586,44.4,22.386,99.181,22.386s99.181-10.8,99.181-22.386a4.811,4.811,0,0,0-.3-1.507c-18.176,5.121-45.483,8.64-75.989,8.64"/><path class="cls-13" d="M400.275,201.678c-11.863,9.217-50.027,16.965-95.324,16.965-29.262,0-55.543-3.218-73.7-8.006-1.678,1.488-2.589,3.052-2.589,4.692,0,11.586,44.4,22.386,99.181,22.386,54.757,0,99.157-10.8,99.157-22.386,0-5.531-10.146-10.242-26.725-13.651"/><circle class="cls-2" cx="191.297" cy="257.277" r="100.348"/><circle class="cls-14" cx="183.348" cy="257.277" r="100.348"/><circle class="cls-15" cx="183.348" cy="257.277" r="75.845"/><path class="cls-16" d="M171.68,287.614c-2.334-2.334-3.5-5.834-4.667-10.5l-19.836,2.334c1.167,9.335,4.667,17.5,10.5,22.17,5.834,5.834,12.835,8.168,21,9.335v9.335h10.5v-10.5c9.335-1.167,17.5-4.667,22.17-11.668,5.834-5.834,8.168-14,8.168-22.17s-2.334-15.169-7-19.836-12.835-9.335-24.5-12.835V216.437c4.667,2.334,8.168,5.834,9.335,11.668l18.669-2.334a32.1,32.1,0,0,0-9.335-17.5c-4.667-4.667-10.5-7-18.669-8.168v-8.168h-10.5v7c-8.168,1.167-15.169,3.5-21,9.335-4.667,5.834-8.168,12.835-8.168,21a32.578,32.578,0,0,0,7,21c4.667,5.834,11.668,9.335,21,12.835v31.5A17.942,17.942,0,0,1,171.68,287.614Zm17.5-21c4.667,1.167,8.168,3.5,9.335,5.834s3.5,5.834,3.5,8.168a13.25,13.25,0,0,1-3.5,9.335c-2.334,2.334-5.834,4.667-9.335,4.667Zm-17.5-30.338c-1.167-2.334-2.334-4.667-2.334-7a21.633,21.633,0,0,1,2.334-8.168c1.167-2.334,3.5-3.5,7-4.667v25.67A11.95,11.95,0,0,1,171.68,236.273Z"/></svg>