<svg id="Layer_1" data-name="Layer 1" xmlns="http://www.w3.org/2000/svg" viewBox="0 0 508 505.85"><defs><style>.cls-1{fill:none;stroke:#464648;stroke-linecap:round;stroke-linejoin:round;stroke-width:20px;}.cls-2{fill:#464648;}</style></defs><title>Icon-My-Trips</title><line class="cls-1" x1="155.5" y1="396.52" x2="352.5" y2="396.52"/><path class="cls-1" d="M461.91,376.93A38.66,38.66,0,0,1,500,338.27V282.55a27.7,27.7,0,0,0-27.62-27.62H39.62A27.7,27.7,0,0,0,12,282.55v55.71a38.67,38.67,0,1,1,0,77.33V471.3a27.7,27.7,0,0,0,27.62,27.62H472.38A27.7,27.7,0,0,0,500,471.3V415.58A38.66,38.66,0,0,1,461.91,376.93Z" transform="translate(-2 -3.07)"/><rect class="cls-1" x="103.24" y="302.52" width="304" height="144.67" rx="12" ry="12"/><line class="cls-1" x1="290.15" y1="250.42" x2="338.91" y2="200.58"/><path class="cls-1" d="M430.58,253.5,491.41,192a27.7,27.7,0,0,0-.43-39.06l-39.83-39a38.66,38.66,0,0,1-55.26-54.06l-39.83-39a27.7,27.7,0,0,0-39.06.43L155.21,186.72" transform="translate(-2 -3.07)"/><path class="cls-1" d="M162.91,251.59,300.67,110.48a12,12,0,0,1,17-.19l86.26,84.38a12,12,0,0,1,.19,17l-42.84,43.28" transform="translate(-2 -3.07)"/><circle class="cls-2" cx="130.27" cy="210.54" r="10.8" transform="translate(-112.72 150.7) rotate(-45)"/></svg>