<?xml version="1.0" encoding="utf-8"?>
<!-- Generator: Adobe Illustrator 26.0.2, SVG Export Plug-In . SVG Version: 6.00 Build 0)  -->
<svg version="1.1" xmlns="http://www.w3.org/2000/svg" xmlns:xlink="http://www.w3.org/1999/xlink" x="0px" y="0px" width="512px"
	 height="512px" viewBox="0 0 512 512" style="enable-background:new 0 0 512 512;" xml:space="preserve">
<style type="text/css">
	.st0{fill:#FFFFFF;}
	.st1{fill:#FF5C60;}
	.st2{opacity:0.14;fill:#F15A24;}
	.st3{opacity:0.67;fill:url(#SVGID_1_);}
	.st4{opacity:0.67;fill:url(#SVGID_00000062163363282055986970000011199257342750670769_);}
	.st5{opacity:0.67;fill:url(#SVGID_00000183952897041152594410000001810122616351776401_);}
	.st6{clip-path:url(#SVGID_00000080928249391171615060000004515926052274861491_);fill:#FFA736;}
	.st7{clip-path:url(#SVGID_00000080928249391171615060000004515926052274861491_);fill:#FFA637;}
	.st8{clip-path:url(#SVGID_00000080928249391171615060000004515926052274861491_);fill:#FFA537;}
	.st9{clip-path:url(#SVGID_00000080928249391171615060000004515926052274861491_);fill:#FFA438;}
	.st10{clip-path:url(#SVGID_00000080928249391171615060000004515926052274861491_);fill:#FFA339;}
	.st11{clip-path:url(#SVGID_00000080928249391171615060000004515926052274861491_);fill:#FFA239;}
	.st12{clip-path:url(#SVGID_00000080928249391171615060000004515926052274861491_);fill:#FFA13A;}
	.st13{clip-path:url(#SVGID_00000080928249391171615060000004515926052274861491_);fill:#FFA03B;}
	.st14{clip-path:url(#SVGID_00000080928249391171615060000004515926052274861491_);fill:#FF9F3B;}
	.st15{clip-path:url(#SVGID_00000080928249391171615060000004515926052274861491_);fill:#FF9E3C;}
	.st16{clip-path:url(#SVGID_00000080928249391171615060000004515926052274861491_);fill:#FF9D3D;}
	.st17{clip-path:url(#SVGID_00000080928249391171615060000004515926052274861491_);fill:#FF9C3D;}
	.st18{clip-path:url(#SVGID_00000080928249391171615060000004515926052274861491_);fill:#FF9A3E;}
	.st19{clip-path:url(#SVGID_00000080928249391171615060000004515926052274861491_);fill:#FF993E;}
	.st20{clip-path:url(#SVGID_00000080928249391171615060000004515926052274861491_);fill:#FF983F;}
	.st21{clip-path:url(#SVGID_00000080928249391171615060000004515926052274861491_);fill:#FF9740;}
	.st22{clip-path:url(#SVGID_00000080928249391171615060000004515926052274861491_);fill:#FF9640;}
	.st23{clip-path:url(#SVGID_00000080928249391171615060000004515926052274861491_);fill:#FF9541;}
	.st24{clip-path:url(#SVGID_00000080928249391171615060000004515926052274861491_);fill:#FF9442;}
	.st25{clip-path:url(#SVGID_00000080928249391171615060000004515926052274861491_);fill:#FF9342;}
	.st26{clip-path:url(#SVGID_00000080928249391171615060000004515926052274861491_);fill:#FF9243;}
	.st27{clip-path:url(#SVGID_00000080928249391171615060000004515926052274861491_);fill:#FF9144;}
	.st28{clip-path:url(#SVGID_00000080928249391171615060000004515926052274861491_);fill:#FF9044;}
	.st29{clip-path:url(#SVGID_00000080928249391171615060000004515926052274861491_);fill:#FF8F45;}
	.st30{opacity:0.14;fill:#F15A24;enable-background:new    ;}
	.st31{opacity:0.47;fill:#F97E48;enable-background:new    ;}
	.st32{fill:url(#SVGID_00000073685531255062291190000003345728976217295519_);}
	.st33{fill:url(#SVGID_00000020399335255777489650000002526095610072971689_);}
	.st34{fill:#FFB654;}
	.st35{fill:url(#SVGID_00000064351200152317029310000005147356439124438428_);}
	.st36{fill:url(#SVGID_00000075841318613054681450000002055069730948192142_);}
	.st37{fill:url(#SVGID_00000183227844322172981920000010358787211368795264_);}
	.st38{fill:url(#SVGID_00000068661383183242370310000004960529932421301896_);}
	.st39{fill:#FF7B34;}
	.st40{opacity:0.3;fill:#CD4927;enable-background:new    ;}
	.st41{opacity:0.3;}
	.st42{fill:#CD4927;}
	.st43{clip-path:url(#SVGID_00000141427922403046740580000005891204297921132181_);}
	.st44{fill:#FFC263;}
	.st45{fill:#FF7600;}
	.st46{fill:url(#SVGID_00000001647395968117773010000014119193813846327184_);}
	.st47{opacity:0.2;fill:#CD4927;enable-background:new    ;}
	.st48{fill:url(#SVGID_00000065759035678450046490000008472414854141604510_);}
	.st49{opacity:0.6;fill:#CD4927;enable-background:new    ;}
	.st50{fill:#FFC369;}
	.st51{fill:#FFCA6C;}
	.st52{fill:url(#SVGID_00000150789093306222690650000018198615991821063067_);}
	.st53{fill:url(#SVGID_00000095334448192163172610000014774883560430687420_);}
	.st54{opacity:0.3;fill:#CE471D;enable-background:new    ;}
	.st55{opacity:0.44;fill:#CE471D;enable-background:new    ;}
	.st56{opacity:0.47;fill:#EE7D4A;enable-background:new    ;}
	.st57{fill:url(#SVGID_00000125582426746578628340000017955237689999047853_);}
	.st58{fill:#EE7A3B;}
	.st59{opacity:0.6;fill:#CC4A27;enable-background:new    ;}
	.st60{opacity:0.3;fill:#CC4A27;enable-background:new    ;}
	.st61{fill:#FAC16B;}
	.st62{fill:#FCC86E;}
	.st63{fill:url(#SVGID_00000137107861751138408020000015876547532922086806_);}
	.st64{fill:url(#SVGID_00000077282593607308029730000003565151472281595802_);}
	.st65{opacity:0.4;fill:#CE471D;enable-background:new    ;}
	.st66{fill:url(#SVGID_00000101796099909862705140000009213798989702784682_);}
	.st67{fill:#CE471D;}
	.st68{fill:#FF8F45;}
	.st69{fill:none;stroke:#D6D6D6;stroke-miterlimit:10;}
	.st70{fill:#464647;}
	.st71{fill:#E5E5E5;stroke:#D6D6D6;stroke-miterlimit:10;}
	.st72{fill:#FF5A5E;}
	.st73{fill:url(#SVGID_00000168084650771247888820000004325334154388593038_);}
	.st74{fill:url(#SVGID_00000137114125274308748030000007566941364756062602_);}
	.st75{opacity:0.42;fill:#F15A24;}
	.st76{fill:url(#SVGID_00000001633932855224575500000014260998404113186978_);}
	.st77{fill:url(#SVGID_00000021109739050809518400000012123347551084643774_);}
	.st78{fill:url(#SVGID_00000126298033582996469180000000001157850064904622_);}
	.st79{fill:url(#SVGID_00000011731434647553185500000013339448082160036793_);}
	.st80{opacity:0.67;fill:url(#SVGID_00000153680440924335210810000016180986227388248721_);}
	.st81{opacity:0.67;fill:url(#SVGID_00000144324423109918763030000006396119957994151341_);}
	.st82{opacity:0.67;fill:url(#SVGID_00000073709460835654399410000001618618031044283049_);}
	.st83{clip-path:url(#SVGID_00000033349300398418512520000012265536655283448203_);fill:#FFA736;}
	.st84{clip-path:url(#SVGID_00000033349300398418512520000012265536655283448203_);fill:#FFA637;}
	.st85{clip-path:url(#SVGID_00000033349300398418512520000012265536655283448203_);fill:#FFA537;}
	.st86{clip-path:url(#SVGID_00000033349300398418512520000012265536655283448203_);fill:#FFA438;}
	.st87{clip-path:url(#SVGID_00000033349300398418512520000012265536655283448203_);fill:#FFA339;}
	.st88{clip-path:url(#SVGID_00000033349300398418512520000012265536655283448203_);fill:#FFA239;}
	.st89{clip-path:url(#SVGID_00000033349300398418512520000012265536655283448203_);fill:#FFA13A;}
	.st90{clip-path:url(#SVGID_00000033349300398418512520000012265536655283448203_);fill:#FFA03B;}
	.st91{clip-path:url(#SVGID_00000033349300398418512520000012265536655283448203_);fill:#FF9F3B;}
	.st92{clip-path:url(#SVGID_00000033349300398418512520000012265536655283448203_);fill:#FF9E3C;}
	.st93{clip-path:url(#SVGID_00000033349300398418512520000012265536655283448203_);fill:#FF9D3D;}
	.st94{clip-path:url(#SVGID_00000033349300398418512520000012265536655283448203_);fill:#FF9C3D;}
	.st95{clip-path:url(#SVGID_00000033349300398418512520000012265536655283448203_);fill:#FF9A3E;}
	.st96{clip-path:url(#SVGID_00000033349300398418512520000012265536655283448203_);fill:#FF993E;}
	.st97{clip-path:url(#SVGID_00000033349300398418512520000012265536655283448203_);fill:#FF983F;}
	.st98{clip-path:url(#SVGID_00000033349300398418512520000012265536655283448203_);fill:#FF9740;}
	.st99{clip-path:url(#SVGID_00000033349300398418512520000012265536655283448203_);fill:#FF9640;}
	.st100{clip-path:url(#SVGID_00000033349300398418512520000012265536655283448203_);fill:#FF9541;}
	.st101{clip-path:url(#SVGID_00000033349300398418512520000012265536655283448203_);fill:#FF9442;}
	.st102{clip-path:url(#SVGID_00000033349300398418512520000012265536655283448203_);fill:#FF9342;}
	.st103{clip-path:url(#SVGID_00000033349300398418512520000012265536655283448203_);fill:#FF9243;}
	.st104{clip-path:url(#SVGID_00000033349300398418512520000012265536655283448203_);fill:#FF9144;}
	.st105{clip-path:url(#SVGID_00000033349300398418512520000012265536655283448203_);fill:#FF9044;}
	.st106{clip-path:url(#SVGID_00000033349300398418512520000012265536655283448203_);fill:#FF8F45;}
	.st107{fill:url(#SVGID_00000075163793699863302510000000091589383790127494_);}
	.st108{fill:url(#SVGID_00000161624131535734486020000017613320090615157433_);}
	.st109{fill:url(#SVGID_00000168097560769706620570000017852581247003128230_);}
	.st110{fill:url(#SVGID_00000032626967034738242660000011413481305316853437_);}
	.st111{fill:url(#SVGID_00000090289756452361024620000002381780316039444129_);}
	.st112{fill:url(#SVGID_00000144312194847353455330000011735142238986351770_);}
</style>
<g id="Background">
</g>
<g id="Layer_2">
	<g>
		<path class="st70" d="M263.3,200.9H154.7c-5.5,0-10,4.5-10,10c0,5.5,4.5,10,10,10h108.6c5.5,0,10-4.5,10-10
			C273.3,205.4,268.8,200.9,263.3,200.9z"/>
		<path class="st70" d="M375.8,161c0-5.5-4.5-10-10-10H154.7c-5.5,0-10,4.5-10,10c0,5.5,4.5,10,10,10h211.1
			C371.3,171,375.8,166.5,375.8,161z"/>
		<path class="st70" d="M502.1,158.5c5.5-0.1,9.9-4.5,9.9-10V81.2c0-20.9-17-37.9-37.9-37.9H37.9C17,43.3,0,60.3,0,81.2v67.2
			c0,5.5,4.5,10,10,10c16,0,29,13,29,29c0,16-13,29-29,29c-5.5,0-10,4.5-10,10v67.2c0,20.9,17,37.9,37.9,37.9h201.9
			c-1.2,6.7-1.8,13.6-1.8,20.6c0,64.4,52.2,116.5,116.5,116.5c64.4,0,116.5-52.2,116.5-116.5c0-7-0.6-13.9-1.8-20.6h4.9
			c20.9,0,37.9-17,37.9-37.9v-67.2c0-5.5-4.4-9.9-9.9-10c-15.7-0.2-28.5-13.2-28.5-29S486.4,158.7,502.1,158.5z M116,261.4
			c-1.1,0-2-0.9-2-2v-144c0-1.1,0.9-2,2-2h282.5c1.1,0,2,0.9,2,2V245c-14.1-6.1-29.6-9.4-46-9.4c-27.7,0-53.2,9.7-73.2,25.8H116z
			 M402.4,385.6c3.9,3.9,3.9,10.2,0,14.2c-2,2-4.5,2.9-7.1,2.9c-2.6,0-5.1-1-7.1-2.9l-33.5-33.5l-33.5,33.5c-2,2-4.5,2.9-7.1,2.9
			c-2.6,0-5.1-1-7.1-2.9c-3.9-3.9-3.9-10.2,0-14.2l33.5-33.5l-33.5-33.5c-3.9-3.9-3.9-10.2,0-14.2c3.9-3.9,10.2-3.9,14.2,0
			l33.5,33.5l33.5-33.5c3.9-3.9,10.2-3.9,14.2,0c3.9,3.9,3.9,10.2,0,14.2l-33.5,33.5L402.4,385.6z M492,235.2v58.4
			c0,9.8-8,17.8-17.8,17.8h-10.4c-8.4-22.6-23.7-41.9-43.3-55.4V115.4c0-12.1-9.9-22-22-22H116c-12.1,0-22,9.9-22,22v144
			c0,12.1,9.9,22,22,22h145.8c-6.9,9.1-12.6,19.2-16.6,30.1H37.9c-9.8,0-17.8-8-17.8-17.8v-58.3c22.2-4.6,39-24.4,39-48
			c0-23.6-16.8-43.3-39-48V81.2c0-9.8,8-17.8,17.8-17.8h436.3c9.8,0,17.8,8,17.8,17.8v58.4c-21.9,4.9-38.4,24.6-38.4,47.8
			S470.1,230.3,492,235.2z"/>
	</g>
</g>
</svg>
