<svg id="Layer_1" data-name="Layer 1" xmlns="http://www.w3.org/2000/svg" xmlns:xlink="http://www.w3.org/1999/xlink" viewBox="0 0 512 512"><defs><style>.cls-1{fill:#f15a24;}.cls-1,.cls-5{opacity:0.14;}.cls-2,.cls-3,.cls-4{opacity:0.67;}.cls-2{fill:url(#radial-gradient);}.cls-3{fill:url(#radial-gradient-2);}.cls-4{fill:url(#radial-gradient-3);}.cls-13,.cls-15,.cls-5,.cls-7,.cls-9{fill:#ce471d;}.cls-6{fill:#ff8f45;}.cls-7{opacity:0.3;}.cls-8{fill:url(#linear-gradient);}.cls-9{opacity:0.4;}.cls-10{fill:url(#linear-gradient-2);}.cls-11{fill:#fff;}.cls-12{fill:url(#radial-gradient-4);}.cls-13{opacity:0.8;}.cls-14{fill:#ffb954;}.cls-16{fill:#ffc85e;}</style><radialGradient id="radial-gradient" cx="-3855.761" cy="1872.259" r="8.869" gradientTransform="translate(3957.344 -1736.148)" gradientUnits="userSpaceOnUse"><stop offset="0" stop-color="#f7931e"/><stop offset="1" stop-color="#f15a24"/></radialGradient><radialGradient id="radial-gradient-2" cx="1996.604" cy="-3860.435" r="12.403" gradientTransform="translate(-3423.734 -1817.15) rotate(90)" xlink:href="#radial-gradient"/><radialGradient id="radial-gradient-3" cx="2073.697" cy="-3560.527" r="8.869" gradientTransform="translate(-3281.529 -1628.18) rotate(90)" xlink:href="#radial-gradient"/><linearGradient id="linear-gradient" x1="280.667" y1="366.764" x2="348.759" y2="366.764" gradientUnits="userSpaceOnUse"><stop offset="0" stop-color="#ffa736"/><stop offset="0.487" stop-color="#ff8f45"/><stop offset="0.984" stop-color="#ff8f45"/></linearGradient><linearGradient id="linear-gradient-2" x1="113.787" y1="235.871" x2="391.481" y2="235.871" xlink:href="#linear-gradient"/><radialGradient id="radial-gradient-4" cx="252.634" cy="235.871" r="62.081" xlink:href="#linear-gradient"/></defs><title>Our-mision</title><circle class="cls-1" cx="256" cy="256" r="254.5"/><circle class="cls-2" cx="101.388" cy="137.863" r="3.893" transform="translate(-67.788 112.071) rotate(-45)"/><circle class="cls-3" cx="434.251" cy="179.181" r="5.444" transform="translate(0.489 359.543) rotate(-45)"/><circle class="cls-4" cx="277.246" cy="445.323" r="3.893" transform="translate(-233.687 326.475) rotate(-45)"/><rect class="cls-5" x="132.734" y="380.238" width="242.109" height="34.737" rx="16.5" ry="16.5"/><path class="cls-6" d="M186.986,337.449l-30.047,53.464A3.493,3.493,0,0,0,160,396.079h35.47a3.493,3.493,0,0,0,3.064-1.815l26.06-46.089Z"/><path class="cls-7" d="M186.986,337.449l-30.047,53.464A3.493,3.493,0,0,0,160,396.079h35.47a3.493,3.493,0,0,0,3.064-1.815l26.06-46.089Z"/><path class="cls-8" d="M318.279,337.449l30.047,53.464a3.493,3.493,0,0,1-3.065,5.167h-35.47a3.493,3.493,0,0,1-3.064-1.815l-26.06-46.089Z"/><path class="cls-9" d="M186.986,337.449,169.86,368.043s3.276,4.145,16.688,10.013a90.347,90.347,0,0,0,18.023,6.008L224.6,348.175Z"/><path class="cls-6" d="M318.279,337.449l30.047,53.464a3.493,3.493,0,0,1-3.065,5.167h-35.47a3.493,3.493,0,0,1-3.064-1.815l-26.06-46.089Z"/><path class="cls-7" d="M318.279,337.449l30.047,53.464a3.493,3.493,0,0,1-3.065,5.167h-35.47a3.493,3.493,0,0,1-3.064-1.815l-26.06-46.089Z"/><path class="cls-9" d="M318.279,337.449,335.4,368.043s-3.276,4.145-16.688,10.013a90.347,90.347,0,0,1-18.023,6.008l-20.026-35.889Z"/><path class="cls-10" d="M391.481,235.871A138.847,138.847,0,1,1,252.634,97.024,138.847,138.847,0,0,1,391.481,235.871Zm0,0"/><path class="cls-11" d="M354.1,235.871A101.465,101.465,0,1,1,252.634,134.406,101.467,101.467,0,0,1,354.1,235.871Zm0,0"/><path class="cls-12" d="M314.714,235.871a62.081,62.081,0,1,1-62.081-62.081,62.079,62.079,0,0,1,62.081,62.081Zm0,0"/><path class="cls-6" d="M284.008,235.871A31.374,31.374,0,1,1,252.634,204.5a31.373,31.373,0,0,1,31.374,31.374Zm0,0"/><path class="cls-13" d="M284.008,235.871A31.374,31.374,0,1,1,252.634,204.5a31.373,31.373,0,0,1,31.374,31.374Zm0,0"/><path class="cls-14" d="M376.746,207.884l-27.987,27.987,27.987,27.987h65.468l-27.987-27.987,27.987-27.987Zm0,0"/><polyline class="cls-15" points="414.226 235.871 442.213 207.835 376.795 207.835 348.759 235.871"/><polyline class="cls-15" points="414.226 236.539 442.213 264.575 376.795 264.575 348.759 236.539"/><path class="cls-16" d="M420.383,242.348H257.427a6.477,6.477,0,0,1,0-12.954H420.383a6.477,6.477,0,1,1,0,12.954Z"/><polygon class="cls-16" points="283.23 257.833 261.256 235.871 283.23 213.91 264.582 213.91 242.621 235.871 264.582 257.833 283.23 257.833"/></svg>