<svg id="Layer_1" data-name="Layer 1" xmlns="http://www.w3.org/2000/svg" xmlns:xlink="http://www.w3.org/1999/xlink" viewBox="0 0 512 512"><defs><style>.cls-1,.cls-10{fill:#f15a24;}.cls-1,.cls-5{opacity:0.14;}.cls-2,.cls-3,.cls-4{opacity:0.67;}.cls-2{fill:url(#radial-gradient);}.cls-3{fill:url(#radial-gradient-2);}.cls-4{fill:url(#radial-gradient-3);}.cls-5,.cls-7{fill:#ce471d;}.cls-6{fill:#ff8f45;}.cls-7{opacity:0.4;}.cls-8{fill:#fff;opacity:0.5;}.cls-9{opacity:0.3;}.cls-11{fill:url(#linear-gradient);}.cls-12{fill:url(#linear-gradient-2);}</style><radialGradient id="radial-gradient" cx="-4026.811" cy="2275.31" r="8.869" gradientTransform="translate(4121.394 -2146.199)" gradientUnits="userSpaceOnUse"><stop offset="0" stop-color="#f7931e"/><stop offset="1" stop-color="#f15a24"/></radialGradient><radialGradient id="radial-gradient-2" cx="1806.462" cy="-4279.749" r="12.403" gradientTransform="translate(-3852.049 -1645.008) rotate(90)" xlink:href="#radial-gradient"/><radialGradient id="radial-gradient-3" cx="1881.435" cy="-3994.691" r="8.869" gradientTransform="translate(-3715.693 -1465.917) rotate(90)" xlink:href="#radial-gradient"/><linearGradient id="linear-gradient" x1="69" y1="242.177" x2="220.768" y2="242.177" gradientUnits="userSpaceOnUse"><stop offset="0" stop-color="#ffa736"/><stop offset="0.487" stop-color="#ff8f45"/><stop offset="0.984" stop-color="#ff8f45"/></linearGradient><linearGradient id="linear-gradient-2" x1="291.232" y1="242.177" x2="443" y2="242.177" xlink:href="#linear-gradient"/></defs><title>Our-vision</title><circle class="cls-1" cx="256" cy="256" r="254.5"/><circle class="cls-2" cx="94.388" cy="130.863" r="3.893" transform="translate(-64.888 105.071) rotate(-45)"/><circle class="cls-3" cx="425.251" cy="161.181" r="5.444" transform="translate(10.581 347.907) rotate(-45)"/><circle class="cls-4" cx="277.246" cy="415.323" r="3.893" transform="translate(-212.474 317.688) rotate(-45)"/><rect class="cls-5" x="93.914" y="300.897" width="331.019" height="44.81" rx="22.405" ry="22.405"/><path class="cls-6" d="M279.266,191.588a25.3,25.3,0,0,0-46.531,0H195.473l16.261,75.884H222.3a37.036,37.036,0,0,1,67.406,0h11.466l16.261-75.884Z"/><path class="cls-7" d="M279.266,191.588a25.3,25.3,0,0,0-46.531,0H195.473l16.261,75.884H222.3a37.036,37.036,0,0,1,67.406,0h11.466l16.261-75.884Z"/><circle class="cls-8" cx="144.884" cy="242.177" r="65.947"/><circle class="cls-8" cx="367.116" cy="242.177" r="65.947"/><g class="cls-9"><path class="cls-10" d="M132.237,298.187a56.01,56.01,0,0,0,0-112.019V175.327c41.842,0,75.884,25.008,75.884,66.85s-34.042,68.657-75.884,68.657Z"/></g><g class="cls-9"><path class="cls-10" d="M356.275,298.187a56.01,56.01,0,0,0,0-112.019V175.327c41.842,0,75.884,25.008,75.884,66.85s-34.042,68.657-75.884,68.657Z"/></g><path class="cls-11" d="M144.884,318.061a75.884,75.884,0,1,1,75.884-75.884A75.97,75.97,0,0,1,144.884,318.061Zm0-131.894a56.01,56.01,0,1,0,56.01,56.01A56.074,56.074,0,0,0,144.884,186.168Z"/><path class="cls-12" d="M367.116,318.061A75.884,75.884,0,1,1,443,242.177,75.97,75.97,0,0,1,367.116,318.061Zm0-131.894a56.01,56.01,0,1,0,56.01,56.01A56.074,56.074,0,0,0,367.116,186.168Z"/></svg>