<svg id="Layer_1" data-name="Layer 1" xmlns="http://www.w3.org/2000/svg" xmlns:xlink="http://www.w3.org/1999/xlink" viewBox="0 0 512 512"><defs><style>.cls-1{fill:#f15a24;opacity:0.14;}.cls-2{fill:url(#linear-gradient);}.cls-3{fill:#ff8f45;}.cls-4{fill:#ff5a5e;}.cls-5{fill:#ffb654;}.cls-6{fill:#fff;}.cls-7,.cls-8,.cls-9{opacity:0.67;}.cls-7{fill:url(#radial-gradient);}.cls-8{fill:url(#radial-gradient-2);}.cls-9{fill:url(#radial-gradient-3);}</style><linearGradient id="linear-gradient" x1="221.318" y1="120.384" x2="323.456" y2="399.438" gradientUnits="userSpaceOnUse"><stop offset="0" stop-color="#ffaf41"/><stop offset="0.466" stop-color="#ffa736"/><stop offset="1" stop-color="#ff8f45"/></linearGradient><radialGradient id="radial-gradient" cx="-732.316" cy="-1852.265" r="8.817" gradientTransform="translate(897.18 1897.031)" gradientUnits="userSpaceOnUse"><stop offset="0" stop-color="#f7931e"/><stop offset="1" stop-color="#f15a24"/></radialGradient><radialGradient id="radial-gradient-2" cx="2575.791" cy="917.319" r="12.33" gradientTransform="translate(1399.283 -2313.103) rotate(90)" xlink:href="#radial-gradient"/><radialGradient id="radial-gradient-3" cx="2439.241" cy="1258.154" r="12.33" gradientTransform="translate(1402.555 -2032.102) rotate(90)" xlink:href="#radial-gradient"/></defs><title>Secure-transport</title><circle class="cls-1" cx="256" cy="256" r="255"/><path class="cls-2" d="M256,86.909c-53.8,56.538-143.175,43.773-143.175,43.773v153.2c0,90.281,143.175,153.2,143.175,153.2s143.175-62.923,143.175-153.2v-153.2S309.8,143.447,256,86.909Z"/><path class="cls-3" d="M256,122.543c-42.836,45.033-114.03,34.881-114.03,34.881V279.447c0,71.9,114.03,122.01,114.03,122.01s114.037-50.119,114.037-122.022V157.412S298.833,167.576,256,122.543Z"/><path class="cls-4" d="M256,122.543c-42.836,45.033-114.03,34.881-114.03,34.881V279.447c0,71.9,114.03,122.01,114.03,122.01s114.037-50.119,114.037-122.022V157.412S298.833,167.576,256,122.543Z"/><path class="cls-5" d="M256,148.312c-34.921,36.712-92.96,28.436-92.96,28.436v99.475c0,58.612,92.96,99.465,92.96,99.465s92.965-40.857,92.965-99.475V176.738S290.918,185.024,256,148.312Z"/><polygon class="cls-6" points="247.527 314.337 196.56 271.755 210.083 255.564 243.477 283.468 298.194 205.889 315.44 218.045 247.527 314.337"/><circle class="cls-7" cx="164.671" cy="46.508" r="3.87" transform="translate(15.345 130.062) rotate(-45)"/><circle class="cls-8" cx="479.528" cy="262.418" r="5.412" transform="translate(-45.107 415.938) rotate(-45)"/><circle class="cls-9" cx="141.967" cy="406.868" r="5.412" transform="translate(-246.118 219.555) rotate(-45)"/></svg>