<svg id="Layer_1" data-name="Layer 1" xmlns="http://www.w3.org/2000/svg" xmlns:xlink="http://www.w3.org/1999/xlink" viewBox="0 0 512 512"><defs><style>.cls-1{fill:#fff;}.cls-2{fill:#f15a24;opacity:0.14;}.cls-3,.cls-4,.cls-5{opacity:0.67;}.cls-3{fill:url(#radial-gradient);}.cls-4{fill:url(#radial-gradient-2);}.cls-5{fill:url(#radial-gradient-3);}.cls-6{fill:url(#linear-gradient);}.cls-7{fill:#ff5c60;}</style><radialGradient id="radial-gradient" cx="-586.011" cy="1224.007" r="8.817" gradientTransform="translate(727.879 -1132.241)" gradientUnits="userSpaceOnUse"><stop offset="0" stop-color="#f7931e"/><stop offset="1" stop-color="#f15a24"/></radialGradient><radialGradient id="radial-gradient-2" cx="223.887" cy="-1098.291" r="12.33" gradientTransform="translate(-658.323 9.801) rotate(90)" xlink:href="#radial-gradient"/><radialGradient id="radial-gradient-3" cx="121.048" cy="-751.534" r="8.817" gradientTransform="translate(-629.628 284.603) rotate(90)" xlink:href="#radial-gradient"/><linearGradient id="linear-gradient" x1="256" y1="143.265" x2="256" y2="393.613" gradientUnits="userSpaceOnUse"><stop offset="0" stop-color="#ffa736"/><stop offset="0.582" stop-color="#ff8f45"/><stop offset="0.984" stop-color="#ff8f45"/></linearGradient></defs><title>User-Home</title><circle class="cls-1" cx="256" cy="256" r="256"/><circle class="cls-2" cx="256" cy="256" r="256"/><circle class="cls-3" cx="141.675" cy="93.508" r="3.87" transform="translate(-24.624 127.567) rotate(-45)"/><circle class="cls-4" cx="437.532" cy="233.418" r="5.412" transform="translate(-36.901 377.749) rotate(-45)"/><circle class="cls-5" cx="120.165" cy="405.457" r="3.87" transform="translate(-251.506 203.725) rotate(-45)"/><circle class="cls-6" cx="256" cy="256" r="132.392"/><path class="cls-1" d="M256,393.892c-76.033,0-137.892-61.858-137.892-137.892S179.967,118.108,256,118.108,393.892,179.967,393.892,256,332.033,393.892,256,393.892Zm0-264.783A126.892,126.892,0,1,0,382.892,256,127.035,127.035,0,0,0,256,129.108Z"/><circle class="cls-1" cx="258.184" cy="243.664" r="38.934"/><path class="cls-1" d="M318.724,345.75c0,27.745-28.874,39.642-61.475,39.642s-63.973-8.169-63.973-35.914S224.648,285.5,257.249,285.5,318.724,318,318.724,345.75Z"/><circle class="cls-7" cx="424.287" cy="62.63" r="30.37"/></svg>