<?xml version="1.0" encoding="utf-8"?>
<!-- Generator: Adobe Illustrator 25.0.0, SVG Export Plug-In . SVG Version: 6.00 Build 0)  -->
<svg version="1.1" id="Capa_1" xmlns="http://www.w3.org/2000/svg" xmlns:xlink="http://www.w3.org/1999/xlink" x="0px" y="0px"
	 width="160px" height="51px" viewBox="0 0 160 51" style="enable-background:new 0 0 160 51;" xml:space="preserve">
<style type="text/css">
	.st0{fill:#009FE3;}
	.st1{fill:#6B1A6B;}
	.st2{fill:#D6006D;}
</style>
<g>
	<g>
		<path class="st0" d="M9.9,44.1c0.5,0,0.9-0.4,0.9-0.9c0-0.5-0.4-0.9-0.9-0.9c-0.5,0-0.9,0.4-0.9,0.9C9.1,43.7,9.5,44.1,9.9,44.1"
			/>
		<path class="st1" d="M76.8,50.9c0.5,0,0.9-0.4,0.9-0.9c0-0.5-0.4-0.9-0.9-0.9c-0.5,0-0.9,0.4-0.9,0.9
			C75.9,50.5,76.3,50.9,76.8,50.9"/>
		<path class="st2" d="M35.9,45.6L35.9,45.6c0-1-0.3-1.8-0.9-2.3l0,0l0,0h0c-0.6-0.5-1.4-0.8-2.3-0.8c0,0,0,0,0,0c0,0,0,0,0,0l0,0
			c0,0,0,0-0.1,0c0,0,0,0,0,0l0,0c0,0,0,0,0,0h0c0,0,0,0,0,0c0,0,0,0,0,0c-0.9,0-1.7,0.3-2.3,0.8h0l-0.1,0c-0.6,0.6-0.9,1.4-0.9,2.3
			l0,0l0,0l0,5c0,0.1,0,0.1,0.1,0.2c0,0,0.1,0.1,0.2,0.1h0.9c0.1,0,0.1,0,0.2-0.1c0.1,0,0.1-0.1,0.1-0.2l0-4.8
			c0-0.7,0.2-1.2,0.5-1.5c0.3-0.3,0.8-0.5,1.5-0.5c0.7,0,1.1,0.2,1.5,0.5c0.3,0.3,0.5,0.8,0.5,1.5l0,4.8c0,0.1,0,0.1,0.1,0.2
			c0.1,0,0.1,0.1,0.2,0.1h0.9c0.1,0,0.1,0,0.2-0.1c0.1,0,0.1-0.1,0.1-0.2L35.9,45.6z"/>
		<path class="st2" d="M66.9,45.6L66.9,45.6c0-1-0.3-1.8-0.9-2.3l0,0l0,0h0c-0.6-0.5-1.4-0.8-2.3-0.8c0,0,0,0,0,0c0,0,0,0,0,0l0,0
			c0,0,0,0-0.1,0c0,0,0,0,0,0l0,0c0,0,0,0,0,0h0c0,0,0,0,0,0c0,0,0,0,0,0c-0.9,0-1.7,0.3-2.3,0.8h0l-0.1,0c-0.6,0.6-0.9,1.4-0.9,2.3
			l0,0l0,0l0,5c0,0.1,0,0.1,0.1,0.2c0,0,0.1,0.1,0.2,0.1h0.9c0.1,0,0.1,0,0.2-0.1c0.1,0,0.1-0.1,0.1-0.2l0-4.8
			c0-0.7,0.2-1.2,0.5-1.5c0.3-0.3,0.8-0.5,1.5-0.5c0.7,0,1.1,0.2,1.5,0.5c0.3,0.3,0.5,0.8,0.5,1.5l0,4.8c0,0.1,0,0.1,0.1,0.2
			c0.1,0,0.1,0.1,0.2,0.1h0.9c0.1,0,0.1,0,0.2-0.1c0.1,0,0.1-0.1,0.1-0.2L66.9,45.6z"/>
		<path class="st2" d="M50.3,46.7L50.3,46.7L50.3,46.7L50.3,46.7c0,0.8-0.1,1.6-0.4,2.2c-0.3,0.5-0.8,0.9-1.7,0.9c0,0,0,0,0,0h0
			c-0.9,0-1.4-0.4-1.7-0.9c-0.3-0.6-0.4-1.3-0.4-2.1v0c0-0.8,0.1-1.4,0.4-2c0.3-0.5,0.8-0.9,1.7-0.9h0h0h0c0.9,0,1.4,0.4,1.7,0.9
			C50.2,45.2,50.3,45.9,50.3,46.7L50.3,46.7z M50.5,43.3C50.5,43.3,50.5,43.3,50.5,43.3c-0.5-0.5-1.3-0.8-2.3-0.8c0,0,0,0-0.1,0
			c-0.8,0-1.5,0.2-2.2,0.7l0,0v-0.5h0v-2.5c0-0.1,0-0.1-0.1-0.2c0,0-0.1-0.1-0.2-0.1h-0.9c-0.1,0-0.1,0-0.2,0.1
			c-0.1,0-0.1,0.1-0.1,0.2v2.5h0v5.3h0v2.5c0,0.1,0,0.1,0.1,0.2c0.1,0,0.1,0.1,0.2,0.1h0.9c0.1,0,0.1,0,0.2-0.1
			c0.1,0,0.1-0.1,0.1-0.2v-0.5c0.6,0.7,1.4,0.9,2.2,0.9h0.1c0.9,0,1.7-0.3,2.2-0.8c0.9-0.9,1.2-2.3,1.2-3.5
			C51.7,45.4,51.5,44.2,50.5,43.3"/>
		<path class="st2" d="M26.6,47.8c0,0.7-0.1,1-0.3,1.2c-0.5,0.4-1.1,0.5-1.8,0.5h0h0c-0.7,0-1.1-0.1-1.4-0.3
			c-0.2-0.2-0.4-0.4-0.4-0.9v0c0-0.4,0.1-0.7,0.4-0.9c0.3-0.2,0.7-0.3,1.3-0.3h0h2.2V47.8z M28.1,45.2L28.1,45.2
			c0-0.9-0.3-1.6-0.9-2.1c-0.6-0.5-1.4-0.7-2.5-0.7h0h0c-1.2,0-2.1,0.2-2.8,1l0,0l0,0c-0.1,0.1-0.1,0.1-0.2,0.2c0,0,0,0,0,0
			l-0.1,0.1c0,0.1-0.1,0.1-0.1,0.2c0,0.1,0,0.1,0.1,0.2l0,0c0,0,0,0,0.1,0.1l0.2,0.1l0.4,0.4c0.1,0,0.1,0.1,0.2,0.1
			c0.1,0,0.1,0,0.2-0.1l0.3-0.3h0c0.2-0.2,0.3-0.3,0.5-0.4c0.3-0.1,0.7-0.2,1.2-0.2h0l0,0c0.8,0,1.2,0.2,1.5,0.4
			c0.3,0.2,0.4,0.6,0.4,1.1c0,0,0,0,0,0v0.5h-2.3c-0.9,0-1.7,0.2-2.2,0.6c-0.6,0.4-0.9,1.1-0.9,1.8l0,0c0,0.6,0.2,1.3,0.7,1.7
			c0.6,0.6,1.4,0.8,2.5,0.8h0h0.6c1.1,0,1.8-0.3,2.3-0.8c0.5-0.5,0.7-1.3,0.7-2.3L28.1,45.2L28.1,45.2z"/>
		<path class="st2" d="M53.7,48.4L53.7,48.4c0-0.4,0.1-0.7,0.4-0.9c0.3-0.2,0.7-0.3,1.3-0.3h0h2.2v0.7c0,0.7-0.1,1-0.3,1.2
			c-0.5,0.4-1.1,0.5-1.8,0.5h0h0c-0.7,0-1.1-0.1-1.4-0.3C53.9,49.1,53.7,48.8,53.7,48.4 M59.1,45.3L59.1,45.3c0-0.9-0.3-1.6-0.9-2.1
			c-0.6-0.5-1.4-0.7-2.5-0.7h0h0c-1.2,0-2.1,0.2-2.8,1l0,0l0,0c-0.1,0.1-0.1,0.1-0.2,0.2c0,0,0,0,0,0l-0.1,0.1
			c0,0.1-0.1,0.1-0.1,0.2c0,0.1,0,0.1,0.1,0.2l0,0c0,0,0,0,0.1,0.1l0.2,0.1l0.4,0.4c0.1,0,0.1,0.1,0.2,0.1c0.1,0,0.1,0,0.2-0.1
			l0.3-0.3v0c0.2-0.2,0.3-0.3,0.5-0.4c0.3-0.1,0.7-0.2,1.2-0.2l0,0l0,0c0.8,0,1.2,0.2,1.5,0.4c0.3,0.2,0.4,0.6,0.4,1.1c0,0,0,0,0,0
			v0.5h-2.3c-0.9,0-1.7,0.2-2.2,0.6c-0.6,0.4-0.9,1.1-0.9,1.8l0,0c0,0.6,0.2,1.3,0.7,1.7c0.6,0.6,1.4,0.8,2.5,0.8h0h0.6
			c1.1,0,1.8-0.3,2.3-0.8c0.5-0.5,0.7-1.3,0.7-2.3L59.1,45.3L59.1,45.3z"/>
		<path class="st2" d="M14.4,42.5h-1.5l0-1.5h0l0-0.7c0-0.1-0.1-0.2-0.3-0.2h-0.9c-0.1,0-0.1,0-0.2,0.1c0,0-0.1,0.1-0.1,0.2v1.4h0
			v7.1c0,0.6,0.2,1.1,0.5,1.5c0.3,0.4,0.9,0.6,1.6,0.6h0H14v0h0.4c0.1,0,0.1,0,0.2-0.1c0-0.1,0.1-0.1,0.1-0.2v-0.9
			c0-0.1,0-0.1-0.1-0.2c0-0.1-0.1-0.1-0.2-0.1h-0.7c-0.1,0-0.3,0-0.4-0.1c-0.1,0-0.1,0-0.1-0.1c0,0-0.1,0-0.1-0.1
			c-0.1-0.1-0.2-0.4-0.2-0.7v-4.6h1.5c0.1,0,0.1,0,0.2-0.1c0-0.1,0.1-0.1,0.1-0.2v-0.9c0-0.1,0-0.1-0.1-0.2
			C14.5,42.5,14.5,42.5,14.4,42.5"/>
		<path class="st2" d="M20.9,43.5L20.9,43.5c-0.1-0.1-0.1-0.1-0.1-0.1l-0.1-0.1l0,0l-0.1-0.1l-0.1-0.1l0,0c-0.5-0.5-1.1-0.8-1.8-0.8
			c0,0,0,0-0.1,0c-0.5,0-1,0.2-1.4,0.6l-0.2,0.3v-0.1v-0.5c0-0.1,0-0.1-0.1-0.2c-0.1,0-0.1-0.1-0.2-0.1H16c-0.1,0-0.1,0-0.2,0.1
			c-0.1,0-0.1,0.1-0.1,0.2v0.5v7.4c0,0.1,0,0.1,0.1,0.2c0,0,0.1,0.1,0.2,0.1h0.2c0,0,0,0,0,0h0.6c0,0,0,0,0,0h0.1
			c0.1,0,0.1,0,0.2-0.1c0.1,0,0.1-0.1,0.1-0.2v-0.1c0,0,0,0,0,0v-4.7c0,0,0,0,0,0v-0.4c0-0.4,0.2-0.8,0.4-1.1
			c0.2-0.3,0.6-0.5,1.1-0.5c0.3,0,0.4,0,0.6,0.1c0.1,0.1,0.3,0.2,0.5,0.4l0,0l0.2,0.2c0,0.1,0.1,0.1,0.2,0.1c0.1,0,0.1,0,0.2-0.1
			l0.7-0.6c0.1,0,0.1-0.1,0.1-0.2C21,43.6,20.9,43.6,20.9,43.5"/>
		<path class="st2" d="M42.9,46.6C42.9,46.6,42.9,46.5,42.9,46.6L42.9,46.6c-0.5-0.4-1.2-0.5-1.9-0.5l-1.3-0.1
			c-0.5,0-0.9-0.2-1.1-0.3c-0.2-0.1-0.3-0.3-0.3-0.6v0h0l0,0c0-0.4,0.1-0.6,0.4-0.8c0.3-0.2,0.7-0.3,1.3-0.3h0h0
			c0.8,0,1.4,0.2,2,0.5l0,0l0.3,0.2c0.1,0,0.1,0.1,0.2,0c0.1,0,0.1-0.1,0.2-0.1l0.5-0.7c0-0.1,0.1-0.1,0-0.2c0,0,0-0.1,0-0.1
			c0,0,0-0.1-0.1-0.1l-0.1,0c-0.8-0.6-1.9-0.9-3-0.9c-0.9,0-1.7,0.2-2.3,0.7c-0.6,0.4-0.9,1.1-0.9,1.8l0,0v0l0,0
			c0,0.6,0.2,1.2,0.7,1.6c0.5,0.4,1.2,0.6,2,0.7l1.3,0.1c0.5,0,0.8,0.2,1,0.3c0.2,0.1,0.3,0.3,0.3,0.7v0v0c0,0.4-0.2,0.7-0.5,0.9
			c-0.3,0.2-0.9,0.3-1.6,0.3h0c0,0,0,0,0,0h0c-1,0-1.7-0.2-2.2-0.7l-0.3-0.2c-0.1,0-0.1-0.1-0.2-0.1c-0.1,0-0.1,0-0.2,0.1l-0.6,0.7
			c0,0.1-0.1,0.1-0.1,0.2c0,0.1,0,0.1,0.1,0.2l0.3,0.2l0,0c0,0,0,0,0,0l0,0l0,0c0.8,0.6,1.9,0.9,3.1,0.9h0c1,0,1.9-0.2,2.6-0.7
			c0.6-0.4,1-1.1,1-1.9v0C43.8,47.5,43.4,46.9,42.9,46.6"/>
		<path class="st2" d="M75.2,50.5L74.1,49l-2.2-3.2l1.7-1.8l1-1l0.1-0.1c0.1-0.1,0.1-0.2,0-0.3c0,0-0.1-0.1-0.2-0.1h-1.1
			c-0.1,0-0.2,0.1-0.2,0.1c0,0,0,0,0,0l-3.8,4.1v-3.4v-3c0-0.1,0-0.1-0.1-0.2C69.2,40,69.1,40,69,40h-0.9C68.1,40,68,40,68,40
			c-0.1,0-0.1,0.1-0.1,0.2v3v7.4c0,0.1,0,0.1,0.1,0.2c0.1,0,0.1,0.1,0.2,0.1H69c0.1,0,0.1,0,0.2-0.1c0.1,0,0.1-0.1,0.1-0.2v-2.1
			l1.7-1.8l1.1,1.7h0l1.6,2.3c0,0.1,0.1,0.1,0.2,0.1H75c0.1,0,0.1,0,0.2-0.1C75.2,50.7,75.3,50.6,75.2,50.5"/>
		<path class="st2" d="M65.4,40h0.2l0.2,0.7L66,40h0.2v0.8H66v-0.5c0,0,0,0,0-0.1c0,0,0-0.1,0-0.1l-0.2,0.7h-0.1l-0.2-0.7v0v0.1
			c0,0,0,0.1,0,0.1v0.5h-0.1V40z"/>
		<path class="st2" d="M67,40.4c0,0,0.1,0,0.1,0c0,0,0-0.1,0-0.1c0-0.1,0-0.1-0.1-0.1c0,0-0.1,0-0.1,0h-0.3v0.3H67z M66.6,40H67
			c0.1,0,0.1,0,0.1,0c0.1,0,0.1,0.1,0.1,0.2c0,0,0,0.1,0,0.1c0,0,0,0.1-0.1,0.1c0,0,0.1,0,0.1,0c0,0,0,0.1,0,0.1l0,0.1
			c0,0,0,0.1,0,0.1c0,0,0,0,0,0v0h-0.1c0,0,0,0,0,0c0,0,0,0,0-0.1l0-0.1c0-0.1,0-0.1-0.1-0.1c0,0-0.1,0-0.1,0h-0.2v0.3h-0.1V40z"/>
		<path class="st2" d="M66.4,40.8C66.4,40.8,66.3,40.8,66.4,40.8c-0.1-0.1,0-0.1,0-0.1C66.4,40.7,66.4,40.8,66.4,40.8
			C66.4,40.8,66.4,40.8,66.4,40.8"/>
		<path class="st2" d="M67.5,40.8C67.4,40.8,67.4,40.8,67.5,40.8c-0.1-0.1,0-0.1,0-0.1C67.5,40.7,67.5,40.8,67.5,40.8
			C67.5,40.8,67.5,40.8,67.5,40.8L67.5,40.8z"/>
	</g>
	<g>
		<path class="st1" d="M84.5,20L84.5,20L84.5,20v0.1c0,2.4-0.3,4.7-1.2,6.4c-0.9,1.6-2.3,2.7-5.1,2.7c0,0,0,0-0.1,0h0
			c-2.8,0-4.2-1.1-5.1-2.7c-0.9-1.7-1.2-4-1.2-6.4v-0.1c0-2.4,0.3-4.3,1.2-5.9c0.9-1.6,2.3-2.7,5.1-2.7h0h0h0c2.8,0,4.2,1.1,5.1,2.7
			C84.2,15.6,84.5,17.5,84.5,20L84.5,20z M85.3,9.9C85.3,9.9,85.3,9.9,85.3,9.9c-1.6-1.4-4-2.3-6.8-2.3c0,0-0.1,0-0.2,0
			c-2.3,0-4.6,0.5-6.6,2.2l0,0V8.3h0V0.8c0-0.2-0.1-0.4-0.2-0.5C71.4,0.1,71.2,0,71,0h-2.6c-0.2,0-0.4,0.1-0.6,0.2
			c-0.2,0.1-0.2,0.3-0.2,0.5v7.5h0v16h0v7.5c0,0.2,0.1,0.4,0.2,0.5c0.2,0.1,0.4,0.2,0.6,0.2H71c0.2,0,0.4-0.1,0.6-0.2
			c0.2-0.1,0.2-0.3,0.2-0.5v-1.5c1.7,2,4.3,2.6,6.5,2.6h0.2c2.8,0,5.2-0.9,6.7-2.3c2.8-2.7,3.5-6.8,3.5-10.6
			C88.7,16.2,88.1,12.6,85.3,9.9"/>
		<path class="st1" d="M108.6,20.5c0,2.4-0.3,4.3-1.2,5.9c-0.9,1.6-2.3,2.7-5.1,2.7h0h0h0c-2.8,0-4.2-1.1-5.1-2.7
			c-0.9-1.7-1.2-3.6-1.2-5.9v-0.1c0-2.4,0.3-4.7,1.2-6.4c0.9-1.6,2.3-2.7,5.1-2.7h0c0.1,0,0.1,0,0.1,0c2.8,0,4.2,1.1,5.1,2.7
			c0.9,1.7,1.2,4,1.2,6.4v0.1v0V20.5L108.6,20.5z M109.4,30.5c2.8-2.7,3.4-6.3,3.4-10.1c0-3.8-0.7-7.9-3.5-10.6
			c-1.5-1.4-3.9-2.3-6.7-2.3h-0.2c-2.3,0-4.8,0.7-6.5,2.6V8.7c0-0.2-0.1-0.4-0.2-0.5c-0.1-0.1-0.4-0.2-0.6-0.2h-2.6
			c-0.2,0-0.4,0.1-0.6,0.2c-0.1,0.1-0.2,0.3-0.2,0.5v7.5h0v16h0v7.5c0,0.2,0.1,0.4,0.2,0.5c0.2,0.1,0.4,0.2,0.6,0.2h2.6
			c0.2,0,0.4-0.1,0.6-0.2c0.1-0.1,0.2-0.3,0.2-0.5v-7.5h0v-1.5l0,0c2,1.7,4.2,2.2,6.6,2.2c0.1,0,0.1,0,0.2,0
			C105.4,32.8,107.8,31.9,109.4,30.5C109.4,30.5,109.4,30.5,109.4,30.5"/>
		<path class="st1" d="M146.9,34.8c-0.2,0.6-0.6,1.6-0.9,2.2c0,0-0.5,1.1-1.2,1.8c-0.6,0.6-1.4,1.1-2.2,1.3
			c-0.8,0.2-1.4,0.3-1.4,0.3c-0.7,0-1.6,0.1-2.2,0.1c-0.5,0-0.9-0.5-0.9-1.2v-1.8c0-0.7,0.3-1.2,0.6-1.2c0.3,0,1.1-0.1,1.8-0.1
			c0,0,0.5-0.1,1-0.4c0.5-0.4,0.7-0.9,0.7-0.9c0.3-0.6,0.7-1.6,0.9-2.2l0.5-1.4c0.2-0.6,0.2-1.6,0-2.3l-7.3-20
			c-0.2-0.6,0.1-1.1,0.8-1.1h2.6c0.7,0,1.4,0.5,1.6,1.1l4.8,14.2c0.2,0.6,0.6,0.6,0.8,0l4.7-14.1c0.2-0.6,0.9-1.1,1.6-1.1h2.6
			c0.7,0,1,0.5,0.8,1.1L146.9,34.8z"/>
		<path class="st1" d="M119,25.3L119,25.3c0-1.3,0.4-2.1,1.1-2.7c0.8-0.6,2-1,4-1h0h6.4v2c0,2-0.4,3.1-1,3.6
			c-1.4,1.3-3.1,1.5-5.2,1.5h0h0c-2,0-3.4-0.3-4.1-0.9C119.4,27.3,119.1,26.5,119,25.3 M134.9,16.1L134.9,16.1
			c0-2.5-0.8-4.7-2.6-6.1c-1.8-1.4-4.3-2.1-7.5-2.1h-0.1h0c-3.4,0-6.1,0.7-8.2,2.9l0,0l-0.1,0.1c-0.2,0.2-0.3,0.3-0.5,0.5
			c0,0,0,0,0,0l-0.2,0.2c-0.1,0.1-0.2,0.4-0.2,0.6c0,0.2,0.1,0.4,0.3,0.5l0.1,0.1c0,0.1,0.1,0.1,0.2,0.2l0.5,0.4l1.2,1.1
			c0.2,0.1,0.4,0.2,0.6,0.2c0.2,0,0.4-0.1,0.5-0.2l0.8-0.9v0c0.5-0.5,1-0.9,1.6-1.2c0.9-0.4,2-0.6,3.6-0.6l0,0l0.1,0
			c2.3,0,3.7,0.5,4.5,1.2c0.8,0.7,1.2,1.8,1.2,3.4c0,0,0,0,0,0.1v1.5h-6.7c-2.7,0-5,0.6-6.6,1.9c-1.6,1.3-2.5,3.2-2.5,5.4l0,0.1
			c0,1.9,0.7,3.7,2,5c1.7,1.7,4,2.3,7.5,2.3h0h1.8c3.2,0,5.5-0.8,6.9-2.4c1.5-1.6,2.1-3.9,2.1-6.7L134.9,16.1L134.9,16.1z"/>
		<path class="st1" d="M40.6,8c-0.7,0-1.4,0.5-1.6,1.2l-4.6,16.1c-0.2,0.7-0.5,0.7-0.7,0L28.3,9.1c-0.2-0.7-1-1.2-1.7-1.2h-1
			c-0.7,0-1.4,0.5-1.7,1.2l-5.3,16.2c-0.2,0.7-0.5,0.7-0.7,0L13.4,9.2C13.2,8.5,12.5,8,11.8,8H9.9C9.2,8,8.8,8.5,9,9.2L16,31.4
			c0.2,0.7,0.9,1.2,1.6,1.2H19c0.6,0,1.3-0.5,1.5-1.1l5.3-15.7c0.2-0.7,0.6-0.7,0.8,0l5.3,15.6c0.2,0.7,1,1.2,1.7,1.2h1.3
			c0.6,0,1.3-0.5,1.5-1.1l7-22.3C43.6,8.5,43.2,8,42.5,8H40.6z"/>
		<path class="st1" d="M64.6,19.5c0-7.3-3.9-11.9-10.1-11.9c-6.3,0-10.1,4.7-10.1,12.5c0,8.1,3.8,12.5,10.8,12.5
			c4.3,0,6.6-1.4,9-3.8l0.3-0.3l-3-2.6l-0.3,0.3c-1.9,1.9-3.5,2.6-5.9,2.6c-4.1,0-6.4-2.6-6.6-7.4h16V19.5z M48.6,18.1
			c0.1-1.5,0.2-2.2,0.7-3.4c0.9-2,2.8-3.3,5.2-3.3c2.3,0,4.3,1.3,5.2,3.3c0.5,1.2,0.6,1.8,0.7,3.4H48.6z"/>
		<path class="st2" d="M3.7,13.1c1.4,0,2.5-1.1,2.5-2.5C6.2,9.1,5.1,8,3.7,8c-1.4,0-2.5,1.1-2.5,2.5C1.2,11.9,2.3,13.1,3.7,13.1"/>
		<path class="st2" d="M156.3,32.6c1.4,0,2.5-1.1,2.5-2.5c0-1.4-1.1-2.5-2.5-2.5c-1.4,0-2.5,1.1-2.5,2.5
			C153.8,31.5,154.9,32.6,156.3,32.6"/>
	</g>
</g>
</svg>
