<svg width="79" height="24" viewBox="0 0 79 24" fill="none" xmlns="http://www.w3.org/2000/svg">
<g clip-path="url(#clip0_1405_112)">
<path d="M0.22275 23.5957C-0.11117 23.5406 -0.0864354 22.6779 0.411353 22.577C2.4427 22.1548 2.45816 21.4726 3.0147 19.9123C3.91133 17.4007 4.76469 14.2252 5.36451 11.6095C5.66751 10.2909 6.23332 7.88022 5.83756 7.58347C5.4418 7.28673 4.7214 7.34791 4.55444 7.20107C4.38748 7.05422 4.57299 6.08749 5.14808 6.06913C7.70504 5.99265 10.6949 5.87334 13.2518 5.83051C14.2412 5.81216 15.243 5.90087 16.22 6.0569C17.5279 6.26187 18.5884 6.92879 18.8543 8.29017C19.1294 9.68825 18.8234 10.9731 17.6608 11.9797C15.5769 13.7907 14.1485 13.7846 13.6816 13.9315C14.3216 14.1579 14.7112 14.2802 15.0884 14.4362C17.1476 15.2806 18.1802 17.2385 17.3145 19.273C15.7933 22.8492 13.2055 23.4703 12.6551 23.6018C10.2311 24.125 0.562854 23.6538 0.228934 23.5957H0.22275ZM7.26291 22.7177C7.60919 22.9869 8.99125 22.9441 9.51068 22.8462C12.9828 22.2007 14.5535 16.6328 12.4232 15.1644C11.4895 14.5219 9.29426 14.5341 8.83357 15.1766C8.37288 15.819 6.40646 22.0447 7.26291 22.7146V22.7177ZM9.31899 13.6102C12.3119 14.1456 15.1471 11.1751 14.8627 8.98462C14.6988 7.72114 12.9797 6.95021 11.5791 7.34791C10.6485 7.6263 8.94178 13.5735 9.32208 13.6102H9.31899Z" fill="white"/>
<path d="M27.7873 17.0797C29.1787 14.1122 31.8902 12.5306 34.9759 12.8824C37.202 13.1363 38.5717 14.5283 38.4697 16.7463C38.2966 20.497 35.3624 23.9784 31.006 23.9784C26.6495 23.9784 26.4331 19.9646 27.7843 17.0797H27.7873ZM31.1853 22.6874C32.5519 22.6874 33.835 19.9035 34.4194 18.1168C34.8862 16.6912 35.6314 13.7727 34.3235 13.7727C33.0157 13.7727 31.7449 16.1344 31.1451 18.0679C30.6319 19.7199 29.8187 22.6904 31.1853 22.6904V22.6874Z" fill="white"/>
<path d="M19.7814 23.6014C19.1321 22.9498 19.4011 22.1758 19.5681 21.4691C19.9144 20.0037 21.4139 15.9532 21.0429 15.9532C20.6719 15.9532 19.5248 17.3697 19.16 17.3482C18.7951 17.3268 18.7209 16.8037 19.027 16.4488C20.6873 14.5184 23.7854 12.9031 25.5045 13.4752C26.4444 13.7872 23.3031 21.0132 23.8101 21.1968C24.379 21.4048 25.826 19.3184 26.3733 19.3888C26.769 19.4408 26.6732 19.8385 26.5526 20.071C25.9095 21.3161 24.0915 22.9192 22.9691 23.5188C22.1838 23.9379 20.6688 24.305 19.7876 23.6014H19.7814Z" fill="white"/>
<path d="M23.0061 11.7318C21.76 10.4622 24.1346 7.71806 26.0886 7.79148C26.9296 7.82208 27.4243 8.30238 27.4336 9.08862C27.4552 11.0588 24.2552 12.9984 23.0061 11.7288V11.7318Z" fill="white"/>
<path d="M40.7442 23.5957C40.4103 23.5406 40.435 22.6779 40.9328 22.577C42.9642 22.1548 42.9796 21.4726 43.5362 19.9123C44.4328 17.4007 45.2862 14.2252 45.886 11.6095C46.189 10.2909 46.7548 7.88022 46.359 7.58347C45.9633 7.28673 45.2429 7.34791 45.0759 7.20107C44.9059 7.05422 45.0945 6.08749 45.6696 6.06913C48.2265 5.99265 51.2163 5.87334 53.7733 5.83051C54.7627 5.81216 55.7645 5.90087 56.7415 6.0569C58.0494 6.26187 59.1099 6.92879 59.3758 8.29017C59.6509 9.68825 59.3448 10.9731 58.1823 11.9797C56.0984 13.7907 54.67 13.7846 54.2031 13.9315C54.8431 14.1579 55.2327 14.2802 55.6099 14.4362C57.6691 15.2806 58.7017 17.2385 57.836 19.273C56.3148 22.8492 53.7269 23.4703 53.1766 23.6018C50.7526 24.125 41.0843 23.6538 40.7504 23.5957H40.7442ZM47.7844 22.7177C48.1307 22.9869 49.5127 22.9441 50.0322 22.8462C53.5043 22.2007 55.075 16.6328 52.9447 15.1644C52.011 14.5219 49.8157 14.5341 49.3551 15.1766C48.8944 15.819 46.9279 22.0447 47.7844 22.7146V22.7177ZM49.8405 13.6102C52.8334 14.1456 55.6686 11.1751 55.3842 8.98462C55.2203 7.72114 53.5012 6.95021 52.1006 7.34791C51.17 7.6263 49.4633 13.5735 49.8436 13.6102H49.8405Z" fill="white"/>
<path d="M68.3108 17.0797C69.7021 14.1122 72.4137 12.5306 75.4993 12.8824C77.7255 13.1363 79.0952 14.5283 78.9931 16.7463C78.82 20.497 75.8858 23.9784 71.5294 23.9784C67.173 23.9784 66.9565 19.9646 68.3077 17.0797H68.3108ZM71.7087 22.6874C73.0753 22.6874 74.3585 19.9035 74.9428 18.1168C75.4097 16.6912 76.1548 13.7727 74.847 13.7727C73.5391 13.7727 72.2684 16.1344 71.6685 18.0679C71.1553 19.7199 70.3421 22.6904 71.7087 22.6904V22.6874Z" fill="white"/>
<path d="M60.3068 23.6014C59.6575 22.9498 59.9265 22.1758 60.0935 21.4691C60.4398 20.0037 61.9393 15.9532 61.5683 15.9532C61.1973 15.9532 60.0502 17.3697 59.6854 17.3482C59.3205 17.3268 59.2463 16.8037 59.5524 16.4488C61.2127 14.5184 64.3108 12.9031 66.0298 13.4752C66.9698 13.7872 63.8284 21.0132 64.3355 21.1968C64.9044 21.4048 66.3514 19.3184 66.8987 19.3888C67.2944 19.4408 67.1986 19.8385 67.078 20.071C66.4349 21.3161 64.6169 22.9192 63.4945 23.5188C62.7092 23.9379 61.1942 24.305 60.313 23.6014H60.3068Z" fill="white"/>
<path d="M63.5315 11.7318C62.2854 10.4622 64.66 7.71806 66.614 7.79148C67.455 7.82208 67.9497 8.30238 67.959 9.08862C67.9806 11.0588 64.7806 12.9984 63.5315 11.7288V11.7318Z" fill="white"/>
<path d="M8.5214 0.0611855C8.34826 0.0183556 8.07617 0 7.68351 0H5.91188L5.84385 0.25086H5.93043C6.18705 0.263098 6.27362 0.302868 6.30145 0.324283C6.34783 0.360994 6.36947 0.400765 6.36947 0.452772C6.36947 0.510899 6.35092 0.648566 6.25507 0.972849L5.47901 3.61606C5.40481 3.86998 5.35534 3.97094 5.32751 4.01377C5.29041 4.06883 5.23785 4.1086 5.17601 4.13614C5.10799 4.16367 4.9905 4.17897 4.82663 4.17897H4.77716L4.6875 4.43595H6.59208C7.28466 4.43595 7.74844 4.387 8.01434 4.28298C8.28024 4.17897 8.49667 4.01683 8.65744 3.7935C8.81822 3.57017 8.9017 3.34073 8.9017 3.10822C8.9017 2.86042 8.81822 2.63709 8.65126 2.45048C8.51831 2.30057 8.31116 2.1782 8.02052 2.07419C8.2926 2.00077 8.50594 1.92428 8.65744 1.84168C8.85532 1.73461 9.00373 1.59388 9.10576 1.42562C9.2047 1.25736 9.25726 1.0891 9.25726 0.923901C9.25726 0.721989 9.19233 0.541491 9.06557 0.382409C8.9388 0.223327 8.75638 0.116252 8.52758 0.0611855H8.5214ZM7.4207 2.33423C7.51964 2.37094 7.60003 2.43824 7.66496 2.5392C7.72989 2.64015 7.7608 2.75335 7.7608 2.8849C7.7608 3.16941 7.67114 3.44168 7.4949 3.68948C7.32485 3.93117 7.00948 4.05354 6.55807 4.05354C6.52097 4.05354 6.4715 4.05354 6.40966 4.05354L6.926 2.2761C7.15789 2.2761 7.32485 2.29751 7.4207 2.33729V2.33423ZM7.04349 1.89369L7.49181 0.364054H7.61549C7.77317 0.354876 7.89375 0.397706 7.98342 0.489484C8.07308 0.581262 8.11946 0.697514 8.11946 0.84436C8.11946 1.0065 8.06999 1.187 7.97414 1.37361C7.8783 1.55717 7.75462 1.69178 7.60003 1.77132C7.46089 1.84168 7.27229 1.88451 7.0404 1.89675L7.04349 1.89369Z" fill="white"/>
<path d="M12.679 1.44699L11.7206 1.48064L11.4176 2.4902C11.164 2.95215 10.9198 3.31009 10.691 3.55483C10.4931 3.76286 10.388 3.79039 10.3354 3.79345C10.3354 3.77509 10.3416 3.72921 10.3787 3.60684L11.0249 1.36133H10.7281L9.59028 1.55712L9.52536 1.80798H9.61502C9.74488 1.80798 9.79435 1.81716 9.80981 1.82328C9.83454 1.83246 9.85309 1.84163 9.85928 1.85387C9.86855 1.86611 9.87164 1.8814 9.87164 1.89976C9.87164 1.94565 9.85618 2.04966 9.78507 2.30053L9.42332 3.56706C9.36767 3.75674 9.33984 3.90664 9.33984 4.01984C9.33984 4.16362 9.38931 4.28599 9.48207 4.38389C9.67376 4.57357 9.95203 4.56439 10.2334 4.41448C10.3725 4.34106 10.5395 4.20033 10.7374 3.98007C10.8239 3.88217 10.9476 3.72615 11.1053 3.50588L11.0651 3.64049C11.0094 3.82098 10.9816 3.97395 10.9816 4.09632C10.9816 4.22481 11.028 4.32882 11.1177 4.40836C11.2073 4.48485 11.3279 4.52462 11.4763 4.52462C11.8597 4.52462 12.2091 4.24622 12.5183 3.69249L12.5492 3.63743L12.3297 3.48446L12.2895 3.54259C12.1689 3.72309 12.07 3.8424 11.9957 3.90053C11.9772 3.91888 11.9648 3.91888 11.9648 3.92194L11.9525 3.91276C11.9525 3.91276 11.9586 3.8577 12.0267 3.62519L12.6698 1.44087L12.679 1.44699Z" fill="white"/>
<path d="M15.1099 1.38886C15.0388 1.4837 14.946 1.48064 14.7512 1.43169C14.5534 1.38274 14.3864 1.36133 14.2473 1.36133C13.9257 1.36133 13.6722 1.44393 13.4929 1.60913C13.3104 1.77433 13.2177 1.98236 13.2177 2.23016C13.2177 2.37701 13.2486 2.50856 13.3104 2.62481C13.3939 2.77777 13.5578 2.9858 13.8144 3.26114C13.9906 3.45387 14.105 3.5946 14.1514 3.68026C14.1947 3.76286 14.2194 3.84852 14.2194 3.93724C14.2194 4.01984 14.1885 4.0902 14.1267 4.14833C14.0061 4.26152 13.8144 4.27682 13.6042 4.15139C13.5052 4.09326 13.4248 4.01372 13.3661 3.91582C13.3043 3.81181 13.2362 3.63437 13.162 3.38351L13.1466 3.33456H12.9301L12.7539 4.52768H12.9889L13.0105 4.49708C13.0507 4.44202 13.0755 4.42366 13.0847 4.41754C13.0971 4.41142 13.1249 4.40225 13.1775 4.40225C13.2146 4.40225 13.2857 4.41142 13.4279 4.45119C13.6134 4.50014 13.7742 4.52768 13.9041 4.52768C14.0989 4.52768 14.2875 4.47873 14.4668 4.38389C14.6461 4.28905 14.7853 4.1575 14.878 3.99842C14.9677 3.83934 15.0141 3.66802 15.0141 3.49058C15.0141 3.32538 14.9739 3.16936 14.8966 3.02251C14.8193 2.88179 14.6152 2.63399 14.272 2.26687C14.1823 2.17204 14.1236 2.09555 14.0989 2.04355C14.0772 1.9946 14.0649 1.93953 14.0649 1.8814C14.0649 1.82022 14.0896 1.77127 14.1391 1.72538C14.1916 1.67949 14.2535 1.65808 14.3369 1.65808C14.4792 1.65808 14.609 1.72232 14.7358 1.85693C14.8626 1.98848 14.9368 2.17815 14.9522 2.41372V2.47796H15.1996L15.3603 1.36133H15.1285L15.1068 1.38886H15.1099Z" fill="white"/>
<path d="M17.0681 3.15113C17.3061 3.08689 17.5256 2.98899 17.7204 2.86356C17.9152 2.73813 18.0822 2.56681 18.2089 2.36184C18.3048 2.20582 18.3543 2.04062 18.3543 1.87542C18.3543 1.72857 18.3017 1.60314 18.1935 1.50524C18.0884 1.40735 17.9369 1.3584 17.739 1.3584C17.3741 1.3584 17.0031 1.46853 16.6445 1.68268C16.2858 1.89683 15.9952 2.1844 15.788 2.54234C15.5778 2.89721 15.4727 3.25821 15.4727 3.61614C15.4727 3.85477 15.5469 4.06586 15.6922 4.24635C15.8437 4.43297 16.1096 4.52475 16.4868 4.52475C16.7805 4.52475 17.0495 4.4605 17.2938 4.32895C17.5349 4.20046 17.7823 3.98326 18.0327 3.68345L18.076 3.63144L17.8843 3.46012L17.8379 3.50295C17.6462 3.67733 17.4762 3.7997 17.3309 3.87006C17.1917 3.93737 17.0495 3.97102 16.9104 3.97102C16.7712 3.97102 16.6661 3.93125 16.5888 3.84865C16.5084 3.76605 16.4682 3.65897 16.4682 3.51519C16.4682 3.44176 16.4744 3.34999 16.4899 3.23985C16.731 3.21844 16.9258 3.18784 17.0742 3.14807L17.0681 3.15113ZM17.3834 1.70716C17.4143 1.70716 17.4391 1.71633 17.4607 1.73775C17.4824 1.75916 17.4916 1.78976 17.4916 1.82953C17.4916 1.95802 17.4576 2.09874 17.3896 2.24865C17.3216 2.40161 17.2381 2.52704 17.1453 2.62494C17.0526 2.72283 16.9567 2.7932 16.8609 2.83909C16.7836 2.87274 16.6816 2.90333 16.5517 2.92781C16.697 2.47503 16.8795 2.12934 17.0897 1.89683C17.201 1.7714 17.303 1.70716 17.3834 1.70716Z" fill="white"/>
<path d="M19.8029 1.66101C19.9451 1.66101 20.075 1.72525 20.2018 1.85986C20.3285 1.99141 20.4027 2.18108 20.4182 2.41665V2.48089H20.6655L20.8263 1.36426H20.5944L20.5728 1.39179C20.5017 1.48663 20.4089 1.48357 20.2141 1.43462C20.0163 1.38567 19.8493 1.36426 19.7102 1.36426C19.3886 1.36426 19.1351 1.44686 18.9558 1.61206C18.7733 1.77726 18.6806 1.98529 18.6806 2.23309C18.6806 2.37994 18.7115 2.51149 18.7733 2.62774C18.8568 2.7807 19.0207 2.98873 19.2773 3.26407C19.4535 3.4568 19.5679 3.59753 19.6143 3.68319C19.6576 3.76579 19.6823 3.85145 19.6823 3.94017C19.6823 4.02277 19.6514 4.09313 19.5896 4.15126C19.469 4.26445 19.2773 4.27975 19.0671 4.15432C18.9681 4.09619 18.8877 4.01665 18.829 3.91875C18.7671 3.81474 18.6991 3.6373 18.6249 3.38644L18.6095 3.33749H18.393L18.2168 4.53061H18.4518L18.4734 4.50001C18.5136 4.44495 18.5384 4.42659 18.5476 4.42047C18.56 4.41435 18.5878 4.40518 18.6404 4.40518C18.6775 4.40518 18.7486 4.41435 18.8908 4.45412C19.0763 4.50307 19.2371 4.53061 19.367 4.53061C19.5618 4.53061 19.7504 4.48166 19.9297 4.38682C20.109 4.29198 20.2481 4.16043 20.3409 4.00135C20.4306 3.84227 20.4769 3.67095 20.4769 3.49351C20.4769 3.32831 20.4367 3.17229 20.3595 3.02544C20.2822 2.88472 20.0781 2.63692 19.7349 2.2698C19.6452 2.17497 19.5865 2.09848 19.5618 2.04648C19.5401 1.99753 19.5277 1.94246 19.5277 1.88433C19.5277 1.82315 19.5525 1.7742 19.6019 1.72831C19.6545 1.68242 19.7163 1.66101 19.7998 1.66101H19.8029Z" fill="white"/>
</g>
<defs>
<clipPath id="clip0_1405_112">
<rect width="79" height="24" fill="white"/>
</clipPath>
</defs>
</svg>
