<svg width="122" height="122" viewBox="0 0 122 122" fill="none" xmlns="http://www.w3.org/2000/svg">
<path d="M60.6016 121.983C94.0709 121.983 121.203 94.8507 121.203 61.3813C121.203 27.912 94.0709 0.779785 60.6016 0.779785C27.1322 0.779785 0 27.912 0 61.3813C0 94.8507 27.1322 121.983 60.6016 121.983Z" fill="#FFC72C"/>
<path d="M40.5378 79.7323V35.2454H79.8372V79.7323" fill="#FFC72C"/>
<path d="M40.5378 79.7323V35.2454H79.8372V79.7323" stroke="#1E2B4B" stroke-width="3.53857" stroke-linejoin="round"/>
<path d="M24.6851 57.4889V40.801L40.5379 46.9865" fill="#FFC72C"/>
<path d="M24.6851 57.4889V40.801L40.5379 46.9865" stroke="#1E2B4B" stroke-width="3.53857" stroke-linejoin="round"/>
<path d="M24.6851 62.988V79.7325" stroke="#1E2B4B" stroke-width="3.53857" stroke-linejoin="round"/>
<path d="M96.0509 79.7324V40.801L79.8372 46.9864" fill="#FFC72C"/>
<path d="M96.0509 79.7324V40.801L79.8372 46.9864" stroke="#1E2B4B" stroke-width="3.53857" stroke-linejoin="round"/>
<path d="M100.538 79.3076H20.6724V87.5242H100.538V79.3076Z" fill="#FFC72C" stroke="#1E2B4B" stroke-width="3.53857" stroke-linejoin="round"/>
<path d="M40.5378 65.3303H79.8372" stroke="#1E2B4B" stroke-width="3.53857" stroke-linejoin="round"/>
<path d="M40.5378 42.075H79.8372" stroke="#1E2B4B" stroke-width="3.53857" stroke-linejoin="round"/>
<path d="M54.3455 42.075V64.4812" stroke="#1E2B4B" stroke-width="3.53857" stroke-linejoin="round"/>
<path d="M40.5378 53.2781H79.8372" stroke="#1E2B4B" stroke-width="3.53857" stroke-linejoin="round"/>
<path d="M66.6099 46.7742V65.3304" stroke="#1E2B4B" stroke-width="3.53857" stroke-linejoin="round"/>
<path d="M51.0332 65.3303V79.3077" stroke="#1E2B4B" stroke-width="3.53857" stroke-linejoin="round"/>
<path d="M60.3184 65.3303V79.3077" stroke="#1E2B4B" stroke-width="3.53857" stroke-linejoin="round"/>
<path d="M69.9363 65.3303V79.3077" stroke="#1E2B4B" stroke-width="3.53857" stroke-linejoin="round"/>
</svg>
