<svg width="36" height="36" viewBox="0 0 36 36" fill="none" xmlns="http://www.w3.org/2000/svg">
<path d="M18 36C8.0712 36 0 27.9288 0 18C0 8.0712 8.0712 0 18 0C27.9288 0 36 8.0712 36 18C36 27.9288 27.9288 36 18 36Z" fill="#1E2B4B"/>
<path d="M19.0655 22.7809H16.9415C16.7039 22.7809 16.5095 22.5864 16.5095 22.3488V16.5096C16.5095 16.272 16.7039 16.0776 16.9415 16.0776H19.0655C19.3031 16.0776 19.4975 16.272 19.4975 16.5096V22.3488C19.4975 22.5864 19.3031 22.7809 19.0655 22.7809ZM17.3735 21.9168H18.6335V16.9416H17.3735V21.9168Z" fill="#FFC72C"/>
<path d="M19.0655 15.6457H16.9415C16.7039 15.6457 16.5095 15.4513 16.5095 15.2137V13.0897C16.5095 12.8521 16.7039 12.6577 16.9415 12.6577H19.0655C19.3031 12.6577 19.4975 12.8521 19.4975 13.0897V15.2137C19.4975 15.4513 19.3031 15.6457 19.0655 15.6457ZM17.3735 14.7817H18.6335V13.5217H17.3735V14.7817Z" fill="#FFC72C"/>
<mask id="mask0_115_6" style="mask-type:luminance" maskUnits="userSpaceOnUse" x="7" y="6" width="22" height="23">
<path d="M27.5465 12.2113C27.3521 11.8729 27.1433 11.5489 26.9201 11.2321L24.0329 13.3705L23.3201 12.4129L26.1713 10.2961C24.1625 8.04975 21.2465 6.63135 17.9993 6.63135C11.9513 6.63135 7.0481 11.5345 7.0481 17.5825C7.0481 23.6305 11.9513 28.5338 17.9993 28.5338C24.0473 28.5338 28.9505 23.6305 28.9505 17.5825C28.9505 15.6313 28.4393 13.7953 27.5465 12.2113Z" fill="white"/>
</mask>
<g mask="url(#mask0_115_6)">
<path d="M17.998 26.8631C12.886 26.8631 8.72437 22.7015 8.72437 17.5895C8.72437 12.4775 12.886 8.31592 17.998 8.31592C23.11 8.31592 27.2716 12.4775 27.2716 17.5895C27.2716 22.7015 23.11 26.8631 17.998 26.8631ZM17.998 9.18711C13.3684 9.18711 9.59556 12.9527 9.59556 17.5895C9.59556 22.2263 13.3612 25.9919 17.998 25.9919C22.6348 25.9919 26.4004 22.2263 26.4004 17.5895C26.4004 12.9527 22.6348 9.18711 17.998 9.18711Z" fill="#FFC72C"/>
</g>
</svg>
