<svg width="60" height="60" viewBox="0 0 60 60" fill="none" xmlns="http://www.w3.org/2000/svg">
<g clip-path="url(#clip0_59_1559)">
<path d="M30 59.149C46.0985 59.149 59.149 46.0985 59.149 30C59.149 13.9015 46.0985 0.851013 30 0.851013C13.9015 0.851013 0.851074 13.9015 0.851074 30C0.851074 46.0985 13.9015 59.149 30 59.149Z" fill="#FFC72C"/>
<path d="M42.9185 45.3932C46.9417 45.3932 50.2032 42.1317 50.2032 38.1085C50.2032 34.0853 46.9417 30.8238 42.9185 30.8238C38.8953 30.8238 35.6338 34.0853 35.6338 38.1085C35.6338 42.1317 38.8953 45.3932 42.9185 45.3932Z" stroke="#202B4B" stroke-width="1.70203" stroke-linejoin="round"/>
<path d="M47.1055 37.7545L46.4757 36.2363C46.4417 36.1512 46.343 36.1103 46.2545 36.1444L44.4537 36.8864C44.2563 36.9681 44.0793 37.0703 43.9193 37.1928L43.9363 34.3913C43.9363 34.2994 43.8614 34.2245 43.7695 34.2211L42.1185 34.2108C42.0266 34.2108 41.9483 34.2857 41.9483 34.3776L41.9313 37.186C41.7679 37.0634 41.5875 36.9579 41.3901 36.8728L39.5893 36.1307C39.5042 36.0967 39.4055 36.1341 39.368 36.2226L38.7349 37.7409C38.7009 37.826 38.7417 37.9247 38.8268 37.9587L41.0837 38.888L40.1476 41.1313C40.1135 41.2164 40.151 41.3151 40.2395 41.3492L41.7645 41.9789C41.8496 42.013 41.9483 41.9755 41.9858 41.887L42.7313 40.0965C42.864 39.7765 42.9253 39.4463 42.9219 39.1195C42.9151 39.4497 42.9763 39.7833 43.1091 40.1067L43.8546 41.9006C43.8886 41.9857 43.9874 42.0266 44.0759 41.9925L45.6009 41.3662C45.686 41.3321 45.7268 41.2334 45.6928 41.1483L44.7601 38.9016L47.017 37.9723C47.1021 37.9383 47.1429 37.8396 47.1089 37.7545" fill="#202C49"/>
<mask id="mask0_59_1559" style="mask-type:luminance" maskUnits="userSpaceOnUse" x="13" y="6" width="30" height="45">
<path d="M34.0816 45.3966V50.1725H21.3742L22.1299 45.3966L13.6572 38.1119L14.2631 17.8815L26.0616 6.75024L39.2251 12.2274L42.0232 26.8717L40.3553 31.2901C40.3553 31.2901 35.5351 33.5845 35.6338 36.4473C35.7325 39.3101 36.6857 40.6785 36.6857 40.6785L37.2337 42.6631L34.0816 45.4V45.3966Z" fill="white"/>
</mask>
<g mask="url(#mask0_59_1559)">
<path d="M38.3468 20.598C38.3468 20.598 36.0729 23.1544 34.8883 24.1314C34.3505 23.6106 33.4212 22.8583 32.0902 22.4396C31.6578 22.3034 31.2732 22.2285 28.9652 22.157C25.3365 22.0447 24.8157 22.1774 24.3289 22.5553C24.2064 22.6506 23.0456 23.5731 23.2464 24.8667C23.4302 26.0615 24.6285 26.6231 24.7442 26.6742C26.8683 26.7219 28.9959 26.7729 31.12 26.8206C31.6919 26.8546 35.6066 27.1508 37.843 30.388C39.0106 32.0765 39.1774 33.7785 39.2115 34.364C39.4259 37.9859 36.9988 40.3722 36.6856 40.6717C34.3879 42.8571 31.6034 42.9286 30.977 42.9286V47.4832H25.4659V42.9252C24.5706 42.9048 22.906 42.7482 21.1087 41.8019C19.6585 41.0394 18.7088 40.0692 18.171 39.4258C19.0152 38.0608 19.8594 36.6958 20.7036 35.3307C22.569 36.6039 24.1281 36.9715 25.1867 37.0736C25.4046 37.094 25.6905 37.1145 28.0734 37.1179C29.3397 37.1179 30.3847 37.1179 31.0928 37.1145C32.1991 37.1145 33.1556 36.4473 33.4552 35.5009C33.8092 34.3776 33.0637 33.4313 33.0127 33.3666C32.2944 32.4883 31.2357 32.4883 31.1064 32.4917H24.4719C23.6719 32.3624 21.7929 31.9437 20.1317 30.388C19.7981 30.0749 17.1668 27.5354 17.5685 23.6991C17.9497 20.0601 20.7547 18.1198 21.5989 17.599C23.1171 16.6595 24.5944 16.411 25.4557 16.3327C25.4591 14.7736 25.4659 13.2145 25.4693 11.6555H31.3719V15.9106C32.7642 16.5267 34.3266 16.8671 35.5487 17.759" stroke="#202B4B" stroke-width="1.70203" stroke-linejoin="round"/>
</g>
</g>
<defs>
<clipPath id="clip0_59_1559">
<rect width="59.9999" height="60" fill="white"/>
</clipPath>
</defs>
</svg>
