<svg width="60" height="60" viewBox="0 0 60 60" fill="none" xmlns="http://www.w3.org/2000/svg">
<g clip-path="url(#clip0_59_1503)">
<path d="M30.0001 59.1489C46.0986 59.1489 59.149 46.0985 59.149 29.9999C59.149 13.9014 46.0986 0.850952 30.0001 0.850952C13.9015 0.850952 0.851074 13.9014 0.851074 29.9999C0.851074 46.0985 13.9015 59.1489 30.0001 59.1489Z" fill="#FFC72C"/>
<path d="M45.8301 34.4677C44.8463 34.7468 43.3655 35.0259 41.5954 34.8217C39.8559 34.6209 38.6373 34.0456 38.3684 33.9128C37.068 33.2831 36.2783 32.5171 35.3421 31.5946C30.0727 26.3966 29.1093 25.1576 28.4319 24.2317C27.4311 22.8598 26.9239 22.1518 26.5665 21.1544C26.1852 20.0957 25.6031 17.832 26.4644 15.2551C27.1009 13.3523 28.2651 12.0519 29.2353 11.2418C30.0216 10.5848 31.1858 10.6563 31.9074 11.3881C33.2146 12.7157 34.5184 14.0467 35.8255 15.3743C36.1864 15.7419 36.2374 16.3172 35.9447 16.7427C35.9345 16.7563 35.9276 16.7665 35.9174 16.7802C34.726 18.5094 34.8928 20.8378 36.3225 22.3798C37.0646 23.1832 37.8101 23.9832 38.5522 24.7865C39.9547 26.2979 42.2047 26.6622 44.0089 25.6682C44.0225 25.6614 44.0395 25.6512 44.0531 25.6443C44.8565 25.2018 45.8607 25.3686 46.4768 26.046C47.5015 27.1694 48.5261 28.2961 49.5507 29.4194C50.2111 30.1445 50.2587 31.2576 49.6256 32.0065C49.5575 32.0882 49.486 32.1699 49.4077 32.2516C48.921 32.769 48.4308 33.1265 48.0461 33.3614" stroke="#1F2A4C" stroke-width="1.70203" stroke-linecap="round" stroke-linejoin="round"/>
<path d="M28.3054 12.7021C28.4688 12.8076 34.8787 18.8328 34.8787 18.8328" stroke="#1F2A4C" stroke-width="1.70203" stroke-linecap="round" stroke-linejoin="round"/>
<path d="M42.2183 26.4749C42.3817 26.5805 48.7915 32.6056 48.7915 32.6056" stroke="#1F2A4C" stroke-width="1.70203" stroke-linecap="round" stroke-linejoin="round"/>
<path d="M37.7589 34.1137V41.2758C37.7589 43.4476 35.999 45.2109 33.8238 45.2109H19.857C17.6852 45.2109 15.9219 43.451 15.9219 41.2758V31.0398C15.9219 28.868 17.6818 27.1047 19.857 27.1047H29.9841" stroke="#1F2A4C" stroke-width="1.70203" stroke-linecap="round" stroke-linejoin="round"/>
<path d="M17.7397 32.8542L16.3032 31.5947" stroke="#1F2A4C" stroke-width="1.70203" stroke-linecap="round" stroke-linejoin="round"/>
<path d="M19.4548 34.2668L24.755 38.1747C25.8987 39.0155 27.4612 38.9917 28.5743 38.1134L35.5458 32.6091" stroke="#1F2A4C" stroke-width="1.70203" stroke-linecap="round" stroke-linejoin="round"/>
<path d="M31.8596 36.1561L37.4082 40.6222" stroke="#1F2A4C" stroke-width="1.70203" stroke-linecap="round" stroke-linejoin="round"/>
<path d="M21.4636 36.0199L16.1499 40.7584" stroke="#1F2A4C" stroke-width="1.70203" stroke-linecap="round" stroke-linejoin="round"/>
</g>
<defs>
<clipPath id="clip0_59_1503">
<rect width="60" height="60" fill="white"/>
</clipPath>
</defs>
</svg>
