<svg width="59" height="59" viewBox="0 0 59 59" fill="none" xmlns="http://www.w3.org/2000/svg">
<path d="M29.149 58.298C45.2475 58.298 58.298 45.2475 58.298 29.149C58.298 13.0504 45.2475 0 29.149 0C13.0504 0 0 13.0504 0 29.149C0 45.2475 13.0504 58.298 29.149 58.298Z" fill="#FFC72C"/>
<path d="M41.9999 44.6H15.9999C14.5999 44.6 13.4999 43.5 13.4999 42.1V28.9C11.6999 26.9 11.2999 22.5 14.6999 22.3H26.2999V17.6C26.2999 16.9 26.8999 16.3 27.5999 16.3H28.3999V15.6C26.9999 15.2 26.0999 13.9 26.3999 12.4C26.6999 11.1 27.5999 9.90001 28.7999 9.30001C28.9999 9.20001 29.1999 9.20001 29.3999 9.30001C30.5999 9.90001 31.4999 11.1 31.7999 12.4C32.0999 13.8 31.1999 15.3 29.7999 15.6V16.3H30.5999C31.2999 16.3 31.8999 16.9 31.8999 17.6V22.3H43.3999C46.8999 22.5 46.4999 26.8 44.6999 28.9V42.1C44.4999 43.5 43.3999 44.6 41.9999 44.6ZM14.7999 30V42.2C14.7999 42.8 15.2999 43.4 15.9999 43.4H41.9999C42.5999 43.4 43.1999 42.9 43.1999 42.2V30C42.4999 30.4 41.5999 30.4 40.8999 30C40.2999 29.8 39.8999 29.1 39.1999 28.9C38.0999 28.5 37.4999 29.7 36.4999 30C35.3999 30.4 34.1999 30.2 33.3999 29.4C32.7999 28.7 31.6999 28.7 31.0999 29.3C29.8999 30.5 28.0999 30.5 26.8999 29.3C26.2999 28.7 25.1999 28.7 24.5999 29.3C23.4999 30.4 21.6999 30.4 20.4999 29.4C20.1999 29 19.6999 28.8 19.2999 28.8C18.8999 28.8 18.3999 29 18.0999 29.3C17.1999 30.2 15.8999 30.5 14.7999 30ZM27.2999 28.1C27.7999 28.5 28.2999 29 28.8999 29C29.2999 29 29.7999 28.8 30.0999 28.5C31.1999 27.4 33.0999 27.3 34.1999 28.5C34.4999 28.8 34.8999 29 35.3999 29C36.3999 29 36.9999 27.9 37.8999 27.7C38.8999 27.4 39.8999 27.7 40.6999 28.3C40.8999 28.5 41.0999 28.6 41.2999 28.8C41.6999 29 42.1999 29 42.5999 28.8C44.0999 28.2 45.8999 23.9 43.1999 23.6H14.6999C11.8999 23.8 13.7999 28.8 15.7999 28.9C16.6999 29 17.1999 28.2 17.8999 27.8C18.9999 27.2 20.3999 27.5 21.2999 28.4C21.8999 29 22.9999 29 23.5999 28.4C24.5999 27.5 26.1999 27.3 27.2999 28.1ZM27.5999 22.3H30.3999V17.6H27.5999V22.3ZM28.9999 14.4C29.7999 14.4 30.3999 13.8 30.3999 13C30.3999 12.9 30.3999 12.8 30.3999 12.7C30.1999 11.9 29.6999 11.2 28.9999 10.7C27.6999 11.4 26.5999 14.1 28.9999 14.4Z" fill="#1E2B4B"/>
<path d="M15.8001 37.8H12.6001V40.7H15.8001V37.8Z" fill="#FFC72C"/>
<path d="M45.4 31.6H42.2V34.5H45.4V31.6Z" fill="#FFC72C"/>
</svg>
