<svg width="59" height="59" viewBox="0 0 59 59" fill="none" xmlns="http://www.w3.org/2000/svg">
<path d="M29.149 58.298C45.2475 58.298 58.298 45.2475 58.298 29.149C58.298 13.0504 45.2475 0 29.149 0C13.0504 0 0 13.0504 0 29.149C0 45.2475 13.0504 58.298 29.149 58.298Z" fill="#FFC72C"/>
<path d="M19.4988 37.9757V16.5777H38.4015V37.9757" stroke="#202B4B" stroke-width="1.70203" stroke-linejoin="round"/>
<path d="M11.8735 27.2767V19.2465L19.4986 22.2217" stroke="#202B4B" stroke-width="1.70203" stroke-linejoin="round"/>
<path d="M11.8735 29.9182V37.9757" stroke="#202B4B" stroke-width="1.70203" stroke-linejoin="round"/>
<path d="M46.1998 37.9757V19.2465L38.4011 22.2217" stroke="#202B4B" stroke-width="1.70203" stroke-linejoin="round"/>
<path d="M48.358 37.7714H9.94312V41.7235H48.358V37.7714Z" stroke="#202B4B" stroke-width="1.70203" stroke-linejoin="round"/>
<path d="M19.4988 31.0484H38.4015" stroke="#202B4B" stroke-width="1.70203" stroke-linejoin="round"/>
<path d="M19.4988 19.8626H38.4015" stroke="#202B4B" stroke-width="1.70203" stroke-linejoin="round"/>
<path d="M26.1404 19.8626V30.6365" stroke="#202B4B" stroke-width="1.70203" stroke-linejoin="round"/>
<path d="M19.4988 25.2513H38.4015" stroke="#202B4B" stroke-width="1.70203" stroke-linejoin="round"/>
<path d="M32.0388 22.1195V31.0484" stroke="#202B4B" stroke-width="1.70203" stroke-linejoin="round"/>
<path d="M24.5471 31.0484V37.7715" stroke="#202B4B" stroke-width="1.70203" stroke-linejoin="round"/>
<path d="M29.0127 31.0484V37.7714" stroke="#202B4B" stroke-width="1.70203" stroke-linejoin="round"/>
<path d="M33.6392 31.0484V37.7714" stroke="#202B4B" stroke-width="1.70203" stroke-linejoin="round"/>
</svg>
