<svg width="59" height="59" viewBox="0 0 59 59" fill="none" xmlns="http://www.w3.org/2000/svg">
<path d="M29.149 58.298C45.2475 58.298 58.298 45.2475 58.298 29.149C58.298 13.0504 45.2475 0 29.149 0C13.0504 0 0 13.0504 0 29.149C0 45.2475 13.0504 58.298 29.149 58.298Z" fill="#FFC72C"/>
<path d="M39.8618 16.3055H13.1637C12.4216 16.3055 11.8191 16.908 11.8191 17.6501V25.6394" stroke="#202B4B" stroke-width="1.70203" stroke-linejoin="round"/>
<path d="M11.9485 29.4826V40.648C11.9485 41.39 12.551 41.9926 13.2931 41.9926H36.308" stroke="#202B4B" stroke-width="1.70203" stroke-linejoin="round"/>
<path d="M39.8613 41.9926H45.1342C45.8763 41.9926 46.4788 41.39 46.4788 40.648V17.6501C46.4788 16.908 45.8763 16.3055 45.1342 16.3055H41.8221" stroke="#202B4B" stroke-width="1.70203" stroke-linejoin="round"/>
<path d="M11.9485 21.861H46.4793" stroke="#202B4B" stroke-width="1.70203" stroke-linejoin="round"/>
<path d="M16.0908 28.5295L17.7248 33.622L19.6855 28.5295L21.4012 33.622L22.9602 28.5295" stroke="#202B4B" stroke-width="1.70203" stroke-linecap="round" stroke-linejoin="round"/>
<path d="M25.6594 28.5295L27.2934 33.622L29.2507 28.5295L30.9664 33.622L32.5288 28.5295" stroke="#202B4B" stroke-width="1.70203" stroke-linecap="round" stroke-linejoin="round"/>
<path d="M35.1875 28.5295L36.8214 33.622L38.7788 28.5295L40.4944 33.622L42.0569 28.5295" stroke="#202B4B" stroke-width="1.70203" stroke-linecap="round" stroke-linejoin="round"/>
<path d="M15.5904 20.0023C16.1037 20.0023 16.5198 19.5863 16.5198 19.073C16.5198 18.5598 16.1037 18.1437 15.5904 18.1437C15.0772 18.1437 14.6611 18.5598 14.6611 19.073C14.6611 19.5863 15.0772 20.0023 15.5904 20.0023Z" fill="#202B4B"/>
<path d="M18.5965 20.0023C19.1098 20.0023 19.5259 19.5863 19.5259 19.073C19.5259 18.5598 19.1098 18.1437 18.5965 18.1437C18.0833 18.1437 17.6672 18.5598 17.6672 19.073C17.6672 19.5863 18.0833 20.0023 18.5965 20.0023Z" fill="#202B4B"/>
<path d="M21.5372 20.0023C22.0505 20.0023 22.4665 19.5863 22.4665 19.073C22.4665 18.5598 22.0505 18.1437 21.5372 18.1437C21.024 18.1437 20.6079 18.5598 20.6079 19.073C20.6079 19.5863 21.024 20.0023 21.5372 20.0023Z" fill="#202B4B"/>
</svg>
