<svg width="104" height="23" viewBox="0 0 104 23" fill="none" xmlns="http://www.w3.org/2000/svg">
<path d="M99.2498 16.5953C100.84 15.8204 101.87 14.9083 102.504 14.1697C104.47 11.8693 104.223 6.91321 99.7787 5.97285C96.7711 5.33518 93.162 5.67823 90.118 5.72262L87.0781 22.6249H91.9307L93.2023 16.68C93.2023 16.68 95.8062 19.9087 96.6702 20.8935C98.5635 23.0487 100.865 23.5007 103.557 22.4635L103.755 18.5083C101.886 18.8191 100.291 18.4518 99.2498 16.5953ZM98.4061 12.4989C98.0952 12.8782 97.6915 13.1043 97.2232 13.1406C96.6419 13.185 94.1793 13.1527 93.598 13.1527L94.1833 9.83115C94.1833 9.83115 97.1667 9.79886 97.6794 9.88362C98.3455 9.99258 98.8259 10.5334 98.8219 11.1509C98.8219 11.6473 98.7331 12.0993 98.4101 12.4989H98.4061Z" fill="white"/>
<path d="M54.183 5.65422C54.183 5.65422 60.501 5.48068 63.1372 5.91655C66.5444 6.47754 69.0111 9.23809 68.9949 12.4143C68.9828 14.969 68.5387 17.2816 66.8755 19.3238C65.2849 21.2731 63.2179 22.4233 60.8118 22.6049C57.8325 22.8309 54.187 22.6735 51.1875 22.6695L54.179 5.65422H54.183ZM56.9322 18.3551C58.0586 18.5408 59.0194 18.4964 60.0165 18.339C61.7161 18.0686 62.7537 17.0879 63.3188 15.5462C63.553 14.9125 63.7306 14.2345 63.7952 13.5646C63.9567 11.8977 62.9636 10.4246 61.4255 10.1462C60.4122 9.96454 59.3545 9.93226 58.3008 10.2228L56.9322 18.3551Z" fill="white"/>
<path d="M39.9111 13.8189C39.9111 13.8189 38.8332 19.683 38.3003 22.5848H33.6133C33.6133 22.5848 36.1082 7.7126 36.4594 5.78345H40.5691C42.3535 8.7135 44.15 11.587 46.1403 14.8642C46.7337 11.7001 47.2666 8.85879 47.8641 5.6543L51.9294 9.9848C51.1745 14.1902 50.4236 18.3552 49.6606 22.5929H45.3894C43.7019 19.8162 39.907 13.8189 39.907 13.8189H39.9111Z" fill="white"/>
<path d="M26.2209 5.53341C30.7021 5.2509 33.4634 8.79037 33.6087 12.8303C33.7581 16.9469 31.1179 20.9747 26.992 22.3873C24.4446 23.259 21.8327 23.3357 19.4508 21.7254C17.7512 20.5751 16.8106 18.9527 16.5037 16.9186C15.7165 11.6639 18.7726 7.81772 22.2929 6.30427C23.5686 5.75539 24.8806 5.4648 26.2209 5.53341ZM28.522 13.5164C28.5382 11.2159 27.0526 9.84777 24.9049 10.3482C22.3252 10.9496 21.0495 13.028 21.4734 15.7079C21.8165 17.8832 23.4919 18.6944 25.5992 17.9559C27.3352 17.3464 28.5099 15.5626 28.522 13.5164Z" fill="white"/>
<path d="M12.8645 16.507C13.4822 17.8187 14.0272 18.9851 14.6287 20.2685C11.9279 22.3631 9.04145 23.3559 5.65033 22.799C2.76787 22.3227 0.906789 20.6034 0.293157 17.9115C-1.22074 11.2563 3.31691 5.6182 9.5703 5.56574C10.733 5.55766 11.8795 5.57381 12.9776 6.03793C14.8629 6.833 15.9085 8.1931 15.8964 10.2837C15.8964 10.8003 15.8964 11.3169 15.8964 11.9828C14.33 12.3258 12.8807 12.6406 11.3345 12.9797C11.4798 12.2976 11.4435 11.5631 10.9994 10.8608C10.5553 10.1586 9.84482 10.098 9.69142 10.1021C7.91511 10.1222 6.38911 11.111 5.77951 12.7375C5.31929 13.9684 4.9398 15.2155 5.44847 16.5676C5.8441 17.629 6.52233 18.1819 7.65674 18.2667C9.13834 18.3797 10.4544 17.968 11.6898 17.1972C12.0289 16.9873 12.3761 16.7936 12.8605 16.507H12.8645Z" fill="white"/>
<path d="M24.2422 0H29.5227V4.7462L24.2422 0Z" fill="white"/>
<path d="M79.6819 5.53341C84.163 5.2509 86.9243 8.79037 87.0697 12.8303C87.219 16.9469 84.5788 20.9747 80.4529 22.3873C77.9056 23.259 75.2936 23.3357 72.9117 21.7254C71.2121 20.5751 70.2715 18.9527 69.9647 16.9186C69.1775 11.6639 72.2335 7.81772 75.7538 6.30427C77.0295 5.75539 78.3416 5.4648 79.6819 5.53341ZM81.983 13.5164C81.9991 11.2159 80.5135 9.84777 78.3658 10.3482C75.7861 10.9496 74.5104 13.028 74.9343 15.7079C75.2774 17.8832 76.9528 18.6944 79.0602 17.9559C80.7961 17.3464 81.9709 15.5626 81.983 13.5164Z" fill="white"/>
</svg>
