<svg width="253" height="61" viewBox="0 0 253 61" fill="none" xmlns="http://www.w3.org/2000/svg">
<path d="M17.09 50.1599C7.68004 50.1799 0.0300393 42.5699 3.93316e-05 33.1599C-0.0199607 23.7499 7.59004 16.0999 17 16.0699C22.7 16.0499 28.03 18.8899 31.2 23.6199L31.28 23.7399L27.13 26.5399L27.05 26.4199C23.34 20.9199 15.88 19.4699 10.38 23.1799C4.88004 26.8899 3.43004 34.3499 7.14004 39.8499C10.85 45.3499 18.31 46.7999 23.81 43.0899C25.09 42.2299 26.19 41.1299 27.05 39.8499L27.13 39.7299L31.28 42.5299L31.2 42.6499C28.03 47.3399 22.75 50.1499 17.09 50.1599Z" fill="#665C5A"/>
<path d="M51.9111 50.1601C42.5011 50.1601 34.8711 42.5301 34.8711 33.1201C34.8711 23.7101 42.5011 16.0801 51.9111 16.0801C61.3211 16.0801 68.9511 23.7101 68.9511 33.1201C68.9511 42.5301 61.3211 50.1601 51.9111 50.1601ZM51.9111 21.1301C45.2811 21.1301 39.9011 26.5101 39.9011 33.1401C39.9011 39.7701 45.2811 45.1501 51.9111 45.1501C58.5411 45.1501 63.9211 39.7701 63.9211 33.1401C63.9111 26.5101 58.5411 21.1401 51.9111 21.1301Z" fill="#665C5A"/>
<path d="M75.5703 60.3799V18.1799H80.5703V21.1399C87.2203 14.4799 98.0103 14.4699 104.68 21.1199C111.34 27.7699 111.35 38.5599 104.7 45.2299C98.0503 51.8899 87.2603 51.8999 80.5903 45.2499L80.5703 45.2299V60.3899H75.5703V60.3799ZM92.6103 21.1299C85.9803 21.1299 80.5903 26.4999 80.5903 33.1399C80.5903 39.7699 85.9603 45.1599 92.6003 45.1599C99.2303 45.1599 104.62 39.7899 104.62 33.1499C104.6 26.5099 99.2203 21.1399 92.5903 21.1399H92.6203L92.6103 21.1299Z" fill="#665C5A"/>
<path d="M115.871 60.3798V18.1798H120.881V21.1398C124.061 17.9398 128.381 16.1498 132.891 16.1598C142.291 15.6298 150.341 22.8198 150.871 32.2098C151.401 41.6098 144.211 49.6598 134.821 50.1898C134.181 50.2298 133.531 50.2298 132.891 50.1898C128.381 50.1998 124.061 48.4098 120.881 45.2098V60.3698H115.871V60.3798ZM132.911 21.1298C126.281 21.1298 120.901 26.5098 120.901 33.1398C120.901 39.7698 126.281 45.1498 132.911 45.1498C139.541 45.1498 144.921 39.7698 144.921 33.1398C144.911 26.4998 139.521 21.1298 132.881 21.1298H132.911Z" fill="#665C5A"/>
<path d="M197.471 0H192.461V49.47H197.471V0Z" fill="#665C5A"/>
<path d="M211.061 18.4702H206.051V49.4602H211.061V18.4702Z" fill="#665C5A"/>
<path d="M235.66 50.1601C226.26 50.6901 218.21 43.5001 217.68 34.1101C217.15 24.7101 224.34 16.6601 233.73 16.1301C234.37 16.0901 235.02 16.0901 235.66 16.1301C240.17 16.1301 244.5 17.9301 247.67 21.1401V18.4701H252.68V49.4701H247.67V45.1801C244.49 48.3801 240.17 50.1701 235.66 50.1601ZM235.66 21.1301C229.03 21.1301 223.64 26.5001 223.64 33.1401C223.64 39.7701 229.01 45.1601 235.65 45.1601C242.28 45.1601 247.67 39.7901 247.67 33.1501C247.66 26.5201 242.29 21.1501 235.66 21.1401V21.1301Z" fill="#665C5A"/>
<path d="M171.749 50.1702C162.339 50.2002 154.679 42.6002 154.649 33.1802C154.619 23.7702 162.219 16.1102 171.639 16.0802C177.169 16.0602 182.369 18.7302 185.579 23.2402L185.649 23.3502L164.809 42.9502C166.829 44.4002 169.259 45.1802 171.749 45.1802C175.749 45.1802 179.479 43.1902 181.709 39.8802L181.789 39.7602L185.939 42.5602L185.859 42.6802C182.689 47.3602 177.399 50.1702 171.749 50.1702ZM171.749 21.1402C165.129 21.1202 159.749 26.4802 159.739 33.1002C159.739 35.2602 160.309 37.3802 161.419 39.2402L178.459 23.2002C176.479 21.8502 174.139 21.1302 171.749 21.1302V21.1402Z" fill="#665C5A"/>
<path d="M208.549 12.6702C206.979 12.6702 205.699 11.3902 205.699 9.82021C205.699 8.25021 206.979 6.97021 208.549 6.97021C210.119 6.97021 211.399 8.25021 211.399 9.82021C211.399 11.3902 210.119 12.6702 208.549 12.6702Z" fill="#665C5A"/>
</svg>
