<svg width="100" height="100" viewBox="0 0 100 100" fill="none" xmlns="http://www.w3.org/2000/svg">
<g clip-path="url(#clip0_1405_237)">
<path d="M50 100C77.6142 100 100 77.6142 100 50C100 22.3858 77.6142 0 50 0C22.3858 0 0 22.3858 0 50C0 77.6142 22.3858 100 50 100Z" fill="#FFC72C"/>
<path d="M72.1597 76.4043C79.0608 76.4043 84.6553 70.8098 84.6553 63.9087C84.6553 57.0076 79.0608 51.4131 72.1597 51.4131C65.2585 51.4131 59.6641 57.0076 59.6641 63.9087C59.6641 70.8098 65.2585 76.4043 72.1597 76.4043Z" stroke="#202B4B" stroke-width="2.54514" stroke-linejoin="round"/>
<path d="M79.3437 63.3016L78.2635 60.6974C78.2051 60.5514 78.0358 60.4813 77.8839 60.5397L74.7951 61.8127C74.4564 61.9528 74.1528 62.128 73.8783 62.3382L73.9075 57.5326C73.9075 57.375 73.7791 57.2465 73.6214 57.2407L70.7895 57.2231C70.6318 57.2231 70.4975 57.3516 70.4975 57.5093L70.4683 62.3265C70.188 62.1163 69.8786 61.9353 69.5399 61.7893L66.451 60.5164C66.305 60.458 66.1357 60.5222 66.0715 60.674L64.9854 63.2783C64.927 63.4242 64.9971 63.5936 65.1431 63.652L69.0144 65.246L67.4086 69.094C67.3502 69.24 67.4145 69.4093 67.5663 69.4677L70.1822 70.5479C70.3282 70.6063 70.4975 70.5421 70.5617 70.3903L71.8405 67.3189C72.0682 66.77 72.1733 66.2036 72.1675 65.6431C72.1558 66.2095 72.2609 66.7817 72.4886 67.3364L73.7674 70.4136C73.8258 70.5596 73.9951 70.6297 74.1469 70.5713L76.7628 69.4969C76.9088 69.4385 76.9789 69.2692 76.9205 69.1232L75.3206 65.2694L79.1919 63.6753C79.3379 63.6169 79.4079 63.4476 79.3495 63.3016" fill="#202C49"/>
<mask id="mask0_1405_237" style="mask-type:luminance" maskUnits="userSpaceOnUse" x="21" y="10" width="50" height="75">
<path d="M56.9993 76.4102V84.6024H35.202L36.4983 76.4102L21.9648 63.9145L23.0042 29.2129L43.2424 10.1191L65.8221 19.5142L70.6219 44.6339L67.7607 52.213C67.7607 52.213 59.4926 56.1486 59.6619 61.0592C59.8312 65.9699 61.4662 68.3172 61.4662 68.3172L62.4063 71.7214L56.9993 76.416V76.4102Z" fill="white"/>
</mask>
<g mask="url(#mask0_1405_237)">
<path d="M64.3146 33.8725C64.3146 33.8725 60.4141 38.2576 58.3821 39.9334C57.4596 39.04 55.8655 37.7496 53.5824 37.0314C52.8409 36.7978 52.181 36.6694 48.2221 36.5467C41.9977 36.3541 41.1043 36.5818 40.2693 37.2299C40.0591 37.3934 38.068 38.9758 38.4125 41.1947C38.7278 43.2442 40.7832 44.2076 40.9817 44.2952C44.6253 44.377 48.2747 44.4645 51.9183 44.5463C52.8992 44.6047 59.6142 45.1127 63.4505 50.6656C65.4533 53.5618 65.7394 56.4814 65.7978 57.4857C66.1656 63.6984 62.0024 67.7916 61.4652 68.3055C57.5238 72.0542 52.7474 72.1768 51.673 72.1768V79.9895H42.2196V72.1709C40.6839 72.1359 37.8286 71.8673 34.7456 70.2441C32.2581 68.9361 30.629 67.272 29.7064 66.1684C31.1545 63.8269 32.6026 61.4854 34.0507 59.144C37.2505 61.3278 39.9248 61.9584 41.7408 62.1336C42.1145 62.1686 42.605 62.2036 46.6923 62.2095C48.8644 62.2095 50.657 62.2095 51.8716 62.2036C53.7693 62.2036 55.41 61.0592 55.9239 59.4359C56.5311 57.509 55.2524 55.8858 55.1648 55.7748C53.9328 54.2683 52.1168 54.2683 51.8949 54.2742H40.5146C39.1424 54.0523 35.9192 53.3341 33.0697 50.6656C32.4975 50.1284 27.9839 45.7725 28.6729 39.1919C29.3269 32.9499 34.1383 29.6216 35.5864 28.7282C38.1906 27.1166 40.7248 26.6904 42.2021 26.5561C42.2079 23.8818 42.2196 21.2075 42.2254 18.5332H52.3504V25.832C54.7386 26.8889 57.4187 27.4728 59.5149 29.0027" stroke="#202B4B" stroke-width="2.54514" stroke-linejoin="round"/>
</g>
</g>
<defs>
<clipPath id="clip0_1405_237">
<rect width="100" height="100" fill="white"/>
</clipPath>
</defs>
</svg>
