<svg xmlns="http://www.w3.org/2000/svg" width="100" height="100" viewBox="0 0 100 100" fill="none">
  <g clip-path="url(#clip0_1405_218)">
    <path d="M50 100C77.6142 100 100 77.6142 100 50C100 22.3858 77.6142 0 50 0C22.3858 0 0 22.3858 0 50C0 77.6142 22.3858 100 50 100Z" fill="#FFC72C"/>
    <path d="M25.8188 26.0772C24.978 27.1866 21.6614 31.7995 22.5139 37.7904C23.5299 44.9549 30.1222 51.3137 37.8882 51.1093C47.0205 50.8758 54.2843 41.6734 52.4625 32.7805C50.8976 25.1605 43.2017 20.4133 36.37 20.7987C32.5688 21.0147 29.7368 22.7898 28.3238 23.8408" stroke="#202B4B" stroke-width="2.54514" stroke-linejoin="round"/>
    <path d="M33.0586 42.298C33.7126 42.6134 35.6511 43.4367 37.8583 42.7769C38.5707 42.5608 39.867 42.1754 40.5443 40.9551C41.3676 39.4719 40.8596 37.5217 39.8728 36.4473C39.3765 35.9043 39.1371 35.9977 37.2802 35.0109C35.33 33.9715 34.349 33.4402 34.0162 32.7103C33.4848 31.5425 33.806 29.6856 35.1665 28.6813C36.4511 27.7354 38.0802 27.9806 39.102 28.5879C39.7619 28.9791 40.1531 29.5105 40.3516 29.8375" stroke="#202B4B" stroke-width="2.54514" stroke-linejoin="round"/>
    <path d="M37.0039 25.5107V27.5252" stroke="#202B4B" stroke-width="2.54514" stroke-linejoin="round"/>
    <path d="M37.0039 43.0278V45.562" stroke="#202B4B" stroke-width="2.54514" stroke-linejoin="round"/>
    <path d="M69.199 40.7742C69.199 40.7742 66.7174 31.712 60.6156 28.0917C54.5137 24.4715 48.3477 25.4116 48.3477 25.4116" stroke="#202B4B" stroke-width="2.54514" stroke-linejoin="round"/>
    <path d="M62.0918 38.6841L69.198 41.0956L72.1467 34.4624" stroke="#202B4B" stroke-width="2.54514" stroke-linejoin="round"/>
    <path d="M74.1793 73.9227C75.0201 72.8132 78.3367 68.2004 77.4842 62.2095C76.4682 55.0449 69.8759 48.6862 62.11 48.8905C52.9776 49.1241 45.7138 58.3265 47.5356 67.2194C49.1005 74.8394 56.7964 79.5866 63.6281 79.2012C67.4294 78.9851 70.2613 77.21 71.6744 76.159" stroke="#202B4B" stroke-width="2.54514" stroke-linejoin="round"/>
    <path d="M59.043 71.2311C59.6969 71.5465 61.6355 72.3698 63.8427 71.71C64.5551 71.4939 65.8513 71.1085 66.5287 69.8882C67.352 68.405 66.844 66.4548 65.8572 65.3804C65.3608 64.8374 65.1214 64.9308 63.2646 63.944C61.3144 62.9046 60.3334 62.3733 60.0006 61.6434C59.4692 60.4756 59.7904 58.6187 61.1509 57.6144C62.4355 56.6685 64.0646 56.9137 65.0864 57.521C65.7462 57.9122 66.1374 58.4436 66.336 58.7706" stroke="#202B4B" stroke-width="2.54514" stroke-linejoin="round"/>
    <path d="M62.9902 54.438V56.4525" stroke="#202B4B" stroke-width="2.54514" stroke-linejoin="round"/>
    <path d="M62.9902 71.9609V74.4893" stroke="#202B4B" stroke-width="2.54514" stroke-linejoin="round"/>
    <path d="M30.8008 59.2256C30.8008 59.2256 33.2824 68.2878 39.3842 71.9081C45.4861 75.5283 51.6521 74.5882 51.6521 74.5882" stroke="#202B4B" stroke-width="2.54514" stroke-linejoin="round"/>
    <path d="M37.9064 61.3163L30.8003 58.9048L27.8516 65.5438" stroke="#202B4B" stroke-width="2.54514" stroke-linejoin="round"/>
  </g>
  <defs>
    <clipPath id="clip0_1405_218">
      <rect width="100" height="100" fill="white"/>
    </clipPath>
  </defs>
</svg>