<svg width="174" height="110" viewBox="0 0 174 110" fill="none" xmlns="http://www.w3.org/2000/svg">
<path d="M40.0911 30.7104H30.8511C31.1011 30.2404 31.2511 29.7104 31.2511 29.1404C31.2511 27.3304 29.7811 25.8604 27.9711 25.8604H11.4311C9.62109 25.8604 8.15109 27.3304 8.15109 29.1404C8.15109 29.6004 8.2411 30.0303 8.4111 30.4203H5.15109C3.34109 30.4203 1.87109 31.8903 1.87109 33.7003C1.87109 35.5103 3.34109 36.9804 5.15109 36.9804H13.8311C14.5311 38.5004 16.0611 39.5504 17.8411 39.5504H40.0911C42.5311 39.5504 44.5111 37.5703 44.5111 35.1303C44.5111 32.6903 42.5311 30.7104 40.0911 30.7104Z" stroke="#FFC72C" stroke-width="1.78" stroke-miterlimit="10" stroke-linecap="round"/>
<path d="M132.931 87.7001H142.481C142.221 88.1801 142.071 88.7301 142.071 89.3201C142.071 91.1901 143.591 92.7101 145.461 92.7101H162.561C164.431 92.7101 165.951 91.1901 165.951 89.3201C165.951 88.8501 165.851 88.4001 165.681 87.9901H169.041C170.911 87.9901 172.431 86.4701 172.431 84.6001C172.431 82.7301 170.911 81.2101 169.041 81.2101H160.071C159.351 79.6401 157.761 78.5601 155.921 78.5601H132.931C130.411 78.5601 128.361 80.6101 128.361 83.1301C128.361 85.6501 130.411 87.7001 132.931 87.7001Z" stroke="#FFC72C" stroke-width="1.78" stroke-miterlimit="10" stroke-linecap="round"/>
<path d="M163.501 59.2803H164.931C166.011 59.2803 166.891 58.4004 166.891 57.3204C166.891 56.2404 166.011 55.3604 164.931 55.3604H152.091C151.011 55.3604 150.131 56.2404 150.131 57.3204H139.601C138.521 57.3204 137.641 58.2003 137.641 59.2803C137.641 60.3603 138.521 61.2404 139.601 61.2404H146.221C146.091 61.5704 146.021 61.9303 146.021 62.3103C146.021 63.9803 147.381 65.3403 149.051 65.3403H163.501C165.171 65.3403 166.531 63.9803 166.531 62.3103C166.531 60.6403 165.171 59.2803 163.501 59.2803Z" stroke="#FFC72C" stroke-width="1.78" stroke-miterlimit="10" stroke-linecap="round"/>
<path d="M27.7428 92.4703H29.1728C30.2528 92.4703 31.1328 91.5903 31.1328 90.5103C31.1328 89.4303 30.2528 88.5503 29.1728 88.5503H16.3328C15.2528 88.5503 14.3728 89.4303 14.3728 90.5103H3.8428C2.7628 90.5103 1.88281 91.3903 1.88281 92.4703C1.88281 93.5503 2.7628 94.4303 3.8428 94.4303H10.4628C10.3328 94.7603 10.2628 95.1203 10.2628 95.5003C10.2628 97.1703 11.6228 98.5303 13.2928 98.5303H27.7428C29.4128 98.5303 30.7728 97.1703 30.7728 95.5003C30.7728 93.8303 29.4128 92.4703 27.7428 92.4703Z" stroke="#FFC72C" stroke-width="1.78" stroke-miterlimit="10" stroke-linecap="round"/>
<path d="M152.17 33.5903H19.9805V108.52H152.17V33.5903Z" fill="white" stroke="#FFC72C" stroke-width="1.78" stroke-miterlimit="10" stroke-linecap="round"/>
<path d="M24.7109 48.04H147.631" stroke="#FFC72C" stroke-width="1.78" stroke-miterlimit="10" stroke-linecap="round"/>
<path d="M61.7211 20.9602L48.4512 7.24023" stroke="#FFC72C" stroke-width="1.78" stroke-miterlimit="10" stroke-linecap="round"/>
<path d="M114.201 20.1103L123.711 3.57031" stroke="#FFC72C" stroke-width="1.78" stroke-miterlimit="10" stroke-linecap="round"/>
<path d="M87.9102 20.9601V1.87012" stroke="#FFC72C" stroke-width="1.78" stroke-miterlimit="10" stroke-linecap="round"/>
<path d="M143.521 43.94C145.293 43.94 146.731 42.5029 146.731 40.73C146.731 38.9572 145.293 37.52 143.521 37.52C141.748 37.52 140.311 38.9572 140.311 40.73C140.311 42.5029 141.748 43.94 143.521 43.94Z" stroke="#FFC72C" stroke-width="1.78" stroke-miterlimit="10" stroke-linecap="round"/>
<path d="M132.281 40.73H118.951" stroke="#FFC72C" stroke-width="1.78" stroke-miterlimit="10" stroke-linecap="round"/>
<path d="M40.7697 40.73H27.4297" stroke="#FFC72C" stroke-width="1.78" stroke-miterlimit="10" stroke-linecap="round"/>
<path d="M93.4208 95.86H70.7308C67.1808 95.86 64.3008 92.98 64.3008 89.43C64.3008 85.88 67.1808 83 70.7308 83H101.431C104.981 83 107.861 85.88 107.861 89.43C107.861 92.98 104.981 95.86 101.431 95.86H98.6408" stroke="#FFC72C" stroke-width="1.78" stroke-miterlimit="10" stroke-linecap="round"/>
<path d="M75.0703 91.0003C75.9429 91.0003 76.6503 90.2929 76.6503 89.4203C76.6503 88.5477 75.9429 87.8403 75.0703 87.8403C74.1976 87.8403 73.4902 88.5477 73.4902 89.4203C73.4902 90.2929 74.1976 91.0003 75.0703 91.0003Z" stroke="#FFC72C" stroke-width="1.78" stroke-miterlimit="10" stroke-linecap="round"/>
<path d="M83.1308 91.0003C84.0034 91.0003 84.7108 90.2929 84.7108 89.4203C84.7108 88.5477 84.0034 87.8403 83.1308 87.8403C82.2582 87.8403 81.5508 88.5477 81.5508 89.4203C81.5508 90.2929 82.2582 91.0003 83.1308 91.0003Z" stroke="#FFC72C" stroke-width="1.78" stroke-miterlimit="10" stroke-linecap="round"/>
<path d="M89.9394 91.0003C90.812 91.0003 91.5194 90.2929 91.5194 89.4203C91.5194 88.5477 90.812 87.8403 89.9394 87.8403C89.0668 87.8403 88.3594 88.5477 88.3594 89.4203C88.3594 90.2929 89.0668 91.0003 89.9394 91.0003Z" stroke="#FFC72C" stroke-width="1.78" stroke-miterlimit="10" stroke-linecap="round"/>
<path d="M97.6308 91.0003C98.5034 91.0003 99.2108 90.2929 99.2108 89.4203C99.2108 88.5477 98.5034 87.8403 97.6308 87.8403C96.7582 87.8403 96.0508 88.5477 96.0508 89.4203C96.0508 90.2929 96.7582 91.0003 97.6308 91.0003Z" stroke="#FFC72C" stroke-width="1.78" stroke-miterlimit="10" stroke-linecap="round"/>
<path d="M92.7011 71.4399L93.7311 74.1899L88.9711 76.2699L86.0211 68.2699L83.1911 76.2699L78.2911 74.0799L80.9211 67.6199L74.3711 64.6699L75.0411 62.8999" stroke="#FFC72C" stroke-width="1.78" stroke-linecap="round" stroke-linejoin="round"/>
<path d="M75.7012 61.3199L76.3212 59.4399L83.2712 62.8899V54.6299H88.7311L88.7911 62.8999L96.0712 59.7399L97.6812 64.7299L91.1212 67.6499L91.6512 68.9299" stroke="#FFC72C" stroke-width="1.78" stroke-linecap="round" stroke-linejoin="round"/>
</svg>
