<svg width="152" height="117" viewBox="0 0 152 117" fill="none" xmlns="http://www.w3.org/2000/svg">
<path d="M69.4597 55.6399C75.4575 55.6399 80.3196 50.7777 80.3196 44.7799C80.3196 38.7821 75.4575 33.9199 69.4597 33.9199C63.4618 33.9199 58.5996 38.7821 58.5996 44.7799C58.5996 50.7777 63.4618 55.6399 69.4597 55.6399Z" stroke="#FFC72C" stroke-width="1.59" stroke-miterlimit="10" stroke-linecap="round"/>
<path d="M74.4298 45.6298L74.1698 43.6698C74.1598 43.5598 74.0498 43.4798 73.9398 43.4998L71.6198 43.7898C71.3698 43.8198 71.1299 43.8898 70.8999 43.9798L71.7898 40.7398C71.8198 40.6298 71.7599 40.5198 71.6499 40.4898L69.7398 39.9598C69.6298 39.9298 69.5198 39.9898 69.4898 40.0998L68.5899 43.3498C68.4399 43.1598 68.2598 42.9798 68.0598 42.8198L66.2099 41.3998C66.1199 41.3298 65.9898 41.3498 65.9298 41.4398L64.7198 42.9998C64.6498 43.0898 64.6699 43.2098 64.7599 43.2798L67.0799 45.0598L65.2898 47.3698C65.2198 47.4598 65.2399 47.5798 65.3299 47.6498L66.8999 48.8598C66.9899 48.9298 67.1198 48.9098 67.1798 48.8198L68.6098 46.9798C68.8598 46.6498 69.0398 46.2898 69.1298 45.9098C69.0198 46.2898 68.9798 46.6998 69.0398 47.1098L69.3399 49.4198C69.3499 49.5298 69.4598 49.6098 69.5698 49.5898L71.5299 49.3398C71.6399 49.3298 71.7199 49.2298 71.6999 49.1098L71.3198 46.2198L74.2198 45.8498C74.3298 45.8398 74.4099 45.7398 74.3899 45.6198" fill="#1F2B4A"/>
<path d="M32.8711 53.5099V41.8999L95.9311 53.5099" fill="white"/>
<path d="M32.8711 53.5099V41.8999L95.9311 53.5099" stroke="#FFC72C" stroke-width="1.59" stroke-miterlimit="10" stroke-linecap="round"/>
<path d="M104.76 44.8299C110.758 44.8299 115.62 39.9677 115.62 33.9699C115.62 27.9721 110.758 23.1099 104.76 23.1099C98.7626 23.1099 93.9004 27.9721 93.9004 33.9699C93.9004 39.9677 98.7626 44.8299 104.76 44.8299Z" stroke="#FFC72C" stroke-width="1.59" stroke-miterlimit="10" stroke-linecap="round"/>
<path d="M109.78 33.49L109.02 31.67C108.98 31.57 108.86 31.52 108.76 31.56L106.6 32.45C106.37 32.55 106.15 32.67 105.96 32.82L105.98 29.46C105.98 29.35 105.89 29.26 105.78 29.26H103.8C103.69 29.25 103.6 29.34 103.6 29.45L103.58 32.82C103.38 32.67 103.17 32.54 102.93 32.45L100.77 31.56C100.67 31.52 100.55 31.56 100.51 31.67L99.7495 33.49C99.7095 33.59 99.7495 33.71 99.8595 33.75L102.57 34.87L101.45 37.56C101.41 37.66 101.45 37.78 101.56 37.82L103.39 38.57C103.49 38.61 103.61 38.57 103.65 38.46L104.55 36.31C104.71 35.93 104.78 35.53 104.78 35.14C104.78 35.53 104.84 35.94 105 36.32L105.89 38.47C105.93 38.57 106.05 38.62 106.15 38.58L107.98 37.83C108.08 37.79 108.13 37.67 108.09 37.57L106.97 34.88L109.68 33.77C109.78 33.73 109.83 33.61 109.79 33.51" fill="#1F2B4A"/>
<path d="M46.6711 98.1696H38.4311C38.6611 97.7496 38.7911 97.2796 38.7911 96.7696C38.7911 95.1596 37.4811 93.8496 35.8711 93.8496H21.1311C19.5211 93.8496 18.2111 95.1596 18.2111 96.7696C18.2111 97.1796 18.2911 97.5596 18.4411 97.9096H15.5411C13.9311 97.9096 12.6211 99.2196 12.6211 100.83C12.6211 102.44 13.9311 103.75 15.5411 103.75H23.2811C23.9011 105.1 25.2711 106.04 26.8611 106.04H46.6911C48.8711 106.04 50.6311 104.28 50.6311 102.1C50.6311 99.9196 48.8711 98.1596 46.6911 98.1596L46.6711 98.1696Z" stroke="#FFC72C" stroke-width="1.59" stroke-miterlimit="10" stroke-linecap="round"/>
<path d="M96.0309 111.12H104.541C104.311 111.55 104.171 112.04 104.171 112.56C104.171 114.23 105.521 115.58 107.191 115.58H122.431C124.101 115.58 125.451 114.23 125.451 112.56C125.451 112.14 125.361 111.74 125.211 111.38H128.211C129.881 111.38 131.231 110.03 131.231 108.36C131.231 106.69 129.881 105.34 128.211 105.34H120.221C119.571 103.94 118.161 102.98 116.521 102.98H96.0309C93.7809 102.98 91.9609 104.8 91.9609 107.05C91.9609 109.3 93.7809 111.12 96.0309 111.12Z" stroke="#FFC72C" stroke-width="1.59" stroke-miterlimit="10" stroke-linecap="round"/>
<path d="M5.39032 75.4999H13.9003C13.6703 75.9299 13.5303 76.4199 13.5303 76.9399C13.5303 78.6099 14.8803 79.9599 16.5503 79.9599H31.7903C33.4603 79.9599 34.8103 78.6099 34.8103 76.9399C34.8103 76.5199 34.7203 76.1199 34.5703 75.7599H37.5703C39.2403 75.7599 40.5903 74.4099 40.5903 72.7399C40.5903 71.0699 39.2403 69.7199 37.5703 69.7199H29.5803C28.9303 68.3199 27.5203 67.3599 25.8803 67.3599H5.39032C3.14032 67.3599 1.32031 69.1799 1.32031 71.4299C1.32031 73.6799 3.14032 75.4999 5.39032 75.4999Z" stroke="#FFC72C" stroke-width="1.59" stroke-miterlimit="10" stroke-linecap="round"/>
<path d="M115.59 66.4398H124.099C123.869 66.8698 123.729 67.3598 123.729 67.8798C123.729 69.5498 125.08 70.8998 126.75 70.8998H141.99C143.66 70.8998 145.01 69.5498 145.01 67.8798C145.01 67.4598 144.92 67.0598 144.77 66.6998H147.77C149.44 66.6998 150.789 65.3498 150.789 63.6798C150.789 62.0098 149.44 60.6598 147.77 60.6598H139.78C139.13 59.2598 137.72 58.2998 136.08 58.2998H115.59C113.34 58.2998 111.52 60.1198 111.52 62.3698C111.52 64.6198 113.34 66.4398 115.59 66.4398Z" stroke="#FFC72C" stroke-width="1.59" stroke-miterlimit="10" stroke-linecap="round"/>
<path d="M20.8898 38.9098L5.00977 32.8198" stroke="#FFC72C" stroke-width="1.59" stroke-miterlimit="10" stroke-linecap="round"/>
<path d="M62.9805 18.4998L64.4505 1.5498" stroke="#FFC72C" stroke-width="1.59" stroke-miterlimit="10" stroke-linecap="round"/>
<path d="M42.0589 29.0596L34.8789 13.6396" stroke="#FFC72C" stroke-width="1.59" stroke-miterlimit="10" stroke-linecap="round"/>
<path d="M120.451 70.9998V53.5098H26.8809V111.48H120.451V96.9198" fill="white"/>
<path d="M120.451 70.9998V53.5098H26.8809V111.48H120.451V96.9198" stroke="#FFC72C" stroke-width="1.59" stroke-miterlimit="10" stroke-linecap="round"/>
<path d="M126.941 75.1396H88.3008V89.7697H126.941V75.1396Z" stroke="#FFC72C" stroke-width="1.59" stroke-miterlimit="10" stroke-linecap="round"/>
<path d="M95.9308 86.74C98.2117 86.74 100.061 84.8909 100.061 82.61C100.061 80.329 98.2117 78.48 95.9308 78.48C93.6499 78.48 91.8008 80.329 91.8008 82.61C91.8008 84.8909 93.6499 86.74 95.9308 86.74Z" stroke="#FFC72C" stroke-width="1.59" stroke-miterlimit="10" stroke-linecap="round"/>
<path d="M31.5312 60.6699H33.9112" stroke="#FFC72C" stroke-width="1.59" stroke-miterlimit="10" stroke-linecap="round"/>
<path d="M38.4707 60.6699H109.081" stroke="#FFC72C" stroke-width="1.59" stroke-miterlimit="10" stroke-linecap="round"/>
<path d="M111.352 60.6699H113.742V63.0499" stroke="#FFC72C" stroke-width="1.59" stroke-miterlimit="10" stroke-linecap="round"/>
<path d="M113.742 67.52V69.91" stroke="#FFC72C" stroke-width="1.59" stroke-miterlimit="10" stroke-linecap="round"/>
<path d="M31.5312 106.96H33.9112" stroke="#FFC72C" stroke-width="1.59" stroke-miterlimit="10" stroke-linecap="round"/>
<path d="M38.4707 106.96H109.081" stroke="#FFC72C" stroke-width="1.59" stroke-miterlimit="10" stroke-linecap="round"/>
<path d="M111.352 106.96H113.742V104.57" stroke="#FFC72C" stroke-width="1.59" stroke-miterlimit="10" stroke-linecap="round"/>
<path d="M113.742 100.1V97.7197" stroke="#FFC72C" stroke-width="1.59" stroke-miterlimit="10" stroke-linecap="round"/>
</svg>
