<svg width="158" height="109" viewBox="0 0 158 109" fill="none" xmlns="http://www.w3.org/2000/svg">
<path d="M152.969 28.6399H144.359C144.599 28.2099 144.729 27.7099 144.729 27.1799C144.729 25.4899 143.359 24.1299 141.679 24.1299H126.269C124.579 24.1299 123.219 25.4999 123.219 27.1799C123.219 27.5999 123.309 28.0099 123.459 28.3799H120.429C118.739 28.3799 117.379 29.7499 117.379 31.4299C117.379 33.1199 118.749 34.4799 120.429 34.4799H128.509C129.159 35.8899 130.589 36.8699 132.249 36.8699H152.969C155.239 36.8699 157.089 35.0299 157.089 32.7499C157.089 30.4799 155.249 28.6299 152.969 28.6299V28.6399Z" stroke="#FFC72C" stroke-width="1.66" stroke-miterlimit="10" stroke-linecap="round"/>
<path d="M5.16188 100.66H14.0519C13.8119 101.11 13.6719 101.62 13.6719 102.17C13.6719 103.91 15.0819 105.33 16.8319 105.33H32.7519C34.4919 105.33 35.9119 103.92 35.9119 102.17C35.9119 101.73 35.8219 101.31 35.6619 100.93H38.7919C40.5319 100.93 41.9519 99.5197 41.9519 97.7697C41.9519 96.0297 40.5419 94.6096 38.7919 94.6096H30.4419C29.7719 93.1496 28.2919 92.1396 26.5819 92.1396H5.17188C2.82188 92.1396 0.921875 94.0396 0.921875 96.3896C0.921875 98.7396 2.82188 100.64 5.17188 100.64L5.16188 100.66Z" stroke="#FFC72C" stroke-width="1.66" stroke-miterlimit="10" stroke-linecap="round"/>
<path d="M25.0002 53.0897H26.3302C27.3402 53.0897 28.1602 52.2697 28.1602 51.2597C28.1602 50.2497 27.3402 49.4297 26.3302 49.4297H14.3702C13.3602 49.4297 12.5402 50.2497 12.5402 51.2597H2.74015C1.73015 51.2597 0.910156 52.0797 0.910156 53.0897C0.910156 54.0997 1.73015 54.9197 2.74015 54.9197H8.91016C8.79016 55.2297 8.73016 55.5697 8.73016 55.9197C8.73016 57.4797 9.99016 58.7397 11.5502 58.7397H25.0102C26.5702 58.7397 27.8302 57.4797 27.8302 55.9197C27.8302 54.3597 26.5702 53.0997 25.0102 53.0997L25.0002 53.0897Z" stroke="#FFC72C" stroke-width="1.66" stroke-miterlimit="10" stroke-linecap="round"/>
<path d="M153.93 102.44H155.26C156.27 102.44 157.09 101.62 157.09 100.61C157.09 99.5998 156.27 98.7798 155.26 98.7798H143.3C142.29 98.7798 141.47 99.5998 141.47 100.61H131.67C130.66 100.61 129.84 101.43 129.84 102.44C129.84 103.45 130.66 104.27 131.67 104.27H137.84C137.72 104.58 137.66 104.92 137.66 105.27C137.66 106.83 138.92 108.09 140.48 108.09H153.94C155.5 108.09 156.76 106.83 156.76 105.27C156.76 103.71 155.5 102.45 153.94 102.45L153.93 102.44Z" stroke="#FFC72C" stroke-width="1.66" stroke-miterlimit="10" stroke-linecap="round"/>
<path d="M142.222 31.3296H19.1016V101.11H142.222V31.3296Z" fill="white" stroke="#FFC72C" stroke-width="1.66" stroke-miterlimit="10" stroke-linecap="round"/>
<path d="M115.722 60.6899H45.6016V75.6899H115.722V60.6899Z" fill="white" stroke="#FFC72C" stroke-width="1.66" stroke-miterlimit="10" stroke-linecap="round"/>
<path d="M23.5117 44.7798H137.982" stroke="#FFC72C" stroke-width="1.66" stroke-miterlimit="10" stroke-linecap="round"/>
<path d="M57.9794 19.5496L45.6094 6.78955" stroke="#FFC72C" stroke-width="1.66" stroke-miterlimit="10" stroke-linecap="round"/>
<path d="M106.848 18.7696L115.708 3.36963" stroke="#FFC72C" stroke-width="1.66" stroke-miterlimit="10" stroke-linecap="round"/>
<path d="M82.3711 19.5498V1.77979" stroke="#FFC72C" stroke-width="1.66" stroke-miterlimit="10" stroke-linecap="round"/>
<path d="M134.162 40.96C135.813 40.96 137.152 39.6213 137.152 37.97C137.152 36.3186 135.813 34.98 134.162 34.98C132.511 34.98 131.172 36.3186 131.172 37.97C131.172 39.6213 132.511 40.96 134.162 40.96Z" stroke="#FFC72C" stroke-width="1.66" stroke-miterlimit="10" stroke-linecap="round"/>
<path d="M123.691 37.9697H111.281" stroke="#FFC72C" stroke-width="1.66" stroke-miterlimit="10" stroke-linecap="round"/>
<path d="M119.209 80.6699H106.789" stroke="#FFC72C" stroke-width="1.66" stroke-miterlimit="10" stroke-linecap="round"/>
<path d="M98.4594 51.3496H62.8594" stroke="#FFC72C" stroke-width="1.66" stroke-miterlimit="10" stroke-linecap="round"/>
<path d="M38.4591 37.9697H26.0391" stroke="#FFC72C" stroke-width="1.66" stroke-miterlimit="10" stroke-linecap="round"/>
</svg>
