<svg xmlns="http://www.w3.org/2000/svg" width="30" height="30" viewBox="0 0 30 30" fill="none">
  <path d="M16.4592 22.1152H13.5442C13.2142 22.1152 12.9492 21.8502 12.9492 21.5202V13.5252C12.9492 13.1952 13.2142 12.9302 13.5442 12.9302H16.4592C16.7892 12.9302 17.0542 13.1952 17.0542 13.5252V21.5202C17.0542 21.8502 16.7892 22.1152 16.4592 22.1152ZM14.1392 20.9302H15.8692V14.1202H14.1392V20.9302Z" fill="#1E294D"/>
  <path d="M16.4592 12.3452H13.5442C13.2142 12.3452 12.9492 12.0802 12.9492 11.7502V8.83523C12.9492 8.50523 13.2142 8.24023 13.5442 8.24023H16.4592C16.7892 8.24023 17.0542 8.50523 17.0542 8.83523V11.7502C17.0542 12.0802 16.7892 12.3452 16.4592 12.3452ZM14.1392 11.1602H15.8692V9.43023H14.1392V11.1602Z" fill="#1E294D"/>
  <mask id="mask0_1405_278" style="mask-type:luminance" maskUnits="userSpaceOnUse" x="0" y="0" width="30" height="30">
    <path d="M28.075 7.64C27.815 7.175 27.525 6.73 27.22 6.3L23.265 9.23L22.29 7.915L26.195 5.02C23.45 1.94 19.45 0 15 0C6.715 0 0 6.715 0 15C0 23.285 6.715 30 15 30C23.285 30 30 23.285 30 15C30 12.325 29.3 9.815 28.075 7.64Z" fill="white"/>
  </mask>
  <g mask="url(#mask0_1405_278)">
    <path d="M15.0019 27.7098C7.99687 27.7098 2.29688 22.0098 2.29688 15.0048C2.29688 7.9998 7.99687 2.2998 15.0019 2.2998C22.0069 2.2998 27.7069 7.9998 27.7069 15.0048C27.7069 22.0098 22.0069 27.7098 15.0019 27.7098ZM15.0019 3.49481C8.65687 3.49481 3.49688 8.65481 3.49688 14.9998C3.49688 21.3448 8.65687 26.5048 15.0019 26.5048C21.3469 26.5048 26.5069 21.3448 26.5069 14.9998C26.5069 8.65481 21.3469 3.49481 15.0019 3.49481Z" fill="#1E294D"/>
  </g>
</svg>