<svg width="53" height="24" viewBox="0 0 53 24" fill="none" xmlns="http://www.w3.org/2000/svg">
<g clip-path="url(#clip0_1405_102)">
<path d="M47.2151 11.0388C45.8025 10.1332 44.2595 9.67157 42.6033 9.63623C41.6031 9.61414 40.6393 9.83502 39.7182 10.248C39.6669 10.2701 39.6028 10.2856 39.5707 10.3231C39.543 10.3607 39.5152 10.4004 39.4895 10.4402C39.4276 10.5396 39.4553 10.6699 39.5515 10.7318C39.5537 10.7318 39.5579 10.7362 39.5601 10.7384C39.5985 10.7627 39.6413 10.7803 39.684 10.7936C39.778 10.8201 39.8892 10.7826 39.9896 10.787C40.3935 10.8046 40.7974 10.8179 41.1971 10.8554C41.2911 10.8643 41.4279 10.9416 41.4514 11.0189C41.4749 11.0962 41.398 11.2331 41.3253 11.2994C39.4147 13.0465 39.466 16.5672 40.9257 18.2922C41.7634 19.2839 42.8213 19.7699 44.0651 19.8626C45.2084 19.9466 46.2556 19.6638 47.213 18.9902C47.9802 18.4512 49.0103 18.5617 49.6985 19.2044C49.9976 19.4849 50.2968 19.7654 50.596 20.0437C51.0662 20.4855 51.0769 20.8455 50.6174 21.3093C49.4463 22.4954 48.0422 23.2287 46.4415 23.5468C44.1911 23.9951 41.9921 23.845 39.9063 22.8024C37.4465 21.5766 35.9313 19.5534 35.4077 16.7837C34.9952 14.597 35.2752 12.4899 36.3715 10.5506C37.6132 8.35517 39.5088 7.05865 41.8874 6.5153C42.6439 6.34302 44.2553 6.24805 44.2745 6.24805C45.9991 6.25026 47.6447 6.59482 49.13 7.53573C49.6856 7.88692 50.1878 8.3375 50.6794 8.78587C51.079 9.1481 51.0427 9.5523 50.6516 9.92557C50.3439 10.2193 50.0297 10.5087 49.7177 10.8002C49.0274 11.4518 48.0016 11.549 47.2087 11.0366L47.2151 11.0388Z" fill="white"/>
<path d="M25.2959 16.1593C24.6953 16.1747 24.0969 16.2123 23.5221 16.431C22.7912 16.707 22.3744 17.2261 22.3338 18.0345C22.2911 18.8495 22.6352 19.4569 23.3276 19.8434C23.8106 20.1129 24.3384 20.2012 24.8834 20.2189C26.8773 20.2874 28.5613 18.5933 28.5357 16.5392C28.5314 16.2388 28.4609 16.1615 28.1681 16.1593C27.6381 16.1571 27.1081 16.1593 26.5781 16.1593C26.1507 16.1593 25.7233 16.1504 25.2959 16.1593ZM33.1518 12.9368C33.1839 14.5403 33.1604 16.146 33.1604 17.7496H33.1796V22.834C33.1796 23.1676 33.1646 23.1808 32.8441 23.1808C31.9957 23.1808 31.1472 23.1587 30.3009 23.1897C29.7068 23.2095 29.367 22.6154 29.553 22.0765C29.7303 21.5618 29.8479 21.0273 29.9932 20.5016C30.0381 20.3382 30.0445 20.1814 29.8735 20.0996C29.7026 20.0179 29.5957 20.1284 29.4953 20.2631C28.7537 21.257 27.9159 22.1361 26.826 22.7302C25.8942 23.2427 24.8984 23.4348 23.8533 23.4326C22.4685 23.4304 21.1392 23.1919 19.9531 22.4056C18.5576 21.4801 17.8288 20.1571 17.8053 18.4321C17.7733 16.1725 18.9337 14.7788 20.6541 14.0632C21.7483 13.6082 22.9002 13.4293 24.0713 13.405C25.4155 13.3763 26.764 13.3873 28.1104 13.3807C28.4865 13.3807 28.5271 13.3365 28.5122 12.961C28.4566 11.5364 27.5526 10.4475 26.1486 10.1582C24.3342 9.7849 22.6074 10.103 20.9682 10.9577C20.3228 11.2957 19.8826 11.1565 19.5492 10.4851C19.3077 9.99694 19.0598 9.51102 18.8205 9.02289C18.5555 8.47955 18.6965 7.98258 19.2158 7.69103C20.4617 6.98866 21.7996 6.57784 23.1994 6.36801C24.9304 6.10959 26.6615 6.10296 28.3669 6.55133C30.1086 7.00854 31.5127 7.95608 32.3654 9.64796C32.8826 10.675 33.1305 11.7838 33.154 12.9323L33.1518 12.9368Z" fill="white"/>
<path d="M13.4274 5.00939C14.7658 5.00939 15.8508 3.888 15.8508 2.50469C15.8508 1.12139 14.7658 0 13.4274 0C12.0889 0 11.0039 1.12139 11.0039 2.50469C11.0039 3.888 12.0889 5.00939 13.4274 5.00939Z" fill="white"/>
<path d="M11.331 15.1695C11.3481 14.3434 11.3481 13.5174 11.331 12.6891C11.3181 12.1678 11.4955 11.7394 11.8909 11.4544C12.2969 11.1629 12.7521 10.9442 13.186 10.699C13.2757 10.6482 13.389 10.635 13.4659 10.5731C13.5322 10.5201 13.607 10.4163 13.5963 10.3434C13.5856 10.2705 13.4937 10.18 13.4189 10.1513C13.3206 10.1137 13.2009 10.1204 13.0919 10.1204C10.5659 10.1204 8.03983 10.1115 5.51164 10.1226C4.74442 10.1248 4.10329 9.87077 3.59894 9.26779C3.22495 8.82383 3.05184 8.29816 3.03047 7.71726C3.02192 7.44338 3.0262 7.16729 3.03047 6.89562C3.03047 6.67695 3.20358 6.49805 3.41729 6.49805C4.37898 6.49805 5.33854 6.49805 6.30023 6.49805H9.20241C11.1023 6.49805 13.0043 6.49805 14.9042 6.49805C15.2953 6.49805 15.6158 6.62615 15.7889 7.01489C15.8509 7.15625 15.8808 7.31086 15.8808 7.46768C15.8872 10.0894 15.915 12.709 15.8787 15.3307C15.8295 18.7498 13.9895 21.8156 10.6001 23.1761C9.5593 23.5936 8.47793 23.7946 7.36023 23.8343C6.04164 23.8829 4.75297 23.7327 3.50705 23.2821C2.197 22.8095 1.07075 22.0364 0.151803 20.9586C-0.0512209 20.72 -0.0469467 20.6935 0.175311 20.4815C0.613416 20.0685 1.05366 19.6554 1.49604 19.2446C2.20555 18.5864 3.23563 18.5378 4.01567 19.1054C5.90273 20.4771 9.04854 20.2319 10.5103 18.0188C11.0788 17.1596 11.3139 16.1966 11.3352 15.1717L11.331 15.1695Z" fill="white"/>
<path d="M51.7928 22.251C51.7928 22.251 51.812 22.251 51.8206 22.2598C51.9039 22.3327 52.03 22.4012 52.0428 22.4851C52.0706 22.6795 51.8975 22.6773 51.7629 22.6905C51.6218 22.7038 51.5663 22.6397 51.5705 22.4895C51.577 22.3482 51.6218 22.2775 51.7928 22.251Z" fill="white"/>
<path d="M51.7871 23.7768C52.3383 23.7768 52.7851 23.315 52.7851 22.7453C52.7851 22.1757 52.3383 21.7139 51.7871 21.7139C51.2359 21.7139 50.7891 22.1757 50.7891 22.7453C50.7891 23.315 51.2359 23.7768 51.7871 23.7768Z" stroke="white" stroke-width="2" stroke-miterlimit="10"/>
<path d="M51.3789 23.3091V22.1826H51.8427C51.9602 22.1826 52.0435 22.1915 52.097 22.2113C52.1504 22.2312 52.1953 22.2688 52.2231 22.3196C52.2551 22.3726 52.2722 22.4344 52.2701 22.4963C52.2722 22.5736 52.2466 22.6487 52.1974 22.7061C52.1483 22.7613 52.0777 22.7966 51.9816 22.8099C52.0243 22.8364 52.0649 22.8673 52.0991 22.9049C52.1461 22.9623 52.1867 23.0241 52.2252 23.0882L52.3577 23.3091H52.0948L51.9367 23.0639C51.9025 23.0065 51.8619 22.9513 51.8213 22.8982C51.802 22.8784 51.7807 22.8607 51.755 22.8519C51.7187 22.8408 51.6802 22.8386 51.6439 22.8386H51.599V23.3113H51.381L51.3789 23.3091ZM51.599 22.6597H51.7614C51.8662 22.6597 51.9324 22.6553 51.9602 22.6464C51.9858 22.6376 52.0072 22.6222 52.0222 22.6001C52.0371 22.5758 52.0457 22.5448 52.0435 22.5161C52.0435 22.483 52.035 22.4499 52.0158 22.4234C51.9944 22.3991 51.9645 22.3836 51.9324 22.3792C51.9153 22.377 51.8619 22.3748 51.7721 22.3748H51.6012V22.6597H51.599Z" fill="white"/>
</g>
<defs>
<clipPath id="clip0_1405_102">
<rect width="53" height="24" fill="white"/>
</clipPath>
</defs>
</svg>
