<svg width="233" height="223" viewBox="0 0 233 223" fill="none" xmlns="http://www.w3.org/2000/svg">
<g clip-path="url(#clip0_1405_161)">
<path d="M157.605 48.1941C165.992 48.1941 172.792 41.3947 172.792 33.0072C172.792 24.6197 165.992 17.8203 157.605 17.8203C149.217 17.8203 142.418 24.6197 142.418 33.0072C142.418 41.3947 149.217 48.1941 157.605 48.1941Z" stroke="#FFC72C" stroke-width="2.35091" stroke-miterlimit="10" stroke-linecap="round"/>
<path d="M163.178 28.7049L160.921 27.1063C160.804 27.0122 160.616 27.0358 160.521 27.1768L158.617 29.8333C158.406 30.1154 158.241 30.4211 158.124 30.7502L155.655 26.7536C155.585 26.6126 155.397 26.5891 155.255 26.6596L152.905 28.1172C152.763 28.2112 152.74 28.3758 152.811 28.5168L155.302 32.5134C154.95 32.4899 154.597 32.4899 154.245 32.5604L151.024 33.1011C150.859 33.1246 150.765 33.2657 150.789 33.4302L151.235 36.1573C151.259 36.3219 151.4 36.4159 151.565 36.3924L155.608 35.7106L156.29 39.7307C156.313 39.8952 156.454 39.9893 156.619 39.9658L159.346 39.4956C159.511 39.4721 159.605 39.331 159.581 39.1665L159.04 35.9457C158.946 35.3815 158.735 34.8408 158.429 34.3941C158.711 34.8643 159.087 35.2875 159.581 35.6401L162.238 37.5208C162.355 37.6149 162.543 37.5913 162.637 37.4503L164.236 35.1934C164.33 35.0759 164.306 34.8878 164.165 34.7938L160.827 32.4428L163.202 29.1046C163.343 28.9635 163.319 28.7754 163.178 28.7049Z" fill="#1F2B4A"/>
<path d="M92.791 216.354C101.633 216.354 108.801 209.187 108.801 200.345C108.801 191.503 101.633 184.335 92.791 184.335C83.949 184.335 76.7812 191.503 76.7812 200.345C76.7812 209.187 83.949 216.354 92.791 216.354Z" stroke="#FFC72C" stroke-width="2.35091" stroke-miterlimit="10" stroke-linecap="round"/>
<path d="M97.5407 193.433C97.5407 193.433 96.5298 195.314 95.9421 196.089C95.5425 195.854 94.8607 195.525 93.9909 195.455C93.7087 195.431 93.4737 195.455 92.0396 195.737C89.8062 196.207 89.5241 196.348 89.2655 196.654C89.195 196.724 88.6308 197.453 88.9364 198.229C89.2185 198.934 90.0413 199.099 90.1118 199.122C91.4048 198.84 92.7214 198.558 94.0144 198.276C94.367 198.205 96.7884 197.829 98.6222 199.475C99.586 200.321 99.9387 201.356 100.033 201.708C100.691 203.895 99.5625 205.681 99.4215 205.916C98.34 207.585 96.6474 208.032 96.2712 208.126C96.4828 209.043 96.7179 209.983 96.9295 210.9C95.8011 211.159 94.6961 211.441 93.5677 211.7C93.3561 210.783 93.121 209.842 92.9094 208.925C92.3687 209.043 91.3343 209.184 90.0883 208.878C89.101 208.62 88.3722 208.173 87.949 207.868C88.2546 206.904 88.5838 205.963 88.8894 204.999C90.2059 205.493 91.2168 205.493 91.875 205.399C92.0161 205.376 92.1806 205.352 93.6382 204.999C94.414 204.811 95.0488 204.67 95.4719 204.553C96.1537 204.388 96.6239 203.848 96.6709 203.236C96.7179 202.507 96.1302 202.037 96.0832 201.99C95.519 201.567 94.8842 201.708 94.7902 201.732C93.4501 202.061 92.0866 202.366 90.7466 202.696C90.2294 202.743 89.0304 202.743 87.7844 202.037C87.5258 201.896 85.5511 200.721 85.2455 198.346C84.9398 196.066 86.3739 194.491 86.8206 194.044C87.5964 193.245 88.4662 192.892 88.9834 192.704C88.7483 191.764 88.5367 190.8 88.3016 189.86C89.5006 189.577 90.6996 189.295 91.8985 188.99C92.1101 189.86 92.3217 190.706 92.5098 191.576C93.4501 191.74 94.4375 191.717 95.3309 192.093" stroke="#FFC72C" stroke-width="1.41055" stroke-miterlimit="10" stroke-linecap="round" stroke-linejoin="round"/>
<path d="M58.9622 137.999C77.6069 137.999 92.7213 122.884 92.7213 104.24C92.7213 85.5949 77.6069 70.4805 58.9622 70.4805C40.3176 70.4805 25.2031 85.5949 25.2031 104.24C25.2031 122.884 40.3176 137.999 58.9622 137.999Z" stroke="#FFC72C" stroke-width="2.35091" stroke-miterlimit="10" stroke-linecap="round"/>
<path d="M74.5485 102.735L72.1975 97.0693C72.0565 96.7402 71.7038 96.5991 71.3747 96.7402L64.6511 99.5143C63.9223 99.8199 63.2641 100.196 62.6528 100.643L62.6999 90.2046C62.6999 89.852 62.4177 89.5699 62.0651 89.5699L55.9057 89.5464C55.5531 89.5464 55.271 89.8285 55.271 90.1576L55.2475 100.619C54.6362 100.149 53.9545 99.7729 53.2257 99.4672L46.5256 96.6932C46.1964 96.5521 45.8438 96.7167 45.7028 97.0223L43.3518 102.688C43.2108 103.017 43.3754 103.37 43.681 103.511L52.0972 106.99L48.6179 115.359C48.4768 115.689 48.6414 116.041 48.947 116.182L54.6362 118.533C54.9654 118.674 55.318 118.51 55.459 118.204L58.2566 111.527C58.7503 110.328 58.9854 109.106 58.9619 107.884C58.9384 109.106 59.15 110.352 59.6672 111.574L62.4413 118.251C62.5823 118.58 62.9349 118.721 63.2641 118.58L68.9533 116.229C69.2824 116.088 69.4235 115.736 69.2824 115.406L65.8031 107.037L74.2193 103.581C74.5485 103.417 74.6895 103.041 74.5485 102.735Z" fill="#1F2B4A"/>
<path d="M181.302 138.045C199.934 138.045 215.038 122.941 215.038 104.31C215.038 85.6782 199.934 70.5742 181.302 70.5742C162.67 70.5742 147.566 85.6782 147.566 104.31C147.566 122.941 162.67 138.045 181.302 138.045Z" stroke="#FFC72C" stroke-width="2.35091" stroke-miterlimit="10" stroke-linecap="round"/>
<path d="M194.445 92.4612C194.445 92.4612 191.435 95.8466 189.884 97.1161C189.179 96.4343 187.956 95.4469 186.193 94.8827C185.629 94.6946 185.112 94.6006 182.079 94.5065C177.283 94.3655 176.601 94.53 175.966 95.0237C175.802 95.1413 174.274 96.3638 174.532 98.0799C174.768 99.655 176.366 100.407 176.507 100.478C179.305 100.548 182.126 100.595 184.923 100.666C185.676 100.713 190.848 101.113 193.81 105.368C195.362 107.601 195.573 109.834 195.62 110.61C195.902 115.383 192.705 118.533 192.282 118.933C189.249 121.824 185.582 121.918 184.759 121.918C184.759 123.916 184.759 125.938 184.759 127.937C182.337 127.937 179.916 127.937 177.495 127.937C177.495 125.938 177.495 123.916 177.495 121.918C176.319 121.895 174.109 121.683 171.735 120.437C169.831 119.426 168.561 118.157 167.856 117.31C168.961 115.5 170.089 113.713 171.194 111.903C173.663 113.572 175.708 114.066 177.118 114.207C177.401 114.231 177.777 114.254 180.927 114.278C182.596 114.278 183.983 114.278 184.9 114.278C186.358 114.278 187.627 113.408 188.027 112.138C188.497 110.657 187.509 109.411 187.439 109.317C186.499 108.165 185.088 108.165 184.923 108.165C182.008 108.165 179.093 108.165 176.178 108.165C175.12 108.001 172.652 107.437 170.442 105.391C169.995 104.968 166.539 101.63 167.057 96.5518C167.55 91.756 171.265 89.1935 172.37 88.5117C174.368 87.2657 176.319 86.9366 177.471 86.8426C177.471 84.7738 177.495 82.7285 177.495 80.6597C180.081 80.6597 182.69 80.6597 185.276 80.6597C185.276 82.5404 185.276 84.3976 185.276 86.2783C187.11 87.1012 189.179 87.5478 190.777 88.7233" stroke="#FFC72C" stroke-width="2.35091" stroke-miterlimit="10" stroke-linecap="round" stroke-linejoin="round"/>
<path d="M112.113 97.7744H128.217" stroke="#FFC72C" stroke-width="2.35091" stroke-miterlimit="10" stroke-linecap="round"/>
<path d="M112.113 110.705H128.217" stroke="#FFC72C" stroke-width="2.35091" stroke-miterlimit="10" stroke-linecap="round"/>
<path d="M58.9621 146.932C82.5406 146.932 101.655 127.818 101.655 104.239C101.655 80.661 82.5406 61.5469 58.9621 61.5469C35.3836 61.5469 16.2695 80.661 16.2695 104.239C16.2695 127.818 35.3836 146.932 58.9621 146.932Z" stroke="#FFC72C" stroke-width="2.35091" stroke-linecap="round" stroke-linejoin="round" stroke-dasharray="5.37 5.37"/>
<path d="M181.302 147.002C204.88 147.002 223.995 127.888 223.995 104.31C223.995 80.7313 204.88 61.6172 181.302 61.6172C157.723 61.6172 138.609 80.7313 138.609 104.31C138.609 127.888 157.723 147.002 181.302 147.002Z" stroke="#FFC72C" stroke-width="2.35091" stroke-linecap="round" stroke-linejoin="round" stroke-dasharray="5.37 5.37"/>
<path d="M168.703 179.939L163.202 188.026C163.202 188.026 151.87 187.791 144.794 177.07C137.718 166.35 138.752 164.399 138.752 164.399L146.534 155.372" fill="white"/>
<path d="M168.703 179.939L163.202 188.026C163.202 188.026 151.87 187.791 144.794 177.07C137.718 166.35 138.752 164.399 138.752 164.399L146.534 155.372" stroke="#FFC72C" stroke-width="2.35091" stroke-miterlimit="10" stroke-linecap="round"/>
<path d="M168.713 179.97C172.722 176.35 171.006 167.917 164.881 161.132C158.756 154.348 150.541 151.783 146.532 155.402C142.523 159.021 144.239 167.455 150.364 174.239C156.489 181.023 164.704 183.589 168.713 179.97Z" stroke="#FFC72C" stroke-width="2.35091" stroke-miterlimit="10" stroke-linecap="round"/>
<path d="M160.475 164.117L158.101 162.518C157.96 162.424 157.842 162.448 157.819 162.565L157.278 164.869C157.231 165.128 157.208 165.387 157.231 165.669L153.799 161.86C153.681 161.743 153.54 161.696 153.446 161.743L152.106 162.918C152.036 162.989 152.059 163.13 152.177 163.271L155.609 167.103C155.327 167.056 155.045 167.032 154.786 167.079L152.435 167.385C152.318 167.408 152.294 167.526 152.365 167.667L153.728 170.182C153.799 170.323 153.963 170.417 154.081 170.417L157.019 170.041L159.018 173.756C159.088 173.897 159.253 173.991 159.37 173.991L161.369 173.732C161.486 173.709 161.51 173.591 161.439 173.45L159.841 170.488C159.558 169.947 159.206 169.454 158.806 169.03C159.206 169.477 159.653 169.9 160.17 170.229L162.967 172.134C163.108 172.228 163.226 172.204 163.249 172.087L163.696 170.135C163.72 170.018 163.626 169.853 163.508 169.783L160.005 167.408L160.687 164.517C160.71 164.352 160.616 164.188 160.475 164.117Z" fill="#1F2B4A"/>
<path d="M97.7028 41.2349L92.2016 49.3221C92.2016 49.3221 80.8702 49.087 73.794 38.3668C66.7177 27.6467 67.7522 25.6954 67.7522 25.6954L75.5337 16.6914" fill="white"/>
<path d="M97.7028 41.2349L92.2016 49.3221C92.2016 49.3221 80.8702 49.087 73.794 38.3668C66.7177 27.6467 67.7522 25.6954 67.7522 25.6954L75.5337 16.6914" stroke="#FFC72C" stroke-width="2.35091" stroke-miterlimit="10" stroke-linecap="round"/>
<path d="M97.7207 41.2669C101.729 37.6476 100.014 29.2139 93.8888 22.4298C87.7637 15.6457 79.5486 13.0801 75.5398 16.6995C71.531 20.3189 73.2466 28.7525 79.3717 35.5367C85.4968 42.3208 93.7119 44.8863 97.7207 41.2669Z" stroke="#FFC72C" stroke-width="2.35091" stroke-miterlimit="10" stroke-linecap="round"/>
<path d="M86.5819 23.1099C86.5819 23.1099 86.9345 24.7555 86.9816 25.4608C86.6524 25.2962 86.1587 25.1082 85.6886 25.1552C85.524 25.1787 85.4064 25.2022 84.8187 25.5784C83.8784 26.1896 83.8078 26.3306 83.8078 26.6128C83.8078 26.6833 83.8548 27.3415 84.372 27.9293C84.8422 28.47 85.3359 28.5405 85.3829 28.5405C85.9237 28.1879 86.4644 27.8117 87.0051 27.4591C87.1696 27.365 88.2275 26.8008 89.9437 27.9763C90.8371 28.5875 91.4718 29.3868 91.7069 29.6454C93.0469 31.3616 93.3055 32.9602 93.329 33.1483C93.5406 34.6294 92.8823 35.1701 92.7178 35.2876C93.2585 36.0164 93.7992 36.7687 94.3399 37.4975C93.8932 37.8266 93.4231 38.1557 92.9764 38.4849C92.4357 37.7561 91.895 37.0038 91.3543 36.275C91.1192 36.4161 90.649 36.6511 89.8732 36.5101C89.2384 36.3925 88.6742 36.1104 88.2981 35.8989C88.016 35.076 87.7339 34.2767 87.4753 33.4539C88.3921 33.736 88.9093 33.6185 89.1914 33.4774C89.2619 33.4539 89.3325 33.4069 89.9202 32.9837C90.2258 32.7486 90.4844 32.5606 90.6725 32.443C90.9546 32.2549 90.9546 31.7377 90.6725 31.244C90.3669 30.6328 89.8497 30.3037 89.8027 30.2802C89.309 29.9746 89.0504 30.1861 89.0269 30.2096C88.4861 30.6093 87.9454 31.009 87.3812 31.4086C87.1461 31.4791 86.5349 31.6202 85.571 31.1735C85.3829 31.0795 83.8313 30.3272 82.5618 28.3994C81.3629 26.5657 81.3629 25.1082 81.3864 24.7085C81.4334 23.9797 81.692 23.5801 81.8801 23.392C81.3159 22.6397 80.7752 21.8874 80.2109 21.1351C80.7046 20.7825 81.1748 20.4299 81.6685 20.0537C82.1622 20.7355 82.6794 21.4172 83.1731 22.1225C83.7373 22.1695 84.2545 22.052 84.8657 22.2636" stroke="#FFC72C" stroke-width="1.41055" stroke-miterlimit="10" stroke-linecap="round" stroke-linejoin="round"/>
<path d="M206.692 222.537H181.467C178.998 222.537 176.906 220.891 176.224 218.658H163.765C161.132 218.658 158.992 216.519 158.992 213.886C158.992 211.253 161.132 209.113 163.765 209.113H179.375C179.586 206.41 181.843 204.271 184.617 204.271H203.072C205.822 204.271 208.103 206.41 208.314 209.113H227.357C229.99 209.113 232.106 211.253 232.106 213.886C232.106 216.519 229.966 218.658 227.357 218.658H211.982C211.253 220.891 209.161 222.537 206.692 222.537ZM163.741 212.334C162.895 212.334 162.189 213.039 162.189 213.886C162.189 214.732 162.871 215.437 163.741 215.437H177.564C178.458 215.437 179.163 216.166 179.163 217.036C179.163 218.282 180.174 219.316 181.443 219.316H206.692C207.938 219.316 208.973 218.305 208.973 217.036C208.973 216.143 209.701 215.437 210.571 215.437H227.333C228.18 215.437 228.885 214.756 228.885 213.886C228.885 213.039 228.203 212.334 227.333 212.334H206.481C205.963 212.334 205.47 212.076 205.164 211.652C204.858 211.229 204.788 210.688 204.976 210.195C205.07 209.96 205.094 209.748 205.094 209.513C205.094 208.385 204.177 207.491 203.072 207.491H184.617C183.489 207.491 182.595 208.408 182.595 209.513C182.595 209.725 182.642 209.936 182.713 210.195C182.901 210.688 182.807 211.229 182.525 211.652C182.219 212.076 181.726 212.334 181.208 212.334H163.741Z" fill="#FFC72C"/>
<path d="M47.2528 213.416H18.8537C16.3383 213.416 14.293 211.371 14.293 208.855C14.293 206.504 16.1032 204.553 18.4071 204.318C19.3004 201.473 21.9334 199.475 25.0131 199.475H31.9718C35.0515 199.475 37.661 201.473 38.5779 204.294H47.2528C49.7682 204.294 51.8135 206.34 51.8135 208.855C51.8135 211.371 49.7682 213.416 47.2528 213.416ZM18.8537 207.515C18.125 207.515 17.5137 208.126 17.5137 208.855C17.5137 209.584 18.125 210.195 18.8537 210.195H47.2528C47.9815 210.195 48.5928 209.584 48.5928 208.855C48.5928 208.126 48.005 207.515 47.2528 207.515H37.2849C36.4621 207.515 35.7568 206.88 35.6863 206.058C35.4982 204.13 33.8996 202.672 31.9718 202.672H25.0131C23.0854 202.672 21.5103 204.13 21.2987 206.058C21.2282 206.88 20.5229 207.515 19.7001 207.515H18.8537Z" fill="#FFC72C"/>
<path d="M221.573 11.3077H182.995C181.067 11.3077 179.516 9.75607 179.516 7.82832C179.516 5.90057 181.067 4.34897 182.995 4.34897H189.86C190.471 1.88052 192.681 0.0703125 195.314 0.0703125H214.615C217.248 0.0703125 219.481 1.90402 220.069 4.34897H221.573C223.501 4.34897 225.053 5.90057 225.053 7.82832C225.053 9.75607 223.501 11.3077 221.573 11.3077ZM182.995 7.56972C182.854 7.56972 182.736 7.68727 182.736 7.82832C182.736 7.96938 182.854 8.08692 182.995 8.08692H221.573C221.715 8.08692 221.832 7.96938 221.832 7.82832C221.832 7.68727 221.715 7.56972 221.573 7.56972H218.611C218.165 7.56972 217.741 7.38165 217.436 7.05252C217.13 6.72339 216.966 6.27672 217.013 5.85356C217.013 5.83005 217.036 5.64197 217.036 5.61847C217.036 4.37248 215.955 3.29106 214.615 3.29106H195.314C193.974 3.29106 192.892 4.37248 192.892 5.7125C192.916 6.15918 192.775 6.67638 192.469 7.0055C192.164 7.33463 191.74 7.59323 191.294 7.59323H182.995V7.56972Z" fill="#FFC72C"/>
<path d="M39.3778 16.7385H30.0447C27.8583 16.7385 26.0481 15.0693 25.813 12.9535H3.47935C1.5516 12.9535 0 11.4019 0 9.47418C0 7.56994 1.5516 5.99483 3.47935 5.99483H17.2557C17.1382 5.59517 17.0911 5.1485 17.0911 4.72533C17.0911 2.11582 19.207 0 21.8165 0H61.3588C63.9683 0 66.0841 2.11582 66.0841 4.72533C66.0841 7.33485 63.9683 9.45067 61.3588 9.45067H54.071C54.071 11.3549 52.5194 12.93 50.5916 12.93H43.5859C43.3743 15.0929 41.5641 16.7385 39.3778 16.7385ZM3.47935 8.5103C2.96215 8.5103 2.51548 8.93347 2.51548 9.47418C2.51548 10.0149 2.93864 10.4381 3.47935 10.4381H27.153C27.5527 10.4381 27.9053 10.6261 28.1404 10.9317C28.3755 11.2374 28.4695 11.637 28.352 12.0132C28.305 12.2012 28.2815 12.3423 28.2815 12.4833C28.2815 13.4472 29.0573 14.223 30.0211 14.223H39.3543C40.3181 14.223 41.0939 13.4472 41.0939 12.4833C41.0939 12.3423 41.0704 12.2012 41.0234 12.0367C40.9294 11.6605 40.9999 11.2609 41.235 10.9317C41.4701 10.6261 41.8462 10.4381 42.2459 10.4381H50.5916C51.1088 10.4381 51.5555 10.0149 51.5555 9.47418C51.5555 9.23908 51.4615 9.05101 51.3909 8.93347C51.1323 8.55732 51.0853 8.04012 51.2969 7.64046C51.5085 7.2173 51.9316 6.9587 52.4018 6.9587H61.3353C62.5578 6.9587 63.5687 5.97132 63.5687 4.72533C63.5687 3.50286 62.5578 2.49197 61.3353 2.49197H21.8165C20.594 2.49197 19.5831 3.47935 19.5831 4.72533C19.5831 5.33657 19.8417 5.90079 20.2884 6.34746C20.6645 6.7001 20.7821 7.24081 20.594 7.7345C20.4059 8.20468 19.9357 8.53381 19.4185 8.53381H3.47935V8.5103Z" fill="#FFC72C"/>
</g>
<defs>
<clipPath id="clip0_1405_161">
<rect width="232.082" height="222.537" fill="white"/>
</clipPath>
</defs>
</svg>
