<svg width="207" height="207" viewBox="0 0 207 207" fill="none" xmlns="http://www.w3.org/2000/svg">
<mask id="mask0_102_1518" style="mask-type:luminance" maskUnits="userSpaceOnUse" x="0" y="0" width="207" height="207">
<path d="M206.05 0H0V206.05H206.05V0Z" fill="white"/>
</mask>
<g mask="url(#mask0_102_1518)">
<path d="M-47.9106 169.24C-48.3006 169.24 -48.6806 169.06 -48.9206 168.72C-49.3106 168.16 -49.1805 167.39 -48.6305 167L-38.9106 160.1C-38.8306 160.04 -38.7405 160 -38.6505 159.96L-35.9505 158.88L-33.4906 153.97C-33.3706 153.73 -33.1706 153.53 -32.9306 153.42L-18.5705 146.32L-14.6606 141.8C-14.4806 141.6 -14.2506 141.46 -13.9806 141.4L-8.40055 140.22L-3.34055 134.86C-3.23055 134.74 -3.10053 134.65 -2.95053 134.58L12.9295 127.42L17.2195 124.35C17.2895 124.3 17.3594 124.26 17.4394 124.23L22.9695 121.77L30.3894 116.51C30.4994 116.43 30.6195 116.37 30.7495 116.34L36.8495 114.51L42.9695 113.53C43.1395 113.42 43.3295 113.35 43.5395 113.33L47.2995 113.02C47.5895 113 47.8594 113.07 48.0894 113.22L59.5595 117.86L64.1795 114.05C64.3995 113.87 64.6794 113.77 64.9594 113.77H68.7195C68.9095 113.77 69.0994 113.81 69.2694 113.9L74.5595 116.55L78.2495 115.98C78.4495 115.95 78.6595 115.98 78.8495 116.04L82.8794 117.48L93.1695 114.76C93.2395 114.74 93.2995 114.73 93.3595 114.72L99.6294 114.09L110.589 114.39L117.949 112.55C118.129 112.51 118.309 112.5 118.489 112.54L129.249 114.69L136.869 113.47C137.029 113.44 137.189 113.45 137.349 113.49L149.879 116.47L154.469 114.15C154.849 113.8 155.399 113.73 155.859 113.95L167.769 119.91C167.849 119.95 167.929 120.01 168.009 120.07L173.389 124.55L182.709 125.07C182.889 125.09 183.049 125.16 183.199 125.25L198.069 134.85L211.959 137.94C212.089 137.97 212.219 138.02 212.329 138.09L227.259 147.11L233.709 149.26C233.989 149.35 234.219 149.54 234.369 149.79L238.169 155.97L243.229 161.73L250.889 166.85C251.459 167.23 251.609 168 251.229 168.56C250.849 169.13 250.08 169.28 249.52 168.9L241.729 163.69C241.639 163.63 241.559 163.56 241.489 163.48L236.249 157.52C236.199 157.47 236.159 157.41 236.119 157.35L232.499 151.46L226.339 149.41C226.249 149.38 226.169 149.34 226.089 149.3L211.209 140.31L197.299 137.22C197.159 137.19 197.019 137.13 196.899 137.05L182.069 127.48L171.669 125.95C171.449 125.92 171.229 125.82 171.059 125.68L165.529 121.07L155.509 116.56L151.059 118.75C150.759 119.03 150.339 119.14 149.939 119.04L137.009 115.96L129.409 117.18C129.269 117.2 129.119 117.2 128.969 117.18L118.269 115.04L111.019 116.85C110.909 116.88 110.789 116.89 110.679 116.89L99.7094 116.58L93.6994 117.19L83.1294 119.99C82.8894 120.05 82.6294 120.04 82.3994 119.96L78.2995 118.5L74.5294 119.08C74.2794 119.12 74.0195 119.08 73.7895 118.96L68.4095 116.27H65.3794L60.3894 120.38C59.9694 120.73 59.3795 120.76 58.9195 120.45L47.0495 115.54L44.0294 115.79L38.0194 116.7C37.9194 116.77 37.8094 116.81 37.6994 116.85L31.6195 118.67L24.2594 123.88C24.1894 123.93 24.1195 123.97 24.0495 124L18.5194 126.46L14.2295 129.52C14.1595 129.57 14.0894 129.61 14.0194 129.64L-1.75052 136.75L-6.91056 142.22C-7.08056 142.4 -7.31057 142.53 -7.55057 142.58L-13.1006 143.75L-16.9005 148.14C-17.0105 148.26 -17.1406 148.37 -17.2906 148.44L-31.5005 155.47L-33.9806 160.43C-34.1106 160.7 -34.3506 160.91 -34.6206 161.02L-37.6206 162.22L-47.2206 169.03C-47.4406 169.18 -47.6806 169.26 -47.9306 169.26" fill="#FFC72C"/>
<path d="M68.6501 169.12H23.6001C22.9201 169.12 22.3701 168.57 22.3701 167.89C22.3701 167.21 22.9201 166.66 23.6001 166.66H68.6501C69.3301 166.66 69.8801 167.21 69.8801 167.89C69.8801 168.57 69.3301 169.12 68.6501 169.12Z" fill="#FFC72C"/>
<path d="M258.93 169.12H180.81C180.13 169.12 179.58 168.57 179.58 167.89C179.58 167.21 180.13 166.66 180.81 166.66H258.93C259.61 166.66 260.16 167.21 260.16 167.89C260.16 168.57 259.61 169.12 258.93 169.12Z" fill="#FFC72C"/>
<path d="M33.0593 169.12C32.5193 169.12 32.0293 168.77 31.8693 168.23C31.6793 167.57 32.0592 166.89 32.7192 166.7L57.0992 159.69L64.5792 156.19C64.9492 156.02 65.3892 156.04 65.7392 156.25L68.8292 158.1L79.8093 154.96L85.8693 152.16C86.2493 151.98 86.6993 152.02 87.0593 152.25L93.2092 156.27L99.9492 160.54L107.359 160.09C107.449 160.09 107.539 160.09 107.629 160.1L114.759 161.25L128.039 159.15C128.239 159.12 128.449 159.14 128.639 159.2L132.929 160.7L141.959 157.09L152.039 152.16C152.349 152.01 152.709 151.99 153.029 152.12L158.119 154.11L166.029 152.3C166.219 152.26 166.419 152.26 166.609 152.3L181.269 156.08C181.349 156.1 181.429 156.13 181.499 156.16L203.419 166.75C204.029 167.05 204.289 167.78 203.989 168.4C203.689 169.01 202.959 169.27 202.339 168.98L180.529 158.45L166.279 154.77L158.299 156.59C158.059 156.65 157.809 156.63 157.579 156.54L152.649 154.61L142.969 159.34L133.429 163.16C133.149 163.27 132.849 163.28 132.559 163.18L128.119 161.63L114.949 163.71C114.819 163.73 114.689 163.73 114.559 163.71L107.369 162.55L99.6992 163.01C99.4392 163.03 99.1892 162.96 98.9692 162.82L91.8792 158.33L86.2892 154.67L80.7592 157.22C80.6992 157.25 80.6392 157.27 80.5792 157.29L68.9892 160.6C68.6692 160.7 68.3092 160.65 68.0092 160.47L65.0292 158.68L58.0593 161.95C57.9993 161.98 57.9392 162 57.8792 162.02L33.3992 169.06C33.2892 169.09 33.1693 169.11 33.0593 169.11" fill="#FFC72C"/>
<path d="M80.8793 156.13C80.4893 156.13 80.0994 155.94 79.8594 155.6L74.0994 147.26L66.5294 141.5C66.3494 141.37 66.2193 141.19 66.1293 140.98L64.6094 137.26L58.5594 134.53C58.3994 134.46 58.2593 134.36 58.1493 134.23L55.5294 131.32L49.3993 128.33C49.0793 128.17 48.8494 127.89 48.7494 127.55L47.3594 122.45C47.1794 121.79 47.5694 121.11 48.2194 120.93C48.8794 120.75 49.5594 121.14 49.7394 121.8L50.9794 126.36L56.8193 129.21C56.9593 129.28 57.0893 129.38 57.1993 129.49L59.8094 132.39L66.0693 135.22C66.3593 135.35 66.5893 135.58 66.7093 135.88L68.2794 139.74L75.7394 145.41C75.8394 145.49 75.9393 145.58 76.0093 145.69L81.8893 154.19C82.2793 154.75 82.1393 155.52 81.5793 155.91C81.3693 156.06 81.1193 156.13 80.8793 156.13Z" fill="#FFC72C"/>
<path d="M118.69 153.86C118.28 153.86 117.87 153.65 117.64 153.28C117.28 152.7 117.46 151.94 118.04 151.58L123.58 148.14L126.98 142.52C127.08 142.35 127.22 142.21 127.39 142.11L131.95 139.31L135.2 134.43C135.27 134.32 135.36 134.22 135.47 134.14L140.33 130.34L144.43 125.78C144.89 125.27 145.66 125.23 146.17 125.69C146.68 126.15 146.72 126.93 146.26 127.43L142.09 132.07C142.04 132.12 141.99 132.17 141.93 132.22L137.14 135.96L133.85 140.9C133.75 141.05 133.62 141.17 133.47 141.27L128.93 144.05L125.53 149.67C125.43 149.84 125.29 149.98 125.12 150.08L119.33 153.68C119.13 153.81 118.9 153.87 118.68 153.87" fill="#FFC72C"/>
<path d="M148.06 156.73C148 156.73 147.94 156.73 147.89 156.72L129.43 154.14L122.17 155.05C121.98 155.07 121.78 155.05 121.6 154.99L114.05 152.27L100.78 151.66C100.1 151.63 99.5698 151.05 99.5998 150.37C99.6298 149.69 100.26 149.15 100.89 149.19L114.34 149.81C114.46 149.81 114.58 149.84 114.7 149.88L122.15 152.56L129.28 151.67C129.39 151.66 129.5 151.66 129.6 151.67L148.22 154.28C148.9 154.38 149.37 155 149.27 155.67C149.18 156.29 148.66 156.73 148.05 156.73" fill="#FFC72C"/>
<path d="M82.6795 144.44C82.1495 144.44 81.6596 144.1 81.4996 143.57C81.2996 142.92 81.6596 142.23 82.3096 142.03L87.6495 140.38L90.5095 137.33C90.5595 137.28 90.6095 137.24 90.6595 137.2L93.1795 135.26L95.2295 132.33C95.4595 132 95.8395 131.8 96.2395 131.8H106.62C107.03 131.8 107.42 132.01 107.65 132.35L109.3 134.83L111.54 135.81C111.69 135.87 111.82 135.97 111.93 136.08L114.95 139.19L119.76 141.25C120.39 141.52 120.68 142.24 120.41 142.87C120.14 143.5 119.42 143.78 118.79 143.52L113.75 141.36C113.6 141.3 113.46 141.2 113.35 141.08L110.33 137.96L107.98 136.93C107.77 136.83 107.58 136.68 107.45 136.49L105.96 134.26H96.8795L95.0895 136.82C95.0195 136.92 94.9295 137.01 94.8295 137.09L92.2395 139.09L89.2195 142.31C89.0695 142.47 88.8895 142.58 88.6795 142.64L83.0295 144.39C82.9095 144.43 82.7895 144.44 82.6695 144.44" fill="#FFC72C"/>
<path d="M50.0401 38.39H42.8801C41.2001 38.39 39.8101 37.11 39.6301 35.48H22.4901C21.0201 35.48 19.8301 34.28 19.8301 32.82C19.8301 31.36 21.0201 30.16 22.4901 30.16H33.0701C32.9801 29.85 32.9401 29.52 32.9401 29.18C32.9401 27.18 34.5701 25.55 36.5701 25.55H66.9201C68.9201 25.55 70.5601 27.18 70.5601 29.18C70.5601 31.18 68.9301 32.81 66.9201 32.81H61.3301C61.3301 34.29 60.1401 35.48 58.6701 35.48H53.3001C53.1201 37.12 51.7301 38.39 50.0501 38.39M22.4901 32.08C22.0801 32.08 21.7501 32.41 21.7501 32.82C21.7501 33.23 22.0801 33.56 22.4901 33.56H40.6701C40.9701 33.56 41.2501 33.7 41.4401 33.94C41.6201 34.18 41.6801 34.49 41.6001 34.78C41.5601 34.92 41.5401 35.04 41.5401 35.13C41.5401 35.87 42.1401 36.47 42.8801 36.47H50.0401C50.7801 36.47 51.3801 35.87 51.3801 35.13C51.3801 35.03 51.3601 34.92 51.3201 34.78C51.2401 34.49 51.3001 34.18 51.4801 33.94C51.6601 33.7 51.9501 33.56 52.2501 33.56H58.6501C59.0601 33.56 59.3901 33.23 59.3901 32.82C59.3901 32.63 59.3201 32.49 59.2601 32.4C59.0501 32.11 59.0301 31.72 59.1901 31.4C59.3601 31.08 59.6901 30.88 60.0401 30.88H66.9001C67.8401 30.88 68.6101 30.11 68.6101 29.17C68.6101 28.23 67.8401 27.46 66.9001 27.46H36.5501C35.6101 27.46 34.8401 28.23 34.8401 29.17C34.8401 29.64 35.0301 30.08 35.3801 30.41C35.6701 30.68 35.7601 31.1 35.6201 31.47C35.4801 31.84 35.1201 32.08 34.7201 32.08H22.4601H22.4901Z" fill="#FFC72C"/>
<path d="M167.09 33.21H147.72C145.83 33.21 144.22 31.95 143.69 30.23H134.12C132.11 30.23 130.47 28.59 130.47 26.57C130.47 24.55 132.11 22.91 134.12 22.91H146.12C146.27 20.83 148.02 19.18 150.14 19.18H164.3C166.42 19.18 168.16 20.83 168.31 22.91H182.92C184.93 22.91 186.57 24.55 186.57 26.57C186.57 28.59 184.93 30.23 182.92 30.23H171.12C170.59 31.95 168.98 33.21 167.09 33.21ZM134.12 25.39C133.46 25.39 132.93 25.92 132.93 26.58C132.93 27.24 133.46 27.77 134.12 27.77H144.74C145.42 27.77 145.97 28.32 145.97 29C145.97 29.96 146.75 30.75 147.72 30.75H167.09C168.05 30.75 168.84 29.97 168.84 29C168.84 28.32 169.39 27.77 170.07 27.77H182.92C183.57 27.77 184.11 27.24 184.11 26.58C184.11 25.92 183.58 25.39 182.92 25.39H166.92C166.52 25.39 166.14 25.19 165.91 24.87C165.68 24.54 165.62 24.12 165.76 23.74C165.83 23.56 165.86 23.39 165.86 23.23C165.86 22.37 165.16 21.67 164.3 21.67H150.14C149.28 21.67 148.58 22.37 148.58 23.23C148.58 23.39 148.61 23.56 148.68 23.74C148.82 24.12 148.76 24.54 148.53 24.87C148.3 25.2 147.92 25.39 147.52 25.39H134.12Z" fill="#FFC72C"/>
<path d="M36.4201 72.95H14.6201C12.6901 72.95 11.1201 71.38 11.1201 69.45C11.1201 67.64 12.5001 66.14 14.2701 65.97C14.9601 63.79 16.9801 62.25 19.3401 62.25H24.6901C27.0501 62.25 29.0701 63.78 29.7601 65.95H36.4101C38.3401 65.95 39.9101 67.52 39.9101 69.45C39.9101 71.38 38.3401 72.95 36.4101 72.95M14.6101 68.43C14.0401 68.43 13.5801 68.89 13.5801 69.46C13.5801 70.03 14.0401 70.49 14.6101 70.49H36.4101C36.9801 70.49 37.4401 70.03 37.4401 69.46C37.4401 68.89 36.9801 68.43 36.4101 68.43H28.7601C28.1301 68.43 27.6001 67.95 27.5301 67.32C27.3801 65.84 26.1601 64.73 24.6901 64.73H19.3401C17.8701 64.73 16.6401 65.84 16.4901 67.32C16.4301 67.95 15.9001 68.43 15.2601 68.43H14.6001H14.6101Z" fill="#FFC72C"/>
<path d="M193.3 64.72H163.69C162.22 64.72 161.02 63.52 161.02 62.05C161.02 60.58 162.22 59.38 163.69 59.38H168.95C169.41 57.49 171.12 56.09 173.14 56.09H187.95C189.98 56.09 191.68 57.49 192.14 59.38H193.29C194.76 59.38 195.97 60.58 195.97 62.05C195.97 63.52 194.77 64.72 193.29 64.72M163.68 61.84C163.57 61.84 163.47 61.93 163.47 62.04C163.47 62.15 163.56 62.25 163.68 62.25H193.29C193.4 62.25 193.5 62.16 193.5 62.04C193.5 61.92 193.41 61.84 193.29 61.84H191.01C190.67 61.84 190.34 61.7 190.11 61.45C189.88 61.2 189.76 60.86 189.78 60.52C189.78 60.5 189.8 60.36 189.8 60.34C189.8 59.38 188.97 58.55 187.95 58.55H173.14C172.12 58.55 171.29 59.38 171.29 60.4C171.32 60.74 171.21 61.14 170.97 61.39C170.74 61.64 170.42 61.84 170.07 61.84H163.68Z" fill="#FFC72C"/>
<path d="M71.6797 107.51C71.6797 90.13 85.7697 76.04 103.15 76.04C120.53 76.04 134.62 90.13 134.62 107.51" stroke="#FFC72C" stroke-width="3.38" stroke-miterlimit="10"/>
<path d="M89.4393 50.29C89.1993 49.39 88.2693 48.85 87.3693 49.09C86.4693 49.33 85.9293 50.26 86.1693 51.16L91.9093 72.59C92.9793 72.25 94.0693 71.95 95.1693 71.71L89.4293 50.29H89.4393Z" fill="#FFC72C"/>
<path d="M75.0996 55.76C74.6296 54.95 73.5996 54.67 72.7896 55.14C71.9796 55.61 71.6996 56.64 72.1696 57.45L83.2796 76.6901C84.2196 76.0801 85.1996 75.5101 86.1996 74.9901L75.0996 55.76Z" fill="#FFC72C"/>
<path d="M78.3796 80.4701L62.6497 64.7401C61.9897 64.0801 60.9196 64.0801 60.2596 64.7401C59.5996 65.4001 59.5996 66.4701 60.2596 67.1301L75.9897 82.8601C76.7497 82.0301 77.5396 81.2301 78.3796 80.4601V80.4701Z" fill="#FFC72C"/>
<path d="M52.9601 76.65C52.1501 76.18 51.1201 76.46 50.6501 77.27C50.1801 78.08 50.4601 79.11 51.2701 79.58L70.5501 90.71C71.0701 89.71 71.6301 88.73 72.2401 87.78L52.9701 76.65H52.9601Z" fill="#FFC72C"/>
<path d="M46.6794 90.66C45.7794 90.42 44.8494 90.95 44.6094 91.86C44.3694 92.76 44.8994 93.69 45.8094 93.93L67.3194 99.69C67.5594 98.58 67.8494 97.49 68.1894 96.42L46.6794 90.66Z" fill="#FFC72C"/>
<path d="M66.5198 105.82H44.2398C43.3098 105.82 42.5498 106.58 42.5498 107.51C42.5498 108.44 43.3098 109.2 44.2398 109.2H66.5198C66.4898 108.64 66.4798 108.08 66.4798 107.51C66.4798 106.94 66.4898 106.38 66.5198 105.82Z" fill="#FFC72C"/>
<path d="M161.8 105.82H139.78C139.81 106.38 139.82 106.94 139.82 107.51C139.82 108.08 139.81 108.64 139.78 109.2H161.8C162.73 109.2 163.49 108.44 163.49 107.51C163.49 106.58 162.73 105.82 161.8 105.82Z" fill="#FFC72C"/>
<path d="M160.24 93.93C161.14 93.69 161.68 92.76 161.44 91.86C161.2 90.96 160.27 90.42 159.37 90.66L138.1 96.36C138.44 97.43 138.73 98.52 138.98 99.63L160.25 93.93H160.24Z" fill="#FFC72C"/>
<path d="M154.77 79.58C155.58 79.11 155.86 78.08 155.39 77.27C154.92 76.46 153.89 76.18 153.08 76.65L134 87.67C134.61 88.62 135.18 89.59 135.7 90.59L154.78 79.58H154.77Z" fill="#FFC72C"/>
<path d="M130.19 82.74L145.79 67.14C146.45 66.48 146.45 65.41 145.79 64.75C145.13 64.09 144.06 64.09 143.4 64.75L127.8 80.35C128.63 81.11 129.43 81.9 130.2 82.74H130.19Z" fill="#FFC72C"/>
<path d="M133.88 57.45C134.35 56.64 134.07 55.61 133.26 55.14C132.45 54.67 131.42 54.95 130.95 55.76L119.91 74.89C120.92 75.41 121.89 75.9701 122.84 76.5701L133.88 57.45Z" fill="#FFC72C"/>
<path d="M119.87 51.17C120.11 50.27 119.58 49.34 118.67 49.1C117.76 48.86 116.84 49.39 116.6 50.3L110.88 71.66C111.99 71.9 113.08 72.18 114.15 72.52L119.87 51.17Z" fill="#FFC72C"/>
<path d="M104.71 70.87V48.72C104.71 47.79 103.95 47.03 103.02 47.03C102.09 47.03 101.33 47.79 101.33 48.72V70.88C101.93 70.85 102.54 70.83 103.15 70.83C103.67 70.83 104.19 70.84 104.71 70.87Z" fill="#FFC72C"/>
</g>
</svg>
