<svg width="243" height="125" viewBox="0 0 243 125" fill="none" xmlns="http://www.w3.org/2000/svg">
<path d="M27.2599 122.221C24.1799 118.993 21.4499 116.352 17.4099 115.512C15.3399 115.087 13.4199 113.944 11.3499 113.529C6.61986 112.577 3.88986 109.076 0.989864 105.727C0.319864 104.958 0.299861 103.956 0.869861 103.339C1.36986 102.793 2.17986 103.329 2.74986 103.794C2.86986 103.895 2.99986 104.007 3.07986 104.138C6.56986 110.058 12.5999 111.758 18.5499 113.164C23.2399 114.277 26.0699 117.586 29.1399 120.723C30.1699 121.786 31.1399 122.241 32.6099 122.231C39.9399 122.16 47.2799 122.17 54.6099 122.221C55.9199 122.221 57.0299 121.927 58.1599 121.229C64.2699 117.435 70.3599 113.62 76.6599 110.139C78.9999 108.844 80.9899 106.972 82.1199 104.371C83.2999 101.669 84.6999 99.1193 87.5699 96.964C79.6999 95.5777 74.9099 89.81 68.7699 86.3797C67.5199 85.6814 67.0099 84.5481 66.9299 83.2428C66.7699 80.7333 65.7199 78.922 63.4399 77.7887C61.0799 76.625 59.4299 74.7632 58.5799 72.2132C58.1799 70.9888 57.3099 70.2603 56.1299 69.8251C53.7099 68.9347 51.6299 67.5484 50.0899 65.4335C49.5199 64.6544 48.7599 64.3609 47.8199 64.4621C45.4799 64.7151 43.2399 64.2091 41.1799 63.1669C39.1599 62.1449 38.5299 63.9056 37.5299 64.8365C36.3799 65.9193 37.8699 66.4454 38.2299 67.1639C38.5699 67.852 39.4399 68.2972 39.3699 69.1877C39.1699 71.5352 40.4599 72.5066 42.5099 72.7495C45.1499 73.0632 46.5799 74.8036 47.1999 77.1411C48.3499 81.472 51.1499 83.5261 55.4099 83.8803C55.7199 83.9106 56.0399 83.9815 56.3299 84.0827C57.1999 84.3964 58.4099 84.5583 58.0299 85.8737C57.7099 86.9564 56.6999 86.7743 55.8199 86.5011C55.6699 86.4505 55.5199 86.3898 55.3599 86.3797C49.9199 86.1064 46.2599 83.5261 44.8599 78.0518C44.2899 75.8155 42.5199 75.1882 40.6199 74.8441C38.2999 74.4191 37.0099 73.3162 37.0199 70.7257C37.0199 68.8234 35.6799 67.1436 34.0999 66.83C32.2199 66.4556 29.9299 65.5145 28.1599 67.6395C26.7399 69.3394 25.0899 70.8472 23.6299 72.5168C21.7899 74.6114 22.4599 76.6959 25.1699 77.1613C26.3899 77.3738 26.9399 78.0417 27.3299 79.0637C28.7999 82.8684 30.9899 86.1368 34.4999 88.282C36.2199 89.3344 36.6899 90.7004 36.0299 92.4915C34.9099 95.517 35.7299 97.6521 38.6699 98.9979C40.7099 99.9289 41.5199 101.598 41.1399 103.845C40.4599 107.872 41.1099 111.555 43.8099 114.743C44.3999 115.441 44.7299 116.453 43.8399 117.08C42.8299 117.789 42.3099 116.757 41.8099 116.079C39.5199 112.952 37.6899 109.714 38.5699 105.535C39.0699 103.167 38.4699 101.113 36.0199 100.071C32.9499 98.7753 32.3599 96.3974 33.3899 93.5135C34.1199 91.4593 33.4199 90.2248 31.7199 89.1927C28.7999 87.4421 27.2199 84.5583 25.8499 81.5833C25.2199 80.2173 24.4799 79.3774 22.9099 79.347C21.0499 79.3065 20.2499 78.2643 20.4099 76.3822C20.5599 74.581 19.6899 73.8828 17.8999 73.7816C15.4299 73.64 12.9499 72.7596 10.9799 75.2995C10.2499 76.2506 9.86986 76.8375 10.5599 77.9506C11.3099 79.1548 11.7799 80.5309 12.4699 81.7756C13.6999 83.9714 13.8199 86.1267 12.4599 88.2921C11.8699 89.2332 12.0599 89.9921 12.6899 90.8927C14.6499 93.6855 16.5099 96.5491 18.4099 99.3925C18.9999 100.273 19.7199 101.315 18.4999 102.064C17.3199 102.792 16.8699 101.477 16.3799 100.769C14.3399 97.8342 12.4299 94.8087 10.3599 91.9046C9.41986 90.5891 9.27986 89.4659 9.94986 87.9683C11.1999 85.1856 9.90986 79.3268 7.54986 77.5459C6.09986 76.453 4.08986 76.6352 2.34986 76.1697C1.63986 75.9876 0.669863 76.1292 0.609863 74.9655C0.559863 74.0144 0.529861 73.0935 1.93986 73.559C2.23986 73.6602 2.55986 73.6906 2.84986 73.8019C6.23986 75.087 9.20986 74.7429 11.5599 71.6567C12.5699 70.3311 14.0699 70.6245 15.2799 71.0192C19.6799 72.4662 22.8499 70.8573 25.2999 67.2145C27.1599 64.4419 29.6299 63.1871 32.9499 63.9764C34.8699 64.4318 35.8799 63.0556 36.8699 61.8717C38.2699 60.2122 39.6799 59.5848 41.7399 60.7485C43.6999 61.8514 45.9099 62.1449 48.1499 61.9122C49.7099 61.7503 50.9199 62.3169 51.7999 63.6223C51.9299 63.8145 52.1499 63.9562 52.2699 64.1586C54.0399 67.2752 58.6599 66.7692 60.0399 69.9567C61.4799 73.2757 63.8399 75.3501 66.7199 77.0197C68.3999 78.0012 68.8499 79.5393 69.0299 81.1988C69.2399 83.2226 70.2399 84.4773 71.9199 85.5094C74.1399 86.8654 76.3499 88.3124 78.3099 90.0123C81.1699 92.4813 84.5999 93.5337 88.0299 94.6974C88.9899 95.0212 89.7099 94.8795 90.3499 94.1307C90.4499 94.0093 90.5599 93.8778 90.6899 93.7968C97.8899 89.8302 100.55 82.5041 103.6 75.5727C104.81 72.8305 106.36 71.5656 109.35 71.3733C112.45 71.171 114.17 68.3579 115.79 66.2026C117.82 63.5008 120 61.3657 123.11 60.2021C124.21 59.7872 124.55 58.7753 124.96 57.8444C126.47 54.4039 128.04 50.9939 131.41 48.96C134 47.3916 134.56 44.6797 135.23 42.0994C135.69 40.3589 136.59 39.1548 138 38.1429C140.5 36.3316 142.95 34.4596 145.36 32.5269C146.55 31.5757 147.75 31.0091 149.27 31.515C150.66 31.9805 151.72 31.6567 152.37 30.24C153.77 27.1436 156.86 26.1621 159.42 24.533C160.33 23.9562 161.06 24.4723 161.83 24.8972C163.63 25.8889 165.43 26.8603 167.25 27.8014C168.75 28.5805 170.26 29.1371 171.93 28.1859C173.1 27.518 173.92 28.3275 174.57 29.1269C175.73 30.5537 177.13 31.1305 178.92 30.7966C180.68 30.4728 182.16 30.9989 183.43 32.2739C184.04 32.8912 184.79 33.3566 185.45 33.9334C189.13 37.1613 193.11 39.4988 198.27 38.4363C200.2 38.0417 201.6 38.75 202.53 40.5411C204.43 44.2243 207.42 46.5719 211.17 48.2213C214.92 49.8707 218.51 51.9248 221.65 54.6367C222.78 55.6081 223.97 55.7902 225.38 55.5879C229.98 54.9099 234.58 54.2825 239.19 53.6551C242.07 53.2706 242.47 53.6855 242.2 56.6908C238.94 55.2742 235.78 56.7819 232.58 57.0247C230.86 57.1563 229.15 57.7432 227.44 57.7128C224.38 57.642 223.47 59.3521 223.03 62.0235C222.64 64.3812 222.05 66.7389 222.21 69.1269C222.41 72.1221 221.1 74.2572 219.17 76.2911C216.95 78.6387 214.6 80.9357 214.53 84.5582C214.51 85.5499 213.76 85.985 212.88 86.3493C207.06 88.8082 200.99 89.8909 194.71 89.9516C193.29 89.9719 191.87 89.9719 190.45 89.9516C189.63 89.9314 188.74 89.7695 188.71 88.7475C188.67 87.5534 189.64 87.4219 190.54 87.3915C191.56 87.3612 192.59 87.3511 193.61 87.3915C194.89 87.4421 195.57 86.9767 194.67 85.7725C192.47 82.8279 192.71 79.7315 193.88 76.5239C194.31 75.3501 194.13 74.3888 193.25 73.4679C191.77 71.9096 190.98 70.1085 191.19 67.8621C191.4 65.6258 190.65 63.855 188.47 62.8431C186.7 62.0235 185.92 60.6979 186.48 58.6033C187.17 56.0027 187.19 53.4528 185.25 51.2165C184.74 50.6296 184.53 49.6885 185.48 49.1522C186.39 48.6362 186.91 49.2737 187.4 49.9719C189.03 52.2689 189.96 54.7278 189.11 57.5813C188.61 59.2509 188.92 60.5866 190.57 61.3354C193.1 62.4889 193.84 64.5026 193.57 67.1436C193.39 68.9347 193.59 70.6751 195.12 71.9096C196.78 73.2554 197.03 74.9554 196.24 76.8274C194.82 80.1768 195.6 83.1416 197.52 86.0255C198.06 86.835 198.49 87.341 199.55 87.1892C203.37 86.6225 207.18 86.0255 210.77 84.4874C211.44 84.2041 212.2 84.0017 212.23 83.1315C212.36 79.2762 215.2 77.0905 217.43 74.6114C218.96 72.9215 219.92 71.2519 219.69 68.8942C219.38 65.646 220.39 62.5699 221.24 59.514C221.64 58.0872 221.21 57.4194 220.17 56.5289C216.44 53.3415 212.09 51.2064 207.72 49.2737C204.31 47.7659 202.56 44.9934 200.68 42.1803C199.97 41.1077 199.17 40.5512 197.95 40.8851C192.98 42.241 189.09 40.0554 185.44 37.0399C184.46 36.2304 183.41 35.512 182.49 34.6519C181.25 33.4882 179.95 32.9013 178.22 33.3971C176.36 33.9334 174.85 33.3162 173.67 31.7376C173.26 31.1811 172.73 30.4728 171.92 30.8067C168.51 32.2233 166.03 29.9263 163.39 28.5603C160.11 26.8603 157.19 27.3561 155.06 30.5841C152.52 34.4292 150.17 38.3959 147.68 42.2714C147.09 43.1821 147.05 44.0928 147.36 45.0035C147.95 46.7541 147.66 48.282 146.58 49.729C145.25 51.5201 144.81 53.5337 144.8 55.7801C144.79 59.514 144.85 63.3187 141.97 66.3038C141.27 67.0323 141.37 67.9936 141.67 68.793C142.55 71.1204 141.86 72.9519 140.25 74.6519C139.27 75.684 138.44 76.8679 137.51 77.9405C137.07 78.4464 136.51 78.7601 135.86 78.2238C135.27 77.7381 135.25 77.1209 135.62 76.5137C136 75.9066 136.39 75.2894 136.88 74.7834C138.84 72.7697 140.18 70.6043 139.06 67.6293C138.82 66.9817 139 66.2936 139.44 65.8282C142.74 62.3473 142.12 57.8747 142.5 53.6653C142.59 52.7141 142.48 51.7427 143.05 50.8927C144.54 48.6767 145.83 46.4606 144.56 43.6172C144.22 42.8482 144.9 42.1095 145.31 41.4315C146.72 39.1446 148.15 36.8578 149.62 34.49C148.56 33.6804 147.68 33.8322 146.79 34.5102C144.09 36.5846 141.37 38.6185 138.71 40.7434C137.37 41.8059 137.29 43.5666 136.9 45.0541C136.28 47.4118 135.17 49.3243 133.16 50.6296C129.93 52.7343 128.35 56.023 126.94 59.4128C126.32 60.9104 125.38 61.8413 123.93 62.5294C120.72 64.0574 119.65 66.0609 121.55 69.1877C123.64 72.6382 124.57 76.2102 125.11 80.0655C125.57 83.344 127.86 85.5499 129.94 87.8064C131.31 89.2939 131.91 91.0242 132.3 92.9165C132.47 93.726 132.3 94.3837 131.47 94.6367C130.58 94.9099 130 94.2218 129.92 93.5539C129.49 90.1742 126.89 88.2618 125.01 85.8636C123.18 83.5261 122.41 80.7434 122.23 77.9C122.1 75.9167 121.81 74.156 120.61 72.5674C119.5 71.1102 118.75 69.4811 118.71 67.0323C116.97 68.7121 115.51 69.9769 114.21 71.4037C112.76 72.9924 111.17 74.1155 108.92 74.0447C107.5 74.0042 106.59 74.6721 106.11 76.0685C102.91 85.2463 97.3299 92.6028 89.5599 98.3301C87.2499 100.03 85.4999 102.297 84.4299 105.059C83.0699 108.581 80.4199 110.938 77.2199 112.638C71.9799 115.411 66.9599 118.558 61.9599 121.705C62.0099 121.877 62.0299 122.089 62.0899 122.109C62.9999 122.342 64.4999 121.836 64.4599 123.374C64.4199 125.054 62.8799 124.578 61.8699 124.578C49.4099 124.609 36.9499 124.599 24.4999 124.599C24.3399 124.599 24.1799 124.599 24.0299 124.599C23.0799 124.589 21.9199 124.71 21.9499 123.334C21.9799 122.13 23.0399 122.19 23.9199 122.19C24.8499 122.19 25.7799 122.19 27.2399 122.19L27.2599 122.221Z" fill="#FFC72C"/>
<path d="M234.77 122.221C232.17 118.143 228.26 117.232 224.39 116.635C221.66 116.22 219.47 115.057 217.45 113.367C214.64 111.039 211.63 109.016 208.62 106.961C207.38 106.111 206.34 105.98 204.94 106.526C198.56 109.036 192.18 111.545 185.72 113.852C179.17 116.19 172.44 116.736 165.5 115.886C160.77 115.31 156.19 114.419 151.84 112.436C150.98 112.041 149.98 111.829 149.43 110.999C147.91 108.722 145.99 108.651 143.75 109.744C143.26 109.987 142.67 110.007 142.18 110.25C139.83 111.414 138 110.989 136.19 108.955C134.35 106.881 129.76 106.587 127.8 108.277C122.08 113.195 116.06 117.657 109.53 121.421C109.36 121.523 109.26 121.735 108.86 122.211C111.09 122.211 113.02 122.221 114.95 122.211C115.81 122.211 116.72 122.383 116.76 123.324C116.82 124.457 115.84 124.619 114.91 124.619C109.63 124.619 104.35 124.619 99.0599 124.619C98.1299 124.619 97.1499 124.477 97.1799 123.344C97.1999 122.393 98.1199 122.069 98.9599 122.221C102.97 122.949 105.97 120.824 109.16 118.892C115.33 115.148 121.07 110.837 126.56 106.152C127.29 105.525 127.97 104.917 129.04 104.968C134.04 105.211 137.56 101.629 141.79 99.8681C142.42 99.6051 142.57 98.8967 142.82 98.32C143.49 96.792 144.22 95.2742 144.76 93.6956C146.36 88.9195 148.85 84.791 152.73 81.5327C154.45 80.0958 155.39 77.981 156.58 76.109C159.61 71.3329 162.88 66.749 166.73 62.6205C168.24 61.0015 168.98 59.1902 168.97 57.045C168.97 55.3956 169.52 54.0903 170.86 53.1593C173.52 51.2974 174.74 48.7171 174.73 45.4791C174.73 44.9327 174.86 44.366 175.06 43.8499C175.3 43.2428 175.73 42.6863 176.48 42.8785C177.17 43.0607 177.5 43.6678 177.38 44.366C176.74 47.9785 176.98 51.9653 173.23 54.242C171.74 55.1426 171.17 56.5087 171.29 58.2694C171.42 60.1919 170.72 61.73 169.37 63.1871C165.52 67.3055 162.17 71.8388 159.15 76.625C157.55 79.175 156.14 81.9273 153.78 83.8601C149.43 87.4118 147.8 92.5623 145.89 97.4902C144.78 100.354 143.19 102.378 140.33 103.47C138.97 103.997 137.57 104.594 136.44 105.616C138.02 108.004 139.94 109.026 142.63 107.518C143.1 107.255 143.7 107.235 144.2 107.002C146.66 105.818 148.48 106.466 150.41 108.419C152.98 111.029 156.63 111.97 160.04 112.547C166.22 113.589 172.43 114.389 178.79 113.215C184.22 112.213 189.08 109.775 194.22 108.044C197.88 106.81 201.49 105.403 205.06 103.926C206.52 103.319 207.67 103.349 208.99 104.29C212.08 106.496 215.42 108.328 218.23 110.928C220.45 112.982 223.14 114.024 226.07 114.449C230.45 115.087 234.14 116.969 236.97 120.47C237.97 121.705 239.18 122.464 240.86 122.201C241.73 122.059 242.36 122.241 242.35 123.415C242.35 124.639 241.62 124.599 240.8 124.589C234.41 124.589 228.03 124.589 221.64 124.589C201.38 124.589 181.12 124.589 160.86 124.589C160.39 124.589 159.91 124.589 159.44 124.589C158.46 124.609 157.26 124.589 157.31 123.344C157.35 122.12 158.57 122.18 159.54 122.18C171.21 122.18 182.87 122.18 194.54 122.18C207.07 122.18 219.61 122.18 232.14 122.18H234.77V122.221Z" fill="#FEC936"/>
<path d="M53.7698 30.2501C53.5298 25.8079 54.7198 24.5127 58.9798 24.5127C69.3798 24.5026 79.7798 24.4925 90.1798 24.5127C93.9998 24.5127 95.4198 26.1925 94.9898 30.2501C95.8498 30.2501 96.6998 30.2198 97.5398 30.2501C99.6998 30.3311 101.27 31.7073 101.24 33.4477C101.2 35.2388 99.6998 36.5036 97.4398 36.534C93.5798 36.5745 89.7198 36.5441 85.8598 36.5441C83.1798 36.5441 80.4998 36.5239 77.8198 36.5441C76.0098 36.5542 74.1498 36.1393 72.8798 38.2339C72.2898 39.2155 70.8298 39.3268 69.6198 39.3369C65.2098 39.347 60.7998 39.3673 56.3898 39.3369C54.6898 39.3268 53.0598 38.9423 52.1098 37.303C51.5298 36.3012 50.6298 36.5542 49.8098 36.5542C43.1898 36.5441 36.5798 36.5542 29.9598 36.5542C29.4098 36.5542 28.8598 36.5745 28.3098 36.5542C26.0098 36.4429 24.6398 35.2388 24.7498 33.306C24.8798 31.1204 26.3198 30.2906 28.2698 30.2805C32.7598 30.24 37.2498 30.2603 41.7398 30.2603C45.7498 30.2603 49.7598 30.2603 53.7798 30.2603L53.7698 30.2501ZM74.6098 26.921C69.3298 26.921 64.0498 26.921 58.7698 26.921C57.7698 26.921 56.5998 26.7085 56.2598 28.0847C55.9398 29.39 56.7298 29.9972 57.8298 30.3007C58.4598 30.4728 58.7698 30.8775 58.6998 31.515C58.6298 32.1828 58.0898 32.4662 57.5498 32.5572C56.8598 32.6787 56.1398 32.6584 55.4298 32.6584C46.6798 32.6584 37.9398 32.6584 29.1898 32.6787C28.4598 32.6787 27.2498 32.3852 27.2598 33.4174C27.2598 34.4394 28.4798 34.1358 29.2098 34.1358C36.2998 34.156 43.3898 34.1763 50.4798 34.1358C52.0598 34.1358 53.4198 34.1864 54.1998 35.9268C54.6298 36.8881 55.7098 36.959 56.6798 36.959C60.8598 36.959 65.0298 36.959 69.2098 36.959C70.1898 36.959 71.3098 36.9185 71.6798 35.937C72.3898 34.065 73.7898 34.1358 75.3298 34.1459C82.4998 34.1763 89.6698 34.1662 96.8398 34.1459C97.4898 34.1459 98.4898 34.3888 98.4298 33.3162C98.3898 32.4459 97.4698 32.6989 96.8898 32.6888C95.0798 32.6483 93.2698 32.6888 91.4498 32.6584C90.7498 32.6584 90.1898 32.2942 90.0698 31.5858C89.9698 30.9888 90.3498 30.5335 90.9398 30.321C91.9398 29.9567 93.0098 29.5519 92.6698 28.196C92.3098 26.7794 91.0498 26.921 89.9498 26.921C84.8298 26.921 79.7098 26.921 74.5898 26.921H74.6098Z" fill="#FEC936"/>
<path d="M196.63 10.1641C188.92 10.1641 181.2 10.1641 173.49 10.1641C171.71 10.1641 170.14 9.7796 169.54 7.86713C168.87 5.74216 170.31 3.86004 172.76 3.60707C173.93 3.48564 175.12 3.53624 176.3 3.57671C178.03 3.63743 179.59 3.7791 180.56 1.67437C181.12 0.460102 182.73 0.217247 184.12 0.217247C189.08 0.217247 194.04 0.197009 198.99 0.217247C200.44 0.217247 202.12 0.39939 202.72 1.78568C203.56 3.74874 204.97 3.57672 206.54 3.5666C211.03 3.53624 215.51 3.53624 220 3.5666C222.05 3.57672 223.81 4.20408 224.21 6.53143C224.56 8.53497 222.8 10.1236 220.24 10.1338C212.37 10.1641 204.5 10.1439 196.63 10.1439V10.1641ZM196.82 7.74571C204.15 7.74571 211.48 7.74571 218.81 7.74571C219.36 7.74571 219.91 7.74571 220.46 7.74571C221.03 7.72547 221.63 7.66476 221.67 6.92608C221.71 6.17728 221.15 6.03561 220.56 6.01537C220.01 5.99513 219.46 6.00526 218.91 6.00526C213.71 6.00526 208.51 6.00526 203.31 6.00526C202.11 6.00526 201.13 5.94454 201.11 4.29516C201.09 2.96958 200.06 2.6559 198.93 2.6559C194.04 2.6559 189.16 2.64579 184.27 2.6559C183.29 2.6559 182.21 2.8178 182.22 4.09279C182.24 6.03561 181.03 6.02549 179.69 6.00526C177.88 5.98502 176.06 5.94453 174.25 6.02548C173.41 6.05584 171.96 5.5499 172.02 6.93619C172.07 8.25165 173.51 7.61416 174.36 7.75582C174.74 7.81653 175.15 7.76593 175.54 7.76593H196.82V7.74571Z" fill="#FFC72C"/>
<path d="M212.49 28.8639C211.39 28.8639 210.28 28.9549 209.19 28.8436C207.49 28.6615 206.49 27.6496 206.35 25.8788C206.21 24.0877 207.08 22.8937 208.76 22.58C211.32 22.1044 213.93 22.1145 216.5 22.58C218.2 22.8937 219.1 24.1687 218.94 25.8687C218.78 27.518 217.77 28.6716 216.04 28.8234C214.87 28.9246 213.68 28.8436 212.5 28.8436L212.49 28.8639ZM212.54 26.4859C213.4 26.4859 214.26 26.496 215.11 26.4859C215.73 26.4758 216.49 26.4859 216.43 25.5853C216.39 24.8972 215.7 24.8163 215.17 24.7961C213.46 24.7556 211.74 24.7657 210.03 24.7961C209.49 24.8062 208.84 24.8973 208.84 25.6258C208.84 26.5466 209.6 26.4556 210.21 26.4758C210.99 26.496 211.77 26.4758 212.55 26.4758L212.54 26.4859Z" fill="#FFC72C"/>
</svg>
