<svg width="183" height="65" viewBox="0 0 183 65" fill="none" xmlns="http://www.w3.org/2000/svg">
<g clip-path="url(#clip0_2073_2)">
<path d="M66.0803 31.74C71.2903 34.94 67.9503 43.99 67.0603 48.7C66.2203 53.14 64.7903 55.08 60.8203 56.84C55.0503 59.4 49.3103 61.86 43.6003 64.21C43.2703 64.34 42.9003 64.18 42.7703 63.86C42.7003 63.67 42.7103 63.47 42.8103 63.29L44.3203 60.73C44.7903 59.93 44.5303 58.9 43.7203 58.42C43.6203 58.36 43.5203 58.31 43.4103 58.28C40.2603 57.19 36.4203 54.99 36.9003 51.06C38.1903 40.39 37.8903 30.86 49.8603 30.8C53.6703 30.78 63.0603 29.89 66.0803 31.74ZM59.0303 49.72C60.2303 47.74 60.5403 45.61 59.9603 43.34C59.5903 41.91 58.6603 41.49 57.1703 42.07C56.1303 42.47 55.7603 43.21 56.0703 44.28C56.4003 45.46 56.4003 46.64 56.0703 47.81C56.0103 48 55.8103 48.12 55.6103 48.06C55.5103 48.03 55.4303 47.96 55.3903 47.87L51.6003 40.04C51.2403 39.27 51.5703 38.36 52.3403 38.01C52.8803 37.76 53.5203 37.84 53.9703 38.22L55.3103 39.37C55.5403 39.57 55.8903 39.59 56.1403 39.4L57.9403 38.09C58.2103 37.89 58.2703 37.51 58.0703 37.24C58.0603 37.22 58.0503 37.21 58.0303 37.19C54.4403 33.23 46.5403 34.51 47.9703 40.75C48.0403 41.04 47.9103 41.34 47.6603 41.5C39.2803 46.76 45.4803 54.39 53.8403 52.88C54.1603 52.82 54.4903 52.85 54.8003 52.97C56.9903 53.81 59.1003 53.67 61.1503 52.54C61.5303 52.33 61.6603 52.01 61.5403 51.59L61.2003 50.38C61.0803 49.95 60.8103 49.8 60.3803 49.92L59.4003 50.19C59.2303 50.24 59.0503 50.14 59.0103 49.96C58.9903 49.88 59.0003 49.79 59.0403 49.72H59.0303Z" fill="#E1251A"/>
<path d="M62.8405 0.250086C62.1805 -0.0599135 61.4705 -0.0899135 60.7105 0.160086C60.5305 0.220086 60.3505 0.260086 60.1605 0.270086C59.1505 0.360087 58.2105 0.620086 57.3305 1.06009C57.0105 1.23009 56.8205 1.48009 56.7605 1.83009L55.6805 7.95009C55.6205 8.32009 55.4105 8.44009 55.0605 8.29009C47.1805 4.94009 39.7505 11.1501 41.3105 19.2701C42.3205 24.4701 48.3505 27.7401 53.0405 24.2001C53.3305 23.9801 53.6105 23.9901 53.8805 24.2401C55.3305 25.5601 56.9105 25.7401 58.6305 24.7701C58.9105 24.6101 59.0805 24.3801 59.1305 24.0701L63.2705 1.07009C63.3305 0.730087 63.1505 0.400086 62.8405 0.250086ZM54.2005 17.6001C53.4405 19.6501 51.3805 20.7701 49.6005 20.1101C47.8205 19.4501 46.9905 17.2501 47.7605 15.2001C48.5205 13.1501 50.5805 12.0301 52.3605 12.6901C54.1405 13.3501 54.9705 15.5501 54.2005 17.6001Z" fill="#010101"/>
<path d="M5.11091 2.29001C4.78091 2.29001 4.47091 2.45001 4.28091 2.71001C3.51091 3.76001 3.18091 4.95001 3.31091 6.27001L0.0209111 24.39C-0.0690889 24.88 0.130911 25.12 0.630911 25.12H5.39091C5.77091 25.1 6.10091 24.83 6.17091 24.45L7.39091 17.99C7.46091 17.65 7.66091 17.49 8.01091 17.51C13.8809 17.84 19.9509 17.27 21.6709 10.82C23.4509 0.0700111 11.4209 2.28001 5.11091 2.29001ZM3.45091 12.5C3.46091 12.57 3.49091 12.64 3.52091 12.7C3.49091 12.63 3.47091 12.57 3.45091 12.5ZM4.31091 13.34C4.31091 13.34 4.27091 13.32 4.24091 13.32C4.35091 13.34 4.47091 13.36 4.59091 13.35C4.50091 13.36 4.40091 13.35 4.31091 13.35V13.34ZM8.30091 12.55L9.34091 7.79001C9.42091 7.43001 9.64091 7.27001 10.0109 7.32001C12.1709 7.60001 15.4909 6.86001 15.3409 10.18C14.5609 12.67 12.2109 13.46 8.30091 12.55Z" fill="#010101"/>
<path d="M107.41 23.9201C123.92 31.4101 124.23 13.0501 125.72 3.01009C125.72 2.98009 125.72 2.95009 125.72 2.91009C125.72 2.58009 125.44 2.31009 125.11 2.32009L120.28 2.37009C119.78 2.37009 119.49 2.63009 119.41 3.12009C118.62 7.76009 117.83 12.3101 117.02 16.7701C116.24 21.0401 112.91 20.0501 110.24 18.5101C109.85 18.2801 109.49 18.3301 109.16 18.6401L106.87 20.8501C106.7 21.0201 106.56 21.2101 106.46 21.4301C106.03 22.3801 106.46 23.4901 107.4 23.9201H107.41Z" fill="#010101"/>
<path d="M26.1017 8.94C22.1117 11.37 20.7617 15.31 22.0317 20.76C23.2217 23.05 24.9717 24.51 27.3017 25.14C31.4617 26.33 35.0017 25.58 37.9117 22.89C38.2417 22.58 38.2817 22.24 38.0117 21.87L36.4517 19.73C36.1717 19.35 35.8417 19.3 35.4517 19.58C33.4217 21.04 31.3217 21.44 29.1517 20.77C27.9517 20.2 27.3017 19.24 27.2017 17.9C32.0517 17.69 35.4217 17.66 37.2917 17.83C43.7617 18.42 38.7617 1.25 26.1017 8.94ZM33.8817 14.25L28.5417 14.33C28.4317 14.33 28.3417 14.24 28.3417 14.13V14.01C28.3217 12.68 29.5217 11.57 31.0217 11.55H31.3217C32.8217 11.53 34.0517 12.59 34.0817 13.92V14.04C34.0817 14.04 34.0817 14.04 34.0817 14.05C34.0817 14.16 33.9917 14.25 33.8817 14.25Z" fill="#010101"/>
<path d="M75.0917 12.89C75.4817 12.99 75.8917 12.81 76.0717 12.45L77.9117 8.69001C77.9117 8.69001 77.9217 8.66001 77.9317 8.65001C78.0717 8.30001 77.9117 7.91001 77.5617 7.76001C74.7117 6.56001 72.2117 7.01001 70.0517 9.11001C69.9617 9.19001 69.8517 9.24001 69.7317 9.24001C69.4817 9.24001 69.2717 9.03001 69.2717 8.78001V8.29001C69.2717 7.92001 69.1017 7.67001 68.7517 7.54001C65.4217 6.28001 64.3217 7.93001 63.8117 10.95C63.0817 15.34 62.3117 19.73 61.5017 24.12C61.4517 24.4 61.6017 24.68 61.8717 24.79C63.7117 25.5 65.5317 25.51 67.3417 24.8C67.6717 24.67 67.9017 24.38 67.9417 24.03C68.2917 21.35 68.7617 18.69 69.3417 16.05C70.1017 12.59 71.8417 12.03 75.0917 12.89Z" fill="#010101"/>
<path d="M155.771 23.9C156.061 23.69 156.281 23.74 156.451 24.05C157.551 26.14 160.801 25.69 161.241 23.28C162.101 18.53 162.611 15.45 162.761 14.04C163.661 5.40998 153.241 6.21998 148.551 9.28998C148.131 9.55998 148.011 9.93998 148.191 10.41L148.971 12.48C148.971 12.48 148.981 12.51 148.991 12.53C149.151 12.85 149.541 12.99 149.871 12.83C151.491 12.03 157.581 10.28 157.011 14.07C156.961 14.41 156.771 14.55 156.421 14.5C137.661 11.61 144.581 32.26 155.771 23.9ZM151.281 18.47C152.471 17.71 153.901 17.59 155.221 17.92C155.361 17.95 155.491 18.01 155.611 18.09C156.221 18.48 156.391 19.29 156.001 19.9C154.681 21.94 153.101 22.33 151.251 21.06C151.071 20.94 150.931 20.79 150.811 20.61C150.351 19.89 150.561 18.93 151.281 18.47Z" fill="#010101"/>
<path d="M77.3314 21.1501C79.7314 25.5401 85.5714 26.9801 90.3814 24.3601C95.1914 21.7401 97.1514 16.0501 94.7514 11.6601C92.3514 7.27014 86.5114 5.83014 81.7014 8.45014C76.8914 11.0701 74.9314 16.7601 77.3314 21.1501ZM82.7914 15.2001C83.5614 13.1601 85.6314 12.0501 87.4314 12.7201C89.2214 13.3901 90.0614 15.6001 89.2914 17.6401C88.5214 19.6801 86.4514 20.7901 84.6514 20.1201C82.8614 19.4501 82.0214 17.2401 82.7914 15.2001Z" fill="#010101"/>
<path d="M127.721 24.4101C130.531 26.1001 133.431 25.9601 136.421 23.9801C136.811 23.7201 137.081 23.8101 137.221 24.2601L137.411 24.8601C137.521 25.2101 137.751 25.3701 138.121 25.3401L141.051 25.0701C141.451 25.0401 141.781 24.7301 141.861 24.3301L144.591 9.0401C144.751 8.1501 144.381 7.6101 143.491 7.4201C141.961 7.1001 140.501 7.2001 139.091 7.7301C138.741 7.8601 138.521 8.1101 138.451 8.4801C137.901 11.1201 137.351 20.0101 133.981 20.2401C133.831 20.2401 133.691 20.2401 133.541 20.2201C132.501 20.0501 131.801 19.0601 131.971 18.0101L133.531 8.7201C133.651 8.0301 133.371 7.6101 132.691 7.4601C131.051 7.0901 129.451 7.1801 127.901 7.7501C127.601 7.8601 127.381 8.1201 127.321 8.4401C126.661 12.2601 123.491 21.8601 127.721 24.4101Z" fill="#010101"/>
<path d="M178.491 7.32004C176.041 6.75004 173.731 7.48004 171.571 9.53004C171.201 9.87004 171.021 9.79004 171.021 9.29004V8.30004C171.021 7.95004 170.861 7.71004 170.531 7.58004C169.061 7.01004 167.701 7.13004 166.451 7.94004C166.141 8.14004 165.961 8.42004 165.901 8.77004L163.181 24.19C163.071 24.8 163.331 25.11 163.941 25.13L168.031 25.23C168.731 25.25 169.351 24.76 169.481 24.07L171.311 14.64C171.551 13.43 172.601 12.55 173.831 12.53C175.641 12.5 176.381 13.81 176.091 15.48C175.601 18.31 175.091 21.24 174.561 24.26C174.561 24.29 174.561 24.32 174.561 24.35C174.541 24.76 174.861 25.1 175.271 25.12L179.561 25.27C180.211 25.3 180.781 24.85 180.911 24.2C181.851 19.57 185.331 8.92004 178.501 7.32004H178.491Z" fill="#010101"/>
<path d="M95.0406 23.12L94.1906 24.91C93.4506 26.47 93.9906 28.27 95.4106 28.95L95.5406 29.01C95.6606 29.07 95.8006 29.01 95.8606 28.9L99.1906 21.91C99.2506 21.79 99.1906 21.65 99.0806 21.59L98.9506 21.53C97.5306 20.85 95.7906 21.57 95.0406 23.12Z" fill="#010101"/>
<path d="M104.531 29.15C103.271 27.66 100.921 27.58 99.2708 28.97C97.6208 30.36 97.3108 32.69 98.5708 34.18C99.8308 35.67 102.181 35.75 103.831 34.36C105.481 32.97 105.791 30.64 104.531 29.15Z" fill="#010101"/>
<path d="M85.0201 32.52C81.8101 32.52 78.7401 32.52 75.8001 32.56C74.8401 32.57 74.0201 33.27 73.8501 34.21L70.2501 54.01C70.0701 55 70.4801 55.5 71.4901 55.52C80.7701 55.69 90.6301 56.89 94.0101 46.07C96.1401 39.26 92.6101 32.54 85.0201 32.52ZM78.0401 50.22C77.6301 50.17 77.4601 49.94 77.5301 49.53L79.5701 38.5C79.6301 38.17 79.8301 37.97 80.1601 37.91C91.4501 35.79 90.3501 51.82 78.0401 50.22Z" fill="#010101"/>
<path d="M110.292 48.0402H121.012C121.752 48.0402 122.382 47.4901 122.472 46.7601C124.242 32.6401 103.112 35.8901 103.942 47.8901C104.502 56.0901 115.542 58.9901 120.432 53.0001C120.662 52.7201 120.672 52.3201 120.452 52.0301L118.902 49.9801C118.692 49.7001 118.302 49.6501 118.022 49.8501C115.432 51.7801 110.992 52.6302 109.832 48.6502C109.822 48.6102 109.812 48.5702 109.812 48.5202C109.812 48.2502 110.022 48.0402 110.292 48.0402ZM110.822 44.2601C110.822 42.9101 112.042 41.8201 113.552 41.8201H113.792C115.302 41.8201 116.522 42.9101 116.522 44.2601V44.3602C116.522 44.4702 116.432 44.5602 116.322 44.5602H111.022C110.912 44.5602 110.822 44.4702 110.822 44.3602V44.2601Z" fill="#010101"/>
<path d="M143.241 38.05C141.391 37.3 139.851 37.59 138.631 38.9C138.401 39.14 138.151 39.17 137.881 38.99C132.631 35.62 125.831 38.45 124.291 44.39C122.521 51.21 127.951 55.46 134.691 53.36C135.071 53.24 135.231 53.38 135.171 53.78C134.311 58.99 128.381 58.05 125.421 55.27C125.141 55.01 124.701 55.01 124.431 55.28L122.441 57.24C122.341 57.34 122.251 57.45 122.171 57.58C121.641 58.43 121.901 59.54 122.751 60.07C129.221 64.1 138.761 62.93 140.751 54.28C141.931 49.15 142.891 43.95 143.621 38.7C143.671 38.39 143.541 38.17 143.241 38.05ZM136.821 46.92C136.071 48.85 134.091 49.88 132.391 49.22C130.701 48.56 129.931 46.46 130.691 44.53C131.441 42.6 133.421 41.57 135.121 42.23C136.811 42.89 137.581 44.99 136.821 46.92Z" fill="#010101"/>
<path d="M149.5 38.7001C144.66 41.2801 142.66 46.9701 145.03 51.4001C147.4 55.8301 153.24 57.3301 158.08 54.7501C162.92 52.1701 164.92 46.4801 162.55 42.0501C160.18 37.6201 154.34 36.1201 149.5 38.7001ZM157.07 47.8901C156.34 49.9401 154.29 51.0801 152.47 50.4401C150.66 49.8001 149.78 47.6201 150.5 45.5601C151.23 43.5101 153.28 42.3701 155.1 43.0101C156.92 43.6501 157.79 45.8301 157.07 47.8901Z" fill="#010101"/>
<path d="M102.11 37.7902H98.4704C97.8404 37.8002 97.3104 38.2502 97.2004 38.8702L94.4204 54.0102C94.4104 54.0902 94.4004 54.1602 94.4004 54.2402C94.4004 54.9602 94.9804 55.5402 95.7004 55.5402H99.4304C100.06 55.5402 100.6 55.0902 100.71 54.4702L103.4 39.3102C103.41 39.2302 103.42 39.1602 103.42 39.0802C103.42 38.3602 102.83 37.7802 102.11 37.7902Z" fill="#010101"/>
<path d="M52.1896 49.56C52.2296 49.63 52.1896 49.71 52.1296 49.75L52.0696 49.78C50.8996 50.39 49.3796 49.77 48.6696 48.4L48.4996 48.07C47.7996 46.71 48.1696 45.11 49.3496 44.5L49.4096 44.47C49.4796 44.43 49.5596 44.47 49.5996 44.53L52.1896 49.56Z" fill="#E1251A"/>
</g>
<defs>
<clipPath id="clip0_2073_2">
<rect width="182.62" height="64.26" fill="white"/>
</clipPath>
</defs>
</svg>
