<svg width="122" height="122" viewBox="0 0 122 122" fill="none" xmlns="http://www.w3.org/2000/svg">
<path d="M60.6016 121.203C94.0709 121.203 121.203 94.0709 121.203 60.6016C121.203 27.1322 94.0709 0 60.6016 0C27.1322 0 0 27.1322 0 60.6016C0 94.0709 27.1322 121.203 60.6016 121.203Z" fill="#FFC72C"/>
<path d="M23.8079 88.0609V63.0574H37.1695V91.7623H23.8079" fill="#FFC72C"/>
<path d="M23.8079 88.0609V63.0574H37.1695V91.7623H23.8079" stroke="#1E2B4B" stroke-width="3.53857" stroke-linejoin="round"/>
<path d="M37.5798 89.1933H42.003V65.0391H37.5798" fill="#FFC72C"/>
<path d="M37.5798 89.1933H42.003V65.0391H37.5798" stroke="#1E2B4B" stroke-width="3.53857" stroke-linejoin="round"/>
<path d="M42.8242 67.1976C44.544 67.1834 46.7874 67.24 49.3989 67.509C50.4109 67.608 53.5178 67.9477 57.8278 68.9456C63.815 70.3327 69.2432 72.3285 73.5532 74.1898C74.8554 75.2584 75.3861 76.9852 74.8907 78.5068C74.3175 80.262 72.5058 80.9343 72.1165 81.0758C71.8688 81.1678 71.3522 81.3377 70.1632 81.3872C68.0047 81.4721 66.3416 81.0475 66.0514 80.9767C63.8504 80.4177 59.6749 79.5542 54.1335 78.4077" fill="#FFC72C"/>
<path d="M42.8242 67.1976C44.544 67.1834 46.7874 67.24 49.3989 67.509C50.4109 67.608 53.5178 67.9477 57.8278 68.9456C63.815 70.3327 69.2432 72.3285 73.5532 74.1898C74.8554 75.2584 75.3861 76.9852 74.8907 78.5068C74.3175 80.262 72.5058 80.9343 72.1165 81.0758C71.8688 81.1678 71.3522 81.3377 70.1632 81.3872C68.0047 81.4721 66.3416 81.0475 66.0514 80.9767C63.8504 80.4177 59.6749 79.5542 54.1335 78.4077" stroke="#1E2B4B" stroke-width="3.53857" stroke-linejoin="round"/>
<path d="M42.4136 87.7494C48.8538 89.455 55.9309 90.8704 63.5813 91.755C65.3577 91.9603 67.1057 92.1301 68.8255 92.2717C72.8736 90.7996 77.8276 88.5986 83.1071 85.2865C90.0639 80.9199 91.5218 78.5915 95.4426 75.6262C95.6337 75.4847 96.2069 75.053 96.674 74.2886C97.3464 73.1988 97.3888 72.1089 97.3959 71.8187C97.3959 71.4649 97.4242 69.8088 96.1645 68.5279C94.7278 67.077 92.7533 67.2469 92.2579 67.2964C91.3378 67.3814 90.6655 67.6857 90.4107 67.8131C88.4716 68.7331 84.3244 70.7855 78.9033 73.5668" fill="#FFC72C"/>
<path d="M42.4136 87.7494C48.8538 89.455 55.9309 90.8704 63.5813 91.755C65.3577 91.9603 67.1057 92.1301 68.8255 92.2717C72.8736 90.7996 77.8276 88.5986 83.1071 85.2865C90.0639 80.9199 91.5218 78.5915 95.4426 75.6262C95.6337 75.4847 96.2069 75.053 96.674 74.2886C97.3464 73.1988 97.3888 72.1089 97.3959 71.8187C97.3959 71.4649 97.4242 69.8088 96.1645 68.5279C94.7278 67.077 92.7533 67.2469 92.2579 67.2964C91.3378 67.3814 90.6655 67.6857 90.4107 67.8131C88.4716 68.7331 84.3244 70.7855 78.9033 73.5668" stroke="#1E2B4B" stroke-width="3.53857" stroke-linejoin="round"/>
<path d="M59.4978 57.5444H47.2827C43.9422 57.5444 41.2317 54.8339 41.2317 51.4934V50.5239C41.2317 50.5239 46.5254 49.4269 46.5254 43.3264C46.5254 37.2259 41.2317 36.6668 41.2317 36.6668V35.2797C41.2317 31.9393 43.9422 29.2288 47.2827 29.2288H59.4978" fill="#FFC72C"/>
<path d="M59.4978 57.5444H47.2827C43.9422 57.5444 41.2317 54.8339 41.2317 51.4934V50.5239C41.2317 50.5239 46.5254 49.4269 46.5254 43.3264C46.5254 37.2259 41.2317 36.6668 41.2317 36.6668V35.2797C41.2317 31.9393 43.9422 29.2288 47.2827 29.2288H59.4978" stroke="#1E2B4B" stroke-width="3.53857" stroke-linejoin="round"/>
<path d="M67.6294 29.2217H79.8445C83.185 29.2217 85.8955 31.9322 85.8955 35.2726V36.2422C85.8955 36.2422 80.6018 37.3392 80.6018 43.4397C80.6018 49.5402 85.8955 50.0992 85.8955 50.0992V51.4864C85.8955 54.8268 83.185 57.5373 79.8445 57.5373H67.6294" fill="#FFC72C"/>
<path d="M67.6294 29.2217H79.8445C83.185 29.2217 85.8955 31.9322 85.8955 35.2726V36.2422C85.8955 36.2422 80.6018 37.3392 80.6018 43.4397C80.6018 49.5402 85.8955 50.0992 85.8955 50.0992V51.4864C85.8955 54.8268 83.185 57.5373 79.8445 57.5373H67.6294" stroke="#1E2B4B" stroke-width="3.53857" stroke-linejoin="round"/>
<path d="M73.3335 29.8726V56.8931" stroke="#1E2B4B" stroke-width="3.53857" stroke-linecap="round" stroke-linejoin="round"/>
<path d="M54.197 38.0891V48.6765" stroke="#1E2B4B" stroke-width="3.53857" stroke-linejoin="round"/>
<path d="M54.197 54.4868V57.5441" stroke="#1E2B4B" stroke-width="3.53857" stroke-linejoin="round"/>
<path d="M54.197 28.9314V32.5761" stroke="#1E2B4B" stroke-width="3.53857" stroke-linejoin="round"/>
</svg>
