<?xml version="1.0" encoding="UTF-8"?>
<svg id="Capa_2" data-name="Capa 2" xmlns="http://www.w3.org/2000/svg" width="60" height="60" xmlns:xlink="http://www.w3.org/1999/xlink" viewBox="0 0 60 60">
  <defs>
    <style>
      .cls-1 {
        fill: none;
      }

      .cls-2 {
        fill: #1e294d;
      }

      .cls-3 {
        clip-path: url(#clippath-1);
      }
    </style>
    <clipPath id="clippath-1">
      <path class="cls-1" d="M56.15,15.28c-.52-.93-1.1-1.82-1.71-2.68l-7.91,5.86-1.95-2.63,7.81-5.79C46.89,3.88,38.9,0,30,0,13.43,0,0,13.43,0,30s13.43,30,30,30,30-13.43,30-30c0-5.35-1.4-10.37-3.85-14.72Z"/>
    </clipPath>
  </defs>
  <g id="Capa_1-2" data-name="Capa 1">
    <g>
      <g>
        <path class="cls-2" d="M27.09,43.93c-.49,0-.89-.4-.89-.89v-15.99c0-.49,.4-.89,.89-.89h5.83c.49,0,.89,.4,.89,.89v15.99c0,.49-.4,.89-.89,.89h-5.83Zm.89-1.77h4.05v-14.22h-4.05v14.22Z"/>
        <path class="cls-2" d="M27.09,24.38c-.49,0-.89-.4-.89-.89v-5.83c0-.49,.4-.89,.89-.89h5.83c.49,0,.89,.4,.89,.89v5.83c0,.49-.4,.89-.89,.89h-5.83Zm.89-1.77h4.05v-4.06h-4.05v4.06Z"/>
      </g>
      <g class="cls-3">
        <path class="cls-2" d="M30,55.12c-13.85,0-25.12-11.27-25.12-25.12S16.15,4.89,30,4.89s25.12,11.27,25.12,25.11-11.27,25.12-25.12,25.12Zm0-48.43c-12.86,0-23.31,10.46-23.31,23.31s10.46,23.31,23.31,23.31,23.31-10.46,23.31-23.31S42.86,6.69,30,6.69Z"/>
      </g>
    </g>
  </g>
</svg>