<svg width="96" height="23" viewBox="0 0 96 23" fill="none" xmlns="http://www.w3.org/2000/svg">
<g clip-path="url(#clip0_1405_99)">
<path fill-rule="evenodd" clip-rule="evenodd" d="M30.3324 6.5215C30.9149 6.50653 31.1899 6.59902 31.1844 7.29265C31.1545 12.1603 31.1599 17.028 31.179 21.8943C31.179 22.4329 31.0565 22.6926 30.4672 22.7851C29.8846 22.8776 29.3075 22.9701 28.7182 22.9674C27.2524 22.9551 26.0723 22.4927 25.6559 20.8606C24.22 22.3907 22.4356 22.917 20.4676 22.9374C18.3538 22.9578 17.1221 21.984 16.5954 19.929C16.5559 19.7767 16.6212 19.5849 16.3586 19.4421C15.135 20.7953 13.6787 21.8589 11.8998 22.4397C10.7034 22.8286 9.48936 23.0435 8.22767 22.947C5.63488 22.7525 3.72397 20.8946 3.47898 18.3091C3.26121 16.0351 3.3769 13.7557 3.38371 11.4789C3.38371 10.7445 3.25168 10.4657 2.43233 10.4779C0.0409777 10.5174 0.12264 10.4725 0.00559024 8.07877C-0.0515737 6.89279 0.322714 6.44669 1.44966 6.1162C4.12003 5.3328 5.97378 3.54568 7.0422 0.967004C7.33482 0.255692 9.11099 -0.278812 9.72482 0.157768C10.0025 0.354977 9.88542 0.66235 9.8895 0.926202C9.89903 2.47939 9.92217 4.03394 9.88134 5.58713C9.86364 6.26308 9.99567 6.5555 10.7687 6.5487C13.0444 6.53102 13.0444 6.56638 13.0444 8.84992C13.0444 9.95021 12.4796 10.4997 11.3485 10.4997C10.3781 10.4997 9.89223 10.9934 9.89223 11.9794C9.89223 13.1532 9.87453 14.3282 9.89903 15.4993C9.92217 16.8172 10.6612 17.4537 11.9651 17.3272C14.1509 17.1177 16.4947 14.7662 16.2347 12.6418C16.0401 11.0437 16.2347 9.39939 16.1775 7.78091C16.1571 7.14168 16.4048 6.80711 16.9492 6.62214C17.4692 6.44261 17.9891 6.2182 18.5281 6.14748C20.4485 5.89995 21.3903 6.67654 21.5782 8.60375C21.8 10.8778 21.6408 13.1572 21.683 15.4313C21.6952 16.095 21.6503 16.7913 22.3499 17.1585C23.059 17.5298 23.7191 17.1966 24.2962 16.8267C25.1509 16.2745 25.6409 15.5006 25.6232 14.4126C25.5864 12.0991 25.6463 9.78428 25.5932 7.47354C25.5756 6.67246 25.8328 6.47253 26.5923 6.51197C27.8363 6.57454 29.0857 6.55414 30.3297 6.51742L30.3324 6.52286V6.5215ZM76.5671 6.55686C77.0666 6.54734 77.3021 6.62894 77.2994 7.21785C77.2749 12.1535 77.2817 17.0905 77.2939 22.0289C77.2939 22.4805 77.1769 22.6804 76.6924 22.7878C75.7981 22.9823 74.9067 23.0354 74.0097 22.9306C72.8379 22.7933 72.0866 22.1064 71.7368 20.9082C70.1961 22.5063 68.3069 23.0122 66.2368 22.9701C64.0033 22.9225 62.3592 21.3353 62.3292 19.0953C62.2789 15.2653 62.3115 11.4313 62.317 7.60002C62.317 7.37289 62.2394 7.1104 62.5116 6.95127C63.6508 6.29436 64.8621 5.84554 66.1715 6.26988C67.3882 6.6643 67.6604 7.76323 67.6958 8.85808C67.768 11.0995 67.738 13.3463 67.7557 15.5877C67.768 17.2252 68.6731 17.7869 70.1144 17.0225C71.1257 16.4839 71.715 15.6951 71.6878 14.4561C71.6374 12.11 71.696 9.76116 71.6578 7.4137C71.6456 6.74183 71.828 6.52694 72.5153 6.55278C73.8641 6.60718 75.2156 6.58542 76.5671 6.55822H76.5644L76.5671 6.55686ZM88.6029 13.0824C91.0664 14.4303 92.0354 16.2527 91.6584 18.7335C91.4311 20.2241 90.5396 21.2319 89.2548 21.9092C86.7587 23.2244 84.1659 23.1877 81.5431 22.3458C78.6822 21.4291 78.6849 21.4196 79.3573 18.5336C79.3872 18.3989 79.4144 18.2643 79.4349 18.1269C79.5397 17.4673 79.7302 17.1681 80.4665 17.6305C81.5009 18.2819 82.6646 18.6492 83.9141 18.5784C84.2516 18.5608 84.5932 18.4683 84.9185 18.3636C85.2833 18.2466 85.4711 17.9664 85.4752 17.5747C85.4779 17.2129 85.2656 17.0184 84.958 16.8756C83.9263 16.3942 82.8647 15.9644 81.8752 15.4054C79.1994 13.8957 78.4454 10.4752 80.3331 8.24333C81.5976 6.74591 83.3029 6.08628 85.2697 6.1162C85.4765 6.11892 85.6848 6.1162 86.1312 6.1162C88.0693 6.09852 89.3542 6.6303 91.0024 7.26681C91.4924 7.4545 91.5591 7.71563 91.4624 8.21341C91.0459 10.4154 90.2089 11.0015 88.1074 10.4453C87.563 10.3025 87.0227 10.2535 86.466 10.2861C86.0264 10.3106 85.6072 10.4181 85.4847 10.89C85.3527 11.3837 85.7174 11.6584 86.0945 11.8529C86.9261 12.2746 87.7876 12.635 88.6029 13.0838V13.0824ZM43.5155 5.80746C43.9851 5.68778 44.2151 5.76258 44.2069 6.32429C44.1824 8.18621 44.1865 10.0509 44.2069 11.9114C44.2124 12.3888 44.0817 12.5275 43.5754 12.5683C40.6328 12.8131 38.8634 14.7553 38.8594 17.6686C38.8594 19.117 38.8349 20.5669 38.8716 22.0126C38.8866 22.5893 38.7246 22.7946 38.1217 22.781C36.7048 22.7416 35.2839 22.7538 33.867 22.7783C33.3893 22.7865 33.2029 22.6613 33.2029 22.1472C33.2205 17.2837 33.2205 12.4214 33.2029 7.5565C33.2029 7.09272 33.4057 6.89551 33.7772 6.70238C36.6422 5.20496 38.5109 6.25356 38.8934 9.6578C39.3507 9.40075 39.4405 9.00633 39.6352 8.69215C40.5443 7.20697 41.8278 6.2386 43.5196 5.8061H43.5169L43.5155 5.80746ZM53.9602 6.73638C56.2386 6.25764 58.2298 7.1308 59.2192 9.23074C60.7382 12.4636 60.7082 15.7332 59.0192 18.8885C57.3682 21.9691 53.8649 23.4515 49.926 22.8776C48.795 22.713 47.6885 22.4505 46.5915 22.1268C45.9341 21.9324 45.7626 21.6019 45.7667 20.949C45.7912 14.5581 45.7912 8.16989 45.7667 1.7776C45.7667 1.16829 45.9395 0.791556 46.5016 0.584827C47.0188 0.393058 47.5211 0.160488 48.0832 0.112886C49.877 -0.0340011 50.661 0.534505 50.9536 2.3121C51.2585 4.15907 51.004 6.02915 51.1306 8.01892C52.1051 7.43682 52.9639 6.94311 53.9615 6.73366H53.9588L53.9602 6.73638ZM51.8192 18.1473C53.5927 17.9147 54.9891 16.2378 55.0395 14.263C55.0721 13.0022 54.3807 12.0841 53.3654 12.0433C52.1187 11.9889 51.0924 12.9818 51.0924 14.2398V15.6856C51.0924 16.3044 51.1346 16.9287 51.0802 17.5434C51.023 18.1745 51.3306 18.2099 51.822 18.1473H51.8192ZM94.5316 19.2857C95.3428 19.2857 96.0002 19.9426 96.0002 20.7505C96.0002 21.5583 95.3428 22.2139 94.5316 22.2139C93.7204 22.2139 93.063 21.557 93.063 20.7505C93.063 19.9439 93.7204 19.2857 94.5316 19.2857ZM94.5316 22.067C95.2584 22.067 95.8532 21.4754 95.8532 20.7532C95.8532 20.031 95.2611 19.438 94.5316 19.438C93.8021 19.438 93.21 20.0296 93.21 20.7532C93.21 21.4767 93.8021 22.067 94.5316 22.067ZM94.7494 20.8565C95.0039 21.251 95.1318 21.4509 95.1318 21.4631C95.1318 21.4658 95.1318 21.4754 95.1345 21.4931C95.1345 21.5311 95.1073 21.5583 95.0501 21.5706C95.0079 21.5706 94.9508 21.4985 94.8773 21.3584C94.6854 21.0633 94.5874 20.9069 94.5847 20.8919C94.522 20.8946 94.4771 20.8987 94.4499 20.8987H94.273V21.4604C94.273 21.5148 94.258 21.5502 94.2253 21.5651C94.2158 21.5719 94.2049 21.5719 94.1954 21.5719H94.1859C94.141 21.5719 94.1137 21.542 94.1083 21.4795V20.031C94.1083 19.9657 94.141 19.9358 94.2036 19.9358H94.4758C94.7208 19.9358 94.8882 20.0283 94.9807 20.216C95.0011 20.2826 95.0134 20.3384 95.0134 20.3887C95.0134 20.5913 94.9236 20.7409 94.7439 20.8361V20.8606L94.7466 20.8579L94.7494 20.8565ZM94.4894 20.7314C94.6718 20.7314 94.7888 20.6471 94.8419 20.4825C94.8473 20.4472 94.8501 20.4172 94.8501 20.3928V20.3696C94.8501 20.2173 94.748 20.1276 94.5425 20.0949H94.273V20.7314H94.488H94.4894Z" fill="white"/>
</g>
<defs>
<clipPath id="clip0_1405_99">
<rect width="96" height="23" fill="white"/>
</clipPath>
</defs>
</svg>
