<svg width="122" height="123" viewBox="0 0 122 123" fill="none" xmlns="http://www.w3.org/2000/svg">
<path d="M60.6016 122.123C94.0709 122.123 121.203 94.991 121.203 61.5217C121.203 28.0524 94.0709 0.920166 60.6016 0.920166C27.1322 0.920166 0 28.0524 0 61.5217C0 94.991 27.1322 122.123 60.6016 122.123Z" fill="#FFC72C"/>
<path d="M82.8733 34.8198H27.3672C25.8244 34.8198 24.5718 36.0725 24.5718 37.6153V54.2253" fill="#FFC72C"/>
<path d="M82.8733 34.8198H27.3672C25.8244 34.8198 24.5718 36.0725 24.5718 37.6153V54.2253" stroke="#202B4B" stroke-width="3.53857" stroke-linejoin="round"/>
<path d="M24.8406 62.2153V85.4284C24.8406 86.9712 26.0932 88.2238 27.636 88.2238H75.4846" fill="#FFC72C"/>
<path d="M24.8406 62.2153V85.4284C24.8406 86.9712 26.0932 88.2238 27.636 88.2238H75.4846" stroke="#202B4B" stroke-width="3.53857" stroke-linejoin="round"/>
<path d="M82.873 88.2239H93.8355C95.3784 88.2239 96.631 86.9713 96.631 85.4285V37.6153C96.631 36.0725 95.3784 34.8198 93.8355 34.8198H86.9495" fill="#FFC72C"/>
<path d="M82.873 88.2239H93.8355C95.3784 88.2239 96.631 86.9713 96.631 85.4285V37.6153C96.631 36.0725 95.3784 34.8198 93.8355 34.8198H86.9495" stroke="#202B4B" stroke-width="3.53857" stroke-linejoin="round"/>
<path d="M24.8406 46.3628H96.6311" stroke="#202B4B" stroke-width="3.53857" stroke-linejoin="round"/>
<path d="M33.4536 60.2268L36.8506 70.8213L40.9271 60.2268L44.494 70.8213L47.7353 60.2268" fill="#FFC72C"/>
<path d="M33.4536 60.2268L36.8506 70.8213L40.9271 60.2268L44.494 70.8213L47.7353 60.2268" stroke="#202B4B" stroke-width="3.53857" stroke-linecap="round" stroke-linejoin="round"/>
<path d="M53.3472 60.2268L56.7442 70.8213L60.8136 60.2268L64.3804 70.8213L67.6288 60.2268" fill="#FFC72C"/>
<path d="M53.3472 60.2268L56.7442 70.8213L60.8136 60.2268L64.3804 70.8213L67.6288 60.2268" stroke="#202B4B" stroke-width="3.53857" stroke-linecap="round" stroke-linejoin="round"/>
<path d="M73.1562 60.2268L76.5533 70.8213L80.6226 60.2268L84.1895 70.8213L87.4379 60.2268" fill="#FFC72C"/>
<path d="M73.1562 60.2268L76.5533 70.8213L80.6226 60.2268L84.1895 70.8213L87.4379 60.2268" stroke="#202B4B" stroke-width="3.53857" stroke-linecap="round" stroke-linejoin="round"/>
<path d="M32.4133 42.4986C33.4803 42.4986 34.3453 41.6336 34.3453 40.5666C34.3453 39.4995 33.4803 38.6345 32.4133 38.6345C31.3462 38.6345 30.4812 39.4995 30.4812 40.5666C30.4812 41.6336 31.3462 42.4986 32.4133 42.4986Z" fill="#FFC72C"/>
<path d="M38.6623 42.4986C39.7293 42.4986 40.5943 41.6336 40.5943 40.5666C40.5943 39.4995 39.7293 38.6345 38.6623 38.6345C37.5952 38.6345 36.7302 39.4995 36.7302 40.5666C36.7302 41.6336 37.5952 42.4986 38.6623 42.4986Z" fill="#FFC72C"/>
<path d="M44.777 42.4986C45.8441 42.4986 46.7091 41.6336 46.7091 40.5666C46.7091 39.4995 45.8441 38.6345 44.777 38.6345C43.71 38.6345 42.845 39.4995 42.845 40.5666C42.845 41.6336 43.71 42.4986 44.777 42.4986Z" fill="#FFC72C"/>
</svg>
