<?xml version="1.0" encoding="utf-8"?>
<!-- Generator: Adobe Illustrator 25.2.0, SVG Export Plug-In . SVG Version: 6.00 Build 0)  -->
<svg version="1.1" id="Layer_1" xmlns="http://www.w3.org/2000/svg" xmlns:xlink="http://www.w3.org/1999/xlink" x="0px" y="0px"
	 width="512px" height="512px" viewBox="0 0 512 512" style="enable-background:new 0 0 512 512;" xml:space="preserve">
<style type="text/css">
	.st0{fill:#FF5A5E;}
</style>
<path class="st0" d="M500.5,241.3c-0.8-1.1-18.8-25.9-50.8-32.5c-29-5.9-95.1-6.3-97.9-6.3c-3.6,0-7.2-0.2-10.7-0.6
	c-3-2.6-5.8-5.5-8.4-8.6L203.1,33.2c-2.8-3.5-8.5-10-12.1-12.5c-6.2-4.3-22.1-3.2-23.9-3.1l-3.5,0.3c-4.8,0.4-13.5,1.3-17.6,3.7
	c-2.5,1.4-9.9,5.8-3,27c0,0,49.4,152.4,49.6,153.1c-0.7,0-71.1,0.1-71.1,0.1c-3.6,0-7.3-0.2-10.9-0.6c-3.1-2.5-6-5.4-8.7-8.4
	L56,139.1c-0.3-0.4-7.9-9.3-12.8-12.2c-6.4-3.9-18.8-1.9-19-1.9c-4.1,0.8-8.1,2.3-11.7,4.6c-5.7,4.1-6.6,13-2.9,26.6
	c10.3,36.8,24.9,91.4,26,99.8c-1.1,8.4-15.7,62.9-26,99.8c-0.8,2.9-3.4,12.7-2.6,17.8c1.6,10.5,16.5,13.3,17.1,13.5
	c3.9,0.7,8,0.9,12,0.5c7.7-0.9,17.8-12.4,19.7-14.7l45.7-53.8c2.3-2.7,4.8-5.4,7.4-7.8c4-0.7,8.1-1.1,12.2-1.1c0,0,70.4,0,71.1,0
	c-0.2,0.7-49.6,153.1-49.6,153.1c-1.5,4.6-3.9,13-3.2,17.7c1.1,7.6,9.1,12,23.9,13.1l3.5,0.3c2.2,0.2,5.5,0.3,8.8,0.3
	c2.9,0.1,5.7-0.1,8.6-0.6c7.4-1.6,17.5-13.9,18.7-15.3l129.7-160.2c2.2-2.8,4.6-5.5,7.2-8c3.9-0.7,7.9-1.1,11.9-1.2
	c2.8,0,68.9-0.3,97.9-6.3c32-6.6,50-31.4,50.8-32.5C506.4,262.2,506.4,249.6,500.5,241.3L500.5,241.3z"/>
</svg>
