<svg id="Layer_1" data-name="Layer 1" xmlns="http://www.w3.org/2000/svg" viewBox="0 0 512 512"><defs><style>.cls-1{fill:silver;}</style></defs><title>Not-Show</title><path class="cls-1" d="M504.614,244.115C440.032,158.247,352.513,105.446,256,105.446a264.915,264.915,0,0,0-80.041,12.426l39.959,39.73a104.479,104.479,0,0,1,33.16-7.621A106.308,106.308,0,0,1,362.018,262.925a104.536,104.536,0,0,1-7.447,32.541l60.212,59.868c33.145-22.7,63.408-52.262,89.83-87.349A19.989,19.989,0,0,0,504.614,244.115Z"/><path class="cls-1" d="M257.326,198.776l55.907,55.588A57.084,57.084,0,0,0,257.326,198.776Z"/><path class="cls-1" d="M99.361,71.566A14,14,0,1,0,79.619,91.421l47.4,47.13C82.1,162.534,41.534,198.661,7.383,244.014a20,20,0,0,0,0,23.871C71.965,353.748,159.488,406.554,256,406.554c40.061,0,78.57-9.1,114.534-25.882l60.106,59.763a14,14,0,0,0,19.742-19.855ZM262.92,362.018a106.149,106.149,0,0,1-87.4-175.246l34.952,34.752a56.441,56.441,0,0,0-11.511,30.754,57.118,57.118,0,0,0,60.763,60.757,56.524,56.524,0,0,0,31.01-11.709l34.878,34.679A105.681,105.681,0,0,1,262.92,362.018Z"/></svg>