<svg id="Layer_1" data-name="Layer 1" xmlns="http://www.w3.org/2000/svg" viewBox="0 0 512 512"><defs><style>.cls-1{fill:silver;}</style></defs><title>Show</title><path class="cls-1" d="M257.215,198.773a22.028,22.028,0,1,1-37.579,15.6,22.209,22.209,0,0,1,.152-2.557,57.128,57.128,0,1,0,37.427-13.045Z"/><path class="cls-1" d="M504.614,244.115C440.032,158.247,352.513,105.446,256,105.446S71.965,158.247,7.383,244.014a20,20,0,0,0,0,23.871C71.965,353.748,159.488,406.554,256,406.554s184.034-52.806,248.616-138.568A19.989,19.989,0,0,0,504.614,244.115Zm-142.6,18.81c-3.411,52.8-46.292,95.682-99.1,99.093A106.307,106.307,0,0,1,149.983,249.075c3.305-52.907,46.187-95.788,99.094-99.093A106.308,106.308,0,0,1,362.018,262.925Z"/></svg>