<?xml version="1.0" encoding="utf-8"?>
<!-- Generator: Adobe Illustrator 25.2.0, SVG Export Plug-In . SVG Version: 6.00 Build 0)  -->
<svg version="1.1" id="Capa_1" xmlns="http://www.w3.org/2000/svg" xmlns:xlink="http://www.w3.org/1999/xlink" x="0px" y="0px"
	 width="805.48px" height="200px" viewBox="0 0 805.48 200" style="enable-background:new 0 0 805.48 200;" xml:space="preserve">
<style type="text/css">
	.st0{fill:#FFFFFF;}
	.st1{enable-background:new    ;}
</style>
<g>
	<g>
		<path class="st0" d="M113.14,96.94l20.94-19.75L40.96,25.98c-1.31-0.71-2.77-1.1-4.26-1.15L113.14,96.94z"/>
		<path class="st0" d="M27.55,29.88c-0.82,1.45-1.25,3.09-1.25,4.76v138.27c0,1.67,0.43,3.31,1.25,4.77l78.34-73.9L27.55,29.88z"/>
		<path class="st0" d="M166.7,95.11l-23.45-12.89l-22.85,21.57l22.86,21.56l23.45-12.9c4.79-2.63,6.53-8.65,3.9-13.44
			C169.7,97.37,168.34,96.01,166.7,95.11z"/>
		<path class="st0" d="M113.14,110.62L36.7,182.74c1.49-0.05,2.95-0.45,4.26-1.15l93.13-51.2L113.14,110.62z"/>
	</g>
	<g>
		<g class="st1">
			<path class="st0" d="M249.89,132.82v-12.5h32.28v29.55c-3.14,3.04-7.68,5.71-13.64,8.02s-11.98,3.46-18.09,3.46
				c-7.76,0-14.52-1.63-20.29-4.88s-10.1-7.91-13-13.97c-2.9-6.05-4.35-12.64-4.35-19.76c0-7.72,1.62-14.59,4.86-20.6
				c3.24-6,7.98-10.61,14.22-13.81c4.76-2.46,10.68-3.69,17.76-3.69c9.21,0,16.4,1.93,21.58,5.79s8.51,9.2,9.99,16.02l-14.88,2.78
				c-1.05-3.64-3.01-6.52-5.89-8.63s-6.49-3.16-10.8-3.16c-6.55,0-11.75,2.07-15.61,6.22s-5.79,10.31-5.79,18.47
				c0,8.8,1.96,15.41,5.87,19.81c3.91,4.4,9.04,6.61,15.38,6.61c3.14,0,6.28-0.62,9.44-1.85c3.15-1.23,5.86-2.72,8.12-4.48v-9.41
				L249.89,132.82L249.89,132.82z"/>
			<path class="st0" d="M290.01,132.46c0-4.72,1.16-9.29,3.49-13.71s5.63-7.79,9.89-10.12c4.27-2.33,9.03-3.49,14.29-3.49
				c8.13,0,14.79,2.64,19.99,7.92s7.79,11.95,7.79,20.01c0,8.13-2.62,14.87-7.87,20.22s-11.85,8.02-19.81,8.02
				c-4.93,0-9.62-1.11-14.09-3.34s-7.87-5.49-10.2-9.79C291.17,143.88,290.01,138.63,290.01,132.46z M304.58,133.22
				c0,5.33,1.26,9.41,3.79,12.25s5.65,4.25,9.36,4.25s6.82-1.42,9.34-4.25c2.51-2.83,3.77-6.95,3.77-12.35
				c0-5.26-1.26-9.31-3.77-12.14c-2.51-2.83-5.63-4.25-9.34-4.25s-6.83,1.42-9.36,4.25S304.58,127.89,304.58,133.22z"/>
			<path class="st0" d="M350.72,132.46c0-4.72,1.16-9.29,3.49-13.71s5.63-7.79,9.89-10.12c4.27-2.33,9.03-3.49,14.29-3.49
				c8.13,0,14.79,2.64,19.99,7.92s7.79,11.95,7.79,20.01c0,8.13-2.62,14.87-7.87,20.22s-11.85,8.02-19.81,8.02
				c-4.93,0-9.62-1.11-14.09-3.34s-7.87-5.49-10.2-9.79C351.89,143.88,350.72,138.63,350.72,132.46z M365.3,133.22
				c0,5.33,1.26,9.41,3.79,12.25s5.65,4.25,9.36,4.25s6.82-1.42,9.34-4.25c2.51-2.83,3.77-6.95,3.77-12.35
				c0-5.26-1.26-9.31-3.77-12.14c-2.51-2.83-5.63-4.25-9.34-4.25s-6.83,1.42-9.36,4.25S365.3,127.89,365.3,133.22z"/>
			<path class="st0" d="M413.41,163.63l16.24,1.97c0.27,1.89,0.89,3.19,1.87,3.9c1.35,1.01,3.47,1.52,6.38,1.52
				c3.71,0,6.49-0.56,8.35-1.67c1.25-0.74,2.19-1.94,2.83-3.59c0.44-1.18,0.66-3.36,0.66-6.53v-7.84c-4.25,5.8-9.62,8.71-16.09,8.71
				c-7.22,0-12.94-3.05-17.15-9.16c-3.31-4.82-4.96-10.83-4.96-18.01c0-9.01,2.17-15.89,6.5-20.65s9.72-7.13,16.17-7.13
				c6.65,0,12.13,2.92,16.45,8.75v-7.54h13.31v48.22c0,6.34-0.52,11.08-1.57,14.22c-1.05,3.14-2.51,5.6-4.4,7.39
				c-1.89,1.79-4.41,3.19-7.57,4.2s-7.14,1.52-11.97,1.52c-9.11,0-15.57-1.56-19.38-4.68s-5.72-7.08-5.72-11.87
				C413.36,164.88,413.38,164.31,413.41,163.63z M426.11,132.11c0,5.7,1.1,9.88,3.31,12.53s4.93,3.97,8.17,3.97
				c3.47,0,6.41-1.36,8.81-4.07c2.39-2.71,3.59-6.74,3.59-12.07c0-5.57-1.15-9.7-3.44-12.4s-5.2-4.05-8.7-4.05
				c-3.41,0-6.22,1.32-8.43,3.97C427.22,122.64,426.11,126.68,426.11,132.11z"/>
			<path class="st0" d="M475.44,160.1V85.91h14.22v74.18L475.44,160.1L475.44,160.1z"/>
			<path class="st0" d="M532.76,142.99l14.17,2.38c-1.82,5.2-4.7,9.15-8.63,11.87c-3.93,2.71-8.85,4.07-14.75,4.07
				c-9.34,0-16.26-3.05-20.75-9.16c-3.54-4.89-5.31-11.06-5.31-18.52c0-8.9,2.33-15.88,6.98-20.92c4.66-5.04,10.54-7.56,17.66-7.56
				c8,0,14.3,2.64,18.92,7.92s6.83,13.37,6.63,24.26h-35.62c0.1,4.22,1.25,7.5,3.44,9.84c2.19,2.35,4.93,3.52,8.2,3.52
				c2.23,0,4.1-0.61,5.62-1.82C530.84,147.64,531.97,145.69,532.76,142.99z M533.57,128.63c-0.1-4.12-1.16-7.24-3.19-9.39
				c-2.02-2.14-4.49-3.21-7.39-3.21c-3.1,0-5.67,1.13-7.69,3.39s-3.02,5.33-2.99,9.21H533.57z"/>
			<path class="st0" d="M582.98,160.1V85.91h24.04c9.11,0,15.05,0.37,17.81,1.11c4.25,1.11,7.81,3.53,10.68,7.26s4.3,8.54,4.3,14.45
				c0,4.55-0.83,8.38-2.48,11.49c-1.65,3.1-3.75,5.54-6.3,7.31c-2.55,1.77-5.14,2.95-7.77,3.52c-3.58,0.71-8.75,1.06-15.54,1.06
				h-9.77v27.98L582.98,160.1L582.98,160.1z M597.97,98.46v21.05h8.2c5.9,0,9.85-0.39,11.84-1.16c1.99-0.78,3.55-1.99,4.68-3.64
				s1.7-3.58,1.7-5.77c0-2.7-0.79-4.93-2.38-6.68s-3.59-2.85-6.02-3.29c-1.79-0.34-5.38-0.51-10.78-0.51H597.97z"/>
			<path class="st0" d="M649.41,160.1V85.91h14.22v74.18L649.41,160.1L649.41,160.1z"/>
			<path class="st0" d="M686.24,122.75l-12.9-2.33c1.45-5.19,3.95-9.04,7.49-11.54s8.8-3.74,15.79-3.74
				c6.34,0,11.06,0.75,14.17,2.25c3.1,1.5,5.29,3.41,6.55,5.72s1.9,6.55,1.9,12.73l-0.15,16.6c0,4.72,0.23,8.21,0.68,10.45
				c0.46,2.24,1.31,4.65,2.56,7.21h-14.07c-0.37-0.95-0.83-2.35-1.37-4.2c-0.24-0.84-0.41-1.4-0.51-1.67
				c-2.43,2.36-5.03,4.13-7.79,5.31c-2.77,1.18-5.72,1.77-8.86,1.77c-5.53,0-9.89-1.5-13.08-4.5s-4.78-6.8-4.78-11.39
				c0-3.04,0.72-5.74,2.18-8.12c1.45-2.38,3.48-4.2,6.1-5.46c2.61-1.27,6.38-2.37,11.31-3.31c6.65-1.25,11.25-2.41,13.81-3.49v-1.42
				c0-2.73-0.67-4.68-2.02-5.85c-1.35-1.16-3.9-1.75-7.64-1.75c-2.53,0-4.5,0.5-5.92,1.49C688.27,118.5,687.13,120.25,686.24,122.75
				z M705.28,134.28c-1.82,0.61-4.71,1.33-8.65,2.18c-3.95,0.84-6.53,1.67-7.74,2.48c-1.86,1.32-2.78,2.99-2.78,5.01
				c0,1.99,0.74,3.71,2.23,5.16c1.48,1.45,3.37,2.18,5.67,2.18c2.56,0,5.01-0.84,7.34-2.53c1.72-1.28,2.85-2.85,3.39-4.71
				c0.37-1.21,0.56-3.53,0.56-6.93v-2.84H705.28z"/>
			<path class="st0" d="M723.93,106.35h15.13l12.85,38.15l12.55-38.15h14.72l-18.98,51.71l-3.39,9.36
				c-1.25,3.14-2.44,5.53-3.57,7.19c-1.13,1.65-2.43,2.99-3.9,4.02s-3.27,1.83-5.41,2.4c-2.14,0.57-4.56,0.86-7.26,0.86
				c-2.73,0-5.42-0.29-8.05-0.86l-1.27-11.13c2.23,0.44,4.23,0.66,6.02,0.66c3.31,0,5.75-0.97,7.34-2.91
				c1.58-1.94,2.8-4.41,3.64-7.41L723.93,106.35z"/>
		</g>
		<g>
			<g>
				<path class="st0" d="M212.69,61.53V17.26h15.25c3.44,0,6.07,0.21,7.88,0.63c2.54,0.58,4.7,1.64,6.49,3.17
					c2.33,1.97,4.08,4.5,5.24,7.56c1.16,3.07,1.74,6.58,1.74,10.52c0,3.36-0.39,6.34-1.18,8.94s-1.79,4.75-3.02,6.45
					c-1.23,1.7-2.57,3.04-4.03,4.02c-1.46,0.98-3.22,1.72-5.28,2.22s-4.43,0.75-7.11,0.75L212.69,61.53L212.69,61.53z M218.55,56.3
					H228c2.92,0,5.21-0.27,6.87-0.82c1.66-0.54,2.98-1.31,3.97-2.29c1.39-1.39,2.47-3.26,3.25-5.6c0.78-2.35,1.16-5.19,1.16-8.53
					c0-4.63-0.76-8.19-2.28-10.67c-1.52-2.48-3.37-4.15-5.54-5c-1.57-0.6-4.1-0.91-7.58-0.91h-9.3V56.3z"/>
				<path class="st0" d="M258.66,23.51v-6.25h5.43v6.25H258.66z M258.66,61.53V29.46h5.43v32.07H258.66z"/>
				<path class="st0" d="M272.18,51.95l5.38-0.85c0.3,2.15,1.14,3.8,2.52,4.95s3.31,1.72,5.78,1.72c2.5,0,4.35-0.51,5.56-1.53
					s1.81-2.21,1.81-3.58c0-1.23-0.53-2.19-1.6-2.9c-0.75-0.48-2.6-1.1-5.56-1.84c-3.99-1.01-6.75-1.88-8.29-2.61
					c-1.54-0.74-2.71-1.75-3.5-3.05s-1.19-2.73-1.19-4.3c0-1.43,0.33-2.75,0.98-3.97c0.65-1.22,1.54-2.23,2.67-3.04
					c0.85-0.62,2-1.15,3.46-1.58s3.02-0.65,4.7-0.65c2.52,0,4.72,0.36,6.63,1.09c1.9,0.73,3.31,1.71,4.21,2.94
					c0.9,1.23,1.53,2.89,1.87,4.97l-5.31,0.72c-0.24-1.65-0.94-2.94-2.1-3.87s-2.79-1.39-4.91-1.39c-2.5,0-4.28,0.41-5.35,1.24
					c-1.07,0.83-1.6,1.79-1.6,2.9c0,0.71,0.22,1.34,0.66,1.9c0.44,0.58,1.14,1.07,2.08,1.45c0.54,0.2,2.14,0.66,4.8,1.39
					c3.84,1.03,6.53,1.87,8.05,2.52c1.52,0.66,2.71,1.61,3.58,2.85c0.87,1.25,1.3,2.8,1.3,4.65c0,1.81-0.53,3.52-1.58,5.12
					c-1.06,1.6-2.58,2.84-4.58,3.71c-1.99,0.88-4.25,1.31-6.76,1.31c-4.17,0-7.34-0.87-9.53-2.6
					C274.18,57.92,272.78,55.36,272.18,51.95z"/>
				<path class="st0" d="M307.25,73.82V29.46h4.95v4.17c1.17-1.63,2.49-2.85,3.96-3.67s3.25-1.22,5.34-1.22
					c2.74,0,5.15,0.71,7.25,2.11s3.67,3.4,4.74,5.96c1.07,2.57,1.6,5.38,1.6,8.44c0,3.28-0.59,6.24-1.77,8.86s-2.89,4.64-5.13,6.04
					c-2.25,1.4-4.61,2.1-7.08,2.1c-1.81,0-3.44-0.38-4.88-1.15c-1.44-0.76-2.62-1.73-3.55-2.9v15.61h-5.43V73.82z M312.17,45.67
					c0,4.13,0.84,7.18,2.51,9.15s3.69,2.96,6.07,2.96c2.42,0,4.48-1.02,6.21-3.07c1.72-2.04,2.58-5.21,2.58-9.5
					c0-4.09-0.84-7.15-2.52-9.18c-1.68-2.03-3.69-3.05-6.02-3.05c-2.32,0-4.36,1.08-6.15,3.25
					C313.06,38.4,312.17,41.55,312.17,45.67z"/>
				<path class="st0" d="M341.6,45.49c0-5.94,1.65-10.34,4.95-13.2c2.76-2.38,6.12-3.56,10.08-3.56c4.41,0,8.01,1.45,10.81,4.33
					c2.8,2.89,4.2,6.88,4.2,11.97c0,4.13-0.62,7.37-1.86,9.74s-3.04,4.2-5.41,5.51s-4.95,1.96-7.75,1.96
					c-4.49,0-8.12-1.44-10.89-4.32C342.99,55.05,341.6,50.91,341.6,45.49z M347.19,45.49c0,4.11,0.9,7.18,2.69,9.22
					s4.05,3.07,6.76,3.07c2.7,0,4.94-1.03,6.73-3.08c1.79-2.05,2.69-5.18,2.69-9.39c0-3.97-0.9-6.97-2.7-9.01
					c-1.8-2.04-4.04-3.06-6.72-3.06c-2.72,0-4.97,1.02-6.76,3.05C348.08,38.32,347.19,41.38,347.19,45.49z"/>
				<path class="st0" d="M380,61.53V29.46h4.89v4.56c2.36-3.52,5.76-5.29,10.21-5.29c1.93,0,3.71,0.35,5.33,1.04
					c1.62,0.69,2.83,1.61,3.64,2.73c0.8,1.13,1.37,2.47,1.69,4.02c0.2,1.01,0.3,2.77,0.3,5.28v19.72h-5.44v-19.5
					c0-2.21-0.21-3.87-0.63-4.97c-0.42-1.1-1.17-1.97-2.25-2.63c-1.08-0.66-2.34-0.98-3.79-0.98c-2.31,0-4.31,0.74-5.99,2.2
					c-1.68,1.47-2.52,4.26-2.52,8.37v17.51H380V61.53z"/>
				<path class="st0" d="M416.4,23.51v-6.25h5.43v6.25H416.4z M416.4,61.53V29.46h5.43v32.07H416.4z"/>
				<path class="st0" d="M437.1,61.53h-5.04V17.26h5.44v15.79c2.29-2.88,5.22-4.32,8.79-4.32c1.97,0,3.84,0.4,5.6,1.19
					s3.21,1.91,4.35,3.35c1.14,1.44,2.03,3.18,2.67,5.21s0.97,4.21,0.97,6.52c0,5.5-1.36,9.74-4.08,12.74s-5.98,4.5-9.79,4.5
					c-3.78,0-6.75-1.58-8.91-4.74L437.1,61.53L437.1,61.53z M437.04,45.25c0,3.85,0.52,6.62,1.57,8.33c1.71,2.8,4.03,4.2,6.95,4.2
					c2.38,0,4.43-1.03,6.16-3.1c1.73-2.06,2.6-5.14,2.6-9.22c0-4.19-0.83-7.28-2.49-9.27s-3.67-2.99-6.02-2.99
					c-2.38,0-4.43,1.03-6.16,3.09S437.04,41.34,437.04,45.25z"/>
				<path class="st0" d="M468.34,61.53V17.26h5.44v44.27H468.34z"/>
				<path class="st0" d="M506.14,51.2l5.62,0.69c-0.89,3.28-2.53,5.83-4.92,7.64s-5.46,2.72-9.18,2.72c-4.69,0-8.41-1.44-11.16-4.33
					s-4.12-6.94-4.12-12.15c0-5.39,1.39-9.58,4.17-12.56s6.38-4.47,10.81-4.47c4.29,0,7.79,1.46,10.51,4.38s4.08,7.03,4.08,12.32
					c0,0.32-0.01,0.81-0.03,1.45H488c0.2,3.52,1.2,6.22,2.99,8.09s4.03,2.81,6.7,2.81c1.99,0,3.69-0.52,5.1-1.57
					C504.19,55.16,505.31,53.49,506.14,51.2z M488.29,42.41h17.91c-0.24-2.7-0.93-4.72-2.05-6.07c-1.73-2.09-3.98-3.14-6.73-3.14
					c-2.5,0-4.6,0.83-6.3,2.51C489.42,37.39,488.47,39.61,488.29,42.41z"/>
				<path class="st0" d="M561.66,51.2l5.62,0.69c-0.89,3.28-2.53,5.83-4.92,7.64c-2.4,1.81-5.46,2.72-9.18,2.72
					c-4.69,0-8.41-1.44-11.16-4.33s-4.12-6.94-4.12-12.15c0-5.39,1.39-9.58,4.17-12.56s6.38-4.47,10.81-4.47
					c4.29,0,7.79,1.46,10.51,4.38c2.72,2.92,4.08,7.03,4.08,12.32c0,0.32-0.01,0.81-0.03,1.45h-23.92c0.2,3.52,1.2,6.22,2.99,8.09
					s4.03,2.81,6.7,2.81c1.99,0,3.69-0.52,5.1-1.57C559.72,55.16,560.84,53.49,561.66,51.2z M543.82,42.41h17.91
					c-0.24-2.7-0.93-4.72-2.05-6.07c-1.73-2.09-3.98-3.14-6.73-3.14c-2.5,0-4.59,0.83-6.29,2.51
					C544.93,37.38,543.99,39.61,543.82,42.41z"/>
				<path class="st0" d="M576.09,61.53V29.46h4.89v4.56c2.36-3.52,5.76-5.29,10.21-5.29c1.93,0,3.71,0.35,5.33,1.04
					c1.62,0.69,2.83,1.61,3.64,2.73c0.8,1.13,1.37,2.47,1.69,4.02c0.2,1.01,0.3,2.77,0.3,5.28v19.72h-5.44v-19.5
					c0-2.21-0.21-3.87-0.63-4.97c-0.42-1.1-1.17-1.97-2.25-2.63c-1.08-0.65-2.34-0.98-3.79-0.98c-2.31,0-4.31,0.74-5.99,2.2
					c-1.68,1.47-2.52,4.26-2.52,8.37v17.51h-5.44V61.53z"/>
			</g>
		</g>
	</g>
</g>
</svg>
