<?xml version="1.0" encoding="utf-8"?>
<!-- Generator: Adobe Illustrator 25.2.0, SVG Export Plug-In . SVG Version: 6.00 Build 0)  -->
<svg version="1.1" id="Capa_1" xmlns="http://www.w3.org/2000/svg" xmlns:xlink="http://www.w3.org/1999/xlink" x="0px" y="0px"
	 width="677.48px" height="200px" viewBox="0 0 677.48 200" style="enable-background:new 0 0 677.48 200;" xml:space="preserve">
<style type="text/css">
	.st0{enable-background:new    ;}
	.st1{fill:#FFFFFF;}
</style>
<g>
	<g>
		<g class="st0">
			<path class="st1" d="M237.3,153.7h-16.29l-6.48-16.85h-29.65l-6.12,16.85h-15.89l28.89-74.18h15.84L237.3,153.7z M209.72,124.36
				L199.5,96.83l-10.02,27.53H209.72z"/>
			<path class="st1" d="M244.74,99.96H258v7.89c1.72-2.7,4.05-4.89,6.98-6.58c2.93-1.69,6.19-2.53,9.77-2.53
				c6.24,0,11.54,2.45,15.89,7.34c4.35,4.89,6.53,11.71,6.53,20.44c0,8.97-2.19,15.95-6.58,20.92c-4.39,4.98-9.7,7.46-15.94,7.46
				c-2.97,0-5.66-0.59-8.07-1.77s-4.95-3.2-7.62-6.07v27.07h-14.22L244.74,99.96L244.74,99.96z M258.81,125.93
				c0,6.04,1.2,10.5,3.59,13.38s5.31,4.33,8.75,4.33c3.31,0,6.05-1.32,8.25-3.97c2.19-2.65,3.29-6.99,3.29-13.03
				c0-5.63-1.13-9.82-3.39-12.55s-5.06-4.1-8.4-4.1c-3.48,0-6.36,1.34-8.65,4.02C259.95,116.68,258.81,120.67,258.81,125.93z"/>
			<path class="st1" d="M308.05,99.96h13.26v7.89c1.72-2.7,4.05-4.89,6.98-6.58c2.93-1.69,6.19-2.53,9.77-2.53
				c6.24,0,11.54,2.45,15.89,7.34c4.35,4.89,6.53,11.71,6.53,20.44c0,8.97-2.19,15.95-6.58,20.92c-4.39,4.98-9.7,7.46-15.94,7.46
				c-2.97,0-5.66-0.59-8.07-1.77s-4.95-3.2-7.62-6.07v27.07h-14.22L308.05,99.96L308.05,99.96z M322.11,125.93
				c0,6.04,1.2,10.5,3.59,13.38s5.31,4.33,8.75,4.33c3.31,0,6.05-1.32,8.25-3.97c2.19-2.65,3.29-6.99,3.29-13.03
				c0-5.63-1.13-9.82-3.39-12.55s-5.06-4.1-8.4-4.1c-3.48,0-6.36,1.34-8.65,4.02S322.11,120.67,322.11,125.93z"/>
			<path class="st1" d="M396.85,129.57l14.57-1.42c0.88,4.89,2.66,8.48,5.34,10.78c2.68,2.29,6.3,3.44,10.85,3.44
				c4.82,0,8.46-1.02,10.91-3.06s3.67-4.43,3.67-7.16c0-1.75-0.51-3.25-1.54-4.48c-1.03-1.23-2.83-2.3-5.39-3.21
				c-1.75-0.61-5.75-1.69-11.99-3.24c-8.03-1.99-13.66-4.44-16.9-7.34c-4.55-4.08-6.83-9.06-6.83-14.93c0-3.78,1.07-7.31,3.21-10.6
				c2.14-3.29,5.23-5.79,9.26-7.51s8.9-2.58,14.6-2.58c9.31,0,16.32,2.04,21.03,6.12s7.18,9.53,7.41,16.34l-14.98,0.67
				c-0.64-3.81-2.02-6.55-4.12-8.22s-5.27-2.5-9.49-2.5c-4.35,0-7.76,0.89-10.22,2.68c-1.59,1.15-2.38,2.68-2.38,4.6
				c0,1.75,0.74,3.26,2.23,4.5c1.89,1.59,6.48,3.24,13.76,4.96c7.29,1.72,12.68,3.5,16.17,5.34s6.22,4.35,8.2,7.54
				c1.97,3.19,2.96,7.13,2.96,11.82c0,4.25-1.18,8.23-3.54,11.94s-5.7,6.47-10.02,8.27c-4.32,1.8-9.7,2.71-16.14,2.71
				c-9.38,0-16.58-2.17-21.61-6.5C400.83,144.18,397.83,137.86,396.85,129.57z"/>
			<path class="st1" d="M494.31,99.96v11.33h-9.72v21.66c0,4.39,0.09,6.94,0.28,7.67s0.61,1.32,1.27,1.8
				c0.66,0.47,1.46,0.71,2.4,0.71c1.32,0,3.22-0.46,5.72-1.37l1.21,11.03c-3.31,1.42-7.05,2.13-11.23,2.13
				c-2.56,0-4.88-0.43-6.93-1.29s-3.57-1.97-4.53-3.34s-1.63-3.21-2-5.54c-0.3-1.65-0.46-4.99-0.46-10.02v-23.44h-6.53V99.96h6.53
				V89.28l14.27-8.3v18.98C484.59,99.96,494.31,99.96,494.31,99.96z"/>
			<path class="st1" d="M500.89,126.07c0-4.72,1.16-9.29,3.49-13.71s5.63-7.79,9.89-10.12c4.27-2.33,9.03-3.49,14.29-3.49
				c8.13,0,14.79,2.64,19.99,7.92s7.79,11.95,7.79,20.01c0,8.13-2.62,14.87-7.87,20.22c-5.25,5.35-11.85,8.02-19.81,8.02
				c-4.93,0-9.62-1.11-14.09-3.34c-4.47-2.23-7.87-5.49-10.2-9.79C502.06,137.48,500.89,132.24,500.89,126.07z M515.47,126.83
				c0,5.33,1.26,9.41,3.79,12.25s5.65,4.25,9.36,4.25s6.82-1.42,9.34-4.25c2.51-2.83,3.77-6.95,3.77-12.35
				c0-5.26-1.26-9.31-3.77-12.14s-5.63-4.25-9.34-4.25s-6.83,1.42-9.36,4.25S515.47,121.5,515.47,126.83z"/>
			<path class="st1" d="M581.1,153.7h-14.22V99.96h13.21v7.64c2.26-3.61,4.29-5.99,6.1-7.13c1.8-1.15,3.85-1.72,6.15-1.72
				c3.24,0,6.36,0.89,9.36,2.68l-4.4,12.4c-2.4-1.55-4.62-2.33-6.68-2.33c-1.99,0-3.68,0.55-5.06,1.64
				c-1.38,1.1-2.47,3.08-3.26,5.95c-0.79,2.87-1.19,8.87-1.19,18.01v16.6H581.1z"/>
			<path class="st1" d="M638.94,136.6l14.17,2.38c-1.82,5.2-4.7,9.15-8.63,11.87s-8.85,4.07-14.75,4.07
				c-9.34,0-16.26-3.05-20.75-9.16c-3.54-4.89-5.31-11.07-5.31-18.52c0-8.91,2.33-15.88,6.98-20.92c4.66-5.04,10.54-7.57,17.66-7.57
				c8,0,14.3,2.64,18.92,7.92s6.83,13.37,6.63,24.26h-35.62c0.1,4.22,1.25,7.5,3.44,9.84s4.93,3.52,8.2,3.52
				c2.23,0,4.1-0.61,5.62-1.82C637.01,141.25,638.16,139.3,638.94,136.6z M639.75,122.24c-0.1-4.12-1.16-7.24-3.19-9.39
				c-2.02-2.14-4.49-3.21-7.39-3.21c-3.1,0-5.67,1.13-7.69,3.39s-3.02,5.33-2.99,9.21H639.75z"/>
		</g>
		<g>
			<g class="st0">
				<path class="st1" d="M167.65,61.54V17.27h15.25c3.44,0,6.07,0.21,7.88,0.63c2.54,0.58,4.7,1.64,6.49,3.17
					c2.33,1.97,4.08,4.5,5.24,7.56c1.16,3.07,1.74,6.58,1.74,10.52c0,3.36-0.39,6.34-1.18,8.94s-1.79,4.75-3.02,6.45
					c-1.23,1.7-2.57,3.04-4.03,4.02c-1.46,0.98-3.22,1.72-5.29,2.22s-4.43,0.75-7.11,0.75L167.65,61.54L167.65,61.54z M173.51,56.31
					h9.45c2.92,0,5.21-0.27,6.87-0.82c1.66-0.54,2.98-1.31,3.97-2.29c1.39-1.39,2.47-3.26,3.25-5.6c0.77-2.35,1.16-5.19,1.16-8.53
					c0-4.63-0.76-8.19-2.28-10.67c-1.52-2.49-3.37-4.15-5.54-5c-1.57-0.6-4.1-0.91-7.58-0.91h-9.3V56.31z"/>
				<path class="st1" d="M213.63,23.52v-6.25h5.44v6.25H213.63z M213.63,61.54V29.47h5.44v32.07H213.63z"/>
				<path class="st1" d="M227.14,51.96l5.38-0.85c0.3,2.15,1.14,3.8,2.52,4.95s3.31,1.72,5.78,1.72c2.5,0,4.35-0.51,5.56-1.53
					s1.81-2.21,1.81-3.58c0-1.23-0.53-2.19-1.6-2.9c-0.75-0.48-2.6-1.1-5.56-1.84c-3.99-1.01-6.75-1.88-8.29-2.61
					c-1.54-0.74-2.71-1.75-3.5-3.05s-1.19-2.73-1.19-4.3c0-1.43,0.33-2.75,0.98-3.97c0.65-1.22,1.54-2.23,2.67-3.04
					c0.85-0.62,2-1.15,3.46-1.58s3.02-0.65,4.7-0.65c2.52,0,4.73,0.36,6.63,1.09c1.9,0.73,3.31,1.71,4.21,2.94
					c0.9,1.23,1.53,2.89,1.87,4.97l-5.31,0.72c-0.24-1.65-0.94-2.94-2.1-3.87s-2.79-1.39-4.91-1.39c-2.5,0-4.28,0.41-5.34,1.24
					c-1.07,0.83-1.6,1.79-1.6,2.9c0,0.71,0.22,1.34,0.67,1.9c0.44,0.58,1.14,1.07,2.08,1.45c0.54,0.2,2.14,0.66,4.8,1.39
					c3.84,1.03,6.53,1.87,8.05,2.52c1.52,0.66,2.71,1.61,3.58,2.85c0.87,1.25,1.3,2.8,1.3,4.65c0,1.81-0.53,3.52-1.58,5.12
					c-1.06,1.6-2.58,2.84-4.58,3.71s-4.25,1.31-6.76,1.31c-4.17,0-7.34-0.87-9.53-2.6C229.14,57.93,227.75,55.37,227.14,51.96z"/>
				<path class="st1" d="M262.22,73.83V29.47h4.95v4.17c1.17-1.63,2.49-2.85,3.96-3.67s3.25-1.22,5.35-1.22
					c2.74,0,5.15,0.71,7.25,2.11c2.09,1.41,3.67,3.4,4.74,5.96c1.07,2.57,1.6,5.38,1.6,8.44c0,3.28-0.59,6.24-1.77,8.86
					s-2.89,4.64-5.13,6.04c-2.25,1.4-4.61,2.1-7.08,2.1c-1.81,0-3.44-0.38-4.88-1.15c-1.44-0.76-2.62-1.73-3.55-2.9v15.61h-5.44
					V73.83z M267.14,45.68c0,4.13,0.83,7.18,2.51,9.15c1.67,1.97,3.69,2.96,6.07,2.96c2.42,0,4.48-1.02,6.21-3.07
					c1.72-2.04,2.58-5.21,2.58-9.5c0-4.09-0.84-7.15-2.52-9.18s-3.69-3.05-6.02-3.05c-2.32,0-4.36,1.08-6.15,3.25
					C268.03,38.41,267.14,41.56,267.14,45.68z"/>
				<path class="st1" d="M296.57,45.5c0-5.94,1.65-10.34,4.95-13.2c2.76-2.38,6.12-3.56,10.09-3.56c4.41,0,8.01,1.45,10.81,4.33
					c2.8,2.89,4.2,6.88,4.2,11.97c0,4.13-0.62,7.37-1.86,9.74c-1.24,2.37-3.04,4.2-5.41,5.51s-4.95,1.96-7.75,1.96
					c-4.49,0-8.12-1.44-10.89-4.32C297.95,55.06,296.57,50.92,296.57,45.5z M302.15,45.5c0,4.11,0.9,7.18,2.69,9.22
					s4.05,3.07,6.76,3.07c2.7,0,4.94-1.03,6.73-3.08s2.69-5.18,2.69-9.39c0-3.97-0.9-6.97-2.7-9.01c-1.8-2.04-4.04-3.06-6.72-3.06
					c-2.72,0-4.97,1.02-6.76,3.05C303.05,38.34,302.15,41.39,302.15,45.5z"/>
				<path class="st1" d="M334.96,61.54V29.47h4.89v4.56c2.36-3.52,5.76-5.29,10.21-5.29c1.93,0,3.71,0.35,5.33,1.04
					s2.83,1.61,3.64,2.73c0.8,1.13,1.37,2.47,1.69,4.02c0.2,1.01,0.3,2.77,0.3,5.28v19.72h-5.43v-19.5c0-2.21-0.21-3.87-0.63-4.97
					c-0.42-1.1-1.17-1.97-2.25-2.63c-1.08-0.65-2.34-0.98-3.79-0.98c-2.32,0-4.31,0.74-5.99,2.2c-1.68,1.47-2.52,4.26-2.52,8.37
					v17.51h-5.45V61.54z"/>
				<path class="st1" d="M371.37,23.52v-6.25h5.44v6.25H371.37z M371.37,61.54V29.47h5.44v32.07H371.37z"/>
				<path class="st1" d="M392.07,61.54h-5.04V17.27h5.44v15.79c2.29-2.88,5.22-4.32,8.79-4.32c1.97,0,3.84,0.4,5.6,1.19
					s3.21,1.91,4.35,3.35c1.14,1.44,2.03,3.18,2.67,5.21s0.97,4.21,0.97,6.52c0,5.5-1.36,9.74-4.08,12.74s-5.98,4.5-9.78,4.5
					c-3.78,0-6.75-1.58-8.91-4.74v4.03H392.07z M392.01,45.26c0,3.85,0.52,6.62,1.57,8.33c1.71,2.8,4.03,4.2,6.95,4.2
					c2.38,0,4.43-1.03,6.16-3.1c1.73-2.06,2.6-5.14,2.6-9.22c0-4.19-0.83-7.28-2.49-9.27s-3.67-2.99-6.02-2.99
					c-2.38,0-4.43,1.03-6.16,3.09S392.01,41.35,392.01,45.26z"/>
				<path class="st1" d="M423.31,61.54V17.27h5.44v44.27H423.31z"/>
				<path class="st1" d="M461.1,51.21l5.62,0.69c-0.89,3.28-2.53,5.83-4.92,7.64c-2.4,1.81-5.46,2.72-9.18,2.72
					c-4.69,0-8.41-1.44-11.16-4.33s-4.12-6.94-4.12-12.15c0-5.39,1.39-9.58,4.17-12.56s6.38-4.47,10.81-4.47
					c4.29,0,7.79,1.46,10.51,4.38s4.08,7.03,4.08,12.32c0,0.32-0.01,0.81-0.03,1.45h-23.92c0.2,3.52,1.2,6.22,2.99,8.09
					s4.03,2.81,6.7,2.81c1.99,0,3.69-0.52,5.1-1.57S460.27,53.5,461.1,51.21z M443.25,42.42h17.91c-0.24-2.7-0.93-4.72-2.05-6.07
					c-1.73-2.09-3.98-3.14-6.73-3.14c-2.5,0-4.59,0.83-6.3,2.51C444.37,37.4,443.44,39.62,443.25,42.42z"/>
				<path class="st1" d="M516.63,51.21l5.62,0.69c-0.89,3.28-2.53,5.83-4.92,7.64c-2.4,1.81-5.46,2.72-9.18,2.72
					c-4.69,0-8.41-1.44-11.16-4.33s-4.12-6.94-4.12-12.15c0-5.39,1.39-9.58,4.17-12.56s6.38-4.47,10.81-4.47
					c4.29,0,7.79,1.46,10.51,4.38s4.08,7.03,4.08,12.32c0,0.32-0.01,0.81-0.03,1.45h-23.92c0.2,3.52,1.2,6.22,2.99,8.09
					s4.03,2.81,6.7,2.81c1.99,0,3.69-0.52,5.1-1.57S515.81,53.5,516.63,51.21z M498.79,42.42h17.91c-0.24-2.7-0.93-4.72-2.05-6.07
					c-1.73-2.09-3.98-3.14-6.73-3.14c-2.5,0-4.59,0.83-6.3,2.51C499.91,37.4,498.97,39.62,498.79,42.42z"/>
				<path class="st1" d="M531.05,61.54V29.47h4.89v4.56c2.36-3.52,5.76-5.29,10.21-5.29c1.93,0,3.71,0.35,5.33,1.04
					s2.83,1.61,3.64,2.73c0.8,1.13,1.37,2.47,1.69,4.02c0.2,1.01,0.3,2.77,0.3,5.28v19.72h-5.44v-19.5c0-2.21-0.21-3.87-0.63-4.97
					c-0.42-1.1-1.17-1.97-2.25-2.63c-1.08-0.66-2.34-0.98-3.79-0.98c-2.31,0-4.31,0.74-5.99,2.2c-1.68,1.47-2.52,4.26-2.52,8.37
					v17.51h-5.44V61.54z"/>
			</g>
		</g>
	</g>
	<path class="st1" d="M96.02,9.26h-59.5c-7.13,0-12.91,5.78-12.92,12.91l0,0V154c0,7.13,5.78,12.92,12.91,12.92h59.5
		c7.13,0,12.92-5.78,12.92-12.92V22.18C108.93,15.04,103.15,9.26,96.02,9.26z M66.26,157.44c-4.75,0-8.6-3.85-8.6-8.6
		s3.85-8.6,8.6-8.6s8.6,3.85,8.6,8.6S71.01,157.44,66.26,157.44L66.26,157.44z M98.79,136.05H33.74V38.81h65.05V136.05z"/>
</g>
</svg>
