<?xml version="1.0" encoding="utf-8"?>
<!-- Generator: Adobe Illustrator 25.0.0, SVG Export Plug-In . SVG Version: 6.00 Build 0)  -->
<svg version="1.1" id="Capa_1" xmlns="http://www.w3.org/2000/svg" xmlns:xlink="http://www.w3.org/1999/xlink" x="0px" y="0px"
	 width="765px" height="181.14px" viewBox="0 0 765 181.14" style="enable-background:new 0 0 765 181.14;" xml:space="preserve">
<style type="text/css">
	.st0{fill:#FFFFFF;}
	.st1{enable-background:new    ;}
</style>
<g>
	<path class="st0" d="M89.78,83.73l20.94-19.75l-93.13-51.2c-1.31-0.71-2.77-1.1-4.26-1.15L89.78,83.73z"/>
	<path class="st0" d="M4.19,16.67c-0.82,1.46-1.25,3.1-1.25,4.76V159.7c0,1.67,0.43,3.31,1.25,4.77l78.34-73.9L4.19,16.67z"/>
	<path class="st0" d="M143.34,81.9l-23.45-12.89L97.03,90.57l22.86,21.56l23.45-12.9c4.79-2.63,6.53-8.65,3.9-13.44
		C146.34,84.16,144.98,82.8,143.34,81.9z"/>
	<path class="st0" d="M89.78,97.41l-76.44,72.11c1.49-0.05,2.95-0.45,4.26-1.15l93.13-51.2L89.78,97.41z"/>
	<g class="st1">
		<path class="st0" d="M226.53,114.85v-12.5h32.28v29.55c-3.14,3.04-7.68,5.71-13.64,8.02c-5.95,2.31-11.98,3.47-18.09,3.47
			c-7.76,0-14.52-1.63-20.29-4.88c-5.77-3.25-10.1-7.91-13-13.97c-2.9-6.05-4.35-12.64-4.35-19.76c0-7.73,1.62-14.59,4.86-20.6
			c3.24-6,7.98-10.61,14.22-13.81c4.76-2.46,10.68-3.69,17.76-3.69c9.21,0,16.4,1.93,21.58,5.79c5.18,3.86,8.51,9.2,9.99,16.02
			l-14.88,2.78c-1.05-3.64-3.01-6.52-5.9-8.63c-2.88-2.11-6.49-3.16-10.8-3.16c-6.55,0-11.75,2.07-15.61,6.22
			c-3.86,4.15-5.79,10.31-5.79,18.47c0,8.8,1.96,15.41,5.87,19.81c3.91,4.4,9.04,6.6,15.38,6.6c3.14,0,6.28-0.62,9.44-1.85
			c3.15-1.23,5.86-2.72,8.12-4.48v-9.41H226.53z"/>
		<path class="st0" d="M267.27,114.49c0-4.72,1.16-9.29,3.49-13.71c2.33-4.42,5.62-7.79,9.89-10.12c4.27-2.33,9.03-3.49,14.29-3.49
			c8.13,0,14.79,2.64,19.99,7.92c5.19,5.28,7.79,11.95,7.79,20.01c0,8.13-2.62,14.87-7.87,20.22c-5.25,5.35-11.85,8.02-19.81,8.02
			c-4.93,0-9.62-1.11-14.09-3.34c-4.47-2.23-7.87-5.49-10.2-9.79C268.44,125.9,267.27,120.67,267.27,114.49z M281.85,115.25
			c0,5.33,1.27,9.41,3.8,12.25c2.53,2.83,5.65,4.25,9.36,4.25c3.71,0,6.82-1.42,9.34-4.25c2.51-2.83,3.77-6.95,3.77-12.35
			c0-5.26-1.26-9.31-3.77-12.14c-2.51-2.83-5.63-4.25-9.34-4.25c-3.71,0-6.83,1.42-9.36,4.25
			C283.11,105.84,281.85,109.92,281.85,115.25z"/>
		<path class="st0" d="M328.61,114.49c0-4.72,1.16-9.29,3.49-13.71c2.33-4.42,5.62-7.79,9.89-10.12c4.27-2.33,9.03-3.49,14.29-3.49
			c8.13,0,14.79,2.64,19.99,7.92c5.19,5.28,7.79,11.95,7.79,20.01c0,8.13-2.62,14.87-7.87,20.22c-5.25,5.35-11.85,8.02-19.81,8.02
			c-4.93,0-9.62-1.11-14.09-3.34c-4.47-2.23-7.87-5.49-10.2-9.79C329.77,125.9,328.61,120.67,328.61,114.49z M343.18,115.25
			c0,5.33,1.27,9.41,3.8,12.25c2.53,2.83,5.65,4.25,9.36,4.25c3.71,0,6.82-1.42,9.34-4.25c2.51-2.83,3.77-6.95,3.77-12.35
			c0-5.26-1.26-9.31-3.77-12.14c-2.51-2.83-5.63-4.25-9.34-4.25c-3.71,0-6.83,1.42-9.36,4.25
			C344.45,105.84,343.18,109.92,343.18,115.25z"/>
		<path class="st0" d="M391.92,145.67l16.24,1.97c0.27,1.89,0.89,3.19,1.87,3.9c1.35,1.01,3.47,1.52,6.38,1.52
			c3.71,0,6.49-0.56,8.35-1.67c1.25-0.74,2.19-1.94,2.83-3.59c0.44-1.18,0.66-3.36,0.66-6.53v-7.84c-4.25,5.8-9.62,8.7-16.09,8.7
			c-7.22,0-12.94-3.05-17.15-9.16c-3.31-4.82-4.96-10.83-4.96-18.01c0-9.01,2.17-15.89,6.5-20.65c4.33-4.76,9.72-7.13,16.17-7.13
			c6.65,0,12.13,2.92,16.45,8.75v-7.54h13.31v48.22c0,6.34-0.52,11.08-1.57,14.22c-1.05,3.14-2.51,5.6-4.4,7.39
			c-1.89,1.79-4.41,3.19-7.57,4.2c-3.15,1.01-7.14,1.52-11.97,1.52c-9.11,0-15.57-1.56-19.38-4.68s-5.72-7.08-5.72-11.87
			C391.87,146.91,391.88,146.34,391.92,145.67z M404.62,114.14c0,5.7,1.1,9.88,3.31,12.52c2.21,2.65,4.93,3.97,8.17,3.97
			c3.47,0,6.41-1.36,8.81-4.07c2.39-2.71,3.59-6.74,3.59-12.07c0-5.57-1.15-9.7-3.44-12.4c-2.29-2.7-5.2-4.05-8.7-4.05
			c-3.41,0-6.22,1.32-8.43,3.97C405.72,104.67,404.62,108.71,404.62,114.14z"/>
		<path class="st0" d="M454.57,142.12V67.94h14.22v74.18H454.57z"/>
		<path class="st0" d="M512.51,125.02l14.17,2.38c-1.82,5.2-4.7,9.15-8.63,11.87c-3.93,2.72-8.85,4.07-14.75,4.07
			c-9.34,0-16.26-3.05-20.75-9.16c-3.54-4.89-5.31-11.07-5.31-18.52c0-8.91,2.33-15.88,6.98-20.92c4.66-5.04,10.54-7.57,17.66-7.57
			c8,0,14.3,2.64,18.92,7.92s6.83,13.37,6.63,24.26h-35.62c0.1,4.22,1.25,7.5,3.44,9.84s4.93,3.52,8.2,3.52
			c2.23,0,4.1-0.61,5.62-1.82C510.59,129.67,511.74,127.72,512.51,125.02z M513.32,110.65c-0.1-4.12-1.16-7.24-3.19-9.39
			c-2.02-2.14-4.49-3.21-7.39-3.21c-3.1,0-5.67,1.13-7.69,3.39c-2.02,2.26-3.02,5.33-2.99,9.21H513.32z"/>
		<path class="st0" d="M563.99,142.12V67.94h24.04c9.11,0,15.05,0.37,17.81,1.11c4.25,1.11,7.81,3.53,10.68,7.26
			c2.87,3.73,4.3,8.54,4.3,14.45c0,4.55-0.83,8.38-2.48,11.49c-1.65,3.1-3.75,5.54-6.3,7.31c-2.55,1.77-5.14,2.94-7.77,3.52
			c-3.58,0.71-8.75,1.06-15.54,1.06h-9.77v27.98H563.99z M578.96,80.49v21.05h8.2c5.9,0,9.85-0.39,11.84-1.16s3.55-1.99,4.68-3.64
			c1.13-1.65,1.7-3.58,1.7-5.77c0-2.7-0.79-4.93-2.38-6.68c-1.59-1.75-3.59-2.85-6.02-3.29c-1.79-0.34-5.38-0.51-10.78-0.51H578.96z
			"/>
		<path class="st0" d="M631.04,142.12V67.94h14.22v74.18H631.04z"/>
		<path class="st0" d="M668.49,104.78l-12.9-2.33c1.45-5.19,3.95-9.04,7.49-11.54c3.54-2.5,8.8-3.75,15.79-3.75
			c6.34,0,11.06,0.75,14.17,2.25c3.1,1.5,5.29,3.41,6.55,5.72c1.26,2.31,1.9,6.55,1.9,12.73l-0.15,16.6c0,4.72,0.23,8.21,0.68,10.45
			c0.46,2.24,1.31,4.65,2.56,7.21H690.5c-0.37-0.94-0.83-2.34-1.37-4.2c-0.24-0.84-0.41-1.4-0.51-1.67
			c-2.43,2.36-5.03,4.13-7.79,5.31c-2.77,1.18-5.72,1.77-8.86,1.77c-5.53,0-9.89-1.5-13.08-4.5c-3.19-3-4.78-6.8-4.78-11.39
			c0-3.04,0.72-5.74,2.18-8.12c1.45-2.38,3.48-4.2,6.1-5.46c2.61-1.27,6.38-2.37,11.31-3.31c6.65-1.25,11.25-2.41,13.81-3.49v-1.42
			c0-2.73-0.67-4.68-2.02-5.84c-1.35-1.16-3.9-1.75-7.64-1.75c-2.53,0-4.5,0.5-5.92,1.49S669.37,102.28,668.49,104.78z
			 M687.52,116.32c-1.82,0.61-4.71,1.33-8.65,2.18c-3.95,0.84-6.53,1.67-7.74,2.48c-1.86,1.32-2.78,2.99-2.78,5.01
			c0,1.99,0.74,3.71,2.23,5.16c1.48,1.45,3.37,2.18,5.67,2.18c2.56,0,5.01-0.84,7.34-2.53c1.72-1.28,2.85-2.85,3.39-4.71
			c0.37-1.21,0.56-3.53,0.56-6.93V116.32z"/>
		<path class="st0" d="M706.8,88.38h15.13l12.85,38.15l12.55-38.15h14.73l-18.98,51.72l-3.39,9.36c-1.25,3.14-2.44,5.53-3.57,7.19
			c-1.13,1.65-2.43,2.99-3.9,4.02c-1.47,1.03-3.27,1.83-5.41,2.4c-2.14,0.57-4.56,0.86-7.26,0.86c-2.73,0-5.41-0.29-8.05-0.86
			l-1.26-11.13c2.23,0.44,4.23,0.66,6.02,0.66c3.31,0,5.75-0.97,7.34-2.91c1.58-1.94,2.8-4.41,3.64-7.41L706.8,88.38z"/>
	</g>
	<g class="st1">
		<path class="st0" d="M184.41,43.56l13.95-36.33h5.18l14.87,36.33h-5.48l-4.24-11H193.5l-3.99,11H184.41z M194.89,28.64h12.32
			l-3.79-10.06c-1.16-3.06-2.02-5.57-2.58-7.53c-0.46,2.33-1.12,4.64-1.96,6.94L194.89,28.64z"/>
		<path class="st0" d="M223.9,43.56L209.82,7.23h5.2l9.44,26.39c0.76,2.11,1.4,4.1,1.91,5.95c0.56-1.98,1.21-3.96,1.96-5.95
			l9.81-26.39h4.91l-14.23,36.33H223.9z"/>
	</g>
	<g class="st1">
		<path class="st0" d="M242.04,43.56L256,7.23h5.18l14.87,36.33h-5.48l-4.24-11h-15.19l-3.99,11H242.04z M252.53,28.64h12.32
			l-3.79-10.06c-1.16-3.06-2.02-5.57-2.58-7.53c-0.46,2.33-1.12,4.64-1.96,6.94L252.53,28.64z"/>
		<path class="st0" d="M279.74,43.56V7.23h4.81v36.33H279.74z"/>
		<path class="st0" d="M291.86,43.56V7.23h4.81v32.04h17.89v4.29H291.86z"/>
		<path class="st0" d="M315.33,43.56l13.95-36.33h5.18l14.87,36.33h-5.48l-4.24-11h-15.19l-3.99,11H315.33z M325.82,28.64h12.32
			l-3.79-10.06c-1.16-3.06-2.02-5.57-2.58-7.53c-0.46,2.33-1.12,4.64-1.96,6.94L325.82,28.64z"/>
		<path class="st0" d="M352.01,43.56V7.23h13.63c2.78,0,5,0.37,6.68,1.1c1.68,0.74,2.99,1.87,3.94,3.4s1.42,3.13,1.42,4.79
			c0,1.55-0.42,3.02-1.26,4.39s-2.12,2.48-3.82,3.32c2.2,0.64,3.89,1.74,5.07,3.3c1.18,1.55,1.77,3.39,1.77,5.5
			c0,1.7-0.36,3.28-1.08,4.75c-0.72,1.46-1.61,2.59-2.66,3.38c-1.06,0.79-2.38,1.39-3.98,1.8c-1.59,0.41-3.55,0.61-5.86,0.61H352.01
			z M356.82,22.49h7.86c2.13,0,3.66-0.14,4.58-0.42c1.22-0.36,2.14-0.97,2.76-1.81s0.93-1.9,0.93-3.17c0-1.21-0.29-2.27-0.87-3.18
			c-0.58-0.92-1.4-1.54-2.48-1.88c-1.07-0.34-2.92-0.51-5.53-0.51h-7.26V22.49z M356.82,39.27h9.05c1.55,0,2.64-0.06,3.27-0.17
			c1.11-0.2,2.03-0.53,2.78-0.99c0.74-0.46,1.35-1.14,1.83-2.02s0.72-1.9,0.72-3.06c0-1.35-0.35-2.53-1.04-3.53
			c-0.69-1-1.66-1.7-2.89-2.11c-1.23-0.4-3-0.61-5.32-0.61h-8.4V39.27z"/>
		<path class="st0" d="M384.9,43.56V7.23h4.81v32.04h17.89v4.29H384.9z"/>
		<path class="st0" d="M412.46,43.56V7.23h26.27v4.29h-21.46v11.13h20.1v4.26h-20.1v12.37h22.3v4.29H412.46z"/>
		<path class="st0" d="M456.93,25.86c0-6.03,1.62-10.75,4.86-14.16c3.24-3.41,7.42-5.12,12.54-5.12c3.35,0,6.38,0.8,9.07,2.4
			c2.69,1.6,4.75,3.84,6.16,6.7c1.41,2.87,2.12,6.12,2.12,9.75c0,3.68-0.74,6.98-2.23,9.89c-1.49,2.91-3.59,5.11-6.32,6.6
			c-2.73,1.5-5.67,2.24-8.82,2.24c-3.42,0-6.48-0.83-9.17-2.48c-2.69-1.65-4.73-3.91-6.12-6.77S456.93,29.05,456.93,25.86z
			 M461.88,25.94c0,4.38,1.18,7.83,3.53,10.35s5.31,3.78,8.86,3.78c3.62,0,6.6-1.27,8.93-3.82c2.34-2.54,3.51-6.15,3.51-10.83
			c0-2.96-0.5-5.54-1.5-7.75c-1-2.21-2.46-3.92-4.39-5.13c-1.92-1.21-4.09-1.82-6.48-1.82c-3.4,0-6.33,1.17-8.79,3.51
			C463.11,16.57,461.88,20.47,461.88,25.94z"/>
		<path class="st0" d="M496.86,43.56V7.23h4.93l19.08,28.52V7.23h4.61v36.33h-4.93l-19.08-28.55v28.55H496.86z"/>
	</g>
</g>
</svg>
