<?xml version="1.0" encoding="utf-8"?>
<!-- Generator: Adobe Illustrator 25.0.0, SVG Export Plug-In . SVG Version: 6.00 Build 0)  -->
<svg version="1.1" id="Capa_1" xmlns="http://www.w3.org/2000/svg" xmlns:xlink="http://www.w3.org/1999/xlink" x="0px" y="0px"
	 width="634.42px" height="184.25px" viewBox="0 0 634.42 184.25" style="enable-background:new 0 0 634.42 184.25;"
	 xml:space="preserve">
<style type="text/css">
	.st0{enable-background:new    ;}
	.st1{fill:#FFFFFF;}
</style>
<g>
	<g class="st0">
		<path class="st1" d="M213.7,145.24h-16.29l-6.48-16.85h-29.65l-6.12,16.85h-15.89l28.89-74.18H184L213.7,145.24z M186.12,115.89
			L175.9,88.36l-10.02,27.53H186.12z"/>
		<path class="st1" d="M221.14,91.5h13.26v7.89c1.72-2.7,4.05-4.89,6.98-6.58c2.94-1.69,6.19-2.53,9.77-2.53
			c6.24,0,11.54,2.45,15.89,7.34c4.35,4.89,6.53,11.71,6.53,20.44c0,8.97-2.19,15.95-6.58,20.92c-4.39,4.98-9.7,7.46-15.94,7.46
			c-2.97,0-5.66-0.59-8.07-1.77c-2.41-1.18-4.95-3.2-7.62-6.07v27.07h-14.22V91.5z M235.21,117.45c0,6.04,1.2,10.5,3.59,13.38
			c2.4,2.88,5.31,4.33,8.75,4.33c3.31,0,6.05-1.32,8.25-3.97c2.19-2.65,3.29-6.99,3.29-13.03c0-5.63-1.13-9.82-3.39-12.55
			c-2.26-2.73-5.06-4.1-8.4-4.1c-3.48,0-6.36,1.34-8.65,4.02C236.35,108.22,235.21,112.19,235.21,117.45z"/>
		<path class="st1" d="M284.45,91.5h13.26v7.89c1.72-2.7,4.05-4.89,6.98-6.58c2.94-1.69,6.19-2.53,9.77-2.53
			c6.24,0,11.54,2.45,15.89,7.34c4.35,4.89,6.53,11.71,6.53,20.44c0,8.97-2.19,15.95-6.58,20.92c-4.39,4.98-9.7,7.46-15.94,7.46
			c-2.97,0-5.66-0.59-8.07-1.77c-2.41-1.18-4.95-3.2-7.62-6.07v27.07h-14.22V91.5z M298.51,117.45c0,6.04,1.2,10.5,3.59,13.38
			c2.4,2.88,5.31,4.33,8.75,4.33c3.31,0,6.05-1.32,8.25-3.97c2.19-2.65,3.29-6.99,3.29-13.03c0-5.63-1.13-9.82-3.39-12.55
			c-2.26-2.73-5.06-4.1-8.4-4.1c-3.48,0-6.36,1.34-8.65,4.02C299.66,108.22,298.51,112.19,298.51,117.45z"/>
		<path class="st1" d="M373.25,121.1l14.57-1.42c0.88,4.89,2.66,8.48,5.34,10.78c2.68,2.29,6.3,3.44,10.85,3.44
			c4.82,0,8.46-1.02,10.91-3.06c2.45-2.04,3.67-4.43,3.67-7.16c0-1.75-0.51-3.25-1.54-4.48s-2.83-2.3-5.39-3.21
			c-1.75-0.61-5.75-1.69-11.99-3.24c-8.03-1.99-13.66-4.44-16.9-7.34c-4.55-4.08-6.83-9.06-6.83-14.93c0-3.78,1.07-7.31,3.21-10.6
			c2.14-3.29,5.23-5.79,9.26-7.51c4.03-1.72,8.9-2.58,14.6-2.58c9.31,0,16.32,2.04,21.03,6.12c4.71,4.08,7.18,9.53,7.41,16.34
			l-14.98,0.66c-0.64-3.81-2.02-6.55-4.12-8.22s-5.27-2.5-9.49-2.5c-4.35,0-7.76,0.89-10.22,2.68c-1.59,1.15-2.38,2.68-2.38,4.6
			c0,1.75,0.74,3.26,2.23,4.5c1.89,1.59,6.48,3.24,13.76,4.96c7.29,1.72,12.68,3.5,16.17,5.34s6.22,4.35,8.2,7.54
			c1.97,3.19,2.96,7.13,2.96,11.82c0,4.25-1.18,8.23-3.54,11.94s-5.7,6.47-10.02,8.27c-4.32,1.8-9.7,2.71-16.14,2.71
			c-9.38,0-16.58-2.17-21.61-6.5C377.23,135.71,374.23,129.4,373.25,121.1z"/>
		<path class="st1" d="M470.71,91.5v11.33H461v21.66c0,4.39,0.09,6.94,0.28,7.67c0.19,0.73,0.61,1.32,1.27,1.8
			c0.66,0.47,1.46,0.71,2.4,0.71c1.32,0,3.22-0.46,5.72-1.37l1.21,11.03c-3.31,1.42-7.05,2.13-11.23,2.13
			c-2.56,0-4.88-0.43-6.93-1.29s-3.57-1.97-4.53-3.34c-0.96-1.37-1.63-3.21-2-5.54c-0.3-1.65-0.46-4.99-0.46-10.02v-23.43h-6.53
			V91.5h6.53V80.82l14.27-8.3V91.5H470.71z"/>
		<path class="st1" d="M477.29,117.61c0-4.72,1.16-9.29,3.49-13.71c2.33-4.42,5.62-7.79,9.89-10.12c4.27-2.33,9.03-3.49,14.29-3.49
			c8.13,0,14.79,2.64,19.99,7.92s7.79,11.95,7.79,20.01c0,8.13-2.62,14.87-7.87,20.22c-5.25,5.35-11.85,8.02-19.81,8.02
			c-4.93,0-9.62-1.11-14.09-3.34c-4.47-2.23-7.87-5.49-10.2-9.79C478.46,129.02,477.29,123.78,477.29,117.61z M491.87,118.37
			c0,5.33,1.26,9.41,3.79,12.25s5.65,4.25,9.36,4.25s6.82-1.42,9.34-4.25c2.51-2.83,3.77-6.95,3.77-12.35
			c0-5.26-1.26-9.31-3.77-12.14c-2.51-2.83-5.63-4.25-9.34-4.25s-6.83,1.42-9.36,4.25S491.87,113.04,491.87,118.37z"/>
		<path class="st1" d="M557.5,145.24h-14.22V91.5h13.21v7.64c2.26-3.61,4.29-5.99,6.1-7.13c1.8-1.15,3.85-1.72,6.15-1.72
			c3.24,0,6.36,0.89,9.36,2.68l-4.4,12.4c-2.4-1.55-4.62-2.33-6.68-2.33c-1.99,0-3.68,0.55-5.06,1.64c-1.38,1.1-2.47,3.08-3.26,5.95
			c-0.79,2.87-1.19,8.87-1.19,18.01V145.24z"/>
		<path class="st1" d="M615.34,128.13l14.17,2.38c-1.82,5.2-4.7,9.15-8.63,11.87c-3.93,2.72-8.85,4.07-14.75,4.07
			c-9.34,0-16.26-3.05-20.75-9.16c-3.54-4.89-5.31-11.07-5.31-18.52c0-8.91,2.33-15.88,6.98-20.92c4.66-5.04,10.54-7.57,17.66-7.57
			c8,0,14.3,2.64,18.92,7.92s6.83,13.37,6.63,24.26h-35.62c0.1,4.22,1.25,7.5,3.44,9.84s4.93,3.52,8.2,3.52
			c2.23,0,4.1-0.61,5.62-1.82C613.42,132.79,614.56,130.83,615.34,128.13z M616.15,113.76c-0.1-4.12-1.16-7.24-3.19-9.39
			c-2.02-2.14-4.49-3.21-7.39-3.21c-3.1,0-5.67,1.13-7.69,3.39c-2.02,2.26-3.02,5.33-2.99,9.21H616.15z"/>
	</g>
	<g class="st0">
		<path class="st1" d="M139.19,53.07l17-44.27h6.31l18.12,44.27h-6.67l-5.16-13.41h-18.51l-4.86,13.41H139.19z M151.97,34.89h15.01
			l-4.62-12.26c-1.41-3.72-2.46-6.78-3.14-9.18c-0.56,2.84-1.36,5.66-2.39,8.46L151.97,34.89z"/>
	</g>
	<g class="st0">
		<path class="st1" d="M195.49,53.07L183.29,21h5.74l6.88,19.21c0.74,2.07,1.43,4.23,2.05,6.46c0.48-1.69,1.16-3.72,2.02-6.1
			L207.12,21h5.59l-12.14,32.07H195.49z"/>
		<path class="st1" d="M241.4,49.12c-2.01,1.71-3.95,2.92-5.81,3.62c-1.86,0.7-3.86,1.06-5.99,1.06c-3.52,0-6.23-0.86-8.12-2.58
			c-1.89-1.72-2.84-3.92-2.84-6.6c0-1.57,0.36-3,1.07-4.3c0.71-1.3,1.65-2.34,2.81-3.13s2.46-1.38,3.91-1.78
			c1.07-0.28,2.68-0.55,4.83-0.82c4.39-0.52,7.62-1.15,9.69-1.87c0.02-0.74,0.03-1.22,0.03-1.42c0-2.21-0.51-3.78-1.54-4.68
			c-1.39-1.23-3.45-1.84-6.19-1.84c-2.56,0-4.44,0.45-5.66,1.34c-1.22,0.9-2.12,2.48-2.7,4.76l-5.31-0.72
			c0.48-2.28,1.28-4.11,2.39-5.51c1.11-1.4,2.71-2.48,4.8-3.23s4.52-1.13,7.28-1.13c2.74,0,4.96,0.32,6.67,0.97
			c1.71,0.64,2.97,1.45,3.77,2.43c0.8,0.98,1.37,2.21,1.69,3.7c0.18,0.93,0.27,2.6,0.27,5.01v7.25c0,5.05,0.12,8.25,0.35,9.59
			c0.23,1.34,0.69,2.62,1.37,3.85h-5.68C241.92,51.94,241.56,50.63,241.4,49.12z M240.95,36.98c-1.97,0.81-4.93,1.49-8.88,2.05
			c-2.23,0.32-3.82,0.68-4.74,1.09c-0.93,0.4-1.64,0.99-2.14,1.77c-0.5,0.77-0.75,1.64-0.75,2.58c0,1.45,0.55,2.66,1.65,3.62
			c1.1,0.97,2.7,1.45,4.82,1.45c2.09,0,3.96-0.46,5.59-1.37c1.63-0.92,2.83-2.17,3.59-3.76c0.58-1.23,0.88-3.04,0.88-5.44V36.98z"/>
		<path class="st1" d="M257.87,15.05V8.8h5.44v6.25H257.87z M257.87,53.07V21h5.44v32.07H257.87z"/>
		<path class="st1" d="M274.42,53.07V8.8h5.44v44.27H274.42z"/>
		<path class="st1" d="M312.18,49.12c-2.01,1.71-3.95,2.92-5.81,3.62c-1.86,0.7-3.86,1.06-5.99,1.06c-3.52,0-6.23-0.86-8.12-2.58
			c-1.89-1.72-2.84-3.92-2.84-6.6c0-1.57,0.36-3,1.07-4.3c0.71-1.3,1.65-2.34,2.81-3.13s2.46-1.38,3.91-1.78
			c1.07-0.28,2.68-0.55,4.83-0.82c4.39-0.52,7.62-1.15,9.69-1.87c0.02-0.74,0.03-1.22,0.03-1.42c0-2.21-0.51-3.78-1.54-4.68
			c-1.39-1.23-3.45-1.84-6.19-1.84c-2.56,0-4.44,0.45-5.66,1.34c-1.22,0.9-2.12,2.48-2.7,4.76l-5.31-0.72
			c0.48-2.28,1.28-4.11,2.39-5.51c1.11-1.4,2.71-2.48,4.8-3.23s4.52-1.13,7.28-1.13c2.74,0,4.96,0.32,6.67,0.97
			c1.71,0.64,2.97,1.45,3.77,2.43c0.8,0.98,1.37,2.21,1.69,3.7c0.18,0.93,0.27,2.6,0.27,5.01v7.25c0,5.05,0.12,8.25,0.35,9.59
			c0.23,1.34,0.69,2.62,1.37,3.85h-5.68C312.7,51.94,312.34,50.63,312.18,49.12z M311.73,36.98c-1.97,0.81-4.93,1.49-8.88,2.05
			c-2.23,0.32-3.82,0.68-4.74,1.09c-0.93,0.4-1.64,0.99-2.14,1.77c-0.5,0.77-0.75,1.64-0.75,2.58c0,1.45,0.55,2.66,1.65,3.62
			c1.1,0.97,2.7,1.45,4.82,1.45c2.09,0,3.96-0.46,5.59-1.37c1.63-0.92,2.83-2.17,3.59-3.76c0.58-1.23,0.88-3.04,0.88-5.44V36.98z"/>
		<path class="st1" d="M333.63,53.07h-5.04V8.8h5.44V24.6c2.29-2.88,5.22-4.32,8.79-4.32c1.97,0,3.84,0.4,5.6,1.19
			c1.76,0.79,3.21,1.91,4.35,3.35c1.14,1.44,2.03,3.18,2.67,5.21c0.64,2.03,0.97,4.21,0.97,6.52c0,5.5-1.36,9.74-4.08,12.74
			s-5.98,4.5-9.78,4.5c-3.78,0-6.75-1.58-8.91-4.74V53.07z M333.57,36.8c0,3.85,0.52,6.62,1.57,8.33c1.71,2.8,4.03,4.2,6.95,4.2
			c2.38,0,4.43-1.03,6.16-3.1c1.73-2.06,2.6-5.14,2.6-9.22c0-4.19-0.83-7.28-2.49-9.27s-3.67-2.99-6.02-2.99
			c-2.38,0-4.43,1.03-6.16,3.09S333.57,32.89,333.57,36.8z"/>
		<path class="st1" d="M365.86,53.07V8.8h5.44v44.27H365.86z"/>
		<path class="st1" d="M404.64,42.74l5.62,0.69c-0.89,3.28-2.53,5.83-4.92,7.64c-2.4,1.81-5.46,2.72-9.18,2.72
			c-4.69,0-8.41-1.44-11.16-4.33s-4.12-6.94-4.12-12.15c0-5.39,1.39-9.58,4.17-12.56c2.78-2.98,6.38-4.47,10.81-4.47
			c4.29,0,7.79,1.46,10.51,4.38s4.08,7.03,4.08,12.32c0,0.32-0.01,0.81-0.03,1.45h-23.92c0.2,3.52,1.2,6.22,2.99,8.09
			s4.03,2.81,6.7,2.81c1.99,0,3.69-0.52,5.1-1.57S403.81,45.04,404.64,42.74z M386.79,33.96h17.91c-0.24-2.7-0.93-4.72-2.05-6.07
			c-1.73-2.09-3.98-3.14-6.73-3.14c-2.5,0-4.59,0.83-6.3,2.51S386.97,31.16,386.79,33.96z"/>
		<path class="st1" d="M438.17,37.04c0-5.94,1.65-10.34,4.95-13.2c2.76-2.38,6.12-3.56,10.08-3.56c4.41,0,8.01,1.45,10.81,4.33
			c2.8,2.89,4.2,6.88,4.2,11.97c0,4.13-0.62,7.37-1.86,9.74c-1.24,2.37-3.04,4.2-5.41,5.51c-2.37,1.31-4.95,1.96-7.75,1.96
			c-4.49,0-8.12-1.44-10.89-4.32C439.56,46.6,438.17,42.45,438.17,37.04z M443.76,37.04c0,4.11,0.9,7.18,2.69,9.22
			c1.79,2.04,4.05,3.07,6.76,3.07c2.7,0,4.94-1.03,6.73-3.08c1.79-2.05,2.69-5.18,2.69-9.39c0-3.97-0.9-6.97-2.7-9.01
			c-1.8-2.04-4.04-3.06-6.72-3.06c-2.72,0-4.97,1.02-6.76,3.05C444.66,29.86,443.76,32.93,443.76,37.04z"/>
		<path class="st1" d="M477.56,53.07V21h4.89v4.56c2.36-3.52,5.76-5.29,10.21-5.29c1.93,0,3.71,0.35,5.33,1.04
			c1.62,0.69,2.83,1.61,3.64,2.73c0.8,1.13,1.37,2.47,1.69,4.02c0.2,1.01,0.3,2.77,0.3,5.28v19.72h-5.44V33.56
			c0-2.21-0.21-3.87-0.63-4.97c-0.42-1.1-1.17-1.97-2.25-2.63s-2.34-0.98-3.79-0.98c-2.31,0-4.31,0.74-5.99,2.2
			c-1.68,1.47-2.52,4.26-2.52,8.37v17.51H477.56z"/>
		<path class="st1" d="M546.94,48.21l0.79,4.8c-1.53,0.32-2.9,0.48-4.11,0.48c-1.97,0-3.5-0.31-4.59-0.94
			c-1.09-0.62-1.85-1.44-2.29-2.46c-0.44-1.02-0.66-3.16-0.66-6.42V25.23h-3.99V21h3.99v-7.94l5.41-3.26V21h5.47v4.23h-5.47v18.75
			c0,1.55,0.1,2.55,0.29,2.99c0.19,0.44,0.5,0.79,0.94,1.06s1.05,0.39,1.86,0.39C545.16,48.42,545.96,48.35,546.94,48.21z"/>
		<path class="st1" d="M555.22,53.07V8.8h5.44v15.88c2.54-2.94,5.74-4.41,9.6-4.41c2.38,0,4.44,0.47,6.19,1.4
			c1.75,0.94,3,2.23,3.76,3.88c0.75,1.65,1.13,4.05,1.13,7.19v20.32h-5.44V32.75c0-2.72-0.59-4.7-1.77-5.93s-2.84-1.86-5-1.86
			c-1.61,0-3.12,0.42-4.54,1.25c-1.42,0.84-2.43,1.97-3.04,3.4c-0.6,1.43-0.91,3.4-0.91,5.92v17.54H555.22z"/>
		<path class="st1" d="M614.54,42.74l5.62,0.69c-0.89,3.28-2.53,5.83-4.92,7.64s-5.46,2.72-9.18,2.72c-4.69,0-8.41-1.44-11.16-4.33
			s-4.12-6.94-4.12-12.15c0-5.39,1.39-9.58,4.17-12.56s6.38-4.47,10.81-4.47c4.29,0,7.79,1.46,10.51,4.38s4.08,7.03,4.08,12.32
			c0,0.32-0.01,0.81-0.03,1.45h-23.92c0.2,3.52,1.2,6.22,2.99,8.09s4.03,2.81,6.7,2.81c1.99,0,3.69-0.52,5.1-1.57
			C612.6,46.71,613.71,45.04,614.54,42.74z M596.69,33.96h17.91c-0.24-2.7-0.93-4.72-2.05-6.07c-1.73-2.09-3.98-3.14-6.73-3.14
			c-2.5,0-4.6,0.83-6.3,2.51C597.82,28.92,596.88,31.16,596.69,33.96z"/>
	</g>
	<path class="st1" d="M72.42,0.68h-59.5C5.78,0.68,0,6.46,0,13.59l0,0v131.83c0,7.13,5.78,12.92,12.91,12.92h59.5
		c7.13,0,12.92-5.78,12.92-12.92V13.59C85.33,6.46,79.55,0.68,72.42,0.68z M42.67,148.86c-4.75,0-8.6-3.85-8.6-8.6s3.85-8.6,8.6-8.6
		s8.6,3.85,8.6,8.6S47.41,148.86,42.67,148.86L42.67,148.86z M75.19,127.47H10.14V30.23h65.05V127.47z"/>
</g>
</svg>
