<svg id="Layer_1" data-name="Layer 1" xmlns="http://www.w3.org/2000/svg" viewBox="0 0 512 512"><defs><style>.cls-1{fill:#fc8332;}.cls-2{fill:none;stroke:#fc8332;stroke-miterlimit:10;stroke-width:20px;}</style></defs><title>My-account_Orange</title><path class="cls-1" d="M256,25a235.067,235.067,0,0,1,91.466,451.541A235.066,235.066,0,0,1,164.534,43.459,233.509,233.509,0,0,1,256,25m0-20C115.167,5,1,119.167,1,260S115.167,515,256,515,511,400.833,511,260,396.833,5,256,5Z"/><path class="cls-1" d="M256,160.341A81.659,81.659,0,1,1,174.341,242,81.751,81.751,0,0,1,256,160.341m0-20A101.659,101.659,0,1,0,357.659,242,101.659,101.659,0,0,0,256,140.341Z"/><path class="cls-2" d="M99.887,450.753A156.468,156.468,0,0,1,190.472,308.8"/><path class="cls-2" d="M319.195,307.45a156.481,156.481,0,0,1,93.582,143.3"/></svg>