<svg id="Layer_1" data-name="Layer 1" xmlns="http://www.w3.org/2000/svg" viewBox="0 0 512 512"><defs><style>.cls-1{fill:#fff;}.cls-2{fill:none;stroke:#fff;stroke-miterlimit:10;stroke-width:20px;}</style></defs><title>My-Account</title><path class="cls-1" d="M256,21a235.067,235.067,0,0,1,91.466,451.541A235.066,235.066,0,0,1,164.533,39.459,233.51,233.51,0,0,1,256,21m0-20C115.167,1,1,115.167,1,256S115.167,511,256,511,511,396.833,511,256,396.833,1,256,1Z"/><path class="cls-1" d="M256,156.341A81.659,81.659,0,1,1,174.341,238,81.751,81.751,0,0,1,256,156.341m0-20A101.659,101.659,0,1,0,357.659,238,101.659,101.659,0,0,0,256,136.341Z"/><path class="cls-2" d="M99.887,446.753A156.468,156.468,0,0,1,190.472,304.8"/><path class="cls-2" d="M319.195,303.45a156.481,156.481,0,0,1,93.582,143.3"/></svg>