<svg id="Layer_1" data-name="Layer 1" xmlns="http://www.w3.org/2000/svg" viewBox="0 0 512 512"><defs><style>.cls-1{fill:none;stroke:#464648;stroke-linecap:round;stroke-linejoin:round;stroke-width:20px;}.cls-2{fill:#464648;}</style></defs><title>My-groups_Grey</title><circle class="cls-1" cx="256.015" cy="320.653" r="48.204"/><path class="cls-1" d="M236.669,399.006h38.693a75.952,75.952,0,0,1,75.952,75.952v24.823a1.565,1.565,0,0,1-1.565,1.565H162.281a1.565,1.565,0,0,1-1.565-1.565V474.959a75.953,75.953,0,0,1,75.953-75.953Z"/><circle class="cls-1" cx="388.408" cy="294.207" r="48.204"/><path class="cls-1" d="M308.091,403.354a75.971,75.971,0,0,1,60.97-30.795h38.693a76.176,76.176,0,0,1,75.952,75.952v24.823a1.569,1.569,0,0,1-1.565,1.565H353.459"/><circle class="cls-1" cx="123.592" cy="294.207" r="48.204"/><path class="cls-1" d="M157.46,474.9H29.858a1.569,1.569,0,0,1-1.565-1.565V448.512a76.176,76.176,0,0,1,75.953-75.953h38.693a75.976,75.976,0,0,1,61.132,31.013"/><path class="cls-1" d="M377.265,106.9c0,53.157-54.285,96.25-121.25,96.25a148.262,148.262,0,0,1-47.9-7.8c-3.851,2.8-43.018,29.968-43.018,29.968s6.628-45.276,7-48.944c-23.008-17.518-37.332-42.167-37.332-69.473,0-53.157,54.285-96.25,121.25-96.25S377.265,53.746,377.265,106.9Z"/><circle class="cls-2" cx="200.546" cy="105.603" r="12.384"/><circle class="cls-2" cx="256.015" cy="105.603" r="12.384"/><circle class="cls-2" cx="311.485" cy="105.603" r="12.384"/></svg>