<svg id="Layer_1" data-name="Layer 1" xmlns="http://www.w3.org/2000/svg" viewBox="0 0 512 512"><defs><style>.cls-1{fill:none;stroke:#fff;stroke-linecap:round;stroke-linejoin:round;stroke-width:20px;}.cls-2{fill:#fff;}</style></defs><title>My-Movements</title><polyline class="cls-1" points="110.115 271.638 289.557 92.119 333.72 135.404 441.713 25.095"/><polyline class="cls-1" points="395.799 13.404 453.749 13.404 453.749 72.879"/><path class="cls-1" d="M60.028,496.563v-95.3a18.355,18.355,0,0,1,18.3-18.3h45.752a18.355,18.355,0,0,1,18.3,18.3v95.3"/><path class="cls-1" d="M215.634,495.075V318.439a18.355,18.355,0,0,1,18.3-18.3h45.752a18.355,18.355,0,0,1,18.3,18.3V495.075"/><path class="cls-1" d="M372.5,496.465V175.454a18.355,18.355,0,0,1,18.3-18.3h45.752a18.355,18.355,0,0,1,18.3,18.3V496.465"/><line class="cls-1" x1="24.442" y1="498.596" x2="487.558" y2="498.596"/><circle class="cls-2" cx="80.108" cy="303.404" r="13.331"/></svg>