<svg id="Layer_1" data-name="Layer 1" xmlns="http://www.w3.org/2000/svg" viewBox="0 0 512 512"><defs><style>.cls-1{fill:none;stroke:#fc8332;stroke-linecap:round;stroke-linejoin:round;stroke-width:20px;}.cls-2{fill:#fc8332;}</style></defs><title>My-trips_Orange</title><line class="cls-1" x1="290.146" y1="255.57" x2="338.913" y2="205.721"/><path class="cls-1" d="M428.578,255.57l60.836-61.522a27.7,27.7,0,0,0-.429-39.061L449.15,116.018a38.656,38.656,0,0,1-55.259-54.059L354.057,22.99A27.7,27.7,0,0,0,315,23.419L153.212,188.794"/><path class="cls-1" d="M160.911,253.666,298.672,112.557a12.035,12.035,0,0,1,16.97-.186L401.9,196.754a12.035,12.035,0,0,1,.186,16.97L359.244,257"/><circle class="cls-2" cx="128.268" cy="212.61" r="10.799" transform="translate(-112.77 152.971) rotate(-45)"/><line class="cls-1" x1="159.82" y1="404.595" x2="356.82" y2="404.595"/><path class="cls-1" d="M464.231,381.928a38.66,38.66,0,0,1,38.089-38.652V287.551A27.7,27.7,0,0,0,474.7,259.928H41.942A27.7,27.7,0,0,0,14.32,287.551v55.711a38.667,38.667,0,1,1,0,77.333v55.711a27.7,27.7,0,0,0,27.622,27.622H474.7a27.7,27.7,0,0,0,27.622-27.622V420.581A38.66,38.66,0,0,1,464.231,381.928Z"/><rect class="cls-1" x="107.564" y="310.595" width="304" height="144.667" rx="12" ry="12"/></svg>