<svg id="Layer_1" data-name="Layer 1" xmlns="http://www.w3.org/2000/svg" viewBox="0 0 512 512"><defs><style>.cls-1{fill:none;stroke:#fff;stroke-linecap:round;stroke-linejoin:round;stroke-width:20px;}.cls-2{fill:#fff;}</style></defs><title>My-Trips</title><line class="cls-1" x1="292.146" y1="253.57" x2="340.913" y2="203.721"/><path class="cls-1" d="M430.578,253.57l60.836-61.522a27.7,27.7,0,0,0-.429-39.061L451.15,114.018a38.656,38.656,0,0,1-55.259-54.059L356.057,20.99A27.7,27.7,0,0,0,317,21.419L155.212,186.794"/><path class="cls-1" d="M162.911,251.666,300.672,110.557a12.035,12.035,0,0,1,16.97-.186L403.9,194.754a12.035,12.035,0,0,1,.186,16.97L361.244,255"/><circle class="cls-2" cx="130.268" cy="210.61" r="10.799" transform="translate(-110.77 153.8) rotate(-45)"/><line class="cls-1" x1="161.82" y1="402.595" x2="358.82" y2="402.595"/><path class="cls-1" d="M466.231,379.928a38.66,38.66,0,0,1,38.089-38.652V285.551A27.7,27.7,0,0,0,476.7,257.928H43.942A27.7,27.7,0,0,0,16.32,285.551v55.711a38.667,38.667,0,1,1,0,77.333v55.711a27.7,27.7,0,0,0,27.622,27.622H476.7a27.7,27.7,0,0,0,27.622-27.622V418.581A38.66,38.66,0,0,1,466.231,379.928Z"/><rect class="cls-1" x="109.564" y="308.595" width="304" height="144.667" rx="12" ry="12"/></svg>