<svg id="Layer_1" data-name="Layer 1" xmlns="http://www.w3.org/2000/svg" viewBox="0 0 512 512"><defs><style>.cls-1{fill:none;stroke:#464648;stroke-linecap:round;stroke-linejoin:round;stroke-width:20px;}.cls-2{fill:#464648;}</style></defs><title>Promotions_Grey</title><path class="cls-1" d="M204.482,174.28l87.493-87.493a13.859,13.859,0,0,1,19.542,0l113.7,113.7a13.859,13.859,0,0,1,0,19.542L220.026,425.213a13.859,13.859,0,0,1-19.542,0l-113.7-113.7a13.859,13.859,0,0,1,0-19.542l61.734-61.734"/><path class="cls-1" d="M142.612,450.308a61.261,61.261,0,0,1-80.936-80.884"/><path class="cls-1" d="M62.077,367,18.916,323.838a19.343,19.343,0,0,1,0-27.275L296.563,18.916a19.343,19.343,0,0,1,27.275,0l40.854,41.251,3.01-2.33a61.237,61.237,0,0,1,86.435,86.49l-2.278,2.006,41.225,41.829a19.343,19.343,0,0,1,0,27.275L215.437,493.084a19.343,19.343,0,0,1-27.275,0l-43.21-43.21"/><circle class="cls-1" cx="408.461" cy="103.539" r="25.997" transform="translate(46.422 319.151) rotate(-45)"/><line class="cls-1" x1="428.276" y1="83.724" x2="497.979" y2="14.021"/><circle class="cls-2" cx="175.546" cy="202.169" r="10.799" transform="translate(-91.539 183.344) rotate(-45)"/></svg>