<svg id="Layer_1" data-name="Layer 1" xmlns="http://www.w3.org/2000/svg" viewBox="0 0 512 512"><defs><style>.cls-1{fill:none;stroke:#464648;stroke-linecap:round;stroke-linejoin:round;stroke-width:20px;}.cls-2{fill:#464648;}</style></defs><title>Calendar</title><g id="Calendar"><line class="cls-1" x1="80.323" y1="14.976" x2="80.323" y2="82.976"/><line class="cls-1" x1="336.323" y1="14.976" x2="336.323" y2="82.976"/><path class="cls-1" d="M221.824,400.976H41.268a27.135,27.135,0,0,1-27.055-27.055V105.032A27.135,27.135,0,0,1,41.268,77.976h333a27.135,27.135,0,0,1,27.055,27.055V223.476"/><circle class="cls-1" cx="385.217" cy="384.454" r="112.57"/><polyline class="cls-1" points="367.323 336.976 367.323 400.976 435.323 400.976"/><rect class="cls-2" x="68.323" y="194.976" width="57" height="57"/><rect class="cls-2" x="68.323" y="291.976" width="57" height="57"/><rect class="cls-2" x="164.823" y="194.976" width="57" height="57"/><rect class="cls-2" x="164.823" y="291.976" width="57" height="57"/><rect class="cls-2" x="261.323" y="194.976" width="57" height="57"/><rect class="cls-2" x="18.323" y="77.976" width="375" height="81"/></g></svg>