<svg id="Layer_1" data-name="Layer 1" xmlns="http://www.w3.org/2000/svg" viewBox="0 0 512 512"><defs><style>.cls-1{fill:#ff5a5e;}</style></defs><title>Destination</title><path id="Destination" class="cls-1" d="M256,.442C154.056.442,71.415,83.083,71.415,185.027c0,28,9.122,60.827,23.323,94.679,38.72,92.306,124.724,196.042,152.189,227.916a11.328,11.328,0,0,0,17.187-.022c27.518-32.095,114.024-136.8,152.757-228.155,14.431-34.036,23.715-66.853,23.715-94.418C440.585,83.083,357.944.442,256,.442ZM255.505,278.8a94.261,94.261,0,1,1,94.261-94.261A94.261,94.261,0,0,1,255.505,278.8Z"/></svg>