<svg id="Isolation_Mode" data-name="Isolation Mode" xmlns="http://www.w3.org/2000/svg" xmlns:xlink="http://www.w3.org/1999/xlink" viewBox="0 0 512 512"><defs><style>.cls-1{fill:#f15a24;opacity:0.14;}.cls-2,.cls-3,.cls-4{opacity:0.67;}.cls-2{fill:url(#radial-gradient);}.cls-3{fill:url(#radial-gradient-2);}.cls-4{fill:url(#radial-gradient-3);}.cls-5{fill:url(#linear-gradient);}.cls-6{fill:#cd4927;opacity:0.2;}.cls-7{fill:#fff;}.cls-8{fill:#ff5a5e;}</style><radialGradient id="radial-gradient" cx="-1687.344" cy="1315.011" r="8.817" gradientTransform="translate(2062.546 -1244.078)" gradientUnits="userSpaceOnUse"><stop offset="0" stop-color="#f7931e"/><stop offset="1" stop-color="#f15a24"/></radialGradient><radialGradient id="radial-gradient-2" cx="1271.378" cy="-1795.2" r="8.817" gradientTransform="translate(-1402.961 -849.561) rotate(90)" xlink:href="#radial-gradient"/><radialGradient id="radial-gradient-3" cx="899.749" cy="-1692.944" r="12.33" gradientTransform="translate(-1635.643 -667.894) rotate(90)" xlink:href="#radial-gradient"/><linearGradient id="linear-gradient" x1="258.333" y1="120.816" x2="258.333" y2="425.828" gradientUnits="userSpaceOnUse"><stop offset="0" stop-color="#ffa736"/><stop offset="0.582" stop-color="#ff8f45"/><stop offset="0.984" stop-color="#ff8f45"/></linearGradient></defs><title>Happy-travelers</title><circle class="cls-1" cx="256" cy="256" r="256"/><circle class="cls-2" cx="375.008" cy="72.674" r="3.87" transform="translate(58.449 286.457) rotate(-45)"/><circle class="cls-3" cx="390.498" cy="421.624" r="3.87" transform="translate(-183.759 399.615) rotate(-45)"/><circle class="cls-4" cx="54.866" cy="231.584" r="5.412" transform="translate(-147.685 106.625) rotate(-45)"/><circle class="cls-5" cx="258.333" cy="258.167" r="161.299"/><path class="cls-6" d="M327.712,219.052h-42.79l-15.5,42.115-18.917-42.115H134.232a15.668,15.668,0,0,1-15.622-15.622V90.53a15.668,15.668,0,0,1,15.622-15.622H327.712A15.668,15.668,0,0,1,343.333,90.53v112.9A15.668,15.668,0,0,1,327.712,219.052Z"/><path class="cls-7" d="M258.333,426.167c-92.635,0-168-75.365-168-168s75.365-168,168-168,168,75.365,168,168S350.968,426.167,258.333,426.167Zm0-322.6c-85.246,0-154.6,69.352-154.6,154.6s69.352,154.6,154.6,154.6,154.6-69.352,154.6-154.6S343.58,103.568,258.333,103.568Z"/><circle class="cls-7" cx="257.426" cy="300.846" r="44.95"/><path class="cls-7" d="M266.333,417.167c-37.638,0-79.565-7.825-76.734-14.831,10.855-26.867,39.415-53.183,69.268-53.183,31.925,0,60.579,27,68.691,54.738C329.01,408.855,303.971,417.167,266.333,417.167Z"/><path class="cls-7" d="M312.006,202.9H274.538l-15.693,35.5-17.19-35.5H125.622A15.668,15.668,0,0,1,110,187.276V90.367a15.668,15.668,0,0,1,15.622-15.622H312.006a15.668,15.668,0,0,1,15.622,15.622v96.91A15.668,15.668,0,0,1,312.006,202.9Z"/><path class="cls-8" d="M251.156,112.516h0a20.256,20.256,0,0,0-30.391-.174l-3.652,5.1a1.281,1.281,0,0,1-1.912,0l-3.652-5.1a20.256,20.256,0,0,0-30.391.174h0c-4.26,4.89-7.023,12.413-4.947,22.623,4.045,19.886,38.279,41.569,38.279,41.569a1.95,1.95,0,0,0,2.724.013s35.17-23.2,38.889-41.581C258.168,124.927,255.416,117.406,251.156,112.516Z"/><path class="cls-6" d="M251.156,112.516h0c-11.294,51.024-50.769,54.35-41.283,61.059,2.82,1.994,4.617,3.132,4.617,3.132a1.95,1.95,0,0,0,2.724.013s35.17-23.2,38.889-41.581C258.168,124.927,255.416,117.406,251.156,112.516Z"/></svg>