<?xml version="1.0" encoding="utf-8"?>
<!-- Generator: Adobe Illustrator 25.2.0, SVG Export Plug-In . SVG Version: 6.00 Build 0)  -->
<svg version="1.1" id="Layer_1" xmlns="http://www.w3.org/2000/svg" xmlns:xlink="http://www.w3.org/1999/xlink" x="0px" y="0px"
	 width="909.3px" height="234px" viewBox="0 0 909.3 234" style="enable-background:new 0 0 909.3 234;" xml:space="preserve">
<style type="text/css">
	.st0{fill:#FFFFFF;}
	.st1{fill:#FF5C60;}
	.st2{fill:#FF8F45;}
	.st3{clip-path:url(#SVGID_6_);}
	.st4{fill:#464647;}
	.st5{opacity:0.14;fill:#EA5B27;enable-background:new    ;}
	.st6{fill:url(#SVGID_19_);}
	.st7{fill:#EE7A3C;}
	.st8{fill:#F8B356;}
	.st9{opacity:0.3;fill:#CC4A27;enable-background:new    ;}
	.st10{opacity:0.3;}
	.st11{fill:#CC4A27;}
	.st12{clip-path:url(#SVGID_21_);}
	.st13{fill:#FAC063;}
	.st14{opacity:0.47;fill:#EE7D4A;enable-background:new    ;}
	.st15{fill:url(#SVGID_22_);}
	.st16{fill:url(#SVGID_23_);}
	.st17{fill:url(#SVGID_24_);}
	.st18{fill:url(#SVGID_25_);}
	.st19{fill:url(#SVGID_26_);}
	.st20{opacity:0.14;enable-background:new    ;}
	.st21{fill:#EA5B27;}
	.st22{opacity:0.2;fill:#CC4A27;enable-background:new    ;}
	.st23{fill:url(#SVGID_27_);}
	.st24{opacity:0.6;fill:#CC4A27;enable-background:new    ;}
	.st25{fill:#FAC16B;}
	.st26{fill:#FCC86E;}
	.st27{fill:url(#SVGID_28_);}
	.st28{fill:url(#SVGID_29_);}
	.st29{opacity:0.3;fill:#CC481D;enable-background:new    ;}
	.st30{opacity:0.44;fill:#CC481D;enable-background:new    ;}
	.st31{fill:url(#SVGID_30_);}
	.st32{opacity:0.4;fill:#CC481D;enable-background:new    ;}
	.st33{fill:url(#SVGID_31_);}
	.st34{fill:#CC481D;}
	.st35{fill:#F18B4A;}
	.st36{clip-path:url(#SVGID_33_);}
	.st37{fill:#EBEBEB;}
	.st38{fill:none;stroke:#878787;stroke-width:0.25;stroke-miterlimit:10;}
	.st39{fill:#C5C5C5;}
	.st40{enable-background:new    ;}
	.st41{clip-path:url(#SVGID_35_);}
	.st42{clip-path:url(#SVGID_37_);fill:url(#SVGID_38_);}
	.st43{clip-path:url(#SVGID_37_);}
	.st44{opacity:0.7;fill:url(#SVGID_39_);}
	.st45{opacity:0.55;fill:url(#SVGID_40_);}
	.st46{opacity:0.4;fill:url(#SVGID_41_);}
	.st47{opacity:0.25;fill:url(#SVGID_42_);}
	.st48{opacity:0.85;fill:url(#SVGID_43_);}
	.st49{clip-path:url(#SVGID_37_);fill:url(#SVGID_44_);}
	.st50{opacity:0.14;fill:#F05A26;}
	.st51{fill:#F05E62;}
	.st52{display:none;fill:#FBB456;}
	.st53{display:none;fill:url(#SVGID_45_);}
	.st54{display:none;}
	.st55{display:inline;}
	.st56{fill:#FFC860;}
	.st57{fill:#FDC164;}
	.st58{fill:#F58D49;}
	.st59{opacity:0.67;fill:url(#SVGID_46_);}
	.st60{opacity:0.67;fill:url(#SVGID_47_);}
	.st61{opacity:0.67;fill:url(#SVGID_48_);}
	.st62{opacity:0.14;fill:#F15A24;enable-background:new    ;}
	.st63{fill:#FF7B34;}
	.st64{fill:url(#SVGID_49_);}
	.st65{clip-path:url(#SVGID_51_);fill:url(#SVGID_52_);}
	.st66{opacity:0.5;clip-path:url(#SVGID_54_);fill:#CD4927;}
	.st67{fill:url(#SVGID_55_);}
	.st68{fill:none;stroke:#FFFFFF;stroke-width:1.3;stroke-linecap:round;stroke-linejoin:round;stroke-miterlimit:10;}
	.st69{opacity:0.67;fill:url(#SVGID_56_);}
	.st70{opacity:0.67;fill:url(#SVGID_57_);}
	.st71{opacity:0.67;fill:url(#SVGID_58_);}
	.st72{opacity:0.67;fill:url(#SVGID_59_);enable-background:new    ;}
	.st73{opacity:0.67;fill:url(#SVGID_60_);enable-background:new    ;}
	.st74{opacity:0.67;fill:url(#SVGID_61_);enable-background:new    ;}
	.st75{opacity:0.76;fill:url(#SVGID_62_);enable-background:new    ;}
	.st76{opacity:0.76;fill:url(#SVGID_63_);enable-background:new    ;}
	.st77{opacity:0.76;fill:url(#SVGID_64_);enable-background:new    ;}
	.st78{opacity:0.76;fill:url(#SVGID_65_);enable-background:new    ;}
	.st79{opacity:0.76;fill:url(#SVGID_66_);enable-background:new    ;}
	.st80{opacity:0.76;fill:url(#SVGID_67_);enable-background:new    ;}
	.st81{opacity:0.76;fill:url(#SVGID_68_);enable-background:new    ;}
	.st82{opacity:0.76;fill:url(#SVGID_69_);enable-background:new    ;}
	.st83{opacity:0.76;fill:url(#SVGID_70_);enable-background:new    ;}
	.st84{opacity:0.76;fill:url(#SVGID_71_);enable-background:new    ;}
	.st85{opacity:0.76;fill:url(#SVGID_72_);enable-background:new    ;}
	.st86{opacity:0.76;fill:url(#SVGID_73_);enable-background:new    ;}
	.st87{opacity:0.76;fill:url(#SVGID_74_);enable-background:new    ;}
	.st88{opacity:0.76;fill:url(#SVGID_75_);enable-background:new    ;}
	.st89{opacity:0.76;fill:url(#SVGID_76_);enable-background:new    ;}
	.st90{opacity:0.76;fill:url(#SVGID_77_);enable-background:new    ;}
	.st91{opacity:0.67;fill:url(#SVGID_78_);enable-background:new    ;}
	.st92{opacity:0.67;fill:url(#SVGID_79_);enable-background:new    ;}
	.st93{opacity:0.67;fill:url(#SVGID_80_);enable-background:new    ;}
	.st94{fill:#FBFEFB;}
	.st95{fill:#E0E0E0;}
	.st96{fill:url(#SVGID_81_);}
	.st97{clip-path:url(#SVGID_83_);}
	.st98{opacity:0.3;fill:#FFFFFF;enable-background:new    ;}
	.st99{opacity:0.44;fill:#CE471D;enable-background:new    ;}
	.st100{fill:url(#SVGID_84_);}
	.st101{opacity:0.7;}
	.st102{fill:#C2C0C0;}
	.st103{fill:url(#SVGID_85_);}
	.st104{opacity:0.4;fill:#CE471D;enable-background:new    ;}
	.st105{fill:url(#SVGID_86_);}
	.st106{fill:#CE471D;}
	.st107{opacity:0.3;fill:#CE471D;enable-background:new    ;}
	.st108{fill:#FFB654;}
	.st109{opacity:0.47;fill:#F97E48;enable-background:new    ;}
	.st110{fill:#FF7600;}
	.st111{fill:url(#SVGID_87_);}
	.st112{fill:url(#SVGID_88_);}
	.st113{opacity:0.3;fill:#CD4927;enable-background:new    ;}
	.st114{fill:#CD4927;}
	.st115{clip-path:url(#SVGID_90_);}
	.st116{fill:#FFC263;}
	.st117{fill:url(#SVGID_91_);}
	.st118{fill:url(#SVGID_92_);}
	.st119{fill:url(#SVGID_93_);}
	.st120{fill:url(#SVGID_94_);}
	.st121{fill:url(#SVGID_95_);}
	.st122{opacity:0.14;}
	.st123{clip-path:url(#SVGID_97_);}
	.st124{fill:#F15A24;}
	.st125{opacity:0.2;fill:#CD4927;enable-background:new    ;}
	.st126{fill:url(#SVGID_98_);}
	.st127{opacity:0.6;fill:#CD4927;enable-background:new    ;}
	.st128{fill:#FFC369;}
	.st129{fill:#FFCA6C;}
	.st130{fill:url(#SVGID_99_);}
	.st131{fill:url(#SVGID_100_);}
	.st132{opacity:0.8;fill:#DABFB6;}
	.st133{fill:#E9673A;}
	.st134{fill:url(#SVGID_101_);}
	.st135{opacity:0.3;fill:#CD4927;}
	.st136{clip-path:url(#SVGID_107_);}
</style>
<g>
	<path class="st1" d="M153.4,167.3c-0.1-0.2-0.2-0.3-0.3-0.5l-48-61.7l37.9-40c0.8-1,1.3-1.7,1.6-2.3c0.4-0.7,0.5-1.6,0.5-2.6
		c0-1.8-0.7-6-7.1-6H109c-2.8,0-5.3,1.1-7.3,3.4L70.9,91.9V26.7c0-0.8-0.1-1.6-0.3-2.4c-0.2-1-0.6-1.9-1.3-2.8
		c-0.6-0.9-1.5-1.6-2.5-2.1c-1.1-0.6-2.4-0.8-3.9-0.8H40.3c-2.1,0-3.7,0.2-4.9,0.6c-1.4,0.5-2.4,1.2-3.1,2.1c-0.7,0.9-1.1,2-1.2,3.3
		c-0.1,0.9-0.1,2-0.1,3.1v142.7c0,0.3,0.1,0.7,0.4,1.8c0.3,0.8,0.7,1.7,1.2,2.5c0.6,1,1.4,1.8,2.4,2.6c1.1,0.8,2.5,1.3,4.1,1.3h23.8
		c1.7,0,3.2-0.4,4.3-1.2c1-0.7,1.9-1.6,2.5-2.6c0.6-1,1-2,1.2-3c0.2-1,0.3-1.7,0.3-2.3v-29.9l8.4-8.7l29.7,42
		c1.2,1.8,2.4,3.1,3.4,4.1c1.3,1.1,2.7,1.7,4.3,1.7h32c2,0,3.5-0.4,4.6-1.1c1.3-0.9,2-2.4,2-4.6c0-0.9-0.2-2-0.7-3
		C154.6,168.9,154.1,168.1,153.4,167.3z"/>
	<path class="st1" d="M271.5,54.3h-21.4c-1.1,0-2.1,0.1-3,0.3c-0.9,0.2-1.9,0.7-2.9,1.3c-1.1,0.8-2,1.9-2.5,3.3
		c-0.5,1.3-0.7,2.6-0.7,3.9v61.7c0,3.2-0.7,5.9-2,8.1c-1.4,2.3-3.1,4.2-5.2,5.6c-2.1,1.5-4.4,2.6-6.8,3.3c-5.3,1.5-9.7,1.4-13.6-0.4
		c-2.1-1-4-2.3-5.6-4c-1.6-1.7-2.9-3.7-3.9-5.9c-0.9-2.2-1.4-4.5-1.4-7V62.9c0-3.2-0.7-5.5-2.1-6.8c-1.4-1.3-3.6-1.9-6.9-1.9h-21.9
		c-2.8,0-5,0.8-6.4,2.5c-1.3,1.6-2,3.8-2,6.7v62.1c0,7.4,1,14.5,3,21.1c2,6.6,5,12.5,9,17.5c4,5,8.9,9,14.7,11.9
		c5.8,2.9,12.5,4.4,20,4.4c5.1,0,10-0.6,14.4-1.9c4.4-1.2,8.3-2.8,11.6-4.7c3.4-1.9,6.3-4,8.6-6.3c0.9-0.9,1.8-1.8,2.5-2.7l1.1,5
		c0.3,1,0.6,2,1,3c0.4,1,1,2,1.7,2.8c0.7,0.9,1.6,1.6,2.7,2.1c1.1,0.5,2.4,0.8,3.8,0.8h14.3c0.9,0,2-0.1,3-0.3
		c1.2-0.3,2.4-0.8,3.4-1.7c0.1-0.1,0.3-0.2,0.3-0.4c0.7-0.6,1.3-1.4,1.8-2.3c0.7-1.3,1-2.7,1-4.2V63.5c0-2.7-0.8-4.9-2.3-6.6
		C277.2,55.2,274.8,54.3,271.5,54.3z"/>
	<path class="st1" d="M410.4,71c-5.4-5.8-12-10.3-19.5-13.6c-7.5-3.3-15.8-4.9-24.7-4.9c-5.1,0-9.6,0.7-13.2,2
		c-3.6,1.3-6.7,3-9.3,5.1c-2.6,2-4.8,4.3-6.7,6.8c-1.1,1.4-2.1,2.8-3.2,4.2l-2.8-8.1c-0.3-1.1-0.7-2-1-2.9c-0.4-1-0.9-1.9-1.5-2.7
		c-0.7-0.9-1.6-1.6-2.6-2.1c-1-0.5-2.3-0.8-3.8-0.8h-14.3c-0.9,0-1.9,0.1-3,0.3c-1.2,0.3-2.3,0.8-3.4,1.7c0,0-0.1,0.1-0.1,0.1
		c-0.8,0.8-1.5,1.7-2.1,2.7c-0.6,1.1-1,2.5-1,4.1v144c0,1.4,0.3,2.7,1,3.9c0.6,1.1,1.4,2,2.4,2.7c0.9,0.7,1.9,1.2,3,1.6
		c1.1,0.4,2.1,0.6,3.1,0.6h21.7c3,0,5.2-0.9,6.7-2.7c1.4-1.7,2.2-3.7,2.2-6.1v-39.3c0.6,0.7,1.3,1.4,1.9,2.1c1.9,2,4,3.8,6.4,5.5
		c2.4,1.7,5.3,3,8.4,4.1c3.2,1,6.9,1.6,11.2,1.6c8.9,0,17.2-1.7,24.7-5c7.5-3.3,14-7.9,19.5-13.7c5.4-5.7,9.7-12.6,12.8-20.4
		c3-7.8,4.6-16.2,4.6-25.2c0-9-1.5-17.5-4.6-25.2C420.1,83.5,415.8,76.7,410.4,71z M389.2,116.5c0,3.9-0.6,7.7-1.9,11.1
		c-1.2,3.4-3,6.4-5.2,8.9c-2.2,2.5-4.9,4.5-8,6c-3.1,1.5-6.5,2.2-10.3,2.2c-3.8,0-7.5-0.7-10.9-2.2c-3.4-1.5-6.5-3.5-9-6
		c-2.5-2.5-4.6-5.5-6-8.9c-1.5-3.4-2.2-7.1-2.2-11l0-1.3c0.2-3.6,1.1-7.1,2.6-10.4c1.6-3.3,3.6-6.1,6.1-8.5c2.5-2.4,5.5-4.3,8.8-5.7
		c3.3-1.4,6.9-2.1,10.6-2.1c3.7,0,7.2,0.7,10.3,2.2c3.1,1.5,5.8,3.5,8,6c2.2,2.5,4,5.5,5.2,8.9C388.5,109,389.2,112.7,389.2,116.5z"
		/>
	<path class="st1" d="M546.9,70.9c-5.7-5.7-12.6-10.3-20.3-13.6c-7.8-3.3-16.2-4.9-25-4.9c-6,0-11.8,0.8-17.2,2.2
		c-5.5,1.5-10.6,3.6-15.4,6.3c-4.7,2.7-9.1,6.1-13,9.9c-3.9,3.9-7.2,8.2-10,12.9c-2.8,4.7-4.9,9.9-6.4,15.4
		c-1.5,5.5-2.3,11.3-2.3,17.3c0,6,0.8,11.8,2.3,17.2c1.5,5.5,3.7,10.6,6.4,15.4c2.8,4.7,6.1,9.1,10,12.9c3.9,3.9,8.2,7.2,12.9,10
		c4.7,2.8,9.9,4.9,15.4,6.4c5.5,1.5,11.3,2.2,17.2,2.2c5.9,0,11.6-0.8,17-2.2c5.4-1.5,10.6-3.6,15.3-6.4c4.7-2.8,9.1-6.1,12.9-10
		c3.9-3.9,7.2-8.2,10-12.9c2.8-4.7,4.9-9.9,6.4-15.4c1.5-5.5,2.3-11.3,2.3-17.2c0-9-1.7-17.5-5-25.3
		C557.2,83.5,552.6,76.6,546.9,70.9z M501.3,88.1c3.8,0,7.3,0.8,10.3,2.2c3.1,1.5,5.7,3.5,7.8,6.1c2.1,2.6,3.8,5.6,5,9.1
		c1.2,3.5,1.8,7.1,1.8,11c0,3.9-0.6,7.7-1.7,11.1c-1.1,3.4-2.8,6.3-4.9,8.8c-2.1,2.4-4.8,4.4-7.8,5.8c-3,1.4-6.5,2.1-10.3,2.1
		c-3.9,0-7.5-0.7-10.6-2.2c-3.1-1.4-5.8-3.4-8-5.8c-2.2-2.5-3.9-5.4-5.1-8.8c-1.2-3.4-1.8-7.1-1.8-11.1c0-3.8,0.6-7.5,1.8-10.9
		c1.2-3.4,2.9-6.5,5.2-9.1c2.2-2.6,4.9-4.6,8-6.1C493.8,88.9,497.4,88.1,501.3,88.1z"/>
	<path class="st1" d="M660.5,110.9c-3.6-3.2-7.9-6-12.8-8.2c-4.8-2.2-10.1-4.2-15.9-6.1c-1.6-0.5-3.3-0.9-5.2-1.2
		c-1.7-0.3-3.3-0.8-4.8-1.3c-1.4-0.5-2.6-1.1-3.5-1.9c-0.7-0.6-1.1-1.4-1.2-2.5c-0.1-1.5,0.4-2.5,1.6-3.2c2.8-1.6,8-1.9,13.9-0.2
		c2.5,0.7,4.8,2.2,6.7,4.3c0.6,0.8,1.3,1.4,2.1,2c0.8,0.6,1.7,1,2.6,1.2c1,0.3,2,0.3,3.1,0.1c1.1-0.2,2.1-0.8,3.2-1.7
		c2.4-2.4,4.7-4.5,6.9-6.5c2.2-1.9,4.6-3.9,7.1-6c1.9-1.6,2.8-3.3,2.8-5c0-1.5-0.8-3.1-2.2-4.8c-3-3.2-6.1-5.9-9.2-8.2
		c-3.1-2.3-6.3-4.2-9.6-5.7c-3.3-1.5-6.8-2.6-10.4-3.3c-3.6-0.7-7.5-1-11.5-1c-6.7,0-13,0.9-18.5,2.6c-5.6,1.7-10.4,4.2-14.5,7.4
		c-4.1,3.2-7.2,7.2-9.4,11.7c-2.2,4.5-3.3,9.6-3.3,15.1c0,4.6,0.6,9.1,1.8,13.3c1.2,4.3,3.4,8.3,6.4,12c3,3.7,7.1,7,12.2,10
		c5.1,2.9,11.5,5.4,19.1,7.5c2.4,0.8,4.6,1.4,6.5,2c1.8,0.5,3.3,1.1,4.5,1.8c1.1,0.6,1.8,1.3,2.4,2c0.5,0.7,0.7,1.8,0.7,3.2
		c0,1.4-0.4,2.4-1.2,3.1c-1,0.9-2.2,1.5-3.7,1.9c-1.6,0.4-3.2,0.7-4.9,0.8c-1.8,0.1-3.3,0.1-4.5,0.1c-0.1,0-0.7,0-2.4-0.4
		c-1.3-0.3-2.8-0.8-4.6-1.5c-1.7-0.7-3.6-1.6-5.5-2.7c-1.8-1.1-3.6-2.4-5.2-4c0,0,0,0,0,0c-2.1-2-3.8-3.2-5.2-3.7
		c-1.8-0.6-3.8,0-6,1.8L576.7,148c-1,0.7-1.7,1.7-2.1,2.7c-0.4,1-0.7,2.1-0.7,3.3c0,1.2,0.2,2.4,0.6,3.6c0.4,1.2,1,2.3,1.8,3.3
		c2.8,3.6,6,6.7,9.5,9.3c3.5,2.5,7.3,4.6,11.2,6.2c3.9,1.6,8,2.8,12.2,3.5c4.1,0.7,8.3,1.1,12.3,1.1c7,0,13.7-0.9,19.8-2.7
		c6.2-1.8,11.6-4.5,16.1-8c4.6-3.5,8.2-7.9,10.8-13.1c2.6-5.2,3.9-11.1,3.9-17.6c0-6.5-1-12.1-3.1-16.7
		C667,118.2,664.1,114.2,660.5,110.9z"/>
	<path class="st2" d="M829.4,158.6c-0.3-0.7-0.7-1.3-1-2l-10.6-16c-1.1-1.8-2.3-2.9-3.5-3.5c-1.1-0.6-2.4-0.9-3.8-0.9
		c-0.6,0-1.3,0.1-2.2,0.3c-1,0.2-2.1,0.7-3.2,1.5c-2.7,1.9-5.6,3.4-8.6,4.6c-2.9,1.2-6.1,1.8-9.4,1.8c-3.7,0-7.1-0.7-10.2-2.2
		c-3.1-1.4-5.8-3.4-8-5.8c-2.2-2.5-3.9-5.4-5.2-8.8c-1.2-3.4-1.9-7.1-1.9-11.1c0-3.8,0.6-7.5,1.9-10.9c1.2-3.4,3-6.5,5.2-9.1
		c2.2-2.6,4.9-4.6,8-6.1c3.1-1.5,6.5-2.2,10.2-2.2c3.4,0,6.6,0.6,9.5,1.6c3,1.1,5.9,2.6,8.5,4.3c1.1,0.8,2.2,1.4,3.2,1.7
		c1,0.4,1.9,0.5,2.7,0.5c3.2,0,6-1.9,8.1-5.6l8.4-14.3c0.9-1.5,1.4-3,1.4-4.5c0-2-0.5-3.8-1.6-5.3c-1-1.3-2.3-2.4-3.9-3.4
		c-0.1-0.1-0.2-0.1-0.4-0.2c-5-3.4-10.5-6.1-16.2-7.9c-6-1.9-12.6-2.8-19.7-2.8c-5.8,0-11.5,0.8-17,2.3c-5.4,1.5-10.5,3.6-15.2,6.4
		c-4.7,2.7-9,6.1-12.9,9.9c-3.9,3.9-7.3,8.2-10,12.9c-2.7,4.7-4.9,9.9-6.4,15.4c-1.5,5.5-2.3,11.3-2.3,17.3c0,0.5,0,0.9,0,1.4
		c17.1,3.4,30.1,18.7,30.1,37c0,5.1-1,9.9-2.9,14.3c1.4,1,2.8,1.9,4.3,2.8c4.7,2.8,9.8,4.9,15.2,6.4c5.4,1.5,11.1,2.2,17,2.2
		c7.1,0,13.9-1.1,20.2-3.4c6.3-2.2,12.2-5.2,17.4-8.9c1.2-0.8,2.3-1.7,3.3-2.7c1.3-1.3,1.9-2.9,1.9-4.9
		C830,160.2,829.8,159.5,829.4,158.6z"/>
	<path class="st1" d="M716.5,128.7c-14,0-25.4,11.7-25.4,26.1c0,14.2,11.4,25.8,25.4,25.8c14.2,0,25.8-11.6,25.8-25.8
		C742.3,140.4,730.7,128.7,716.5,128.7z"/>
	<path class="st2" d="M877.6,26.3c-0.5-1.1-1.1-2-1.9-2.8c-0.7-0.8-1.6-1.4-2.5-1.8c-1-0.5-1.9-0.7-2.8-0.7h-23.2
		c-3.1,0-5.3,1-6.7,2.8c-1.2,1.7-1.9,3.8-1.9,6.2v141.5c0,2.8,0.7,5.1,1.9,6.6c1.4,1.7,3.6,2.5,6.6,2.5h22c2.6,0,4.8-0.8,6.5-2.3
		c1.8-1.6,2.6-3.9,2.6-6.8V30C878.3,28.7,878.1,27.4,877.6,26.3z"/>
</g>
</svg>
