<svg id="Capa_1" data-name="Capa 1" xmlns="http://www.w3.org/2000/svg" viewBox="0 0 1054.412 236.765"><defs><style>.cls-1{fill:#ff5c60;}.cls-2{fill:#ff8f45;}</style></defs><title>Logo_KuposPay</title><path class="cls-1" d="M760.753,93.533a64.163,64.163,0,0,0-12.969-20.658A60.222,60.222,0,0,0,727.953,59.02a62.3,62.3,0,0,0-25.117-5.036,39.373,39.373,0,0,0-13.583,2.09,35.773,35.773,0,0,0-9.649,5.252,38.625,38.625,0,0,0-6.954,7.01q-.8,1.052-1.6,2.093l-1.949-5.613c-.336-1.072-.7-2.075-1.065-2.986a13.29,13.29,0,0,0-1.7-3.016,8.507,8.507,0,0,0-3.131-2.528,10.1,10.1,0,0,0-4.387-.89H644.59a15.539,15.539,0,0,0-3.233.355,9.007,9.007,0,0,0-3.558,1.7c.752.6,1.492,1.19,2.168,1.776a34.38,34.38,0,0,1,4.965,5.236c.012.018.023.037.038.054.294.3.591.583.882.887.165.172.325.347.48.523.027.032.054.064.081.095A18.894,18.894,0,0,1,651.182,77.7c.1,3.589-.969,8.9-6.654,13.84-.1.088-.2.17-.3.25-2.3,1.891-4.551,3.794-6.684,5.655-1.038.905-2.112,1.882-3.205,2.91a57.027,57.027,0,0,1,6.7,5.168,45.773,45.773,0,0,1,11.284,15.625,52.169,52.169,0,0,1,4,21.152,49.582,49.582,0,0,1-5.144,22.625,48.938,48.938,0,0,1-13.945,16.833c-.384.293-.781.571-1.175.856-.743.652-1.519,1.275-2.3,1.894v24.318a8.788,8.788,0,0,0,1.214,4.55,10.5,10.5,0,0,0,2.742,3.077,12.639,12.639,0,0,0,3.315,1.784,10.625,10.625,0,0,0,3.558.662h21.583c3.379,0,6-1.051,7.774-3.127a10.367,10.367,0,0,0,2.488-6.946V173.338a40.147,40.147,0,0,0,6.119,5.121,34.367,34.367,0,0,0,8.7,4.226,37.239,37.239,0,0,0,11.583,1.627,61.813,61.813,0,0,0,25.126-5.086,60.833,60.833,0,0,0,19.822-13.9,64.011,64.011,0,0,0,12.97-20.709,72.4,72.4,0,0,0,0-51.084Zm-38.291,36.136a25.551,25.551,0,0,1-4.922,8.4,23.427,23.427,0,0,1-7.529,5.581,22.4,22.4,0,0,1-9.625,2.042A25.821,25.821,0,0,1,690.1,143.6a27.488,27.488,0,0,1-8.511-5.679,26.569,26.569,0,0,1-5.7-8.436A26.047,26.047,0,0,1,673.8,119.1v-1.333a25.144,25.144,0,0,1,2.454-9.682,27.568,27.568,0,0,1,5.81-8.047,26.988,26.988,0,0,1,8.325-5.377,25.871,25.871,0,0,1,10-1.963,22.405,22.405,0,0,1,9.627,2.043,23.135,23.135,0,0,1,7.514,5.613,26.142,26.142,0,0,1,4.935,8.421,29.988,29.988,0,0,1,1.781,10.325A30.953,30.953,0,0,1,722.461,129.669Z"/><path class="cls-1" d="M899.175,57.82a7.951,7.951,0,0,0-3.983-2.077,15.824,15.824,0,0,0-3.1-.347H878.049a16.885,16.885,0,0,0-3.644.317,6.786,6.786,0,0,0-3.344,1.823,9.865,9.865,0,0,0-2.029,3.225q-.621,1.475-1.575,3.867c-.03.072-.057.146-.08.221l-.879,2.758q-1.158-1.247-2.42-2.422a40,40,0,0,0-8.267-5.907,44.912,44.912,0,0,0-9.964-3.867,46.338,46.338,0,0,0-11.719-1.427,64.335,64.335,0,0,0-45.876,18.829A65.075,65.075,0,0,0,769.389,119.1a66.714,66.714,0,0,0,2.282,17.5,64.748,64.748,0,0,0,16.58,28.785,63.791,63.791,0,0,0,28.559,16.642,65.269,65.269,0,0,0,17.319,2.285,39.783,39.783,0,0,0,10.12-1.285,48.112,48.112,0,0,0,16.7-8.048q1.109-.834,2.153-1.693.466,1.306.9,2.451a11.713,11.713,0,0,0,1.78,3.2,8.2,8.2,0,0,0,3.265,2.434,11.4,11.4,0,0,0,4.485.776h18.567a15.825,15.825,0,0,0,3.093-.344,10.405,10.405,0,0,0,6.76-5.669,11.708,11.708,0,0,0,.787-4.247V65.658a10.891,10.891,0,0,0-.83-4.306A9.268,9.268,0,0,0,899.175,57.82ZM824.09,94.4a22.5,22.5,0,0,1,9.756-2.083,25.51,25.51,0,0,1,10.4,2.12,26.581,26.581,0,0,1,8.4,5.83,27.4,27.4,0,0,1,5.593,8.586,27.439,27.439,0,0,1,0,20.616,25.271,25.271,0,0,1-5.546,8.306,26.833,26.833,0,0,1-8.4,5.582,26.467,26.467,0,0,1-10.444,2.046,23.324,23.324,0,0,1-9.8-2.01,23.011,23.011,0,0,1-7.556-5.483,24.485,24.485,0,0,1-4.856-8.276,32.3,32.3,0,0,1,0-20.94,26.49,26.49,0,0,1,4.9-8.561A22.927,22.927,0,0,1,824.09,94.4Z"/><path class="cls-1" d="M1039.171,60.14a7.565,7.565,0,0,0-3.644-3.347,12.968,12.968,0,0,0-5.541-1.019h-24.223a11.289,11.289,0,0,0-6.214,1.565,10.534,10.534,0,0,0-3.962,5.745l-23.033,66.934-23.54-66.957a12.5,12.5,0,0,0-3.071-4.9,8.654,8.654,0,0,0-6.156-2.392h-23.28c-4.614,0-7.757,1.481-9.347,4.4-1.458,2.679-1.5,5.791-.115,9.248L951.519,178.42l-14.167,36.815a9.444,9.444,0,0,0-.555.982,7.37,7.37,0,0,0-.678,3.357,10,10,0,0,0,2.451,7.107c1.707,1.807,4.384,2.683,8.188,2.683h21.775a9.252,9.252,0,0,0,6.369-2.42,11.409,11.409,0,0,0,3.266-5.51,3.161,3.161,0,0,0,.141-.681c.829-2.219,1.94-5.134,3.375-8.857,1.769-4.588,3.782-9.732,5.977-15.291q3.435-8.717,7.583-19.125t8.624-21.732c3.073-7.758,6.164-15.505,9.185-23.027q4.709-11.739,9.284-23.091t8.809-21.865q4.243-10.5,7.825-19.365a15.072,15.072,0,0,0,.966-3.688A7.636,7.636,0,0,0,1039.171,60.14Z"/><path class="cls-2" d="M141.993,169.169a3.3,3.3,0,0,0-.376-.609L94.624,108.2l36.8-38.854c.042-.043.082-.088.121-.134a13.553,13.553,0,0,0,1.8-2.535,7.054,7.054,0,0,0,.68-3.172c0-1.722-.611-7.34-8.472-7.34H96.61A10.924,10.924,0,0,0,88.318,60l-28.2,31.327V30.143a13.044,13.044,0,0,0-.309-2.719,8.541,8.541,0,0,0-1.525-3.305,8.773,8.773,0,0,0-3-2.5,9.685,9.685,0,0,0-4.489-.984H28.277a16.554,16.554,0,0,0-5.31.7,7.7,7.7,0,0,0-3.776,2.6,7.406,7.406,0,0,0-1.452,4c-.067.952-.1,2.014-.1,3.153V172.936a6.778,6.778,0,0,0,.5,2.222,13.237,13.237,0,0,0,1.366,2.819,10.637,10.637,0,0,0,2.784,2.94,8.032,8.032,0,0,0,4.859,1.527H50.8a8.737,8.737,0,0,0,5.075-1.432,9.874,9.874,0,0,0,2.882-3.041,10.658,10.658,0,0,0,1.35-3.467,14.1,14.1,0,0,0,.3-2.6V142.783l6.781-7.026,28.529,40.394a22.654,22.654,0,0,0,3.642,4.264,7.747,7.747,0,0,0,5.169,2.029h31.858a9.337,9.337,0,0,0,5.383-1.37c1.193-.81,2.617-2.455,2.617-5.688a9.477,9.477,0,0,0-.759-3.546A10.333,10.333,0,0,0,141.993,169.169Z"/><path class="cls-2" d="M255.331,56.169h-21.3a13.269,13.269,0,0,0-3.326.388,11.876,11.876,0,0,0-3.2,1.42c-.052.031-.1.064-.151.1a8.334,8.334,0,0,0-3.036,3.982,12.238,12.238,0,0,0-.828,4.381v61.33a14.156,14.156,0,0,1-1.795,7.367,16.967,16.967,0,0,1-4.737,5.189,20.8,20.8,0,0,1-6.353,3.059,23.705,23.705,0,0,1-6.448,1.007,14.561,14.561,0,0,1-6.135-1.309,16.411,16.411,0,0,1-5.145-3.657,18.4,18.4,0,0,1-3.559-5.448,16.161,16.161,0,0,1-1.289-6.4V66.154c0-3.642-.845-6.181-2.583-7.762-1.653-1.5-4.194-2.223-7.773-2.223H155.894c-3.263,0-5.772,1.009-7.458,3a11.355,11.355,0,0,0-2.333,7.543v61.735a73.113,73.113,0,0,0,3.065,21.367,53.467,53.467,0,0,0,9.2,17.817,44.658,44.658,0,0,0,15.1,12.2,45.473,45.473,0,0,0,20.509,4.493,53.979,53.979,0,0,0,14.655-1.909,54.821,54.821,0,0,0,11.884-4.809,41.766,41.766,0,0,0,8.847-6.49q.37-.364.718-.723l.456,2.124c.012.053.024.1.038.157a23.282,23.282,0,0,0,1.1,3.174,12.99,12.99,0,0,0,1.894,3.14,9.577,9.577,0,0,0,3.145,2.5,9.731,9.731,0,0,0,4.391.956h14.232a16.154,16.154,0,0,0,3.26-.351,9.075,9.075,0,0,0,4.049-2.029,3.3,3.3,0,0,0,.5-.525,9.379,9.379,0,0,0,1.93-2.514,10.22,10.22,0,0,0,1.186-4.844V66.713a10.779,10.779,0,0,0-2.638-7.482C261.774,57.2,258.987,56.169,255.331,56.169Z"/><path class="cls-2" d="M391.607,73.176a60.23,60.23,0,0,0-19.833-13.856,62.294,62.294,0,0,0-25.115-5.036,39.377,39.377,0,0,0-13.583,2.09,35.74,35.74,0,0,0-9.649,5.252,38.562,38.562,0,0,0-6.954,7.01q-.8,1.052-1.6,2.093l-1.949-5.614c-.337-1.072-.695-2.075-1.064-2.986a13.272,13.272,0,0,0-1.7-3.016,8.526,8.526,0,0,0-3.13-2.528,10.12,10.12,0,0,0-4.389-.889H288.411a15.489,15.489,0,0,0-3.231.355,9.138,9.138,0,0,0-3.981,2.024c-.071.06-.14.124-.206.19a14.281,14.281,0,0,0-2.263,2.942,9.4,9.4,0,0,0-1.146,4.751v143.17a8.8,8.8,0,0,0,1.212,4.551,10.547,10.547,0,0,0,2.742,3.075,12.693,12.693,0,0,0,3.317,1.785,10.652,10.652,0,0,0,3.557.661h21.583c3.381,0,6-1.051,7.774-3.127a10.363,10.363,0,0,0,2.488-6.946V173.638a40.093,40.093,0,0,0,6.119,5.121,34.338,34.338,0,0,0,8.7,4.226,37.2,37.2,0,0,0,11.585,1.627,61.8,61.8,0,0,0,25.127-5.086,60.817,60.817,0,0,0,19.819-13.9,63.968,63.968,0,0,0,12.97-20.709,72.362,72.362,0,0,0,0-51.084A64.117,64.117,0,0,0,391.607,73.176ZM361.361,138.37a23.436,23.436,0,0,1-7.527,5.579,22.388,22.388,0,0,1-9.627,2.042,25.829,25.829,0,0,1-10.291-2.088,27.48,27.48,0,0,1-8.509-5.68,26.568,26.568,0,0,1-5.7-8.435,26.08,26.08,0,0,1-2.088-10.388v-1.332a25.156,25.156,0,0,1,2.454-9.683,27.586,27.586,0,0,1,5.809-8.047,27.038,27.038,0,0,1,8.326-5.377,25.882,25.882,0,0,1,10-1.964,22.385,22.385,0,0,1,9.627,2.044,23.118,23.118,0,0,1,7.515,5.613,26.208,26.208,0,0,1,4.936,8.421,30.007,30.007,0,0,1,1.78,10.325,30.965,30.965,0,0,1-1.783,10.57A25.558,25.558,0,0,1,361.361,138.37Z"/><path class="cls-2" d="M524.433,73.107a64.778,64.778,0,0,0-46.012-18.823,66.163,66.163,0,0,0-33.12,8.733,63.2,63.2,0,0,0-13.173,10.09,64.391,64.391,0,0,0-16.678,28.736A66.128,66.128,0,0,0,422,152.535a64.281,64.281,0,0,0,38.925,29.792,66.577,66.577,0,0,0,17.5,2.283,64.848,64.848,0,0,0,32.852-8.786,64.373,64.373,0,0,0,23.288-23.289,66.418,66.418,0,0,0,6.548-15.618,65.417,65.417,0,0,0,2.336-17.516,64.474,64.474,0,0,0-5.122-25.667A65.907,65.907,0,0,0,524.433,73.107ZM478.139,92.621a21.367,21.367,0,0,1,16.934,7.766,26.587,26.587,0,0,1,4.692,8.561,34.056,34.056,0,0,1,0,21.036,24.506,24.506,0,0,1-4.647,8.278,21.732,21.732,0,0,1-7.3,5.445,22.7,22.7,0,0,1-9.684,2,23.789,23.789,0,0,1-9.988-2.012,22.481,22.481,0,0,1-7.493-5.468,24.826,24.826,0,0,1-4.822-8.291,32.29,32.29,0,0,1,0-20.94,27.007,27.007,0,0,1,4.87-8.578A22.44,22.44,0,0,1,468.2,94.7,22.931,22.931,0,0,1,478.139,92.621Z"/><path class="cls-2" d="M640.234,127.565a35.287,35.287,0,0,0-9.469-11.715,59.372,59.372,0,0,0-13.863-8.175c-5.125-2.2-10.793-4.334-16.852-6.337-3.1-1.013-5.809-1.953-8.07-2.8a29.762,29.762,0,0,1-5.318-2.512,8.684,8.684,0,0,1-2.611-2.31,4.638,4.638,0,0,1-.065-4.541,5,5,0,0,1,1.83-1.631,11.648,11.648,0,0,1,3.39-1.149,25.249,25.249,0,0,1,4.656-.411,15.167,15.167,0,0,1,4.409.666,27.223,27.223,0,0,1,4.463,1.817,30.172,30.172,0,0,1,4.028,2.495c1.282.939,2.493,1.889,3.6,2.828l.708.631a30.43,30.43,0,0,0,2.468,1.936,6.854,6.854,0,0,0,4,1.253,7.247,7.247,0,0,0,5.166-2.387c.024-.024.049-.05.071-.073l12.984-13.832a15.891,15.891,0,0,0,2.078-2.687,7.116,7.116,0,0,0,1-3.678,7.632,7.632,0,0,0-1.793-4.565,24.535,24.535,0,0,0-3.557-3.722c-1.388-1.2-3-2.455-4.8-3.722C626.913,61.694,625,60.461,623,59.279c-.033-.019-.062-.037-.095-.053a63.042,63.042,0,0,0-9.526-4.249,65.7,65.7,0,0,0-7.125-2.013V44.235a6.438,6.438,0,0,0-2.727-5.321,7.743,7.743,0,0,0-4.572-1.637H583a6.588,6.588,0,0,0-5.261,2.244,7.191,7.191,0,0,0-1.7,4.714v9.2a52,52,0,0,0-11.524,4.184,39.4,39.4,0,0,0-10.85,8,34.508,34.508,0,0,0-6.927,10.858,35.512,35.512,0,0,0-2.435,13.246,36.219,36.219,0,0,0,11.136,26.939,58.482,58.482,0,0,0,13.468,9.715,128.161,128.161,0,0,0,18.285,7.884q2.366.787,5.389,1.892a38.678,38.678,0,0,1,5.561,2.546,17.594,17.594,0,0,1,4.124,3.108,3.4,3.4,0,0,1,1.1,2.478,10.762,10.762,0,0,1-.549,3.462,5.935,5.935,0,0,1-1.587,2.434,9.157,9.157,0,0,1-3.421,1.865,20.142,20.142,0,0,1-6.239.812,21.771,21.771,0,0,1-7.764-1.4,40.225,40.225,0,0,1-7.926-4.167,46.36,46.36,0,0,1-4.782-3.675c-1.561-1.382-2.8-2.447-3.785-3.26a18.121,18.121,0,0,0-2.428-1.8,6.311,6.311,0,0,0-3.268-.966,8.279,8.279,0,0,0-4.76,1.868,3.268,3.268,0,0,0-.351.292l-14.679,14c-1.968,1.795-2.95,3.629-2.95,5.555,0,1.727.891,3.5,2.8,5.577.089.092.18.179.27.259a2.054,2.054,0,0,0,.147.16c.065.066.134.133.2.194.05.056.1.11.156.166l.217.214c.913.975,2.126,2.229,3.7,3.836a48.8,48.8,0,0,0,6.134,5.187,77.443,77.443,0,0,0,12.4,7.347,63.327,63.327,0,0,0,11.135,4.045v9.84c0,4.291,2.667,6.958,6.958,6.958h15.952c4.5,0,7.3-2.667,7.3-6.958v-9.489a56.545,56.545,0,0,0,13.2-4.646,46.906,46.906,0,0,0,12.705-9.249,41.446,41.446,0,0,0,8.461-12.83,40.721,40.721,0,0,0,3.054-15.889A36.609,36.609,0,0,0,640.234,127.565Z"/></svg>