<svg xmlns="http://www.w3.org/2000/svg" xmlns:xlink="http://www.w3.org/1999/xlink" viewBox="0 0 512 512"><defs><style>.cls-1{fill:none;}.cls-2{isolation:isolate;}.cls-3{fill:#f15a24;opacity:0.14;}.cls-4{fill:#fff;}.cls-5{fill:url(#radial-gradient);}.cls-6{clip-path:url(#clip-path);}.cls-7{fill:#ce471d;opacity:0.3;mix-blend-mode:multiply;}.cls-8{fill:#ff5c60;}.cls-9{fill:#ffc263;}.cls-10,.cls-11,.cls-12,.cls-13{opacity:0.67;}.cls-10{fill:url(#radial-gradient-2);}.cls-11{fill:url(#radial-gradient-3);}.cls-12{fill:url(#radial-gradient-4);}.cls-13{fill:url(#radial-gradient-5);}</style><radialGradient id="radial-gradient" cx="258.671" cy="178.153" r="245.079" gradientUnits="userSpaceOnUse"><stop offset="0.274" stop-color="#ffa736"/><stop offset="0.697" stop-color="#ff8f45"/><stop offset="0.984" stop-color="#ff8f45"/></radialGradient><clipPath id="clip-path"><path class="cls-1" d="M418.446,256c0,89.716-73.146,164.7-162.863,164.7s-172-78-172-175c0-89.716,90.284-162,180-162,46.824,0,93.549,23.216,122,58C411.646,173.566,418.446,213.108,418.446,256Z"/></clipPath><radialGradient id="radial-gradient-2" cx="-1693.204" cy="1304.253" r="8.817" gradientTransform="translate(2056.655 -1236.784)" gradientUnits="userSpaceOnUse"><stop offset="0" stop-color="#f7931e"/><stop offset="1" stop-color="#f15a24"/></radialGradient><radialGradient id="radial-gradient-3" cx="860" cy="-1899.924" r="12.33" gradientTransform="translate(-1724.373 -802.609) rotate(90)" xlink:href="#radial-gradient-2"/><radialGradient id="radial-gradient-4" cx="1260.62" cy="-1789.341" r="8.817" gradientTransform="translate(-1408.852 -842.267) rotate(90)" xlink:href="#radial-gradient-2"/><radialGradient id="radial-gradient-5" cx="888.991" cy="-1687.085" r="12.33" gradientTransform="translate(-1641.534 -660.6) rotate(90)" xlink:href="#radial-gradient-2"/></defs><title>Satisfaction-guaranteed</title><g class="cls-2"><g id="Isolation_Mode" data-name="Isolation Mode"><circle class="cls-3" cx="256" cy="256" r="256"/><path class="cls-4" d="M412.606,210.491H330.7L313.833,251.2,297,210.491H245.373a16.84,16.84,0,0,1-16.79-16.79V114.849a16.84,16.84,0,0,1,16.79-16.79H412.606a16.84,16.84,0,0,1,16.79,16.79V193.7A16.84,16.84,0,0,1,412.606,210.491Z"/><path class="cls-5" d="M256,423.946c-92.605,0-167.946-75.341-167.946-167.946S163.395,88.054,256,88.054,423.946,163.395,423.946,256,348.605,423.946,256,423.946Z"/><path class="cls-4" d="M256,93.554A162.446,162.446,0,1,1,93.554,256,162.446,162.446,0,0,1,256,93.554m0-11a172.938,172.938,0,1,0,67.516,13.635A172.37,172.37,0,0,0,256,82.554Z"/><g class="cls-6"><path class="cls-4" d="M412.606,210.491H324.7L307.833,251.2,291,210.491H245.373a16.84,16.84,0,0,1-16.79-16.79V120.849a16.84,16.84,0,0,1,16.79-16.79H412.606a16.84,16.84,0,0,1,16.79,16.79V193.7A16.84,16.84,0,0,1,412.606,210.491Z"/><path class="cls-7" d="M305.917,191.988H209.777L189.2,239.2,168.67,191.988h-89.8A20.539,20.539,0,0,1,58.4,171.51V89.973A20.539,20.539,0,0,1,78.874,69.495H305.917A20.539,20.539,0,0,1,326.4,89.973V171.51A20.539,20.539,0,0,1,305.917,191.988Z"/><circle class="cls-8" cx="267.961" cy="288.013" r="34.866"/><path class="cls-8" d="M268.185,325.879h0a59.776,59.776,0,0,1,59.776,59.776v66.86a2.031,2.031,0,0,1-2.031,2.031H209.992a2.031,2.031,0,0,1-2.031-2.031V386.1A60.224,60.224,0,0,1,268.185,325.879Z"/><path class="cls-4" d="M174.038,318h0a66.75,66.75,0,0,1,66.75,66.75v63.527a2.268,2.268,0,0,1-2.268,2.268H109.056a2.268,2.268,0,0,1-2.268-2.268V385.251A67.25,67.25,0,0,1,174.038,318Z"/><circle class="cls-4" cx="173.788" cy="275.718" r="38.934"/><path class="cls-9" d="M355.038,328h0a66.75,66.75,0,0,1,66.75,66.75v49.527a2.268,2.268,0,0,1-2.268,2.268H290.056a2.268,2.268,0,0,1-2.268-2.268V395.251A67.25,67.25,0,0,1,355.038,328Z"/><circle class="cls-9" cx="354.788" cy="285.718" r="38.934"/></g><polygon class="cls-9" points="349.154 134.443 355.059 146.408 368.263 148.326 358.708 157.64 360.964 170.79 349.154 164.581 337.344 170.79 339.599 157.64 330.045 148.326 343.249 146.408 349.154 134.443"/><polygon class="cls-9" points="395.912 134.443 401.817 146.408 415.021 148.326 405.466 157.64 407.722 170.79 395.912 164.581 384.102 170.79 386.357 157.64 376.803 148.326 390.007 146.408 395.912 134.443"/><circle class="cls-10" cx="363.258" cy="69.21" r="3.87" transform="translate(57.457 277.134) rotate(-45)"/><circle class="cls-11" cx="173.116" cy="57.12" r="5.412" transform="translate(10.314 139.141) rotate(-45)"/><circle class="cls-12" cx="378.748" cy="418.16" r="3.87" transform="translate(-184.751 390.292) rotate(-45)"/><path class="cls-9" d="M291.917,171.988H201.777L181.2,221.2,160.67,171.988h-89.8A20.539,20.539,0,0,1,50.4,151.51V61.973A20.539,20.539,0,0,1,70.874,41.495H291.917A20.539,20.539,0,0,1,312.4,61.973V151.51A20.539,20.539,0,0,1,291.917,171.988Z"/><polygon class="cls-4" points="87.88 85.443 93.785 97.408 106.989 99.326 97.434 108.64 99.69 121.79 87.88 115.581 76.07 121.79 78.325 108.64 68.771 99.326 81.975 97.408 87.88 85.443"/><polygon class="cls-4" points="134.638 85.443 140.543 97.408 153.747 99.326 144.192 108.64 146.448 121.79 134.638 115.581 122.828 121.79 125.083 108.64 115.529 99.326 128.733 97.408 134.638 85.443"/><polygon class="cls-4" points="181.396 85.443 187.301 97.408 200.505 99.326 190.95 108.64 193.206 121.79 181.396 115.581 169.586 121.79 171.841 108.64 162.287 99.326 175.491 97.408 181.396 85.443"/><polygon class="cls-4" points="228.154 85.443 234.059 97.408 247.263 99.326 237.708 108.64 239.964 121.79 228.154 115.581 216.344 121.79 218.599 108.64 209.045 99.326 222.249 97.408 228.154 85.443"/><polygon class="cls-4" points="274.912 85.443 280.817 97.408 294.021 99.326 284.466 108.64 286.722 121.79 274.912 115.581 263.102 121.79 265.357 108.64 255.803 99.326 269.007 97.408 274.912 85.443"/><circle class="cls-13" cx="43.116" cy="228.12" r="5.412" transform="translate(-148.677 97.302) rotate(-45)"/></g></g></svg>