<svg id="Layer_1" data-name="Layer 1" xmlns="http://www.w3.org/2000/svg" viewBox="0 0 512 512"><defs><style>.cls-1{fill:none;stroke:#fff;stroke-linecap:round;stroke-linejoin:round;stroke-width:20px;}.cls-2{fill:#fff;}</style></defs><title>Cancel-Ticket</title><g id="Cancel-Ticket"><line class="cls-1" x1="155.021" y1="245.559" x2="263.516" y2="245.559"/><line class="cls-1" x1="155.021" y1="195.638" x2="365.987" y2="195.638"/><path class="cls-1" d="M447.467,359h26.758a27.907,27.907,0,0,0,27.825-27.825v-70.2a38.94,38.94,0,0,1,0-77.872v-70.2a27.907,27.907,0,0,0-27.825-27.825H38.292a27.907,27.907,0,0,0-27.825,27.825V183.09a38.951,38.951,0,1,1,0,77.9v70.181A27.907,27.907,0,0,0,38.292,359h219.22"/><path class="cls-1" d="M296.967,305.964H116.4a12.035,12.035,0,0,1-12-12V150.117a12.035,12.035,0,0,1,12-12H398.628a12.035,12.035,0,0,1,12,12V293.964a12.035,12.035,0,0,1-12,12"/><path class="cls-2" d="M354.686,278.153A116.453,116.453,0,1,0,471.14,394.606,116.453,116.453,0,0,0,354.686,278.153Zm47.852,149.966A10,10,0,0,1,388.4,442.262l-33.473-33.473L321.45,442.262a10,10,0,0,1-14.143-14.143l33.473-33.473-33.473-33.473A10,10,0,0,1,321.45,347.03L354.923,380.5,388.4,347.03a10,10,0,1,1,14.143,14.143l-33.473,33.473Z"/></g></svg>