<svg id="Isolation_Mode" data-name="Isolation Mode" xmlns="http://www.w3.org/2000/svg" viewBox="0 0 512 512"><defs><style>.cls-1{fill:none;stroke:#464648;stroke-linecap:round;stroke-linejoin:round;stroke-width:26px;}.cls-2{fill:#464648;}</style></defs><title>Departure-time</title><g id="Clock_Departure-Time"><polyline class="cls-1" points="346.22 350.553 254.711 258.972 254.711 161.998"/><path class="cls-2" d="M256,39a217.067,217.067,0,0,1,84.455,416.963A217.066,217.066,0,0,1,171.545,56.037,215.606,215.606,0,0,1,256,39m0-38C115.167,1,1,115.167,1,256S115.167,511,256,511,511,396.833,511,256,396.833,1,256,1Z"/><circle class="cls-2" cx="255.986" cy="79.824" r="18.7"/><circle class="cls-2" cx="430.374" cy="256.495" r="18.7"/><circle class="cls-2" cx="255.986" cy="427.933" r="18.7"/><circle class="cls-2" cx="82.931" cy="256.495" r="18.7"/></g></svg>