<?xml version="1.0" encoding="utf-8"?>
<!-- Generator: Adobe Illustrator 25.0.0, SVG Export Plug-In . SVG Version: 6.00 Build 0)  -->
<svg version="1.1" id="Capa_1" xmlns="http://www.w3.org/2000/svg" xmlns:xlink="http://www.w3.org/1999/xlink" x="0px" y="0px"
	 width="512px" height="512px" viewBox="0 0 512 512" style="enable-background:new 0 0 512 512;" xml:space="preserve">
<style type="text/css">
	.st0{fill:#FFFFFF;enable-background:new    ;}
	.st1{opacity:0.14;fill:#F15A24;enable-background:new    ;}
	.st2{fill:#FFFFFF;}
	.st3{fill:url(#SVGID_1_);}
	.st4{opacity:0.67;fill:url(#SVGID_2_);}
	.st5{opacity:0.67;fill:url(#SVGID_3_);}
	.st6{opacity:0.67;fill:url(#SVGID_4_);}
</style>
<g>
	<g>
		<circle id="Background-Orange_3_" class="st0" cx="256" cy="256" r="256"/>
		<circle id="Background-Orange_2_" class="st1" cx="256" cy="256" r="256"/>
		<path class="st2" d="M256,388.2c-72.9,0-132.2-59.3-132.2-132.2c0-72.9,59.3-132.2,132.2-132.2c72.9,0,132.2,59.3,132.2,132.2
			C388.2,328.9,328.9,388.2,256,388.2z"/>
		<radialGradient id="SVGID_1_" cx="204.4252" cy="195.3914" r="178.7067" gradientUnits="userSpaceOnUse">
			<stop  offset="0.1002" style="stop-color:#FFA736"/>
			<stop  offset="0.7039" style="stop-color:#FF8F45"/>
			<stop  offset="1" style="stop-color:#FF8F45"/>
		</radialGradient>
		<circle class="st3" cx="256" cy="256" r="122.2"/>
	</g>
	
		<radialGradient id="SVGID_2_" cx="172.8013" cy="67.2455" r="8.9829" gradientTransform="matrix(0.7006 -0.7006 0.7006 0.7006 -28.6755 166.957)" gradientUnits="userSpaceOnUse">
		<stop  offset="2.974331e-07" style="stop-color:#F7931E"/>
		<stop  offset="1" style="stop-color:#F15A24"/>
	</radialGradient>
	<circle class="st4" cx="140.6" cy="94.4" r="3.9"/>
	
		<radialGradient id="SVGID_3_" cx="450.9777" cy="276.7742" r="12.5626" gradientTransform="matrix(0.7006 0.7006 -0.7006 0.7006 319.1363 -275.7589)" gradientUnits="userSpaceOnUse">
		<stop  offset="2.974331e-07" style="stop-color:#F7931E"/>
		<stop  offset="1" style="stop-color:#F15A24"/>
	</radialGradient>
	<circle class="st5" cx="439.2" cy="235.6" r="5.5"/>
	
		<radialGradient id="SVGID_4_" cx="346.1978" cy="630.0737" r="8.9829" gradientTransform="matrix(0.7006 0.7006 -0.7006 0.7006 319.1363 -275.7589)" gradientUnits="userSpaceOnUse">
		<stop  offset="2.974331e-07" style="stop-color:#F7931E"/>
		<stop  offset="1" style="stop-color:#F15A24"/>
	</radialGradient>
	<circle class="st6" cx="118.9" cy="409.3" r="3.9"/>
	<g>
		<g>
			<path class="st2" d="M256,280c-8,0-14.5-6.5-14.5-14.5v-63.3c0-8,6.5-14.5,14.5-14.5c8,0,14.5,6.5,14.5,14.5v63.3
				C270.5,273.5,264,280,256,280z"/>
		</g>
		<circle class="st2" cx="256" cy="308.5" r="15.8"/>
	</g>
</g>
</svg>
