<svg id="Layer_1" data-name="Layer 1" xmlns="http://www.w3.org/2000/svg" xmlns:xlink="http://www.w3.org/1999/xlink" viewBox="0 0 512 512"><defs><style>.cls-1{fill:#f15a24;opacity:0.14;}.cls-12,.cls-2,.cls-4,.cls-5,.cls-7{fill:#cd4927;}.cls-2{opacity:0.2;}.cls-3{fill:#ff7b34;}.cls-4{opacity:0.6;}.cls-5{opacity:0.4;}.cls-6{fill:url(#linear-gradient);}.cls-7{opacity:0.3;}.cls-8{fill:url(#linear-gradient-2);}.cls-9{fill:#fff;}.cls-10{fill:#ffc369;}.cls-11{opacity:0.5;}.cls-13{fill:url(#linear-gradient-3);}.cls-14{fill:none;stroke:#fff;stroke-miterlimit:10;stroke-width:6px;}</style><linearGradient id="linear-gradient" x1="253.245" y1="150.712" x2="258.2" y2="429.23" gradientUnits="userSpaceOnUse"><stop offset="0.169" stop-color="#ffa736"/><stop offset="0.721" stop-color="#ff8f45"/><stop offset="1" stop-color="#ff8f45"/></linearGradient><linearGradient id="linear-gradient-2" x1="296.141" y1="89.973" x2="245.38" y2="161.938" gradientUnits="userSpaceOnUse"><stop offset="0" stop-color="#ffa736"/><stop offset="0.157" stop-color="#ffa736"/><stop offset="0.714" stop-color="#ff8f45"/><stop offset="0.984" stop-color="#ff8f45"/><stop offset="1" stop-color="#ff8f45"/></linearGradient><linearGradient id="linear-gradient-3" x1="255.446" y1="99.404" x2="347.337" y2="99.404" gradientUnits="userSpaceOnUse"><stop offset="0" stop-color="#ffa736"/><stop offset="0.582" stop-color="#ff8f45"/><stop offset="0.984" stop-color="#ff8f45"/></linearGradient></defs><title>Exclusive-Van</title><circle class="cls-1" cx="256" cy="256" r="256"/><path class="cls-2" d="M403,433.761c0,6.229-6.854,11.28-15.308,11.28H124.308c-8.454,0-15.308-5.051-15.308-11.28v-4.7c0-6.229,6.854-11.28,15.308-11.28H387.692c8.454,0,15.308,5.051,15.308,11.28Z"/><rect class="cls-3" x="128.801" y="373.88" width="52.689" height="57.554" rx="12" ry="12"/><rect class="cls-3" x="330.064" y="373.88" width="52.689" height="57.554" rx="12" ry="12"/><rect class="cls-4" x="128.801" y="373.88" width="52.689" height="57.554" rx="12" ry="12"/><rect class="cls-4" x="330.064" y="373.88" width="52.689" height="57.554" rx="12" ry="12"/><rect class="cls-3" x="99.993" y="245.953" width="19.598" height="11.137"/><rect class="cls-3" x="393.395" y="245.953" width="18.553" height="11.137"/><rect class="cls-5" x="99.993" y="245.953" width="19.598" height="11.137"/><rect class="cls-5" x="393.395" y="245.953" width="18.553" height="11.137"/><path class="cls-6" d="M160.725,106.521H351.489a18.606,18.606,0,0,1,18.216,14.815l27.277,131.043V370.245a21.565,21.565,0,0,1-21.565,21.565H136.792a21.565,21.565,0,0,1-21.565-21.565V252.683l27.281-131.339A18.606,18.606,0,0,1,160.725,106.521Z"/><path class="cls-2" d="M396.982,309.036v61.209a21.565,21.565,0,0,1-21.565,21.565H136.792a21.565,21.565,0,0,1-21.565-21.565V309.036Z"/><path class="cls-3" d="M396.608,333.453v36.793a21.565,21.565,0,0,1-21.565,21.565H136.418a21.565,21.565,0,0,1-21.565-21.565V333.453Z"/><path class="cls-7" d="M396.982,333.453v36.793a21.565,21.565,0,0,1-21.565,21.565H136.792a21.565,21.565,0,0,1-21.565-21.565V333.453Z"/><path class="cls-8" d="M160.713,106.521H351.477a18.606,18.606,0,0,1,18.216,14.815l8.6,41.3H133.918l8.577-41.294A18.606,18.606,0,0,1,160.713,106.521Z"/><path class="cls-3" d="M351.712,183.626a9.678,9.678,0,0,1,9.4,7.75l11.489,53.85a9.794,9.794,0,0,1-9.4,11.954h-214.2a9.791,9.791,0,0,1-9.436-11.792l10.57-53.85a9.683,9.683,0,0,1,9.436-7.911H351.712m0-6.425H159.576a16.149,16.149,0,0,0-15.741,13.1l-10.57,53.85a16.375,16.375,0,0,0,3.419,13.608,15.918,15.918,0,0,0,12.322,5.847H363.2a15.905,15.905,0,0,0,12.406-5.95,16.364,16.364,0,0,0,3.281-13.77L367.4,190.035A16.192,16.192,0,0,0,351.712,177.2Z"/><path class="cls-9" d="M363.2,257.18h-214.2a9.791,9.791,0,0,1-9.436-11.792l10.57-53.85a9.683,9.683,0,0,1,9.436-7.911H351.712a9.678,9.678,0,0,1,9.4,7.75l11.489,53.85A9.794,9.794,0,0,1,363.2,257.18Z"/><path class="cls-10" d="M346.393,303.782h50.215v29.671h-71.4l8.071-20.706A14.078,14.078,0,0,1,346.393,303.782Z"/><path class="cls-10" d="M165.067,303.782H114.852v29.671h71.4l-8.071-20.706A14.078,14.078,0,0,0,165.067,303.782Z"/><path class="cls-3" d="M408.852,208.058v46.849a2.18,2.18,0,0,0,3.173,1.941l9.532-4.877a7.241,7.241,0,0,0,3.943-6.446V218.114a7.241,7.241,0,0,0-3.6-6.26l-9.771-5.681A2.18,2.18,0,0,0,408.852,208.058Z"/><path class="cls-3" d="M103.148,208.058v46.849a2.18,2.18,0,0,1-3.173,1.941l-9.532-4.877a7.241,7.241,0,0,1-3.943-6.446V218.114a7.241,7.241,0,0,1,3.6-6.26l9.771-5.681A2.18,2.18,0,0,1,103.148,208.058Z"/><path class="cls-9" d="M293.971,348.006H218.237a4.784,4.784,0,0,1-4.428-3.756l-4.731-17.075c-.97-3.5,1.271-7.086,4.428-7.086h85.2c3.157,0,5.4,3.585,4.428,7.086L298.4,344.251A4.784,4.784,0,0,1,293.971,348.006Z"/><g class="cls-11"><path class="cls-12" d="M175.492,375.319H137.185a5.14,5.14,0,0,1,0-10.281h38.307a5.14,5.14,0,0,1,0,10.281Z"/></g><g class="cls-11"><path class="cls-12" d="M375.563,375.319H337.255a5.14,5.14,0,1,1,0-10.281h38.308a5.14,5.14,0,1,1,0,10.281Z"/></g><g class="cls-11"><path class="cls-12" d="M314.012,375.319H198.2a5.14,5.14,0,1,1,0-10.281H314.012a5.14,5.14,0,1,1,0,10.281Z"/></g><path class="cls-13" d="M347.337,90.85a45.965,45.965,0,0,1-33.126,44.133c-.778,1.09-12.666,18.921-12.666,18.921s-12.878-18.326-13.427-19.055a45.951,45.951,0,1,1,59.219-44Z"/><path class="cls-14" d="M347.337,90.85a45.965,45.965,0,0,1-33.126,44.133c-.778,1.09-12.666,18.921-12.666,18.921s-12.878-18.326-13.427-19.055a45.951,45.951,0,1,1,59.219-44Z"/><path class="cls-9" d="M302.979,65.992l6.841,13.862,15.3,2.223a1.029,1.029,0,0,1,.57,1.755l-11.07,10.79,2.613,15.236a1.029,1.029,0,0,1-1.493,1.084l-13.683-7.193-13.683,7.193a1.029,1.029,0,0,1-1.493-1.084l2.613-15.236-11.07-10.79a1.029,1.029,0,0,1,.57-1.755l15.3-2.223,6.841-13.862A1.029,1.029,0,0,1,302.979,65.992Z"/></svg>