<svg id="Layer_1" data-name="Layer 1" xmlns="http://www.w3.org/2000/svg" viewBox="0 0 500 90"><defs><style>.cls-1{fill:#464647;}.cls-2{fill:#fff;}</style></defs><title>Google_Grey-Bar</title><rect class="cls-1" y="0.5" width="500" height="89" rx="12.917" ry="12.917"/><path class="cls-2" d="M57.841,42c-.01.151-.021.267-.021.39,0,2.946.007,9.316.007,9.316h12.93a10.979,10.979,0,0,1-4.748,7.269,13.833,13.833,0,0,1-7.02,2.251,14.093,14.093,0,0,1-5.239-.607,14.549,14.549,0,0,1-9.955-12.551,13.853,13.853,0,0,1,.295-4.383A14.262,14.262,0,0,1,59.973,32.578,12.983,12.983,0,0,1,67.066,36c2.336-2.338,4.646-4.649,7.024-7.03a29.564,29.564,0,0,0-4.277-3.143A23.007,23.007,0,0,0,58.358,22.71c-.769-.01-1.542.035-2.307.07a18.62,18.62,0,0,0-3.982.618,24.2,24.2,0,0,0-18.3,22.06,22.729,22.729,0,0,0,.509,6.5,23.881,23.881,0,0,0,9.446,14.433,23.59,23.59,0,0,0,12.891,4.569,25.622,25.622,0,0,0,7.915-.787,21.034,21.034,0,0,0,11.88-7.81C80.787,56.549,81.843,49.09,80.555,42Z"/><polygon class="cls-2" points="109.758 42.323 101.579 42.323 101.579 34.141 101.579 33.899 101.337 33.899 95.226 33.899 94.984 33.899 94.984 34.141 94.984 42.323 86.798 42.323 86.563 42.323 86.563 42.559 86.563 48.672 86.563 48.914 86.798 48.914 94.984 48.914 94.984 57.097 94.984 57.335 95.226 57.335 101.337 57.335 101.579 57.335 101.579 57.097 101.579 48.914 109.758 48.914 110 48.914 110 48.672 110 42.559 110 42.323 109.758 42.323"/></svg>