<svg id="Layer_1" data-name="Layer 1" xmlns="http://www.w3.org/2000/svg" xmlns:xlink="http://www.w3.org/1999/xlink" viewBox="0 0 512 512"><defs><style>.cls-1{fill:none;}.cls-2{fill:#f15a24;opacity:0.14;}.cls-3,.cls-4,.cls-5{opacity:0.67;}.cls-3{fill:url(#radial-gradient);}.cls-4{fill:url(#radial-gradient-2);}.cls-5{fill:url(#radial-gradient-3);}.cls-6{fill:#fff;}.cls-7{fill:#ffc263;}.cls-8{fill:#ff8f45;}.cls-9{clip-path:url(#clip-path);}.cls-10{fill:#f0f0f0;}.cls-11{fill:#d80027;}.cls-12{fill:#0052b4;}</style><radialGradient id="radial-gradient" cx="46.004" cy="-1853.346" r="12.33" gradientTransform="translate(-1805.335 215.559) rotate(90)" gradientUnits="userSpaceOnUse"><stop offset="0" stop-color="#f7931e"/><stop offset="1" stop-color="#f15a24"/></radialGradient><radialGradient id="radial-gradient-2" cx="214.295" cy="-2222.456" r="12.33" gradientTransform="translate(-1794.445 -94.733) rotate(90)" xlink:href="#radial-gradient"/><radialGradient id="radial-gradient-3" cx="308.031" cy="-1836.101" r="8.817" gradientTransform="translate(-1615.152 150.494) rotate(90)" xlink:href="#radial-gradient"/><clipPath id="clip-path"><path class="cls-1" d="M332.988,184.93h0a44.545,44.545,0,0,0-66.833-.382l-8.031,11.21a2.817,2.817,0,0,1-4.206,0l-8.031-11.21a44.545,44.545,0,0,0-66.833.382h0c-9.369,10.753-15.445,27.3-10.879,49.75,8.9,43.732,84.179,91.414,84.179,91.414a4.289,4.289,0,0,0,5.99.028s77.343-51.015,85.52-91.442C348.409,212.223,342.357,195.683,332.988,184.93Z"/></clipPath></defs><title>Made-in-Chile</title><circle class="cls-2" cx="256" cy="256" r="256"/><circle class="cls-3" cx="45.575" cy="261.292" r="5.412" transform="translate(-171.413 108.757) rotate(-45)"/><circle class="cls-4" cx="425.575" cy="119.292" r="5.412" transform="translate(40.296 335.867) rotate(-45)"/><circle class="cls-5" cx="219.208" cy="458.332" r="3.87" transform="translate(-259.885 289.246) rotate(-45)"/><path class="cls-6" d="M145.9,318.155l-46.625,80.82,54.418-2.889,24.723,48.573,43.131-74.774A135.37,135.37,0,0,1,145.9,318.155Z"/><path class="cls-6" d="M365.721,317.752a135.415,135.415,0,0,1-75.446,52L333.54,444.66l24.723-48.573,54.418,2.889Z"/><circle class="cls-7" cx="255.676" cy="238.88" r="157.005"/><circle class="cls-8" cx="255.676" cy="238.88" r="119.705"/><g class="cls-9"><path class="cls-10" d="M366.07,248.55A109.889,109.889,0,1,1,256.181,138.661,109.888,109.888,0,0,1,366.07,248.55Zm-19.958,0"/><path class="cls-11" d="M346.111,248.55a89.93,89.93,0,0,1-179.861,0c0-49.67,89.93,0,89.93,0Zm0,0"/><path class="cls-12" d="M146.292,248.55A109.887,109.887,0,0,1,256.181,138.661V248.55Zm0,0"/><polygon class="cls-6" points="210.481 198.632 215.468 208.738 226.621 210.359 218.551 218.225 220.456 229.333 210.481 224.089 200.505 229.333 202.411 218.225 194.34 210.359 205.493 208.738 210.481 198.632"/></g></svg>