<?xml version="1.0" encoding="utf-8"?>
<!-- Generator: Adobe Illustrator 25.0.0, SVG Export Plug-In . SVG Version: 6.00 Build 0)  -->
<svg version="1.1" xmlns="http://www.w3.org/2000/svg" xmlns:xlink="http://www.w3.org/1999/xlink" x="0px" y="0px" width="512px"
	 height="512px" viewBox="0 0 512 512" style="enable-background:new 0 0 512 512;" xml:space="preserve">
<style type="text/css">
	.st0{fill:#FF5C60;}
	.st1{fill:#FFFFFF;}
	.st2{fill:#FF8F45;}
	.st3{fill:#464647;}
	.st4{opacity:0.14;fill:#F15A24;}
	.st5{opacity:0.67;fill:url(#SVGID_1_);}
	.st6{opacity:0.67;fill:url(#SVGID_2_);}
	.st7{opacity:0.67;fill:url(#SVGID_3_);}
	.st8{clip-path:url(#SVGID_5_);fill:#FFA736;}
	.st9{clip-path:url(#SVGID_5_);fill:#FFA637;}
	.st10{clip-path:url(#SVGID_5_);fill:#FFA537;}
	.st11{clip-path:url(#SVGID_5_);fill:#FFA438;}
	.st12{clip-path:url(#SVGID_5_);fill:#FFA339;}
	.st13{clip-path:url(#SVGID_5_);fill:#FFA239;}
	.st14{clip-path:url(#SVGID_5_);fill:#FFA13A;}
	.st15{clip-path:url(#SVGID_5_);fill:#FFA03B;}
	.st16{clip-path:url(#SVGID_5_);fill:#FF9F3B;}
	.st17{clip-path:url(#SVGID_5_);fill:#FF9E3C;}
	.st18{clip-path:url(#SVGID_5_);fill:#FF9D3D;}
	.st19{clip-path:url(#SVGID_5_);fill:#FF9C3D;}
	.st20{clip-path:url(#SVGID_5_);fill:#FF9A3E;}
	.st21{clip-path:url(#SVGID_5_);fill:#FF993E;}
	.st22{clip-path:url(#SVGID_5_);fill:#FF983F;}
	.st23{clip-path:url(#SVGID_5_);fill:#FF9740;}
	.st24{clip-path:url(#SVGID_5_);fill:#FF9640;}
	.st25{clip-path:url(#SVGID_5_);fill:#FF9541;}
	.st26{clip-path:url(#SVGID_5_);fill:#FF9442;}
	.st27{clip-path:url(#SVGID_5_);fill:#FF9342;}
	.st28{clip-path:url(#SVGID_5_);fill:#FF9243;}
	.st29{clip-path:url(#SVGID_5_);fill:#FF9144;}
	.st30{clip-path:url(#SVGID_5_);fill:#FF9044;}
	.st31{clip-path:url(#SVGID_5_);fill:#FF8F45;}
	.st32{fill:#F4F4F4;}
	.st33{fill:#FFFFFF;stroke:#D6D6D6;stroke-miterlimit:10;}
	.st34{fill:#DDDDDD;}
	.st35{fill:#FF8F3D;}
	.st36{fill:#CECECE;}
	.st37{opacity:0.67;fill:url(#SVGID_6_);}
	.st38{opacity:0.67;fill:url(#SVGID_7_);}
	.st39{opacity:0.67;fill:url(#SVGID_8_);}
	.st40{clip-path:url(#SVGID_10_);fill:#FFA736;}
	.st41{clip-path:url(#SVGID_10_);fill:#FFA637;}
	.st42{clip-path:url(#SVGID_10_);fill:#FFA537;}
	.st43{clip-path:url(#SVGID_10_);fill:#FFA438;}
	.st44{clip-path:url(#SVGID_10_);fill:#FFA339;}
	.st45{clip-path:url(#SVGID_10_);fill:#FFA239;}
	.st46{clip-path:url(#SVGID_10_);fill:#FFA13A;}
	.st47{clip-path:url(#SVGID_10_);fill:#FFA03B;}
	.st48{clip-path:url(#SVGID_10_);fill:#FF9F3B;}
	.st49{clip-path:url(#SVGID_10_);fill:#FF9E3C;}
	.st50{clip-path:url(#SVGID_10_);fill:#FF9D3D;}
	.st51{clip-path:url(#SVGID_10_);fill:#FF9C3D;}
	.st52{clip-path:url(#SVGID_10_);fill:#FF9A3E;}
	.st53{clip-path:url(#SVGID_10_);fill:#FF993E;}
	.st54{clip-path:url(#SVGID_10_);fill:#FF983F;}
	.st55{clip-path:url(#SVGID_10_);fill:#FF9740;}
	.st56{clip-path:url(#SVGID_10_);fill:#FF9640;}
	.st57{clip-path:url(#SVGID_10_);fill:#FF9541;}
	.st58{clip-path:url(#SVGID_10_);fill:#FF9442;}
	.st59{clip-path:url(#SVGID_10_);fill:#FF9342;}
	.st60{clip-path:url(#SVGID_10_);fill:#FF9243;}
	.st61{clip-path:url(#SVGID_10_);fill:#FF9144;}
	.st62{clip-path:url(#SVGID_10_);fill:#FF9044;}
	.st63{clip-path:url(#SVGID_10_);fill:#FF8F45;}
	.st64{fill:none;stroke:#D6D6D6;stroke-miterlimit:10;}
	.st65{fill:#E5E5E5;stroke:#D6D6D6;stroke-miterlimit:10;}
	.st66{fill:#FF5A5E;}
	.st67{fill:#EAEAEA;}
	.st68{fill:#464648;}
	.st69{fill:#FEF1EC;}
	.st70{fill:#705294;}
	.st71{fill:#EFAE25;}
	.st72{fill:#FA5E00;}
	.st73{fill:#003BA7;}
	.st74{fill:#F98C00;}
	.st75{fill:url(#SVGID_13_);}
	.st76{fill:#7A7A7A;}
	.st77{fill:url(#SVGID_14_);}
	.st78{fill:#0079A8;}
	.st79{clip-path:url(#SVGID_16_);fill:url(#SVGID_17_);}
	.st80{clip-path:url(#SVGID_16_);fill:url(#SVGID_18_);}
	.st81{fill:#009CDE;}
	.st82{fill:#003087;}
	.st83{fill:#012169;}
	.st84{fill:#009FE3;}
	.st85{fill:#69246F;}
	.st86{fill:#D6006D;}
	.st87{fill:#6B1A6B;}
	.st88{fill:#C0C0C0;}
	.st89{fill:none;stroke:#C0C0C0;stroke-miterlimit:10;}
	.st90{fill:url(#SVGID_21_);}
	.st91{fill:url(#SVGID_22_);}
	.st92{clip-path:url(#SVGID_24_);fill:url(#SVGID_25_);}
	.st93{clip-path:url(#SVGID_24_);fill:url(#SVGID_26_);}
	.st94{fill:url(#SVGID_27_);}
	.st95{fill:url(#SVGID_28_);}
	.st96{clip-path:url(#SVGID_30_);fill:url(#SVGID_31_);}
	.st97{clip-path:url(#SVGID_30_);fill:url(#SVGID_32_);}
	.st98{fill:none;stroke:#D6D6D6;stroke-width:2;stroke-miterlimit:10;}
</style>
<g id="Capa_2">
</g>
<g id="Capa_1">
	<g>
		<g>
			<path class="st0" d="M54.8,30.2v451.5c0,24.6,27.7,38.9,47.7,24.7l136-96.4c10.5-7.4,24.5-7.4,35,0l136,96.4
				c20,14.2,47.7-0.1,47.7-24.7V30.2C457.2,13.5,443.7,0,427,0H85C68.3,0,54.8,13.5,54.8,30.2z"/>
		</g>
		<g>
			<path class="st1" d="M335.7,121c-4.3-4.3-11.2-4.3-15.4,0L176.3,264.9c-4.3,4.3-4.3,11.2,0,15.4c2.1,2.1,4.9,3.2,7.7,3.2
				c2.8,0,5.6-1.1,7.7-3.2l143.9-143.9C339.9,132.2,339.9,125.3,335.7,121z"/>
			<path class="st1" d="M299.6,218.9c-22,0-40,17.9-40,40c0,22,17.9,40,40,40c22,0,40-17.9,40-40
				C339.6,236.8,321.7,218.9,299.6,218.9z M299.6,277c-10,0-18.2-8.2-18.2-18.2c0-10,8.2-18.2,18.2-18.2c10,0,18.2,8.2,18.2,18.2
				C317.8,268.9,309.6,277,299.6,277z"/>
			<path class="st1" d="M212.4,182.5c22,0,40-17.9,40-40s-17.9-40-40-40c-22,0-40,17.9-40,40S190.3,182.5,212.4,182.5z M212.4,124.3
				c10,0,18.2,8.2,18.2,18.2c0,10-8.2,18.2-18.2,18.2c-10,0-18.2-8.2-18.2-18.2C194.2,132.5,202.4,124.3,212.4,124.3z"/>
		</g>
	</g>
</g>
</svg>
