<svg id="Layer_1" data-name="Layer 1" xmlns="http://www.w3.org/2000/svg" viewBox="0 0 512 512"><defs><style>.cls-1{fill:#fff;}.cls-2{fill:none;stroke:#fff;stroke-linecap:round;stroke-linejoin:round;stroke-width:20px;}</style></defs><title>Print-Ticket</title><g id="Print-Ticket"><path class="cls-1" d="M481.5,127.7H30.5A30.591,30.591,0,0,0,0,158.2V353.213a30.616,30.616,0,0,0,23.815,29.749h96.876v-97.22a6.255,6.255,0,0,1,6.247-6.247H384.054c3.444,0,7.247,2.8,7.247,6.247v97.22h96.884A30.616,30.616,0,0,0,512,353.213V158.2A30.591,30.591,0,0,0,481.5,127.7Zm-33.427,89.5a26.038,26.038,0,1,1,26.038-26.038A26.039,26.039,0,0,1,448.071,217.2Z"/><path class="cls-2" d="M111.257,101.842V30.875a20.484,20.484,0,0,1,20.424-20.424H380.319a20.484,20.484,0,0,1,20.424,20.424v70.967"/><path class="cls-2" d="M111.257,264.451V481.418a20.484,20.484,0,0,0,20.424,20.424H380.319a20.484,20.484,0,0,0,20.424-20.424V264.451"/><line class="cls-2" x1="170.5" y1="398.607" x2="341.5" y2="398.607"/><line class="cls-2" x1="170.5" y1="335.71" x2="341.5" y2="335.71"/></g></svg>