<svg xmlns="http://www.w3.org/2000/svg" xmlns:xlink="http://www.w3.org/1999/xlink" viewBox="0 0 694 540"><defs><style>.cls-1{fill:none;}.cls-2{isolation:isolate;}.cls-3{fill:#f15a24;opacity:0.14;}.cls-11,.cls-15,.cls-18,.cls-4,.cls-6{fill:#ce471d;}.cls-14,.cls-4{opacity:0.2;mix-blend-mode:multiply;}.cls-5{fill:url(#radial-gradient);}.cls-22,.cls-6{opacity:0.4;}.cls-7{fill:url(#linear-gradient);}.cls-8{fill:#ff8f45;}.cls-9{fill:#fff;}.cls-10{fill:#ff5a5e;}.cls-11,.cls-17,.cls-24{opacity:0.3;}.cls-12{fill:#ffb654;}.cls-13{clip-path:url(#clip-path);}.cls-16{fill:url(#linear-gradient-2);}.cls-17,.cls-21,.cls-22,.cls-25{fill:#cd4927;}.cls-18,.cls-21{opacity:0.6;}.cls-19{fill:url(#linear-gradient-3);}.cls-20{fill:#ff7b34;}.cls-23{fill:url(#linear-gradient-4);}.cls-26,.cls-27,.cls-28{opacity:0.67;}.cls-26{fill:url(#radial-gradient-2);}.cls-27{fill:url(#radial-gradient-3);}.cls-28{fill:url(#radial-gradient-4);}</style><radialGradient id="radial-gradient" cx="333.873" cy="437.193" fy="460.3279226120241" r="92.362" gradientUnits="userSpaceOnUse"><stop offset="0" stop-color="#ffa736"/><stop offset="0.487" stop-color="#ff8f45"/><stop offset="0.984" stop-color="#ff8f45"/></radialGradient><linearGradient id="linear-gradient" x1="281.722" y1="141.059" x2="393.717" y2="358.26" gradientUnits="userSpaceOnUse"><stop offset="0.015" stop-color="#ffbd57"/><stop offset="0.341" stop-color="#ffa736"/><stop offset="0.611" stop-color="#ff8f45"/><stop offset="0.984" stop-color="#ff8f45"/></linearGradient><clipPath id="clip-path"><path class="cls-1" d="M257.774,129.212A19.684,19.684,0,0,0,238.091,148.9V345.734a19.684,19.684,0,0,0,19.684,19.684H273.9a3.564,3.564,0,0,0,3.564-3.564v-6.276h118.1v6.276a3.564,3.564,0,0,0,3.564,3.564h16.119a19.684,19.684,0,0,0,19.684-19.684V148.9a19.684,19.684,0,0,0-19.684-19.684H257.774Z"/></clipPath><linearGradient id="linear-gradient-2" x1="529.863" y1="217.79" x2="529.036" y2="386.536" xlink:href="#radial-gradient"/><linearGradient id="linear-gradient-3" x1="533.824" y1="353.533" x2="533.042" y2="178.403" gradientUnits="userSpaceOnUse"><stop offset="0" stop-color="#ffaf41"/><stop offset="0.466" stop-color="#ffa736"/><stop offset="1" stop-color="#ff8f45"/></linearGradient><linearGradient id="linear-gradient-4" x1="61.146" y1="275.924" x2="250.958" y2="275.924" xlink:href="#radial-gradient"/><radialGradient id="radial-gradient-2" cx="-543.859" cy="-1636.156" r="8.817" gradientTransform="translate(1011.548 1768.923)" gradientUnits="userSpaceOnUse"><stop offset="0" stop-color="#f7931e"/><stop offset="1" stop-color="#f15a24"/></radialGradient><radialGradient id="radial-gradient-3" cx="2562.413" cy="1293.757" r="8.817" gradientTransform="translate(1536.483 -2103.762) rotate(90)" xlink:href="#radial-gradient-2"/><radialGradient id="radial-gradient-4" cx="2280.586" cy="1081.35" r="12.33" gradientTransform="translate(1275.138 -2170.898) rotate(90)" xlink:href="#radial-gradient-2"/></defs><title>Transport</title><g class="cls-2"><g id="Isolation_Mode" data-name="Isolation Mode"><circle class="cls-3" cx="344.57" cy="270" r="256"/><rect class="cls-4" x="43.82" y="402.392" width="586" height="33.785" rx="16.893" ry="16.893"/><path class="cls-5" d="M412.118,409.268,380.8,355.576v-3.028H361.115v3.025l11.756,20.154H300.153l11.754-20.15h0v-3.029H292.221v3.03L260.9,409.269a3.564,3.564,0,0,0,3.079,5.36h11.432a3.565,3.565,0,0,0,3.079-1.769l4.981-8.538H389.551l4.979,8.536a3.564,3.564,0,0,0,3.078,1.768l11.43,0A3.564,3.564,0,0,0,412.118,409.268ZM288.67,395.411l6.284-10.773h83.115l6.284,10.773Z"/><path class="cls-6" d="M412.118,409.268,380.8,355.576v-3.028H361.115v3.025l11.756,20.154H300.153l11.754-20.15h0v-3.029H292.221v3.03L260.9,409.269a3.564,3.564,0,0,0,3.079,5.36h11.432a3.565,3.565,0,0,0,3.079-1.769l4.981-8.538H389.551l4.979,8.536a3.564,3.564,0,0,0,3.078,1.768l11.43,0A3.564,3.564,0,0,0,412.118,409.268ZM288.67,395.411l6.284-10.773h83.115l6.284,10.773Z"/><path class="cls-7" d="M257.774,129.212A19.684,19.684,0,0,0,238.091,148.9V345.734a19.684,19.684,0,0,0,19.684,19.684H273.9a3.564,3.564,0,0,0,3.564-3.564v-6.276h118.1v6.276a3.564,3.564,0,0,0,3.564,3.564h16.119a19.684,19.684,0,0,0,19.684-19.684V148.9a19.684,19.684,0,0,0-19.684-19.684H257.774Z"/><rect class="cls-8" x="238.089" y="168.579" width="196.837" height="118.103"/><path class="cls-9" d="M416.6,271.921H256.419a3.564,3.564,0,0,1-3.564-3.564V186.908a3.564,3.564,0,0,1,3.564-3.564H416.6a3.564,3.564,0,0,1,3.564,3.564v81.449A3.564,3.564,0,0,1,416.6,271.921Z"/><path class="cls-10" d="M304.268,119.371h64.487a3.565,3.565,0,0,1,3.188,1.97l3.559,7.118a3.562,3.562,0,0,1,.377,1.595v15.278a3.564,3.564,0,0,1-3.564,3.564H300.708a3.564,3.564,0,0,1-3.564-3.564V130.054a3.567,3.567,0,0,1,.376-1.594l3.56-7.119A3.566,3.566,0,0,1,304.268,119.371Z"/><path class="cls-11" d="M375.5,128.459l-3.559-7.118a3.565,3.565,0,0,0-3.188-1.971H356.873a3.565,3.565,0,0,1,3.188,1.97l3.559,7.118a3.561,3.561,0,0,1,.377,1.594V145.33a3.564,3.564,0,0,1-3.564,3.564h11.882a3.564,3.564,0,0,0,3.564-3.564V130.053A3.577,3.577,0,0,0,375.5,128.459Z"/><path class="cls-12" d="M336.51,133.667a4.455,4.455,0,0,0,4.456-4.456v-9.841h-8.911v9.84A4.456,4.456,0,0,0,336.51,133.667Z"/><path class="cls-12" d="M434.93,340.349v-8.911H368.421l-8.52-12.779a4.454,4.454,0,0,0-3.707-1.984H316.826a4.454,4.454,0,0,0-3.707,1.984L304.6,331.438H238.091v8.911h68.894a4.454,4.454,0,0,0,3.707-1.984l8.519-12.779h34.6l8.52,12.779a4.454,4.454,0,0,0,3.707,1.984Z"/><circle class="cls-9" cx="282.21" cy="306.028" r="11.03"/><circle class="cls-9" cx="390.811" cy="306.028" r="11.03"/><g class="cls-13"><g class="cls-14"><path class="cls-15" d="M441.8,391.187c.245.064.736.181.736.181h6.16V408.8a5.031,5.031,0,0,0,5.016,5.016h24.973A5.03,5.03,0,0,0,483.7,408.8V391.368H549.44V408.8a5.031,5.031,0,0,0,5.016,5.016h24.973a5.03,5.03,0,0,0,5.016-5.016V391.368h6.421l.252-.075c13.211-3.985,21.348-12.8,24.354-26.28a37.755,37.755,0,0,0,.687-8.088l-199.282-.145C416.677,375.252,428.84,387.816,441.8,391.187Z"/><path class="cls-15" d="M638.793,220.008c.207-10.454-5.69-14.521-15.591-14.553-2.549-.008-7.676,0-7.676,0a29.178,29.178,0,0,0-29.169-29.283c-39.688-.01-108.765-.021-136.2.017a33.957,33.957,0,0,0-32.872,26.4c-.2.854-.381,1.713-.636,2.868-2.463,0-5,0-7.529,0-8.088.011-15.354,3.455-15.781,11.919v51.749c.427,10.649,9.023,12.229,14.942,12.328,2.611.043,5.224.007,8.1.007V284.5c0,24.093-.063,72.278-.063,72.278h69.192c-.017-.174-.027-.349-.027-.528v-7.968a5.535,5.535,0,0,1,5.535-5.535h50.038a5.535,5.535,0,0,1,5.535,5.535v7.968c0,.178-.01.354-.027.528H615.6s.029-48.089.029-72.206V281.46c2.662,0,5.111.019,7.559,0,9.818-.091,15.609-5.1,15.431-16.914C638.613,264.318,638.787,220.3,638.793,220.008ZM510.081,309.663m94.889.045H550.323l.057-.056h-3.813l32.262-30.828a3.415,3.415,0,1,0-4.719-4.937L536.68,309.653h-1.81c-.01.019-.024.036-.034.056H520.851v-.056h-2.915V231.107h86.707v.209h.328Z"/></g><path class="cls-4" d="M288.135,228.792h-12.9a4.535,4.535,0,0,0-4.535,4.535v15.66l-6.447,3.368L253.1,175.2a9.122,9.122,0,0,0-9.042-7.912H104.042A9.122,9.122,0,0,0,95,175.2L83.879,252.161l-5.98-3.124v-15.71a4.535,4.535,0,0,0-4.535-4.535h-12.9a4.535,4.535,0,0,0-4.535,4.535v31.138A4.535,4.535,0,0,0,60.465,269h12.9a4.535,4.535,0,0,0,4.535-4.535v-6.292l4.752,2.483-3.505,24.261V354.56l3.744,9.131V406.5a8.623,8.623,0,0,0,8.6,8.6h17.835a8.623,8.623,0,0,0,8.6-8.6v-21H225.89v21a8.623,8.623,0,0,0,8.6,8.6h17.835a8.623,8.623,0,0,0,8.6-8.6V374.157l8.036-19.6V284.917l-3.478-24.066,5.22-2.727v6.342A4.535,4.535,0,0,0,275.235,269h12.9a4.535,4.535,0,0,0,4.535-4.535V233.327A4.535,4.535,0,0,0,288.135,228.792Z"/></g><path class="cls-16" d="M641.036,206.273c-2.549-.008-5.1,0-7.675,0-.261-.873-1.5,2.1-2.734,3.294a14.832,14.832,0,0,1-3.195,2.555,14.529,14.529,0,0,1-4.31,1.167c-.065,0-.13-.008-.2-.01,0,.058.006.094.009.127-6.372,1.9-9.565-.01-14.67-2.562-3.077-1.539-5.111,1.917-10.222,1.917a12.354,12.354,0,0,1-10.222-5.111c-2.822-3.528-1.278-13.416-1.278-13.416-7.028,1.278-11.5-7.028-11.5-7.028h0a8.636,8.636,0,0,1-1.278-3.194c-.621-2.429.174-4.857,1.3-7.013-39.526-.041-67.552-.047-107.078.008a33.957,33.957,0,0,0-32.872,26.4c-.2.855-.381,1.713-.636,2.868-2.463,0-5,0-7.529,0-8.088.011-12.931,3.594-15.381,11.359a2.247,2.247,0,0,1-.4.559V269.94a36.381,36.381,0,0,0,1.7,4.422c2.816,5.256,7.325,7.808,13.243,7.906,2.612.043,5.224.007,8.1.007v3.044c0,24.093.2,48.188-.063,72.278-.2,18.473,11.963,31.036,24.924,34.407.245.064.736.181.736.181h6.16v17.428a5.031,5.031,0,0,0,5.016,5.016h24.972a5.031,5.031,0,0,0,5.016-5.016V392.186h65.739v17.428a5.031,5.031,0,0,0,5.016,5.016H596.7a5.031,5.031,0,0,0,5.016-5.016V392.186h6.421l.252-.075c13.211-3.985,21.348-12.8,24.354-26.28a37.753,37.753,0,0,0,.688-8.088q.075-36.176.029-72.352v-3.113c2.662,0,5.111.019,7.559,0C650.836,282.183,650.937,206.3,641.036,206.273ZM527.915,310.481h-70.66l25.667-25.068a5.55,5.55,0,0,0-7.756-7.941l-30.309,29.6v-74.9h83.057Zm94.889.045H568.157l27.462-26.82a5.55,5.55,0,1,0-7.756-7.941l-34.15,33.352a5.543,5.543,0,0,0-1.043,1.409H538.685V232.134H622.8Z"/><path class="cls-17" d="M434.149,357.6c-.2,18.473,11.963,31.036,24.924,34.407.245.064.736.181.736.181h6.16v17.428a5.031,5.031,0,0,0,5.016,5.016h24.972a5.031,5.031,0,0,0,5.016-5.016V392.186h65.739v17.428a5.031,5.031,0,0,0,5.016,5.016H596.7a5.031,5.031,0,0,0,5.016-5.016V392.186h6.421l.252-.075c13.211-3.985,21.348-12.8,24.354-26.28a37.753,37.753,0,0,0,.688-8.088Z"/><path class="cls-18" d="M465.968,392.186v17.428a5.031,5.031,0,0,0,5.016,5.016h24.972a5.031,5.031,0,0,0,5.016-5.016V392.186h65.739v17.428a5.031,5.031,0,0,0,5.016,5.016H596.7a5.031,5.031,0,0,0,5.016-5.016V392.186H465.968Z"/><rect class="cls-9" x="444.333" y="231.925" width="86.707" height="78.546"/><rect class="cls-9" x="535.208" y="231.925" width="86.707" height="78.546"/><path class="cls-19" d="M640.474,206.273c-2.549-.008-7.675,0-7.675,0h0a29.178,29.178,0,0,0-29.169-29.283c-39.688-.01-108.765-.021-136.2.017a33.957,33.957,0,0,0-32.872,26.4c-.2.855-.381,1.713-.636,2.868-2.463,0-5,0-7.529,0-8.088.011-15.354,3.455-15.781,11.919V269.94c.427,10.649,9.023,12.229,14.942,12.328,2.612.043,5.224.007,8.1.007v3.044c0,24.093-.063,72.278-.063,72.278h69.192c-.017-.174-.027-.35-.027-.528V349.1a5.535,5.535,0,0,1,5.535-5.535h50.038a5.535,5.535,0,0,1,5.535,5.535v7.968c0,.178-.01.354-.027.528h69.036s.029-48.089.029-72.206v-3.113c2.662,0,5.111.019,7.559,0,9.818-.091,15.609-5.1,15.432-16.914,0-.225.171-44.241.177-44.534C656.272,210.372,650.375,206.3,640.474,206.273Zm-109.435,104.2h-3.686v.01h-70.66l.01-.01H452.85l32.262-30.828a3.418,3.418,0,0,0-.371-5.248,3.527,3.527,0,0,0-4.467.425l-35.94,34.342v-2.124l-.037.036v-74.9h.037v-.248h86.707Zm91.2.055H567.6l.057-.055h-3.813L596.1,279.643a3.415,3.415,0,0,0-4.719-4.937l-37.429,35.765h-1.809c-.01.019-.024.036-.034.055H538.123v-.055h-2.915V231.925h86.707v.209h.328Z"/><path class="cls-10" d="M640.474,206.273c-2.549-.008-7.675,0-7.675,0h0c.055-16.154.1,76.006.1,76.006s5.111.019,7.559,0c9.818-.091,15.609-5.1,15.432-16.914,0-.225.171-44.241.177-44.534C656.272,210.372,650.375,206.3,640.474,206.273Z"/><path class="cls-10" d="M433.92,206.272s-5,0-7.529,0c-8.088.011-15.354,3.455-15.781,11.919V269.94c.427,10.649,9.023,12.229,14.942,12.328,2.612.043,8.1.007,8.1.007Z"/><path class="cls-9" d="M490.618,339.468c-.03,5.3-4.216,9.709-9.222,9.707s-9.157-4.381-9.189-9.721c-.033-5.43,4.214-9.9,9.323-9.818C486.55,329.719,490.648,334.153,490.618,339.468Z"/><path class="cls-9" d="M575.929,339.3c.046-5.312,4.24-9.693,9.252-9.666,5.035.028,9.144,4.4,9.154,9.749.01,5.433-4.265,9.907-9.356,9.791C579.955,349.06,575.883,344.617,575.929,339.3Z"/><path class="cls-1" d="M622.242,232.134h-84.12v78.392h84.12Z"/><path class="cls-1" d="M527.353,232.173H444.3v78.308h83.057Z"/><rect class="cls-20" x="242.349" y="247.637" width="26.076" height="8.098" transform="translate(-87.511 146.855) rotate(-27.582)"/><rect class="cls-20" x="44.08" y="247.637" width="26.076" height="8.098" transform="translate(-8.793 501.214) rotate(-152.418)"/><rect class="cls-17" x="242.349" y="247.637" width="26.076" height="8.098" transform="translate(-87.511 146.855) rotate(-27.582)"/><rect class="cls-17" x="44.08" y="247.637" width="26.076" height="8.098" transform="translate(-8.793 501.214) rotate(-152.418)"/><rect class="cls-21" x="242.349" y="247.637" width="26.076" height="8.098" transform="translate(-87.511 146.855) rotate(-27.582)"/><rect class="cls-21" x="44.08" y="247.637" width="26.076" height="8.098" transform="translate(-8.793 501.214) rotate(-152.418)"/><rect class="cls-20" x="64.89" y="341.125" width="35.032" height="73.504" rx="8.598" ry="8.598"/><rect class="cls-22" x="64.89" y="341.125" width="35.032" height="73.504" rx="8.598" ry="8.598"/><rect class="cls-20" x="207.89" y="341.125" width="35.032" height="73.504" rx="8.598" ry="8.598"/><rect class="cls-22" x="207.89" y="341.125" width="35.032" height="73.504" rx="8.598" ry="8.598"/><path class="cls-23" d="M231.83,385.03H80.274a9.6,9.6,0,0,1-8.887-5.961L61.146,354.094V284.451L77,174.73a9.122,9.122,0,0,1,9.041-7.912h140.02a9.122,9.122,0,0,1,9.041,7.912l15.855,109.721v69.643l-10.241,24.975A9.6,9.6,0,0,1,231.83,385.03Z"/><path class="cls-17" d="M222.83,378.854c-10.443-18.068-22.451-17.5-22.451-17.5H111.72s-12-.565-22.451,17.5H71.218s2.467,6.176,8.67,6.176H232.216c6.321,0,8.67-6.176,8.67-6.176H222.83Z"/><path class="cls-9" d="M87.269,278.867a8.466,8.466,0,0,1-8.352-9.84l8.8-53.429a8.439,8.439,0,0,1,8.352-7.089H216.032a8.439,8.439,0,0,1,8.352,7.087l8.8,53.43a8.465,8.465,0,0,1-8.352,9.84Z"/><path class="cls-10" d="M216.032,211.329a5.646,5.646,0,0,1,5.57,4.727l8.8,53.429a5.646,5.646,0,0,1-5.57,6.564H87.269a5.646,5.646,0,0,1-5.57-6.564l8.8-53.429a5.646,5.646,0,0,1,5.571-4.727H216.032m0-5.638H96.072a11.244,11.244,0,0,0-11.134,9.449l-8.8,53.429a11.284,11.284,0,0,0,11.133,13.118H224.835a11.284,11.284,0,0,0,11.133-13.118l-8.8-53.429a11.244,11.244,0,0,0-11.133-9.449Z"/><rect class="cls-20" x="37.93" y="228.327" width="21.97" height="40.208" rx="4.535" ry="4.535"/><rect class="cls-20" x="252.701" y="228.327" width="21.97" height="40.208" rx="4.535" ry="4.535"/><rect class="cls-22" x="37.93" y="228.327" width="21.97" height="40.208" rx="4.535" ry="4.535"/><rect class="cls-22" x="252.701" y="228.327" width="21.97" height="40.208" rx="4.535" ry="4.535"/><path class="cls-9" d="M106.949,346.973l-24.666-2.667a16.187,16.187,0,0,1-14.448-16.094V315.325a7.944,7.944,0,0,1,11.781-6.955l18.875,10.414s-1.4,4.741,1.313,13.775C102.934,342.986,106.949,346.973,106.949,346.973Z"/><path class="cls-9" d="M205.966,346.973l24.666-2.667a16.187,16.187,0,0,0,14.448-16.094V315.325A7.944,7.944,0,0,0,233.3,308.37l-18.875,10.414s1.4,4.741-1.313,13.775C209.981,342.986,205.966,346.973,205.966,346.973Z"/><path class="cls-17" d="M104.429,318.916H207.675a0,0,0,0,1,0,0v0a35.9,35.9,0,0,1-35.9,35.9H140.327a35.9,35.9,0,0,1-35.9-35.9v0a0,0,0,0,1,0,0Z"/><g class="cls-24"><path class="cls-25" d="M193.774,326.192H118.339a3.371,3.371,0,1,0,0,6.742h75.425a3.371,3.371,0,0,0,.009-6.742Z"/><path class="cls-25" d="M185.317,339.649H128.206a3.371,3.371,0,0,0,0,6.742h57.1a3.371,3.371,0,0,0,.009-6.742Z"/></g><circle class="cls-26" cx="467.495" cy="134.508" r="3.87" transform="translate(41.815 369.966) rotate(-45)"/><circle class="cls-27" cx="240.985" cy="458.457" r="3.87" transform="translate(-253.595 304.681) rotate(-45)"/><circle class="cls-28" cx="191.353" cy="109.418" r="5.412" transform="translate(-21.324 167.355) rotate(-45)"/></g></g></svg>