<svg id="Icons-Home" xmlns="http://www.w3.org/2000/svg" xmlns:xlink="http://www.w3.org/1999/xlink" viewBox="0 0 512 512"><defs><style>.cls-1{fill:#f15a24;opacity:0.14;}.cls-2{fill:url(#linear-gradient);}.cls-3{fill:#cd4927;opacity:0.3;}.cls-4{fill:#fff;}.cls-5{fill:url(#linear-gradient-2);}.cls-6{fill:none;}.cls-7{fill:#f97e48;opacity:0.4;}</style><linearGradient id="linear-gradient" x1="251.694" y1="150.384" x2="250.67" y2="359.373" gradientUnits="userSpaceOnUse"><stop offset="0" stop-color="#ffa736"/><stop offset="0.487" stop-color="#ff8f45"/><stop offset="0.984" stop-color="#ff8f45"/></linearGradient><linearGradient id="linear-gradient-2" x1="256.6" y1="318.499" x2="255.631" y2="101.602" gradientUnits="userSpaceOnUse"><stop offset="0" stop-color="#ffaf41"/><stop offset="0.466" stop-color="#ffa736"/><stop offset="1" stop-color="#ff8f45"/></linearGradient></defs><title>Available-buses</title><g id="Available_buses" data-name="Available buses"><circle id="Background-Orange" class="cls-1" cx="256" cy="256" r="256"/><g id="Available-buses"><g id="Available-buses-2" data-name="Available-buses"><path class="cls-2" d="M389.38,136.12c-3.157-.01-6.314,0-9.506,0-.324-1.081-1.852,2.6-3.386,4.079a18.37,18.37,0,0,1-3.956,3.165,17.994,17.994,0,0,1-5.338,1.445c-.081,0-.161-.01-.242-.012,0,.071.007.117.011.158-7.891,2.358-11.847-.012-18.168-3.173-3.811-1.906-6.33,2.374-12.66,2.374-5.6,0-9.495-2.374-12.66-6.33-3.5-4.369-1.582-16.616-1.582-16.616-8.7,1.583-14.242-8.7-14.242-8.7h0a10.7,10.7,0,0,1-1.582-3.956c-.769-3.008.216-6.015,1.612-8.685-48.953-.051-83.663-.058-132.615.01a42.055,42.055,0,0,0-40.711,32.693c-.245,1.058-.471,2.122-.788,3.552-3.051,0-6.188,0-9.325,0-10.017.014-16.015,4.451-19.05,14.068a2.783,2.783,0,0,1-.495.693V214.97a45.057,45.057,0,0,0,2.1,5.476c3.487,6.51,9.072,9.67,16.4,9.792,3.234.054,6.47.009,10.03.009v3.77c0,29.839.244,59.68-.078,89.515-.248,22.878,14.816,38.438,30.868,42.613.3.079.911.225.911.225h7.629v21.584a6.23,6.23,0,0,0,6.212,6.212H209.7a6.23,6.23,0,0,0,6.212-6.212V366.37h81.417v21.584a6.23,6.23,0,0,0,6.212,6.212h30.928a6.23,6.23,0,0,0,6.212-6.212V366.37h7.952l.312-.093c16.362-4.935,26.439-15.856,30.162-32.547a46.756,46.756,0,0,0,.852-10.017q.093-44.8.036-89.606v-3.855c3.3,0,6.33.024,9.361,0C401.518,230.133,401.642,136.159,389.38,136.12Zm-140.1,129.06H161.771l31.789-31.046a6.873,6.873,0,0,0-9.605-9.834L146.417,260.96V168.2H249.282Zm117.519.056h-67.68l34.011-33.217a6.873,6.873,0,0,0-9.605-9.834l-42.295,41.307a6.865,6.865,0,0,0-1.292,1.745H262.62V168.148H366.8Z"/><path class="cls-3" d="M133.153,323.532c-.248,22.878,14.816,38.438,30.868,42.613.3.079.911.225.911.225h7.629v21.584a6.23,6.23,0,0,0,6.212,6.212H209.7a6.23,6.23,0,0,0,6.212-6.212V366.37h81.417v21.584a6.23,6.23,0,0,0,6.212,6.212h30.928a6.23,6.23,0,0,0,6.212-6.212V366.37h7.952l.312-.093c16.362-4.935,26.439-15.856,30.162-32.547a46.756,46.756,0,0,0,.852-10.017Z"/><rect class="cls-4" x="145.766" y="167.889" width="107.385" height="97.278"/><rect class="cls-4" x="258.314" y="167.889" width="107.385" height="97.278"/><path class="cls-5" d="M388.684,136.12c-3.157-.01-9.506,0-9.506,0h0a36.137,36.137,0,0,0-36.126-36.267c-49.153-.013-134.7-.026-168.684.021a42.055,42.055,0,0,0-40.711,32.693c-.245,1.058-.471,2.122-.788,3.552-3.051,0-6.188,0-9.325,0-10.017.014-19.016,4.279-19.545,14.761V214.97c.529,13.189,11.175,15.146,18.505,15.268,3.234.054,6.47.009,10.03.009v3.77c0,29.839-.078,89.515-.078,89.515H218.15c-.021-.215-.033-.433-.033-.654V313.01a6.855,6.855,0,0,1,6.855-6.855h61.971a6.855,6.855,0,0,1,6.855,6.855v9.869c0,.221-.013.438-.033.654h85.5s.036-59.558.036-89.426v-3.855c3.3,0,6.33.024,9.361,0,12.159-.113,19.331-6.317,19.112-20.948,0-.279.212-54.791.219-55.155C408.25,141.2,400.946,136.159,388.684,136.12ZM253.151,265.167h-4.565v.013H161.075l.013-.013h-4.773l39.956-38.18a4.233,4.233,0,0,0-.46-6.5,4.369,4.369,0,0,0-5.533.527l-44.511,42.533v-2.631l-.046.045V168.2h.046v-.307H253.151Zm112.954.069h-67.68l.07-.069h-4.723l39.956-38.18a4.229,4.229,0,0,0-5.844-6.115l-46.355,44.295h-2.241c-.012.024-.03.045-.043.069H261.924v-.069h-3.61V167.889H365.7v.259h.406Z"/><path class="cls-3" d="M388.684,136.12c-3.157-.01-9.506,0-9.506,0h0c.068-20.006.123,94.132.123,94.132s6.33.024,9.361,0c12.159-.113,19.331-6.317,19.112-20.948,0-.279.212-54.791.219-55.155C408.25,141.2,400.946,136.159,388.684,136.12Z"/><path class="cls-3" d="M132.87,136.118s-6.188,0-9.325,0c-10.017.014-19.016,4.279-19.545,14.761V214.97c.529,13.189,11.175,15.146,18.505,15.268,3.234.054,10.03.009,10.03.009Z"/><path class="cls-4" d="M203.09,301.08c-.037,6.567-5.221,12.024-11.421,12.022s-11.341-5.426-11.381-12.039c-.041-6.725,5.219-12.264,11.546-12.16C198.051,289.005,203.127,294.5,203.09,301.08Z"/><path class="cls-4" d="M308.746,300.873c.057-6.578,5.251-12,11.458-11.971,6.236.034,11.324,5.453,11.337,12.074.013,6.728-5.282,12.269-11.587,12.125C313.732,312.959,308.689,307.457,308.746,300.873Z"/><path class="cls-6" d="M366.1,168.148H261.924v97.088H366.1Z"/><path class="cls-6" d="M248.586,168.2H145.72v96.983H248.586Z"/><rect class="cls-7" x="125.584" y="376.676" width="261.416" height="35.501" rx="17.75" ry="17.75"/></g></g></g></svg>