<svg id="Icons-Home" xmlns="http://www.w3.org/2000/svg" xmlns:xlink="http://www.w3.org/1999/xlink" viewBox="0 0 512 512"><defs><style>.cls-1{fill:none;}.cls-2{fill:#f15a24;opacity:0.14;}.cls-3{fill:url(#linear-gradient);}.cls-4{fill:#fff;}.cls-5{fill:#ff7b34;}.cls-6{fill:#ffb654;}.cls-7,.cls-9{fill:#cd4927;}.cls-7,.cls-8{opacity:0.3;}.cls-10{clip-path:url(#clip-path);}.cls-11{fill:#ffc263;}.cls-12{fill:#f97e48;opacity:0.47;}</style><linearGradient id="linear-gradient" x1="106.319" y1="224.133" x2="420.224" y2="224.133" gradientUnits="userSpaceOnUse"><stop offset="0" stop-color="#ffa736"/><stop offset="0.487" stop-color="#ff8f45"/><stop offset="0.984" stop-color="#ff8f45"/></linearGradient><clipPath id="clip-path"><path class="cls-1" d="M362.5,138.389a43.438,43.438,0,0,0-31.381-21.095c-29.64-3.931-120.8-3.9-150.228,0a43.438,43.438,0,0,0-31.381,21.095,402.812,402.812,0,0,0-22.043,45.157q-2.18,5.13-4.329,10.459h.015l0,.01a1693.535,1693.535,0,0,0,265.6,0C380.1,172.365,371.28,153.46,362.5,138.389Z"/></clipPath></defs><title>Carpool_Orange</title><g id="Carpool_Orange"><circle id="Background-Orange" class="cls-2" cx="256" cy="256" r="256"/><g id="Carpool"><path class="cls-3" d="M422.121,255.73A50.06,50.06,0,0,0,411.654,227.8c-13.971-18.19-16.694-32.63-16.694-32.63-10.969-28.743-20.721-47.894-27.888-60.049a48.158,48.158,0,0,0-35.29-23.253c-29.576-3.824-122.009-3.824-151.585,0a48.218,48.218,0,0,0-35.279,23.253c-7.167,12.155-16.908,31.306-27.888,60.049,0,0-2.724,14.441-16.694,32.63A50.048,50.048,0,0,0,89.878,255.73C88.821,277.744,95.2,282.582,100.9,332.4a7.747,7.747,0,0,0,7.712,6.868H403.4a7.756,7.756,0,0,0,7.712-6.868c1.6-13.971,6.355-42.307,6.355-42.307C421.63,276,422.538,264.521,422.121,255.73Z"/><path class="cls-4" d="M376.2,219.052a48.789,48.789,0,0,0-9.143,4.016,112.373,112.373,0,0,1-14.825,7.1c-8.5,3.226-9.944,8.043-9.944,8.043-.256.331-.5.662-.737,1-6.451,9.581,2.019,22.334,13.458,20.71a164.17,164.17,0,0,0,37.1-9.912,13.3,13.3,0,0,0,8.075-9.057c.1-.4.182-.79.256-1.175C402.981,226.069,389.523,214.9,376.2,219.052Z"/><path class="cls-5" d="M393.881,295.816h-18.4a3.111,3.111,0,0,0-2.2,5.308l18.4,18.4a3.112,3.112,0,0,0,5.308-2.2v-18.4A3.1,3.1,0,0,0,393.881,295.816Z"/><path class="cls-5" d="M411.109,332.377a7.767,7.767,0,0,1-7.722,6.889H367.979v20.55A13.181,13.181,0,0,0,381.16,373H403.4a13.181,13.181,0,0,0,13.18-13.18V295.485C415.115,304.393,412.273,322.2,411.109,332.377Z"/><path class="cls-5" d="M426.639,179.628a10.614,10.614,0,0,0-10.467-8.032h-8.887A10.307,10.307,0,0,0,396.978,181.9v6.334h-4.71l2.7,6.419h10.361a37.321,37.321,0,0,0,15.541-3.386A10.3,10.3,0,0,0,426.639,179.628Z"/><circle class="cls-6" cx="382.036" cy="235.65" r="12.956"/><circle class="cls-6" cx="355.974" cy="245.872" r="9.517"/><polygon class="cls-5" points="331.311 245.882 316.433 271.795 195.567 271.795 180.688 245.882 331.311 245.882"/><polygon class="cls-7" points="331.311 245.882 316.433 271.795 195.567 271.795 180.688 245.882 331.311 245.882"/><path class="cls-4" d="M170.434,239.217c-.224-.342-.47-.673-.737-1,0,0-1.442-4.817-9.944-8.043a113.02,113.02,0,0,1-14.825-7.1,49.1,49.1,0,0,0-9.143-4.016c-13.309-4.166-26.777,7.017-24.246,20.732.075.4.16.78.246,1.175a13.3,13.3,0,0,0,8.075,9.057,164.131,164.131,0,0,0,37.106,9.912C168.415,261.551,176.885,248.8,170.434,239.217Z"/><path class="cls-5" d="M136.522,295.816h-18.4a3.1,3.1,0,0,0-3.108,3.108v18.4a3.112,3.112,0,0,0,5.308,2.2l18.4-18.4A3.112,3.112,0,0,0,136.522,295.816Z"/><path class="cls-5" d="M378.532,327.934c-19.162-33.154-41.2-32.118-41.2-32.118H174.653s-22.024-1.036-41.2,32.118H100.335l.406,4.272a7.768,7.768,0,0,0,7.744,7.06H403.515a7.768,7.768,0,0,0,7.744-7.06l.406-4.272H378.532Z"/><path class="cls-7" d="M378.532,327.934c-19.162-33.154-41.2-32.118-41.2-32.118H174.653s-22.024-1.036-41.2,32.118H100.335l.406,4.272a7.768,7.768,0,0,0,7.744,7.06H403.515a7.768,7.768,0,0,0,7.744-7.06l.406-4.272H378.532Z"/><path class="cls-5" d="M108.612,339.277a7.776,7.776,0,0,1-7.722-6.889c-1.164-10.179-4.016-27.995-5.469-36.892v64.332a13.181,13.181,0,0,0,13.18,13.18H130.84a13.181,13.181,0,0,0,13.18-13.18v-20.55Z"/><path class="cls-5" d="M115.01,188.237V181.9a10.3,10.3,0,0,0-10.3-10.307H95.827a10.614,10.614,0,0,0-10.467,8.032,10.3,10.3,0,0,0,5.768,11.632,37.358,37.358,0,0,0,15.541,3.386h10.361l2.7-6.419H115.01Z"/><circle class="cls-6" cx="129.953" cy="235.65" r="12.956"/><circle class="cls-6" cx="156.036" cy="245.872" r="9.517"/><g class="cls-8"><path class="cls-9" d="M324.881,304.884H187.118a3.9,3.9,0,0,0,0,7.8H324.871a3.9,3.9,0,0,0,.011-7.8Z"/><path class="cls-9" d="M324.881,320.447H187.118a3.9,3.9,0,0,0,0,7.8H324.871a3.9,3.9,0,0,0,.011-7.8Z"/></g><path class="cls-4" d="M362.5,138.389a43.438,43.438,0,0,0-31.381-21.095c-29.64-3.931-120.8-3.9-150.228,0a43.438,43.438,0,0,0-31.381,21.095,402.812,402.812,0,0,0-22.043,45.157q-2.18,5.13-4.329,10.459h.015l0,.01a1693.535,1693.535,0,0,0,265.6,0C380.1,172.365,371.28,153.46,362.5,138.389Z"/><path class="cls-2" d="M362.5,138.389a43.438,43.438,0,0,0-31.381-21.095c-29.64-3.931-120.8-3.9-150.228,0a43.438,43.438,0,0,0-31.381,21.095,402.812,402.812,0,0,0-22.043,45.157q-2.18,5.13-4.329,10.459h.015l0,.01a1693.535,1693.535,0,0,0,265.6,0C380.1,172.365,371.28,153.46,362.5,138.389Z"/><path class="cls-2" d="M362.5,138.389a43.438,43.438,0,0,0-31.381-21.095c-29.64-3.931-120.8-3.9-150.228,0a43.438,43.438,0,0,0-31.381,21.095,402.812,402.812,0,0,0-22.043,45.157q-2.18,5.13-4.329,10.459h.015l0,.01a1693.535,1693.535,0,0,0,265.6,0C380.1,172.365,371.28,153.46,362.5,138.389Z"/><g class="cls-10"><path class="cls-11" d="M255.791,166.657h0A33.941,33.941,0,0,1,289.732,200.6v.254a6.622,6.622,0,0,1-6.622,6.622H228.217a6.622,6.622,0,0,1-6.622-6.622v0A34.2,34.2,0,0,1,255.791,166.657Z"/><circle class="cls-11" cx="253.978" cy="145.157" r="19.797"/><path class="cls-4" d="M318.14,173.5h0a37.317,37.317,0,0,1,37.317,37.317v.28a7.28,7.28,0,0,1-7.28,7.28H287.823a7.28,7.28,0,0,1-7.28-7.28v0a37.6,37.6,0,0,1,37.6-37.6Z"/><circle class="cls-4" cx="316.146" cy="149.866" r="21.766"/><path class="cls-4" d="M192.847,173.5h0a37.317,37.317,0,0,1,37.317,37.317v.28a7.28,7.28,0,0,1-7.28,7.28H162.53a7.28,7.28,0,0,1-7.28-7.28v0A37.6,37.6,0,0,1,192.847,173.5Z"/><circle class="cls-4" cx="190.853" cy="149.866" r="21.766"/></g><rect class="cls-12" x="80.75" y="368" width="350.5" height="18" rx="9" ry="9"/></g></g></svg>