<svg id="Icons-Home" xmlns="http://www.w3.org/2000/svg" xmlns:xlink="http://www.w3.org/1999/xlink" viewBox="0 0 512 512"><defs><style>.cls-1{fill:#f15a24;}.cls-1,.cls-2{opacity:0.14;}.cls-2{fill:#ce471d;}.cls-3{fill:#fff;}.cls-4{fill:#ffb654;}.cls-5{fill:url(#radial-gradient);}</style><radialGradient id="radial-gradient" cx="228.218" cy="135.062" r="148.599" gradientUnits="userSpaceOnUse"><stop offset="0" stop-color="#ffa736"/><stop offset="0.487" stop-color="#ff8f45"/><stop offset="0.984" stop-color="#ff8f45"/></radialGradient></defs><title>Destinations</title><g id="Destinations"><circle id="Background-Orange" class="cls-1" cx="256" cy="256" r="256"/><g id="Destinations-2" data-name="Destinations"><path class="cls-2" d="M129.659,301.971H381.324a11.746,11.746,0,0,1,10.891,7.346l41.343,102.342A11.746,11.746,0,0,1,422.667,427.8H89.333A11.746,11.746,0,0,1,78.4,411.753l40.326-102.342A11.746,11.746,0,0,1,129.659,301.971Z"/><path class="cls-3" d="M129.659,281.971H381.324a11.746,11.746,0,0,1,10.891,7.346l41.343,102.342A11.746,11.746,0,0,1,422.667,407.8H89.333A11.746,11.746,0,0,1,78.4,391.753l40.326-102.342A11.746,11.746,0,0,1,129.659,281.971Z"/><path class="cls-4" d="M385.08,378.888c-21-19-56.025-19.5-63.382-19.911-14.669-.749-28.939-.639-43.158-.572-14.206.089-28.316.23-42.365.006s-28.037-.784-41.818-2.376a178.766,178.766,0,0,1-20.368-3.452A81.038,81.038,0,0,1,155,345.834a45.819,45.819,0,0,1-15.218-12.518,38.351,38.351,0,0,1-7.42-18.389,58.292,58.292,0,0,1,1.249-20.609,84.192,84.192,0,0,1,3.882-12.347h-.807c-.314.626-.626,1.253-.927,1.885a83.177,83.177,0,0,0-3.965,9.961,61.1,61.1,0,0,0-3.187,21.44,43.1,43.1,0,0,0,6.513,21.259,47.108,47.108,0,0,0,7.172,8.794,61.112,61.112,0,0,0,8.858,7.006,89.176,89.176,0,0,0,20.24,9.326A188.8,188.8,0,0,0,192.54,367.2c14.2,2.931,28.484,4.755,42.72,6.265s28.452,2.613,42.563,3.778c14.092,1.18,59.215,2.607,71.257,14.648,8,8,6.541,15.917,6.541,15.917h46.638A60.042,60.042,0,0,0,385.08,378.888Z"/><path class="cls-2" d="M294,324.066c0-8.645-17.014-14.3-38-14.3s-38,7.008-38,15.653,17.014,15.655,38,15.655,38-8.362,38-17.009Zm0,0"/><path class="cls-5" d="M256,84.2c-65.162,0-105.888,70.54-73.306,126.97l68.431,111.06a5.726,5.726,0,0,0,9.75,0l68.434-111.06C361.886,154.735,321.164,84.2,256,84.2ZM256,213a44,44,0,1,1,44-44A44,44,0,0,1,256,213Z"/></g></g></svg>