<svg id="Icons-Home" xmlns="http://www.w3.org/2000/svg" xmlns:xlink="http://www.w3.org/1999/xlink" viewBox="0 0 512 512"><defs><style>.cls-1{fill:none;}.cls-2{fill:#f15a24;opacity:0.14;}.cls-3{fill:url(#radial-gradient);}.cls-4{fill:#ff8d45;}.cls-5,.cls-9{fill:#cc471d;}.cls-5,.cls-8{opacity:0.4;}.cls-6{fill:url(#linear-gradient);}.cls-7{fill:#fff;}.cls-10{fill:url(#linear-gradient-2);}.cls-11{fill:url(#radial-gradient-2);}.cls-12{clip-path:url(#clip-path);}.cls-13{fill:url(#linear-gradient-3);}.cls-14{fill:url(#radial-gradient-3);}</style><radialGradient id="radial-gradient" cx="320.876" cy="111.864" r="48.051" gradientUnits="userSpaceOnUse"><stop offset="0" stop-color="#fdad41"/><stop offset="0.466" stop-color="#ffa436"/><stop offset="1" stop-color="#ff8d45"/></radialGradient><linearGradient id="linear-gradient" x1="198.869" y1="289.006" x2="80.987" y2="363.53" gradientTransform="translate(-154.924 122.951) rotate(-32.515)" xlink:href="#radial-gradient"/><linearGradient id="linear-gradient-2" x1="217.331" y1="251.029" x2="264.962" y2="179.892" xlink:href="#radial-gradient"/><radialGradient id="radial-gradient-2" cx="328.06" cy="231.626" r="104.309" xlink:href="#radial-gradient"/><clipPath id="clip-path"><path class="cls-1" d="M365.75,399.9l-18.558-70.669a15.814,15.814,0,0,0-.73-2.142l-23.5-64.062,8.97-77.123c.336-4.544.132-9.07-2.3-12.922-4.576-7.241-13.936-17.476-30.714-18.718-16.836-1.246-27.585,7.5-33.158,13.991a21.245,21.245,0,0,0-5.072,12.277l-6.533,87.394a28.779,28.779,0,0,0,.272,6.634l9.011,57.061-24.761,66.8a15.774,15.774,0,1,0,29.581,10.964l26.2-70.669a15.771,15.771,0,0,0,.79-7.942l-8.667-54.885,4.115.3,26.272,62.142,18.27,69.575A15.774,15.774,0,1,0,365.75,399.9Z"/></clipPath><linearGradient id="linear-gradient-3" x1="341.794" y1="201.353" x2="299.026" y2="245.164" xlink:href="#radial-gradient"/><radialGradient id="radial-gradient-3" cx="379.071" cy="248.433" r="70.562" gradientTransform="translate(0 43.602) scale(1 0.98)" xlink:href="#radial-gradient"/></defs><title>Happy-Travelers</title><g id="Happy-Travelers"><circle id="Background_Orange" class="cls-2" cx="256" cy="256" r="256"/><g id="Happy-Travelers-2" data-name="Happy-Travelers"><path class="cls-3" d="M334.994,120.675A28.353,28.353,0,1,1,306.639,92.32a28.352,28.352,0,0,1,28.355,28.355Zm0,0"/><rect class="cls-4" x="197.231" y="241.898" width="12.844" height="63.322" transform="translate(178.966 -66.588) rotate(32.515)"/><rect class="cls-5" x="197.231" y="241.898" width="12.844" height="63.322" transform="translate(178.966 -66.588) rotate(32.515)"/><path class="cls-6" d="M113.429,251.879h56.844a0,0,0,0,1,0,0V402.332a0,0,0,0,1,0,0H113.429a17,17,0,0,1-17-17V268.882A17,17,0,0,1,113.429,251.879Z" transform="translate(196.728 -20.404) rotate(32.515)"/><circle class="cls-4" cx="118.896" cy="395.54" r="20.867" transform="translate(-278.552 283.189) rotate(-57.485)"/><circle class="cls-5" cx="118.896" cy="395.54" r="20.867" transform="translate(-278.552 283.189) rotate(-57.485)"/><circle class="cls-7" cx="118.896" cy="395.54" r="7.391" transform="translate(-278.552 283.189) rotate(-57.485)"/><g class="cls-8"><path class="cls-9" d="M143.084,321.541l-27.176-17.323a1.845,1.845,0,1,1,1.983-3.111l27.176,17.323a1.845,1.845,0,1,1-1.983,3.111Z"/><path class="cls-9" d="M153.948,304.5l-27.176-17.323a1.845,1.845,0,1,1,1.983-3.111l27.176,17.323a1.845,1.845,0,0,1-1.983,3.111Z"/><path class="cls-9" d="M164.813,287.454l-27.176-17.323a1.845,1.845,0,0,1,1.983-3.111L166.8,284.342a1.845,1.845,0,1,1-1.983,3.111Z"/><path class="cls-9" d="M132.22,338.585l-27.176-17.323a1.845,1.845,0,1,1,1.983-3.111L134.2,335.474a1.845,1.845,0,1,1-1.983,3.111Z"/><path class="cls-9" d="M121.355,355.629,94.179,338.306a1.845,1.845,0,1,1,1.983-3.111l27.176,17.323a1.845,1.845,0,1,1-1.983,3.111Z"/><path class="cls-9" d="M110.491,372.672,83.315,355.349a1.845,1.845,0,1,1,1.983-3.111l27.176,17.323a1.845,1.845,0,0,1-1.983,3.111Z"/></g><path class="cls-10" d="M210.991,265.19A12.993,12.993,0,0,1,199.9,245.45l28.764-47.321a13,13,0,0,1,3.017-3.422l36.188-28.764a12.99,12.99,0,1,1,16.165,20.338L249.664,213.6,222.1,258.945A12.982,12.982,0,0,1,210.991,265.19Z"/><path class="cls-5" d="M256.307,175.135l11.565-9.192a12.99,12.99,0,1,1,16.165,20.338l-29.9,23.765Z"/><path class="cls-11" d="M365.75,399.9l-18.558-70.669a15.814,15.814,0,0,0-.73-2.142l-23.5-64.062,8.97-77.123c.336-4.544.132-9.07-2.3-12.922-4.576-7.241-13.936-17.476-30.714-18.718-16.836-1.246-27.585,7.5-33.158,13.991a21.245,21.245,0,0,0-5.072,12.277l-6.533,87.394a28.779,28.779,0,0,0,.272,6.634l9.011,57.061-24.761,66.8a15.774,15.774,0,1,0,29.581,10.964l26.2-70.669a15.771,15.771,0,0,0,.79-7.942l-8.667-54.885,4.115.3,26.272,62.142,18.27,69.575A15.774,15.774,0,1,0,365.75,399.9Z"/><g class="cls-12"><rect class="cls-5" x="304.61" y="298.348" width="106.757" height="66.438" rx="9.933" ry="9.933"/><path class="cls-5" d="M348.763,279.932a12.981,12.981,0,0,1-5.134-1.433l-46.107-23.845a13.036,13.036,0,0,1-6.987-10.319L284.393,181.1a13.036,13.036,0,1,1,25.949-2.521l5.458,56.171,39.806,20.586a13.039,13.039,0,0,1-6.843,24.591Z"/></g><path class="cls-4" d="M371.073,322.457h-25.4a13.914,13.914,0,0,1-13.9-13.9V275.414a13.914,13.914,0,0,1,13.9-13.9h25.4a13.914,13.914,0,0,1,13.9,13.9v33.144A13.914,13.914,0,0,1,371.073,322.457Zm-25.4-47.95a.931.931,0,0,0-.908.907v33.144a.931.931,0,0,0,.908.908h25.4a.931.931,0,0,0,.908-.908V275.414a.931.931,0,0,0-.908-.907Z"/><g class="cls-8"><path class="cls-9" d="M371.073,322.457h-25.4a13.914,13.914,0,0,1-13.9-13.9V275.414a13.914,13.914,0,0,1,13.9-13.9h25.4a13.914,13.914,0,0,1,13.9,13.9v33.144A13.914,13.914,0,0,1,371.073,322.457Zm-25.4-47.95a.931.931,0,0,0-.908.907v33.144a.931.931,0,0,0,.908.908h25.4a.931.931,0,0,0,.908-.908V275.414a.931.931,0,0,0-.908-.907Z"/></g><path class="cls-13" d="M356.126,270.759a12.936,12.936,0,0,1-5.2-1.092l-47.393-20.722a12.99,12.99,0,0,1-7.616-9.808L285.712,176.66a12.99,12.99,0,1,1,25.64-4.189l9.068,55.5,40.916,17.89a12.993,12.993,0,0,1-5.21,24.9Z"/><rect class="cls-14" x="304.993" y="289.07" width="106.757" height="66.438" rx="9.933" ry="9.933"/><g class="cls-8"><path class="cls-9" d="M388.407,337.359l-60.064.049a1.845,1.845,0,0,1-.006-3.69l60.064-.049a1.845,1.845,0,1,1,.006,3.69Z"/><path class="cls-9" d="M388.407,322.25l-60.064.049a1.845,1.845,0,0,1-.006-3.69l60.064-.049a1.845,1.845,0,1,1,.006,3.69Z"/><path class="cls-9" d="M388.407,307.141l-60.064.049a1.845,1.845,0,1,1-.006-3.69l60.064-.049a1.845,1.845,0,1,1,.006,3.69Z"/></g></g></g></svg>