<svg id="Icons-Home" xmlns="http://www.w3.org/2000/svg" viewBox="0 0 512 512"><defs><style>.cls-1,.cls-5{fill:#b3b3b3;}.cls-1{opacity:0.14;}.cls-2{fill:#9d9d9d;opacity:0.47;}.cls-3{fill:#666;}.cls-4{fill:#fff;}.cls-6{fill:#e6e6e6;}.cls-7{fill:none;}.cls-8{fill:#878787;}</style></defs><title>Intercity-buses_Grey</title><g id="Intercity-buses_Grey"><circle id="Background-Grey" class="cls-1" cx="256" cy="256" r="256"/><rect class="cls-2" x="146" y="385" width="230" height="38" rx="19" ry="19"/><path class="cls-3" d="M386.144,158.955c-2.986-.01-5.971,0-8.99,0-.306-1.022-1.751,2.457-3.2,3.858a17.373,17.373,0,0,1-3.742,2.993,17.018,17.018,0,0,1-5.048,1.367c-.077,0-.153-.01-.229-.011,0,.067.007.11.01.149-7.463,2.23-11.2-.012-17.182-3-3.6-1.8-5.986,2.245-11.973,2.245-5.292,0-10.98-2.245-13.973-5.986-3.305-4.132-1.5-15.715-1.5-15.715-8.231,1.5-13.47-10.231-13.47-10.231h0a10.115,10.115,0,0,1-1.5-3.741c-.727-2.845.2-4.689,1.525-7.214-46.3-.049-76.124-.055-122.42.01a39.773,39.773,0,0,0-38.5,30.919c-.232,1-.446,2.006-.745,3.359-2.885,0-4.852,0-7.819,0-9.473.013-16.146,4.209-19.016,13.305a2.632,2.632,0,0,1-.468.655v59.614a29.472,29.472,0,0,0,1.989,4.179c3.3,6.157,8.579,9.145,15.512,9.26,3.059.051,5.119.009,8.486.009v3.565c0,28.22.231,57.442-.074,85.659-.234,21.637,14.012,36.352,29.193,40.3.287.075.862.212.862.212h7.215v20.413A5.892,5.892,0,0,0,186.963,401h29.25a5.892,5.892,0,0,0,5.875-5.875V374.712h77v20.413A5.892,5.892,0,0,0,304.963,401h29.25a5.892,5.892,0,0,0,5.875-5.875V374.712h7.521l.3-.088c15.474-4.667,24-15,27.525-30.781a44.219,44.219,0,0,0,.805-9.473c.059-28.248.034-57.5.034-85.745v-3.646c3.118,0,5.986.022,8.854,0C396.622,244.867,397.74,158.992,386.144,158.955Zm-132.5,120.057H170.883l30.064-29.362a6.5,6.5,0,0,0-9.084-9.3l-35.5,34.672V187.291h97.284Zm111.143.053H300.781l32.166-31.415a6.5,6.5,0,0,0-9.084-9.3l-40,39.065a6.493,6.493,0,0,0-1.221,1.65H266.261v-91.82h98.529Z"/><rect class="cls-4" x="155.747" y="187" width="101.559" height="92"/><rect class="cls-4" x="262.188" y="187" width="101.559" height="92"/><path class="cls-5" d="M385.485,156.955c-2.986-.01-5.971,0-8.99,0-.306-1.022-1.751,2.457-3.2,3.858a17.373,17.373,0,0,1-3.742,2.993,17.018,17.018,0,0,1-5.048,1.367c-.077,0-.153-.01-.229-.011,0,.067.007.11.01.149-7.463,2.23-11.2-.012-17.182-3-3.6-1.8-5.986,2.245-11.973,2.245-5.292,0-8.98-2.245-11.973-5.986-3.305-4.132-1.5-15.715-1.5-15.715-8.231,1.5-13.47-8.231-13.47-8.231h0a10.115,10.115,0,0,1-1.5-3.741c-.727-2.845.2-5.689,1.525-8.214-46.3-.049-79.124-.055-125.42.01a39.773,39.773,0,0,0-38.5,30.919c-.232,1-.446,2.006-.745,3.359-2.885,0-5.852,0-8.819,0-9.473.013-17.984,4.047-18.484,13.96v60.614c.5,12.473,10.569,14.324,17.5,14.439,3.059.051,6.119.009,9.486.009v3.565c0,28.22-.074,84.659-.074,84.659H224.2c-.02-.2-.031-.409-.031-.618v-9.333a6.483,6.483,0,0,1,6.483-6.483h58.609a6.483,6.483,0,0,1,6.483,6.483v9.333c0,.209-.012.415-.031.618h80.861s.034-56.326.034-84.574v-3.646c3.118,0,5.986.022,8.854,0,11.5-.107,18.282-5.974,18.075-19.811,0-.264.2-51.819.207-52.163C403.989,161.756,397.082,156.992,385.485,156.955ZM257.306,279h-4.318v.012H170.225l.012-.012h-4.514l37.788-36.108a4,4,0,0,0-5.527-5.783l-42.236,40.359v-2.488l-.043.042V187.291h.043V187H257.306Zm106.825.065H300.123l.066-.065h-4.467l37.788-36.108a4,4,0,0,0-5.527-5.783L284.143,279h-2.119c-.012.022-.029.042-.04.065H265.6V279h-3.414V187H363.747v.245h.384Z"/><path class="cls-6" d="M141.648,163.494H135.6c-1.2,0-2.385,0-3.57,0-7.018.013-10.154,2.992-10.169,9.661q-.024,10.94-.01,21.88l0,8.583q0,3.746,0,7.491c-.005,6.333-.01,12.881.021,19.325.025,5.164,3.108,8.662,7.853,8.91,1.406.074,2.912.108,4.742.108,1.177,0,2.361-.014,3.556-.028s2.4-.028,3.621-.028a2.962,2.962,0,0,0,2.962-2.962V166.456A2.962,2.962,0,0,0,141.648,163.494Z"/><path class="cls-6" d="M397.953,172.012c-.067-4.758-3.212-8.224-7.647-8.427-1.448-.067-3-.1-4.889-.1-1.2,0-2.4.012-3.613.025s-2.421.025-3.646.025A2.962,2.962,0,0,0,375.2,166.5v69.99a2.962,2.962,0,0,0,2.962,2.962h5.948c1.178,0,2.336,0,3.493,0,7.268-.018,10.373-2.958,10.382-9.831q.02-15.387.008-30.774l0-9.736q0-2.341.007-4.682C398,180.362,398.012,176.158,397.953,172.012Z"/><path class="cls-4" d="M209.961,312.965c-.035,6.211-4.938,11.372-10.8,11.369S188.434,319.2,188.4,312.949c-.038-6.36,4.936-11.6,10.92-11.5C205.195,301.545,210,306.739,209.961,312.965Z"/><path class="cls-4" d="M309.885,312.769c.054-6.221,4.966-11.354,10.837-11.321,5.9.032,10.71,5.157,10.722,11.418.012,6.363-5,11.6-10.959,11.468C314.6,324.2,309.83,319,309.885,312.769Z"/><path class="cls-7" d="M364.131,187.245H265.6v91.82h98.529Z"/><path class="cls-7" d="M252.988,187.291H155.7v91.721h97.284Z"/><path class="cls-8" d="M389.448,116.146a7.245,7.245,0,0,1-6.965-4.681c-.329-.829-10.509-21.474-38.277-19.893-19.625,1.105-28.019,9.656-32.531,15.147a8.365,8.365,0,0,1-9.159,2.56h0a6.817,6.817,0,0,1-3.263-10.463c5.978-8.241,17.46-20.205,44.138-21.707,30.476-1.736,48.071,17.789,52.457,28.76a7.479,7.479,0,0,1-3.351,9.514A7.253,7.253,0,0,1,389.448,116.146Z"/><path class="cls-8" d="M375.163,140.5a7.238,7.238,0,0,1-6.241-3.095c-.078-.109-9.374-13-21.651-12.508-.182.007-.362.017-.545.031-10.337.75-16.324,5.036-19.362,8.148a7.144,7.144,0,0,1-7.36,1.732h0a7.373,7.373,0,0,1-3.071-12.027c4.964-5.326,13.757-11.215,28.745-12.3,20.8-1.489,34.553,17.816,35.127,18.639a7.244,7.244,0,0,1-5.642,11.381Z"/><path class="cls-8" d="M360.718,160.534a7.239,7.239,0,0,1-6.653-2.066c-1.084-1.082-5-4.088-8.339-3.413l-.145.032a13.312,13.312,0,0,0-5.564,2.523,6.1,6.1,0,0,1-4.879,1.381h0a7.456,7.456,0,0,1-3.242-13.349,27.871,27.871,0,0,1,10.357-4.655c11.937-2.8,21.208,6.359,22.229,7.415a7.244,7.244,0,0,1-3.765,12.132Z"/></g></svg>