<svg id="Icons-Home" xmlns="http://www.w3.org/2000/svg" xmlns:xlink="http://www.w3.org/1999/xlink" viewBox="0 0 512 512"><defs><style>.cls-1{fill:#fff;}.cls-2{fill:#f97e48;opacity:0.47;}.cls-3{fill:url(#linear-gradient);}.cls-4{fill:url(#linear-gradient-2);}.cls-5{fill:#ffb654;}.cls-6{fill:none;}.cls-7{fill:url(#linear-gradient-3);}.cls-8{fill:url(#linear-gradient-4);}.cls-9{fill:url(#linear-gradient-5);}</style><linearGradient id="linear-gradient" x1="251.928" y1="177.445" x2="250.959" y2="375.095" gradientUnits="userSpaceOnUse"><stop offset="0" stop-color="#ffa736"/><stop offset="0.487" stop-color="#ff8f45"/><stop offset="0.984" stop-color="#ff8f45"/></linearGradient><linearGradient id="linear-gradient-2" x1="256.088" y1="319.333" x2="255.894" y2="77.328" gradientUnits="userSpaceOnUse"><stop offset="0.032" stop-color="#ffaf41"/><stop offset="0.181" stop-color="#ffa736"/><stop offset="0.662" stop-color="#ff8f45"/><stop offset="0.984" stop-color="#ff8f45"/></linearGradient><linearGradient id="linear-gradient-3" x1="293.939" y1="103.574" x2="392.415" y2="103.574" xlink:href="#linear-gradient"/><linearGradient id="linear-gradient-4" x1="310.948" y1="132.455" x2="378.107" y2="132.455" xlink:href="#linear-gradient"/><linearGradient id="linear-gradient-5" x1="324.876" y1="157.568" x2="362.517" y2="157.568" xlink:href="#linear-gradient"/></defs><title>Intercity-buses_White</title><g id="Intercity-buses_White"><circle id="Background-White" class="cls-1" cx="256" cy="256" r="256"/><g id="Intercity-buses"><rect class="cls-2" x="140.747" y="390" width="230" height="38" rx="19" ry="19"/><path class="cls-3" d="M382.144,163.955c-2.986-.01-5.971,0-8.99,0-.306-1.022-1.751,2.457-3.2,3.858a17.373,17.373,0,0,1-3.742,2.993,17.018,17.018,0,0,1-5.048,1.367c-.077,0-.153-.01-.229-.011,0,.067.007.11.01.149-7.463,2.23-11.2-.012-17.182-3-3.6-1.8-5.986,2.245-11.973,2.245-5.292,0-8.98-2.245-11.973-5.986-3.305-4.132-1.5-15.715-1.5-15.715-8.231,1.5-13.47-8.231-13.47-8.231h0a10.115,10.115,0,0,1-1.5-3.741c-.727-2.845.2-5.689,1.525-8.214-46.3-.049-79.124-.055-125.42.01a39.773,39.773,0,0,0-38.5,30.919c-.232,1-.446,2.006-.745,3.359-2.885,0-5.852,0-8.819,0-9.473.013-15.146,4.209-18.016,13.305a2.632,2.632,0,0,1-.468.655v60.614a42.612,42.612,0,0,0,1.989,5.179c3.3,6.157,8.579,9.145,15.512,9.26,3.059.051,6.119.009,9.486.009v3.565c0,28.22.231,56.442-.074,84.659-.234,21.637,14.012,36.352,29.193,40.3.287.075.862.212.862.212h7.215v20.413A5.892,5.892,0,0,0,182.963,408h29.25a5.892,5.892,0,0,0,5.875-5.875V381.712h77v20.413A5.892,5.892,0,0,0,300.963,408h29.25a5.892,5.892,0,0,0,5.875-5.875V381.712h7.521l.3-.088c15.474-4.667,25-15,28.525-30.781a44.219,44.219,0,0,0,.805-9.473q.088-42.372.034-84.745v-3.646c3.118,0,5.986.022,8.854,0C393.622,252.867,393.74,163.992,382.144,163.955Zm-132.5,122.057H166.883l30.064-29.362a6.5,6.5,0,0,0-9.084-9.3l-35.5,34.672V194.291h97.284Zm111.143.053H296.781l32.166-31.415a6.5,6.5,0,0,0-9.084-9.3l-40,39.065a6.493,6.493,0,0,0-1.221,1.65H262.261v-91.82h98.529Z"/><rect class="cls-1" x="151.747" y="194" width="101.559" height="92"/><rect class="cls-1" x="258.188" y="194" width="101.559" height="92"/><path class="cls-4" d="M381.485,163.955c-2.986-.01-5.971,0-8.99,0-.306-1.022-1.751,2.457-3.2,3.858a17.373,17.373,0,0,1-3.742,2.993,17.018,17.018,0,0,1-5.048,1.367c-.077,0-.153-.01-.229-.011,0,.067.007.11.01.149-7.463,2.23-11.2-.012-17.182-3-3.6-1.8-5.986,2.245-11.973,2.245-5.292,0-8.98-2.245-11.973-5.986-3.305-4.132-1.5-15.715-1.5-15.715-8.231,1.5-13.47-8.231-13.47-8.231h0a10.115,10.115,0,0,1-1.5-3.741c-.727-2.845.2-5.689,1.525-8.214-46.3-.049-79.124-.055-125.42.01a39.773,39.773,0,0,0-38.5,30.919c-.232,1-.446,2.006-.745,3.359-2.885,0-5.852,0-8.819,0-9.473.013-17.984,4.047-18.484,13.96v60.614c.5,12.473,10.569,14.324,17.5,14.439,3.059.051,6.119.009,9.486.009v3.565c0,28.22-.074,84.659-.074,84.659H220.2c-.02-.2-.031-.409-.031-.618v-9.333a6.483,6.483,0,0,1,6.483-6.483h58.609a6.483,6.483,0,0,1,6.483,6.483v9.333c0,.209-.012.415-.031.618h80.861s.034-56.326.034-84.574v-3.646c3.118,0,5.986.022,8.854,0,11.5-.107,18.282-5.974,18.075-19.811,0-.264.2-51.819.207-52.163C399.989,168.756,393.082,163.992,381.485,163.955ZM253.306,286h-4.318v.012H166.225l.012-.012h-4.514l37.788-36.108a4,4,0,0,0-5.527-5.783l-42.236,40.359v-2.488l-.043.042V194.291h.043V194H253.306Zm106.825.065H296.123l.066-.065h-4.467l37.788-36.108a4,4,0,0,0-5.527-5.783L280.143,286h-2.119c-.012.022-.029.042-.04.065H261.6V286h-3.414V194H359.747v.245h.384Z"/><path class="cls-5" d="M130.89,245.441c-1.828,0-3.33-.034-4.728-.107-4.007-.209-6.511-3.1-6.532-7.534-.032-6.516-.027-13.032-.021-19.548l0-7.6,0-8.648q0-11.1.01-22.2c.013-5.953,2.481-8.277,8.8-8.288h9.733a1.5,1.5,0,0,1,1.5,1.5v70.877a1.5,1.5,0,0,1-1.5,1.5c-1.242,0-2.468.015-3.683.029S132.075,245.441,130.89,245.441Z"/><path class="cls-5" d="M132.031,173l6.124,0v70.877c-2.474,0-4.886.057-7.268.057-1.558,0-3.1-.024-4.646-.105-3.279-.172-5.093-2.441-5.111-6.044-.044-9.048-.017-18.1-.017-27.146,0-10.283-.016-20.565.007-30.848.011-5.127,1.821-6.781,7.3-6.791,1.2,0,2.4,0,3.607,0m0-3c-1.213,0-2.413,0-3.612,0-7.108.012-10.285,3.03-10.3,9.784q-.025,11.1-.01,22.207l0,8.648q0,3.788,0,7.575c-.005,6.418-.011,13.054.021,19.585.026,5.231,3.148,8.773,7.954,9.025,1.424.075,2.95.109,4.8.109,1.192,0,2.391-.014,3.6-.028s2.431-.029,3.667-.029a3,3,0,0,0,3-3V173.006a3,3,0,0,0-3-3h-6.124Z"/><path class="cls-5" d="M373.65,245.438a1.5,1.5,0,0,1-1.5-1.5V173.05a1.5,1.5,0,0,1,1.5-1.5c1.247,0,2.482-.013,3.71-.025s2.437-.025,3.646-.025c1.887,0,3.437.031,4.879.1,3.719.171,6.257,3.008,6.314,7.059.059,4.18.049,8.426.041,12.531q-.005,2.382-.007,4.763l0,10q0,15.513-.008,31.027c-.008,6.151-2.453,8.444-9.02,8.459l-3.549,0Z"/><path class="cls-5" d="M381,173c1.611,0,3.213.022,4.813.1,2.974.136,4.837,2.357,4.883,5.581.081,5.757.033,11.516.034,17.274q0,20.513-.006,41.026c-.007,5.288-1.829,6.947-7.523,6.961-1.157,0-2.313,0-3.491,0l-6.063,0V173.05c2.486,0,4.93-.05,7.354-.05m0-3c-1.214,0-2.433.012-3.66.025s-2.453.025-3.694.025a3,3,0,0,0-3,3v70.889a3,3,0,0,0,3,3h6.063c1.18,0,2.339,0,3.5,0,7.361-.018,10.506-3,10.515-9.957q.021-15.628.008-31.257l0-9.774q0-2.368.007-4.735c.009-4.12.019-8.379-.041-12.581-.068-4.819-3.253-8.329-7.745-8.535-1.466-.067-3.039-.1-4.95-.1Z"/><path class="cls-1" d="M205.961,319.965c-.035,6.211-4.938,11.372-10.8,11.369S184.434,326.2,184.4,319.949c-.038-6.36,4.936-11.6,10.92-11.5C201.195,308.545,206,313.739,205.961,319.965Z"/><path class="cls-1" d="M305.885,319.769c.054-6.221,4.966-11.354,10.837-11.321,5.9.032,10.71,5.157,10.722,11.418.012,6.363-5,11.6-10.959,11.468C310.6,331.2,305.83,326,305.885,319.769Z"/><path class="cls-6" d="M360.131,194.245H261.6v91.82h98.529Z"/><path class="cls-6" d="M248.988,194.291H151.7v91.721h97.284Z"/><path class="cls-7" d="M385.448,123.146a7.245,7.245,0,0,1-6.965-4.681c-.329-.829-10.509-21.474-38.277-19.893-19.625,1.105-28.019,9.656-32.531,15.147a8.365,8.365,0,0,1-9.159,2.56h0a6.817,6.817,0,0,1-3.263-10.463c5.978-8.241,17.46-20.205,44.138-21.707,30.476-1.736,48.071,17.789,52.457,28.76a7.479,7.479,0,0,1-3.351,9.514A7.253,7.253,0,0,1,385.448,123.146Z"/><path class="cls-8" d="M371.163,147.5a7.238,7.238,0,0,1-6.241-3.095c-.078-.109-9.374-13-21.651-12.508-.182.007-.362.017-.545.031-10.337.75-16.324,5.036-19.362,8.148a7.144,7.144,0,0,1-7.36,1.732h0a7.373,7.373,0,0,1-3.071-12.027c4.964-5.326,13.757-11.215,28.745-12.3,20.8-1.489,34.553,17.816,35.127,18.639a7.244,7.244,0,0,1-5.642,11.381Z"/><path class="cls-9" d="M356.718,167.534a7.239,7.239,0,0,1-6.653-2.066c-1.084-1.082-5-4.088-8.339-3.413l-.145.032a13.312,13.312,0,0,0-5.564,2.523,6.1,6.1,0,0,1-4.879,1.381h0a7.456,7.456,0,0,1-3.242-13.349,27.871,27.871,0,0,1,10.357-4.655c11.937-2.8,21.208,6.359,22.229,7.415a7.244,7.244,0,0,1-3.765,12.132Z"/></g></g></svg>