<svg id="Icons-Home" xmlns="http://www.w3.org/2000/svg" viewBox="0 0 512 512"><defs><style>.cls-1,.cls-4{fill:#b3b3b3;}.cls-1{opacity:0.14;}.cls-2{fill:#666;}.cls-3{fill:#fff;}.cls-5{fill:#878787;}.cls-6{fill:#ecf0f1;}</style></defs><title>Pike_Grey</title><g id="Pike_Grey"><circle id="Background-Grey" class="cls-1" cx="256" cy="256" r="256"/><g id="Pike_Grey-2" data-name="Pike_Grey"><path class="cls-2" d="M427.538,114.731a18.73,18.73,0,0,0-19.587-4.395,18.458,18.458,0,0,0-7.031,4.395l-30.637,30.637-37.668,37.668L294.946,220.7l-52.108,52.108c2.448-1.193,27,26.242,27,26.242l25.112-25.112,37.668-37.668,37.668-37.668,37.668-37.668,19.587-19.587a18.794,18.794,0,0,0,0-26.619Z"/><polygon class="cls-3" points="332.614 183.036 332.614 236.274 294.946 273.942 294.946 220.704 332.614 183.036"/><path class="cls-3" d="M407.95,110.337v50.6l-37.668,37.668V145.368l30.637-30.637A18.458,18.458,0,0,1,407.95,110.337Z"/><polygon class="cls-4" points="232.166 132.812 81.493 132.812 81.493 396.489 232.166 396.489 244.722 396.489 244.722 289.762 232.166 289.762 232.166 132.812"/><path class="cls-5" d="M68.937,113.978H244.722v18.834a12.556,12.556,0,0,1-12.556,12.556H81.493a12.556,12.556,0,0,1-12.556-12.556Z"/><rect class="cls-3" x="106.606" y="170.48" width="100.448" height="106.726" rx="6.278" ry="6.278"/><path class="cls-5" d="M150.552,245.816h12.556a12.556,12.556,0,0,1,12.556,12.556v18.834H138V258.372A12.556,12.556,0,0,1,150.552,245.816Z"/><rect class="cls-5" x="112.884" y="302.318" width="87.892" height="69.058" rx="6.278" ry="6.278"/><path class="cls-2" d="M175.664,333.708H138a6.278,6.278,0,0,1,0-12.556h37.668a6.278,6.278,0,1,1,0,12.556Z"/><path class="cls-2" d="M175.664,352.543H138a6.278,6.278,0,0,1,0-12.556h37.668a6.278,6.278,0,1,1,0,12.556Z"/><path class="cls-5" d="M269.834,289.762V396.489H232.166V289.762a18.834,18.834,0,1,1,37.668,0Z"/><path class="cls-6" d="M251,302.318a6.277,6.277,0,0,1-2.388-.5,7.3,7.3,0,0,1-2.069-1.318,6.5,6.5,0,0,1-1.321-2.072,6.272,6.272,0,0,1-.5-2.385,8.279,8.279,0,0,1,.126-1.257,3.985,3.985,0,0,1,.374-1.131,4.805,4.805,0,0,1,.567-1.128c.251-.316.5-.628.754-.941a6.454,6.454,0,0,1,2.069-1.321,6.276,6.276,0,0,1,6.845,1.321c.251.313.5.625.751.941a4.806,4.806,0,0,1,.567,1.128,4.092,4.092,0,0,1,.377,1.131,8.683,8.683,0,0,1,.125,1.257,6.274,6.274,0,0,1-.5,2.385,6.546,6.546,0,0,1-1.318,2.072c-.316.251-.628.5-.941.751a4.766,4.766,0,0,1-1.131.567,4.091,4.091,0,0,1-1.131.377A8.686,8.686,0,0,1,251,302.318Z"/><path class="cls-2" d="M433.063,402.767H68.937a6.278,6.278,0,0,1,0-12.556H433.063a6.278,6.278,0,0,1,0,12.556Z"/></g></g></svg>