<svg xmlns="http://www.w3.org/2000/svg" xmlns:xlink="http://www.w3.org/1999/xlink" viewBox="0 0 512 512"><defs><style>.cls-1{isolation:isolate;}.cls-2,.cls-7{fill:#f15a24;}.cls-2{opacity:0.14;}.cls-3{fill:url(#linear-gradient);}.cls-13,.cls-4,.cls-5{fill:#fff;}.cls-4{opacity:0.3;mix-blend-mode:soft-light;}.cls-6{fill:url(#radial-gradient);}.cls-7{opacity:0.42;}.cls-8{fill:url(#radial-gradient-2);}.cls-9{fill:#ffb654;}.cls-10,.cls-11,.cls-12{opacity:0.67;}.cls-10{fill:url(#radial-gradient-3);}.cls-11{fill:url(#radial-gradient-4);}.cls-12{fill:url(#radial-gradient-5);}.cls-13{font-size:40.57px;font-family:Roboto-Black, Roboto;}</style><linearGradient id="linear-gradient" x1="108.281" y1="267.204" x2="401.572" y2="267.204" gradientUnits="userSpaceOnUse"><stop offset="0" stop-color="#ffa736"/><stop offset="0.487" stop-color="#ff8f45"/><stop offset="0.984" stop-color="#ff8f45"/></linearGradient><radialGradient id="radial-gradient" cx="321.899" cy="82.991" r="64.436" gradientUnits="userSpaceOnUse"><stop offset="0.137" stop-color="#ffa736"/><stop offset="0.769" stop-color="#ff8f45"/><stop offset="0.984" stop-color="#ff8f45"/></radialGradient><radialGradient id="radial-gradient-2" cx="398.477" cy="321.427" r="121.54" xlink:href="#linear-gradient"/><radialGradient id="radial-gradient-3" cx="-2710.744" cy="1837.568" r="8.817" gradientTransform="translate(2852.613 -1745.801)" gradientUnits="userSpaceOnUse"><stop offset="0" stop-color="#f7931e"/><stop offset="1" stop-color="#f15a24"/></radialGradient><radialGradient id="radial-gradient-4" cx="1292.448" cy="-3034.557" r="12.33" gradientTransform="translate(-2594.59 -1058.76) rotate(90)" xlink:href="#radial-gradient-3"/><radialGradient id="radial-gradient-5" cx="1189.608" cy="-2687.8" r="8.817" gradientTransform="translate(-2565.894 -783.958) rotate(90)" xlink:href="#radial-gradient-3"/></defs><title>Restore-Password</title><g class="cls-1"><g id="Layer_1" data-name="Layer 1"><circle class="cls-2" cx="256" cy="256" r="256"/><path class="cls-3" d="M136.809,157.073H373.045A28.528,28.528,0,0,1,401.572,185.6V377.335a0,0,0,0,1,0,0H108.281a0,0,0,0,1,0,0V185.6A28.528,28.528,0,0,1,136.809,157.073Z"/><path class="cls-4" d="M108.281,377.335V177.48a20.467,20.467,0,0,1,20.407-20.407H343.367Z"/><path class="cls-5" d="M408.726,384.488h-307.6V177.481a27.592,27.592,0,0,1,27.56-27.561H381.166a27.592,27.592,0,0,1,27.56,27.561ZM115.435,370.181H394.419v-192.7a13.269,13.269,0,0,0-13.253-13.254H128.688a13.269,13.269,0,0,0-13.253,13.254Z"/><path class="cls-5" d="M420.945,347.222H291.052v6.024a10.328,10.328,0,0,1-10.3,10.3H231.246a10.328,10.328,0,0,1-10.3-10.3v-6.024H91.056A4.067,4.067,0,0,0,87,351.277v15.4a20.238,20.238,0,0,0,20.179,20.179H404.821A20.238,20.238,0,0,0,425,366.679v-15.4A4.067,4.067,0,0,0,420.945,347.222Z"/><path class="cls-5" d="M288,246.322h-3.315v-6.9a28.686,28.686,0,1,0-57.373,0v6.9H224a6.016,6.016,0,0,0-6,6v36.8a6.016,6.016,0,0,0,6,6h64a6.016,6.016,0,0,0,6-6v-36.8A6.016,6.016,0,0,0,288,246.322Zm-50.256-6.9a18.255,18.255,0,1,1,36.51,0v6.9h-36.51ZM259,275.722v6.554h-6v-6.554a9,9,0,1,1,6,0Z"/><circle class="cls-6" cx="336.565" cy="99.657" r="35.76"/><path class="cls-7" d="M147.2,273.264a38.45,38.45,0,0,1-44.86,10.875c-.409-.176-1.219-.551-1.219-.551l.005-69.524s1.05-.48,1.581-.7a38.438,38.438,0,0,1,44.492,59.9Z"/><path class="cls-7" d="M364.921,361.264a38.45,38.45,0,0,0,44.86,10.875c.409-.176,1.219-.551,1.219-.551l-.005-69.524s-1.05-.48-1.581-.7a38.438,38.438,0,0,0-44.492,59.9Z"/><circle class="cls-8" cx="409.145" cy="337.459" r="35.76"/><circle class="cls-9" cx="104.901" cy="243.59" r="35.76" transform="translate(-149.808 169.675) rotate(-50.519)"/><circle class="cls-10" cx="141.675" cy="93.508" r="3.87" transform="translate(-24.624 127.567) rotate(-45)"/><circle class="cls-11" cx="437.532" cy="233.418" r="5.412" transform="translate(-36.901 377.749) rotate(-45)"/><circle class="cls-12" cx="120.165" cy="405.457" r="3.87" transform="translate(-251.506 203.725) rotate(-45)"/><text class="cls-13" transform="translate(324.805 111.535)">2</text><text class="cls-13" transform="translate(92.685 256.912)">6</text><text class="cls-13" transform="translate(397.914 351.576)">8</text></g></g></svg>