<svg id="Icons-Home" xmlns="http://www.w3.org/2000/svg" xmlns:xlink="http://www.w3.org/1999/xlink" viewBox="0 0 512 512"><defs><style>.cls-1{fill:#fff;}.cls-2{fill:url(#radial-gradient);}.cls-3,.cls-6,.cls-8,.cls-9{fill:#ce471d;}.cls-3{opacity:0.4;}.cls-4{fill:url(#linear-gradient);}.cls-5,.cls-9{opacity:0.3;}.cls-7{fill:#ff8f45;}.cls-8{opacity:0.44;}.cls-10{fill:#ffb654;}</style><radialGradient id="radial-gradient" cx="252.892" cy="456.594" fy="483.86177800683055" r="108.861" gradientUnits="userSpaceOnUse"><stop offset="0" stop-color="#ffa736"/><stop offset="0.487" stop-color="#ff8f45"/><stop offset="0.984" stop-color="#ff8f45"/></radialGradient><linearGradient id="linear-gradient" x1="191.425" y1="107.562" x2="323.425" y2="363.562" gradientUnits="userSpaceOnUse"><stop offset="0.015" stop-color="#ffbd57"/><stop offset="0.341" stop-color="#ffa736"/><stop offset="0.611" stop-color="#ff8f45"/><stop offset="0.984" stop-color="#ff8f45"/></linearGradient></defs><title>Train_White</title><g id="Train_White"><circle id="background-Orange" class="cls-1" cx="256" cy="256" r="256"/><g id="Train"><path class="cls-2" d="M345.114,423.681,308.2,360.4v-3.569H285v3.565l13.856,23.754H213.148L227,360.4h0v-3.57H203.8V360.4l-36.915,63.282A4.2,4.2,0,0,0,170.514,430h13.474a4.2,4.2,0,0,0,3.629-2.085l5.87-10.063H318.515l5.868,10.061A4.2,4.2,0,0,0,328.012,430l13.472,0A4.2,4.2,0,0,0,345.114,423.681Zm-145.5-16.332,7.407-12.7h97.962l7.406,12.7Z"/><path class="cls-3" d="M345.114,423.681,308.2,360.4v-3.569H285v3.565l13.856,23.754H213.148L227,360.4h0v-3.57H203.8V360.4l-36.915,63.282A4.2,4.2,0,0,0,170.514,430h13.474a4.2,4.2,0,0,0,3.629-2.085l5.87-10.063H318.515l5.868,10.061A4.2,4.2,0,0,0,328.012,430l13.472,0A4.2,4.2,0,0,0,345.114,423.681Zm-145.5-16.332,7.407-12.7h97.962l7.406,12.7Z"/><path class="cls-4" d="M163.2,93.6A23.2,23.2,0,0,0,140,116.8v232A23.2,23.2,0,0,0,163.2,372h19a4.2,4.2,0,0,0,4.2-4.2v-7.4H325.6v7.4a4.2,4.2,0,0,0,4.2,4.2h19A23.2,23.2,0,0,0,372,348.8v-232a23.2,23.2,0,0,0-23.2-23.2H163.2Z"/><g class="cls-5"><path class="cls-6" d="M172.4,372h9.8a4.2,4.2,0,0,0,4.2-4.2v-7.4h-14Z"/><path class="cls-6" d="M348.8,93.6h-14A23.2,23.2,0,0,1,358,116.8v232A23.2,23.2,0,0,1,334.8,372h14A23.2,23.2,0,0,0,372,348.8v-232A23.2,23.2,0,0,0,348.8,93.6Z"/></g><rect class="cls-7" x="139.998" y="139.998" width="231.998" height="139.2"/><path class="cls-1" d="M350.4,261.8H161.6a4.2,4.2,0,0,1-4.2-4.2v-96a4.2,4.2,0,0,1,4.2-4.2H350.4a4.2,4.2,0,0,1,4.2,4.2v96A4.2,4.2,0,0,1,350.4,261.8Z"/><rect class="cls-8" x="357.998" y="139.998" width="14.004" height="139.2"/><path class="cls-7" d="M218,82H294a4.2,4.2,0,0,1,3.758,2.322l4.195,8.389a4.2,4.2,0,0,1,.444,1.879V112.6a4.2,4.2,0,0,1-4.2,4.2H213.8a4.2,4.2,0,0,1-4.2-4.2V94.592a4.2,4.2,0,0,1,.443-1.879l4.2-8.391A4.2,4.2,0,0,1,218,82Z"/><path class="cls-9" d="M301.957,92.712l-4.195-8.389A4.2,4.2,0,0,0,294,82H280a4.2,4.2,0,0,1,3.758,2.322l4.195,8.389a4.2,4.2,0,0,1,.444,1.879V112.6a4.2,4.2,0,0,1-4.2,4.2h14a4.2,4.2,0,0,0,4.2-4.2V94.59A4.216,4.216,0,0,0,301.957,92.712Z"/><path class="cls-10" d="M256,98.85a5.251,5.251,0,0,0,5.252-5.252V82h-10.5V93.6A5.252,5.252,0,0,0,256,98.85Z"/><path class="cls-10" d="M372,342.451v-10.5h-78.39l-10.042-15.061a5.25,5.25,0,0,0-4.369-2.339H232.8a5.249,5.249,0,0,0-4.369,2.339L218.39,331.948H140v10.5h81.2a5.25,5.25,0,0,0,4.369-2.339l10.041-15.061H276.39l10.042,15.061a5.25,5.25,0,0,0,4.369,2.339Z"/><circle class="cls-1" cx="192" cy="302" r="13"/><circle class="cls-1" cx="320" cy="302" r="13"/></g></g></svg>