<svg id="Icons-Home" xmlns="http://www.w3.org/2000/svg" viewBox="0 0 512 512"><defs><style>.cls-1,.cls-3{fill:#b3b3b3;}.cls-1{opacity:0.14;}.cls-2{fill:#9d9d9d;opacity:0.47;}.cls-4{fill:#878787;}.cls-5{fill:#ff7b34;}.cls-6{fill:#666;}.cls-7{fill:#d6d6d6;}.cls-8{fill:#fff;}.cls-9{fill:#e6e6e6;}</style></defs><title>Van+Plane_Grey</title><g id="Van_Plane_Grey" data-name="Van+Plane_Grey"><path id="Background-Grey" class="cls-1" d="M512,256c0,141.385-114.615,256-256,256S0,397.385,0,256,114.615,0,256,0,512,114.615,512,256"/><g id="Van_Plane_Grey-2" data-name="Van+Plane_Grey"><rect class="cls-2" x="56.335" y="376.504" width="399.329" height="28.748" rx="14.374" ry="14.374"/><path class="cls-3" d="M460.995,332.136V345.48a19.563,19.563,0,0,1-19.558,19.558H93.89a39.914,39.914,0,0,1-39.829-42.783l7.029-98.707a22.145,22.145,0,0,1,22.1-20.577H293.019s35.143-.407,103.9,75.89l23.735,4.482C444.085,287.825,459.619,308.69,460.995,332.136Z"/><path class="cls-4" d="M391.625,344.054H58.645a42.266,42.266,0,0,1-4.176-11.714H460.995V345.48a19.563,19.563,0,0,1-19.558,19.558h-49.71V344.054Z"/><path class="cls-5" d="M347.212,364.02a36.57,36.57,0,0,1,73.139,0,3.14,3.14,0,0,1-.1,1.019H347.313C347.313,364.733,347.212,364.326,347.212,364.02Z"/><path class="cls-5" d="M95.011,364.02a36.57,36.57,0,0,1,73.139,0,3.14,3.14,0,0,1-.1,1.019H95.113A3.466,3.466,0,0,1,95.011,364.02Z"/><path class="cls-6" d="M347.212,364.02a36.57,36.57,0,0,1,73.139,0,3.14,3.14,0,0,1-.1,1.019H347.313C347.313,364.733,347.212,364.326,347.212,364.02Z"/><path class="cls-6" d="M95.011,364.02a36.57,36.57,0,0,1,73.139,0,3.14,3.14,0,0,1-.1,1.019H95.113A3.466,3.466,0,0,1,95.011,364.02Z"/><circle class="cls-5" cx="383.781" cy="363.103" r="26.281"/><circle class="cls-5" cx="131.58" cy="363.103" r="26.281"/><circle class="cls-4" cx="383.781" cy="363.103" r="26.281"/><circle class="cls-4" cx="131.58" cy="363.103" r="26.281"/><circle class="cls-7" cx="383.781" cy="363.103" r="17.011"/><circle class="cls-7" cx="131.58" cy="363.103" r="17.011"/><path class="cls-8" d="M332.543,228.539h11.205c14.669,11.205,32.393,27.2,53.275,50.321H383.781Z"/><path class="cls-5" d="M52.329,330.2H64.044a1.348,1.348,0,0,0,1.324-1.324V288.64a1.348,1.348,0,0,0-1.324-1.324H52.329a1.348,1.348,0,0,0-1.324,1.324v40.135A1.373,1.373,0,0,0,52.329,330.2Z"/><path class="cls-4" d="M52.329,330.2H64.044a1.348,1.348,0,0,0,1.324-1.324V288.64a1.348,1.348,0,0,0-1.324-1.324H52.329a1.348,1.348,0,0,0-1.324,1.324v40.135A1.373,1.373,0,0,0,52.329,330.2Z"/><path class="cls-8" d="M432.964,294.089s13.169,21.64,9.594,38.25h18.436S460.054,295.156,432.964,294.089Z"/><rect class="cls-8" x="71.734" y="228.539" width="199.238" height="58.407" rx="9.244" ry="9.244" transform="translate(342.706 515.486) rotate(-180)"/><path class="cls-8" d="M311.916,228.908h-20.44a7.014,7.014,0,0,0-7.014,7.014v21.862a21.366,21.366,0,0,0,21.366,21.366h64.164L327.2,235.344A21.366,21.366,0,0,0,311.916,228.908Z"/><path class="cls-4" d="M212.852,129.2l22.381,21.427c1.218,1.172,3.726,18.415,2.553,19.632l-4.265,4.434a3.084,3.084,0,0,1-4.348.084l-2.327-2.239L209.119,155.48c-7.2-6.93-14.515-13.857-17.95-17.27l-2.216-2.132a3.081,3.081,0,0,1-.084-4.348l4.264-4.433c1.171-1.219,18.5.73,19.719,1.9"/><path class="cls-4" d="M219.476,49.8a5.98,5.98,0,1,0,6.094,5.863,6.034,6.034,0,0,0-6.094-5.863m18.605,6.166a5.98,5.98,0,1,0,6.093,5.863,6.032,6.032,0,0,0-6.093-5.863M307.314,121.5a5.981,5.981,0,1,0-5.864,6.095,5.965,5.965,0,0,0,5.864-6.095m.784,12.49a5.98,5.98,0,1,0,6.095,5.864,6.035,6.035,0,0,0-6.095-5.864"/><path class="cls-3" d="M268.19,72.128l21.938,21.107c2.438,2.346,27.415,68.091,25.068,70.528l-8.422,8.753a6.036,6.036,0,0,1-8.588.166l-48.67-59.414L188.382,67.143a6.037,6.037,0,0,1-.166-8.588l8.422-8.753c2.346-2.438,69.115,19.98,71.552,22.326"/><path class="cls-9" d="M322.762,37.363c6.095,5.864,1.055,20.858-5.873,28.17l-76.227,79.117c-7.035,7.314-32.379,23.9-38.474,18.034s9.5-31.829,16.536-39.141L294.84,44.317C301.877,37,316.668,31.5,322.762,37.363"/><path class="cls-3" d="M224.151,128.656l76.118-79.114c5.971-6.207,17.512-11.1,24.513-8.955a9.474,9.474,0,0,0-2.021-3.334c-6.095-5.863-20.884-.249-27.922,7.064L218.72,123.432c-7.035,7.312-22.52,33.275-16.535,39.142a5.6,5.6,0,0,0,4.048,1.227c-.071-9.35,11.948-28.94,17.918-35.145"/><path class="cls-4" d="M225.239,94.924l12.468,9.328L268.519,72.23l-.333-.32c-.665-.64-6.8-3.022-15.122-6.016Z"/><path class="cls-4" d="M259.321,125.259l38.758,47.426a6.128,6.128,0,0,0,8.053.281L263.37,121.048Zm-17.89-25.32-53.851-40.5a6.086,6.086,0,0,0,.8,7.706l49,36.9Z"/><polygon class="cls-6" points="237.378 104.04 241.431 99.939 229.292 90.821 225.239 94.923 237.378 104.04"/></g></g></svg>