<?xml version="1.0" encoding="utf-8"?>
<!-- Generator: Adobe Illustrator 26.0.2, SVG Export Plug-In . SVG Version: 6.00 Build 0)  -->
<svg version="1.1" xmlns="http://www.w3.org/2000/svg" xmlns:xlink="http://www.w3.org/1999/xlink" x="0px" y="0px" width="512px"
	 height="512px" viewBox="0 0 512 512" style="enable-background:new 0 0 512 512;" xml:space="preserve">
<style type="text/css">
	.st0{fill:#FFFFFF;}
	.st1{fill:#FF5C60;}
	.st2{opacity:0.14;fill:#F15A24;}
	.st3{opacity:0.67;fill:url(#SVGID_1_);}
	.st4{opacity:0.67;fill:url(#SVGID_00000114033628035231891350000003140423258048919473_);}
	.st5{opacity:0.67;fill:url(#SVGID_00000078028454993029953080000012626812934859575424_);}
	.st6{clip-path:url(#SVGID_00000087413662474891943850000009754070837240690860_);fill:#FFA736;}
	.st7{clip-path:url(#SVGID_00000087413662474891943850000009754070837240690860_);fill:#FFA637;}
	.st8{clip-path:url(#SVGID_00000087413662474891943850000009754070837240690860_);fill:#FFA537;}
	.st9{clip-path:url(#SVGID_00000087413662474891943850000009754070837240690860_);fill:#FFA438;}
	.st10{clip-path:url(#SVGID_00000087413662474891943850000009754070837240690860_);fill:#FFA339;}
	.st11{clip-path:url(#SVGID_00000087413662474891943850000009754070837240690860_);fill:#FFA239;}
	.st12{clip-path:url(#SVGID_00000087413662474891943850000009754070837240690860_);fill:#FFA13A;}
	.st13{clip-path:url(#SVGID_00000087413662474891943850000009754070837240690860_);fill:#FFA03B;}
	.st14{clip-path:url(#SVGID_00000087413662474891943850000009754070837240690860_);fill:#FF9F3B;}
	.st15{clip-path:url(#SVGID_00000087413662474891943850000009754070837240690860_);fill:#FF9E3C;}
	.st16{clip-path:url(#SVGID_00000087413662474891943850000009754070837240690860_);fill:#FF9D3D;}
	.st17{clip-path:url(#SVGID_00000087413662474891943850000009754070837240690860_);fill:#FF9C3D;}
	.st18{clip-path:url(#SVGID_00000087413662474891943850000009754070837240690860_);fill:#FF9A3E;}
	.st19{clip-path:url(#SVGID_00000087413662474891943850000009754070837240690860_);fill:#FF993E;}
	.st20{clip-path:url(#SVGID_00000087413662474891943850000009754070837240690860_);fill:#FF983F;}
	.st21{clip-path:url(#SVGID_00000087413662474891943850000009754070837240690860_);fill:#FF9740;}
	.st22{clip-path:url(#SVGID_00000087413662474891943850000009754070837240690860_);fill:#FF9640;}
	.st23{clip-path:url(#SVGID_00000087413662474891943850000009754070837240690860_);fill:#FF9541;}
	.st24{clip-path:url(#SVGID_00000087413662474891943850000009754070837240690860_);fill:#FF9442;}
	.st25{clip-path:url(#SVGID_00000087413662474891943850000009754070837240690860_);fill:#FF9342;}
	.st26{clip-path:url(#SVGID_00000087413662474891943850000009754070837240690860_);fill:#FF9243;}
	.st27{clip-path:url(#SVGID_00000087413662474891943850000009754070837240690860_);fill:#FF9144;}
	.st28{clip-path:url(#SVGID_00000087413662474891943850000009754070837240690860_);fill:#FF9044;}
	.st29{clip-path:url(#SVGID_00000087413662474891943850000009754070837240690860_);fill:#FF8F45;}
	.st30{opacity:0.14;fill:#F15A24;enable-background:new    ;}
	.st31{opacity:0.47;fill:#F97E48;enable-background:new    ;}
	.st32{fill:url(#SVGID_00000021833168782681453610000005504046350956953751_);}
	.st33{fill:url(#SVGID_00000163793148512634338680000011914574923589880977_);}
	.st34{fill:#FFB654;}
	.st35{fill:url(#SVGID_00000164497419229951744610000008072022730938693301_);}
	.st36{fill:url(#SVGID_00000173125354958162323100000015396437976222933895_);}
	.st37{fill:url(#SVGID_00000067941567895803933530000007316820063705659563_);}
	.st38{fill:url(#SVGID_00000005988423423351067150000003201925219947841949_);}
	.st39{fill:#FF7B34;}
	.st40{opacity:0.3;fill:#CD4927;enable-background:new    ;}
	.st41{opacity:0.3;}
	.st42{fill:#CD4927;}
	.st43{clip-path:url(#SVGID_00000074423594868275422580000013015143233226597263_);}
	.st44{fill:#FFC263;}
	.st45{fill:#FF7600;}
	.st46{fill:url(#SVGID_00000027584762522102365140000013229934815685906875_);}
	.st47{opacity:0.2;fill:#CD4927;enable-background:new    ;}
	.st48{fill:url(#SVGID_00000131359872391404878720000013888082017765373067_);}
	.st49{opacity:0.6;fill:#CD4927;enable-background:new    ;}
	.st50{fill:#FFC369;}
	.st51{fill:#FFCA6C;}
	.st52{fill:url(#SVGID_00000145052595330484138650000018235028533929027457_);}
	.st53{fill:url(#SVGID_00000024683369490647528600000015339575063236565656_);}
	.st54{opacity:0.3;fill:#CE471D;enable-background:new    ;}
	.st55{opacity:0.44;fill:#CE471D;enable-background:new    ;}
	.st56{opacity:0.47;fill:#EE7D4A;enable-background:new    ;}
	.st57{fill:url(#SVGID_00000008839665365107466010000007596482618970624161_);}
	.st58{fill:#EE7A3B;}
	.st59{opacity:0.6;fill:#CC4A27;enable-background:new    ;}
	.st60{opacity:0.3;fill:#CC4A27;enable-background:new    ;}
	.st61{fill:#FAC16B;}
	.st62{fill:#FCC86E;}
	.st63{fill:url(#SVGID_00000103243691187342859680000005106454952283383690_);}
	.st64{fill:url(#SVGID_00000173139991217060387980000008088718949196659114_);}
	.st65{opacity:0.4;fill:#CE471D;enable-background:new    ;}
	.st66{fill:url(#SVGID_00000145752610953089616550000007590143035453831298_);}
	.st67{fill:#CE471D;}
	.st68{fill:#FF8F45;}
	.st69{fill:none;stroke:#D6D6D6;stroke-miterlimit:10;}
	.st70{fill:#464647;}
	.st71{fill:#E5E5E5;stroke:#D6D6D6;stroke-miterlimit:10;}
	.st72{fill:#FF5A5E;}
	.st73{fill:url(#SVGID_00000075123023597298002310000005568681734795797926_);}
	.st74{fill:url(#SVGID_00000056415172281684129490000013476989807220920236_);}
	.st75{opacity:0.42;fill:#F15A24;}
	.st76{fill:url(#SVGID_00000088125181833188655530000007204968395130652349_);}
	.st77{fill:url(#SVGID_00000078045977399942866410000009359957103182225568_);}
	.st78{fill:url(#SVGID_00000113331365834077287890000010178552794856255106_);}
	.st79{fill:url(#SVGID_00000135661540093639117540000001482382687012136336_);}
	.st80{opacity:0.67;fill:url(#SVGID_00000076603469748236615090000012951204219288749228_);}
	.st81{opacity:0.67;fill:url(#SVGID_00000087373370280979624880000002848684177749467027_);}
	.st82{opacity:0.67;fill:url(#SVGID_00000072261548993513067920000014359603958404807055_);}
	.st83{clip-path:url(#SVGID_00000124855872421877392860000006067403766397525386_);fill:#FFA736;}
	.st84{clip-path:url(#SVGID_00000124855872421877392860000006067403766397525386_);fill:#FFA637;}
	.st85{clip-path:url(#SVGID_00000124855872421877392860000006067403766397525386_);fill:#FFA537;}
	.st86{clip-path:url(#SVGID_00000124855872421877392860000006067403766397525386_);fill:#FFA438;}
	.st87{clip-path:url(#SVGID_00000124855872421877392860000006067403766397525386_);fill:#FFA339;}
	.st88{clip-path:url(#SVGID_00000124855872421877392860000006067403766397525386_);fill:#FFA239;}
	.st89{clip-path:url(#SVGID_00000124855872421877392860000006067403766397525386_);fill:#FFA13A;}
	.st90{clip-path:url(#SVGID_00000124855872421877392860000006067403766397525386_);fill:#FFA03B;}
	.st91{clip-path:url(#SVGID_00000124855872421877392860000006067403766397525386_);fill:#FF9F3B;}
	.st92{clip-path:url(#SVGID_00000124855872421877392860000006067403766397525386_);fill:#FF9E3C;}
	.st93{clip-path:url(#SVGID_00000124855872421877392860000006067403766397525386_);fill:#FF9D3D;}
	.st94{clip-path:url(#SVGID_00000124855872421877392860000006067403766397525386_);fill:#FF9C3D;}
	.st95{clip-path:url(#SVGID_00000124855872421877392860000006067403766397525386_);fill:#FF9A3E;}
	.st96{clip-path:url(#SVGID_00000124855872421877392860000006067403766397525386_);fill:#FF993E;}
	.st97{clip-path:url(#SVGID_00000124855872421877392860000006067403766397525386_);fill:#FF983F;}
	.st98{clip-path:url(#SVGID_00000124855872421877392860000006067403766397525386_);fill:#FF9740;}
	.st99{clip-path:url(#SVGID_00000124855872421877392860000006067403766397525386_);fill:#FF9640;}
	.st100{clip-path:url(#SVGID_00000124855872421877392860000006067403766397525386_);fill:#FF9541;}
	.st101{clip-path:url(#SVGID_00000124855872421877392860000006067403766397525386_);fill:#FF9442;}
	.st102{clip-path:url(#SVGID_00000124855872421877392860000006067403766397525386_);fill:#FF9342;}
	.st103{clip-path:url(#SVGID_00000124855872421877392860000006067403766397525386_);fill:#FF9243;}
	.st104{clip-path:url(#SVGID_00000124855872421877392860000006067403766397525386_);fill:#FF9144;}
	.st105{clip-path:url(#SVGID_00000124855872421877392860000006067403766397525386_);fill:#FF9044;}
	.st106{clip-path:url(#SVGID_00000124855872421877392860000006067403766397525386_);fill:#FF8F45;}
	.st107{fill:url(#SVGID_00000174592468881749404810000002818310614611274679_);}
	.st108{fill:url(#SVGID_00000103230976364846377850000008041856513184510088_);}
	.st109{fill:url(#SVGID_00000159462856356209574990000003164166471776869015_);}
	.st110{fill:url(#SVGID_00000037684038350160695710000018061119058171187093_);}
	.st111{fill:url(#SVGID_00000111881214959225564170000015801536965426441885_);}
	.st112{fill:url(#SVGID_00000083056568973368093340000003131339748901250216_);}
</style>
<g id="Background">
</g>
<g id="Layer_2">
	<g>
		<circle class="st0" cx="256" cy="256" r="256"/>
		<circle class="st2" cx="256" cy="256" r="256"/>
		<g>
			<linearGradient id="SVGID_1_" gradientUnits="userSpaceOnUse" x1="124.3776" y1="304.4628" x2="124.3776" y2="346.0672">
				<stop  offset="1.500000e-02" style="stop-color:#FFBD57"/>
				<stop  offset="0.341" style="stop-color:#FFA736"/>
				<stop  offset="0.611" style="stop-color:#FF8F45"/>
				<stop  offset="0.984" style="stop-color:#FF8F45"/>
			</linearGradient>
			<path style="fill:url(#SVGID_1_);" d="M117.6,332.4c0,7.5,6,13.6,13.5,13.7v-41.6c-7.5,0.1-13.5,6.2-13.5,13.7V332.4z"/>
			
				<linearGradient id="SVGID_00000060710009254660461740000013845661176854815899_" gradientUnits="userSpaceOnUse" x1="387.6223" y1="304.4628" x2="387.6223" y2="346.0672">
				<stop  offset="1.500000e-02" style="stop-color:#FFBD57"/>
				<stop  offset="0.341" style="stop-color:#FFA736"/>
				<stop  offset="0.611" style="stop-color:#FF8F45"/>
				<stop  offset="0.984" style="stop-color:#FF8F45"/>
			</linearGradient>
			<path style="fill:url(#SVGID_00000060710009254660461740000013845661176854815899_);" d="M380.9,346.1
				c7.5-0.1,13.5-6.2,13.5-13.7v-14.2c0-7.5-6-13.6-13.5-13.7V346.1z"/>
			<path class="st75" d="M117.6,332.4c0,7.5,6,13.6,13.5,13.7v-41.6c-7.5,0.1-13.5,6.2-13.5,13.7V332.4z"/>
			<path class="st75" d="M380.9,346.1c7.5-0.1,13.5-6.2,13.5-13.7v-14.2c0-7.5-6-13.6-13.5-13.7V346.1z"/>
			
				<linearGradient id="SVGID_00000124884231638383933910000000279233185466137740_" gradientUnits="userSpaceOnUse" x1="255.9881" y1="382.1819" x2="255.9881" y2="121.2682">
				<stop  offset="1.500000e-02" style="stop-color:#FFBD57"/>
				<stop  offset="0.341" style="stop-color:#FFA736"/>
				<stop  offset="0.611" style="stop-color:#FF8F45"/>
				<stop  offset="0.984" style="stop-color:#FF8F45"/>
			</linearGradient>
			<path style="fill:url(#SVGID_00000124884231638383933910000000279233185466137740_);" d="M335.7,268.3v113.8
				c14.2-0.2,26.4-8.2,32.6-19.9c1.2,0.7,2.5,1.2,4,1.2h1.6c2.7,0,5-1.5,6.4-3.3c1.4-1.9,2.1-4.2,2.1-6.6v-9.2v-13.7v-85.7h-4.2
				c-2.3,0-4.1-1.9-4.1-4.2c0-0.5,0-0.9,0-1.4c0-65.2-52.9-118.1-118.1-118.1c-65.2,0-118.1,52.9-118.1,118.1c0,0.5,0,0.9,0,1.4
				c0,2.3-1.8,4.2-4.1,4.2h-4.2v108.6c0,2.5,0.7,4.8,2.1,6.6c1.4,1.8,3.6,3.3,6.4,3.3h1.6c1.4,0,2.6-0.4,3.7-1
				c6.3,11.6,18.5,19.5,32.6,19.7V268.3c-11.1,0.1-21,5.1-27.8,12.9v-32.4c3.5-0.7,6-3.6,6.4-7.1l0.1-0.4l0-1.3
				c0-28,11.3-53.3,29.7-71.7c18.4-18.4,43.7-29.7,71.7-29.7c28,0,53.3,11.3,71.7,29.7c18.4,18.4,29.7,43.7,29.7,71.7v0.8v0
				c0,3.9,2.7,7.1,6.4,7.8v32.7C357,273.6,346.9,268.5,335.7,268.3z"/>
			
				<linearGradient id="SVGID_00000121272812421884696700000005446689647339434383_" gradientUnits="userSpaceOnUse" x1="121.729" y1="174.9651" x2="390.2316" y2="174.9651">
				<stop  offset="1.500000e-02" style="stop-color:#FFBD57"/>
				<stop  offset="0.341" style="stop-color:#FFA736"/>
				<stop  offset="0.611" style="stop-color:#FF8F45"/>
				<stop  offset="0.984" style="stop-color:#FF8F45"/>
			</linearGradient>
			<path style="fill:url(#SVGID_00000121272812421884696700000005446689647339434383_);" d="M378.1,244.9h4.2h3.8
				c2.2,0,4.1-1.8,4.1-4c0-0.5,0-1,0-1.5c0-74.1-60.1-134.3-134.2-134.3c-74.1,0-134.3,60.1-134.3,134.3c0,0.5,0,1,0,1.5
				c0,2.2,1.9,4,4.1,4h3.8h4.2c2.3,0,4.1-1.9,4.1-4.2c0-0.5,0-0.9,0-1.4c0-65.2,52.9-118.1,118.1-118.1
				c65.2,0,118.1,52.9,118.1,118.1c0,0.5,0,0.9,0,1.4C374,243,375.8,244.9,378.1,244.9z"/>
			
				<linearGradient id="SVGID_00000132795732664557745450000013587437865705094332_" gradientUnits="userSpaceOnUse" x1="184.1754" y1="268.3284" x2="184.1754" y2="382.5512">
				<stop  offset="1.500000e-02" style="stop-color:#FFBD57"/>
				<stop  offset="0.341" style="stop-color:#FFA736"/>
				<stop  offset="0.611" style="stop-color:#FF8F45"/>
				<stop  offset="0.984" style="stop-color:#FF8F45"/>
			</linearGradient>
			<path style="fill:url(#SVGID_00000132795732664557745450000013587437865705094332_);" d="M175.3,268.3v114.2h13.8
				c2.2,0,3.9-1.7,3.9-3.9V272.2c0-2.2-1.7-3.9-3.9-3.9H175.3z"/>
			
				<linearGradient id="SVGID_00000031911725369199677970000009496654099344839866_" gradientUnits="userSpaceOnUse" x1="327.2193" y1="268.3284" x2="327.2193" y2="382.5512">
				<stop  offset="1.500000e-02" style="stop-color:#FFBD57"/>
				<stop  offset="0.341" style="stop-color:#FFA736"/>
				<stop  offset="0.611" style="stop-color:#FF8F45"/>
				<stop  offset="0.984" style="stop-color:#FF8F45"/>
			</linearGradient>
			<path style="fill:url(#SVGID_00000031911725369199677970000009496654099344839866_);" d="M318.4,272.2v106.4
				c0,2.2,1.7,3.9,3.9,3.9h13.8V268.3h-13.8C320.1,268.3,318.4,270.1,318.4,272.2z"/>
			<path class="st75" d="M175.3,268.3v114.2h13.8c2.2,0,3.9-1.7,3.9-3.9V272.2c0-2.2-1.7-3.9-3.9-3.9H175.3z"/>
			<path class="st75" d="M318.4,272.2v106.4c0,2.2,1.7,3.9,3.9,3.9h13.8V268.3h-13.8C320.1,268.3,318.4,270.1,318.4,272.2z"/>
		</g>
	</g>
</g>
</svg>
