<svg id="Layer_1" data-name="Layer 1" xmlns="http://www.w3.org/2000/svg" viewBox="0 0 512 512"><defs><style>.cls-1{fill:none;stroke:#464648;stroke-linecap:round;stroke-linejoin:round;stroke-width:30px;}.cls-2{fill:#464648;}</style></defs><title>Gaming</title><g id="Gaming"><path class="cls-1" d="M454.138,181.321C414.011,99.206,371.02,93.47,330.99,113.042c-12.143,5.93-22.575,13.543-30.154,23.517h-87.7c-7.578-9.974-18.011-17.587-30.149-23.517C142.955,93.47,99.957,99.206,59.832,181.321,19.674,263.446-2.394,390.86,37.634,410.433c27.821,13.6,78.278-28.506,119.955-82.991h198.76c41.672,54.484,92.134,96.586,119.955,82.991,40.06-19.573,17.959-146.986-22.166-229.111Zm-98.944,96.094"/><path class="cls-2" d="M203.318,232.637a6.078,6.078,0,0,1-6.141,6.007H167.792v30.117a6.066,6.066,0,0,1-6.13,6.007H140.867a6.079,6.079,0,0,1-6.13-6.007V238.645h-29.38a6.08,6.08,0,0,1-6.146-6.007v-20.38a6.08,6.08,0,0,1,6.146-6.007h29.38V176.122a6.08,6.08,0,0,1,6.13-6.007h20.795a6.067,6.067,0,0,1,6.13,6.007V206.25h29.385a6.08,6.08,0,0,1,6.146,6.007v20.38Z"/><path class="cls-2" d="M373.931,181.346A18.74,18.74,0,1,1,355.194,162.6a18.738,18.738,0,0,1,18.737,18.747Z"/><path class="cls-2" d="M316.536,238.757A18.751,18.751,0,1,1,335.274,220a18.748,18.748,0,0,1-18.738,18.758Z"/><path class="cls-2" d="M393.917,238.757A18.751,18.751,0,1,1,412.661,220a18.747,18.747,0,0,1-18.743,18.758Z"/><path class="cls-2" d="M355.194,277.415a18.751,18.751,0,1,1,18.737-18.749,18.734,18.734,0,0,1-18.737,18.749Z"/></g></svg>