<svg id="Layer_1" data-name="Layer 1" xmlns="http://www.w3.org/2000/svg" viewBox="0 0 512 512"><defs><style>.cls-1{fill:none;stroke:#464647;stroke-linecap:round;stroke-linejoin:round;stroke-width:30px;}.cls-2{fill:#464647;}</style></defs><title>Icon_Snack</title><path class="cls-1" d="M477.26,479.06c-15,16-35.67,16-35.67,16H74.41a66.3,66.3,0,0,1-38.5-17.94C19.2,460.79,19.2,424.25,19.2,424.25H494.12S495.63,459.5,477.26,479.06Z"/><path class="cls-1" d="M399.2,267V218.08A22.07,22.07,0,0,0,377.14,196H62.78a22.07,22.07,0,0,0-22.07,22.07V267c0,114.2,85.4,155.77,85.4,155.77H313.86C405.64,369.64,399.2,267,399.2,267Z"/><path class="cls-1" d="M333.66,262.42s4.49,61.13-34.56,101.75"/><path class="cls-2" d="M166.18,61.09c-1.56-13.78,5.37-20.72,5.66-21a4,4,0,0,0-.55-6.19L160,21.42a4,4,0,0,0-5.65-.27c-.69.63-16.85,15.65-13.77,42.85,1.32,11.67,6.44,19.57,10.55,25.92,4.65,7.18,7.72,11.91,6.92,22.1a44.34,44.34,0,0,1-10.79,25.52,12.91,12.91,0,0,0,19.56,16.85,70,70,0,0,0,17-40.37c1.47-18.89-5.73-30-11-38.13C169.31,70.57,166.82,66.74,166.18,61.09Z"/><path class="cls-2" d="M231.21,45.2c-1.56-13.78,5.37-20.72,5.66-21a4,4,0,0,0-.55-6.19L225,5.53a4,4,0,0,0-5.65-.27c-.69.63-16.85,15.66-13.77,42.85C206.89,59.78,212,67.68,216.11,74c4.65,7.18,7.72,11.91,6.92,22.1a44.34,44.34,0,0,1-10.79,25.52,12.91,12.91,0,0,0,19.56,16.85,70,70,0,0,0,17-40.37c1.47-18.89-5.73-30-11-38.13C234.34,54.68,231.85,50.84,231.21,45.2Z"/><path class="cls-2" d="M302.81,75.89c-3.44-5.32-5.93-9.15-6.57-14.8-1.56-13.78,5.37-20.72,5.66-21a4,4,0,0,0-.55-6.19L290,21.42a4,4,0,0,0-5.65-.27c-.69.63-16.85,15.65-13.77,42.85,1.32,11.67,6.44,19.57,10.55,25.92,4.65,7.18,7.72,11.91,6.92,22.1a44.34,44.34,0,0,1-10.79,25.52,12.91,12.91,0,0,0,19.56,16.85,70,70,0,0,0,17-40.37C315.27,95.13,308.07,84,302.81,75.89Z"/><path class="cls-1" d="M412.23,240.79h63.31a18.92,18.92,0,0,1,18.92,18.92v39.76a50.27,50.27,0,0,1-50.27,50.27H397.91"/></svg>