<svg id="Layer_1" data-name="Layer 1" xmlns="http://www.w3.org/2000/svg" viewBox="0 0 512 512"><defs><style>.cls-1{fill:none;stroke:#464648;stroke-linecap:round;stroke-linejoin:round;stroke-width:30px;}</style></defs><title>Icon_Air-Conditioning</title><line class="cls-1" x1="256" y1="15.6" x2="256" y2="496.4"/><line class="cls-1" x1="184.65" y1="57.36" x2="252.07" y2="96.29"/><line class="cls-1" x1="327.35" y1="57.36" x2="259.93" y2="96.29"/><line class="cls-1" x1="184.65" y1="441.92" x2="252.07" y2="403"/><line class="cls-1" x1="327.35" y1="441.92" x2="259.93" y2="403"/><line class="cls-1" x1="47.99" y1="136.2" x2="474.01" y2="382.16"/><line class="cls-1" x1="52.43" y1="221.15" x2="119.85" y2="182.23"/><line class="cls-1" x1="123.79" y1="97.57" x2="123.79" y2="175.41"/><line class="cls-1" x1="387.2" y1="414.43" x2="387.2" y2="336.59"/><line class="cls-1" x1="458.56" y1="290.85" x2="391.14" y2="329.77"/><line class="cls-1" x1="47.99" y1="375.8" x2="474.01" y2="129.84"/><line class="cls-1" x1="52.43" y1="290.85" x2="119.85" y2="329.77"/><line class="cls-1" x1="123.79" y1="414.43" x2="123.79" y2="336.59"/><line class="cls-1" x1="387.2" y1="97.57" x2="387.2" y2="175.41"/><line class="cls-1" x1="458.56" y1="221.15" x2="391.14" y2="182.23"/></svg>