<svg id="Layer_1" data-name="Layer 1" xmlns="http://www.w3.org/2000/svg" viewBox="0 0 512 512"><defs><style>.cls-1,.cls-3{fill:none;stroke:#464647;stroke-linecap:round;stroke-linejoin:round;}.cls-1{stroke-width:30px;}.cls-2{fill:#464647;}.cls-3{stroke-width:20px;}</style></defs><title>Icon_Movil-Ticket</title><path class="cls-1" d="M366.41,19H145.59a33,33,0,0,0-32.87,32.87V461.23a33,33,0,0,0,32.87,32.87H366.41a33,33,0,0,0,32.87-32.87V51.86A33,33,0,0,0,366.41,19Zm32.87,379.12H114.15m-1.43-289.89H397.46M376.38,424.56"/><path class="cls-2" d="M256,464.59a18.32,18.32,0,1,1,18.32-18.33A18.28,18.28,0,0,1,256,464.59Z"/><path class="cls-2" d="M185,183.91h41.9l28.94,82h.35l29.11-82H327V309.59H299.31V213.2H299l-33,96.39H244.81L213,213.2h-.35v96.39H185Z"/><line class="cls-3" x1="219.14" y1="62.48" x2="292.86" y2="62.48"/></svg>