<svg id="Layer_1" data-name="Layer 1" xmlns="http://www.w3.org/2000/svg" viewBox="0 0 561.44 512"><defs><style>.cls-1,.cls-2{fill:none;stroke:#464647;stroke-linecap:round;stroke-linejoin:round;}.cls-1{stroke-width:30px;}.cls-2{stroke-width:26px;}</style></defs><title>Icon_Bathrooms</title><path class="cls-1" d="M211.29,293.13l.12-131.57v-.11A42.47,42.47,0,0,0,169,119.29H72.71a42.47,42.47,0,0,0-42.38,42.17L29.66,293m124-161"/><path class="cls-1" d="M158.33,55.19a38.9,38.9,0,1,1-38.9-38.9,38.9,38.9,0,0,1,38.9,38.9Zm0,0"/><path class="cls-1" d="M535.52,252.71c-.3-.86-28.35-86.38-33.06-100.11-7.59-22.1-20.33-33.3-37.85-33.3h-57c-17.52,0-30.26,11.2-37.85,33.3-4.72,13.73-30.81,99.25-31.12,100.11m63.62-16.42-30.21,97.66H506.84l-32.61-97.66m63.24,12.21"/><path class="cls-1" d="M476.67,54.91a38.62,38.62,0,1,1-38.62-38.62,38.62,38.62,0,0,1,38.62,38.62Zm0,0"/><line class="cls-2" x1="275.76" y1="14.49" x2="275.76" y2="497.07"/><line class="cls-1" x1="85.17" y1="284.6" x2="85.17" y2="491.3"/><line class="cls-1" x1="155.42" y1="284.6" x2="155.42" y2="491.3"/><line class="cls-1" x1="411.02" y1="340.15" x2="411.02" y2="491.33"/><line class="cls-1" x1="466.43" y1="340.15" x2="466.43" y2="491.33"/></svg>