<svg id="Layer_1" data-name="Layer 1" xmlns="http://www.w3.org/2000/svg" viewBox="0 0 512 512"><defs><style>.cls-1,.cls-3{fill:none;stroke:#fff;stroke-linecap:round;stroke-linejoin:round;}.cls-1{stroke-width:30px;}.cls-2{fill:#fff;}.cls-3{stroke-width:20px;}</style></defs><title>Icon_Movil-Ticket_White</title><path class="cls-1" d="M366.405,18.99H145.595a32.991,32.991,0,0,0-32.871,32.871V461.235a32.991,32.991,0,0,0,32.871,32.871h220.81a32.992,32.992,0,0,0,32.871-32.871V51.861A32.991,32.991,0,0,0,366.405,18.99Zm32.871,379.122H114.149m-1.425-289.887H397.46M376.382,424.562"/><path class="cls-2" d="M256,464.594a18.325,18.325,0,1,1,18.315-18.335A18.28,18.28,0,0,1,256,464.594Z"/><path class="cls-2" d="M184.99,183.91h41.9l28.936,82.015h.355l29.113-82.015h41.717V309.595H299.314V213.2h-.355L265.94,309.595H244.815L213.038,213.2h-.355v96.394H184.99Z"/><line class="cls-3" x1="219.14" y1="62.482" x2="292.86" y2="62.482"/></svg>