<svg id="Layer_1" data-name="Layer 1" xmlns="http://www.w3.org/2000/svg" viewBox="0 0 561.442 512"><defs><style>.cls-1,.cls-2{fill:none;stroke:#fff;stroke-linecap:round;stroke-linejoin:round;}.cls-1{stroke-width:30px;}.cls-2{stroke-width:26px;}</style></defs><title>Icon_Bathrooms_White</title><path class="cls-1" d="M211.295,293.134l.12-131.567v-.107a42.474,42.474,0,0,0-42.378-42.169H72.706A42.471,42.471,0,0,0,30.328,161.46l-.664,131.567M153.7,132.059"/><path class="cls-1" d="M158.334,55.191a38.9,38.9,0,1,1-38.9-38.9,38.9,38.9,0,0,1,38.9,38.9Zm0,0"/><path class="cls-1" d="M535.523,252.707c-.3-.863-28.348-86.384-33.064-100.113-7.592-22.1-20.326-33.3-37.845-33.3H407.6c-17.518,0-30.256,11.2-37.849,33.3-4.718,13.729-30.814,99.25-31.117,100.113m63.623-16.419-30.206,97.658H506.844l-32.615-97.658M537.466,248.5"/><path class="cls-1" d="M476.667,54.909a38.617,38.617,0,1,1-38.616-38.618,38.619,38.619,0,0,1,38.616,38.618Zm0,0"/><line class="cls-2" x1="275.756" y1="14.492" x2="275.756" y2="497.075"/><line class="cls-1" x1="85.173" y1="284.598" x2="85.173" y2="491.298"/><line class="cls-1" x1="155.419" y1="284.598" x2="155.419" y2="491.298"/><line class="cls-1" x1="411.019" y1="340.152" x2="411.019" y2="491.332"/><line class="cls-1" x1="466.434" y1="340.152" x2="466.434" y2="491.332"/></svg>