<svg id="Layer_1" data-name="Layer 1" xmlns="http://www.w3.org/2000/svg" viewBox="0 0 512 512"><defs><style>.cls-1{fill:none;stroke:#fff;stroke-linecap:round;stroke-linejoin:round;stroke-width:30px;}.cls-2{fill:#fff;}</style></defs><title>Icon_Snack_White</title><path class="cls-1" d="M477.257,479.063c-15.008,15.987-35.671,15.984-35.671,15.984H74.412a66.3,66.3,0,0,1-38.5-17.942C19.2,460.792,19.2,424.251,19.2,424.251H494.115S495.626,459.5,477.257,479.063Z"/><path class="cls-1" d="M399.2,267.02V218.085a22.067,22.067,0,0,0-22.067-22.067H62.777a22.067,22.067,0,0,0-22.067,22.067V267.02c0,114.2,85.4,155.769,85.4,155.769H313.861C405.639,369.638,399.2,267.02,399.2,267.02Z"/><path class="cls-1" d="M333.657,262.416s4.487,61.128-34.555,101.752"/><path class="cls-2" d="M166.18,61.094c-1.559-13.777,5.369-20.723,5.664-21.012a4.006,4.006,0,0,0-.55-6.185L159.951,21.42a4,4,0,0,0-5.65-.27c-.689.626-16.847,15.652-13.77,42.847,1.321,11.674,6.438,19.573,10.548,25.92,4.649,7.176,7.718,11.913,6.925,22.1a44.338,44.338,0,0,1-10.792,25.522,12.907,12.907,0,0,0,19.556,16.849,70.008,70.008,0,0,0,16.971-40.367c1.47-18.89-5.731-30.008-10.99-38.127C169.305,70.575,166.819,66.736,166.18,61.094Z"/><path class="cls-2" d="M231.212,45.2c-1.559-13.778,5.369-20.724,5.665-21.013A4.005,4.005,0,0,0,236.324,18L224.983,5.526a4,4,0,0,0-5.65-.27c-.689.626-16.846,15.655-13.77,42.847,1.322,11.675,6.438,19.574,10.549,25.921,4.648,7.175,7.717,11.912,6.924,22.1a44.338,44.338,0,0,1-10.792,25.522A12.907,12.907,0,0,0,231.8,138.491a70.008,70.008,0,0,0,16.971-40.367c1.47-18.89-5.731-30.009-10.99-38.127C234.338,54.682,231.851,50.843,231.212,45.2Z"/><path class="cls-2" d="M302.814,75.89c-3.443-5.315-5.93-9.154-6.569-14.8-1.559-13.777,5.369-20.723,5.664-21.012a4.006,4.006,0,0,0-.55-6.185L290.016,21.42a4,4,0,0,0-5.65-.27c-.689.626-16.847,15.65-13.77,42.847,1.321,11.674,6.438,19.573,10.548,25.92,4.649,7.176,7.718,11.913,6.925,22.1a44.338,44.338,0,0,1-10.792,25.522,12.907,12.907,0,0,0,19.556,16.849A70.007,70.007,0,0,0,313.8,114.017C315.274,95.127,308.072,84.009,302.814,75.89Z"/><path class="cls-1" d="M412.226,240.792h63.31a18.919,18.919,0,0,1,18.919,18.919v39.758a50.269,50.269,0,0,1-50.269,50.269H397.914"/></svg>