<svg id="Layer_1" data-name="Layer 1" xmlns="http://www.w3.org/2000/svg" viewBox="0 0 512 512"><defs><style>.cls-1{fill:none;stroke:#fff;stroke-linecap:round;stroke-linejoin:round;stroke-width:30px;}</style></defs><title>Icon_TV_White</title><path class="cls-1" d="M324.458,465.888H468.011a28.128,28.128,0,0,0,28.128-28.128V157.737a28.128,28.128,0,0,0-28.128-28.128H44.214a28.128,28.128,0,0,0-28.128,28.128V437.76a28.128,28.128,0,0,0,28.128,28.128H324.458Z"/><path class="cls-1" d="M299.749,405.1H391.4a17.959,17.959,0,0,0,17.959-17.959V208.355A17.959,17.959,0,0,0,391.4,190.4H120.821a17.959,17.959,0,0,0-17.959,17.959V387.142A17.959,17.959,0,0,0,120.821,405.1H299.749Z"/><polyline class="cls-1" points="342.001 17.401 251.638 125.606 174.227 58.767"/><line class="cls-1" x1="71.297" y1="466.968" x2="71.297" y2="495.6"/><line class="cls-1" x1="438.779" y1="466.968" x2="438.779" y2="495.6"/></svg>