<svg id="Layer_1" data-name="Layer 1" xmlns="http://www.w3.org/2000/svg" viewBox="0 0 512 512"><defs><style>.cls-1{fill:none;stroke:#fff;stroke-linecap:round;stroke-linejoin:round;stroke-width:30px;}.cls-2{fill:#fff;}</style></defs><title>Icon_Hot-Food_White</title><path class="cls-1" d="M254.407,121.051H360.572a134.9,134.9,0,0,1,134.9,134.9v9.155a0,0,0,0,1,0,0H119.506a0,0,0,0,1,0,0v-9.155A134.9,134.9,0,0,1,254.407,121.051Z"/><path class="cls-1" d="M470.783,370.2c-9.99-.016-9.449-13-28.871-13-17.323,0-18.108,13.012-29.632,13-15.247-.014-16.558-12.268-33.356-12.279-16.273-.011-20.472,12.29-32.546,12.279-16.8-.015-13.417-11.557-36.937-11.557-17.657,0-21.856,11.554-33.929,11.557-13.124,0-17.848-10.824-34.121-10.835s-21.522,10.828-32.546,10.835c-12.858.007-10.519-10.52-30.707-11.557-18.9-.971-25.526,12-33.942,11.557-11.292-.589-24.69-12.808-24.69-25.308h0c0-12.5,11.054-27.982,24.69-27.982H470.783c13.636,0,24.69,14.59,24.69,27.091h0C495.473,356.5,481.811,370.218,470.783,370.2Z"/><path class="cls-1" d="M469.584,315.83H144.279a25.654,25.654,0,0,1-25.888-25.412h0a25.654,25.654,0,0,1,25.888-25.412H469.584a25.654,25.654,0,0,1,25.888,25.412h0A25.654,25.654,0,0,1,469.584,315.83Z"/><path class="cls-1" d="M119.506,412.209H495.473a0,0,0,0,1,0,0v26.9A57.674,57.674,0,0,1,437.8,496.782H177.181a57.674,57.674,0,0,1-57.674-57.674v-26.9A0,0,0,0,1,119.506,412.209Z"/><path class="cls-2" d="M341.361,227.4a8.13,8.13,0,0,0,8.128-8.128v-6.9a8.13,8.13,0,0,0-16.26,0v6.9a8.131,8.131,0,0,0,8.132,8.128Zm0,0"/><path class="cls-2" d="M410.211,227.4a8.131,8.131,0,0,0,8.132-8.128v-6.9a8.13,8.13,0,0,0-16.26,0v6.9a8.128,8.128,0,0,0,8.128,8.128Zm0,0"/><path class="cls-2" d="M375.788,181.807a8.127,8.127,0,0,0,8.129-8.128v-6.9a8.131,8.131,0,0,0-16.261,0v6.9a8.13,8.13,0,0,0,8.132,8.128Zm0,0"/><path class="cls-2" d="M306.931,181.807a8.134,8.134,0,0,0,8.131-8.132v-6.9a8.13,8.13,0,1,0-16.26,0v6.9a8.132,8.132,0,0,0,8.129,8.132Zm0,0"/><path class="cls-2" d="M272.5,227.4a8.131,8.131,0,0,0,8.132-8.128v-6.9a8.132,8.132,0,0,0-16.264,0v6.9A8.133,8.133,0,0,0,272.5,227.4Zm0,0"/><path class="cls-2" d="M238.08,181.807a8.133,8.133,0,0,0,8.128-8.132v-6.9a8.13,8.13,0,1,0-16.26,0v6.9a8.13,8.13,0,0,0,8.132,8.132Zm0,0"/><path class="cls-2" d="M203.651,226.517a7.823,7.823,0,0,0,7.822-7.818v-6.637a7.822,7.822,0,0,0-15.644,0V218.7a7.823,7.823,0,0,0,7.822,7.818Zm0,0"/><polyline class="cls-1" points="210.655 496.991 69.221 496.991 38.506 16.531 339.486 16.531 331.432 116.744"/><line class="cls-1" x1="15.503" y1="16.531" x2="358.54" y2="16.531"/></svg>