<svg id="Layer_1" data-name="Layer 1" xmlns="http://www.w3.org/2000/svg" viewBox="0 0 512 512"><defs><style>.cls-1{fill:none;stroke:#464648;stroke-linecap:round;stroke-linejoin:round;stroke-width:30px;}.cls-2{fill:#464648;}</style></defs><title>Icon_Hot-Food</title><path class="cls-1" d="M254.41,121.05H360.57A134.9,134.9,0,0,1,495.47,256v9.15a0,0,0,0,1,0,0h-376a0,0,0,0,1,0,0V256A134.9,134.9,0,0,1,254.41,121.05Z"/><path class="cls-1" d="M470.78,370.2c-10,0-9.45-13-28.87-13-17.32,0-18.11,13-29.63,13-15.25,0-16.56-12.27-33.36-12.28-16.27,0-20.47,12.29-32.55,12.28-16.8,0-13.42-11.56-36.94-11.56-17.66,0-21.86,11.55-33.93,11.56-13.12,0-17.85-10.82-34.12-10.83s-21.52,10.83-32.55,10.83c-12.86,0-10.52-10.52-30.71-11.56-18.9-1-25.53,12-33.94,11.56-11.29-.59-24.69-12.81-24.69-25.31h0c0-12.5,11.05-28,24.69-28H470.78c13.64,0,24.69,14.59,24.69,27.09h0C495.47,356.5,481.81,370.22,470.78,370.2Z"/><path class="cls-1" d="M469.58,315.83H144.28a25.65,25.65,0,0,1-25.89-25.41h0A25.65,25.65,0,0,1,144.28,265H469.58a25.65,25.65,0,0,1,25.89,25.41h0A25.65,25.65,0,0,1,469.58,315.83Z"/><path class="cls-1" d="M119.51,412.21h376a0,0,0,0,1,0,0v26.9a57.67,57.67,0,0,1-57.67,57.67H177.18a57.67,57.67,0,0,1-57.67-57.67v-26.9A0,0,0,0,1,119.51,412.21Z"/><path class="cls-2" d="M341.36,227.4a8.13,8.13,0,0,0,8.13-8.13v-6.9a8.13,8.13,0,0,0-16.26,0v6.9a8.13,8.13,0,0,0,8.13,8.13Zm0,0"/><path class="cls-2" d="M410.21,227.4a8.13,8.13,0,0,0,8.13-8.13v-6.9a8.13,8.13,0,0,0-16.26,0v6.9a8.13,8.13,0,0,0,8.13,8.13Zm0,0"/><path class="cls-2" d="M375.79,181.81a8.13,8.13,0,0,0,8.13-8.13v-6.9a8.13,8.13,0,0,0-16.26,0v6.9a8.13,8.13,0,0,0,8.13,8.13Zm0,0"/><path class="cls-2" d="M306.93,181.81a8.13,8.13,0,0,0,8.13-8.13v-6.9a8.13,8.13,0,1,0-16.26,0v6.9a8.13,8.13,0,0,0,8.13,8.13Zm0,0"/><path class="cls-2" d="M272.5,227.4a8.13,8.13,0,0,0,8.13-8.13v-6.9a8.13,8.13,0,0,0-16.26,0v6.9a8.13,8.13,0,0,0,8.13,8.13Zm0,0"/><path class="cls-2" d="M238.08,181.81a8.13,8.13,0,0,0,8.13-8.13v-6.9a8.13,8.13,0,1,0-16.26,0v6.9a8.13,8.13,0,0,0,8.13,8.13Zm0,0"/><path class="cls-2" d="M203.65,226.52a7.82,7.82,0,0,0,7.82-7.82v-6.64a7.82,7.82,0,0,0-15.64,0v6.64a7.82,7.82,0,0,0,7.82,7.82Zm0,0"/><polyline class="cls-1" points="210.66 496.99 69.22 496.99 38.51 16.53 339.49 16.53 331.43 116.74"/><line class="cls-1" x1="15.5" y1="16.53" x2="358.54" y2="16.53"/></svg>