<svg id="Layer_1" data-name="Layer 1" xmlns="http://www.w3.org/2000/svg" viewBox="0 0 512 512"><defs><style>.cls-1{fill:none;stroke:#464648;stroke-linecap:round;stroke-linejoin:round;stroke-width:30px;}</style></defs><title>Icon_TV</title><path class="cls-1" d="M324.46,465.89H468a28.13,28.13,0,0,0,28.13-28.13v-280A28.13,28.13,0,0,0,468,129.61H44.21a28.13,28.13,0,0,0-28.13,28.13v280a28.13,28.13,0,0,0,28.13,28.13H324.46Z"/><path class="cls-1" d="M299.75,405.1H391.4a18,18,0,0,0,18-18V208.35a18,18,0,0,0-18-18H120.82a18,18,0,0,0-18,18V387.14a18,18,0,0,0,18,18H299.75Z"/><polyline class="cls-1" points="342 17.4 251.64 125.61 174.23 58.77"/><line class="cls-1" x1="71.3" y1="466.97" x2="71.3" y2="495.6"/><line class="cls-1" x1="438.78" y1="466.97" x2="438.78" y2="495.6"/></svg>