<svg id="Layer_1" data-name="Layer 1" xmlns="http://www.w3.org/2000/svg" viewBox="0 0 512 512"><defs><style>.cls-1,.cls-2{fill:none;stroke:#464647;stroke-linecap:round;stroke-linejoin:round;}.cls-1{stroke-width:30px;}.cls-2{stroke-width:46px;}</style></defs><title>Icon_Music</title><path class="cls-1" d="M44.43,405.67a5.12,5.12,0,0,1-4.85-5.1l-13.7-147s0,0,0-.07C25.9,126.91,129.45,23.36,256,23.36h0c126.56,0,230.11,103.54,230.14,230.1a.77.77,0,0,1,0,.08l-13.7,134.84a5.12,5.12,0,0,1-4.87,5.1"/><path class="cls-2" d="M25.88,253.5C25.88,126.93,129.44,23.36,256,23.36h0c126.57,0,230.14,103.56,230.14,230.14"/><path class="cls-1" d="M442.41,351.24l-12.77-3.35V324a28.43,28.43,0,0,0-28.34-28.34H361A28.43,28.43,0,0,0,332.69,324V468.06A28.43,28.43,0,0,0,361,496.4H401.3a28.43,28.43,0,0,0,28.34-28.34V444.15l12.77-3.35A15.57,15.57,0,0,0,454,425.74V366.3A15.57,15.57,0,0,0,442.41,351.24Z"/><path class="cls-1" d="M151,295.64H110.73A28.43,28.43,0,0,0,82.39,324v23.91l-12.77,3.35A15.57,15.57,0,0,0,58,366.3v59.44A15.57,15.57,0,0,0,69.62,440.8l12.77,3.35v23.91a28.42,28.42,0,0,0,28.34,28.34H151a28.43,28.43,0,0,0,28.34-28.34V324A28.43,28.43,0,0,0,151,295.64Z"/></svg>