<svg id="Layer_1" data-name="Layer 1" xmlns="http://www.w3.org/2000/svg" viewBox="0 0 512 512"><defs><style>.cls-1{fill:none;stroke:#fff;stroke-linecap:round;stroke-linejoin:round;stroke-width:30px;}</style></defs><title>Icon_Air-Conditioning_White</title><line class="cls-1" x1="256" y1="15.598" x2="256" y2="496.402"/><line class="cls-1" x1="184.649" y1="57.365" x2="252.066" y2="96.288"/><line class="cls-1" x1="327.351" y1="57.365" x2="259.934" y2="96.288"/><line class="cls-1" x1="184.649" y1="441.923" x2="252.066" y2="403"/><line class="cls-1" x1="327.351" y1="441.923" x2="259.934" y2="403"/><line class="cls-1" x1="47.987" y1="136.195" x2="474.013" y2="382.161"/><line class="cls-1" x1="52.434" y1="221.152" x2="119.851" y2="182.229"/><line class="cls-1" x1="123.786" y1="97.568" x2="123.786" y2="175.415"/><line class="cls-1" x1="387.205" y1="414.432" x2="387.205" y2="336.585"/><line class="cls-1" x1="458.556" y1="290.848" x2="391.139" y2="329.771"/><line class="cls-1" x1="47.987" y1="375.805" x2="474.013" y2="129.839"/><line class="cls-1" x1="52.434" y1="290.848" x2="119.851" y2="329.771"/><line class="cls-1" x1="123.786" y1="414.432" x2="123.786" y2="336.585"/><line class="cls-1" x1="387.205" y1="97.568" x2="387.205" y2="175.415"/><line class="cls-1" x1="458.556" y1="221.152" x2="391.139" y2="182.229"/></svg>