<svg id="Layer_1" data-name="Layer 1" xmlns="http://www.w3.org/2000/svg" viewBox="0 0 512 512"><defs><style>.cls-1,.cls-2{fill:none;stroke:#fff;stroke-linecap:round;stroke-linejoin:round;}.cls-1{stroke-width:30px;}.cls-2{stroke-width:46px;}</style></defs><title>Icon_Music_White</title><path class="cls-1" d="M44.427,405.675a5.123,5.123,0,0,1-4.847-5.1l-13.7-147.039c0-.024,0-.048,0-.072.02-126.558,103.573-230.1,230.136-230.1h0c126.562,0,230.114,103.54,230.136,230.1a.768.768,0,0,1,0,.078l-13.7,134.837a5.123,5.123,0,0,1-4.873,5.1"/><path class="cls-2" d="M25.88,253.5c0-126.575,103.561-230.136,230.136-230.136h0c126.575,0,230.136,103.561,230.136,230.136"/><path class="cls-1" d="M442.414,351.239l-12.774-3.35V323.984A28.425,28.425,0,0,0,401.3,295.642H361.035a28.425,28.425,0,0,0-28.342,28.342V468.06A28.425,28.425,0,0,0,361.035,496.4H401.3A28.425,28.425,0,0,0,429.64,468.06V444.155l12.774-3.35a15.575,15.575,0,0,0,11.624-15.065V366.3A15.575,15.575,0,0,0,442.414,351.239Z"/><path class="cls-1" d="M151,295.642H110.733a28.425,28.425,0,0,0-28.342,28.342v23.906l-12.774,3.35A15.575,15.575,0,0,0,57.994,366.3V425.74A15.574,15.574,0,0,0,69.617,440.8l12.774,3.35V468.06A28.425,28.425,0,0,0,110.733,496.4H151a28.425,28.425,0,0,0,28.342-28.342V323.984A28.425,28.425,0,0,0,151,295.642Z"/></svg>