<svg width="172" height="172" viewBox="0 0 172 172" fill="none" xmlns="http://www.w3.org/2000/svg">
<g clip-path="url(#clip0_230_148)">
<path d="M85.63 171.26C132.922 171.26 171.26 132.922 171.26 85.63C171.26 38.3379 132.922 0 85.63 0C38.3379 0 0 38.3379 0 85.63C0 132.922 38.3379 171.26 85.63 171.26Z" fill="#1F2A4C"/>
<path d="M55.59 68.2799L66.41 60.4199L55.59 51.9399" stroke="#CCFF36" stroke-width="5" stroke-linejoin="round"/>
<path d="M117.7 102.99L106.89 110.85L117.7 119.32" stroke="#CCFF36" stroke-width="5" stroke-linejoin="round"/>
<path d="M63.59 60.11C63.59 60.11 48.7 58.2 40.03 68.28C32.79 76.7 31.68 93.8 41.07 102.99C50.63 112.35 65.51 114.87 74.85 106.94C84.63 98.64 85.22 77.21 91.29 69.17C97.37 61.13 109.81 57.44 119.71 61.16C129.62 64.89 136.47 75.01 136.92 85.77C137.26 94.04 131.29 103.97 123.44 107.97C115.59 111.97 109.81 110.93 109.81 110.93" stroke="#CCFF36" stroke-width="5" stroke-linejoin="round"/>
</g>
<defs>
<clipPath id="clip0_230_148">
<rect width="171.26" height="171.26" fill="white"/>
</clipPath>
</defs>
</svg>
