<svg width="172" height="172" viewBox="0 0 172 172" fill="none" xmlns="http://www.w3.org/2000/svg">
<g clip-path="url(#clip0_230_139)">
<path d="M85.63 171.26C132.922 171.26 171.26 132.922 171.26 85.63C171.26 38.3379 132.922 0 85.63 0C38.3379 0 0 38.3379 0 85.63C0 132.922 38.3379 171.26 85.63 171.26Z" fill="#1F2A4C"/>
<path d="M133.03 87.8299L136.32 100.39C136.88 102.52 136.05 104.77 134.24 106.03L123.94 113.19C122.92 113.9 122.19 114.94 121.87 116.14L119.41 125.29C118.79 127.58 116.72 129.17 114.35 129.17H101.41C100.17 129.17 98.96 129.61 98.02 130.42L89.71 137.48C87.91 139.01 85.32 139.14 83.37 137.82L72.86 130.66C71.87 129.99 70.68 129.67 69.49 129.77L58.82 130.62C56.36 130.82 54.09 129.27 53.38 126.9L50.02 115.73C49.67 114.58 48.95 113.59 47.95 112.91L37.92 106.07C36.06 104.8 35.22 102.49 35.83 100.33L39.26 88.0699C39.55 87.0299 39.51 85.9299 39.16 84.9199L35.08 73.2999C34.28 71.0199 35.14 68.4799 37.18 67.1599L47.87 60.2299C48.92 59.5499 49.69 58.5199 50.04 57.3199L53.26 46.4799C53.92 44.2599 55.97 42.7299 58.29 42.7299H69.37C70.64 42.7299 71.86 42.2699 72.81 41.4399L81.52 33.8499C83.33 32.2699 85.98 32.1299 87.95 33.4999L99.05 41.1999C100.05 41.8999 101.27 42.2199 102.49 42.1199L112.11 41.2999C114.5 41.0999 116.72 42.5299 117.51 44.7899L121.67 56.7099C121.99 57.6399 122.57 58.4499 123.33 59.0699L133.54 67.2899C135.14 68.5799 135.84 70.6799 135.33 72.6599L134.07 77.6199" stroke="#CCFF36" stroke-width="5" stroke-linejoin="round"/>
<path d="M61.47 110.06L107.47 63.25" stroke="#CCFF36" stroke-width="5" stroke-linejoin="round"/>
<path d="M98.24 113.19C103.343 113.19 107.48 109.053 107.48 103.95C107.48 98.8468 103.343 94.71 98.24 94.71C93.1369 94.71 89 98.8468 89 103.95C89 109.053 93.1369 113.19 98.24 113.19Z" stroke="#CCFF36" stroke-width="5" stroke-linejoin="round"/>
<path d="M71.31 78.6299C76.4131 78.6299 80.55 74.493 80.55 69.3899C80.55 64.2868 76.4131 60.1499 71.31 60.1499C66.2069 60.1499 62.07 64.2868 62.07 69.3899C62.07 74.493 66.2069 78.6299 71.31 78.6299Z" stroke="#CCFF36" stroke-width="5" stroke-linejoin="round"/>
</g>
<defs>
<clipPath id="clip0_230_139">
<rect width="171.26" height="171.26" fill="white"/>
</clipPath>
</defs>
</svg>
