<svg width="172" height="172" viewBox="0 0 172 172" fill="none" xmlns="http://www.w3.org/2000/svg">
<g clip-path="url(#clip0_230_126)">
<path d="M85.63 171.26C132.922 171.26 171.26 132.922 171.26 85.63C171.26 38.3379 132.922 0 85.63 0C38.3379 0 0 38.3379 0 85.63C0 132.922 38.3379 171.26 85.63 171.26Z" fill="#1F2A4C"/>
<path d="M114.73 47.59C112.05 45.32 101.64 37.07 85.99 37.07C70.21 37.07 59.75 45.47 57.1 47.74C57.2 43.25 57.3 38.75 57.4 34.26" stroke="#CCFF36" stroke-width="5" stroke-linejoin="round"/>
<path d="M57.1 123.67C59.78 125.94 70.19 134.19 85.84 134.19C101.62 134.19 112.08 125.79 114.73 123.52C114.63 128.01 114.53 132.51 114.43 137" stroke="#CCFF36" stroke-width="5" stroke-linejoin="round"/>
<path d="M85.63 117.85C103.425 117.85 117.85 103.425 117.85 85.6299C117.85 67.8353 103.425 53.4099 85.63 53.4099C67.8354 53.4099 53.41 67.8353 53.41 85.6299C53.41 103.425 67.8354 117.85 85.63 117.85Z" stroke="#CCFF36" stroke-width="5" stroke-linejoin="round"/>
<path d="M123.83 113.99C126.1 111.31 134.35 100.9 134.35 85.2499C134.35 69.4699 125.95 59.0099 123.68 56.3599C128.17 56.4599 132.67 56.5599 137.16 56.6599" stroke="#CCFF36" stroke-width="5" stroke-linejoin="round"/>
<path d="M47.43 56.3599C45.16 59.0399 36.91 69.4499 36.91 85.0999C36.91 100.88 45.31 111.34 47.58 113.99C43.09 113.89 38.59 113.79 34.1 113.69" stroke="#CCFF36" stroke-width="5" stroke-linejoin="round"/>
</g>
<defs>
<clipPath id="clip0_230_126">
<rect width="171.26" height="171.26" fill="white"/>
</clipPath>
</defs>
</svg>
