<svg id="Layer_1" data-name="Layer 1" xmlns="http://www.w3.org/2000/svg" xmlns:xlink="http://www.w3.org/1999/xlink" viewBox="0 0 512 512"><defs><style>.cls-1,.cls-6{fill:#f15a24;}.cls-1{opacity:0.14;}.cls-2{fill:url(#linear-gradient);}.cls-3,.cls-4{fill:#fff;}.cls-4{opacity:0.58;}.cls-5{fill:#ffcbbb;}.cls-6{opacity:0.42;}.cls-7{opacity:0.44;fill:url(#radial-gradient);}.cls-8{stroke:#fff;stroke-miterlimit:10;stroke-width:6px;fill:url(#linear-gradient-2);}</style><linearGradient id="linear-gradient" x1="-261.988" y1="232.974" x2="-140.661" y2="376.584" gradientTransform="translate(446.011 -98.096) scale(1.16 1.126)" gradientUnits="userSpaceOnUse"><stop offset="0" stop-color="#ffa736"/><stop offset="0.487" stop-color="#ff8f45"/><stop offset="0.984" stop-color="#ff8f45"/></linearGradient><radialGradient id="radial-gradient" cx="316.17" cy="343.031" r="55.83" gradientUnits="userSpaceOnUse"><stop offset="0" stop-color="#f7931e"/><stop offset="1" stop-color="#f15a24"/></radialGradient><linearGradient id="linear-gradient-2" x1="296.579" y1="324.724" x2="375.33" y2="365.376" gradientUnits="userSpaceOnUse"><stop offset="0" stop-color="#ffa736"/><stop offset="0.598" stop-color="#ff8f45"/><stop offset="0.984" stop-color="#ff8f45"/></linearGradient></defs><title>Bill</title><circle class="cls-1" cx="256" cy="256" r="256"/><path class="cls-2" d="M331.5,372.362h-189a14.5,14.5,0,0,1-14.5-14.5v-230a14.5,14.5,0,0,1,14.5-14.5H277s69,68,69,70v174.5A14.5,14.5,0,0,1,331.5,372.362Z"/><path class="cls-3" d="M293.01,250.828H181.9a4.277,4.277,0,1,0,0,8.527H293.01a4.277,4.277,0,1,0,0-8.527Z"/><path class="cls-4" d="M293.01,284.3H181.9a4.277,4.277,0,1,0,0,8.527H293.01a4.277,4.277,0,1,0,0-8.527Z"/><path class="cls-5" d="M277,113.138V155.3a27.063,27.063,0,0,0,27.063,27.063h42.161Z"/><polygon class="cls-6" points="304.144 182.73 346.02 182.73 345.876 189.71 304.144 182.73"/><polygon class="cls-6" points="276.797 113.507 276.797 157.947 269.96 113.507 276.797 113.507"/><path class="cls-3" d="M207.144,188.9v10.813c4.857,1.8,7.465,5.111,7.649,9.2.2,4.356-2.034,8.551-7.7,10.434,0,.912-.045,1.856.01,2.793a1.944,1.944,0,0,1-2.1,2.218,1.969,1.969,0,0,1-2.078-2.079c-.073-.994-.015-2-.015-2.959-2.295-.987-4.515-1.853-5.823-4.15-.689-1.211-.726-2.222.357-3.077a1.917,1.917,0,0,1,2.889.274c.685.741,1.481,1.377,2.572,2.374,0-3.732.028-6.95-.038-10.165a1.476,1.476,0,0,0-.834-1.063c-4.254-1.387-6.37-4.573-6.731-8.854a9.629,9.629,0,0,1,7.606-10.1c0-1.024-.019-2.078,0-3.132a1.892,1.892,0,0,1,2.053-2.064,1.82,1.82,0,0,1,2.122,2.094,3.781,3.781,0,0,1,0,.531c-.254,1.64.241,2.537,1.925,3.243a12.6,12.6,0,0,1,4.02,3.3,2.328,2.328,0,0,1-.688,3.344,2.066,2.066,0,0,1-2.9-.932A13.176,13.176,0,0,0,207.144,188.9Zm.039,25.747c1.972-1.473,3.5-2.931,3.371-5.352-.121-2.19-1.474-3.612-3.371-4.876Zm-4.35-25.442a5.484,5.484,0,0,0-3.009,6.173,4.565,4.565,0,0,0,3.009,3.642Z"/><path class="cls-3" d="M239.657,190.065v12.129c5.448,2.014,8.374,5.733,8.58,10.317.219,4.887-2.282,9.592-8.633,11.7,0,1.023-.051,2.082.011,3.133a2.181,2.181,0,0,1-2.35,2.487,2.208,2.208,0,0,1-2.331-2.332c-.082-1.115-.016-2.241-.016-3.319-2.574-1.108-5.065-2.078-6.532-4.655-.773-1.358-.814-2.492.4-3.452a2.151,2.151,0,0,1,3.241.307c.769.832,1.661,1.544,2.885,2.663,0-4.187.031-7.8-.043-11.4a1.655,1.655,0,0,0-.935-1.192c-4.772-1.556-7.145-5.13-7.55-9.931a10.8,10.8,0,0,1,8.532-11.33c0-1.148-.022-2.331.005-3.513a2.122,2.122,0,0,1,2.3-2.315,2.041,2.041,0,0,1,2.38,2.349,4.241,4.241,0,0,1,0,.6c-.285,1.84.27,2.845,2.159,3.638a14.136,14.136,0,0,1,4.509,3.7,2.611,2.611,0,0,1-.772,3.751c-1.307.651-2.378.272-3.257-1.045A14.78,14.78,0,0,0,239.657,190.065Zm.044,28.881c2.212-1.652,3.931-3.287,3.781-6-.136-2.457-1.653-4.051-3.781-5.469Zm-4.879-28.538a6.152,6.152,0,0,0-3.375,6.924,5.12,5.12,0,0,0,3.375,4.085Z"/><path class="cls-3" d="M268.658,188.9v10.813c4.857,1.8,7.465,5.111,7.649,9.2.2,4.356-2.034,8.551-7.7,10.434,0,.912-.045,1.856.01,2.793a1.944,1.944,0,0,1-2.1,2.218,1.969,1.969,0,0,1-2.078-2.079c-.073-.994-.015-2-.015-2.959-2.295-.987-4.515-1.853-5.823-4.15-.689-1.211-.726-2.222.357-3.077a1.917,1.917,0,0,1,2.889.274c.685.741,1.481,1.377,2.572,2.374,0-3.732.028-6.95-.038-10.165a1.476,1.476,0,0,0-.834-1.063c-4.254-1.387-6.37-4.573-6.731-8.854a9.629,9.629,0,0,1,7.606-10.1c0-1.024-.019-2.078,0-3.132a1.892,1.892,0,0,1,2.053-2.064,1.82,1.82,0,0,1,2.122,2.094,3.781,3.781,0,0,1,0,.531c-.254,1.64.241,2.537,1.925,3.243a12.6,12.6,0,0,1,4.02,3.3,2.328,2.328,0,0,1-.688,3.344,2.066,2.066,0,0,1-2.9-.932A13.176,13.176,0,0,0,268.658,188.9Zm.039,25.747c1.972-1.473,3.5-2.931,3.371-5.352-.121-2.19-1.474-3.612-3.371-4.876Zm-4.35-25.442a5.484,5.484,0,0,0-3.009,6.173,4.565,4.565,0,0,0,3.009,3.642Z"/><circle class="cls-7" cx="316.17" cy="343.031" r="55.83"/><circle class="cls-8" cx="328.17" cy="341.031" r="55.83"/><path class="cls-3" d="M319.9,365.25l-19.468-19.469a3.632,3.632,0,0,1,5.136-5.136L319.9,354.977l34.483-34.483a3.632,3.632,0,0,1,5.136,5.136Z"/></svg>