<svg xmlns="http://www.w3.org/2000/svg" xmlns:xlink="http://www.w3.org/1999/xlink" viewBox="0 0 512 512"><defs><style>.cls-1{fill:none;}.cls-2{isolation:isolate;}.cls-10,.cls-12,.cls-3{fill:#f15a24;}.cls-3{opacity:0.14;}.cls-4,.cls-5,.cls-6{opacity:0.67;}.cls-4{fill:url(#radial-gradient);}.cls-5{fill:url(#radial-gradient-2);}.cls-6{fill:url(#radial-gradient-3);}.cls-7{fill:#ffc85e;}.cls-8{fill:#ff9f4a;}.cls-9{clip-path:url(#clip-path);}.cls-10{opacity:0.2;mix-blend-mode:multiply;}.cls-11{fill:#fff;}.cls-12{opacity:0.3;}.cls-13{fill:url(#linear-gradient);}.cls-14{fill:#e5e5e5;}.cls-15{fill:#ffb654;}</style><radialGradient id="radial-gradient" cx="-3219.571" cy="1654.707" r="9.507" gradientTransform="translate(3310.143 -1513.778)" gradientUnits="userSpaceOnUse"><stop offset="0" stop-color="#f7931e"/><stop offset="1" stop-color="#f15a24"/></radialGradient><radialGradient id="radial-gradient-2" cx="1755.844" cy="-3191.267" r="13.295" gradientTransform="translate(-2750.476 -1486.456) rotate(90)" xlink:href="#radial-gradient"/><radialGradient id="radial-gradient-3" cx="1731.71" cy="-2901.61" r="9.507" gradientTransform="translate(-2682.864 -1275.122) rotate(90)" xlink:href="#radial-gradient"/><clipPath id="clip-path"><circle class="cls-1" cx="256" cy="256" r="86"/></clipPath><linearGradient id="linear-gradient" x1="108.291" y1="388.026" x2="165.566" y2="388.026" gradientUnits="userSpaceOnUse"><stop offset="0" stop-color="#ffa736"/><stop offset="0.582" stop-color="#ff8f45"/><stop offset="0.984" stop-color="#ff8f45"/></linearGradient></defs><title>Immediate-commission</title><g class="cls-2"><g id="Layer_1" data-name="Layer 1"><circle class="cls-3" cx="257" cy="256" r="256"/><circle class="cls-4" cx="90.363" cy="142.807" r="4.172" transform="translate(-74.513 105.723) rotate(-45)"/><circle class="cls-5" cx="438.165" cy="269.097" r="5.835" transform="translate(-61.945 388.646) rotate(-45)"/><circle class="cls-6" cx="216.868" cy="456.379" r="4.172" transform="translate(-259.19 287.019) rotate(-45)"/><circle class="cls-7" cx="256" cy="256" r="86"/><circle class="cls-8" cx="256" cy="256" r="65"/><path class="cls-7" d="M246,282c-2-2-3-5-4-9l-17,2c1,8,4,15,9,19,5,5,11,7,18,8v8h9v-9c8-1,15-4,19-10,5-5,7-12,7-19s-2-13-6-17-11-8-21-11V221c4,2,7,5,8,10l16-2a27.514,27.514,0,0,0-8-15c-4-4-9-6-16-7v-7h-9v6c-7,1-13,3-18,8-4,5-7,11-7,18a27.919,27.919,0,0,0,6,18c4,5,10,8,18,11v27A15.377,15.377,0,0,1,246,282Zm15-18c4,1,7,3,8,5s3,5,3,7a11.355,11.355,0,0,1-3,8c-2,2-5,4-8,4Zm-15-26c-1-2-2-4-2-6a18.539,18.539,0,0,1,2-7c1-2,3-3,6-4v22A10.242,10.242,0,0,1,246,238Z"/><g class="cls-9"><path class="cls-10" d="M305.328,357.75l59.745-42.676a15.141,15.141,0,0,1,21.127,3.509c.24.334.465.679.674,1.029h0a15.142,15.142,0,0,1-4.224,20.15l-63.406,52.555a31.318,31.318,0,0,1-19.988,7.206H169.566V336.864L195.084,315.6a20.89,20.89,0,0,1,13.372-4.84h68.152a13.052,13.052,0,0,1,13.054,13.054h0a13.052,13.052,0,0,1-13.054,13.054h-33.94a10.44,10.44,0,0,0-10.443,10.443h0a10.44,10.44,0,0,0,10.443,10.443Z"/><path class="cls-10" d="M216,161.415l-59.745,42.676a15.141,15.141,0,0,1-21.127-3.509c-.24-.334-.465-.679-.674-1.029h0a15.142,15.142,0,0,1,4.224-20.15l63.406-52.555a31.318,31.318,0,0,1,19.988-7.206H351.761V182.3l-25.518,21.268a20.89,20.89,0,0,1-13.372,4.84H244.718a13.052,13.052,0,0,1-13.054-13.054h0A13.052,13.052,0,0,1,244.718,182.3h33.94A10.44,10.44,0,0,0,289.1,171.858h0a10.44,10.44,0,0,0-10.443-10.443Z"/></g><path class="cls-11" d="M301.328,369.75l59.745-42.676a15.141,15.141,0,0,1,21.127,3.509c.24.334.465.679.674,1.029h0a15.142,15.142,0,0,1-4.224,20.15l-63.406,52.555a31.318,31.318,0,0,1-19.988,7.206H165.566V348.864L191.084,327.6a20.89,20.89,0,0,1,13.372-4.84h68.152a13.052,13.052,0,0,1,13.054,13.054h0a13.052,13.052,0,0,1-13.054,13.054h-33.94a10.44,10.44,0,0,0-10.443,10.443h0a10.44,10.44,0,0,0,10.443,10.443Z"/><path class="cls-12" d="M301.328,369.75l59.745-42.676a15.141,15.141,0,0,1,21.127,3.509c.24.334.465.679.674,1.029h0a15.142,15.142,0,0,1-4.224,20.15l-63.406,52.555a31.318,31.318,0,0,1-19.988,7.206H165.566V348.864L191.084,327.6a20.89,20.89,0,0,1,13.372-4.84h68.152a13.052,13.052,0,0,1,13.054,13.054h0a13.052,13.052,0,0,1-13.054,13.054h-33.94a10.44,10.44,0,0,0-10.443,10.443h0a10.44,10.44,0,0,0,10.443,10.443Z"/><rect class="cls-13" x="108.291" y="343.643" width="57.276" height="88.767"/><circle class="cls-14" cx="134.399" cy="401.08" r="10.443"/><path class="cls-11" d="M216,149.415l-59.745,42.676a15.141,15.141,0,0,1-21.127-3.509c-.24-.334-.465-.679-.674-1.029h0a15.142,15.142,0,0,1,4.224-20.15l63.406-52.555a31.318,31.318,0,0,1,19.988-7.206H351.761V170.3l-25.518,21.268a20.89,20.89,0,0,1-13.372,4.84H244.718a13.052,13.052,0,0,1-13.054-13.054h0A13.052,13.052,0,0,1,244.718,170.3h33.94A10.44,10.44,0,0,0,289.1,159.858h0a10.44,10.44,0,0,0-10.443-10.443Z"/><path class="cls-12" d="M216,149.415l-59.745,42.676a15.141,15.141,0,0,1-21.127-3.509c-.24-.334-.465-.679-.674-1.029h0a15.142,15.142,0,0,1,4.224-20.15l63.406-52.555a31.318,31.318,0,0,1,19.988-7.206H351.761V170.3l-25.518,21.268a20.89,20.89,0,0,1-13.372,4.84H244.718a13.052,13.052,0,0,1-13.054-13.054h0A13.052,13.052,0,0,1,244.718,170.3h33.94A10.44,10.44,0,0,0,289.1,159.858h0a10.44,10.44,0,0,0-10.443-10.443Z"/><rect class="cls-15" x="351.761" y="86.756" width="57.276" height="88.767"/><circle class="cls-14" cx="382.928" cy="118.086" r="10.443"/></g></g></svg>