<svg xmlns="http://www.w3.org/2000/svg" xmlns:xlink="http://www.w3.org/1999/xlink" viewBox="0 0 512 512"><defs><style>.cls-1{isolation:isolate;}.cls-11,.cls-2{fill:#f15a24;}.cls-2{opacity:0.14;}.cls-3{fill:#fbfefb;}.cls-4{fill:#e0e0e0;}.cls-5{fill:url(#linear-gradient);}.cls-6,.cls-7,.cls-8{fill:#fff;}.cls-10,.cls-6{opacity:0.3;}.cls-6{mix-blend-mode:soft-light;}.cls-8,.cls-9{font-size:72px;font-family:Roboto-Black, Roboto;}.cls-8{letter-spacing:0.05em;}.cls-9{fill:#ff8f45;letter-spacing:0.075em;}.cls-12{fill:#ffc263;}.cls-13{fill:url(#linear-gradient-2);}.cls-14{opacity:0.21;fill:url(#radial-gradient);}.cls-15{stroke:#fff;stroke-miterlimit:10;stroke-width:6px;fill:url(#radial-gradient-2);}</style><linearGradient id="linear-gradient" x1="140.328" y1="103.654" x2="281.092" y2="408.643" gradientUnits="userSpaceOnUse"><stop offset="0" stop-color="#ffa736"/><stop offset="0.487" stop-color="#ff8f45"/><stop offset="0.984" stop-color="#ff8f45"/></linearGradient><linearGradient id="linear-gradient-2" x1="288.739" y1="427.969" x2="396.309" y2="427.969" gradientUnits="userSpaceOnUse"><stop offset="0" stop-color="#ffa736"/><stop offset="0.582" stop-color="#ff8f45"/><stop offset="0.984" stop-color="#ff8f45"/></linearGradient><radialGradient id="radial-gradient" cx="353.9" cy="151.617" fx="336.7781444705281" r="99.886" gradientUnits="userSpaceOnUse"><stop offset="0" stop-color="#f7931e"/><stop offset="1" stop-color="#f15a24"/></radialGradient><radialGradient id="radial-gradient-2" cx="359.9" cy="137.617" fx="342.7781444705281" r="99.886" xlink:href="#linear-gradient"/></defs><title>Intuitive-platform</title><g class="cls-1"><g id="Layer_1" data-name="Layer 1"><circle class="cls-2" cx="256" cy="257" r="255"/><path class="cls-3" d="M290.948,118.582V372.1a29.691,29.691,0,0,1-29.69,29.69H150.189A29.691,29.691,0,0,1,120.5,372.1V118.582a29.7,29.7,0,0,1,29.69-29.69h111.07A29.691,29.691,0,0,1,290.948,118.582Z"/><path class="cls-4" d="M215.31,102.5H196.134a1.649,1.649,0,0,1,0-3.3H215.31a1.649,1.649,0,0,1,0,3.3Z"/><path class="cls-4" d="M223.385,102.5h-.722a1.649,1.649,0,1,1,0-3.3h.722a1.649,1.649,0,1,1,0,3.3Z"/><path class="cls-5" d="M261.255,97.966H246.134a4.124,4.124,0,0,0-4.124,4.124v3.78a6.942,6.942,0,0,1-6.942,6.942H176.375a6.942,6.942,0,0,1-6.942-6.942v-3.78a4.124,4.124,0,0,0-4.124-4.124H150.19a20.618,20.618,0,0,0-20.619,20.618V372.1a20.619,20.619,0,0,0,20.619,20.619H261.255A20.618,20.618,0,0,0,281.873,372.1V118.584A20.618,20.618,0,0,0,261.255,97.966Z"/><path class="cls-6" d="M129.479,121.711V375.229a29.625,29.625,0,0,0,10.075,22.287l150.8-297.637a29.565,29.565,0,0,0-20.115-7.858H159.169A29.691,29.691,0,0,0,129.479,121.711Z"/><rect class="cls-7" x="244.902" y="188" width="107.143" height="72.692" rx="12" ry="12"/><text class="cls-8" transform="translate(143.498 246.848)">***</text><text class="cls-9" transform="translate(268.498 246.848)">*</text><path class="cls-7" d="M329.64,226.472c.036,17.48.133,53.03.369,60.345,4.677-17.476,27.618-15.554,27.618,5.2,5.251-14.878,25.38-12.881,25.38,3.5,8.752-10.5,23.63-5.251,23.63,16.628V343.65c0,14.2-3.483,19.059-12.252,33.257-7.06,11.432-12.344,16.4-11.759,37.151H303.117c2.338-20.748-10.523-29.714-16.369-47.187-4.677-13.107-6.432-23.227-7.015-37.46-.783-19.114-13.509-39.283-7.015-42.593,24.627-12.559,29.768,33.141,32.739,46.96,1.1-21.611,1.2-82.605,1.185-107.274a11.5,11.5,0,0,1,11.5-11.5h0A11.5,11.5,0,0,1,329.64,226.472Z"/><g class="cls-10"><path class="cls-11" d="M329.64,226.472c.036,17.48.133,53.03.369,60.345,4.677-17.476,27.618-15.554,27.618,5.2,5.251-14.878,25.38-12.881,25.38,3.5,8.752-10.5,23.63-5.251,23.63,16.628V343.65c0,14.2-3.483,19.059-12.252,33.257-7.06,11.432-12.344,16.4-11.759,37.151H303.117c2.338-20.748-10.523-29.714-16.369-47.187-4.677-13.107-6.432-23.227-7.015-37.46-.783-19.114-13.509-39.283-7.015-42.593,24.627-12.559,29.768,33.141,32.739,46.96,1.1-21.611,1.2-82.605,1.185-107.274a11.5,11.5,0,0,1,11.5-11.5h0A11.5,11.5,0,0,1,329.64,226.472Z"/></g><rect class="cls-12" x="294" y="407.989" width="97.047" height="28.269"/><rect class="cls-13" x="288.739" y="413.938" width="107.57" height="28.062"/><path class="cls-7" d="M301.577,431.636c6.435,0,6.445-10,0-10s-6.445,10,0,10Z"/><circle class="cls-14" cx="358.789" cy="166.656" r="49.282"/><circle class="cls-15" cx="364.789" cy="152.656" r="49.282"/><path class="cls-7" d="M359.393,172.552l-15.1-15.1a2.817,2.817,0,1,1,3.984-3.984l11.115,11.117,26.745-26.745a2.817,2.817,0,0,1,3.984,3.984Z"/></g></g></svg>